<?xml version="1.0" encoding="UTF-8" standalone="no"?>
<!DOCTYPE svg PUBLIC "-//W3C//DTD SVG 1.1//EN"
 "http://www.w3.org/Graphics/SVG/1.1/DTD/svg11.dtd">
<!-- Generated by graphviz version 2.38.0 (20140413.2041)
 -->
<!-- Title: /home/yukiosir/workspace/CompilerProject/Software/pinhao/lib/MachineLearning/GrammarEvolution/CandidateYAMLWrapper.cpp Pages: 1 -->
<!--zoomable 497 -->
<svg id="main" version="1.1" xmlns="http://www.w3.org/2000/svg" xmlns:xlink="http://www.w3.org/1999/xlink" xml:space="preserve" onload="init(evt)">
<style type="text/css"><![CDATA[
.edge:hover path { stroke: red; }
.edge:hover polygon { stroke: red; fill: red; }
]]></style>
<script type="text/javascript"><![CDATA[
var edges = document.getElementsByTagName('g');
if (edges && edges.length) {
  for (var i=0;i<edges.length;i++) {
    if (edges[i].id.substr(0,4)=='edge') {
      edges[i].setAttribute('class','edge');
    }
  }
}
]]></script>
        <defs>
                <circle id="rim" cx="0" cy="0" r="7"/>
                <circle id="rim2" cx="0" cy="0" r="3.5"/>
                <g id="zoomPlus">
                        <use xlink:href="#rim" fill="#404040">
                                <set attributeName="fill" to="#808080" begin="zoomplus.mouseover" end="zoomplus.mouseout"/>
                        </use>
                        <path d="M-4,0h8M0,-4v8" fill="none" stroke="white" stroke-width="1.5" pointer-events="none"/>
                </g>
                <g id="zoomMin">
                        <use xlink:href="#rim" fill="#404040">
                                <set attributeName="fill" to="#808080" begin="zoomminus.mouseover" end="zoomminus.mouseout"/>
                        </use>
                        <path d="M-4,0h8" fill="none" stroke="white" stroke-width="1.5" pointer-events="none"/>
                </g>
                <g id="dirArrow">
                        <path fill="none" stroke="white" stroke-width="1.5" d="M0,-3.0v7 M-2.5,-0.5L0,-3.0L2.5,-0.5"/>
                </g>
               <g id="resetDef">
                       <use xlink:href="#rim2" fill="#404040">
                               <set attributeName="fill" to="#808080" begin="reset.mouseover" end="reset.mouseout"/>
                       </use>
               </g>
        </defs>

<script type="text/javascript">
var viewWidth = 1673;
var viewHeight = 497;
var sectionId = 'dynsection-0';
</script>
<script xlink:href="svgpan.js"/>
<svg id="graph" class="graph">
<g id="viewport">
<title>/home/yukiosir/workspace/CompilerProject/Software/pinhao/lib/MachineLearning/GrammarEvolution/CandidateYAMLWrapper.cpp</title>
<polygon fill="white" stroke="none" points="-4,4 -4,-493 1668.87,-493 1668.87,4 -4,4"/>
<!-- Node0 -->
<g id="node1" class="node"><title>Node0</title>
<polygon fill="#bfbfbf" stroke="black" points="636.5,-436.5 636.5,-488.5 866.5,-488.5 866.5,-436.5 636.5,-436.5"/>
<text text-anchor="start" x="644.5" y="-476.5" font-family="Helvetica,sans-Serif" font-size="10.00">/home/yukiosir/workspace</text>
<text text-anchor="start" x="644.5" y="-465.5" font-family="Helvetica,sans-Serif" font-size="10.00">/CompilerProject/Software</text>
<text text-anchor="start" x="644.5" y="-454.5" font-family="Helvetica,sans-Serif" font-size="10.00">/pinhao/lib/MachineLearning</text>
<text text-anchor="middle" x="751.5" y="-443.5" font-family="Helvetica,sans-Serif" font-size="10.00">/GrammarEvolution/CandidateYAMLWrapper.cpp</text>
</g>
<!-- Node1 -->
<g id="node2" class="node"><title>Node1</title>
<g id="a_node2"><a xlink:href="Candidate_8h.html" target="_top" xlink:title="pinhao/MachineLearning\l/GrammarEvolution/Candidate.h">
<polygon fill="white" stroke="black" points="673.5,-123.5 673.5,-153.5 829.5,-153.5 829.5,-123.5 673.5,-123.5"/>
<text text-anchor="start" x="681.5" y="-141.5" font-family="Helvetica,sans-Serif" font-size="10.00">pinhao/MachineLearning</text>
<text text-anchor="middle" x="751.5" y="-130.5" font-family="Helvetica,sans-Serif" font-size="10.00">/GrammarEvolution/Candidate.h</text>
</a>
</g>
</g>
<!-- Node0&#45;&gt;Node1 -->
<g id="edge1" class="edge"><title>Node0&#45;&gt;Node1</title>
<path fill="none" stroke="midnightblue" d="M751.5,-436.158C751.5,-408.569 751.5,-363.149 751.5,-324 751.5,-324 751.5,-324 751.5,-266 751.5,-230.417 751.5,-189.203 751.5,-163.74"/>
<polygon fill="midnightblue" stroke="midnightblue" points="755,-163.539 751.5,-153.539 748,-163.539 755,-163.539"/>
</g>
<!-- Node8 -->
<g id="node9" class="node"><title>Node8</title>
<g id="a_node9"><a xlink:href="GrammarEvolution_8h.html" target="_top" xlink:title="pinhao/MachineLearning\l/GrammarEvolution/GrammarEvolution.h">
<polygon fill="white" stroke="black" points="379,-190.5 379,-220.5 572,-220.5 572,-190.5 379,-190.5"/>
<text text-anchor="start" x="387" y="-208.5" font-family="Helvetica,sans-Serif" font-size="10.00">pinhao/MachineLearning</text>
<text text-anchor="middle" x="475.5" y="-197.5" font-family="Helvetica,sans-Serif" font-size="10.00">/GrammarEvolution/GrammarEvolution.h</text>
</a>
</g>
</g>
<!-- Node0&#45;&gt;Node8 -->
<g id="edge8" class="edge"><title>Node0&#45;&gt;Node8</title>
<path fill="none" stroke="midnightblue" d="M724.281,-436.352C669.933,-386.139 548.867,-274.285 498.34,-227.602"/>
<polygon fill="midnightblue" stroke="midnightblue" points="500.577,-224.904 490.857,-220.689 495.827,-230.045 500.577,-224.904"/>
</g>
<!-- Node20 -->
<g id="node21" class="node"><title>Node20</title>
<g id="a_node21"><a xlink:href="Formula_8h.html" target="_top" xlink:title="pinhao/MachineLearning\l/GrammarEvolution/Formula.h">
<polygon fill="white" stroke="black" points="1085,-369.5 1085,-399.5 1232,-399.5 1232,-369.5 1085,-369.5"/>
<text text-anchor="start" x="1093" y="-387.5" font-family="Helvetica,sans-Serif" font-size="10.00">pinhao/MachineLearning</text>
<text text-anchor="middle" x="1158.5" y="-376.5" font-family="Helvetica,sans-Serif" font-size="10.00">/GrammarEvolution/Formula.h</text>
</a>
</g>
</g>
<!-- Node0&#45;&gt;Node20 -->
<g id="edge28" class="edge"><title>Node0&#45;&gt;Node20</title>
<path fill="none" stroke="midnightblue" d="M866.769,-439.975C932.981,-427.612 1014.65,-412.362 1074.72,-401.145"/>
<polygon fill="midnightblue" stroke="midnightblue" points="1075.73,-404.516 1084.92,-399.24 1074.45,-397.635 1075.73,-404.516"/>
</g>
<!-- Node2 -->
<g id="node3" class="node"><title>Node2</title>
<g id="a_node3"><a xlink:href="YAMLWrapper_8h.html" target="_top" xlink:title="pinhao/Support/YAMLWrapper.h">
<polygon fill="white" stroke="black" points="259,-62 259,-81 416,-81 416,-62 259,-62"/>
<text text-anchor="middle" x="337.5" y="-69" font-family="Helvetica,sans-Serif" font-size="10.00">pinhao/Support/YAMLWrapper.h</text>
</a>
</g>
</g>
<!-- Node1&#45;&gt;Node2 -->
<g id="edge2" class="edge"><title>Node1&#45;&gt;Node2</title>
<path fill="none" stroke="midnightblue" d="M673.255,-124.398C670.3,-123.922 667.374,-123.455 664.5,-123 557.967,-106.133 531.033,-103.867 424.5,-87 415.929,-85.643 406.889,-84.1762 398.008,-82.7147"/>
<polygon fill="midnightblue" stroke="midnightblue" points="398.519,-79.2518 388.082,-81.0731 397.377,-86.158 398.519,-79.2518"/>
</g>
<!-- Node6 -->
<g id="node7" class="node"><title>Node6</title>
<polygon fill="white" stroke="#bfbfbf" points="1196,-62 1196,-81 1231,-81 1231,-62 1196,-62"/>
<text text-anchor="middle" x="1213.5" y="-69" font-family="Helvetica,sans-Serif" font-size="10.00">map</text>
</g>
<!-- Node1&#45;&gt;Node6 -->
<g id="edge6" class="edge"><title>Node1&#45;&gt;Node6</title>
<path fill="none" stroke="midnightblue" d="M829.611,-126.51C934.632,-111.735 1116.18,-86.1925 1185.5,-76.4401"/>
<polygon fill="midnightblue" stroke="midnightblue" points="1186.21,-79.8737 1195.63,-75.0145 1185.24,-72.942 1186.21,-79.8737"/>
</g>
<!-- Node7 -->
<g id="node8" class="node"><title>Node7</title>
<polygon fill="white" stroke="#bfbfbf" points="735.5,-62 735.5,-81 779.5,-81 779.5,-62 735.5,-62"/>
<text text-anchor="middle" x="757.5" y="-69" font-family="Helvetica,sans-Serif" font-size="10.00">vector</text>
</g>
<!-- Node1&#45;&gt;Node7 -->
<g id="edge7" class="edge"><title>Node1&#45;&gt;Node7</title>
<path fill="none" stroke="midnightblue" d="M752.802,-123.396C753.673,-113.963 754.828,-101.448 755.775,-91.1891"/>
<polygon fill="midnightblue" stroke="midnightblue" points="759.263,-91.4739 756.697,-81.1945 752.293,-90.8305 759.263,-91.4739"/>
</g>
<!-- Node3 -->
<g id="node4" class="node"><title>Node3</title>
<polygon fill="white" stroke="#bfbfbf" points="519,-0.5 519,-19.5 608,-19.5 608,-0.5 519,-0.5"/>
<text text-anchor="middle" x="563.5" y="-7.5" font-family="Helvetica,sans-Serif" font-size="10.00">yaml&#45;cpp/yaml.h</text>
</g>
<!-- Node2&#45;&gt;Node3 -->
<g id="edge3" class="edge"><title>Node2&#45;&gt;Node3</title>
<path fill="none" stroke="midnightblue" d="M369.88,-61.9751C409.738,-51.4815 477.519,-33.6367 521.388,-22.087"/>
<polygon fill="midnightblue" stroke="midnightblue" points="522.4,-25.4398 531.18,-19.5091 520.618,-18.6705 522.4,-25.4398"/>
</g>
<!-- Node4 -->
<g id="node5" class="node"><title>Node4</title>
<polygon fill="white" stroke="#bfbfbf" points="889.5,-0.5 889.5,-19.5 943.5,-19.5 943.5,-0.5 889.5,-0.5"/>
<text text-anchor="middle" x="916.5" y="-7.5" font-family="Helvetica,sans-Serif" font-size="10.00">iostream</text>
</g>
<!-- Node2&#45;&gt;Node4 -->
<g id="edge4" class="edge"><title>Node2&#45;&gt;Node4</title>
<path fill="none" stroke="midnightblue" d="M384.816,-61.9611C397.663,-59.8212 411.591,-57.6638 424.5,-56 593.811,-34.1783 797.237,-19.088 879.398,-13.452"/>
<polygon fill="midnightblue" stroke="midnightblue" points="879.751,-16.9362 889.49,-12.7656 879.276,-9.95233 879.751,-16.9362"/>
</g>
<!-- Node5 -->
<g id="node6" class="node"><title>Node5</title>
<polygon fill="white" stroke="#bfbfbf" points="311.5,-0.5 311.5,-19.5 363.5,-19.5 363.5,-0.5 311.5,-0.5"/>
<text text-anchor="middle" x="337.5" y="-7.5" font-family="Helvetica,sans-Serif" font-size="10.00">ostream</text>
</g>
<!-- Node2&#45;&gt;Node5 -->
<g id="edge5" class="edge"><title>Node2&#45;&gt;Node5</title>
<path fill="none" stroke="midnightblue" d="M337.5,-61.9751C337.5,-53.5803 337.5,-40.4806 337.5,-29.6631"/>
<polygon fill="midnightblue" stroke="midnightblue" points="341,-29.5091 337.5,-19.5091 334,-29.5091 341,-29.5091"/>
</g>
<!-- Node8&#45;&gt;Node2 -->
<g id="edge24" class="edge"><title>Node8&#45;&gt;Node2</title>
<path fill="none" stroke="midnightblue" d="M378.893,-191.381C334.922,-183.233 289.741,-171.021 276.5,-154 258.33,-130.643 290.023,-102.975 314.126,-86.6269"/>
<polygon fill="midnightblue" stroke="midnightblue" points="316.081,-89.5308 322.556,-81.1451 312.265,-83.6623 316.081,-89.5308"/>
</g>
<!-- Node8&#45;&gt;Node7 -->
<g id="edge27" class="edge"><title>Node8&#45;&gt;Node7</title>
<path fill="none" stroke="midnightblue" d="M474.406,-190.381C473.829,-172.031 475.865,-140.297 494.5,-123 570.656,-52.3122 625.934,-116.715 725.5,-87 727.429,-86.4244 729.392,-85.7562 731.349,-85.029"/>
<polygon fill="midnightblue" stroke="midnightblue" points="733.004,-88.131 740.889,-81.0547 730.312,-81.6693 733.004,-88.131"/>
</g>
<!-- Node9 -->
<g id="node10" class="node"><title>Node9</title>
<g id="a_node10"><a xlink:href="Evolution_8h.html" target="_top" xlink:title="pinhao/MachineLearning\l/GrammarEvolution/Evolution.h">
<polygon fill="white" stroke="black" points="503.5,-123.5 503.5,-153.5 655.5,-153.5 655.5,-123.5 503.5,-123.5"/>
<text text-anchor="start" x="511.5" y="-141.5" font-family="Helvetica,sans-Serif" font-size="10.00">pinhao/MachineLearning</text>
<text text-anchor="middle" x="579.5" y="-130.5" font-family="Helvetica,sans-Serif" font-size="10.00">/GrammarEvolution/Evolution.h</text>
</a>
</g>
</g>
<!-- Node8&#45;&gt;Node9 -->
<g id="edge9" class="edge"><title>Node8&#45;&gt;Node9</title>
<path fill="none" stroke="midnightblue" d="M498.066,-190.396C512.785,-181.197 532.195,-169.066 548.373,-158.955"/>
<polygon fill="midnightblue" stroke="midnightblue" points="550.353,-161.845 556.978,-153.577 546.643,-155.909 550.353,-161.845"/>
</g>
<!-- Node12 -->
<g id="node13" class="node"><title>Node12</title>
<g id="a_node13"><a xlink:href="Optimizations_8h.html" target="_top" xlink:title="pinhao/Optimizer/Optimizations.h">
<polygon fill="white" stroke="black" points="286,-129 286,-148 447,-148 447,-129 286,-129"/>
<text text-anchor="middle" x="366.5" y="-136" font-family="Helvetica,sans-Serif" font-size="10.00">pinhao/Optimizer/Optimizations.h</text>
</a>
</g>
</g>
<!-- Node8&#45;&gt;Node12 -->
<g id="edge13" class="edge"><title>Node8&#45;&gt;Node12</title>
<path fill="none" stroke="midnightblue" d="M451.849,-190.396C433.316,-179.344 407.686,-164.061 389.36,-153.132"/>
<polygon fill="midnightblue" stroke="midnightblue" points="391.147,-150.123 380.766,-148.007 387.562,-156.135 391.147,-150.123"/>
</g>
<!-- Node15 -->
<g id="node16" class="node"><title>Node15</title>
<g id="a_node16"><a xlink:href="SerialSet_8h.html" target="_top" xlink:title="pinhao/Support/SerialSet.h">
<polygon fill="white" stroke="black" points="96,-129 96,-148 229,-148 229,-129 96,-129"/>
<text text-anchor="middle" x="162.5" y="-136" font-family="Helvetica,sans-Serif" font-size="10.00">pinhao/Support/SerialSet.h</text>
</a>
</g>
</g>
<!-- Node8&#45;&gt;Node15 -->
<g id="edge19" class="edge"><title>Node8&#45;&gt;Node15</title>
<path fill="none" stroke="midnightblue" d="M407.969,-190.476C349.553,-178.345 266.372,-161.071 213.416,-150.074"/>
<polygon fill="midnightblue" stroke="midnightblue" points="214.072,-146.635 203.569,-148.029 212.648,-153.489 214.072,-146.635"/>
</g>
<!-- Node19 -->
<g id="node20" class="node"><title>Node19</title>
<g id="a_node20"><a xlink:href="Types_8h.html" target="_top" xlink:title="pinhao/Support/Types.h">
<polygon fill="white" stroke="black" points="1512.5,-62 1512.5,-81 1632.5,-81 1632.5,-62 1512.5,-62"/>
<text text-anchor="middle" x="1572.5" y="-69" font-family="Helvetica,sans-Serif" font-size="10.00">pinhao/Support/Types.h</text>
</a>
</g>
</g>
<!-- Node8&#45;&gt;Node19 -->
<g id="edge25" class="edge"><title>Node8&#45;&gt;Node19</title>
<path fill="none" stroke="midnightblue" d="M572.428,-201.594C818.518,-193.959 1451,-172.64 1492.5,-154 1522.96,-140.317 1547.97,-109.358 1561.52,-89.7795"/>
<polygon fill="midnightblue" stroke="midnightblue" points="1564.59,-91.473 1567.22,-81.2083 1558.77,-87.596 1564.59,-91.473"/>
</g>
<!-- Node9&#45;&gt;Node7 -->
<g id="edge10" class="edge"><title>Node9&#45;&gt;Node7</title>
<path fill="none" stroke="midnightblue" d="M623.652,-123.409C652.816,-113.813 691.74,-100.454 725.5,-87 726.916,-86.4355 728.361,-85.843 729.816,-85.2333"/>
<polygon fill="midnightblue" stroke="midnightblue" points="731.582,-88.2814 739.349,-81.0756 728.784,-81.8651 731.582,-88.2814"/>
</g>
<!-- Node10 -->
<g id="node11" class="node"><title>Node10</title>
<polygon fill="white" stroke="#bfbfbf" points="1389,-0.5 1389,-19.5 1430,-19.5 1430,-0.5 1389,-0.5"/>
<text text-anchor="middle" x="1409.5" y="-7.5" font-family="Helvetica,sans-Serif" font-size="10.00">string</text>
</g>
<!-- Node9&#45;&gt;Node10 -->
<g id="edge11" class="edge"><title>Node9&#45;&gt;Node10</title>
<path fill="none" stroke="midnightblue" d="M581.414,-123.447C584.808,-104.555 593.81,-71.5451 616.5,-56 648.479,-34.091 1236.25,-15.9475 1378.63,-11.8614"/>
<polygon fill="midnightblue" stroke="midnightblue" points="1378.94,-15.3542 1388.84,-11.5709 1378.74,-8.35706 1378.94,-15.3542"/>
</g>
<!-- Node11 -->
<g id="node12" class="node"><title>Node11</title>
<polygon fill="white" stroke="#bfbfbf" points="929.5,-62 929.5,-81 981.5,-81 981.5,-62 929.5,-62"/>
<text text-anchor="middle" x="955.5" y="-69" font-family="Helvetica,sans-Serif" font-size="10.00">memory</text>
</g>
<!-- Node9&#45;&gt;Node11 -->
<g id="edge12" class="edge"><title>Node9&#45;&gt;Node11</title>
<path fill="none" stroke="midnightblue" d="M655.589,-124.346C735.752,-110.488 858.597,-89.2518 919.164,-78.7815"/>
<polygon fill="midnightblue" stroke="midnightblue" points="920.12,-82.1682 929.378,-77.0159 918.927,-75.2705 920.12,-82.1682"/>
</g>
<!-- Node12&#45;&gt;Node6 -->
<g id="edge18" class="edge"><title>Node12&#45;&gt;Node6</title>
<path fill="none" stroke="midnightblue" d="M436.866,-128.983C455.58,-126.867 475.792,-124.716 494.5,-123 632.721,-110.323 1071.32,-81.6939 1185.9,-74.28"/>
<polygon fill="midnightblue" stroke="midnightblue" points="1186.2,-77.7679 1195.95,-73.63 1185.75,-70.7825 1186.2,-77.7679"/>
</g>
<!-- Node12&#45;&gt;Node7 -->
<g id="edge17" class="edge"><title>Node12&#45;&gt;Node7</title>
<path fill="none" stroke="midnightblue" d="M421.235,-128.993C434.414,-126.987 448.455,-124.885 461.5,-123 578.702,-106.066 611.709,-119.781 725.5,-87 727.434,-86.4428 729.401,-85.7883 731.361,-85.0709"/>
<polygon fill="midnightblue" stroke="midnightblue" points="733.007,-88.1775 740.908,-81.1181 730.329,-81.7099 733.007,-88.1775"/>
</g>
<!-- Node12&#45;&gt;Node10 -->
<g id="edge16" class="edge"><title>Node12&#45;&gt;Node10</title>
<path fill="none" stroke="midnightblue" d="M407.099,-128.941C442.873,-120.635 495.923,-106.435 539.5,-87 563.38,-76.3502 564.559,-63.8494 589.5,-56 665.797,-31.9876 1238.41,-15.4952 1378.6,-11.7899"/>
<polygon fill="midnightblue" stroke="midnightblue" points="1378.75,-15.2872 1388.66,-11.5264 1378.57,-8.28956 1378.75,-15.2872"/>
</g>
<!-- Node13 -->
<g id="node14" class="node"><title>Node13</title>
<polygon fill="white" stroke="#bfbfbf" points="626,-62 626,-81 717,-81 717,-62 626,-62"/>
<text text-anchor="middle" x="671.5" y="-69" font-family="Helvetica,sans-Serif" font-size="10.00">llvm/IR/Module.h</text>
</g>
<!-- Node12&#45;&gt;Node13 -->
<g id="edge14" class="edge"><title>Node12&#45;&gt;Node13</title>
<path fill="none" stroke="midnightblue" d="M406.687,-128.936C461.889,-117.171 561.147,-96.0179 621.21,-83.2176"/>
<polygon fill="midnightblue" stroke="midnightblue" points="622.173,-86.591 631.224,-81.0834 620.714,-79.7447 622.173,-86.591"/>
</g>
<!-- Node14 -->
<g id="node15" class="node"><title>Node14</title>
<polygon fill="white" stroke="#bfbfbf" points="434,-62 434,-81 531,-81 531,-62 434,-62"/>
<text text-anchor="middle" x="482.5" y="-69" font-family="Helvetica,sans-Serif" font-size="10.00">llvm/IR/Function.h</text>
</g>
<!-- Node12&#45;&gt;Node14 -->
<g id="edge15" class="edge"><title>Node12&#45;&gt;Node14</title>
<path fill="none" stroke="midnightblue" d="M382.144,-128.734C401.711,-117.769 435.42,-98.8809 458.319,-86.0495"/>
<polygon fill="midnightblue" stroke="midnightblue" points="460.091,-89.069 467.104,-81.1273 456.669,-82.9623 460.091,-89.069"/>
</g>
<!-- Node15&#45;&gt;Node2 -->
<g id="edge20" class="edge"><title>Node15&#45;&gt;Node2</title>
<path fill="none" stroke="midnightblue" d="M185.739,-128.869C216.287,-117.522 270.126,-97.5246 304.783,-84.6522"/>
<polygon fill="midnightblue" stroke="midnightblue" points="306.288,-87.8266 314.444,-81.0637 303.851,-81.2646 306.288,-87.8266"/>
</g>
<!-- Node16 -->
<g id="node17" class="node"><title>Node16</title>
<g id="a_node17"><a xlink:href="SerialSetYAMLWrapper_8h.html" target="_top" xlink:title="pinhao/Support/SerialSet\lYAMLWrapper.h">
<polygon fill="white" stroke="black" points="0,-56.5 0,-86.5 125,-86.5 125,-56.5 0,-56.5"/>
<text text-anchor="start" x="8" y="-74.5" font-family="Helvetica,sans-Serif" font-size="10.00">pinhao/Support/SerialSet</text>
<text text-anchor="middle" x="62.5" y="-63.5" font-family="Helvetica,sans-Serif" font-size="10.00">YAMLWrapper.h</text>
</a>
</g>
</g>
<!-- Node15&#45;&gt;Node16 -->
<g id="edge21" class="edge"><title>Node15&#45;&gt;Node16</title>
<path fill="none" stroke="midnightblue" d="M149.014,-128.734C134.654,-119.4 111.461,-104.325 92.7018,-92.1311"/>
<polygon fill="midnightblue" stroke="midnightblue" points="94.4673,-89.1044 84.1754,-86.589 90.6524,-94.9735 94.4673,-89.1044"/>
</g>
<!-- Node17 -->
<g id="node18" class="node"><title>Node17</title>
<polygon fill="white" stroke="#bfbfbf" points="142.5,-62 142.5,-81 172.5,-81 172.5,-62 142.5,-62"/>
<text text-anchor="middle" x="157.5" y="-69" font-family="Helvetica,sans-Serif" font-size="10.00">set</text>
</g>
<!-- Node15&#45;&gt;Node17 -->
<g id="edge22" class="edge"><title>Node15&#45;&gt;Node17</title>
<path fill="none" stroke="midnightblue" d="M161.826,-128.734C161.091,-119.183 159.894,-103.618 158.945,-91.2829"/>
<polygon fill="midnightblue" stroke="midnightblue" points="162.42,-90.8294 158.164,-81.1273 155.441,-91.3663 162.42,-90.8294"/>
</g>
<!-- Node18 -->
<g id="node19" class="node"><title>Node18</title>
<polygon fill="white" stroke="#bfbfbf" points="190.5,-62 190.5,-81 240.5,-81 240.5,-62 190.5,-62"/>
<text text-anchor="middle" x="215.5" y="-69" font-family="Helvetica,sans-Serif" font-size="10.00">fstream</text>
</g>
<!-- Node15&#45;&gt;Node18 -->
<g id="edge23" class="edge"><title>Node15&#45;&gt;Node18</title>
<path fill="none" stroke="midnightblue" d="M169.648,-128.734C177.913,-118.598 191.699,-101.69 202.001,-89.0556"/>
<polygon fill="midnightblue" stroke="midnightblue" points="204.859,-91.0893 208.465,-81.1273 199.433,-86.6657 204.859,-91.0893"/>
</g>
<!-- Node19&#45;&gt;Node10 -->
<g id="edge26" class="edge"><title>Node19&#45;&gt;Node10</title>
<path fill="none" stroke="midnightblue" d="M1549.15,-61.9751C1520.39,-51.4788 1471.49,-33.6273 1439.85,-22.0779"/>
<polygon fill="midnightblue" stroke="midnightblue" points="1440.82,-18.7081 1430.23,-18.5669 1438.42,-25.2837 1440.82,-18.7081"/>
</g>
<!-- Node20&#45;&gt;Node7 -->
<g id="edge56" class="edge"><title>Node20&#45;&gt;Node7</title>
<path fill="none" stroke="midnightblue" d="M1084.87,-370.374C995.756,-352.348 857.5,-316.556 857.5,-268 857.5,-268 857.5,-268 857.5,-204.5 857.5,-167.306 860.146,-153.246 838.5,-123 826.212,-105.831 806.093,-93.2429 788.98,-84.929"/>
<polygon fill="midnightblue" stroke="midnightblue" points="790.401,-81.73 779.852,-80.7479 787.486,-88.0942 790.401,-81.73"/>
</g>
<!-- Node20&#45;&gt;Node9 -->
<g id="edge54" class="edge"><title>Node20&#45;&gt;Node9</title>
<path fill="none" stroke="midnightblue" d="M1084.85,-381.437C1019.25,-377.362 921.819,-365.72 843.5,-333 741.814,-290.518 642.69,-201.357 600.6,-160.618"/>
<polygon fill="midnightblue" stroke="midnightblue" points="603.015,-158.084 593.417,-153.597 598.122,-163.09 603.015,-158.084"/>
</g>
<!-- Node20&#45;&gt;Node10 -->
<g id="edge55" class="edge"><title>Node20&#45;&gt;Node10</title>
<path fill="none" stroke="midnightblue" d="M1232.2,-381.839C1372.37,-376.668 1663.5,-355.408 1663.5,-268 1663.5,-268 1663.5,-268 1663.5,-137.5 1663.5,-99.9813 1668.97,-81.5568 1641.5,-56 1612.65,-29.1539 1496.44,-17.2581 1440.24,-12.9928"/>
<polygon fill="midnightblue" stroke="midnightblue" points="1440.39,-9.49447 1430.16,-12.2613 1439.88,-16.4761 1440.39,-9.49447"/>
</g>
<!-- Node20&#45;&gt;Node19 -->
<g id="edge53" class="edge"><title>Node20&#45;&gt;Node19</title>
<path fill="none" stroke="midnightblue" d="M1232.24,-380.443C1363.84,-372.961 1625.5,-348.022 1625.5,-268 1625.5,-268 1625.5,-268 1625.5,-204.5 1625.5,-160.68 1600.04,-114.188 1584.41,-89.7811"/>
<polygon fill="midnightblue" stroke="midnightblue" points="1587.23,-87.6951 1578.79,-81.2871 1581.39,-91.5581 1587.23,-87.6951"/>
</g>
<!-- Node21 -->
<g id="node22" class="node"><title>Node21</title>
<g id="a_node22"><a xlink:href="FeatureSet_8h.html" target="_top" xlink:title="This file defines a class which contains the features selected by the user (by some command line)...">
<polygon fill="white" stroke="black" points="1085.5,-313.5 1085.5,-332.5 1231.5,-332.5 1231.5,-313.5 1085.5,-313.5"/>
<text text-anchor="middle" x="1158.5" y="-320.5" font-family="Helvetica,sans-Serif" font-size="10.00">pinhao/Features/FeatureSet.h</text>
</a>
</g>
</g>
<!-- Node20&#45;&gt;Node21 -->
<g id="edge29" class="edge"><title>Node20&#45;&gt;Node21</title>
<path fill="none" stroke="midnightblue" d="M1158.5,-369.399C1158.5,-361.466 1158.5,-351.458 1158.5,-342.858"/>
<polygon fill="midnightblue" stroke="midnightblue" points="1162,-342.658 1158.5,-332.658 1155,-342.658 1162,-342.658"/>
</g>
<!-- Node27 -->
<g id="node28" class="node"><title>Node27</title>
<g id="a_node28"><a xlink:href="Random_8h.html" target="_top" xlink:title="pinhao/Support/Random.h">
<polygon fill="white" stroke="black" points="1358.5,-313.5 1358.5,-332.5 1488.5,-332.5 1488.5,-313.5 1358.5,-313.5"/>
<text text-anchor="middle" x="1423.5" y="-320.5" font-family="Helvetica,sans-Serif" font-size="10.00">pinhao/Support/Random.h</text>
</a>
</g>
</g>
<!-- Node20&#45;&gt;Node27 -->
<g id="edge51" class="edge"><title>Node20&#45;&gt;Node27</title>
<path fill="none" stroke="midnightblue" d="M1220.97,-369.475C1268.28,-358.851 1332.32,-344.473 1375.62,-334.751"/>
<polygon fill="midnightblue" stroke="midnightblue" points="1376.62,-338.112 1385.61,-332.506 1375.09,-331.282 1376.62,-338.112"/>
</g>
<!-- Node21&#45;&gt;Node6 -->
<g id="edge48" class="edge"><title>Node21&#45;&gt;Node6</title>
<path fill="none" stroke="midnightblue" d="M1183.22,-313.482C1200.36,-306.332 1222.39,-294.454 1235.5,-277 1269.37,-231.93 1259.56,-209.947 1266.5,-154 1268.2,-140.327 1271.93,-135.664 1266.5,-123 1260.28,-108.477 1247.6,-96.1508 1236.21,-87.3121"/>
<polygon fill="midnightblue" stroke="midnightblue" points="1238.02,-84.3015 1227.87,-81.2544 1233.9,-89.9643 1238.02,-84.3015"/>
</g>
<!-- Node21&#45;&gt;Node7 -->
<g id="edge49" class="edge"><title>Node21&#45;&gt;Node7</title>
<path fill="none" stroke="midnightblue" d="M1135.48,-313.363C1115.07,-305.26 1084.81,-292.145 1060.5,-277 968.529,-219.711 963.854,-179.668 871.5,-123 845.185,-106.853 812.807,-93.0235 789.29,-83.9406"/>
<polygon fill="midnightblue" stroke="midnightblue" points="790.388,-80.6141 779.797,-80.3457 787.909,-87.1604 790.388,-80.6141"/>
</g>
<!-- Node21&#45;&gt;Node11 -->
<g id="edge50" class="edge"><title>Node21&#45;&gt;Node11</title>
<path fill="none" stroke="midnightblue" d="M1138.04,-313.437C1121.38,-305.721 1098,-293.122 1081.5,-277 1022.61,-219.464 979.609,-129.037 963.018,-90.676"/>
<polygon fill="midnightblue" stroke="midnightblue" points="966.173,-89.1491 959.048,-81.3075 959.728,-91.8806 966.173,-89.1491"/>
</g>
<!-- Node22 -->
<g id="node23" class="node"><title>Node22</title>
<g id="a_node23"><a xlink:href="Features_8h.html" target="_top" xlink:title="This file implements some basic feature classes that extends the base class Feature. ">
<polygon fill="white" stroke="black" points="1090.5,-257.5 1090.5,-276.5 1226.5,-276.5 1226.5,-257.5 1090.5,-257.5"/>
<text text-anchor="middle" x="1158.5" y="-264.5" font-family="Helvetica,sans-Serif" font-size="10.00">pinhao/Features/Features.h</text>
</a>
</g>
</g>
<!-- Node21&#45;&gt;Node22 -->
<g id="edge30" class="edge"><title>Node21&#45;&gt;Node22</title>
<path fill="none" stroke="midnightblue" d="M1158.5,-313.083C1158.5,-306.006 1158.5,-295.861 1158.5,-286.986"/>
<polygon fill="midnightblue" stroke="midnightblue" points="1162,-286.751 1158.5,-276.751 1155,-286.751 1162,-286.751"/>
</g>
<!-- Node25 -->
<g id="node26" class="node"><title>Node25</title>
<polygon fill="white" stroke="#bfbfbf" points="1443,-62 1443,-81 1492,-81 1492,-62 1443,-62"/>
<text text-anchor="middle" x="1467.5" y="-69" font-family="Helvetica,sans-Serif" font-size="10.00">cassert</text>
</g>
<!-- Node21&#45;&gt;Node25 -->
<g id="edge47" class="edge"><title>Node21&#45;&gt;Node25</title>
<path fill="none" stroke="midnightblue" d="M1216.57,-313.499C1298.49,-298.034 1445.17,-256.799 1509.5,-154 1523.34,-131.884 1502.24,-104.681 1485.27,-87.9688"/>
<polygon fill="midnightblue" stroke="midnightblue" points="1487.6,-85.3551 1477.9,-81.0848 1482.82,-90.4696 1487.6,-85.3551"/>
</g>
<!-- Node23 -->
<g id="node24" class="node"><title>Node23</title>
<g id="a_node24"><a xlink:href="Feature_8h.html" target="_top" xlink:title="This file defines the base feature class. ">
<polygon fill="white" stroke="black" points="1093,-196 1093,-215 1224,-215 1224,-196 1093,-196"/>
<text text-anchor="middle" x="1158.5" y="-203" font-family="Helvetica,sans-Serif" font-size="10.00">pinhao/Features/Feature.h</text>
</a>
</g>
</g>
<!-- Node22&#45;&gt;Node23 -->
<g id="edge31" class="edge"><title>Node22&#45;&gt;Node23</title>
<path fill="none" stroke="midnightblue" d="M1158.5,-257.475C1158.5,-249.08 1158.5,-235.981 1158.5,-225.163"/>
<polygon fill="midnightblue" stroke="midnightblue" points="1162,-225.009 1158.5,-215.009 1155,-225.009 1162,-225.009"/>
</g>
<!-- Node23&#45;&gt;Node3 -->
<g id="edge43" class="edge"><title>Node23&#45;&gt;Node3</title>
<path fill="none" stroke="midnightblue" d="M1125.66,-195.938C1101.25,-188.231 1068.35,-174.86 1045.5,-154 1008.61,-120.328 1032.22,-83.463 990.5,-56 930.531,-16.5221 719.035,-10.9767 618.01,-10.6501"/>
<polygon fill="midnightblue" stroke="midnightblue" points="618.009,-7.15022 608.003,-10.6338 617.997,-14.1502 618.009,-7.15022"/>
</g>
<!-- Node23&#45;&gt;Node4 -->
<g id="edge46" class="edge"><title>Node23&#45;&gt;Node4</title>
<path fill="none" stroke="midnightblue" d="M1132.59,-195.85C1112.04,-187.835 1083.82,-174.096 1065.5,-154 1033.58,-118.978 1057.12,-89.3938 1023.5,-56 1004.44,-37.0727 976.228,-25.6563 953.555,-19.0602"/>
<polygon fill="midnightblue" stroke="midnightblue" points="954.469,-15.6817 943.902,-16.4399 952.635,-22.4373 954.469,-15.6817"/>
</g>
<!-- Node23&#45;&gt;Node6 -->
<g id="edge44" class="edge"><title>Node23&#45;&gt;Node6</title>
<path fill="none" stroke="midnightblue" d="M1190.96,-195.995C1211.96,-188.623 1237.69,-175.638 1250.5,-154 1263.29,-132.395 1245.2,-105.599 1230.11,-88.7695"/>
<polygon fill="midnightblue" stroke="midnightblue" points="1232.52,-86.2199 1223.09,-81.3747 1227.44,-91.038 1232.52,-86.2199"/>
</g>
<!-- Node23&#45;&gt;Node13 -->
<g id="edge42" class="edge"><title>Node23&#45;&gt;Node13</title>
<path fill="none" stroke="midnightblue" d="M1126.92,-195.941C1041.92,-172.9 808.249,-109.566 712.868,-83.7127"/>
<polygon fill="midnightblue" stroke="midnightblue" points="713.574,-80.2778 703.007,-81.0398 711.743,-87.034 713.574,-80.2778"/>
</g>
<!-- Node24 -->
<g id="node25" class="node"><title>Node24</title>
<g id="a_node25"><a xlink:href="FeatureInfo_8h.html" target="_top" xlink:title="This file defines a class that holds some informations about a feature. ">
<polygon fill="white" stroke="black" points="1336,-129 1336,-148 1483,-148 1483,-129 1336,-129"/>
<text text-anchor="middle" x="1409.5" y="-136" font-family="Helvetica,sans-Serif" font-size="10.00">pinhao/Features/FeatureInfo.h</text>
</a>
</g>
</g>
<!-- Node23&#45;&gt;Node24 -->
<g id="edge32" class="edge"><title>Node23&#45;&gt;Node24</title>
<path fill="none" stroke="midnightblue" d="M1191.57,-195.936C1236.53,-184.293 1317,-163.454 1366.57,-150.617"/>
<polygon fill="midnightblue" stroke="midnightblue" points="1367.55,-153.979 1376.35,-148.083 1365.8,-147.202 1367.55,-153.979"/>
</g>
<!-- Node23&#45;&gt;Node25 -->
<g id="edge45" class="edge"><title>Node23&#45;&gt;Node25</title>
<path fill="none" stroke="midnightblue" d="M1224.25,-204.29C1311.53,-202.451 1458.61,-193.403 1492.5,-154 1508.28,-135.655 1493.71,-107.499 1481.11,-89.5467"/>
<polygon fill="midnightblue" stroke="midnightblue" points="1483.67,-87.1159 1474.88,-81.1951 1478.06,-91.3027 1483.67,-87.1159"/>
</g>
<!-- Node26 -->
<g id="node27" class="node"><title>Node26</title>
<g id="a_node27"><a xlink:href="FeatureRegistry_8h.html" target="_top" xlink:title="This file defines a class that has all the registered features. ">
<polygon fill="white" stroke="black" points="1075,-129 1075,-148 1242,-148 1242,-129 1075,-129"/>
<text text-anchor="middle" x="1158.5" y="-136" font-family="Helvetica,sans-Serif" font-size="10.00">pinhao/Features/FeatureRegistry.h</text>
</a>
</g>
</g>
<!-- Node23&#45;&gt;Node26 -->
<g id="edge38" class="edge"><title>Node23&#45;&gt;Node26</title>
<path fill="none" stroke="midnightblue" d="M1158.5,-195.734C1158.5,-186.183 1158.5,-170.618 1158.5,-158.283"/>
<polygon fill="midnightblue" stroke="midnightblue" points="1162,-158.127 1158.5,-148.127 1155,-158.127 1162,-158.127"/>
</g>
<!-- Node24&#45;&gt;Node6 -->
<g id="edge34" class="edge"><title>Node24&#45;&gt;Node6</title>
<path fill="none" stroke="midnightblue" d="M1383.47,-128.869C1346.45,-116.589 1278.87,-94.1791 1241.04,-81.6315"/>
<polygon fill="midnightblue" stroke="midnightblue" points="1241.8,-78.1963 1231.2,-78.3706 1239.59,-84.8405 1241.8,-78.1963"/>
</g>
<!-- Node24&#45;&gt;Node7 -->
<g id="edge35" class="edge"><title>Node24&#45;&gt;Node7</title>
<path fill="none" stroke="midnightblue" d="M1335.97,-130.17C1194.43,-116.059 889.267,-85.6363 789.662,-75.7063"/>
<polygon fill="midnightblue" stroke="midnightblue" points="789.908,-72.2136 779.61,-74.7042 789.213,-79.1791 789.908,-72.2136"/>
</g>
<!-- Node24&#45;&gt;Node10 -->
<g id="edge36" class="edge"><title>Node24&#45;&gt;Node10</title>
<path fill="none" stroke="midnightblue" d="M1409.5,-128.805C1409.5,-108.494 1409.5,-57.5532 1409.5,-29.7768"/>
<polygon fill="midnightblue" stroke="midnightblue" points="1413,-29.7557 1409.5,-19.7557 1406,-29.7557 1413,-29.7557"/>
</g>
<!-- Node24&#45;&gt;Node19 -->
<g id="edge33" class="edge"><title>Node24&#45;&gt;Node19</title>
<path fill="none" stroke="midnightblue" d="M1431.15,-128.869C1459.48,-117.571 1509.32,-97.6961 1541.61,-84.8183"/>
<polygon fill="midnightblue" stroke="midnightblue" points="1543.03,-88.0189 1551.02,-81.0637 1540.44,-81.5168 1543.03,-88.0189"/>
</g>
<!-- Node24&#45;&gt;Node25 -->
<g id="edge37" class="edge"><title>Node24&#45;&gt;Node25</title>
<path fill="none" stroke="midnightblue" d="M1417.32,-128.734C1426.45,-118.5 1441.74,-101.364 1453.05,-88.6924"/>
<polygon fill="midnightblue" stroke="midnightblue" points="1455.76,-90.919 1459.8,-81.1273 1450.53,-86.2585 1455.76,-90.919"/>
</g>
<!-- Node26&#45;&gt;Node6 -->
<g id="edge41" class="edge"><title>Node26&#45;&gt;Node6</title>
<path fill="none" stroke="midnightblue" d="M1165.92,-128.734C1174.49,-118.598 1188.8,-101.69 1199.49,-89.0556"/>
<polygon fill="midnightblue" stroke="midnightblue" points="1202.41,-91.022 1206.2,-81.1273 1197.07,-86.5004 1202.41,-91.022"/>
</g>
<!-- Node26&#45;&gt;Node11 -->
<g id="edge39" class="edge"><title>Node26&#45;&gt;Node11</title>
<path fill="none" stroke="midnightblue" d="M1131.54,-128.869C1095.45,-117.312 1031.34,-96.7823 991.246,-83.9457"/>
<polygon fill="midnightblue" stroke="midnightblue" points="992.194,-80.5743 981.603,-80.8581 990.059,-87.2409 992.194,-80.5743"/>
</g>
<!-- Node26&#45;&gt;Node25 -->
<g id="edge40" class="edge"><title>Node26&#45;&gt;Node25</title>
<path fill="none" stroke="midnightblue" d="M1199.21,-128.936C1260.46,-116.052 1375.25,-91.9061 1432.77,-79.805"/>
<polygon fill="midnightblue" stroke="midnightblue" points="1433.76,-83.1747 1442.82,-77.6911 1432.32,-76.3246 1433.76,-83.1747"/>
</g>
<!-- Node28 -->
<g id="node29" class="node"><title>Node28</title>
<polygon fill="white" stroke="#bfbfbf" points="1548,-257.5 1548,-276.5 1597,-276.5 1597,-257.5 1548,-257.5"/>
<text text-anchor="middle" x="1572.5" y="-264.5" font-family="Helvetica,sans-Serif" font-size="10.00">random</text>
</g>
<!-- Node27&#45;&gt;Node28 -->
<g id="edge52" class="edge"><title>Node27&#45;&gt;Node28</title>
<path fill="none" stroke="midnightblue" d="M1447.11,-313.444C1471.96,-304.438 1511.27,-290.189 1539.25,-280.049"/>
<polygon fill="midnightblue" stroke="midnightblue" points="1540.79,-283.214 1549,-276.516 1538.41,-276.633 1540.79,-283.214"/>
</g>
</g>
</svg>
        <g id="navigator" transform="translate(0 0)" fill="#404254">
                <rect fill="#f2f5e9" fill-opacity="0.5" stroke="#606060" stroke-width=".5" x="0" y="0" width="60" height="60"/>
                <use id="zoomplus" xlink:href="#zoomPlus" x="17" y="9" onmousedown="handleZoom(evt,'in')"/>
                <use id="zoomminus" xlink:href="#zoomMin" x="42" y="9" onmousedown="handleZoom(evt,'out')"/>
                <use id="reset" xlink:href="#resetDef" x="30" y="36" onmousedown="handleReset()"/>
                <g id="arrowUp" xlink:href="#dirArrow" transform="translate(30 24)" onmousedown="handlePan(0,-1)">
                  <use xlink:href="#rim" fill="#404040">
                        <set attributeName="fill" to="#808080" begin="arrowUp.mouseover" end="arrowUp.mouseout"/>
                  </use>
                  <path fill="none" stroke="white" stroke-width="1.5" d="M0,-3.0v7 M-2.5,-0.5L0,-3.0L2.5,-0.5"/>
                </g>
                <g id="arrowRight" xlink:href="#dirArrow" transform="rotate(90) translate(36 -43)" onmousedown="handlePan(1,0)">
                  <use xlink:href="#rim" fill="#404040">
                        <set attributeName="fill" to="#808080" begin="arrowRight.mouseover" end="arrowRight.mouseout"/>
                  </use>
                  <path fill="none" stroke="white" stroke-width="1.5" d="M0,-3.0v7 M-2.5,-0.5L0,-3.0L2.5,-0.5"/>
                </g>
                <g id="arrowDown" xlink:href="#dirArrow" transform="rotate(180) translate(-30 -48)" onmousedown="handlePan(0,1)">
                  <use xlink:href="#rim" fill="#404040">
                        <set attributeName="fill" to="#808080" begin="arrowDown.mouseover" end="arrowDown.mouseout"/>
                  </use>
                  <path fill="none" stroke="white" stroke-width="1.5" d="M0,-3.0v7 M-2.5,-0.5L0,-3.0L2.5,-0.5"/>
                </g>
                <g id="arrowLeft" xlink:href="#dirArrow" transform="rotate(270) translate(-36 17)" onmousedown="handlePan(-1,0)">
                  <use xlink:href="#rim" fill="#404040">
                        <set attributeName="fill" to="#808080" begin="arrowLeft.mouseover" end="arrowLeft.mouseout"/>
                  </use>
                  <path fill="none" stroke="white" stroke-width="1.5" d="M0,-3.0v7 M-2.5,-0.5L0,-3.0L2.5,-0.5"/>
                </g>
        </g>
        <svg viewBox="0 0 15 15" width="100%" height="30px" preserveAspectRatio="xMaxYMin meet">
         <g id="arrow_out" transform="scale(0.3 0.3)">
          <a xlink:href="CandidateYAMLWrapper_8cpp__incl_org.svg" target="_base">
           <rect id="button" ry="5" rx="5" y="6" x="6" height="38" width="38"
                fill="#f2f5e9" fill-opacity="0.5" stroke="#606060" stroke-width="1.0"/>
           <path id="arrow"
             d="M 11.500037,31.436501 C 11.940474,20.09759 22.043105,11.32322 32.158766,21.979434 L 37.068811,17.246167 C 37.068811,17.246167 37.088388,32 37.088388,32 L 22.160133,31.978069 C 22.160133,31.978069 26.997745,27.140456 26.997745,27.140456 C 18.528582,18.264221 13.291696,25.230495 11.500037,31.436501 z"
             style="fill:#404040;"/>
          </a>
         </g>
        </svg>
</svg>
