<?xml version="1.0" encoding="UTF-8" standalone="no"?>
<!DOCTYPE svg PUBLIC "-//W3C//DTD SVG 1.1//EN"
 "http://www.w3.org/Graphics/SVG/1.1/DTD/svg11.dtd">
<!-- Generated by graphviz version 2.38.0 (20140413.2041)
 -->
<!-- Title: /home/yukiosir/workspace/CompilerProject/Software/pinhao/include/pinhao/MachineLearning/GrammarEvolution/Candidate.h Pages: 1 -->
<svg width="352pt" height="173pt"
 viewBox="0.00 0.00 351.50 173.00" xmlns="http://www.w3.org/2000/svg" xmlns:xlink="http://www.w3.org/1999/xlink">
<g id="graph0" class="graph" transform="scale(1 1) rotate(0) translate(4 169)">
<title>/home/yukiosir/workspace/CompilerProject/Software/pinhao/include/pinhao/MachineLearning/GrammarEvolution/Candidate.h</title>
<polygon fill="white" stroke="none" points="-4,4 -4,-169 347.5,-169 347.5,4 -4,4"/>
<!-- Node0 -->
<g id="node1" class="node"><title>Node0</title>
<polygon fill="#bfbfbf" stroke="black" points="153.5,-112.5 153.5,-164.5 343.5,-164.5 343.5,-112.5 153.5,-112.5"/>
<text text-anchor="start" x="161.5" y="-152.5" font-family="Helvetica,sans-Serif" font-size="10.00">/home/yukiosir/workspace</text>
<text text-anchor="start" x="161.5" y="-141.5" font-family="Helvetica,sans-Serif" font-size="10.00">/CompilerProject/Software</text>
<text text-anchor="start" x="161.5" y="-130.5" font-family="Helvetica,sans-Serif" font-size="10.00">/pinhao/include/pinhao/MachineLearning</text>
<text text-anchor="middle" x="248.5" y="-119.5" font-family="Helvetica,sans-Serif" font-size="10.00">/GrammarEvolution/Candidate.h</text>
</g>
<!-- Node1 -->
<g id="node2" class="node"><title>Node1</title>
<g id="a_node2"><a xlink:href="YAMLWrapper_8h.html" target="_top" xlink:title="pinhao/Support/YAMLWrapper.h">
<polygon fill="white" stroke="black" points="56,-56.5 56,-75.5 213,-75.5 213,-56.5 56,-56.5"/>
<text text-anchor="middle" x="134.5" y="-63.5" font-family="Helvetica,sans-Serif" font-size="10.00">pinhao/Support/YAMLWrapper.h</text>
</a>
</g>
</g>
<!-- Node0&#45;&gt;Node1 -->
<g id="edge1" class="edge"><title>Node0&#45;&gt;Node1</title>
<path fill="none" stroke="midnightblue" d="M207.987,-112.446C190.872,-101.862 171.588,-89.9362 157.07,-80.9578"/>
<polygon fill="midnightblue" stroke="midnightblue" points="158.634,-77.8099 148.288,-75.527 154.952,-83.7635 158.634,-77.8099"/>
</g>
<!-- Node5 -->
<g id="node6" class="node"><title>Node5</title>
<polygon fill="white" stroke="#bfbfbf" points="231,-56.5 231,-75.5 266,-75.5 266,-56.5 231,-56.5"/>
<text text-anchor="middle" x="248.5" y="-63.5" font-family="Helvetica,sans-Serif" font-size="10.00">map</text>
</g>
<!-- Node0&#45;&gt;Node5 -->
<g id="edge5" class="edge"><title>Node0&#45;&gt;Node5</title>
<path fill="none" stroke="midnightblue" d="M248.5,-112.446C248.5,-103.73 248.5,-94.1045 248.5,-85.9641"/>
<polygon fill="midnightblue" stroke="midnightblue" points="252,-85.6954 248.5,-75.6955 245,-85.6955 252,-85.6954"/>
</g>
<!-- Node6 -->
<g id="node7" class="node"><title>Node6</title>
<polygon fill="white" stroke="#bfbfbf" points="284.5,-56.5 284.5,-75.5 328.5,-75.5 328.5,-56.5 284.5,-56.5"/>
<text text-anchor="middle" x="306.5" y="-63.5" font-family="Helvetica,sans-Serif" font-size="10.00">vector</text>
</g>
<!-- Node0&#45;&gt;Node6 -->
<g id="edge6" class="edge"><title>Node0&#45;&gt;Node6</title>
<path fill="none" stroke="midnightblue" d="M269.112,-112.446C277.024,-102.828 285.848,-92.1032 292.935,-83.4881"/>
<polygon fill="midnightblue" stroke="midnightblue" points="295.696,-85.6416 299.346,-75.6955 290.29,-81.1943 295.696,-85.6416"/>
</g>
<!-- Node2 -->
<g id="node3" class="node"><title>Node2</title>
<polygon fill="white" stroke="#bfbfbf" points="0,-0.5 0,-19.5 89,-19.5 89,-0.5 0,-0.5"/>
<text text-anchor="middle" x="44.5" y="-7.5" font-family="Helvetica,sans-Serif" font-size="10.00">yaml&#45;cpp/yaml.h</text>
</g>
<!-- Node1&#45;&gt;Node2 -->
<g id="edge2" class="edge"><title>Node1&#45;&gt;Node2</title>
<path fill="none" stroke="midnightblue" d="M120.04,-56.324C106,-47.9002 84.4515,-34.9709 67.9569,-25.0741"/>
<polygon fill="midnightblue" stroke="midnightblue" points="69.2999,-21.7983 58.9242,-19.6545 65.6984,-27.8007 69.2999,-21.7983"/>
</g>
<!-- Node3 -->
<g id="node4" class="node"><title>Node3</title>
<polygon fill="white" stroke="#bfbfbf" points="107.5,-0.5 107.5,-19.5 161.5,-19.5 161.5,-0.5 107.5,-0.5"/>
<text text-anchor="middle" x="134.5" y="-7.5" font-family="Helvetica,sans-Serif" font-size="10.00">iostream</text>
</g>
<!-- Node1&#45;&gt;Node3 -->
<g id="edge3" class="edge"><title>Node1&#45;&gt;Node3</title>
<path fill="none" stroke="midnightblue" d="M134.5,-56.083C134.5,-49.0059 134.5,-38.8611 134.5,-29.9865"/>
<polygon fill="midnightblue" stroke="midnightblue" points="138,-29.751 134.5,-19.7511 131,-29.7511 138,-29.751"/>
</g>
<!-- Node4 -->
<g id="node5" class="node"><title>Node4</title>
<polygon fill="white" stroke="#bfbfbf" points="179.5,-0.5 179.5,-19.5 231.5,-19.5 231.5,-0.5 179.5,-0.5"/>
<text text-anchor="middle" x="205.5" y="-7.5" font-family="Helvetica,sans-Serif" font-size="10.00">ostream</text>
</g>
<!-- Node1&#45;&gt;Node4 -->
<g id="edge4" class="edge"><title>Node1&#45;&gt;Node4</title>
<path fill="none" stroke="midnightblue" d="M145.907,-56.324C156.609,-48.1849 172.841,-35.8395 185.663,-26.0874"/>
<polygon fill="midnightblue" stroke="midnightblue" points="188.044,-28.6734 193.885,-19.8339 183.807,-23.1018 188.044,-28.6734"/>
</g>
</g>
</svg>
