<?xml version="1.0" encoding="UTF-8" standalone="no"?>
<!DOCTYPE svg PUBLIC "-//W3C//DTD SVG 1.1//EN"
 "http://www.w3.org/Graphics/SVG/1.1/DTD/svg11.dtd">
<!-- Generated by graphviz version 2.38.0 (20140413.2041)
 -->
<!-- Title: /home/yukiosir/workspace/CompilerProject/Software/pinhao/lib/MachineLearning/GrammarEvolution/Candidate.cpp Pages: 1 -->
<!--zoomable 519 -->
<svg id="main" version="1.1" xmlns="http://www.w3.org/2000/svg" xmlns:xlink="http://www.w3.org/1999/xlink" xml:space="preserve" onload="init(evt)">
<style type="text/css"><![CDATA[
.edge:hover path { stroke: red; }
.edge:hover polygon { stroke: red; fill: red; }
]]></style>
<script type="text/javascript"><![CDATA[
var edges = document.getElementsByTagName('g');
if (edges && edges.length) {
  for (var i=0;i<edges.length;i++) {
    if (edges[i].id.substr(0,4)=='edge') {
      edges[i].setAttribute('class','edge');
    }
  }
}
]]></script>
        <defs>
                <circle id="rim" cx="0" cy="0" r="7"/>
                <circle id="rim2" cx="0" cy="0" r="3.5"/>
                <g id="zoomPlus">
                        <use xlink:href="#rim" fill="#404040">
                                <set attributeName="fill" to="#808080" begin="zoomplus.mouseover" end="zoomplus.mouseout"/>
                        </use>
                        <path d="M-4,0h8M0,-4v8" fill="none" stroke="white" stroke-width="1.5" pointer-events="none"/>
                </g>
                <g id="zoomMin">
                        <use xlink:href="#rim" fill="#404040">
                                <set attributeName="fill" to="#808080" begin="zoomminus.mouseover" end="zoomminus.mouseout"/>
                        </use>
                        <path d="M-4,0h8" fill="none" stroke="white" stroke-width="1.5" pointer-events="none"/>
                </g>
                <g id="dirArrow">
                        <path fill="none" stroke="white" stroke-width="1.5" d="M0,-3.0v7 M-2.5,-0.5L0,-3.0L2.5,-0.5"/>
                </g>
               <g id="resetDef">
                       <use xlink:href="#rim2" fill="#404040">
                               <set attributeName="fill" to="#808080" begin="reset.mouseover" end="reset.mouseout"/>
                       </use>
               </g>
        </defs>

<script type="text/javascript">
var viewWidth = 2086;
var viewHeight = 519;
var sectionId = 'dynsection-0';
</script>
<script xlink:href="svgpan.js"/>
<svg id="graph" class="graph">
<g id="viewport">
<title>/home/yukiosir/workspace/CompilerProject/Software/pinhao/lib/MachineLearning/GrammarEvolution/Candidate.cpp</title>
<polygon fill="white" stroke="none" points="-4,4 -4,-515 2082,-515 2082,4 -4,4"/>
<!-- Node0 -->
<g id="node1" class="node"><title>Node0</title>
<polygon fill="#bfbfbf" stroke="black" points="962.5,-458.5 962.5,-510.5 1129.5,-510.5 1129.5,-458.5 962.5,-458.5"/>
<text text-anchor="start" x="970.5" y="-498.5" font-family="Helvetica,sans-Serif" font-size="10.00">/home/yukiosir/workspace</text>
<text text-anchor="start" x="970.5" y="-487.5" font-family="Helvetica,sans-Serif" font-size="10.00">/CompilerProject/Software</text>
<text text-anchor="start" x="970.5" y="-476.5" font-family="Helvetica,sans-Serif" font-size="10.00">/pinhao/lib/MachineLearning</text>
<text text-anchor="middle" x="1046" y="-465.5" font-family="Helvetica,sans-Serif" font-size="10.00">/GrammarEvolution/Candidate.cpp</text>
</g>
<!-- Node1 -->
<g id="node2" class="node"><title>Node1</title>
<g id="a_node2"><a xlink:href="Candidate_8h.html" target="_top" xlink:title="pinhao/MachineLearning\l/GrammarEvolution/Candidate.h">
<polygon fill="white" stroke="black" points="700,-123.5 700,-153.5 856,-153.5 856,-123.5 700,-123.5"/>
<text text-anchor="start" x="708" y="-141.5" font-family="Helvetica,sans-Serif" font-size="10.00">pinhao/MachineLearning</text>
<text text-anchor="middle" x="778" y="-130.5" font-family="Helvetica,sans-Serif" font-size="10.00">/GrammarEvolution/Candidate.h</text>
</a>
</g>
</g>
<!-- Node0&#45;&gt;Node1 -->
<g id="edge1" class="edge"><title>Node0&#45;&gt;Node1</title>
<path fill="none" stroke="midnightblue" d="M1046,-458.443C1046,-429.893 1046,-381.836 1046,-340.5 1046,-340.5 1046,-340.5 1046,-271.5 1046,-227.298 1025.54,-214.874 989,-190 968.719,-176.193 914.437,-163.361 866.013,-154.087"/>
<polygon fill="midnightblue" stroke="midnightblue" points="866.575,-150.631 856.101,-152.221 865.281,-157.51 866.575,-150.631"/>
</g>
<!-- Node8 -->
<g id="node9" class="node"><title>Node8</title>
<g id="a_node9"><a xlink:href="GrammarEvolution_8h.html" target="_top" xlink:title="pinhao/MachineLearning\l/GrammarEvolution/GrammarEvolution.h">
<polygon fill="white" stroke="black" points="298.5,-190.5 298.5,-220.5 491.5,-220.5 491.5,-190.5 298.5,-190.5"/>
<text text-anchor="start" x="306.5" y="-208.5" font-family="Helvetica,sans-Serif" font-size="10.00">pinhao/MachineLearning</text>
<text text-anchor="middle" x="395" y="-197.5" font-family="Helvetica,sans-Serif" font-size="10.00">/GrammarEvolution/GrammarEvolution.h</text>
</a>
</g>
</g>
<!-- Node0&#45;&gt;Node8 -->
<g id="edge8" class="edge"><title>Node0&#45;&gt;Node8</title>
<path fill="none" stroke="midnightblue" d="M962.285,-480.98C849.83,-473.942 647.752,-448.128 506,-355 457.729,-323.287 422.593,-263.073 405.894,-229.893"/>
<polygon fill="midnightblue" stroke="midnightblue" points="408.849,-227.969 401.309,-220.525 402.561,-231.046 408.849,-227.969"/>
</g>
<!-- Node9 -->
<g id="node10" class="node"><title>Node9</title>
<g id="a_node10"><a xlink:href="Evolution_8h.html" target="_top" xlink:title="pinhao/MachineLearning\l/GrammarEvolution/Evolution.h">
<polygon fill="white" stroke="black" points="1860,-123.5 1860,-153.5 2012,-153.5 2012,-123.5 1860,-123.5"/>
<text text-anchor="start" x="1868" y="-141.5" font-family="Helvetica,sans-Serif" font-size="10.00">pinhao/MachineLearning</text>
<text text-anchor="middle" x="1936" y="-130.5" font-family="Helvetica,sans-Serif" font-size="10.00">/GrammarEvolution/Evolution.h</text>
</a>
</g>
</g>
<!-- Node0&#45;&gt;Node9 -->
<g id="edge57" class="edge"><title>Node0&#45;&gt;Node9</title>
<path fill="none" stroke="midnightblue" d="M1129.58,-480.676C1375.26,-471.272 2078,-436.026 2078,-340.5 2078,-340.5 2078,-340.5 2078,-271.5 2078,-217.208 2021.63,-178.928 1979.92,-158.037"/>
<polygon fill="midnightblue" stroke="midnightblue" points="1981.26,-154.8 1970.74,-153.596 1978.22,-161.101 1981.26,-154.8"/>
</g>
<!-- Node20 -->
<g id="node21" class="node"><title>Node20</title>
<g id="a_node21"><a xlink:href="Formula_8h.html" target="_top" xlink:title="pinhao/MachineLearning\l/GrammarEvolution/Formula.h">
<polygon fill="white" stroke="black" points="1167.5,-391.5 1167.5,-421.5 1314.5,-421.5 1314.5,-391.5 1167.5,-391.5"/>
<text text-anchor="start" x="1175.5" y="-409.5" font-family="Helvetica,sans-Serif" font-size="10.00">pinhao/MachineLearning</text>
<text text-anchor="middle" x="1241" y="-398.5" font-family="Helvetica,sans-Serif" font-size="10.00">/GrammarEvolution/Formula.h</text>
</a>
</g>
</g>
<!-- Node0&#45;&gt;Node20 -->
<g id="edge28" class="edge"><title>Node0&#45;&gt;Node20</title>
<path fill="none" stroke="midnightblue" d="M1110.39,-458.404C1138.23,-447.554 1170.15,-435.112 1195.47,-425.244"/>
<polygon fill="midnightblue" stroke="midnightblue" points="1196.78,-428.49 1204.83,-421.597 1194.24,-421.967 1196.78,-428.49"/>
</g>
<!-- Node29 -->
<g id="node30" class="node"><title>Node29</title>
<g id="a_node30"><a xlink:href="OptimizationSet_8h.html" target="_top" xlink:title="pinhao/Optimizer/Optimization\lSet.h">
<polygon fill="white" stroke="black" points="865,-324.5 865,-354.5 1013,-354.5 1013,-324.5 865,-324.5"/>
<text text-anchor="start" x="873" y="-342.5" font-family="Helvetica,sans-Serif" font-size="10.00">pinhao/Optimizer/Optimization</text>
<text text-anchor="middle" x="939" y="-331.5" font-family="Helvetica,sans-Serif" font-size="10.00">Set.h</text>
</a>
</g>
</g>
<!-- Node0&#45;&gt;Node29 -->
<g id="edge58" class="edge"><title>Node0&#45;&gt;Node29</title>
<path fill="none" stroke="midnightblue" d="M1027.12,-458.264C1006.85,-431.178 974.967,-388.569 955.62,-362.712"/>
<polygon fill="midnightblue" stroke="midnightblue" points="958.367,-360.541 949.574,-354.631 952.763,-364.735 958.367,-360.541"/>
</g>
<!-- Node2 -->
<g id="node3" class="node"><title>Node2</title>
<g id="a_node3"><a xlink:href="YAMLWrapper_8h.html" target="_top" xlink:title="pinhao/Support/YAMLWrapper.h">
<polygon fill="white" stroke="black" points="330.5,-62 330.5,-81 487.5,-81 487.5,-62 330.5,-62"/>
<text text-anchor="middle" x="409" y="-69" font-family="Helvetica,sans-Serif" font-size="10.00">pinhao/Support/YAMLWrapper.h</text>
</a>
</g>
</g>
<!-- Node1&#45;&gt;Node2 -->
<g id="edge2" class="edge"><title>Node1&#45;&gt;Node2</title>
<path fill="none" stroke="midnightblue" d="M699.745,-123.715C630.306,-111.483 530.41,-93.8866 467.644,-82.8303"/>
<polygon fill="midnightblue" stroke="midnightblue" points="467.974,-79.3346 457.519,-81.0467 466.76,-86.2285 467.974,-79.3346"/>
</g>
<!-- Node6 -->
<g id="node7" class="node"><title>Node6</title>
<polygon fill="white" stroke="#bfbfbf" points="1277.5,-62 1277.5,-81 1312.5,-81 1312.5,-62 1277.5,-62"/>
<text text-anchor="middle" x="1295" y="-69" font-family="Helvetica,sans-Serif" font-size="10.00">map</text>
</g>
<!-- Node1&#45;&gt;Node6 -->
<g id="edge6" class="edge"><title>Node1&#45;&gt;Node6</title>
<path fill="none" stroke="midnightblue" d="M856.326,-128.205C871.79,-126.429 887.903,-124.62 903,-123 1065.08,-105.608 1112.06,-134.483 1268,-87 1269.43,-86.5641 1270.87,-86.049 1272.31,-85.4773"/>
<polygon fill="midnightblue" stroke="midnightblue" points="1273.92,-88.5858 1281.44,-81.1242 1270.91,-82.2667 1273.92,-88.5858"/>
</g>
<!-- Node7 -->
<g id="node8" class="node"><title>Node7</title>
<polygon fill="white" stroke="#bfbfbf" points="862,-62 862,-81 906,-81 906,-62 862,-62"/>
<text text-anchor="middle" x="884" y="-69" font-family="Helvetica,sans-Serif" font-size="10.00">vector</text>
</g>
<!-- Node1&#45;&gt;Node7 -->
<g id="edge7" class="edge"><title>Node1&#45;&gt;Node7</title>
<path fill="none" stroke="midnightblue" d="M801,-123.396C818.941,-112.395 843.72,-97.2002 861.525,-86.2819"/>
<polygon fill="midnightblue" stroke="midnightblue" points="863.432,-89.2183 870.127,-81.007 859.773,-83.2509 863.432,-89.2183"/>
</g>
<!-- Node3 -->
<g id="node4" class="node"><title>Node3</title>
<polygon fill="white" stroke="#bfbfbf" points="1059.5,-0.5 1059.5,-19.5 1148.5,-19.5 1148.5,-0.5 1059.5,-0.5"/>
<text text-anchor="middle" x="1104" y="-7.5" font-family="Helvetica,sans-Serif" font-size="10.00">yaml&#45;cpp/yaml.h</text>
</g>
<!-- Node2&#45;&gt;Node3 -->
<g id="edge3" class="edge"><title>Node2&#45;&gt;Node3</title>
<path fill="none" stroke="midnightblue" d="M462.346,-61.9871C477.107,-59.8223 493.152,-57.6458 508,-56 706.874,-33.9556 944.3,-19.589 1049.37,-13.8411"/>
<polygon fill="midnightblue" stroke="midnightblue" points="1049.62,-17.3326 1059.42,-13.2956 1049.24,-10.3428 1049.62,-17.3326"/>
</g>
<!-- Node4 -->
<g id="node5" class="node"><title>Node4</title>
<polygon fill="white" stroke="#bfbfbf" points="346,-0.5 346,-19.5 400,-19.5 400,-0.5 346,-0.5"/>
<text text-anchor="middle" x="373" y="-7.5" font-family="Helvetica,sans-Serif" font-size="10.00">iostream</text>
</g>
<!-- Node2&#45;&gt;Node4 -->
<g id="edge4" class="edge"><title>Node2&#45;&gt;Node4</title>
<path fill="none" stroke="midnightblue" d="M403.842,-61.9751C398.549,-53.2268 390.165,-39.3691 383.473,-28.3093"/>
<polygon fill="midnightblue" stroke="midnightblue" points="386.32,-26.2531 378.148,-19.5091 380.33,-29.8768 386.32,-26.2531"/>
</g>
<!-- Node5 -->
<g id="node6" class="node"><title>Node5</title>
<polygon fill="white" stroke="#bfbfbf" points="418,-0.5 418,-19.5 470,-19.5 470,-0.5 418,-0.5"/>
<text text-anchor="middle" x="444" y="-7.5" font-family="Helvetica,sans-Serif" font-size="10.00">ostream</text>
</g>
<!-- Node2&#45;&gt;Node5 -->
<g id="edge5" class="edge"><title>Node2&#45;&gt;Node5</title>
<path fill="none" stroke="midnightblue" d="M414.015,-61.9751C419.161,-53.2268 427.312,-39.3691 433.818,-28.3093"/>
<polygon fill="midnightblue" stroke="midnightblue" points="436.941,-29.903 438.995,-19.5091 430.908,-26.3539 436.941,-29.903"/>
</g>
<!-- Node8&#45;&gt;Node2 -->
<g id="edge24" class="edge"><title>Node8&#45;&gt;Node2</title>
<path fill="none" stroke="midnightblue" d="M396.498,-190.374C399.041,-166.397 404.201,-117.748 407.032,-91.0561"/>
<polygon fill="midnightblue" stroke="midnightblue" points="410.514,-91.4107 408.088,-81.0973 403.553,-90.6723 410.514,-91.4107"/>
</g>
<!-- Node8&#45;&gt;Node7 -->
<g id="edge27" class="edge"><title>Node8&#45;&gt;Node7</title>
<path fill="none" stroke="midnightblue" d="M428.763,-190.362C472.308,-172.573 550.696,-142.051 620,-123 702.334,-100.367 801.848,-84.2883 851.916,-76.9575"/>
<polygon fill="midnightblue" stroke="midnightblue" points="852.428,-80.4199 861.825,-75.5267 851.428,-73.4917 852.428,-80.4199"/>
</g>
<!-- Node8&#45;&gt;Node9 -->
<g id="edge9" class="edge"><title>Node8&#45;&gt;Node9</title>
<path fill="none" stroke="midnightblue" d="M491.612,-197.425C530.002,-194.799 574.57,-191.98 615,-190 1113.33,-165.59 1238.76,-180.134 1737,-154 1773.99,-152.06 1814.81,-149.21 1849.79,-146.549"/>
<polygon fill="midnightblue" stroke="midnightblue" points="1850.27,-150.023 1859.98,-145.768 1849.74,-143.043 1850.27,-150.023"/>
</g>
<!-- Node12 -->
<g id="node13" class="node"><title>Node12</title>
<g id="a_node13"><a xlink:href="Optimizations_8h.html" target="_top" xlink:title="pinhao/Optimizer/Optimizations.h">
<polygon fill="white" stroke="black" points="912.5,-129 912.5,-148 1073.5,-148 1073.5,-129 912.5,-129"/>
<text text-anchor="middle" x="993" y="-136" font-family="Helvetica,sans-Serif" font-size="10.00">pinhao/Optimizer/Optimizations.h</text>
</a>
</g>
</g>
<!-- Node8&#45;&gt;Node12 -->
<g id="edge13" class="edge"><title>Node8&#45;&gt;Node12</title>
<path fill="none" stroke="midnightblue" d="M491.783,-194.266C586.82,-184.177 735.913,-168.246 865,-154 879.088,-152.445 894.045,-150.772 908.578,-149.133"/>
<polygon fill="midnightblue" stroke="midnightblue" points="909.011,-152.607 918.555,-148.007 908.226,-145.651 909.011,-152.607"/>
</g>
<!-- Node15 -->
<g id="node16" class="node"><title>Node15</title>
<g id="a_node16"><a xlink:href="SerialSet_8h.html" target="_top" xlink:title="pinhao/Support/SerialSet.h">
<polygon fill="white" stroke="black" points="108.5,-129 108.5,-148 241.5,-148 241.5,-129 108.5,-129"/>
<text text-anchor="middle" x="175" y="-136" font-family="Helvetica,sans-Serif" font-size="10.00">pinhao/Support/SerialSet.h</text>
</a>
</g>
</g>
<!-- Node8&#45;&gt;Node15 -->
<g id="edge19" class="edge"><title>Node8&#45;&gt;Node15</title>
<path fill="none" stroke="midnightblue" d="M347.534,-190.476C307.585,-178.673 251.157,-162.001 213.852,-150.979"/>
<polygon fill="midnightblue" stroke="midnightblue" points="214.448,-147.506 203.866,-148.029 212.465,-154.219 214.448,-147.506"/>
</g>
<!-- Node19 -->
<g id="node20" class="node"><title>Node19</title>
<g id="a_node20"><a xlink:href="Types_8h.html" target="_top" xlink:title="pinhao/Support/Types.h">
<polygon fill="white" stroke="black" points="517,-62 517,-81 637,-81 637,-62 517,-62"/>
<text text-anchor="middle" x="577" y="-69" font-family="Helvetica,sans-Serif" font-size="10.00">pinhao/Support/Types.h</text>
</a>
</g>
</g>
<!-- Node8&#45;&gt;Node19 -->
<g id="edge25" class="edge"><title>Node8&#45;&gt;Node19</title>
<path fill="none" stroke="midnightblue" d="M404.342,-190.472C416.698,-172.8 439.971,-142.402 466,-123 488.623,-106.137 517.776,-93.1443 540.528,-84.5631"/>
<polygon fill="midnightblue" stroke="midnightblue" points="541.972,-87.7618 550.166,-81.0451 539.572,-81.1862 541.972,-87.7618"/>
</g>
<!-- Node9&#45;&gt;Node7 -->
<g id="edge10" class="edge"><title>Node9&#45;&gt;Node7</title>
<path fill="none" stroke="midnightblue" d="M1859.96,-131.46C1822.89,-128.643 1777.63,-125.392 1737,-123 1380.81,-102.033 1287.19,-144.173 935,-87 928.83,-85.9984 922.345,-84.5079 916.146,-82.8584"/>
<polygon fill="midnightblue" stroke="midnightblue" points="916.666,-79.3673 906.09,-79.9904 914.746,-86.0988 916.666,-79.3673"/>
</g>
<!-- Node10 -->
<g id="node11" class="node"><title>Node10</title>
<polygon fill="white" stroke="#bfbfbf" points="1579.5,-0.5 1579.5,-19.5 1620.5,-19.5 1620.5,-0.5 1579.5,-0.5"/>
<text text-anchor="middle" x="1600" y="-7.5" font-family="Helvetica,sans-Serif" font-size="10.00">string</text>
</g>
<!-- Node9&#45;&gt;Node10 -->
<g id="edge11" class="edge"><title>Node9&#45;&gt;Node10</title>
<path fill="none" stroke="midnightblue" d="M1931.01,-123.337C1923.62,-104.633 1907.91,-72.1784 1883,-56 1841.78,-29.2342 1695.63,-16.9794 1631.06,-12.7796"/>
<polygon fill="midnightblue" stroke="midnightblue" points="1630.9,-9.26328 1620.71,-12.1303 1630.47,-16.2496 1630.9,-9.26328"/>
</g>
<!-- Node11 -->
<g id="node12" class="node"><title>Node11</title>
<polygon fill="white" stroke="#bfbfbf" points="1822,-62 1822,-81 1874,-81 1874,-62 1822,-62"/>
<text text-anchor="middle" x="1848" y="-69" font-family="Helvetica,sans-Serif" font-size="10.00">memory</text>
</g>
<!-- Node9&#45;&gt;Node11 -->
<g id="edge12" class="edge"><title>Node9&#45;&gt;Node11</title>
<path fill="none" stroke="midnightblue" d="M1916.91,-123.396C1902.42,-112.697 1882.57,-98.0334 1867.89,-87.193"/>
<polygon fill="midnightblue" stroke="midnightblue" points="1869.64,-84.1331 1859.52,-81.007 1865.48,-89.7637 1869.64,-84.1331"/>
</g>
<!-- Node12&#45;&gt;Node6 -->
<g id="edge18" class="edge"><title>Node12&#45;&gt;Node6</title>
<path fill="none" stroke="midnightblue" d="M1073.52,-129.408C1129.27,-122.201 1204.56,-109.244 1268,-87 1269.24,-86.5643 1270.5,-86.0773 1271.75,-85.553"/>
<polygon fill="midnightblue" stroke="midnightblue" points="1273.61,-88.542 1281.09,-81.0363 1270.56,-82.2407 1273.61,-88.542"/>
</g>
<!-- Node12&#45;&gt;Node7 -->
<g id="edge17" class="edge"><title>Node12&#45;&gt;Node7</title>
<path fill="none" stroke="midnightblue" d="M978.3,-128.734C960.077,-117.867 928.801,-99.2161 907.298,-86.3931"/>
<polygon fill="midnightblue" stroke="midnightblue" points="908.849,-83.243 898.467,-81.1273 905.264,-89.2552 908.849,-83.243"/>
</g>
<!-- Node12&#45;&gt;Node10 -->
<g id="edge16" class="edge"><title>Node12&#45;&gt;Node10</title>
<path fill="none" stroke="midnightblue" d="M1006.53,-128.76C1034,-111.505 1098.82,-73.2437 1159,-56 1308.19,-13.2558 1495.97,-9.92945 1568.98,-10.4437"/>
<polygon fill="midnightblue" stroke="midnightblue" points="1569.26,-13.9467 1579.3,-10.5485 1569.33,-6.94704 1569.26,-13.9467"/>
</g>
<!-- Node13 -->
<g id="node14" class="node"><title>Node13</title>
<polygon fill="white" stroke="#bfbfbf" points="1168.5,-62 1168.5,-81 1259.5,-81 1259.5,-62 1168.5,-62"/>
<text text-anchor="middle" x="1214" y="-69" font-family="Helvetica,sans-Serif" font-size="10.00">llvm/IR/Module.h</text>
</g>
<!-- Node12&#45;&gt;Node13 -->
<g id="edge14" class="edge"><title>Node12&#45;&gt;Node13</title>
<path fill="none" stroke="midnightblue" d="M1022.35,-128.869C1061.67,-117.303 1131.55,-96.7489 1175.19,-83.9145"/>
<polygon fill="midnightblue" stroke="midnightblue" points="1176.28,-87.2432 1184.88,-81.0637 1174.3,-80.5276 1176.28,-87.2432"/>
</g>
<!-- Node14 -->
<g id="node15" class="node"><title>Node14</title>
<polygon fill="white" stroke="#bfbfbf" points="944.5,-62 944.5,-81 1041.5,-81 1041.5,-62 944.5,-62"/>
<text text-anchor="middle" x="993" y="-69" font-family="Helvetica,sans-Serif" font-size="10.00">llvm/IR/Function.h</text>
</g>
<!-- Node12&#45;&gt;Node14 -->
<g id="edge15" class="edge"><title>Node12&#45;&gt;Node14</title>
<path fill="none" stroke="midnightblue" d="M993,-128.734C993,-119.183 993,-103.618 993,-91.2829"/>
<polygon fill="midnightblue" stroke="midnightblue" points="996.5,-91.1273 993,-81.1273 989.5,-91.1273 996.5,-91.1273"/>
</g>
<!-- Node15&#45;&gt;Node2 -->
<g id="edge20" class="edge"><title>Node15&#45;&gt;Node2</title>
<path fill="none" stroke="midnightblue" d="M206.073,-128.869C247.885,-117.254 322.327,-96.5757 368.49,-83.7528"/>
<polygon fill="midnightblue" stroke="midnightblue" points="369.472,-87.1125 378.171,-81.0637 367.599,-80.3679 369.472,-87.1125"/>
</g>
<!-- Node16 -->
<g id="node17" class="node"><title>Node16</title>
<g id="a_node17"><a xlink:href="SerialSetYAMLWrapper_8h.html" target="_top" xlink:title="pinhao/Support/SerialSet\lYAMLWrapper.h">
<polygon fill="white" stroke="black" points="116.5,-56.5 116.5,-86.5 241.5,-86.5 241.5,-56.5 116.5,-56.5"/>
<text text-anchor="start" x="124.5" y="-74.5" font-family="Helvetica,sans-Serif" font-size="10.00">pinhao/Support/SerialSet</text>
<text text-anchor="middle" x="179" y="-63.5" font-family="Helvetica,sans-Serif" font-size="10.00">YAMLWrapper.h</text>
</a>
</g>
</g>
<!-- Node15&#45;&gt;Node16 -->
<g id="edge21" class="edge"><title>Node15&#45;&gt;Node16</title>
<path fill="none" stroke="midnightblue" d="M175.539,-128.734C176.044,-120.541 176.82,-107.923 177.51,-96.7136"/>
<polygon fill="midnightblue" stroke="midnightblue" points="181.012,-96.7851 178.133,-86.589 174.025,-96.3551 181.012,-96.7851"/>
</g>
<!-- Node17 -->
<g id="node18" class="node"><title>Node17</title>
<polygon fill="white" stroke="#bfbfbf" points="0,-62 0,-81 30,-81 30,-62 0,-62"/>
<text text-anchor="middle" x="15" y="-69" font-family="Helvetica,sans-Serif" font-size="10.00">set</text>
</g>
<!-- Node15&#45;&gt;Node17 -->
<g id="edge22" class="edge"><title>Node15&#45;&gt;Node17</title>
<path fill="none" stroke="midnightblue" d="M147.542,-128.993C119.622,-119.955 75.4083,-104.565 39,-87 38.4519,-86.7356 37.9002,-86.4624 37.3464,-86.182"/>
<polygon fill="midnightblue" stroke="midnightblue" points="38.9001,-83.0412 28.4599,-81.2374 35.4965,-89.1581 38.9001,-83.0412"/>
</g>
<!-- Node18 -->
<g id="node19" class="node"><title>Node18</title>
<polygon fill="white" stroke="#bfbfbf" points="48,-62 48,-81 98,-81 98,-62 48,-62"/>
<text text-anchor="middle" x="73" y="-69" font-family="Helvetica,sans-Serif" font-size="10.00">fstream</text>
</g>
<!-- Node15&#45;&gt;Node18 -->
<g id="edge23" class="edge"><title>Node15&#45;&gt;Node18</title>
<path fill="none" stroke="midnightblue" d="M161.244,-128.734C144.268,-117.916 115.186,-99.3832 95.0727,-86.5659"/>
<polygon fill="midnightblue" stroke="midnightblue" points="96.8524,-83.5498 86.5382,-81.1273 93.0905,-89.4531 96.8524,-83.5498"/>
</g>
<!-- Node19&#45;&gt;Node10 -->
<g id="edge26" class="edge"><title>Node19&#45;&gt;Node10</title>
<path fill="none" stroke="midnightblue" d="M637.174,-67.0001C829.604,-55.808 1425.74,-21.1354 1568.87,-12.8105"/>
<polygon fill="midnightblue" stroke="midnightblue" points="1569.34,-16.2892 1579.12,-12.2144 1568.93,-9.30102 1569.34,-16.2892"/>
</g>
<!-- Node20&#45;&gt;Node7 -->
<g id="edge56" class="edge"><title>Node20&#45;&gt;Node7</title>
<path fill="none" stroke="midnightblue" d="M1217.22,-391.452C1202.13,-382.025 1182.59,-368.837 1167,-355 1094.21,-290.379 1104.82,-242.717 1023,-190 976.192,-159.842 941.125,-194.582 903,-154 887.183,-137.164 883.684,-109.802 883.304,-91.4841"/>
<polygon fill="midnightblue" stroke="midnightblue" points="886.804,-91.4512 883.388,-81.4224 879.804,-91.3928 886.804,-91.4512"/>
</g>
<!-- Node20&#45;&gt;Node9 -->
<g id="edge54" class="edge"><title>Node20&#45;&gt;Node9</title>
<path fill="none" stroke="midnightblue" d="M1314.53,-396.111C1369.19,-388.073 1445.2,-374.652 1510,-355 1668.65,-306.886 1839.44,-202.401 1906.56,-159.005"/>
<polygon fill="midnightblue" stroke="midnightblue" points="1908.48,-161.927 1914.96,-153.54 1904.67,-156.059 1908.48,-161.927"/>
</g>
<!-- Node20&#45;&gt;Node10 -->
<g id="edge55" class="edge"><title>Node20&#45;&gt;Node10</title>
<path fill="none" stroke="midnightblue" d="M1314.74,-401.029C1512.54,-388.057 2040,-346.61 2040,-273.5 2040,-273.5 2040,-273.5 2040,-137.5 2040,-52.1836 1730.58,-20.9994 1630.69,-13.1551"/>
<polygon fill="midnightblue" stroke="midnightblue" points="1630.87,-9.65854 1620.63,-12.3891 1630.34,-16.6383 1630.87,-9.65854"/>
</g>
<!-- Node20&#45;&gt;Node19 -->
<g id="edge53" class="edge"><title>Node20&#45;&gt;Node19</title>
<path fill="none" stroke="midnightblue" d="M1167.23,-399.693C983.47,-384.241 520,-338.797 520,-273.5 520,-273.5 520,-273.5 520,-204.5 520,-160.206 547.386,-113.897 564.193,-89.6473"/>
<polygon fill="midnightblue" stroke="midnightblue" points="567.257,-91.3797 570.238,-81.2128 561.567,-87.302 567.257,-91.3797"/>
</g>
<!-- Node21 -->
<g id="node22" class="node"><title>Node21</title>
<g id="a_node22"><a xlink:href="FeatureSet_8h.html" target="_top" xlink:title="This file defines a class which contains the features selected by the user (by some command line)...">
<polygon fill="white" stroke="black" points="1355,-330 1355,-349 1501,-349 1501,-330 1355,-330"/>
<text text-anchor="middle" x="1428" y="-337" font-family="Helvetica,sans-Serif" font-size="10.00">pinhao/Features/FeatureSet.h</text>
</a>
</g>
</g>
<!-- Node20&#45;&gt;Node21 -->
<g id="edge29" class="edge"><title>Node20&#45;&gt;Node21</title>
<path fill="none" stroke="midnightblue" d="M1281.58,-391.396C1315.11,-379.739 1362.2,-363.373 1393.83,-352.376"/>
<polygon fill="midnightblue" stroke="midnightblue" points="1395.23,-355.596 1403.53,-349.007 1392.93,-348.984 1395.23,-355.596"/>
</g>
<!-- Node27 -->
<g id="node28" class="node"><title>Node27</title>
<g id="a_node28"><a xlink:href="Random_8h.html" target="_top" xlink:title="pinhao/Support/Random.h">
<polygon fill="white" stroke="black" points="1176,-330 1176,-349 1306,-349 1306,-330 1176,-330"/>
<text text-anchor="middle" x="1241" y="-337" font-family="Helvetica,sans-Serif" font-size="10.00">pinhao/Support/Random.h</text>
</a>
</g>
</g>
<!-- Node20&#45;&gt;Node27 -->
<g id="edge51" class="edge"><title>Node20&#45;&gt;Node27</title>
<path fill="none" stroke="midnightblue" d="M1241,-391.396C1241,-382.064 1241,-369.714 1241,-359.517"/>
<polygon fill="midnightblue" stroke="midnightblue" points="1244.5,-359.195 1241,-349.195 1237.5,-359.195 1244.5,-359.195"/>
</g>
<!-- Node21&#45;&gt;Node6 -->
<g id="edge48" class="edge"><title>Node21&#45;&gt;Node6</title>
<path fill="none" stroke="midnightblue" d="M1415.24,-329.749C1402.05,-320.341 1381.28,-304.502 1366,-288 1316.75,-234.809 1294.66,-223.183 1273,-154 1266.18,-132.225 1275.8,-106.792 1284.37,-90.204"/>
<polygon fill="midnightblue" stroke="midnightblue" points="1287.62,-91.5701 1289.43,-81.1304 1281.5,-88.1649 1287.62,-91.5701"/>
</g>
<!-- Node21&#45;&gt;Node7 -->
<g id="edge49" class="edge"><title>Node21&#45;&gt;Node7</title>
<path fill="none" stroke="midnightblue" d="M1410.57,-329.85C1391.31,-320.151 1359.51,-303.715 1333,-288 1218.16,-219.928 1204.39,-176.319 1082,-123 1020.33,-96.1352 1000.03,-104.2 935,-87 928.751,-85.3471 922.093,-83.5101 915.721,-81.7142"/>
<polygon fill="midnightblue" stroke="midnightblue" points="916.618,-78.3307 906.042,-78.9585 914.701,-85.0631 916.618,-78.3307"/>
</g>
<!-- Node21&#45;&gt;Node11 -->
<g id="edge50" class="edge"><title>Node21&#45;&gt;Node11</title>
<path fill="none" stroke="midnightblue" d="M1481.41,-329.969C1521.2,-322.335 1576.17,-309.044 1621,-288 1713.56,-244.556 1741.92,-232.028 1808,-154 1824.11,-134.975 1835.58,-108.347 1842,-90.7737"/>
<polygon fill="midnightblue" stroke="midnightblue" points="1845.37,-91.7459 1845.34,-81.1511 1838.75,-89.4522 1845.37,-91.7459"/>
</g>
<!-- Node22 -->
<g id="node23" class="node"><title>Node22</title>
<g id="a_node23"><a xlink:href="Features_8h.html" target="_top" xlink:title="This file implements some basic feature classes that extends the base class Feature. ">
<polygon fill="white" stroke="black" points="1375,-263 1375,-282 1511,-282 1511,-263 1375,-263"/>
<text text-anchor="middle" x="1443" y="-270" font-family="Helvetica,sans-Serif" font-size="10.00">pinhao/Features/Features.h</text>
</a>
</g>
</g>
<!-- Node21&#45;&gt;Node22 -->
<g id="edge30" class="edge"><title>Node21&#45;&gt;Node22</title>
<path fill="none" stroke="midnightblue" d="M1430.02,-329.734C1432.25,-320.085 1435.89,-304.3 1438.75,-291.906"/>
<polygon fill="midnightblue" stroke="midnightblue" points="1442.17,-292.658 1441.01,-282.127 1435.35,-291.084 1442.17,-292.658"/>
</g>
<!-- Node25 -->
<g id="node26" class="node"><title>Node25</title>
<polygon fill="white" stroke="#bfbfbf" points="1572.5,-62 1572.5,-81 1621.5,-81 1621.5,-62 1572.5,-62"/>
<text text-anchor="middle" x="1597" y="-69" font-family="Helvetica,sans-Serif" font-size="10.00">cassert</text>
</g>
<!-- Node21&#45;&gt;Node25 -->
<g id="edge47" class="edge"><title>Node21&#45;&gt;Node25</title>
<path fill="none" stroke="midnightblue" d="M1462.94,-329.976C1530.57,-311.362 1677.88,-259.995 1737,-154 1761.94,-109.285 1680.61,-86.9514 1631.54,-77.7795"/>
<polygon fill="midnightblue" stroke="midnightblue" points="1632.07,-74.3183 1621.61,-76.0188 1630.84,-81.2108 1632.07,-74.3183"/>
</g>
<!-- Node23 -->
<g id="node24" class="node"><title>Node23</title>
<g id="a_node24"><a xlink:href="Feature_8h.html" target="_top" xlink:title="This file defines the base feature class. ">
<polygon fill="white" stroke="black" points="1385.5,-196 1385.5,-215 1516.5,-215 1516.5,-196 1385.5,-196"/>
<text text-anchor="middle" x="1451" y="-203" font-family="Helvetica,sans-Serif" font-size="10.00">pinhao/Features/Feature.h</text>
</a>
</g>
</g>
<!-- Node22&#45;&gt;Node23 -->
<g id="edge31" class="edge"><title>Node22&#45;&gt;Node23</title>
<path fill="none" stroke="midnightblue" d="M1444.08,-262.734C1445.25,-253.183 1447.17,-237.618 1448.69,-225.283"/>
<polygon fill="midnightblue" stroke="midnightblue" points="1452.19,-225.48 1449.94,-215.127 1445.24,-224.625 1452.19,-225.48"/>
</g>
<!-- Node23&#45;&gt;Node3 -->
<g id="edge43" class="edge"><title>Node23&#45;&gt;Node3</title>
<path fill="none" stroke="midnightblue" d="M1455.07,-195.857C1461.86,-180.055 1473.41,-146.016 1459,-123 1426.73,-71.4576 1250.05,-35.1689 1158.73,-19.5616"/>
<polygon fill="midnightblue" stroke="midnightblue" points="1159.27,-16.104 1148.83,-17.8939 1158.11,-23.0067 1159.27,-16.104"/>
</g>
<!-- Node23&#45;&gt;Node4 -->
<g id="edge46" class="edge"><title>Node23&#45;&gt;Node4</title>
<path fill="none" stroke="midnightblue" d="M1401.22,-195.997C1358.03,-187.809 1294.27,-173.748 1241,-154 1151.54,-120.834 1142.08,-80.9967 1050,-56 777.856,17.8796 693.094,-60.9031 410.165,-19.847"/>
<polygon fill="midnightblue" stroke="midnightblue" points="410.422,-16.3468 400.016,-18.3355 409.391,-23.2704 410.422,-16.3468"/>
</g>
<!-- Node23&#45;&gt;Node6 -->
<g id="edge44" class="edge"><title>Node23&#45;&gt;Node6</title>
<path fill="none" stroke="midnightblue" d="M1452.27,-195.728C1454.12,-179.411 1455.61,-144.134 1438,-123 1409.38,-88.6548 1355.81,-77.6536 1322.98,-74.139"/>
<polygon fill="midnightblue" stroke="midnightblue" points="1322.99,-70.6251 1312.71,-73.2112 1322.36,-77.5967 1322.99,-70.6251"/>
</g>
<!-- Node23&#45;&gt;Node13 -->
<g id="edge42" class="edge"><title>Node23&#45;&gt;Node13</title>
<path fill="none" stroke="midnightblue" d="M1385.15,-196.523C1349.46,-189.693 1306.04,-177.105 1273,-154 1249.57,-137.613 1231.98,-108.861 1222.34,-90.257"/>
<polygon fill="midnightblue" stroke="midnightblue" points="1225.39,-88.5211 1217.82,-81.1081 1219.11,-91.6235 1225.39,-88.5211"/>
</g>
<!-- Node24 -->
<g id="node25" class="node"><title>Node24</title>
<g id="a_node25"><a xlink:href="FeatureInfo_8h.html" target="_top" xlink:title="This file defines a class that holds some informations about a feature. ">
<polygon fill="white" stroke="black" points="1282.5,-129 1282.5,-148 1429.5,-148 1429.5,-129 1282.5,-129"/>
<text text-anchor="middle" x="1356" y="-136" font-family="Helvetica,sans-Serif" font-size="10.00">pinhao/Features/FeatureInfo.h</text>
</a>
</g>
</g>
<!-- Node23&#45;&gt;Node24 -->
<g id="edge32" class="edge"><title>Node23&#45;&gt;Node24</title>
<path fill="none" stroke="midnightblue" d="M1438.19,-195.734C1422.52,-185.013 1395.78,-166.716 1377.07,-153.914"/>
<polygon fill="midnightblue" stroke="midnightblue" points="1378.84,-150.886 1368.61,-148.127 1374.89,-156.663 1378.84,-150.886"/>
</g>
<!-- Node23&#45;&gt;Node25 -->
<g id="edge45" class="edge"><title>Node23&#45;&gt;Node25</title>
<path fill="none" stroke="midnightblue" d="M1461.57,-195.7C1473.47,-185.732 1493.33,-168.931 1510,-154 1534.91,-131.693 1563.03,-105.081 1580.39,-88.4829"/>
<polygon fill="midnightblue" stroke="midnightblue" points="1583.18,-90.6487 1587.98,-81.2018 1578.34,-85.5957 1583.18,-90.6487"/>
</g>
<!-- Node26 -->
<g id="node27" class="node"><title>Node26</title>
<g id="a_node27"><a xlink:href="FeatureRegistry_8h.html" target="_top" xlink:title="This file defines a class that has all the registered features. ">
<polygon fill="white" stroke="black" points="1561.5,-129 1561.5,-148 1728.5,-148 1728.5,-129 1561.5,-129"/>
<text text-anchor="middle" x="1645" y="-136" font-family="Helvetica,sans-Serif" font-size="10.00">pinhao/Features/FeatureRegistry.h</text>
</a>
</g>
</g>
<!-- Node23&#45;&gt;Node26 -->
<g id="edge38" class="edge"><title>Node23&#45;&gt;Node26</title>
<path fill="none" stroke="midnightblue" d="M1476.76,-195.869C1510.92,-184.424 1571.34,-164.181 1609.71,-151.322"/>
<polygon fill="midnightblue" stroke="midnightblue" points="1611.07,-154.559 1619.44,-148.064 1608.85,-147.922 1611.07,-154.559"/>
</g>
<!-- Node24&#45;&gt;Node6 -->
<g id="edge34" class="edge"><title>Node24&#45;&gt;Node6</title>
<path fill="none" stroke="midnightblue" d="M1347.77,-128.734C1338.17,-118.5 1322.09,-101.364 1310.2,-88.6924"/>
<polygon fill="midnightblue" stroke="midnightblue" points="1312.49,-86.0241 1303.1,-81.1273 1307.39,-90.8143 1312.49,-86.0241"/>
</g>
<!-- Node24&#45;&gt;Node7 -->
<g id="edge35" class="edge"><title>Node24&#45;&gt;Node7</title>
<path fill="none" stroke="midnightblue" d="M1282.43,-132.21C1197.96,-125.321 1055.53,-111.206 935,-87 928.872,-85.7692 922.406,-84.1711 916.213,-82.4872"/>
<polygon fill="midnightblue" stroke="midnightblue" points="916.733,-78.9961 906.156,-79.6219 914.815,-85.7282 916.733,-78.9961"/>
</g>
<!-- Node24&#45;&gt;Node10 -->
<g id="edge36" class="edge"><title>Node24&#45;&gt;Node10</title>
<path fill="none" stroke="midnightblue" d="M1372.77,-128.805C1414.75,-107.042 1524.55,-50.1151 1574.55,-24.1958"/>
<polygon fill="midnightblue" stroke="midnightblue" points="1576.17,-27.2984 1583.43,-19.5884 1572.95,-21.0839 1576.17,-27.2984"/>
</g>
<!-- Node24&#45;&gt;Node19 -->
<g id="edge33" class="edge"><title>Node24&#45;&gt;Node19</title>
<path fill="none" stroke="midnightblue" d="M1282.36,-131.356C1132.64,-118.862 794.455,-90.6445 647.448,-78.3782"/>
<polygon fill="midnightblue" stroke="midnightblue" points="647.456,-74.8668 637.199,-77.523 646.874,-81.8425 647.456,-74.8668"/>
</g>
<!-- Node24&#45;&gt;Node25 -->
<g id="edge37" class="edge"><title>Node24&#45;&gt;Node25</title>
<path fill="none" stroke="midnightblue" d="M1388,-128.869C1433.33,-116.643 1515.9,-94.3739 1562.53,-81.7958"/>
<polygon fill="midnightblue" stroke="midnightblue" points="1563.45,-85.1748 1572.19,-79.1914 1561.62,-78.4163 1563.45,-85.1748"/>
</g>
<!-- Node26&#45;&gt;Node6 -->
<g id="edge41" class="edge"><title>Node26&#45;&gt;Node6</title>
<path fill="none" stroke="midnightblue" d="M1598.88,-128.936C1524.99,-115.212 1382.29,-88.7108 1322.46,-77.5988"/>
<polygon fill="midnightblue" stroke="midnightblue" points="1323.08,-74.1547 1312.61,-75.7698 1321.8,-81.037 1323.08,-74.1547"/>
</g>
<!-- Node26&#45;&gt;Node11 -->
<g id="edge39" class="edge"><title>Node26&#45;&gt;Node11</title>
<path fill="none" stroke="midnightblue" d="M1671.96,-128.869C1708.05,-117.312 1772.16,-96.7823 1812.25,-83.9457"/>
<polygon fill="midnightblue" stroke="midnightblue" points="1813.44,-87.2409 1821.9,-80.8581 1811.31,-80.5743 1813.44,-87.2409"/>
</g>
<!-- Node26&#45;&gt;Node25 -->
<g id="edge40" class="edge"><title>Node26&#45;&gt;Node25</title>
<path fill="none" stroke="midnightblue" d="M1638.53,-128.734C1631.11,-118.695 1618.8,-102.014 1609.5,-89.4213"/>
<polygon fill="midnightblue" stroke="midnightblue" points="1612.13,-87.0925 1603.37,-81.1273 1606.5,-91.2508 1612.13,-87.0925"/>
</g>
<!-- Node28 -->
<g id="node29" class="node"><title>Node28</title>
<polygon fill="white" stroke="#bfbfbf" points="1216.5,-263 1216.5,-282 1265.5,-282 1265.5,-263 1216.5,-263"/>
<text text-anchor="middle" x="1241" y="-270" font-family="Helvetica,sans-Serif" font-size="10.00">random</text>
</g>
<!-- Node27&#45;&gt;Node28 -->
<g id="edge52" class="edge"><title>Node27&#45;&gt;Node28</title>
<path fill="none" stroke="midnightblue" d="M1241,-329.734C1241,-320.183 1241,-304.618 1241,-292.283"/>
<polygon fill="midnightblue" stroke="midnightblue" points="1244.5,-292.127 1241,-282.127 1237.5,-292.127 1244.5,-292.127"/>
</g>
<!-- Node29&#45;&gt;Node6 -->
<g id="edge72" class="edge"><title>Node29&#45;&gt;Node6</title>
<path fill="none" stroke="midnightblue" d="M958.14,-324.199C1019.81,-278.12 1212.91,-133.835 1275.33,-87.1981"/>
<polygon fill="midnightblue" stroke="midnightblue" points="1277.64,-89.8384 1283.56,-81.049 1273.45,-84.2309 1277.64,-89.8384"/>
</g>
<!-- Node29&#45;&gt;Node7 -->
<g id="edge71" class="edge"><title>Node29&#45;&gt;Node7</title>
<path fill="none" stroke="midnightblue" d="M864.866,-336.656C786.009,-330.109 665.784,-305.839 615,-221 558.37,-126.395 768.537,-87.7526 851.601,-76.3762"/>
<polygon fill="midnightblue" stroke="midnightblue" points="852.302,-79.8141 861.758,-75.035 851.386,-72.8743 852.302,-79.8141"/>
</g>
<!-- Node29&#45;&gt;Node10 -->
<g id="edge70" class="edge"><title>Node29&#45;&gt;Node10</title>
<path fill="none" stroke="midnightblue" d="M977.482,-324.363C1029.02,-305.994 1123.66,-274.239 1207,-257 1324.49,-232.696 1666.09,-250.782 1737,-154 1775.75,-101.11 1680.74,-47.6622 1629.75,-23.8395"/>
<polygon fill="midnightblue" stroke="midnightblue" points="1631.04,-20.5803 1620.49,-19.6107 1628.13,-26.9479 1631.04,-20.5803"/>
</g>
<!-- Node29&#45;&gt;Node12 -->
<g id="edge59" class="edge"><title>Node29&#45;&gt;Node12</title>
<path fill="none" stroke="midnightblue" d="M950.846,-324.477C967.657,-303.557 997.656,-262.208 1009,-221 1014.9,-199.56 1007.89,-174.375 1001.38,-157.738"/>
<polygon fill="midnightblue" stroke="midnightblue" points="1004.44,-156 997.31,-148.164 997.997,-158.737 1004.44,-156"/>
</g>
<!-- Node29&#45;&gt;Node19 -->
<g id="edge69" class="edge"><title>Node29&#45;&gt;Node19</title>
<path fill="none" stroke="midnightblue" d="M864.812,-332.845C789.239,-325.869 678.286,-311.898 643,-288 577.573,-243.687 574.3,-135.177 575.834,-91.3347"/>
<polygon fill="midnightblue" stroke="midnightblue" points="579.336,-91.3788 576.32,-81.2224 572.344,-91.043 579.336,-91.3788"/>
</g>
<!-- Node30 -->
<g id="node31" class="node"><title>Node30</title>
<g id="a_node31"><a xlink:href="OptimizationInfo_8h.html" target="_top" xlink:title="pinhao/Optimizer/Optimization\lInfo.h">
<polygon fill="white" stroke="black" points="832,-190.5 832,-220.5 980,-220.5 980,-190.5 832,-190.5"/>
<text text-anchor="start" x="840" y="-208.5" font-family="Helvetica,sans-Serif" font-size="10.00">pinhao/Optimizer/Optimization</text>
<text text-anchor="middle" x="906" y="-197.5" font-family="Helvetica,sans-Serif" font-size="10.00">Info.h</text>
</a>
</g>
</g>
<!-- Node29&#45;&gt;Node30 -->
<g id="edge60" class="edge"><title>Node29&#45;&gt;Node30</title>
<path fill="none" stroke="midnightblue" d="M935.468,-324.374C929.861,-301.945 918.856,-257.924 911.996,-230.486"/>
<polygon fill="midnightblue" stroke="midnightblue" points="915.327,-229.377 909.506,-220.525 908.536,-231.075 915.327,-229.377"/>
</g>
<!-- Node31 -->
<g id="node32" class="node"><title>Node31</title>
<g id="a_node32"><a xlink:href="OptimizationSequence_8h.html" target="_top" xlink:title="pinhao/Optimizer/Optimization\lSequence.h">
<polygon fill="white" stroke="black" points="749,-257.5 749,-287.5 897,-287.5 897,-257.5 749,-257.5"/>
<text text-anchor="start" x="757" y="-275.5" font-family="Helvetica,sans-Serif" font-size="10.00">pinhao/Optimizer/Optimization</text>
<text text-anchor="middle" x="823" y="-264.5" font-family="Helvetica,sans-Serif" font-size="10.00">Sequence.h</text>
</a>
</g>
</g>
<!-- Node29&#45;&gt;Node31 -->
<g id="edge63" class="edge"><title>Node29&#45;&gt;Node31</title>
<path fill="none" stroke="midnightblue" d="M913.83,-324.396C897.261,-315.112 875.362,-302.841 857.219,-292.674"/>
<polygon fill="midnightblue" stroke="midnightblue" points="858.556,-289.412 848.121,-287.577 855.134,-295.518 858.556,-289.412"/>
</g>
<!-- Node30&#45;&gt;Node12 -->
<g id="edge61" class="edge"><title>Node30&#45;&gt;Node12</title>
<path fill="none" stroke="midnightblue" d="M924.878,-190.396C939.114,-179.759 958.598,-165.203 973.082,-154.381"/>
<polygon fill="midnightblue" stroke="midnightblue" points="975.446,-156.984 981.363,-148.195 971.257,-151.376 975.446,-156.984"/>
</g>
<!-- Node30&#45;&gt;Node19 -->
<g id="edge62" class="edge"><title>Node30&#45;&gt;Node19</title>
<path fill="none" stroke="midnightblue" d="M831.774,-194.405C789.238,-186.842 735.611,-174.227 691,-154 653.219,-136.87 615.193,-106.404 594.009,-87.9657"/>
<polygon fill="midnightblue" stroke="midnightblue" points="596.063,-85.1087 586.257,-81.096 591.42,-90.3477 596.063,-85.1087"/>
</g>
<!-- Node31&#45;&gt;Node4 -->
<g id="edge68" class="edge"><title>Node31&#45;&gt;Node4</title>
<path fill="none" stroke="midnightblue" d="M748.746,-269.905C609.264,-266.136 319.337,-254.341 289,-221 261.193,-190.439 243.287,-183.919 321,-56 328.361,-43.8834 340.082,-33.325 350.534,-25.4864"/>
<polygon fill="midnightblue" stroke="midnightblue" points="352.754,-28.203 358.892,-19.5671 348.708,-22.4905 352.754,-28.203"/>
</g>
<!-- Node31&#45;&gt;Node7 -->
<g id="edge67" class="edge"><title>Node31&#45;&gt;Node7</title>
<path fill="none" stroke="midnightblue" d="M819.724,-257.478C814.847,-239.53 804.028,-208.542 784,-190 751.477,-159.889 716.053,-190.562 691,-154 683.212,-142.634 682.581,-133.906 691,-123 710.521,-97.7139 802.118,-82.648 851.785,-76.2026"/>
<polygon fill="midnightblue" stroke="midnightblue" points="852.508,-79.6394 861.995,-74.9224 851.638,-72.6937 852.508,-79.6394"/>
</g>
<!-- Node31&#45;&gt;Node12 -->
<g id="edge64" class="edge"><title>Node31&#45;&gt;Node12</title>
<path fill="none" stroke="midnightblue" d="M897.079,-267.66C930.48,-261.841 967.236,-248.913 989,-221 1002.85,-203.237 1001.04,-176.1 997.678,-158.085"/>
<polygon fill="midnightblue" stroke="midnightblue" points="1001.07,-157.23 995.511,-148.213 994.236,-158.73 1001.07,-157.23"/>
</g>
<!-- Node31&#45;&gt;Node30 -->
<g id="edge65" class="edge"><title>Node31&#45;&gt;Node30</title>
<path fill="none" stroke="midnightblue" d="M841.01,-257.396C852.43,-248.452 867.389,-236.737 880.076,-226.802"/>
<polygon fill="midnightblue" stroke="midnightblue" points="882.31,-229.498 888.025,-220.577 877.994,-223.987 882.31,-229.498"/>
</g>
<!-- Node32 -->
<g id="node33" class="node"><title>Node32</title>
<polygon fill="white" stroke="#bfbfbf" points="624.5,-196 624.5,-215 775.5,-215 775.5,-196 624.5,-196"/>
<text text-anchor="middle" x="700" y="-203" font-family="Helvetica,sans-Serif" font-size="10.00">llvm/IR/LegacyPassManager.h</text>
</g>
<!-- Node31&#45;&gt;Node32 -->
<g id="edge66" class="edge"><title>Node31&#45;&gt;Node32</title>
<path fill="none" stroke="midnightblue" d="M796.311,-257.396C775.111,-246.193 745.683,-230.641 724.951,-219.685"/>
<polygon fill="midnightblue" stroke="midnightblue" points="726.575,-216.585 716.098,-215.007 723.304,-222.774 726.575,-216.585"/>
</g>
</g>
</svg>
        <g id="navigator" transform="translate(0 0)" fill="#404254">
                <rect fill="#f2f5e9" fill-opacity="0.5" stroke="#606060" stroke-width=".5" x="0" y="0" width="60" height="60"/>
                <use id="zoomplus" xlink:href="#zoomPlus" x="17" y="9" onmousedown="handleZoom(evt,'in')"/>
                <use id="zoomminus" xlink:href="#zoomMin" x="42" y="9" onmousedown="handleZoom(evt,'out')"/>
                <use id="reset" xlink:href="#resetDef" x="30" y="36" onmousedown="handleReset()"/>
                <g id="arrowUp" xlink:href="#dirArrow" transform="translate(30 24)" onmousedown="handlePan(0,-1)">
                  <use xlink:href="#rim" fill="#404040">
                        <set attributeName="fill" to="#808080" begin="arrowUp.mouseover" end="arrowUp.mouseout"/>
                  </use>
                  <path fill="none" stroke="white" stroke-width="1.5" d="M0,-3.0v7 M-2.5,-0.5L0,-3.0L2.5,-0.5"/>
                </g>
                <g id="arrowRight" xlink:href="#dirArrow" transform="rotate(90) translate(36 -43)" onmousedown="handlePan(1,0)">
                  <use xlink:href="#rim" fill="#404040">
                        <set attributeName="fill" to="#808080" begin="arrowRight.mouseover" end="arrowRight.mouseout"/>
                  </use>
                  <path fill="none" stroke="white" stroke-width="1.5" d="M0,-3.0v7 M-2.5,-0.5L0,-3.0L2.5,-0.5"/>
                </g>
                <g id="arrowDown" xlink:href="#dirArrow" transform="rotate(180) translate(-30 -48)" onmousedown="handlePan(0,1)">
                  <use xlink:href="#rim" fill="#404040">
                        <set attributeName="fill" to="#808080" begin="arrowDown.mouseover" end="arrowDown.mouseout"/>
                  </use>
                  <path fill="none" stroke="white" stroke-width="1.5" d="M0,-3.0v7 M-2.5,-0.5L0,-3.0L2.5,-0.5"/>
                </g>
                <g id="arrowLeft" xlink:href="#dirArrow" transform="rotate(270) translate(-36 17)" onmousedown="handlePan(-1,0)">
                  <use xlink:href="#rim" fill="#404040">
                        <set attributeName="fill" to="#808080" begin="arrowLeft.mouseover" end="arrowLeft.mouseout"/>
                  </use>
                  <path fill="none" stroke="white" stroke-width="1.5" d="M0,-3.0v7 M-2.5,-0.5L0,-3.0L2.5,-0.5"/>
                </g>
        </g>
        <svg viewBox="0 0 15 15" width="100%" height="30px" preserveAspectRatio="xMaxYMin meet">
         <g id="arrow_out" transform="scale(0.3 0.3)">
          <a xlink:href="Candidate_8cpp__incl_org.svg" target="_base">
           <rect id="button" ry="5" rx="5" y="6" x="6" height="38" width="38"
                fill="#f2f5e9" fill-opacity="0.5" stroke="#606060" stroke-width="1.0"/>
           <path id="arrow"
             d="M 11.500037,31.436501 C 11.940474,20.09759 22.043105,11.32322 32.158766,21.979434 L 37.068811,17.246167 C 37.068811,17.246167 37.088388,32 37.088388,32 L 22.160133,31.978069 C 22.160133,31.978069 26.997745,27.140456 26.997745,27.140456 C 18.528582,18.264221 13.291696,25.230495 11.500037,31.436501 z"
             style="fill:#404040;"/>
          </a>
         </g>
        </svg>
</svg>
