<?xml version="1.0" encoding="UTF-8" standalone="no"?>
<!DOCTYPE svg PUBLIC "-//W3C//DTD SVG 1.1//EN"
 "http://www.w3.org/Graphics/SVG/1.1/DTD/svg11.dtd">
<!-- Generated by graphviz version 2.38.0 (20140413.2041)
 -->
<!-- Title: /home/yukiosir/workspace/CompilerProject/Software/pinhao/lib/FeaturesImpl/CFGBasicBlockStaticFeatures.cpp Pages: 1 -->
<svg width="880pt" height="576pt"
 viewBox="0.00 0.00 879.50 576.00" xmlns="http://www.w3.org/2000/svg" xmlns:xlink="http://www.w3.org/1999/xlink">
<g id="graph0" class="graph" transform="scale(1 1) rotate(0) translate(4 572)">
<title>/home/yukiosir/workspace/CompilerProject/Software/pinhao/lib/FeaturesImpl/CFGBasicBlockStaticFeatures.cpp</title>
<polygon fill="white" stroke="none" points="-4,4 -4,-572 875.5,-572 875.5,4 -4,4"/>
<!-- Node0 -->
<g id="node1" class="node"><title>Node0</title>
<polygon fill="#bfbfbf" stroke="black" points="288.5,-515.5 288.5,-567.5 461.5,-567.5 461.5,-515.5 288.5,-515.5"/>
<text text-anchor="start" x="296.5" y="-555.5" font-family="Helvetica,sans-Serif" font-size="10.00">/home/yukiosir/workspace</text>
<text text-anchor="start" x="296.5" y="-544.5" font-family="Helvetica,sans-Serif" font-size="10.00">/CompilerProject/Software</text>
<text text-anchor="start" x="296.5" y="-533.5" font-family="Helvetica,sans-Serif" font-size="10.00">/pinhao/lib/FeaturesImpl</text>
<text text-anchor="middle" x="375" y="-522.5" font-family="Helvetica,sans-Serif" font-size="10.00">/CFGBasicBlockStaticFeatures.cpp</text>
</g>
<!-- Node1 -->
<g id="node2" class="node"><title>Node1</title>
<g id="a_node2"><a xlink:href="MapVectorFeature_8h.html" target="_top" xlink:title="pinhao/Features/MapVector\lFeature.h">
<polygon fill="white" stroke="black" points="243.5,-448.5 243.5,-478.5 380.5,-478.5 380.5,-448.5 243.5,-448.5"/>
<text text-anchor="start" x="251.5" y="-466.5" font-family="Helvetica,sans-Serif" font-size="10.00">pinhao/Features/MapVector</text>
<text text-anchor="middle" x="312" y="-455.5" font-family="Helvetica,sans-Serif" font-size="10.00">Feature.h</text>
</a>
</g>
</g>
<!-- Node0&#45;&gt;Node1 -->
<g id="edge1" class="edge"><title>Node0&#45;&gt;Node1</title>
<path fill="none" stroke="midnightblue" d="M354.022,-515.193C346.348,-505.936 337.734,-495.544 330.312,-486.59"/>
<polygon fill="midnightblue" stroke="midnightblue" points="332.968,-484.31 323.891,-478.845 327.579,-488.778 332.968,-484.31"/>
</g>
<!-- Node18 -->
<g id="node19" class="node"><title>Node18</title>
<g id="a_node19"><a xlink:href="YamlOptions_8h.html" target="_top" xlink:title="pinhao/Support/YamlOptions.h">
<polygon fill="white" stroke="black" points="28.5,-336.5 28.5,-355.5 177.5,-355.5 177.5,-336.5 28.5,-336.5"/>
<text text-anchor="middle" x="103" y="-343.5" font-family="Helvetica,sans-Serif" font-size="10.00">pinhao/Support/YamlOptions.h</text>
</a>
</g>
</g>
<!-- Node0&#45;&gt;Node18 -->
<g id="edge39" class="edge"><title>Node0&#45;&gt;Node18</title>
<path fill="none" stroke="midnightblue" d="M303.406,-515.43C280.274,-505.75 255.156,-493.482 234,-479 184.451,-445.084 137.757,-390.781 115.92,-363.613"/>
<polygon fill="midnightblue" stroke="midnightblue" points="118.452,-361.173 109.499,-355.508 112.966,-365.519 118.452,-361.173"/>
</g>
<!-- Node23 -->
<g id="node24" class="node"><title>Node23</title>
<polygon fill="white" stroke="#bfbfbf" points="399,-454 399,-473 479,-473 479,-454 399,-454"/>
<text text-anchor="middle" x="439" y="-461" font-family="Helvetica,sans-Serif" font-size="10.00">llvm/IR/CFG.h</text>
</g>
<!-- Node0&#45;&gt;Node23 -->
<g id="edge40" class="edge"><title>Node0&#45;&gt;Node23</title>
<path fill="none" stroke="midnightblue" d="M396.311,-515.193C405.761,-503.972 416.616,-491.082 425.014,-481.108"/>
<polygon fill="midnightblue" stroke="midnightblue" points="427.902,-483.113 431.666,-473.209 422.548,-478.604 427.902,-483.113"/>
</g>
<!-- Node24 -->
<g id="node25" class="node"><title>Node24</title>
<polygon fill="white" stroke="#bfbfbf" points="497,-454 497,-473 607,-473 607,-454 497,-454"/>
<text text-anchor="middle" x="552" y="-461" font-family="Helvetica,sans-Serif" font-size="10.00">llvm/IR/Instructions.h</text>
</g>
<!-- Node0&#45;&gt;Node24 -->
<g id="edge41" class="edge"><title>Node0&#45;&gt;Node24</title>
<path fill="none" stroke="midnightblue" d="M433.447,-515.404C463.361,-502.56 498.472,-487.484 522.68,-477.089"/>
<polygon fill="midnightblue" stroke="midnightblue" points="524.215,-480.239 532.022,-473.078 521.453,-473.807 524.215,-480.239"/>
</g>
<!-- Node2 -->
<g id="node3" class="node"><title>Node2</title>
<g id="a_node3"><a xlink:href="Features_8h.html" target="_top" xlink:title="This file implements some basic feature classes that extends the base class Feature. ">
<polygon fill="white" stroke="black" points="416,-224.5 416,-243.5 552,-243.5 552,-224.5 416,-224.5"/>
<text text-anchor="middle" x="484" y="-231.5" font-family="Helvetica,sans-Serif" font-size="10.00">pinhao/Features/Features.h</text>
</a>
</g>
</g>
<!-- Node1&#45;&gt;Node2 -->
<g id="edge2" class="edge"><title>Node1&#45;&gt;Node2</title>
<path fill="none" stroke="midnightblue" d="M363.139,-448.429C430.572,-428.722 543.462,-391.338 567,-356 592.816,-317.241 539.435,-272.134 506.803,-249.511"/>
<polygon fill="midnightblue" stroke="midnightblue" points="508.484,-246.423 498.232,-243.75 504.579,-252.233 508.484,-246.423"/>
</g>
<!-- Node15 -->
<g id="node16" class="node"><title>Node15</title>
<g id="a_node16"><a xlink:href="FeatureYAMLWrapper_8h.html" target="_top" xlink:title="pinhao/Support/FeatureYAMLWrapper.h">
<polygon fill="white" stroke="black" points="217,-392.5 217,-411.5 407,-411.5 407,-392.5 217,-392.5"/>
<text text-anchor="middle" x="312" y="-399.5" font-family="Helvetica,sans-Serif" font-size="10.00">pinhao/Support/FeatureYAMLWrapper.h</text>
</a>
</g>
</g>
<!-- Node1&#45;&gt;Node15 -->
<g id="edge20" class="edge"><title>Node1&#45;&gt;Node15</title>
<path fill="none" stroke="midnightblue" d="M306.16,-448.399C305.13,-440.377 304.974,-430.233 305.693,-421.569"/>
<polygon fill="midnightblue" stroke="midnightblue" points="309.16,-422.044 307.071,-411.658 302.227,-421.081 309.16,-422.044"/>
</g>
<!-- Node21 -->
<g id="node22" class="node"><title>Node21</title>
<g id="a_node22"><a xlink:href="Iterator_8h.html" target="_top" xlink:title="pinhao/Support/Iterator.h">
<polygon fill="white" stroke="black" points="614,-280.5 614,-299.5 738,-299.5 738,-280.5 614,-280.5"/>
<text text-anchor="middle" x="676" y="-287.5" font-family="Helvetica,sans-Serif" font-size="10.00">pinhao/Support/Iterator.h</text>
</a>
</g>
</g>
<!-- Node1&#45;&gt;Node21 -->
<g id="edge38" class="edge"><title>Node1&#45;&gt;Node21</title>
<path fill="none" stroke="midnightblue" d="M380.894,-449.639C383.971,-449.081 387.017,-448.533 390,-448 483.219,-431.346 521.308,-464.675 600,-412 637.49,-386.905 660.069,-336.402 670.002,-309.254"/>
<polygon fill="midnightblue" stroke="midnightblue" points="673.314,-310.386 673.295,-299.791 666.703,-308.085 673.314,-310.386"/>
</g>
<!-- Node3 -->
<g id="node4" class="node"><title>Node3</title>
<g id="a_node4"><a xlink:href="Feature_8h.html" target="_top" xlink:title="This file defines the base feature class. ">
<polygon fill="white" stroke="black" points="389.5,-168.5 389.5,-187.5 520.5,-187.5 520.5,-168.5 389.5,-168.5"/>
<text text-anchor="middle" x="455" y="-175.5" font-family="Helvetica,sans-Serif" font-size="10.00">pinhao/Features/Feature.h</text>
</a>
</g>
</g>
<!-- Node2&#45;&gt;Node3 -->
<g id="edge3" class="edge"><title>Node2&#45;&gt;Node3</title>
<path fill="none" stroke="midnightblue" d="M479.211,-224.083C475.242,-216.691 469.475,-205.953 464.565,-196.811"/>
<polygon fill="midnightblue" stroke="midnightblue" points="467.514,-194.905 459.7,-187.751 461.347,-198.217 467.514,-194.905"/>
</g>
<!-- Node4 -->
<g id="node5" class="node"><title>Node4</title>
<g id="a_node5"><a xlink:href="FeatureInfo_8h.html" target="_top" xlink:title="This file defines a class that holds some informations about a feature. ">
<polygon fill="white" stroke="black" points="250.5,-112.5 250.5,-131.5 397.5,-131.5 397.5,-112.5 250.5,-112.5"/>
<text text-anchor="middle" x="324" y="-119.5" font-family="Helvetica,sans-Serif" font-size="10.00">pinhao/Features/FeatureInfo.h</text>
</a>
</g>
</g>
<!-- Node3&#45;&gt;Node4 -->
<g id="edge4" class="edge"><title>Node3&#45;&gt;Node4</title>
<path fill="none" stroke="midnightblue" d="M434.243,-168.444C412.684,-159.557 378.737,-145.563 354.206,-135.451"/>
<polygon fill="midnightblue" stroke="midnightblue" points="355.239,-132.092 344.66,-131.516 352.572,-138.563 355.239,-132.092"/>
</g>
<!-- Node7 -->
<g id="node8" class="node"><title>Node7</title>
<polygon fill="white" stroke="#bfbfbf" points="605.5,-56.5 605.5,-75.5 640.5,-75.5 640.5,-56.5 605.5,-56.5"/>
<text text-anchor="middle" x="623" y="-63.5" font-family="Helvetica,sans-Serif" font-size="10.00">map</text>
</g>
<!-- Node3&#45;&gt;Node7 -->
<g id="edge17" class="edge"><title>Node3&#45;&gt;Node7</title>
<path fill="none" stroke="midnightblue" d="M520.639,-168.446C564.116,-161.278 615.533,-149.393 629,-132 639.173,-118.861 635.724,-99.4501 630.921,-85.2616"/>
<polygon fill="midnightblue" stroke="midnightblue" points="634.062,-83.6809 627.186,-75.6201 627.534,-86.2092 634.062,-83.6809"/>
</g>
<!-- Node9 -->
<g id="node10" class="node"><title>Node9</title>
<polygon fill="white" stroke="#bfbfbf" points="421.5,-56.5 421.5,-75.5 470.5,-75.5 470.5,-56.5 421.5,-56.5"/>
<text text-anchor="middle" x="446" y="-63.5" font-family="Helvetica,sans-Serif" font-size="10.00">cassert</text>
</g>
<!-- Node3&#45;&gt;Node9 -->
<g id="edge18" class="edge"><title>Node3&#45;&gt;Node9</title>
<path fill="none" stroke="midnightblue" d="M452.27,-168.486C449.549,-159.52 445.558,-144.935 444,-132 442.141,-116.568 442.86,-98.9358 443.922,-85.9326"/>
<polygon fill="midnightblue" stroke="midnightblue" points="447.416,-86.1573 444.887,-75.8689 440.448,-85.4891 447.416,-86.1573"/>
</g>
<!-- Node10 -->
<g id="node11" class="node"><title>Node10</title>
<g id="a_node11"><a xlink:href="FeatureRegistry_8h.html" target="_top" xlink:title="This file defines a class that has all the registered features. ">
<polygon fill="white" stroke="black" points="453.5,-112.5 453.5,-131.5 620.5,-131.5 620.5,-112.5 453.5,-112.5"/>
<text text-anchor="middle" x="537" y="-119.5" font-family="Helvetica,sans-Serif" font-size="10.00">pinhao/Features/FeatureRegistry.h</text>
</a>
</g>
</g>
<!-- Node3&#45;&gt;Node10 -->
<g id="edge11" class="edge"><title>Node3&#45;&gt;Node10</title>
<path fill="none" stroke="midnightblue" d="M468.175,-168.324C480.847,-159.979 500.233,-147.212 515.206,-137.352"/>
<polygon fill="midnightblue" stroke="midnightblue" points="517.431,-140.078 523.858,-131.655 513.581,-134.231 517.431,-140.078"/>
</g>
<!-- Node12 -->
<g id="node13" class="node"><title>Node12</title>
<polygon fill="white" stroke="#bfbfbf" points="676.5,-112.5 676.5,-131.5 767.5,-131.5 767.5,-112.5 676.5,-112.5"/>
<text text-anchor="middle" x="722" y="-119.5" font-family="Helvetica,sans-Serif" font-size="10.00">llvm/IR/Module.h</text>
</g>
<!-- Node3&#45;&gt;Node12 -->
<g id="edge15" class="edge"><title>Node3&#45;&gt;Node12</title>
<path fill="none" stroke="midnightblue" d="M497.307,-168.444C544.08,-158.984 619.46,-143.738 669.85,-133.547"/>
<polygon fill="midnightblue" stroke="midnightblue" points="670.783,-136.929 679.891,-131.516 669.396,-130.068 670.783,-136.929"/>
</g>
<!-- Node13 -->
<g id="node14" class="node"><title>Node13</title>
<polygon fill="white" stroke="#bfbfbf" points="70.5,-112.5 70.5,-131.5 159.5,-131.5 159.5,-112.5 70.5,-112.5"/>
<text text-anchor="middle" x="115" y="-119.5" font-family="Helvetica,sans-Serif" font-size="10.00">yaml&#45;cpp/yaml.h</text>
</g>
<!-- Node3&#45;&gt;Node13 -->
<g id="edge16" class="edge"><title>Node3&#45;&gt;Node13</title>
<path fill="none" stroke="midnightblue" d="M399.881,-168.48C344.408,-159.87 256.11,-146.073 169.757,-132.111"/>
<polygon fill="midnightblue" stroke="midnightblue" points="170.215,-128.639 159.784,-130.496 169.096,-135.549 170.215,-128.639"/>
</g>
<!-- Node14 -->
<g id="node15" class="node"><title>Node14</title>
<polygon fill="white" stroke="#bfbfbf" points="178,-112.5 178,-131.5 232,-131.5 232,-112.5 178,-112.5"/>
<text text-anchor="middle" x="205" y="-119.5" font-family="Helvetica,sans-Serif" font-size="10.00">iostream</text>
</g>
<!-- Node3&#45;&gt;Node14 -->
<g id="edge19" class="edge"><title>Node3&#45;&gt;Node14</title>
<path fill="none" stroke="midnightblue" d="M411.857,-168.425C370.676,-160.129 306.647,-146.943 242.05,-132.177"/>
<polygon fill="midnightblue" stroke="midnightblue" points="242.63,-128.72 232.1,-129.891 241.063,-135.542 242.63,-128.72"/>
</g>
<!-- Node5 -->
<g id="node6" class="node"><title>Node5</title>
<g id="a_node6"><a xlink:href="Types_8h.html" target="_top" xlink:title="pinhao/Support/Types.h">
<polygon fill="white" stroke="black" points="245,-56.5 245,-75.5 365,-75.5 365,-56.5 245,-56.5"/>
<text text-anchor="middle" x="305" y="-63.5" font-family="Helvetica,sans-Serif" font-size="10.00">pinhao/Support/Types.h</text>
</a>
</g>
</g>
<!-- Node4&#45;&gt;Node5 -->
<g id="edge5" class="edge"><title>Node4&#45;&gt;Node5</title>
<path fill="none" stroke="midnightblue" d="M320.863,-112.083C318.317,-104.849 314.644,-94.4087 311.473,-85.3968"/>
<polygon fill="midnightblue" stroke="midnightblue" points="314.7,-84.0225 308.079,-75.7511 308.097,-86.3459 314.7,-84.0225"/>
</g>
<!-- Node6 -->
<g id="node7" class="node"><title>Node6</title>
<polygon fill="white" stroke="#bfbfbf" points="328.5,-0.5 328.5,-19.5 369.5,-19.5 369.5,-0.5 328.5,-0.5"/>
<text text-anchor="middle" x="349" y="-7.5" font-family="Helvetica,sans-Serif" font-size="10.00">string</text>
</g>
<!-- Node4&#45;&gt;Node6 -->
<g id="edge9" class="edge"><title>Node4&#45;&gt;Node6</title>
<path fill="none" stroke="midnightblue" d="M338.952,-112.474C350.932,-104.702 366.873,-92.0025 374,-76 381.194,-59.847 372.009,-40.9359 362.811,-27.69"/>
<polygon fill="midnightblue" stroke="midnightblue" points="365.465,-25.3958 356.643,-19.5283 359.88,-29.6165 365.465,-25.3958"/>
</g>
<!-- Node4&#45;&gt;Node7 -->
<g id="edge7" class="edge"><title>Node4&#45;&gt;Node7</title>
<path fill="none" stroke="midnightblue" d="M371.377,-112.444C434.562,-101.032 544.364,-81.2019 595.423,-71.9804"/>
<polygon fill="midnightblue" stroke="midnightblue" points="596.171,-75.4022 605.389,-70.1805 594.926,-68.5136 596.171,-75.4022"/>
</g>
<!-- Node8 -->
<g id="node9" class="node"><title>Node8</title>
<polygon fill="white" stroke="#bfbfbf" points="183,-56.5 183,-75.5 227,-75.5 227,-56.5 183,-56.5"/>
<text text-anchor="middle" x="205" y="-63.5" font-family="Helvetica,sans-Serif" font-size="10.00">vector</text>
</g>
<!-- Node4&#45;&gt;Node8 -->
<g id="edge8" class="edge"><title>Node4&#45;&gt;Node8</title>
<path fill="none" stroke="midnightblue" d="M305.144,-112.444C285.734,-103.636 255.27,-89.8116 233.035,-79.722"/>
<polygon fill="midnightblue" stroke="midnightblue" points="234.32,-76.4615 223.768,-75.5164 231.428,-82.836 234.32,-76.4615"/>
</g>
<!-- Node4&#45;&gt;Node9 -->
<g id="edge10" class="edge"><title>Node4&#45;&gt;Node9</title>
<path fill="none" stroke="midnightblue" d="M343.331,-112.444C363.32,-103.596 394.743,-89.6875 417.564,-79.5865"/>
<polygon fill="midnightblue" stroke="midnightblue" points="419.032,-82.7645 426.759,-75.5164 416.198,-76.3635 419.032,-82.7645"/>
</g>
<!-- Node5&#45;&gt;Node6 -->
<g id="edge6" class="edge"><title>Node5&#45;&gt;Node6</title>
<path fill="none" stroke="midnightblue" d="M312.266,-56.083C318.545,-48.3768 327.788,-37.0333 335.431,-27.6531"/>
<polygon fill="midnightblue" stroke="midnightblue" points="338.266,-29.7143 341.869,-19.7511 332.839,-25.2926 338.266,-29.7143"/>
</g>
<!-- Node10&#45;&gt;Node7 -->
<g id="edge14" class="edge"><title>Node10&#45;&gt;Node7</title>
<path fill="none" stroke="midnightblue" d="M550.817,-112.324C564.233,-103.9 584.824,-90.9709 600.586,-81.0741"/>
<polygon fill="midnightblue" stroke="midnightblue" points="602.609,-83.9364 609.217,-75.6545 598.887,-78.0081 602.609,-83.9364"/>
</g>
<!-- Node10&#45;&gt;Node9 -->
<g id="edge13" class="edge"><title>Node10&#45;&gt;Node9</title>
<path fill="none" stroke="midnightblue" d="M522.379,-112.324C508.051,-103.822 485.987,-90.7288 469.251,-80.7975"/>
<polygon fill="midnightblue" stroke="midnightblue" points="470.97,-77.7478 460.584,-75.6545 467.398,-83.7677 470.97,-77.7478"/>
</g>
<!-- Node11 -->
<g id="node12" class="node"><title>Node11</title>
<polygon fill="white" stroke="#bfbfbf" points="511,-56.5 511,-75.5 563,-75.5 563,-56.5 511,-56.5"/>
<text text-anchor="middle" x="537" y="-63.5" font-family="Helvetica,sans-Serif" font-size="10.00">memory</text>
</g>
<!-- Node10&#45;&gt;Node11 -->
<g id="edge12" class="edge"><title>Node10&#45;&gt;Node11</title>
<path fill="none" stroke="midnightblue" d="M537,-112.083C537,-105.006 537,-94.8611 537,-85.9865"/>
<polygon fill="midnightblue" stroke="midnightblue" points="540.5,-85.751 537,-75.7511 533.5,-85.7511 540.5,-85.751"/>
</g>
<!-- Node15&#45;&gt;Node1 -->
<g id="edge37" class="edge"><title>Node15&#45;&gt;Node1</title>
<path fill="none" stroke="midnightblue" d="M316.929,-411.658C318.435,-418.655 319.007,-428.857 318.645,-438.289"/>
<polygon fill="midnightblue" stroke="midnightblue" points="315.145,-438.153 317.84,-448.399 322.123,-438.709 315.145,-438.153"/>
</g>
<!-- Node16 -->
<g id="node17" class="node"><title>Node16</title>
<g id="a_node17"><a xlink:href="YAMLWrapper_8h.html" target="_top" xlink:title="pinhao/Support/YAMLWrapper.h">
<polygon fill="white" stroke="black" points="126.5,-168.5 126.5,-187.5 283.5,-187.5 283.5,-168.5 126.5,-168.5"/>
<text text-anchor="middle" x="205" y="-175.5" font-family="Helvetica,sans-Serif" font-size="10.00">pinhao/Support/YAMLWrapper.h</text>
</a>
</g>
</g>
<!-- Node15&#45;&gt;Node16 -->
<g id="edge21" class="edge"><title>Node15&#45;&gt;Node16</title>
<path fill="none" stroke="midnightblue" d="M277.36,-392.355C258.149,-385.691 235.648,-374.409 223,-356 189.527,-307.282 196.04,-232.493 201.462,-197.834"/>
<polygon fill="midnightblue" stroke="midnightblue" points="204.957,-198.162 203.199,-187.714 198.058,-196.978 204.957,-198.162"/>
</g>
<!-- Node15&#45;&gt;Node18 -->
<g id="edge25" class="edge"><title>Node15&#45;&gt;Node18</title>
<path fill="none" stroke="midnightblue" d="M278.883,-392.444C242.882,-383.142 185.23,-368.246 145.814,-358.062"/>
<polygon fill="midnightblue" stroke="midnightblue" points="146.519,-354.629 135.962,-355.516 144.768,-361.407 146.519,-354.629"/>
</g>
<!-- Node19 -->
<g id="node20" class="node"><title>Node19</title>
<g id="a_node20"><a xlink:href="VectorFeature_8h.html" target="_top" xlink:title="pinhao/Features/VectorFeature.h">
<polygon fill="white" stroke="black" points="232.5,-336.5 232.5,-355.5 391.5,-355.5 391.5,-336.5 232.5,-336.5"/>
<text text-anchor="middle" x="312" y="-343.5" font-family="Helvetica,sans-Serif" font-size="10.00">pinhao/Features/VectorFeature.h</text>
</a>
</g>
</g>
<!-- Node15&#45;&gt;Node19 -->
<g id="edge27" class="edge"><title>Node15&#45;&gt;Node19</title>
<path fill="none" stroke="midnightblue" d="M306.834,-392.083C305.324,-384.927 304.894,-374.635 305.542,-365.691"/>
<polygon fill="midnightblue" stroke="midnightblue" points="309.015,-366.126 306.869,-355.751 302.077,-365.2 309.015,-366.126"/>
</g>
<!-- Node20 -->
<g id="node21" class="node"><title>Node20</title>
<g id="a_node21"><a xlink:href="MapFeature_8h.html" target="_top" xlink:title="pinhao/Features/MapFeature.h">
<polygon fill="white" stroke="black" points="409.5,-336.5 409.5,-355.5 558.5,-355.5 558.5,-336.5 409.5,-336.5"/>
<text text-anchor="middle" x="484" y="-343.5" font-family="Helvetica,sans-Serif" font-size="10.00">pinhao/Features/MapFeature.h</text>
</a>
</g>
</g>
<!-- Node15&#45;&gt;Node20 -->
<g id="edge30" class="edge"><title>Node15&#45;&gt;Node20</title>
<path fill="none" stroke="midnightblue" d="M334.165,-392.444C361.46,-383.241 408.036,-368.562 442.102,-358.388"/>
<polygon fill="midnightblue" stroke="midnightblue" points="443.2,-361.713 451.794,-355.516 441.211,-355.001 443.2,-361.713"/>
</g>
<!-- Node16&#45;&gt;Node13 -->
<g id="edge22" class="edge"><title>Node16&#45;&gt;Node13</title>
<path fill="none" stroke="midnightblue" d="M190.54,-168.324C176.5,-159.9 154.952,-146.971 138.457,-137.074"/>
<polygon fill="midnightblue" stroke="midnightblue" points="139.8,-133.798 129.424,-131.655 136.198,-139.801 139.8,-133.798"/>
</g>
<!-- Node16&#45;&gt;Node14 -->
<g id="edge23" class="edge"><title>Node16&#45;&gt;Node14</title>
<path fill="none" stroke="midnightblue" d="M205,-168.083C205,-161.006 205,-150.861 205,-141.986"/>
<polygon fill="midnightblue" stroke="midnightblue" points="208.5,-141.751 205,-131.751 201.5,-141.751 208.5,-141.751"/>
</g>
<!-- Node17 -->
<g id="node18" class="node"><title>Node17</title>
<polygon fill="white" stroke="#bfbfbf" points="0,-112.5 0,-131.5 52,-131.5 52,-112.5 0,-112.5"/>
<text text-anchor="middle" x="26" y="-119.5" font-family="Helvetica,sans-Serif" font-size="10.00">ostream</text>
</g>
<!-- Node16&#45;&gt;Node17 -->
<g id="edge24" class="edge"><title>Node16&#45;&gt;Node17</title>
<path fill="none" stroke="midnightblue" d="M176.637,-168.444C145.636,-159.091 95.8909,-144.084 62.121,-133.897"/>
<polygon fill="midnightblue" stroke="midnightblue" points="62.7768,-130.439 52.1921,-130.902 60.755,-137.141 62.7768,-130.439"/>
</g>
<!-- Node18&#45;&gt;Node13 -->
<g id="edge26" class="edge"><title>Node18&#45;&gt;Node13</title>
<path fill="none" stroke="midnightblue" d="M103.47,-336.297C105.236,-303.633 111.494,-187.866 113.975,-141.957"/>
<polygon fill="midnightblue" stroke="midnightblue" points="117.475,-142.058 114.52,-131.884 110.485,-141.68 117.475,-142.058"/>
</g>
<!-- Node19&#45;&gt;Node2 -->
<g id="edge28" class="edge"><title>Node19&#45;&gt;Node2</title>
<path fill="none" stroke="midnightblue" d="M325.497,-336.368C355.012,-317.492 425.544,-272.385 461.739,-249.237"/>
<polygon fill="midnightblue" stroke="midnightblue" points="464.027,-251.928 470.566,-243.591 460.256,-246.031 464.027,-251.928"/>
</g>
<!-- Node19&#45;&gt;Node15 -->
<g id="edge29" class="edge"><title>Node19&#45;&gt;Node15</title>
<path fill="none" stroke="midnightblue" d="M317.131,-355.751C318.657,-362.858 319.104,-373.136 318.472,-382.101"/>
<polygon fill="midnightblue" stroke="midnightblue" points="314.993,-381.713 317.166,-392.083 321.934,-382.622 314.993,-381.713"/>
</g>
<!-- Node20&#45;&gt;Node2 -->
<g id="edge31" class="edge"><title>Node20&#45;&gt;Node2</title>
<path fill="none" stroke="midnightblue" d="M484,-336.368C484,-318.617 484,-277.666 484,-253.597"/>
<polygon fill="midnightblue" stroke="midnightblue" points="487.5,-253.591 484,-243.591 480.5,-253.591 487.5,-253.591"/>
</g>
<!-- Node20&#45;&gt;Node15 -->
<g id="edge32" class="edge"><title>Node20&#45;&gt;Node15</title>
<path fill="none" stroke="midnightblue" d="M461.954,-355.516C434.715,-364.703 388.149,-379.381 354.047,-389.568"/>
<polygon fill="midnightblue" stroke="midnightblue" points="352.936,-386.246 344.343,-392.444 354.925,-392.958 352.936,-386.246"/>
</g>
<!-- Node20&#45;&gt;Node21 -->
<g id="edge33" class="edge"><title>Node20&#45;&gt;Node21</title>
<path fill="none" stroke="midnightblue" d="M514.423,-336.444C547.285,-327.201 599.785,-312.436 635.974,-302.257"/>
<polygon fill="midnightblue" stroke="midnightblue" points="637.04,-305.593 645.719,-299.516 635.145,-298.855 637.04,-305.593"/>
</g>
<!-- Node21&#45;&gt;Node2 -->
<g id="edge34" class="edge"><title>Node21&#45;&gt;Node2</title>
<path fill="none" stroke="midnightblue" d="M645.577,-280.444C612.715,-271.201 560.215,-256.436 524.026,-246.257"/>
<polygon fill="midnightblue" stroke="midnightblue" points="524.855,-242.855 514.281,-243.516 522.96,-249.593 524.855,-242.855"/>
</g>
<!-- Node21&#45;&gt;Node7 -->
<g id="edge36" class="edge"><title>Node21&#45;&gt;Node7</title>
<path fill="none" stroke="midnightblue" d="M687.82,-280.42C722.83,-253.979 820.827,-171.91 776,-112 760.963,-91.9041 690.488,-77.7025 650.639,-71.1254"/>
<polygon fill="midnightblue" stroke="midnightblue" points="651.178,-67.6673 640.751,-69.5461 650.074,-74.5796 651.178,-67.6673"/>
</g>
<!-- Node22 -->
<g id="node23" class="node"><title>Node22</title>
<polygon fill="white" stroke="#bfbfbf" points="824.5,-224.5 824.5,-243.5 871.5,-243.5 871.5,-224.5 824.5,-224.5"/>
<text text-anchor="middle" x="848" y="-231.5" font-family="Helvetica,sans-Serif" font-size="10.00">iterator</text>
</g>
<!-- Node21&#45;&gt;Node22 -->
<g id="edge35" class="edge"><title>Node21&#45;&gt;Node22</title>
<path fill="none" stroke="midnightblue" d="M703.254,-280.444C733.427,-270.971 782.079,-255.696 814.54,-245.505"/>
<polygon fill="midnightblue" stroke="midnightblue" points="815.974,-248.723 824.467,-242.388 813.877,-242.045 815.974,-248.723"/>
</g>
</g>
</svg>
