<?xml version="1.0" encoding="UTF-8" standalone="no"?>
<!DOCTYPE svg PUBLIC "-//W3C//DTD SVG 1.1//EN"
 "http://www.w3.org/Graphics/SVG/1.1/DTD/svg11.dtd">
<!-- Generated by graphviz version 2.38.0 (20140413.2041)
 -->
<!-- Title: /home/yukiosir/workspace/CompilerProject/Software/pinhao/lib/FeaturesImpl/CFGBasicBlockStaticFeatures.cpp Pages: 1 -->
<svg width="930pt" height="576pt"
 viewBox="0.00 0.00 930.00 576.00" xmlns="http://www.w3.org/2000/svg" xmlns:xlink="http://www.w3.org/1999/xlink">
<g id="graph0" class="graph" transform="scale(1 1) rotate(0) translate(4 572)">
<title>/home/yukiosir/workspace/CompilerProject/Software/pinhao/lib/FeaturesImpl/CFGBasicBlockStaticFeatures.cpp</title>
<polygon fill="white" stroke="none" points="-4,4 -4,-572 926,-572 926,4 -4,4"/>
<!-- Node0 -->
<g id="node1" class="node"><title>Node0</title>
<polygon fill="#bfbfbf" stroke="black" points="327,-515.5 327,-567.5 500,-567.5 500,-515.5 327,-515.5"/>
<text text-anchor="start" x="335" y="-555.5" font-family="Helvetica,sans-Serif" font-size="10.00">/home/yukiosir/workspace</text>
<text text-anchor="start" x="335" y="-544.5" font-family="Helvetica,sans-Serif" font-size="10.00">/CompilerProject/Software</text>
<text text-anchor="start" x="335" y="-533.5" font-family="Helvetica,sans-Serif" font-size="10.00">/pinhao/lib/FeaturesImpl</text>
<text text-anchor="middle" x="413.5" y="-522.5" font-family="Helvetica,sans-Serif" font-size="10.00">/CFGBasicBlockStaticFeatures.cpp</text>
</g>
<!-- Node1 -->
<g id="node2" class="node"><title>Node1</title>
<g id="a_node2"><a xlink:href="MapVectorFeature_8h.html" target="_top" xlink:title="pinhao/Features/MapVector\lFeature.h">
<polygon fill="white" stroke="black" points="248,-448.5 248,-478.5 385,-478.5 385,-448.5 248,-448.5"/>
<text text-anchor="start" x="256" y="-466.5" font-family="Helvetica,sans-Serif" font-size="10.00">pinhao/Features/MapVector</text>
<text text-anchor="middle" x="316.5" y="-455.5" font-family="Helvetica,sans-Serif" font-size="10.00">Feature.h</text>
</a>
</g>
</g>
<!-- Node0&#45;&gt;Node1 -->
<g id="edge1" class="edge"><title>Node0&#45;&gt;Node1</title>
<path fill="none" stroke="midnightblue" d="M381.47,-515.404C368.947,-505.593 354.763,-494.479 342.849,-485.145"/>
<polygon fill="midnightblue" stroke="midnightblue" points="344.662,-482.119 334.632,-478.707 340.345,-487.629 344.662,-482.119"/>
</g>
<!-- Node18 -->
<g id="node19" class="node"><title>Node18</title>
<g id="a_node19"><a xlink:href="YamlOptions_8h.html" target="_top" xlink:title="pinhao/Support/YamlOptions.h">
<polygon fill="white" stroke="black" points="0,-336.5 0,-355.5 149,-355.5 149,-336.5 0,-336.5"/>
<text text-anchor="middle" x="74.5" y="-343.5" font-family="Helvetica,sans-Serif" font-size="10.00">pinhao/Support/YamlOptions.h</text>
</a>
</g>
</g>
<!-- Node0&#45;&gt;Node18 -->
<g id="edge39" class="edge"><title>Node0&#45;&gt;Node18</title>
<path fill="none" stroke="midnightblue" d="M326.869,-516.526C297.858,-506.827 265.936,-494.268 238.5,-479 178.33,-445.515 117.899,-389.823 90.1797,-362.746"/>
<polygon fill="midnightblue" stroke="midnightblue" points="92.5329,-360.151 82.959,-355.613 87.6134,-365.131 92.5329,-360.151"/>
</g>
<!-- Node23 -->
<g id="node24" class="node"><title>Node23</title>
<g id="a_node24"><a xlink:href="InitializationRoutines_8h.html" target="_top" xlink:title="pinhao/InitializationRoutines.h">
<polygon fill="white" stroke="black" points="659,-392.5 659,-411.5 806,-411.5 806,-392.5 659,-392.5"/>
<text text-anchor="middle" x="732.5" y="-399.5" font-family="Helvetica,sans-Serif" font-size="10.00">pinhao/InitializationRoutines.h</text>
</a>
</g>
</g>
<!-- Node0&#45;&gt;Node23 -->
<g id="edge40" class="edge"><title>Node0&#45;&gt;Node23</title>
<path fill="none" stroke="midnightblue" d="M411.399,-515.176C411.15,-494.151 414.532,-465.028 432.5,-448 448.089,-433.227 565.613,-419.01 648.84,-410.638"/>
<polygon fill="midnightblue" stroke="midnightblue" points="649.206,-414.119 658.81,-409.647 648.513,-407.154 649.206,-414.119"/>
</g>
<!-- Node24 -->
<g id="node25" class="node"><title>Node24</title>
<polygon fill="white" stroke="#bfbfbf" points="441.5,-454 441.5,-473 521.5,-473 521.5,-454 441.5,-454"/>
<text text-anchor="middle" x="481.5" y="-461" font-family="Helvetica,sans-Serif" font-size="10.00">llvm/IR/CFG.h</text>
</g>
<!-- Node0&#45;&gt;Node24 -->
<g id="edge42" class="edge"><title>Node0&#45;&gt;Node24</title>
<path fill="none" stroke="midnightblue" d="M436.143,-515.193C446.285,-503.858 457.95,-490.821 466.91,-480.806"/>
<polygon fill="midnightblue" stroke="midnightblue" points="469.648,-482.995 473.708,-473.209 464.431,-478.328 469.648,-482.995"/>
</g>
<!-- Node25 -->
<g id="node26" class="node"><title>Node25</title>
<polygon fill="white" stroke="#bfbfbf" points="539.5,-454 539.5,-473 649.5,-473 649.5,-454 539.5,-454"/>
<text text-anchor="middle" x="594.5" y="-461" font-family="Helvetica,sans-Serif" font-size="10.00">llvm/IR/Instructions.h</text>
</g>
<!-- Node0&#45;&gt;Node25 -->
<g id="edge43" class="edge"><title>Node0&#45;&gt;Node25</title>
<path fill="none" stroke="midnightblue" d="M473.268,-515.404C503.993,-502.503 540.082,-487.35 564.847,-476.951"/>
<polygon fill="midnightblue" stroke="midnightblue" points="566.206,-480.176 574.071,-473.078 563.496,-473.722 566.206,-480.176"/>
</g>
<!-- Node2 -->
<g id="node3" class="node"><title>Node2</title>
<g id="a_node3"><a xlink:href="Features_8h.html" target="_top" xlink:title="This file implements some basic feature classes that extends the base class Feature. ">
<polygon fill="white" stroke="black" points="420.5,-224.5 420.5,-243.5 556.5,-243.5 556.5,-224.5 420.5,-224.5"/>
<text text-anchor="middle" x="488.5" y="-231.5" font-family="Helvetica,sans-Serif" font-size="10.00">pinhao/Features/Features.h</text>
</a>
</g>
</g>
<!-- Node1&#45;&gt;Node2 -->
<g id="edge2" class="edge"><title>Node1&#45;&gt;Node2</title>
<path fill="none" stroke="midnightblue" d="M368.918,-448.492C437.688,-428.931 552.48,-391.796 576.5,-356 603.072,-316.401 546.271,-271.367 512.014,-249.06"/>
<polygon fill="midnightblue" stroke="midnightblue" points="513.769,-246.029 503.446,-243.644 510.029,-251.946 513.769,-246.029"/>
</g>
<!-- Node15 -->
<g id="node16" class="node"><title>Node15</title>
<g id="a_node16"><a xlink:href="FeatureYAMLWrapper_8h.html" target="_top" xlink:title="pinhao/Support/FeatureYAMLWrapper.h">
<polygon fill="white" stroke="black" points="221.5,-392.5 221.5,-411.5 411.5,-411.5 411.5,-392.5 221.5,-392.5"/>
<text text-anchor="middle" x="316.5" y="-399.5" font-family="Helvetica,sans-Serif" font-size="10.00">pinhao/Support/FeatureYAMLWrapper.h</text>
</a>
</g>
</g>
<!-- Node1&#45;&gt;Node15 -->
<g id="edge20" class="edge"><title>Node1&#45;&gt;Node15</title>
<path fill="none" stroke="midnightblue" d="M310.66,-448.399C309.63,-440.377 309.474,-430.233 310.193,-421.569"/>
<polygon fill="midnightblue" stroke="midnightblue" points="313.66,-422.044 311.571,-411.658 306.727,-421.081 313.66,-422.044"/>
</g>
<!-- Node21 -->
<g id="node22" class="node"><title>Node21</title>
<g id="a_node22"><a xlink:href="Iterator_8h.html" target="_top" xlink:title="pinhao/Support/Iterator.h">
<polygon fill="white" stroke="black" points="254.5,-280.5 254.5,-299.5 378.5,-299.5 378.5,-280.5 254.5,-280.5"/>
<text text-anchor="middle" x="316.5" y="-287.5" font-family="Helvetica,sans-Serif" font-size="10.00">pinhao/Support/Iterator.h</text>
</a>
</g>
</g>
<!-- Node1&#45;&gt;Node21 -->
<g id="edge38" class="edge"><title>Node1&#45;&gt;Node21</title>
<path fill="none" stroke="midnightblue" d="M260.395,-448.389C241.898,-440.781 223.311,-429.268 212.5,-412 199.177,-390.721 222.545,-347.558 232.5,-336 245.135,-321.329 263.773,-310.668 280.285,-303.416"/>
<polygon fill="midnightblue" stroke="midnightblue" points="281.788,-306.582 289.699,-299.535 279.12,-300.11 281.788,-306.582"/>
</g>
<!-- Node3 -->
<g id="node4" class="node"><title>Node3</title>
<g id="a_node4"><a xlink:href="Feature_8h.html" target="_top" xlink:title="This file defines the base feature class. ">
<polygon fill="white" stroke="black" points="436,-168.5 436,-187.5 567,-187.5 567,-168.5 436,-168.5"/>
<text text-anchor="middle" x="501.5" y="-175.5" font-family="Helvetica,sans-Serif" font-size="10.00">pinhao/Features/Feature.h</text>
</a>
</g>
</g>
<!-- Node2&#45;&gt;Node3 -->
<g id="edge3" class="edge"><title>Node2&#45;&gt;Node3</title>
<path fill="none" stroke="midnightblue" d="M490.647,-224.083C492.369,-216.927 494.847,-206.635 497,-197.691"/>
<polygon fill="midnightblue" stroke="midnightblue" points="500.455,-198.293 499.393,-187.751 493.65,-196.654 500.455,-198.293"/>
</g>
<!-- Node4 -->
<g id="node5" class="node"><title>Node4</title>
<g id="a_node5"><a xlink:href="FeatureInfo_8h.html" target="_top" xlink:title="This file defines a class that holds some informations about a feature. ">
<polygon fill="white" stroke="black" points="666,-112.5 666,-131.5 813,-131.5 813,-112.5 666,-112.5"/>
<text text-anchor="middle" x="739.5" y="-119.5" font-family="Helvetica,sans-Serif" font-size="10.00">pinhao/Features/FeatureInfo.h</text>
</a>
</g>
</g>
<!-- Node3&#45;&gt;Node4 -->
<g id="edge4" class="edge"><title>Node3&#45;&gt;Node4</title>
<path fill="none" stroke="midnightblue" d="M539.212,-168.444C580.643,-159.043 647.257,-143.929 692.167,-133.739"/>
<polygon fill="midnightblue" stroke="midnightblue" points="692.987,-137.142 701.965,-131.516 691.438,-130.316 692.987,-137.142"/>
</g>
<!-- Node7 -->
<g id="node8" class="node"><title>Node7</title>
<polygon fill="white" stroke="#bfbfbf" points="422,-56.5 422,-75.5 457,-75.5 457,-56.5 422,-56.5"/>
<text text-anchor="middle" x="439.5" y="-63.5" font-family="Helvetica,sans-Serif" font-size="10.00">map</text>
</g>
<!-- Node3&#45;&gt;Node7 -->
<g id="edge17" class="edge"><title>Node3&#45;&gt;Node7</title>
<path fill="none" stroke="midnightblue" d="M478.046,-168.408C462.339,-161.28 442.881,-149.458 433.5,-132 425.796,-117.664 428.624,-98.9573 432.591,-85.295"/>
<polygon fill="midnightblue" stroke="midnightblue" points="435.982,-86.1933 435.838,-75.5994 429.344,-83.9703 435.982,-86.1933"/>
</g>
<!-- Node9 -->
<g id="node10" class="node"><title>Node9</title>
<polygon fill="white" stroke="#bfbfbf" points="593,-56.5 593,-75.5 642,-75.5 642,-56.5 593,-56.5"/>
<text text-anchor="middle" x="617.5" y="-63.5" font-family="Helvetica,sans-Serif" font-size="10.00">cassert</text>
</g>
<!-- Node3&#45;&gt;Node9 -->
<g id="edge18" class="edge"><title>Node3&#45;&gt;Node9</title>
<path fill="none" stroke="midnightblue" d="M561.176,-168.432C582.925,-162.103 605.378,-151.106 618.5,-132 627.676,-118.64 626.242,-99.814 623.215,-85.8591"/>
<polygon fill="midnightblue" stroke="midnightblue" points="626.53,-84.7011 620.617,-75.9094 619.757,-86.4692 626.53,-84.7011"/>
</g>
<!-- Node10 -->
<g id="node11" class="node"><title>Node10</title>
<g id="a_node11"><a xlink:href="FeatureRegistry_8h.html" target="_top" xlink:title="This file defines a class that has all the registered features. ">
<polygon fill="white" stroke="black" points="443,-112.5 443,-131.5 610,-131.5 610,-112.5 443,-112.5"/>
<text text-anchor="middle" x="526.5" y="-119.5" font-family="Helvetica,sans-Serif" font-size="10.00">pinhao/Features/FeatureRegistry.h</text>
</a>
</g>
</g>
<!-- Node3&#45;&gt;Node10 -->
<g id="edge11" class="edge"><title>Node3&#45;&gt;Node10</title>
<path fill="none" stroke="midnightblue" d="M505.628,-168.083C509.014,-160.77 513.916,-150.181 518.119,-141.103"/>
<polygon fill="midnightblue" stroke="midnightblue" points="521.423,-142.296 522.449,-131.751 515.071,-139.355 521.423,-142.296"/>
</g>
<!-- Node12 -->
<g id="node13" class="node"><title>Node12</title>
<polygon fill="white" stroke="#bfbfbf" points="831,-112.5 831,-131.5 922,-131.5 922,-112.5 831,-112.5"/>
<text text-anchor="middle" x="876.5" y="-119.5" font-family="Helvetica,sans-Serif" font-size="10.00">llvm/IR/Module.h</text>
</g>
<!-- Node3&#45;&gt;Node12 -->
<g id="edge15" class="edge"><title>Node3&#45;&gt;Node12</title>
<path fill="none" stroke="midnightblue" d="M565.825,-168.48C628.467,-160.071 726.648,-146.591 820.862,-132.223"/>
<polygon fill="midnightblue" stroke="midnightblue" points="821.493,-135.667 830.848,-130.694 820.434,-128.747 821.493,-135.667"/>
</g>
<!-- Node13 -->
<g id="node14" class="node"><title>Node13</title>
<polygon fill="white" stroke="#bfbfbf" points="98,-112.5 98,-131.5 187,-131.5 187,-112.5 98,-112.5"/>
<text text-anchor="middle" x="142.5" y="-119.5" font-family="Helvetica,sans-Serif" font-size="10.00">yaml&#45;cpp/yaml.h</text>
</g>
<!-- Node3&#45;&gt;Node13 -->
<g id="edge16" class="edge"><title>Node3&#45;&gt;Node13</title>
<path fill="none" stroke="midnightblue" d="M441.551,-168.492C382.175,-159.989 288.379,-146.353 197.23,-132.091"/>
<polygon fill="midnightblue" stroke="midnightblue" points="197.7,-128.622 187.279,-130.529 196.615,-135.537 197.7,-128.622"/>
</g>
<!-- Node14 -->
<g id="node15" class="node"><title>Node14</title>
<polygon fill="white" stroke="#bfbfbf" points="333.5,-112.5 333.5,-131.5 387.5,-131.5 387.5,-112.5 333.5,-112.5"/>
<text text-anchor="middle" x="360.5" y="-119.5" font-family="Helvetica,sans-Serif" font-size="10.00">iostream</text>
</g>
<!-- Node3&#45;&gt;Node14 -->
<g id="edge19" class="edge"><title>Node3&#45;&gt;Node14</title>
<path fill="none" stroke="midnightblue" d="M479.158,-168.444C455.747,-159.478 418.764,-145.314 392.31,-135.183"/>
<polygon fill="midnightblue" stroke="midnightblue" points="393.328,-131.824 382.737,-131.516 390.824,-138.361 393.328,-131.824"/>
</g>
<!-- Node5 -->
<g id="node6" class="node"><title>Node5</title>
<g id="a_node6"><a xlink:href="Types_8h.html" target="_top" xlink:title="pinhao/Support/Types.h">
<polygon fill="white" stroke="black" points="698.5,-56.5 698.5,-75.5 818.5,-75.5 818.5,-56.5 698.5,-56.5"/>
<text text-anchor="middle" x="758.5" y="-63.5" font-family="Helvetica,sans-Serif" font-size="10.00">pinhao/Support/Types.h</text>
</a>
</g>
</g>
<!-- Node4&#45;&gt;Node5 -->
<g id="edge5" class="edge"><title>Node4&#45;&gt;Node5</title>
<path fill="none" stroke="midnightblue" d="M742.637,-112.083C745.183,-104.849 748.856,-94.4087 752.027,-85.3968"/>
<polygon fill="midnightblue" stroke="midnightblue" points="755.403,-86.3459 755.421,-75.7511 748.8,-84.0225 755.403,-86.3459"/>
</g>
<!-- Node6 -->
<g id="node7" class="node"><title>Node6</title>
<polygon fill="white" stroke="#bfbfbf" points="694,-0.5 694,-19.5 735,-19.5 735,-0.5 694,-0.5"/>
<text text-anchor="middle" x="714.5" y="-7.5" font-family="Helvetica,sans-Serif" font-size="10.00">string</text>
</g>
<!-- Node4&#45;&gt;Node6 -->
<g id="edge9" class="edge"><title>Node4&#45;&gt;Node6</title>
<path fill="none" stroke="midnightblue" d="M724.548,-112.474C712.568,-104.702 696.627,-92.0025 689.5,-76 682.306,-59.847 691.491,-40.9359 700.689,-27.69"/>
<polygon fill="midnightblue" stroke="midnightblue" points="703.62,-29.6165 706.857,-19.5283 698.035,-25.3958 703.62,-29.6165"/>
</g>
<!-- Node4&#45;&gt;Node7 -->
<g id="edge7" class="edge"><title>Node4&#45;&gt;Node7</title>
<path fill="none" stroke="midnightblue" d="M691.964,-112.444C628.569,-101.032 518.399,-81.2019 467.169,-71.9804"/>
<polygon fill="midnightblue" stroke="midnightblue" points="467.632,-68.5075 457.17,-70.1805 466.391,-75.3968 467.632,-68.5075"/>
</g>
<!-- Node8 -->
<g id="node9" class="node"><title>Node8</title>
<polygon fill="white" stroke="#bfbfbf" points="836.5,-56.5 836.5,-75.5 880.5,-75.5 880.5,-56.5 836.5,-56.5"/>
<text text-anchor="middle" x="858.5" y="-63.5" font-family="Helvetica,sans-Serif" font-size="10.00">vector</text>
</g>
<!-- Node4&#45;&gt;Node8 -->
<g id="edge8" class="edge"><title>Node4&#45;&gt;Node8</title>
<path fill="none" stroke="midnightblue" d="M758.356,-112.444C777.766,-103.636 808.23,-89.8116 830.465,-79.722"/>
<polygon fill="midnightblue" stroke="midnightblue" points="832.072,-82.836 839.732,-75.5164 829.18,-76.4615 832.072,-82.836"/>
</g>
<!-- Node4&#45;&gt;Node9 -->
<g id="edge10" class="edge"><title>Node4&#45;&gt;Node9</title>
<path fill="none" stroke="midnightblue" d="M720.169,-112.444C700.18,-103.596 668.757,-89.6875 645.936,-79.5865"/>
<polygon fill="midnightblue" stroke="midnightblue" points="647.302,-76.3635 636.741,-75.5164 644.468,-82.7645 647.302,-76.3635"/>
</g>
<!-- Node5&#45;&gt;Node6 -->
<g id="edge6" class="edge"><title>Node5&#45;&gt;Node6</title>
<path fill="none" stroke="midnightblue" d="M751.234,-56.083C744.955,-48.3768 735.712,-37.0333 728.069,-27.6531"/>
<polygon fill="midnightblue" stroke="midnightblue" points="730.661,-25.2926 721.631,-19.7511 725.234,-29.7143 730.661,-25.2926"/>
</g>
<!-- Node10&#45;&gt;Node7 -->
<g id="edge14" class="edge"><title>Node10&#45;&gt;Node7</title>
<path fill="none" stroke="midnightblue" d="M512.522,-112.324C498.95,-103.9 478.12,-90.9709 462.175,-81.0741"/>
<polygon fill="midnightblue" stroke="midnightblue" points="463.786,-77.9544 453.443,-75.6545 460.094,-83.9019 463.786,-77.9544"/>
</g>
<!-- Node10&#45;&gt;Node9 -->
<g id="edge13" class="edge"><title>Node10&#45;&gt;Node9</title>
<path fill="none" stroke="midnightblue" d="M541.121,-112.324C555.449,-103.822 577.513,-90.7288 594.249,-80.7975"/>
<polygon fill="midnightblue" stroke="midnightblue" points="596.102,-83.7677 602.916,-75.6545 592.53,-77.7478 596.102,-83.7677"/>
</g>
<!-- Node11 -->
<g id="node12" class="node"><title>Node11</title>
<polygon fill="white" stroke="#bfbfbf" points="500.5,-56.5 500.5,-75.5 552.5,-75.5 552.5,-56.5 500.5,-56.5"/>
<text text-anchor="middle" x="526.5" y="-63.5" font-family="Helvetica,sans-Serif" font-size="10.00">memory</text>
</g>
<!-- Node10&#45;&gt;Node11 -->
<g id="edge12" class="edge"><title>Node10&#45;&gt;Node11</title>
<path fill="none" stroke="midnightblue" d="M526.5,-112.083C526.5,-105.006 526.5,-94.8611 526.5,-85.9865"/>
<polygon fill="midnightblue" stroke="midnightblue" points="530,-85.751 526.5,-75.7511 523,-85.7511 530,-85.751"/>
</g>
<!-- Node15&#45;&gt;Node1 -->
<g id="edge37" class="edge"><title>Node15&#45;&gt;Node1</title>
<path fill="none" stroke="midnightblue" d="M321.429,-411.658C322.935,-418.655 323.507,-428.857 323.145,-438.289"/>
<polygon fill="midnightblue" stroke="midnightblue" points="319.645,-438.153 322.34,-448.399 326.623,-438.709 319.645,-438.153"/>
</g>
<!-- Node16 -->
<g id="node17" class="node"><title>Node16</title>
<g id="a_node17"><a xlink:href="YAMLWrapper_8h.html" target="_top" xlink:title="pinhao/Support/YAMLWrapper.h">
<polygon fill="white" stroke="black" points="133,-168.5 133,-187.5 290,-187.5 290,-168.5 133,-168.5"/>
<text text-anchor="middle" x="211.5" y="-175.5" font-family="Helvetica,sans-Serif" font-size="10.00">pinhao/Support/YAMLWrapper.h</text>
</a>
</g>
</g>
<!-- Node15&#45;&gt;Node16 -->
<g id="edge21" class="edge"><title>Node15&#45;&gt;Node16</title>
<path fill="none" stroke="midnightblue" d="M285.546,-392.407C267.086,-385.615 244.898,-374.179 232.5,-356 199.134,-307.077 203.917,-232.389 208.459,-197.795"/>
<polygon fill="midnightblue" stroke="midnightblue" points="211.953,-198.096 209.935,-187.695 205.026,-197.084 211.953,-198.096"/>
</g>
<!-- Node15&#45;&gt;Node18 -->
<g id="edge25" class="edge"><title>Node15&#45;&gt;Node18</title>
<path fill="none" stroke="midnightblue" d="M278.154,-392.444C236.027,-383.043 168.294,-367.929 122.628,-357.739"/>
<polygon fill="midnightblue" stroke="midnightblue" points="123.188,-354.278 112.666,-355.516 121.664,-361.11 123.188,-354.278"/>
</g>
<!-- Node19 -->
<g id="node20" class="node"><title>Node19</title>
<g id="a_node20"><a xlink:href="VectorFeature_8h.html" target="_top" xlink:title="pinhao/Features/VectorFeature.h">
<polygon fill="white" stroke="black" points="409,-336.5 409,-355.5 568,-355.5 568,-336.5 409,-336.5"/>
<text text-anchor="middle" x="488.5" y="-343.5" font-family="Helvetica,sans-Serif" font-size="10.00">pinhao/Features/VectorFeature.h</text>
</a>
</g>
</g>
<!-- Node15&#45;&gt;Node19 -->
<g id="edge27" class="edge"><title>Node15&#45;&gt;Node19</title>
<path fill="none" stroke="midnightblue" d="M338.665,-392.444C365.96,-383.241 412.536,-368.562 446.602,-358.388"/>
<polygon fill="midnightblue" stroke="midnightblue" points="447.7,-361.713 456.294,-355.516 445.711,-355.001 447.7,-361.713"/>
</g>
<!-- Node20 -->
<g id="node21" class="node"><title>Node20</title>
<g id="a_node21"><a xlink:href="MapFeature_8h.html" target="_top" xlink:title="pinhao/Features/MapFeature.h">
<polygon fill="white" stroke="black" points="242,-336.5 242,-355.5 391,-355.5 391,-336.5 242,-336.5"/>
<text text-anchor="middle" x="316.5" y="-343.5" font-family="Helvetica,sans-Serif" font-size="10.00">pinhao/Features/MapFeature.h</text>
</a>
</g>
</g>
<!-- Node15&#45;&gt;Node20 -->
<g id="edge30" class="edge"><title>Node15&#45;&gt;Node20</title>
<path fill="none" stroke="midnightblue" d="M311.334,-392.083C309.824,-384.927 309.394,-374.635 310.042,-365.691"/>
<polygon fill="midnightblue" stroke="midnightblue" points="313.515,-366.126 311.369,-355.751 306.577,-365.2 313.515,-366.126"/>
</g>
<!-- Node16&#45;&gt;Node13 -->
<g id="edge22" class="edge"><title>Node16&#45;&gt;Node13</title>
<path fill="none" stroke="midnightblue" d="M200.414,-168.324C190.014,-160.185 174.239,-147.839 161.778,-138.087"/>
<polygon fill="midnightblue" stroke="midnightblue" points="163.82,-135.241 153.788,-131.834 159.506,-140.753 163.82,-135.241"/>
</g>
<!-- Node16&#45;&gt;Node14 -->
<g id="edge23" class="edge"><title>Node16&#45;&gt;Node14</title>
<path fill="none" stroke="midnightblue" d="M235.109,-168.444C259.958,-159.438 299.274,-145.189 327.254,-135.049"/>
<polygon fill="midnightblue" stroke="midnightblue" points="328.792,-138.214 337.001,-131.516 326.407,-131.633 328.792,-138.214"/>
</g>
<!-- Node17 -->
<g id="node18" class="node"><title>Node17</title>
<polygon fill="white" stroke="#bfbfbf" points="205.5,-112.5 205.5,-131.5 257.5,-131.5 257.5,-112.5 205.5,-112.5"/>
<text text-anchor="middle" x="231.5" y="-119.5" font-family="Helvetica,sans-Serif" font-size="10.00">ostream</text>
</g>
<!-- Node16&#45;&gt;Node17 -->
<g id="edge24" class="edge"><title>Node16&#45;&gt;Node17</title>
<path fill="none" stroke="midnightblue" d="M214.803,-168.083C217.482,-160.849 221.349,-150.409 224.686,-141.397"/>
<polygon fill="midnightblue" stroke="midnightblue" points="228.068,-142.344 228.259,-131.751 221.504,-139.913 228.068,-142.344"/>
</g>
<!-- Node18&#45;&gt;Node13 -->
<g id="edge26" class="edge"><title>Node18&#45;&gt;Node13</title>
<path fill="none" stroke="midnightblue" d="M76.4608,-336.405C82.441,-310.582 101.394,-231.542 123.5,-168 126.635,-158.989 130.684,-149.208 134.238,-141.073"/>
<polygon fill="midnightblue" stroke="midnightblue" points="137.483,-142.39 138.369,-131.832 131.093,-139.533 137.483,-142.39"/>
</g>
<!-- Node19&#45;&gt;Node2 -->
<g id="edge28" class="edge"><title>Node19&#45;&gt;Node2</title>
<path fill="none" stroke="midnightblue" d="M488.5,-336.368C488.5,-318.617 488.5,-277.666 488.5,-253.597"/>
<polygon fill="midnightblue" stroke="midnightblue" points="492,-253.591 488.5,-243.591 485,-253.591 492,-253.591"/>
</g>
<!-- Node19&#45;&gt;Node15 -->
<g id="edge29" class="edge"><title>Node19&#45;&gt;Node15</title>
<path fill="none" stroke="midnightblue" d="M466.454,-355.516C439.215,-364.703 392.649,-379.381 358.547,-389.568"/>
<polygon fill="midnightblue" stroke="midnightblue" points="357.436,-386.246 348.843,-392.444 359.425,-392.958 357.436,-386.246"/>
</g>
<!-- Node20&#45;&gt;Node2 -->
<g id="edge31" class="edge"><title>Node20&#45;&gt;Node2</title>
<path fill="none" stroke="midnightblue" d="M330.129,-336.401C344.436,-327.366 367.575,-312.725 387.5,-300 414.779,-282.578 446.111,-262.385 466.551,-249.188"/>
<polygon fill="midnightblue" stroke="midnightblue" points="468.621,-252.017 475.122,-243.651 464.823,-246.137 468.621,-252.017"/>
</g>
<!-- Node20&#45;&gt;Node15 -->
<g id="edge32" class="edge"><title>Node20&#45;&gt;Node15</title>
<path fill="none" stroke="midnightblue" d="M321.631,-355.751C323.157,-362.858 323.604,-373.136 322.972,-382.101"/>
<polygon fill="midnightblue" stroke="midnightblue" points="319.493,-381.713 321.666,-392.083 326.434,-382.622 319.493,-381.713"/>
</g>
<!-- Node20&#45;&gt;Node21 -->
<g id="edge33" class="edge"><title>Node20&#45;&gt;Node21</title>
<path fill="none" stroke="midnightblue" d="M316.5,-336.083C316.5,-329.006 316.5,-318.861 316.5,-309.986"/>
<polygon fill="midnightblue" stroke="midnightblue" points="320,-309.751 316.5,-299.751 313,-309.751 320,-309.751"/>
</g>
<!-- Node21&#45;&gt;Node2 -->
<g id="edge34" class="edge"><title>Node21&#45;&gt;Node2</title>
<path fill="none" stroke="midnightblue" d="M343.754,-280.444C372.941,-271.28 419.421,-256.688 451.809,-246.519"/>
<polygon fill="midnightblue" stroke="midnightblue" points="452.881,-249.851 461.374,-243.516 450.784,-243.173 452.881,-249.851"/>
</g>
<!-- Node21&#45;&gt;Node7 -->
<g id="edge36" class="edge"><title>Node21&#45;&gt;Node7</title>
<path fill="none" stroke="midnightblue" d="M313.872,-280.205C306.146,-252.428 286.351,-165.269 324.5,-112 344.557,-83.9941 384.737,-73.4165 411.88,-69.4222"/>
<polygon fill="midnightblue" stroke="midnightblue" points="412.44,-72.8794 421.923,-68.1542 411.563,-65.9346 412.44,-72.8794"/>
</g>
<!-- Node22 -->
<g id="node23" class="node"><title>Node22</title>
<polygon fill="white" stroke="#bfbfbf" points="243,-224.5 243,-243.5 290,-243.5 290,-224.5 243,-224.5"/>
<text text-anchor="middle" x="266.5" y="-231.5" font-family="Helvetica,sans-Serif" font-size="10.00">iterator</text>
</g>
<!-- Node21&#45;&gt;Node22 -->
<g id="edge35" class="edge"><title>Node21&#45;&gt;Node22</title>
<path fill="none" stroke="midnightblue" d="M308.244,-280.083C301.035,-272.298 290.39,-260.801 281.654,-251.367"/>
<polygon fill="midnightblue" stroke="midnightblue" points="283.965,-248.711 274.603,-243.751 278.829,-253.467 283.965,-248.711"/>
</g>
<!-- Node23&#45;&gt;Node12 -->
<g id="edge41" class="edge"><title>Node23&#45;&gt;Node12</title>
<path fill="none" stroke="midnightblue" d="M742.829,-392.496C762.3,-375.442 802.5,-334.914 802.5,-291 802.5,-291 802.5,-291 802.5,-233 802.5,-193.61 835.57,-157.726 857.496,-138.264"/>
<polygon fill="midnightblue" stroke="midnightblue" points="859.927,-140.79 865.261,-131.636 855.383,-135.466 859.927,-140.79"/>
</g>
</g>
</svg>
