<?xml version="1.0" encoding="UTF-8" standalone="no"?>
<!DOCTYPE svg PUBLIC "-//W3C//DTD SVG 1.1//EN"
 "http://www.w3.org/Graphics/SVG/1.1/DTD/svg11.dtd">
<!-- Generated by graphviz version 2.38.0 (20140413.2041)
 -->
<!-- Title: /home/yukiosir/workspace/CompilerProject/Software/pinhao/lib/FeaturesImpl/CFGFunctionStaticFeatures.cpp Pages: 1 -->
<svg width="856pt" height="576pt"
 viewBox="0.00 0.00 856.00 576.00" xmlns="http://www.w3.org/2000/svg" xmlns:xlink="http://www.w3.org/1999/xlink">
<g id="graph0" class="graph" transform="scale(1 1) rotate(0) translate(4 572)">
<title>/home/yukiosir/workspace/CompilerProject/Software/pinhao/lib/FeaturesImpl/CFGFunctionStaticFeatures.cpp</title>
<polygon fill="white" stroke="none" points="-4,4 -4,-572 852,-572 852,4 -4,4"/>
<!-- Node0 -->
<g id="node1" class="node"><title>Node0</title>
<polygon fill="#bfbfbf" stroke="black" points="494.5,-515.5 494.5,-567.5 655.5,-567.5 655.5,-515.5 494.5,-515.5"/>
<text text-anchor="start" x="502.5" y="-555.5" font-family="Helvetica,sans-Serif" font-size="10.00">/home/yukiosir/workspace</text>
<text text-anchor="start" x="502.5" y="-544.5" font-family="Helvetica,sans-Serif" font-size="10.00">/CompilerProject/Software</text>
<text text-anchor="start" x="502.5" y="-533.5" font-family="Helvetica,sans-Serif" font-size="10.00">/pinhao/lib/FeaturesImpl</text>
<text text-anchor="middle" x="575" y="-522.5" font-family="Helvetica,sans-Serif" font-size="10.00">/CFGFunctionStaticFeatures.cpp</text>
</g>
<!-- Node1 -->
<g id="node2" class="node"><title>Node1</title>
<g id="a_node2"><a xlink:href="MapVectorFeature_8h.html" target="_top" xlink:title="pinhao/Features/MapVector\lFeature.h">
<polygon fill="white" stroke="black" points="379.5,-448.5 379.5,-478.5 516.5,-478.5 516.5,-448.5 379.5,-448.5"/>
<text text-anchor="start" x="387.5" y="-466.5" font-family="Helvetica,sans-Serif" font-size="10.00">pinhao/Features/MapVector</text>
<text text-anchor="middle" x="448" y="-455.5" font-family="Helvetica,sans-Serif" font-size="10.00">Feature.h</text>
</a>
</g>
</g>
<!-- Node0&#45;&gt;Node1 -->
<g id="edge1" class="edge"><title>Node0&#45;&gt;Node1</title>
<path fill="none" stroke="midnightblue" d="M533.063,-515.404C516.032,-505.212 496.651,-493.614 480.695,-484.066"/>
<polygon fill="midnightblue" stroke="midnightblue" points="482.118,-480.838 471.74,-478.707 478.524,-486.845 482.118,-480.838"/>
</g>
<!-- Node23 -->
<g id="node24" class="node"><title>Node23</title>
<polygon fill="white" stroke="#bfbfbf" points="535,-454 535,-473 615,-473 615,-454 535,-454"/>
<text text-anchor="middle" x="575" y="-461" font-family="Helvetica,sans-Serif" font-size="10.00">llvm/IR/CFG.h</text>
</g>
<!-- Node0&#45;&gt;Node23 -->
<g id="edge39" class="edge"><title>Node0&#45;&gt;Node23</title>
<path fill="none" stroke="midnightblue" d="M575,-515.193C575,-504.765 575,-492.896 575,-483.266"/>
<polygon fill="midnightblue" stroke="midnightblue" points="578.5,-483.209 575,-473.209 571.5,-483.209 578.5,-483.209"/>
</g>
<!-- Node24 -->
<g id="node25" class="node"><title>Node24</title>
<polygon fill="white" stroke="#bfbfbf" points="633,-454 633,-473 743,-473 743,-454 633,-454"/>
<text text-anchor="middle" x="688" y="-461" font-family="Helvetica,sans-Serif" font-size="10.00">llvm/IR/Instructions.h</text>
</g>
<!-- Node0&#45;&gt;Node24 -->
<g id="edge40" class="edge"><title>Node0&#45;&gt;Node24</title>
<path fill="none" stroke="midnightblue" d="M612.314,-515.404C630.308,-503.302 651.248,-489.218 666.535,-478.937"/>
<polygon fill="midnightblue" stroke="midnightblue" points="668.901,-481.563 675.246,-473.078 664.995,-475.755 668.901,-481.563"/>
</g>
<!-- Node2 -->
<g id="node3" class="node"><title>Node2</title>
<g id="a_node3"><a xlink:href="Features_8h.html" target="_top" xlink:title="This file implements some basic feature classes that extends the base class Feature. ">
<polygon fill="white" stroke="black" points="383,-224.5 383,-243.5 519,-243.5 519,-224.5 383,-224.5"/>
<text text-anchor="middle" x="451" y="-231.5" font-family="Helvetica,sans-Serif" font-size="10.00">pinhao/Features/Features.h</text>
</a>
</g>
</g>
<!-- Node1&#45;&gt;Node2 -->
<g id="edge2" class="edge"><title>Node1&#45;&gt;Node2</title>
<path fill="none" stroke="midnightblue" d="M428.039,-448.456C399.138,-426.238 350.776,-380.881 367,-336 379.948,-300.183 411.747,-268.117 432.293,-250.149"/>
<polygon fill="midnightblue" stroke="midnightblue" points="434.707,-252.691 440.067,-243.552 430.177,-247.354 434.707,-252.691"/>
</g>
<!-- Node15 -->
<g id="node16" class="node"><title>Node15</title>
<g id="a_node16"><a xlink:href="FeatureYAMLWrapper_8h.html" target="_top" xlink:title="pinhao/Support/FeatureYAMLWrapper.h">
<polygon fill="white" stroke="black" points="452,-392.5 452,-411.5 642,-411.5 642,-392.5 452,-392.5"/>
<text text-anchor="middle" x="547" y="-399.5" font-family="Helvetica,sans-Serif" font-size="10.00">pinhao/Support/FeatureYAMLWrapper.h</text>
</a>
</g>
</g>
<!-- Node1&#45;&gt;Node15 -->
<g id="edge20" class="edge"><title>Node1&#45;&gt;Node15</title>
<path fill="none" stroke="midnightblue" d="M465.622,-448.399C480.403,-438.773 501.528,-426.09 518.638,-416.577"/>
<polygon fill="midnightblue" stroke="midnightblue" points="520.559,-419.516 527.665,-411.658 517.21,-413.37 520.559,-419.516"/>
</g>
<!-- Node21 -->
<g id="node22" class="node"><title>Node21</title>
<g id="a_node22"><a xlink:href="Iterator_8h.html" target="_top" xlink:title="pinhao/Support/Iterator.h">
<polygon fill="white" stroke="black" points="203,-280.5 203,-299.5 327,-299.5 327,-280.5 203,-280.5"/>
<text text-anchor="middle" x="265" y="-287.5" font-family="Helvetica,sans-Serif" font-size="10.00">pinhao/Support/Iterator.h</text>
</a>
</g>
</g>
<!-- Node1&#45;&gt;Node21 -->
<g id="edge38" class="edge"><title>Node1&#45;&gt;Node21</title>
<path fill="none" stroke="midnightblue" d="M399.631,-448.469C378.027,-440.41 353.36,-428.54 335,-412 302.657,-382.863 281.271,-335.152 271.367,-309.201"/>
<polygon fill="midnightblue" stroke="midnightblue" points="274.551,-307.716 267.827,-299.529 267.977,-310.122 274.551,-307.716"/>
</g>
<!-- Node3 -->
<g id="node4" class="node"><title>Node3</title>
<g id="a_node4"><a xlink:href="Feature_8h.html" target="_top" xlink:title="This file defines the base feature class. ">
<polygon fill="white" stroke="black" points="398.5,-168.5 398.5,-187.5 529.5,-187.5 529.5,-168.5 398.5,-168.5"/>
<text text-anchor="middle" x="464" y="-175.5" font-family="Helvetica,sans-Serif" font-size="10.00">pinhao/Features/Feature.h</text>
</a>
</g>
</g>
<!-- Node2&#45;&gt;Node3 -->
<g id="edge3" class="edge"><title>Node2&#45;&gt;Node3</title>
<path fill="none" stroke="midnightblue" d="M453.147,-224.083C454.869,-216.927 457.347,-206.635 459.5,-197.691"/>
<polygon fill="midnightblue" stroke="midnightblue" points="462.955,-198.293 461.893,-187.751 456.15,-196.654 462.955,-198.293"/>
</g>
<!-- Node4 -->
<g id="node5" class="node"><title>Node4</title>
<g id="a_node5"><a xlink:href="FeatureInfo_8h.html" target="_top" xlink:title="This file defines a class that holds some informations about a feature. ">
<polygon fill="white" stroke="black" points="42.5,-112.5 42.5,-131.5 189.5,-131.5 189.5,-112.5 42.5,-112.5"/>
<text text-anchor="middle" x="116" y="-119.5" font-family="Helvetica,sans-Serif" font-size="10.00">pinhao/Features/FeatureInfo.h</text>
</a>
</g>
</g>
<!-- Node3&#45;&gt;Node4 -->
<g id="edge4" class="edge"><title>Node3&#45;&gt;Node4</title>
<path fill="none" stroke="midnightblue" d="M408.858,-168.444C347.005,-158.846 246.768,-143.292 181.113,-133.104"/>
<polygon fill="midnightblue" stroke="midnightblue" points="181.302,-129.591 170.884,-131.516 180.229,-136.508 181.302,-129.591"/>
</g>
<!-- Node7 -->
<g id="node8" class="node"><title>Node7</title>
<polygon fill="white" stroke="#bfbfbf" points="238.5,-56.5 238.5,-75.5 273.5,-75.5 273.5,-56.5 238.5,-56.5"/>
<text text-anchor="middle" x="256" y="-63.5" font-family="Helvetica,sans-Serif" font-size="10.00">map</text>
</g>
<!-- Node3&#45;&gt;Node7 -->
<g id="edge17" class="edge"><title>Node3&#45;&gt;Node7</title>
<path fill="none" stroke="midnightblue" d="M398.212,-168.459C351.004,-161.047 292.724,-148.848 275,-132 262.494,-120.112 258.082,-100.491 256.595,-85.9106"/>
<polygon fill="midnightblue" stroke="midnightblue" points="260.063,-85.298 255.93,-75.5425 253.077,-85.7461 260.063,-85.298"/>
</g>
<!-- Node9 -->
<g id="node10" class="node"><title>Node9</title>
<polygon fill="white" stroke="#bfbfbf" points="486.5,-56.5 486.5,-75.5 535.5,-75.5 535.5,-56.5 486.5,-56.5"/>
<text text-anchor="middle" x="511" y="-63.5" font-family="Helvetica,sans-Serif" font-size="10.00">cassert</text>
</g>
<!-- Node3&#45;&gt;Node9 -->
<g id="edge18" class="edge"><title>Node3&#45;&gt;Node9</title>
<path fill="none" stroke="midnightblue" d="M512.771,-168.495C533.785,-162.151 556.39,-151.124 569,-132 581.764,-112.642 558.438,-93.158 537.671,-80.6413"/>
<polygon fill="midnightblue" stroke="midnightblue" points="539.168,-77.4662 528.745,-75.5653 535.708,-83.5511 539.168,-77.4662"/>
</g>
<!-- Node10 -->
<g id="node11" class="node"><title>Node10</title>
<g id="a_node11"><a xlink:href="FeatureRegistry_8h.html" target="_top" xlink:title="This file defines a class that has all the registered features. ">
<polygon fill="white" stroke="black" points="393.5,-112.5 393.5,-131.5 560.5,-131.5 560.5,-112.5 393.5,-112.5"/>
<text text-anchor="middle" x="477" y="-119.5" font-family="Helvetica,sans-Serif" font-size="10.00">pinhao/Features/FeatureRegistry.h</text>
</a>
</g>
</g>
<!-- Node3&#45;&gt;Node10 -->
<g id="edge11" class="edge"><title>Node3&#45;&gt;Node10</title>
<path fill="none" stroke="midnightblue" d="M466.147,-168.083C467.869,-160.927 470.347,-150.635 472.5,-141.691"/>
<polygon fill="midnightblue" stroke="midnightblue" points="475.955,-142.293 474.893,-131.751 469.15,-140.654 475.955,-142.293"/>
</g>
<!-- Node12 -->
<g id="node13" class="node"><title>Node12</title>
<polygon fill="white" stroke="#bfbfbf" points="284.5,-112.5 284.5,-131.5 375.5,-131.5 375.5,-112.5 284.5,-112.5"/>
<text text-anchor="middle" x="330" y="-119.5" font-family="Helvetica,sans-Serif" font-size="10.00">llvm/IR/Module.h</text>
</g>
<!-- Node3&#45;&gt;Node12 -->
<g id="edge15" class="edge"><title>Node3&#45;&gt;Node12</title>
<path fill="none" stroke="midnightblue" d="M442.767,-168.444C420.616,-159.517 385.681,-145.439 360.564,-135.317"/>
<polygon fill="midnightblue" stroke="midnightblue" points="361.717,-132.008 351.133,-131.516 359.1,-138.501 361.717,-132.008"/>
</g>
<!-- Node13 -->
<g id="node14" class="node"><title>Node13</title>
<polygon fill="white" stroke="#bfbfbf" points="616.5,-112.5 616.5,-131.5 705.5,-131.5 705.5,-112.5 616.5,-112.5"/>
<text text-anchor="middle" x="661" y="-119.5" font-family="Helvetica,sans-Serif" font-size="10.00">yaml&#45;cpp/yaml.h</text>
</g>
<!-- Node3&#45;&gt;Node13 -->
<g id="edge16" class="edge"><title>Node3&#45;&gt;Node13</title>
<path fill="none" stroke="midnightblue" d="M495.215,-168.444C528.933,-159.201 582.8,-144.436 619.932,-134.257"/>
<polygon fill="midnightblue" stroke="midnightblue" points="621.212,-137.536 629.931,-131.516 619.361,-130.785 621.212,-137.536"/>
</g>
<!-- Node14 -->
<g id="node15" class="node"><title>Node14</title>
<polygon fill="white" stroke="#bfbfbf" points="724,-112.5 724,-131.5 778,-131.5 778,-112.5 724,-112.5"/>
<text text-anchor="middle" x="751" y="-119.5" font-family="Helvetica,sans-Serif" font-size="10.00">iostream</text>
</g>
<!-- Node3&#45;&gt;Node14 -->
<g id="edge19" class="edge"><title>Node3&#45;&gt;Node14</title>
<path fill="none" stroke="midnightblue" d="M516.855,-168.441C567.579,-160.002 646.26,-146.322 714,-132 714.101,-131.979 714.202,-131.957 714.304,-131.936"/>
<polygon fill="midnightblue" stroke="midnightblue" points="714.97,-135.373 723.965,-129.776 713.442,-128.542 714.97,-135.373"/>
</g>
<!-- Node5 -->
<g id="node6" class="node"><title>Node5</title>
<g id="a_node6"><a xlink:href="Types_8h.html" target="_top" xlink:title="pinhao/Support/Types.h">
<polygon fill="white" stroke="black" points="100,-56.5 100,-75.5 220,-75.5 220,-56.5 100,-56.5"/>
<text text-anchor="middle" x="160" y="-63.5" font-family="Helvetica,sans-Serif" font-size="10.00">pinhao/Support/Types.h</text>
</a>
</g>
</g>
<!-- Node4&#45;&gt;Node5 -->
<g id="edge5" class="edge"><title>Node4&#45;&gt;Node5</title>
<path fill="none" stroke="midnightblue" d="M123.266,-112.083C129.545,-104.377 138.788,-93.0333 146.431,-83.6531"/>
<polygon fill="midnightblue" stroke="midnightblue" points="149.266,-85.7143 152.869,-75.7511 143.839,-81.2926 149.266,-85.7143"/>
</g>
<!-- Node6 -->
<g id="node7" class="node"><title>Node6</title>
<polygon fill="white" stroke="#bfbfbf" points="95.5,-0.5 95.5,-19.5 136.5,-19.5 136.5,-0.5 95.5,-0.5"/>
<text text-anchor="middle" x="116" y="-7.5" font-family="Helvetica,sans-Serif" font-size="10.00">string</text>
</g>
<!-- Node4&#45;&gt;Node6 -->
<g id="edge9" class="edge"><title>Node4&#45;&gt;Node6</title>
<path fill="none" stroke="midnightblue" d="M108.948,-112.377C99.7968,-100.12 85.6016,-76.8332 91,-56 93.5459,-46.1752 98.7526,-36.2118 103.759,-28.166"/>
<polygon fill="midnightblue" stroke="midnightblue" points="106.749,-29.9903 109.371,-19.7252 100.92,-26.1143 106.749,-29.9903"/>
</g>
<!-- Node4&#45;&gt;Node7 -->
<g id="edge7" class="edge"><title>Node4&#45;&gt;Node7</title>
<path fill="none" stroke="midnightblue" d="M138.183,-112.444C162.796,-102.95 202.515,-87.6297 228.937,-77.4385"/>
<polygon fill="midnightblue" stroke="midnightblue" points="230.283,-80.6709 238.353,-73.8067 227.764,-74.1399 230.283,-80.6709"/>
</g>
<!-- Node8 -->
<g id="node9" class="node"><title>Node8</title>
<polygon fill="white" stroke="#bfbfbf" points="0,-56.5 0,-75.5 44,-75.5 44,-56.5 0,-56.5"/>
<text text-anchor="middle" x="22" y="-63.5" font-family="Helvetica,sans-Serif" font-size="10.00">vector</text>
</g>
<!-- Node4&#45;&gt;Node8 -->
<g id="edge8" class="edge"><title>Node4&#45;&gt;Node8</title>
<path fill="none" stroke="midnightblue" d="M100.897,-112.324C86.0967,-103.822 63.3058,-90.7288 46.0178,-80.7975"/>
<polygon fill="midnightblue" stroke="midnightblue" points="47.4798,-77.6009 37.0652,-75.6545 43.9929,-83.6707 47.4798,-77.6009"/>
</g>
<!-- Node4&#45;&gt;Node9 -->
<g id="edge10" class="edge"><title>Node4&#45;&gt;Node9</title>
<path fill="none" stroke="midnightblue" d="M189.747,-114.742C260.74,-108.051 371.241,-95.893 476.08,-75.9321"/>
<polygon fill="midnightblue" stroke="midnightblue" points="477.052,-79.3092 486.207,-73.976 475.724,-72.4362 477.052,-79.3092"/>
</g>
<!-- Node5&#45;&gt;Node6 -->
<g id="edge6" class="edge"><title>Node5&#45;&gt;Node6</title>
<path fill="none" stroke="midnightblue" d="M152.734,-56.083C146.455,-48.3768 137.212,-37.0333 129.569,-27.6531"/>
<polygon fill="midnightblue" stroke="midnightblue" points="132.161,-25.2926 123.131,-19.7511 126.734,-29.7143 132.161,-25.2926"/>
</g>
<!-- Node10&#45;&gt;Node7 -->
<g id="edge14" class="edge"><title>Node10&#45;&gt;Node7</title>
<path fill="none" stroke="midnightblue" d="M441.982,-112.444C398.073,-101.715 323.706,-83.5435 283.602,-73.7445"/>
<polygon fill="midnightblue" stroke="midnightblue" points="284.263,-70.3031 273.718,-71.3294 282.602,-77.103 284.263,-70.3031"/>
</g>
<!-- Node10&#45;&gt;Node9 -->
<g id="edge13" class="edge"><title>Node10&#45;&gt;Node9</title>
<path fill="none" stroke="midnightblue" d="M482.614,-112.083C487.367,-104.534 494.318,-93.4948 500.152,-84.2298"/>
<polygon fill="midnightblue" stroke="midnightblue" points="503.124,-86.0783 505.49,-75.7511 497.2,-82.3486 503.124,-86.0783"/>
</g>
<!-- Node11 -->
<g id="node12" class="node"><title>Node11</title>
<polygon fill="white" stroke="#bfbfbf" points="416,-56.5 416,-75.5 468,-75.5 468,-56.5 416,-56.5"/>
<text text-anchor="middle" x="442" y="-63.5" font-family="Helvetica,sans-Serif" font-size="10.00">memory</text>
</g>
<!-- Node10&#45;&gt;Node11 -->
<g id="edge12" class="edge"><title>Node10&#45;&gt;Node11</title>
<path fill="none" stroke="midnightblue" d="M471.22,-112.083C466.328,-104.534 459.173,-93.4948 453.167,-84.2298"/>
<polygon fill="midnightblue" stroke="midnightblue" points="456.048,-82.239 447.672,-75.7511 450.174,-86.0463 456.048,-82.239"/>
</g>
<!-- Node15&#45;&gt;Node1 -->
<g id="edge37" class="edge"><title>Node15&#45;&gt;Node1</title>
<path fill="none" stroke="midnightblue" d="M537.524,-411.658C525.534,-419.934 504.778,-432.694 486.199,-443.36"/>
<polygon fill="midnightblue" stroke="midnightblue" points="484.278,-440.426 477.302,-448.399 487.728,-446.517 484.278,-440.426"/>
</g>
<!-- Node16 -->
<g id="node17" class="node"><title>Node16</title>
<g id="a_node17"><a xlink:href="YAMLWrapper_8h.html" target="_top" xlink:title="pinhao/Support/YAMLWrapper.h">
<polygon fill="white" stroke="black" points="689.5,-168.5 689.5,-187.5 846.5,-187.5 846.5,-168.5 689.5,-168.5"/>
<text text-anchor="middle" x="768" y="-175.5" font-family="Helvetica,sans-Serif" font-size="10.00">pinhao/Support/YAMLWrapper.h</text>
</a>
</g>
</g>
<!-- Node15&#45;&gt;Node16 -->
<g id="edge21" class="edge"><title>Node15&#45;&gt;Node16</title>
<path fill="none" stroke="midnightblue" d="M642.045,-395.285C672.647,-389.113 704.646,-377.483 728,-356 772.982,-314.622 772.759,-234.307 770.013,-197.834"/>
<polygon fill="midnightblue" stroke="midnightblue" points="773.477,-197.28 769.087,-187.637 766.506,-197.913 773.477,-197.28"/>
</g>
<!-- Node18 -->
<g id="node19" class="node"><title>Node18</title>
<g id="a_node19"><a xlink:href="YamlOptions_8h.html" target="_top" xlink:title="pinhao/Support/YamlOptions.h">
<polygon fill="white" stroke="black" points="589.5,-280.5 589.5,-299.5 738.5,-299.5 738.5,-280.5 589.5,-280.5"/>
<text text-anchor="middle" x="664" y="-287.5" font-family="Helvetica,sans-Serif" font-size="10.00">pinhao/Support/YamlOptions.h</text>
</a>
</g>
</g>
<!-- Node15&#45;&gt;Node18 -->
<g id="edge25" class="edge"><title>Node15&#45;&gt;Node18</title>
<path fill="none" stroke="midnightblue" d="M605.871,-392.48C647.481,-385.113 698.065,-372.962 711,-356 724.062,-338.871 704.178,-318.71 686.394,-305.435"/>
<polygon fill="midnightblue" stroke="midnightblue" points="688.178,-302.41 677.986,-299.515 684.148,-308.134 688.178,-302.41"/>
</g>
<!-- Node19 -->
<g id="node20" class="node"><title>Node19</title>
<g id="a_node20"><a xlink:href="VectorFeature_8h.html" target="_top" xlink:title="pinhao/Features/VectorFeature.h">
<polygon fill="white" stroke="black" points="543.5,-336.5 543.5,-355.5 702.5,-355.5 702.5,-336.5 543.5,-336.5"/>
<text text-anchor="middle" x="623" y="-343.5" font-family="Helvetica,sans-Serif" font-size="10.00">pinhao/Features/VectorFeature.h</text>
</a>
</g>
</g>
<!-- Node15&#45;&gt;Node19 -->
<g id="edge27" class="edge"><title>Node15&#45;&gt;Node19</title>
<path fill="none" stroke="midnightblue" d="M554.096,-392.324C564.128,-383.9 582.026,-370.971 597.183,-361.074"/>
<polygon fill="midnightblue" stroke="midnightblue" points="599.147,-363.973 605.709,-355.655 595.392,-358.065 599.147,-363.973"/>
</g>
<!-- Node20 -->
<g id="node21" class="node"><title>Node20</title>
<g id="a_node21"><a xlink:href="MapFeature_8h.html" target="_top" xlink:title="pinhao/Features/MapFeature.h">
<polygon fill="white" stroke="black" points="376.5,-336.5 376.5,-355.5 525.5,-355.5 525.5,-336.5 376.5,-336.5"/>
<text text-anchor="middle" x="451" y="-343.5" font-family="Helvetica,sans-Serif" font-size="10.00">pinhao/Features/MapFeature.h</text>
</a>
</g>
</g>
<!-- Node15&#45;&gt;Node20 -->
<g id="edge30" class="edge"><title>Node15&#45;&gt;Node20</title>
<path fill="none" stroke="midnightblue" d="M526.461,-392.324C509.662,-383.9 486.378,-370.971 470.011,-361.074"/>
<polygon fill="midnightblue" stroke="midnightblue" points="471.618,-357.952 461.276,-355.655 467.928,-363.9 471.618,-357.952"/>
</g>
<!-- Node16&#45;&gt;Node13 -->
<g id="edge22" class="edge"><title>Node16&#45;&gt;Node13</title>
<path fill="none" stroke="midnightblue" d="M750.809,-168.324C733.649,-159.664 707.054,-146.242 687.253,-136.249"/>
<polygon fill="midnightblue" stroke="midnightblue" points="688.653,-133.035 678.149,-131.655 685.499,-139.285 688.653,-133.035"/>
</g>
<!-- Node16&#45;&gt;Node14 -->
<g id="edge23" class="edge"><title>Node16&#45;&gt;Node14</title>
<path fill="none" stroke="midnightblue" d="M765.193,-168.083C762.915,-160.849 759.629,-150.409 756.792,-141.397"/>
<polygon fill="midnightblue" stroke="midnightblue" points="760.096,-140.239 753.755,-131.751 753.419,-142.341 760.096,-140.239"/>
</g>
<!-- Node17 -->
<g id="node18" class="node"><title>Node17</title>
<polygon fill="white" stroke="#bfbfbf" points="796,-112.5 796,-131.5 848,-131.5 848,-112.5 796,-112.5"/>
<text text-anchor="middle" x="822" y="-119.5" font-family="Helvetica,sans-Serif" font-size="10.00">ostream</text>
</g>
<!-- Node16&#45;&gt;Node17 -->
<g id="edge24" class="edge"><title>Node16&#45;&gt;Node17</title>
<path fill="none" stroke="midnightblue" d="M776.917,-168.083C784.78,-160.22 796.431,-148.569 805.919,-139.081"/>
<polygon fill="midnightblue" stroke="midnightblue" points="808.653,-141.297 813.249,-131.751 803.703,-136.347 808.653,-141.297"/>
</g>
<!-- Node18&#45;&gt;Node13 -->
<g id="edge26" class="edge"><title>Node18&#45;&gt;Node13</title>
<path fill="none" stroke="midnightblue" d="M663.839,-280.075C663.366,-253.945 661.98,-177.211 661.336,-141.577"/>
<polygon fill="midnightblue" stroke="midnightblue" points="664.835,-141.503 661.155,-131.568 657.836,-141.63 664.835,-141.503"/>
</g>
<!-- Node19&#45;&gt;Node2 -->
<g id="edge28" class="edge"><title>Node19&#45;&gt;Node2</title>
<path fill="none" stroke="midnightblue" d="M609.503,-336.368C579.988,-317.492 509.456,-272.385 473.261,-249.237"/>
<polygon fill="midnightblue" stroke="midnightblue" points="474.744,-246.031 464.434,-243.591 470.973,-251.928 474.744,-246.031"/>
</g>
<!-- Node19&#45;&gt;Node15 -->
<g id="edge29" class="edge"><title>Node19&#45;&gt;Node15</title>
<path fill="none" stroke="midnightblue" d="M615.716,-355.834C605.646,-364.263 587.868,-377.099 572.803,-386.935"/>
<polygon fill="midnightblue" stroke="midnightblue" points="570.887,-384.006 564.326,-392.324 574.642,-389.913 570.887,-384.006"/>
</g>
<!-- Node20&#45;&gt;Node2 -->
<g id="edge31" class="edge"><title>Node20&#45;&gt;Node2</title>
<path fill="none" stroke="midnightblue" d="M451,-336.368C451,-318.617 451,-277.666 451,-253.597"/>
<polygon fill="midnightblue" stroke="midnightblue" points="454.5,-253.591 451,-243.591 447.5,-253.591 454.5,-253.591"/>
</g>
<!-- Node20&#45;&gt;Node15 -->
<g id="edge32" class="edge"><title>Node20&#45;&gt;Node15</title>
<path fill="none" stroke="midnightblue" d="M471.496,-355.655C488.284,-364.071 511.568,-376.999 527.947,-386.901"/>
<polygon fill="midnightblue" stroke="midnightblue" points="526.348,-390.027 536.691,-392.324 530.037,-384.079 526.348,-390.027"/>
</g>
<!-- Node20&#45;&gt;Node21 -->
<g id="edge33" class="edge"><title>Node20&#45;&gt;Node21</title>
<path fill="none" stroke="midnightblue" d="M421.528,-336.444C389.829,-327.241 339.268,-312.562 304.225,-302.388"/>
<polygon fill="midnightblue" stroke="midnightblue" points="304.914,-298.943 294.334,-299.516 302.962,-305.666 304.914,-298.943"/>
</g>
<!-- Node21&#45;&gt;Node2 -->
<g id="edge34" class="edge"><title>Node21&#45;&gt;Node2</title>
<path fill="none" stroke="midnightblue" d="M294.472,-280.444C326.171,-271.241 376.732,-256.562 411.775,-246.388"/>
<polygon fill="midnightblue" stroke="midnightblue" points="413.038,-249.666 421.666,-243.516 411.086,-242.943 413.038,-249.666"/>
</g>
<!-- Node21&#45;&gt;Node7 -->
<g id="edge36" class="edge"><title>Node21&#45;&gt;Node7</title>
<path fill="none" stroke="midnightblue" d="M257.588,-280.411C250.724,-271.844 240.994,-257.979 237,-244 220.905,-187.666 239.066,-117.705 249.574,-85.1899"/>
<polygon fill="midnightblue" stroke="midnightblue" points="252.905,-86.2665 252.784,-75.6724 246.272,-84.0294 252.905,-86.2665"/>
</g>
<!-- Node22 -->
<g id="node23" class="node"><title>Node22</title>
<polygon fill="white" stroke="#bfbfbf" points="246.5,-224.5 246.5,-243.5 293.5,-243.5 293.5,-224.5 246.5,-224.5"/>
<text text-anchor="middle" x="270" y="-231.5" font-family="Helvetica,sans-Serif" font-size="10.00">iterator</text>
</g>
<!-- Node21&#45;&gt;Node22 -->
<g id="edge35" class="edge"><title>Node21&#45;&gt;Node22</title>
<path fill="none" stroke="midnightblue" d="M265.826,-280.083C266.481,-273.006 267.42,-262.861 268.242,-253.986"/>
<polygon fill="midnightblue" stroke="midnightblue" points="271.753,-254.031 269.19,-243.751 264.783,-253.386 271.753,-254.031"/>
</g>
</g>
</svg>
