<?xml version="1.0" encoding="UTF-8" standalone="no"?>
<!DOCTYPE svg PUBLIC "-//W3C//DTD SVG 1.1//EN"
 "http://www.w3.org/Graphics/SVG/1.1/DTD/svg11.dtd">
<!-- Generated by graphviz version 2.38.0 (20140413.2041)
 -->
<!-- Title: /home/yukiosir/workspace/CompilerProject/Software/pinhao/lib/FeaturesImpl/CFGFunctionStaticFeatures.cpp Pages: 1 -->
<svg width="890pt" height="576pt"
 viewBox="0.00 0.00 890.00 576.00" xmlns="http://www.w3.org/2000/svg" xmlns:xlink="http://www.w3.org/1999/xlink">
<g id="graph0" class="graph" transform="scale(1 1) rotate(0) translate(4 572)">
<title>/home/yukiosir/workspace/CompilerProject/Software/pinhao/lib/FeaturesImpl/CFGFunctionStaticFeatures.cpp</title>
<polygon fill="white" stroke="none" points="-4,4 -4,-572 886,-572 886,4 -4,4"/>
<!-- Node0 -->
<g id="node1" class="node"><title>Node0</title>
<polygon fill="#bfbfbf" stroke="black" points="477,-515.5 477,-567.5 638,-567.5 638,-515.5 477,-515.5"/>
<text text-anchor="start" x="485" y="-555.5" font-family="Helvetica,sans-Serif" font-size="10.00">/home/yukiosir/workspace</text>
<text text-anchor="start" x="485" y="-544.5" font-family="Helvetica,sans-Serif" font-size="10.00">/CompilerProject/Software</text>
<text text-anchor="start" x="485" y="-533.5" font-family="Helvetica,sans-Serif" font-size="10.00">/pinhao/lib/FeaturesImpl</text>
<text text-anchor="middle" x="557.5" y="-522.5" font-family="Helvetica,sans-Serif" font-size="10.00">/CFGFunctionStaticFeatures.cpp</text>
</g>
<!-- Node1 -->
<g id="node2" class="node"><title>Node1</title>
<g id="a_node2"><a xlink:href="MapVectorFeature_8h.html" target="_top" xlink:title="pinhao/Features/MapVector\lFeature.h">
<polygon fill="white" stroke="black" points="216,-448.5 216,-478.5 353,-478.5 353,-448.5 216,-448.5"/>
<text text-anchor="start" x="224" y="-466.5" font-family="Helvetica,sans-Serif" font-size="10.00">pinhao/Features/MapVector</text>
<text text-anchor="middle" x="284.5" y="-455.5" font-family="Helvetica,sans-Serif" font-size="10.00">Feature.h</text>
</a>
</g>
</g>
<!-- Node0&#45;&gt;Node1 -->
<g id="edge1" class="edge"><title>Node0&#45;&gt;Node1</title>
<path fill="none" stroke="midnightblue" d="M476.699,-518.006C434.554,-506.273 383.859,-492.16 345.118,-481.375"/>
<polygon fill="midnightblue" stroke="midnightblue" points="345.605,-477.878 335.032,-478.568 343.727,-484.621 345.605,-477.878"/>
</g>
<!-- Node23 -->
<g id="node24" class="node"><title>Node23</title>
<g id="a_node24"><a xlink:href="InitializationRoutines_8h.html" target="_top" xlink:title="pinhao/InitializationRoutines.h">
<polygon fill="white" stroke="black" points="627,-392.5 627,-411.5 774,-411.5 774,-392.5 627,-392.5"/>
<text text-anchor="middle" x="700.5" y="-399.5" font-family="Helvetica,sans-Serif" font-size="10.00">pinhao/InitializationRoutines.h</text>
</a>
</g>
</g>
<!-- Node0&#45;&gt;Node23 -->
<g id="edge39" class="edge"><title>Node0&#45;&gt;Node23</title>
<path fill="none" stroke="midnightblue" d="M543.997,-515.262C535.273,-495.13 527.992,-467.216 542.5,-448 554.055,-432.694 597.072,-421.051 635.307,-413.446"/>
<polygon fill="midnightblue" stroke="midnightblue" points="636.257,-416.828 645.417,-411.504 634.936,-409.953 636.257,-416.828"/>
</g>
<!-- Node24 -->
<g id="node25" class="node"><title>Node24</title>
<polygon fill="white" stroke="#bfbfbf" points="551.5,-454 551.5,-473 631.5,-473 631.5,-454 551.5,-454"/>
<text text-anchor="middle" x="591.5" y="-461" font-family="Helvetica,sans-Serif" font-size="10.00">llvm/IR/CFG.h</text>
</g>
<!-- Node0&#45;&gt;Node24 -->
<g id="edge41" class="edge"><title>Node0&#45;&gt;Node24</title>
<path fill="none" stroke="midnightblue" d="M568.822,-515.193C573.588,-504.538 579.028,-492.379 583.384,-482.641"/>
<polygon fill="midnightblue" stroke="midnightblue" points="586.715,-483.766 587.604,-473.209 580.325,-480.908 586.715,-483.766"/>
</g>
<!-- Node25 -->
<g id="node26" class="node"><title>Node25</title>
<polygon fill="white" stroke="#bfbfbf" points="649.5,-454 649.5,-473 759.5,-473 759.5,-454 649.5,-454"/>
<text text-anchor="middle" x="704.5" y="-461" font-family="Helvetica,sans-Serif" font-size="10.00">llvm/IR/Instructions.h</text>
</g>
<!-- Node0&#45;&gt;Node25 -->
<g id="edge42" class="edge"><title>Node0&#45;&gt;Node25</title>
<path fill="none" stroke="midnightblue" d="M606.041,-515.404C630.332,-502.845 658.751,-488.153 678.796,-477.789"/>
<polygon fill="midnightblue" stroke="midnightblue" points="680.633,-480.78 687.909,-473.078 677.418,-474.561 680.633,-480.78"/>
</g>
<!-- Node2 -->
<g id="node3" class="node"><title>Node2</title>
<g id="a_node3"><a xlink:href="Features_8h.html" target="_top" xlink:title="This file implements some basic feature classes that extends the base class Feature. ">
<polygon fill="white" stroke="black" points="388.5,-224.5 388.5,-243.5 524.5,-243.5 524.5,-224.5 388.5,-224.5"/>
<text text-anchor="middle" x="456.5" y="-231.5" font-family="Helvetica,sans-Serif" font-size="10.00">pinhao/Features/Features.h</text>
</a>
</g>
</g>
<!-- Node1&#45;&gt;Node2 -->
<g id="edge2" class="edge"><title>Node1&#45;&gt;Node2</title>
<path fill="none" stroke="midnightblue" d="M353.115,-455.369C414.827,-444.913 502.1,-419.188 544.5,-356 571.072,-316.401 514.271,-271.367 480.014,-249.06"/>
<polygon fill="midnightblue" stroke="midnightblue" points="481.769,-246.029 471.446,-243.644 478.029,-251.946 481.769,-246.029"/>
</g>
<!-- Node15 -->
<g id="node16" class="node"><title>Node15</title>
<g id="a_node16"><a xlink:href="FeatureYAMLWrapper_8h.html" target="_top" xlink:title="pinhao/Support/FeatureYAMLWrapper.h">
<polygon fill="white" stroke="black" points="189.5,-392.5 189.5,-411.5 379.5,-411.5 379.5,-392.5 189.5,-392.5"/>
<text text-anchor="middle" x="284.5" y="-399.5" font-family="Helvetica,sans-Serif" font-size="10.00">pinhao/Support/FeatureYAMLWrapper.h</text>
</a>
</g>
</g>
<!-- Node1&#45;&gt;Node15 -->
<g id="edge20" class="edge"><title>Node1&#45;&gt;Node15</title>
<path fill="none" stroke="midnightblue" d="M278.66,-448.399C277.63,-440.377 277.474,-430.233 278.193,-421.569"/>
<polygon fill="midnightblue" stroke="midnightblue" points="281.66,-422.044 279.571,-411.658 274.727,-421.081 281.66,-422.044"/>
</g>
<!-- Node21 -->
<g id="node22" class="node"><title>Node21</title>
<g id="a_node22"><a xlink:href="Iterator_8h.html" target="_top" xlink:title="pinhao/Support/Iterator.h">
<polygon fill="white" stroke="black" points="222.5,-280.5 222.5,-299.5 346.5,-299.5 346.5,-280.5 222.5,-280.5"/>
<text text-anchor="middle" x="284.5" y="-287.5" font-family="Helvetica,sans-Serif" font-size="10.00">pinhao/Support/Iterator.h</text>
</a>
</g>
</g>
<!-- Node1&#45;&gt;Node21 -->
<g id="edge38" class="edge"><title>Node1&#45;&gt;Node21</title>
<path fill="none" stroke="midnightblue" d="M228.395,-448.389C209.898,-440.781 191.311,-429.268 180.5,-412 167.177,-390.721 190.545,-347.558 200.5,-336 213.135,-321.329 231.773,-310.668 248.285,-303.416"/>
<polygon fill="midnightblue" stroke="midnightblue" points="249.788,-306.582 257.699,-299.535 247.12,-300.11 249.788,-306.582"/>
</g>
<!-- Node3 -->
<g id="node4" class="node"><title>Node3</title>
<g id="a_node4"><a xlink:href="Feature_8h.html" target="_top" xlink:title="This file defines the base feature class. ">
<polygon fill="white" stroke="black" points="397,-168.5 397,-187.5 528,-187.5 528,-168.5 397,-168.5"/>
<text text-anchor="middle" x="462.5" y="-175.5" font-family="Helvetica,sans-Serif" font-size="10.00">pinhao/Features/Feature.h</text>
</a>
</g>
</g>
<!-- Node2&#45;&gt;Node3 -->
<g id="edge3" class="edge"><title>Node2&#45;&gt;Node3</title>
<path fill="none" stroke="midnightblue" d="M457.491,-224.083C458.286,-216.927 459.429,-206.635 460.423,-197.691"/>
<polygon fill="midnightblue" stroke="midnightblue" points="463.902,-198.076 461.528,-187.751 456.945,-197.303 463.902,-198.076"/>
</g>
<!-- Node4 -->
<g id="node5" class="node"><title>Node4</title>
<g id="a_node5"><a xlink:href="FeatureInfo_8h.html" target="_top" xlink:title="This file defines a class that holds some informations about a feature. ">
<polygon fill="white" stroke="black" points="626,-112.5 626,-131.5 773,-131.5 773,-112.5 626,-112.5"/>
<text text-anchor="middle" x="699.5" y="-119.5" font-family="Helvetica,sans-Serif" font-size="10.00">pinhao/Features/FeatureInfo.h</text>
</a>
</g>
</g>
<!-- Node3&#45;&gt;Node4 -->
<g id="edge4" class="edge"><title>Node3&#45;&gt;Node4</title>
<path fill="none" stroke="midnightblue" d="M500.053,-168.444C541.311,-159.043 607.644,-143.929 652.366,-133.739"/>
<polygon fill="midnightblue" stroke="midnightblue" points="653.15,-137.151 662.122,-131.516 651.595,-130.326 653.15,-137.151"/>
</g>
<!-- Node7 -->
<g id="node8" class="node"><title>Node7</title>
<polygon fill="white" stroke="#bfbfbf" points="382,-56.5 382,-75.5 417,-75.5 417,-56.5 382,-56.5"/>
<text text-anchor="middle" x="399.5" y="-63.5" font-family="Helvetica,sans-Serif" font-size="10.00">map</text>
</g>
<!-- Node3&#45;&gt;Node7 -->
<g id="edge17" class="edge"><title>Node3&#45;&gt;Node7</title>
<path fill="none" stroke="midnightblue" d="M438.712,-168.499C422.779,-161.413 403.037,-149.605 393.5,-132 385.748,-117.69 388.582,-98.98 392.564,-85.3099"/>
<polygon fill="midnightblue" stroke="midnightblue" points="395.956,-86.2016 395.823,-75.6076 389.321,-83.9724 395.956,-86.2016"/>
</g>
<!-- Node9 -->
<g id="node10" class="node"><title>Node9</title>
<polygon fill="white" stroke="#bfbfbf" points="552,-56.5 552,-75.5 601,-75.5 601,-56.5 552,-56.5"/>
<text text-anchor="middle" x="576.5" y="-63.5" font-family="Helvetica,sans-Serif" font-size="10.00">cassert</text>
</g>
<!-- Node3&#45;&gt;Node9 -->
<g id="edge18" class="edge"><title>Node3&#45;&gt;Node9</title>
<path fill="none" stroke="midnightblue" d="M521.071,-168.483C542.825,-162.164 565.381,-151.16 578.5,-132 587.66,-118.622 585.913,-99.7982 582.614,-85.8488"/>
<polygon fill="midnightblue" stroke="midnightblue" points="585.894,-84.581 579.815,-75.9037 579.156,-86.478 585.894,-84.581"/>
</g>
<!-- Node10 -->
<g id="node11" class="node"><title>Node10</title>
<g id="a_node11"><a xlink:href="FeatureRegistry_8h.html" target="_top" xlink:title="This file defines a class that has all the registered features. ">
<polygon fill="white" stroke="black" points="403,-112.5 403,-131.5 570,-131.5 570,-112.5 403,-112.5"/>
<text text-anchor="middle" x="486.5" y="-119.5" font-family="Helvetica,sans-Serif" font-size="10.00">pinhao/Features/FeatureRegistry.h</text>
</a>
</g>
</g>
<!-- Node3&#45;&gt;Node10 -->
<g id="edge11" class="edge"><title>Node3&#45;&gt;Node10</title>
<path fill="none" stroke="midnightblue" d="M466.463,-168.083C469.713,-160.77 474.419,-150.181 478.454,-141.103"/>
<polygon fill="midnightblue" stroke="midnightblue" points="481.748,-142.311 482.611,-131.751 475.351,-139.468 481.748,-142.311"/>
</g>
<!-- Node12 -->
<g id="node13" class="node"><title>Node12</title>
<polygon fill="white" stroke="#bfbfbf" points="791,-112.5 791,-131.5 882,-131.5 882,-112.5 791,-112.5"/>
<text text-anchor="middle" x="836.5" y="-119.5" font-family="Helvetica,sans-Serif" font-size="10.00">llvm/IR/Module.h</text>
</g>
<!-- Node3&#45;&gt;Node12 -->
<g id="edge15" class="edge"><title>Node3&#45;&gt;Node12</title>
<path fill="none" stroke="midnightblue" d="M525.809,-168.488C588.018,-160.029 685.92,-146.464 780.83,-132.073"/>
<polygon fill="midnightblue" stroke="midnightblue" points="781.534,-135.506 790.894,-130.542 780.481,-128.586 781.534,-135.506"/>
</g>
<!-- Node13 -->
<g id="node14" class="node"><title>Node13</title>
<polygon fill="white" stroke="#bfbfbf" points="57,-112.5 57,-131.5 146,-131.5 146,-112.5 57,-112.5"/>
<text text-anchor="middle" x="101.5" y="-119.5" font-family="Helvetica,sans-Serif" font-size="10.00">yaml&#45;cpp/yaml.h</text>
</g>
<!-- Node3&#45;&gt;Node13 -->
<g id="edge16" class="edge"><title>Node3&#45;&gt;Node13</title>
<path fill="none" stroke="midnightblue" d="M401.867,-168.47C342.08,-159.978 247.831,-146.375 156.274,-132.096"/>
<polygon fill="midnightblue" stroke="midnightblue" points="156.699,-128.62 146.278,-130.532 155.617,-135.536 156.699,-128.62"/>
</g>
<!-- Node14 -->
<g id="node15" class="node"><title>Node14</title>
<polygon fill="white" stroke="#bfbfbf" points="293.5,-112.5 293.5,-131.5 347.5,-131.5 347.5,-112.5 293.5,-112.5"/>
<text text-anchor="middle" x="320.5" y="-119.5" font-family="Helvetica,sans-Serif" font-size="10.00">iostream</text>
</g>
<!-- Node3&#45;&gt;Node14 -->
<g id="edge19" class="edge"><title>Node3&#45;&gt;Node14</title>
<path fill="none" stroke="midnightblue" d="M440,-168.444C416.423,-159.478 379.178,-145.314 352.536,-135.183"/>
<polygon fill="midnightblue" stroke="midnightblue" points="353.486,-131.8 342.895,-131.516 350.998,-138.342 353.486,-131.8"/>
</g>
<!-- Node5 -->
<g id="node6" class="node"><title>Node5</title>
<g id="a_node6"><a xlink:href="Types_8h.html" target="_top" xlink:title="pinhao/Support/Types.h">
<polygon fill="white" stroke="black" points="618.5,-56.5 618.5,-75.5 738.5,-75.5 738.5,-56.5 618.5,-56.5"/>
<text text-anchor="middle" x="678.5" y="-63.5" font-family="Helvetica,sans-Serif" font-size="10.00">pinhao/Support/Types.h</text>
</a>
</g>
</g>
<!-- Node4&#45;&gt;Node5 -->
<g id="edge5" class="edge"><title>Node4&#45;&gt;Node5</title>
<path fill="none" stroke="midnightblue" d="M696.032,-112.083C693.188,-104.77 689.071,-94.1814 685.54,-85.1034"/>
<polygon fill="midnightblue" stroke="midnightblue" points="688.79,-83.8025 681.903,-75.7511 682.266,-86.3397 688.79,-83.8025"/>
</g>
<!-- Node6 -->
<g id="node7" class="node"><title>Node6</title>
<polygon fill="white" stroke="#bfbfbf" points="702,-0.5 702,-19.5 743,-19.5 743,-0.5 702,-0.5"/>
<text text-anchor="middle" x="722.5" y="-7.5" font-family="Helvetica,sans-Serif" font-size="10.00">string</text>
</g>
<!-- Node4&#45;&gt;Node6 -->
<g id="edge9" class="edge"><title>Node4&#45;&gt;Node6</title>
<path fill="none" stroke="midnightblue" d="M713.87,-112.33C725.38,-104.469 740.689,-91.7221 747.5,-76 754.529,-59.7747 745.368,-40.8739 736.221,-27.6501"/>
<polygon fill="midnightblue" stroke="midnightblue" points="738.9,-25.3894 730.089,-19.5048 733.307,-29.5992 738.9,-25.3894"/>
</g>
<!-- Node4&#45;&gt;Node7 -->
<g id="edge7" class="edge"><title>Node4&#45;&gt;Node7</title>
<path fill="none" stroke="midnightblue" d="M651.964,-112.444C588.569,-101.032 478.399,-81.2019 427.169,-71.9804"/>
<polygon fill="midnightblue" stroke="midnightblue" points="427.632,-68.5075 417.17,-70.1805 426.391,-75.3968 427.632,-68.5075"/>
</g>
<!-- Node8 -->
<g id="node9" class="node"><title>Node8</title>
<polygon fill="white" stroke="#bfbfbf" points="794.5,-56.5 794.5,-75.5 838.5,-75.5 838.5,-56.5 794.5,-56.5"/>
<text text-anchor="middle" x="816.5" y="-63.5" font-family="Helvetica,sans-Serif" font-size="10.00">vector</text>
</g>
<!-- Node4&#45;&gt;Node8 -->
<g id="edge8" class="edge"><title>Node4&#45;&gt;Node8</title>
<path fill="none" stroke="midnightblue" d="M718.039,-112.444C737.123,-103.636 767.075,-89.8116 788.936,-79.722"/>
<polygon fill="midnightblue" stroke="midnightblue" points="790.435,-82.8849 798.048,-75.5164 787.501,-76.5292 790.435,-82.8849"/>
</g>
<!-- Node4&#45;&gt;Node9 -->
<g id="edge10" class="edge"><title>Node4&#45;&gt;Node9</title>
<path fill="none" stroke="midnightblue" d="M680.01,-112.444C659.858,-103.596 628.177,-89.6875 605.169,-79.5865"/>
<polygon fill="midnightblue" stroke="midnightblue" points="606.462,-76.3316 595.899,-75.5164 603.648,-82.7411 606.462,-76.3316"/>
</g>
<!-- Node5&#45;&gt;Node6 -->
<g id="edge6" class="edge"><title>Node5&#45;&gt;Node6</title>
<path fill="none" stroke="midnightblue" d="M685.766,-56.083C692.045,-48.3768 701.288,-37.0333 708.931,-27.6531"/>
<polygon fill="midnightblue" stroke="midnightblue" points="711.766,-29.7143 715.369,-19.7511 706.339,-25.2926 711.766,-29.7143"/>
</g>
<!-- Node10&#45;&gt;Node7 -->
<g id="edge14" class="edge"><title>Node10&#45;&gt;Node7</title>
<path fill="none" stroke="midnightblue" d="M472.522,-112.324C458.95,-103.9 438.12,-90.9709 422.175,-81.0741"/>
<polygon fill="midnightblue" stroke="midnightblue" points="423.786,-77.9544 413.443,-75.6545 420.094,-83.9019 423.786,-77.9544"/>
</g>
<!-- Node10&#45;&gt;Node9 -->
<g id="edge13" class="edge"><title>Node10&#45;&gt;Node9</title>
<path fill="none" stroke="midnightblue" d="M500.96,-112.324C515,-103.9 536.548,-90.9709 553.043,-81.0741"/>
<polygon fill="midnightblue" stroke="midnightblue" points="555.302,-83.8007 562.076,-75.6545 551.7,-77.7983 555.302,-83.8007"/>
</g>
<!-- Node11 -->
<g id="node12" class="node"><title>Node11</title>
<polygon fill="white" stroke="#bfbfbf" points="460.5,-56.5 460.5,-75.5 512.5,-75.5 512.5,-56.5 460.5,-56.5"/>
<text text-anchor="middle" x="486.5" y="-63.5" font-family="Helvetica,sans-Serif" font-size="10.00">memory</text>
</g>
<!-- Node10&#45;&gt;Node11 -->
<g id="edge12" class="edge"><title>Node10&#45;&gt;Node11</title>
<path fill="none" stroke="midnightblue" d="M486.5,-112.083C486.5,-105.006 486.5,-94.8611 486.5,-85.9865"/>
<polygon fill="midnightblue" stroke="midnightblue" points="490,-85.751 486.5,-75.7511 483,-85.7511 490,-85.751"/>
</g>
<!-- Node15&#45;&gt;Node1 -->
<g id="edge37" class="edge"><title>Node15&#45;&gt;Node1</title>
<path fill="none" stroke="midnightblue" d="M289.429,-411.658C290.935,-418.655 291.507,-428.857 291.145,-438.289"/>
<polygon fill="midnightblue" stroke="midnightblue" points="287.645,-438.153 290.34,-448.399 294.623,-438.709 287.645,-438.153"/>
</g>
<!-- Node16 -->
<g id="node17" class="node"><title>Node16</title>
<g id="a_node17"><a xlink:href="YAMLWrapper_8h.html" target="_top" xlink:title="pinhao/Support/YAMLWrapper.h">
<polygon fill="white" stroke="black" points="92,-168.5 92,-187.5 249,-187.5 249,-168.5 92,-168.5"/>
<text text-anchor="middle" x="170.5" y="-175.5" font-family="Helvetica,sans-Serif" font-size="10.00">pinhao/Support/YAMLWrapper.h</text>
</a>
</g>
</g>
<!-- Node15&#45;&gt;Node16 -->
<g id="edge21" class="edge"><title>Node15&#45;&gt;Node16</title>
<path fill="none" stroke="midnightblue" d="M254.681,-392.497C236.186,-385.655 213.54,-374.133 200.5,-356 165.678,-307.576 166.153,-232.642 168.612,-197.89"/>
<polygon fill="midnightblue" stroke="midnightblue" points="172.115,-198.002 169.474,-187.742 165.14,-197.41 172.115,-198.002"/>
</g>
<!-- Node18 -->
<g id="node19" class="node"><title>Node18</title>
<g id="a_node19"><a xlink:href="YamlOptions_8h.html" target="_top" xlink:title="pinhao/Support/YamlOptions.h">
<polygon fill="white" stroke="black" points="0,-280.5 0,-299.5 149,-299.5 149,-280.5 0,-280.5"/>
<text text-anchor="middle" x="74.5" y="-287.5" font-family="Helvetica,sans-Serif" font-size="10.00">pinhao/Support/YamlOptions.h</text>
</a>
</g>
</g>
<!-- Node15&#45;&gt;Node18 -->
<g id="edge25" class="edge"><title>Node15&#45;&gt;Node18</title>
<path fill="none" stroke="midnightblue" d="M256.984,-392.369C232.964,-384.361 197.508,-371.381 168.5,-356 140.932,-341.383 111.761,-320.195 93.3597,-306.025"/>
<polygon fill="midnightblue" stroke="midnightblue" points="95.2826,-303.086 85.246,-299.693 90.9758,-308.605 95.2826,-303.086"/>
</g>
<!-- Node19 -->
<g id="node20" class="node"><title>Node19</title>
<g id="a_node20"><a xlink:href="VectorFeature_8h.html" target="_top" xlink:title="pinhao/Features/VectorFeature.h">
<polygon fill="white" stroke="black" points="377,-336.5 377,-355.5 536,-355.5 536,-336.5 377,-336.5"/>
<text text-anchor="middle" x="456.5" y="-343.5" font-family="Helvetica,sans-Serif" font-size="10.00">pinhao/Features/VectorFeature.h</text>
</a>
</g>
</g>
<!-- Node15&#45;&gt;Node19 -->
<g id="edge27" class="edge"><title>Node15&#45;&gt;Node19</title>
<path fill="none" stroke="midnightblue" d="M306.665,-392.444C333.96,-383.241 380.536,-368.562 414.602,-358.388"/>
<polygon fill="midnightblue" stroke="midnightblue" points="415.7,-361.713 424.294,-355.516 413.711,-355.001 415.7,-361.713"/>
</g>
<!-- Node20 -->
<g id="node21" class="node"><title>Node20</title>
<g id="a_node21"><a xlink:href="MapFeature_8h.html" target="_top" xlink:title="pinhao/Features/MapFeature.h">
<polygon fill="white" stroke="black" points="210,-336.5 210,-355.5 359,-355.5 359,-336.5 210,-336.5"/>
<text text-anchor="middle" x="284.5" y="-343.5" font-family="Helvetica,sans-Serif" font-size="10.00">pinhao/Features/MapFeature.h</text>
</a>
</g>
</g>
<!-- Node15&#45;&gt;Node20 -->
<g id="edge30" class="edge"><title>Node15&#45;&gt;Node20</title>
<path fill="none" stroke="midnightblue" d="M279.334,-392.083C277.824,-384.927 277.394,-374.635 278.042,-365.691"/>
<polygon fill="midnightblue" stroke="midnightblue" points="281.515,-366.126 279.369,-355.751 274.577,-365.2 281.515,-366.126"/>
</g>
<!-- Node16&#45;&gt;Node13 -->
<g id="edge22" class="edge"><title>Node16&#45;&gt;Node13</title>
<path fill="none" stroke="midnightblue" d="M159.414,-168.324C149.014,-160.185 133.239,-147.839 120.778,-138.087"/>
<polygon fill="midnightblue" stroke="midnightblue" points="122.82,-135.241 112.788,-131.834 118.506,-140.753 122.82,-135.241"/>
</g>
<!-- Node16&#45;&gt;Node14 -->
<g id="edge23" class="edge"><title>Node16&#45;&gt;Node14</title>
<path fill="none" stroke="midnightblue" d="M194.268,-168.444C219.393,-159.399 259.211,-145.064 287.4,-134.916"/>
<polygon fill="midnightblue" stroke="midnightblue" points="288.62,-138.197 296.843,-131.516 286.249,-131.611 288.62,-138.197"/>
</g>
<!-- Node17 -->
<g id="node18" class="node"><title>Node17</title>
<polygon fill="white" stroke="#bfbfbf" points="164.5,-112.5 164.5,-131.5 216.5,-131.5 216.5,-112.5 164.5,-112.5"/>
<text text-anchor="middle" x="190.5" y="-119.5" font-family="Helvetica,sans-Serif" font-size="10.00">ostream</text>
</g>
<!-- Node16&#45;&gt;Node17 -->
<g id="edge24" class="edge"><title>Node16&#45;&gt;Node17</title>
<path fill="none" stroke="midnightblue" d="M173.803,-168.083C176.482,-160.849 180.349,-150.409 183.686,-141.397"/>
<polygon fill="midnightblue" stroke="midnightblue" points="187.068,-142.344 187.259,-131.751 180.504,-139.913 187.068,-142.344"/>
</g>
<!-- Node18&#45;&gt;Node13 -->
<g id="edge26" class="edge"><title>Node18&#45;&gt;Node13</title>
<path fill="none" stroke="midnightblue" d="M74.0975,-280.346C73.374,-260.285 72.7389,-209.175 82.5,-168 84.7007,-158.717 88.6364,-148.902 92.3573,-140.816"/>
<polygon fill="midnightblue" stroke="midnightblue" points="95.5803,-142.192 96.8087,-131.668 89.286,-139.129 95.5803,-142.192"/>
</g>
<!-- Node19&#45;&gt;Node2 -->
<g id="edge28" class="edge"><title>Node19&#45;&gt;Node2</title>
<path fill="none" stroke="midnightblue" d="M456.5,-336.368C456.5,-318.617 456.5,-277.666 456.5,-253.597"/>
<polygon fill="midnightblue" stroke="midnightblue" points="460,-253.591 456.5,-243.591 453,-253.591 460,-253.591"/>
</g>
<!-- Node19&#45;&gt;Node15 -->
<g id="edge29" class="edge"><title>Node19&#45;&gt;Node15</title>
<path fill="none" stroke="midnightblue" d="M434.454,-355.516C407.215,-364.703 360.649,-379.381 326.547,-389.568"/>
<polygon fill="midnightblue" stroke="midnightblue" points="325.436,-386.246 316.843,-392.444 327.425,-392.958 325.436,-386.246"/>
</g>
<!-- Node20&#45;&gt;Node2 -->
<g id="edge31" class="edge"><title>Node20&#45;&gt;Node2</title>
<path fill="none" stroke="midnightblue" d="M298.129,-336.401C312.436,-327.366 335.575,-312.725 355.5,-300 382.779,-282.578 414.111,-262.385 434.551,-249.188"/>
<polygon fill="midnightblue" stroke="midnightblue" points="436.621,-252.017 443.122,-243.651 432.823,-246.137 436.621,-252.017"/>
</g>
<!-- Node20&#45;&gt;Node15 -->
<g id="edge32" class="edge"><title>Node20&#45;&gt;Node15</title>
<path fill="none" stroke="midnightblue" d="M289.631,-355.751C291.157,-362.858 291.604,-373.136 290.972,-382.101"/>
<polygon fill="midnightblue" stroke="midnightblue" points="287.493,-381.713 289.666,-392.083 294.434,-382.622 287.493,-381.713"/>
</g>
<!-- Node20&#45;&gt;Node21 -->
<g id="edge33" class="edge"><title>Node20&#45;&gt;Node21</title>
<path fill="none" stroke="midnightblue" d="M284.5,-336.083C284.5,-329.006 284.5,-318.861 284.5,-309.986"/>
<polygon fill="midnightblue" stroke="midnightblue" points="288,-309.751 284.5,-299.751 281,-309.751 288,-309.751"/>
</g>
<!-- Node21&#45;&gt;Node2 -->
<g id="edge34" class="edge"><title>Node21&#45;&gt;Node2</title>
<path fill="none" stroke="midnightblue" d="M311.754,-280.444C340.941,-271.28 387.421,-256.688 419.809,-246.519"/>
<polygon fill="midnightblue" stroke="midnightblue" points="420.881,-249.851 429.374,-243.516 418.784,-243.173 420.881,-249.851"/>
</g>
<!-- Node21&#45;&gt;Node7 -->
<g id="edge36" class="edge"><title>Node21&#45;&gt;Node7</title>
<path fill="none" stroke="midnightblue" d="M281.377,-280.272C272.104,-252.694 247.602,-166.061 284.5,-112 303.919,-83.5483 344.262,-73.0845 371.615,-69.2368"/>
<polygon fill="midnightblue" stroke="midnightblue" points="372.228,-72.6886 381.742,-68.0277 371.398,-65.738 372.228,-72.6886"/>
</g>
<!-- Node22 -->
<g id="node23" class="node"><title>Node22</title>
<polygon fill="white" stroke="#bfbfbf" points="306,-224.5 306,-243.5 353,-243.5 353,-224.5 306,-224.5"/>
<text text-anchor="middle" x="329.5" y="-231.5" font-family="Helvetica,sans-Serif" font-size="10.00">iterator</text>
</g>
<!-- Node21&#45;&gt;Node22 -->
<g id="edge35" class="edge"><title>Node21&#45;&gt;Node22</title>
<path fill="none" stroke="midnightblue" d="M291.931,-280.083C298.353,-272.377 307.806,-261.033 315.622,-251.653"/>
<polygon fill="midnightblue" stroke="midnightblue" points="318.494,-253.674 322.207,-243.751 313.117,-249.193 318.494,-253.674"/>
</g>
<!-- Node23&#45;&gt;Node12 -->
<g id="edge40" class="edge"><title>Node23&#45;&gt;Node12</title>
<path fill="none" stroke="midnightblue" d="M710.829,-392.496C730.3,-375.442 770.5,-334.914 770.5,-291 770.5,-291 770.5,-291 770.5,-233 770.5,-194.857 800.04,-158.517 819.594,-138.64"/>
<polygon fill="midnightblue" stroke="midnightblue" points="822.061,-141.123 826.761,-131.628 817.166,-136.119 822.061,-141.123"/>
</g>
</g>
</svg>
