<?xml version="1.0" encoding="UTF-8" standalone="no"?>
<!DOCTYPE svg PUBLIC "-//W3C//DTD SVG 1.1//EN"
 "http://www.w3.org/Graphics/SVG/1.1/DTD/svg11.dtd">
<!-- Generated by graphviz version 2.38.0 (20140413.2041)
 -->
<!-- Title: /home/yukiosir/workspace/CompilerProject/Software/pinhao/lib/FeaturesImpl/CFGModuleStaticFeatures.cpp Pages: 1 -->
<!--zoomable 576 -->
<svg id="main" version="1.1" xmlns="http://www.w3.org/2000/svg" xmlns:xlink="http://www.w3.org/1999/xlink" xml:space="preserve" onload="init(evt)">
<style type="text/css"><![CDATA[
.edge:hover path { stroke: red; }
.edge:hover polygon { stroke: red; fill: red; }
]]></style>
<script type="text/javascript"><![CDATA[
var edges = document.getElementsByTagName('g');
if (edges && edges.length) {
  for (var i=0;i<edges.length;i++) {
    if (edges[i].id.substr(0,4)=='edge') {
      edges[i].setAttribute('class','edge');
    }
  }
}
]]></script>
        <defs>
                <circle id="rim" cx="0" cy="0" r="7"/>
                <circle id="rim2" cx="0" cy="0" r="3.5"/>
                <g id="zoomPlus">
                        <use xlink:href="#rim" fill="#404040">
                                <set attributeName="fill" to="#808080" begin="zoomplus.mouseover" end="zoomplus.mouseout"/>
                        </use>
                        <path d="M-4,0h8M0,-4v8" fill="none" stroke="white" stroke-width="1.5" pointer-events="none"/>
                </g>
                <g id="zoomMin">
                        <use xlink:href="#rim" fill="#404040">
                                <set attributeName="fill" to="#808080" begin="zoomminus.mouseover" end="zoomminus.mouseout"/>
                        </use>
                        <path d="M-4,0h8" fill="none" stroke="white" stroke-width="1.5" pointer-events="none"/>
                </g>
                <g id="dirArrow">
                        <path fill="none" stroke="white" stroke-width="1.5" d="M0,-3.0v7 M-2.5,-0.5L0,-3.0L2.5,-0.5"/>
                </g>
               <g id="resetDef">
                       <use xlink:href="#rim2" fill="#404040">
                               <set attributeName="fill" to="#808080" begin="reset.mouseover" end="reset.mouseout"/>
                       </use>
               </g>
        </defs>

<script type="text/javascript">
var viewWidth = 814;
var viewHeight = 576;
var sectionId = 'dynsection-0';
</script>
<script xlink:href="svgpan.js"/>
<svg id="graph" class="graph">
<g id="viewport">
<title>/home/yukiosir/workspace/CompilerProject/Software/pinhao/lib/FeaturesImpl/CFGModuleStaticFeatures.cpp</title>
<polygon fill="white" stroke="none" points="-4,4 -4,-572 809.5,-572 809.5,4 -4,4"/>
<!-- Node0 -->
<g id="node1" class="node"><title>Node0</title>
<polygon fill="#bfbfbf" stroke="black" points="317,-515.5 317,-567.5 472,-567.5 472,-515.5 317,-515.5"/>
<text text-anchor="start" x="325" y="-555.5" font-family="Helvetica,sans-Serif" font-size="10.00">/home/yukiosir/workspace</text>
<text text-anchor="start" x="325" y="-544.5" font-family="Helvetica,sans-Serif" font-size="10.00">/CompilerProject/Software</text>
<text text-anchor="start" x="325" y="-533.5" font-family="Helvetica,sans-Serif" font-size="10.00">/pinhao/lib/FeaturesImpl</text>
<text text-anchor="middle" x="394.5" y="-522.5" font-family="Helvetica,sans-Serif" font-size="10.00">/CFGModuleStaticFeatures.cpp</text>
</g>
<!-- Node1 -->
<g id="node2" class="node"><title>Node1</title>
<g id="a_node2"><a xlink:href="FeatureRegistry_8h.html" target="_top" xlink:title="This file defines a class that has all the registered features. ">
<polygon fill="white" stroke="black" points="0,-112.5 0,-131.5 167,-131.5 167,-112.5 0,-112.5"/>
<text text-anchor="middle" x="83.5" y="-119.5" font-family="Helvetica,sans-Serif" font-size="10.00">pinhao/Features/FeatureRegistry.h</text>
</a>
</g>
</g>
<!-- Node0&#45;&gt;Node1 -->
<g id="edge1" class="edge"><title>Node0&#45;&gt;Node1</title>
<path fill="none" stroke="midnightblue" d="M316.942,-536.053C231.641,-526.478 106.5,-496.498 106.5,-403 106.5,-403 106.5,-403 106.5,-233 106.5,-200.12 96.5324,-162.86 89.7208,-141.235"/>
<polygon fill="midnightblue" stroke="midnightblue" points="93.0401,-140.125 86.6019,-131.711 86.3877,-142.303 93.0401,-140.125"/>
</g>
<!-- Node5 -->
<g id="node6" class="node"><title>Node5</title>
<g id="a_node6"><a xlink:href="MapVectorFeature_8h.html" target="_top" xlink:title="pinhao/Features/MapVector\lFeature.h">
<polygon fill="white" stroke="black" points="326,-448.5 326,-478.5 463,-478.5 463,-448.5 326,-448.5"/>
<text text-anchor="start" x="334" y="-466.5" font-family="Helvetica,sans-Serif" font-size="10.00">pinhao/Features/MapVector</text>
<text text-anchor="middle" x="394.5" y="-455.5" font-family="Helvetica,sans-Serif" font-size="10.00">Feature.h</text>
</a>
</g>
</g>
<!-- Node0&#45;&gt;Node5 -->
<g id="edge5" class="edge"><title>Node0&#45;&gt;Node5</title>
<path fill="none" stroke="midnightblue" d="M394.5,-515.193C394.5,-506.786 394.5,-497.443 394.5,-489.091"/>
<polygon fill="midnightblue" stroke="midnightblue" points="398,-488.845 394.5,-478.845 391,-488.845 398,-488.845"/>
</g>
<!-- Node19 -->
<g id="node20" class="node"><title>Node19</title>
<g id="a_node20"><a xlink:href="VectorFeature_8h.html" target="_top" xlink:title="pinhao/Features/VectorFeature.h">
<polygon fill="white" stroke="black" points="195,-336.5 195,-355.5 354,-355.5 354,-336.5 195,-336.5"/>
<text text-anchor="middle" x="274.5" y="-343.5" font-family="Helvetica,sans-Serif" font-size="10.00">pinhao/Features/VectorFeature.h</text>
</a>
</g>
</g>
<!-- Node0&#45;&gt;Node19 -->
<g id="edge40" class="edge"><title>Node0&#45;&gt;Node19</title>
<path fill="none" stroke="midnightblue" d="M353.438,-515.316C340.085,-505.414 326.218,-493.036 316.5,-479 291.944,-443.534 281.18,-392.962 276.936,-365.866"/>
<polygon fill="midnightblue" stroke="midnightblue" points="280.377,-365.206 275.495,-355.803 273.448,-366.198 280.377,-365.206"/>
</g>
<!-- Node23 -->
<g id="node24" class="node"><title>Node23</title>
<polygon fill="white" stroke="#bfbfbf" points="481.5,-454 481.5,-473 561.5,-473 561.5,-454 481.5,-454"/>
<text text-anchor="middle" x="521.5" y="-461" font-family="Helvetica,sans-Serif" font-size="10.00">llvm/IR/CFG.h</text>
</g>
<!-- Node0&#45;&gt;Node23 -->
<g id="edge41" class="edge"><title>Node0&#45;&gt;Node23</title>
<path fill="none" stroke="midnightblue" d="M436.437,-515.404C457.041,-503.074 481.084,-488.686 498.341,-478.359"/>
<polygon fill="midnightblue" stroke="midnightblue" points="500.382,-481.216 507.166,-473.078 496.788,-475.21 500.382,-481.216"/>
</g>
<!-- Node24 -->
<g id="node25" class="node"><title>Node24</title>
<polygon fill="white" stroke="#bfbfbf" points="579.5,-454 579.5,-473 689.5,-473 689.5,-454 579.5,-454"/>
<text text-anchor="middle" x="634.5" y="-461" font-family="Helvetica,sans-Serif" font-size="10.00">llvm/IR/Instructions.h</text>
</g>
<!-- Node0&#45;&gt;Node24 -->
<g id="edge42" class="edge"><title>Node0&#45;&gt;Node24</title>
<path fill="none" stroke="midnightblue" d="M472.09,-515.93C514.288,-502.567 564.516,-486.662 597.826,-476.113"/>
<polygon fill="midnightblue" stroke="midnightblue" points="599.117,-479.376 607.593,-473.02 597.003,-472.703 599.117,-479.376"/>
</g>
<!-- Node2 -->
<g id="node3" class="node"><title>Node2</title>
<polygon fill="white" stroke="#bfbfbf" points="57.5,-56.5 57.5,-75.5 109.5,-75.5 109.5,-56.5 57.5,-56.5"/>
<text text-anchor="middle" x="83.5" y="-63.5" font-family="Helvetica,sans-Serif" font-size="10.00">memory</text>
</g>
<!-- Node1&#45;&gt;Node2 -->
<g id="edge2" class="edge"><title>Node1&#45;&gt;Node2</title>
<path fill="none" stroke="midnightblue" d="M83.5,-112.083C83.5,-105.006 83.5,-94.8611 83.5,-85.9865"/>
<polygon fill="midnightblue" stroke="midnightblue" points="87.0001,-85.751 83.5,-75.7511 80.0001,-85.7511 87.0001,-85.751"/>
</g>
<!-- Node3 -->
<g id="node4" class="node"><title>Node3</title>
<polygon fill="white" stroke="#bfbfbf" points="170,-56.5 170,-75.5 219,-75.5 219,-56.5 170,-56.5"/>
<text text-anchor="middle" x="194.5" y="-63.5" font-family="Helvetica,sans-Serif" font-size="10.00">cassert</text>
</g>
<!-- Node1&#45;&gt;Node3 -->
<g id="edge3" class="edge"><title>Node1&#45;&gt;Node3</title>
<path fill="none" stroke="midnightblue" d="M101.334,-112.324C119.216,-103.625 146.975,-90.1202 167.546,-80.113"/>
<polygon fill="midnightblue" stroke="midnightblue" points="169.249,-83.1765 176.71,-75.6545 166.187,-76.8819 169.249,-83.1765"/>
</g>
<!-- Node4 -->
<g id="node5" class="node"><title>Node4</title>
<polygon fill="white" stroke="#bfbfbf" points="328,-56.5 328,-75.5 363,-75.5 363,-56.5 328,-56.5"/>
<text text-anchor="middle" x="345.5" y="-63.5" font-family="Helvetica,sans-Serif" font-size="10.00">map</text>
</g>
<!-- Node1&#45;&gt;Node4 -->
<g id="edge4" class="edge"><title>Node1&#45;&gt;Node4</title>
<path fill="none" stroke="midnightblue" d="M125.015,-112.444C179.096,-101.297 272.152,-82.1175 318.14,-72.6392"/>
<polygon fill="midnightblue" stroke="midnightblue" points="318.901,-76.0559 327.989,-70.6092 317.488,-69.2 318.901,-76.0559"/>
</g>
<!-- Node6 -->
<g id="node7" class="node"><title>Node6</title>
<g id="a_node7"><a xlink:href="Features_8h.html" target="_top" xlink:title="This file implements some basic feature classes that extends the base class Feature. ">
<polygon fill="white" stroke="black" points="216.5,-224.5 216.5,-243.5 352.5,-243.5 352.5,-224.5 216.5,-224.5"/>
<text text-anchor="middle" x="284.5" y="-231.5" font-family="Helvetica,sans-Serif" font-size="10.00">pinhao/Features/Features.h</text>
</a>
</g>
</g>
<!-- Node5&#45;&gt;Node6 -->
<g id="edge6" class="edge"><title>Node5&#45;&gt;Node6</title>
<path fill="none" stroke="midnightblue" d="M329.105,-448.489C280.175,-434.207 216.565,-406.696 185.5,-356 159.549,-313.65 221.283,-270.019 258.605,-248.577"/>
<polygon fill="midnightblue" stroke="midnightblue" points="260.47,-251.545 267.5,-243.618 257.061,-245.431 260.47,-251.545"/>
</g>
<!-- Node15 -->
<g id="node16" class="node"><title>Node15</title>
<g id="a_node16"><a xlink:href="FeatureYAMLWrapper_8h.html" target="_top" xlink:title="pinhao/Support/FeatureYAMLWrapper.h">
<polygon fill="white" stroke="black" points="316.5,-392.5 316.5,-411.5 506.5,-411.5 506.5,-392.5 316.5,-392.5"/>
<text text-anchor="middle" x="411.5" y="-399.5" font-family="Helvetica,sans-Serif" font-size="10.00">pinhao/Support/FeatureYAMLWrapper.h</text>
</a>
</g>
</g>
<!-- Node5&#45;&gt;Node15 -->
<g id="edge21" class="edge"><title>Node5&#45;&gt;Node15</title>
<path fill="none" stroke="midnightblue" d="M392.689,-448.399C393.979,-440.199 396.816,-429.781 400.101,-420.994"/>
<polygon fill="midnightblue" stroke="midnightblue" points="403.38,-422.228 404.097,-411.658 396.944,-419.474 403.38,-422.228"/>
</g>
<!-- Node21 -->
<g id="node22" class="node"><title>Node21</title>
<g id="a_node22"><a xlink:href="Iterator_8h.html" target="_top" xlink:title="pinhao/Support/Iterator.h">
<polygon fill="white" stroke="black" points="374.5,-280.5 374.5,-299.5 498.5,-299.5 498.5,-280.5 374.5,-280.5"/>
<text text-anchor="middle" x="436.5" y="-287.5" font-family="Helvetica,sans-Serif" font-size="10.00">pinhao/Support/Iterator.h</text>
</a>
</g>
</g>
<!-- Node5&#45;&gt;Node21 -->
<g id="edge39" class="edge"><title>Node5&#45;&gt;Node21</title>
<path fill="none" stroke="midnightblue" d="M457.687,-448.438C478.732,-440.856 500.585,-429.346 515.5,-412 532.227,-392.548 526.365,-381.463 529.5,-356 530.586,-347.178 534.222,-343.531 529.5,-336 519.623,-320.248 502.497,-309.875 485.612,-303.106"/>
<polygon fill="midnightblue" stroke="midnightblue" points="486.349,-299.65 475.755,-299.525 483.958,-306.23 486.349,-299.65"/>
</g>
<!-- Node7 -->
<g id="node8" class="node"><title>Node7</title>
<g id="a_node8"><a xlink:href="Feature_8h.html" target="_top" xlink:title="This file defines the base feature class. ">
<polygon fill="white" stroke="black" points="220,-168.5 220,-187.5 351,-187.5 351,-168.5 220,-168.5"/>
<text text-anchor="middle" x="285.5" y="-175.5" font-family="Helvetica,sans-Serif" font-size="10.00">pinhao/Features/Feature.h</text>
</a>
</g>
</g>
<!-- Node6&#45;&gt;Node7 -->
<g id="edge7" class="edge"><title>Node6&#45;&gt;Node7</title>
<path fill="none" stroke="midnightblue" d="M284.665,-224.083C284.796,-217.006 284.984,-206.861 285.148,-197.986"/>
<polygon fill="midnightblue" stroke="midnightblue" points="288.652,-197.814 285.338,-187.751 281.653,-197.685 288.652,-197.814"/>
</g>
<!-- Node7&#45;&gt;Node1 -->
<g id="edge15" class="edge"><title>Node7&#45;&gt;Node1</title>
<path fill="none" stroke="midnightblue" d="M253.492,-168.444C218.771,-159.162 163.212,-144.309 125.123,-134.127"/>
<polygon fill="midnightblue" stroke="midnightblue" points="125.922,-130.718 115.358,-131.516 124.115,-137.48 125.922,-130.718"/>
</g>
<!-- Node7&#45;&gt;Node3 -->
<g id="edge19" class="edge"><title>Node7&#45;&gt;Node3</title>
<path fill="none" stroke="midnightblue" d="M263.575,-168.413C247.496,-161.043 226.317,-148.92 213.5,-132 203.305,-118.541 198.569,-99.7277 196.376,-85.8023"/>
<polygon fill="midnightblue" stroke="midnightblue" points="199.847,-85.3531 195.106,-75.8782 192.904,-86.2415 199.847,-85.3531"/>
</g>
<!-- Node7&#45;&gt;Node4 -->
<g id="edge18" class="edge"><title>Node7&#45;&gt;Node4</title>
<path fill="none" stroke="midnightblue" d="M294.16,-168.383C302.389,-159.795 314.641,-145.915 322.5,-132 330.778,-117.343 336.902,-99.1748 340.74,-85.7759"/>
<polygon fill="midnightblue" stroke="midnightblue" points="344.199,-86.3907 343.424,-75.8243 337.441,-84.568 344.199,-86.3907"/>
</g>
<!-- Node8 -->
<g id="node9" class="node"><title>Node8</title>
<g id="a_node9"><a xlink:href="FeatureInfo_8h.html" target="_top" xlink:title="This file defines a class that holds some informations about a feature. ">
<polygon fill="white" stroke="black" points="409,-112.5 409,-131.5 556,-131.5 556,-112.5 409,-112.5"/>
<text text-anchor="middle" x="482.5" y="-119.5" font-family="Helvetica,sans-Serif" font-size="10.00">pinhao/Features/FeatureInfo.h</text>
</a>
</g>
</g>
<!-- Node7&#45;&gt;Node8 -->
<g id="edge8" class="edge"><title>Node7&#45;&gt;Node8</title>
<path fill="none" stroke="midnightblue" d="M316.715,-168.444C350.433,-159.201 404.3,-144.436 441.432,-134.257"/>
<polygon fill="midnightblue" stroke="midnightblue" points="442.712,-137.536 451.431,-131.516 440.861,-130.785 442.712,-137.536"/>
</g>
<!-- Node12 -->
<g id="node13" class="node"><title>Node12</title>
<polygon fill="white" stroke="#bfbfbf" points="223,-112.5 223,-131.5 314,-131.5 314,-112.5 223,-112.5"/>
<text text-anchor="middle" x="268.5" y="-119.5" font-family="Helvetica,sans-Serif" font-size="10.00">llvm/IR/Module.h</text>
</g>
<!-- Node7&#45;&gt;Node12 -->
<g id="edge16" class="edge"><title>Node7&#45;&gt;Node12</title>
<path fill="none" stroke="midnightblue" d="M282.693,-168.083C280.415,-160.849 277.129,-150.409 274.292,-141.397"/>
<polygon fill="midnightblue" stroke="midnightblue" points="277.596,-140.239 271.255,-131.751 270.919,-142.341 277.596,-140.239"/>
</g>
<!-- Node13 -->
<g id="node14" class="node"><title>Node13</title>
<polygon fill="white" stroke="#bfbfbf" points="574,-112.5 574,-131.5 663,-131.5 663,-112.5 574,-112.5"/>
<text text-anchor="middle" x="618.5" y="-119.5" font-family="Helvetica,sans-Serif" font-size="10.00">yaml&#45;cpp/yaml.h</text>
</g>
<!-- Node7&#45;&gt;Node13 -->
<g id="edge17" class="edge"><title>Node7&#45;&gt;Node13</title>
<path fill="none" stroke="midnightblue" d="M338.74,-168.498C392.754,-159.853 479.059,-145.988 563.673,-132.129"/>
<polygon fill="midnightblue" stroke="midnightblue" points="564.412,-135.554 573.714,-130.483 563.279,-128.647 564.412,-135.554"/>
</g>
<!-- Node14 -->
<g id="node15" class="node"><title>Node14</title>
<polygon fill="white" stroke="#bfbfbf" points="681.5,-112.5 681.5,-131.5 735.5,-131.5 735.5,-112.5 681.5,-112.5"/>
<text text-anchor="middle" x="708.5" y="-119.5" font-family="Helvetica,sans-Serif" font-size="10.00">iostream</text>
</g>
<!-- Node7&#45;&gt;Node14 -->
<g id="edge20" class="edge"><title>Node7&#45;&gt;Node14</title>
<path fill="none" stroke="midnightblue" d="M351.082,-171.821C426.062,-165.347 552.61,-152.738 671.126,-131.843"/>
<polygon fill="midnightblue" stroke="midnightblue" points="671.872,-135.265 681.1,-130.061 670.641,-128.374 671.872,-135.265"/>
</g>
<!-- Node8&#45;&gt;Node3 -->
<g id="edge14" class="edge"><title>Node8&#45;&gt;Node3</title>
<path fill="none" stroke="midnightblue" d="M436.866,-112.444C379.143,-101.621 281.028,-83.224 229.105,-73.4884"/>
<polygon fill="midnightblue" stroke="midnightblue" points="229.533,-70.0078 219.06,-71.6049 228.243,-76.8879 229.533,-70.0078"/>
</g>
<!-- Node8&#45;&gt;Node4 -->
<g id="edge11" class="edge"><title>Node8&#45;&gt;Node4</title>
<path fill="none" stroke="midnightblue" d="M460.792,-112.444C436.946,-103.045 398.609,-87.9336 372.758,-77.7438"/>
<polygon fill="midnightblue" stroke="midnightblue" points="373.772,-74.3819 363.186,-73.971 371.206,-80.8943 373.772,-74.3819"/>
</g>
<!-- Node9 -->
<g id="node10" class="node"><title>Node9</title>
<g id="a_node10"><a xlink:href="Types_8h.html" target="_top" xlink:title="pinhao/Support/Types.h">
<polygon fill="white" stroke="black" points="422.5,-56.5 422.5,-75.5 542.5,-75.5 542.5,-56.5 422.5,-56.5"/>
<text text-anchor="middle" x="482.5" y="-63.5" font-family="Helvetica,sans-Serif" font-size="10.00">pinhao/Support/Types.h</text>
</a>
</g>
</g>
<!-- Node8&#45;&gt;Node9 -->
<g id="edge9" class="edge"><title>Node8&#45;&gt;Node9</title>
<path fill="none" stroke="midnightblue" d="M482.5,-112.083C482.5,-105.006 482.5,-94.8611 482.5,-85.9865"/>
<polygon fill="midnightblue" stroke="midnightblue" points="486,-85.751 482.5,-75.7511 479,-85.7511 486,-85.751"/>
</g>
<!-- Node10 -->
<g id="node11" class="node"><title>Node10</title>
<polygon fill="white" stroke="#bfbfbf" points="418,-0.5 418,-19.5 459,-19.5 459,-0.5 418,-0.5"/>
<text text-anchor="middle" x="438.5" y="-7.5" font-family="Helvetica,sans-Serif" font-size="10.00">string</text>
</g>
<!-- Node8&#45;&gt;Node10 -->
<g id="edge13" class="edge"><title>Node8&#45;&gt;Node10</title>
<path fill="none" stroke="midnightblue" d="M458.712,-112.499C442.779,-105.413 423.037,-93.6052 413.5,-76 404.997,-60.3026 414.619,-41.0891 424.288,-27.6377"/>
<polygon fill="midnightblue" stroke="midnightblue" points="427.068,-29.7634 430.457,-19.7252 421.548,-25.459 427.068,-29.7634"/>
</g>
<!-- Node11 -->
<g id="node12" class="node"><title>Node11</title>
<polygon fill="white" stroke="#bfbfbf" points="560.5,-56.5 560.5,-75.5 604.5,-75.5 604.5,-56.5 560.5,-56.5"/>
<text text-anchor="middle" x="582.5" y="-63.5" font-family="Helvetica,sans-Serif" font-size="10.00">vector</text>
</g>
<!-- Node8&#45;&gt;Node11 -->
<g id="edge12" class="edge"><title>Node8&#45;&gt;Node11</title>
<path fill="none" stroke="midnightblue" d="M498.567,-112.324C514.458,-103.743 539.007,-90.486 557.458,-80.5224"/>
<polygon fill="midnightblue" stroke="midnightblue" points="559.337,-83.4857 566.473,-75.6545 556.011,-77.3264 559.337,-83.4857"/>
</g>
<!-- Node9&#45;&gt;Node10 -->
<g id="edge10" class="edge"><title>Node9&#45;&gt;Node10</title>
<path fill="none" stroke="midnightblue" d="M475.234,-56.083C468.955,-48.3768 459.712,-37.0333 452.069,-27.6531"/>
<polygon fill="midnightblue" stroke="midnightblue" points="454.661,-25.2926 445.631,-19.7511 449.234,-29.7143 454.661,-25.2926"/>
</g>
<!-- Node15&#45;&gt;Node5 -->
<g id="edge38" class="edge"><title>Node15&#45;&gt;Node5</title>
<path fill="none" stroke="midnightblue" d="M413.956,-411.658C413.451,-418.805 411.017,-429.297 407.864,-438.897"/>
<polygon fill="midnightblue" stroke="midnightblue" points="404.536,-437.806 404.369,-448.399 411.106,-440.222 404.536,-437.806"/>
</g>
<!-- Node16 -->
<g id="node17" class="node"><title>Node16</title>
<g id="a_node17"><a xlink:href="YAMLWrapper_8h.html" target="_top" xlink:title="pinhao/Support/YAMLWrapper.h">
<polygon fill="white" stroke="black" points="629,-168.5 629,-187.5 786,-187.5 786,-168.5 629,-168.5"/>
<text text-anchor="middle" x="707.5" y="-175.5" font-family="Helvetica,sans-Serif" font-size="10.00">pinhao/Support/YAMLWrapper.h</text>
</a>
</g>
</g>
<!-- Node15&#45;&gt;Node16 -->
<g id="edge22" class="edge"><title>Node15&#45;&gt;Node16</title>
<path fill="none" stroke="midnightblue" d="M491.726,-392.484C552.945,-381.568 634.373,-356.684 680.5,-300 704.533,-270.466 708.244,-223.969 708.243,-198.056"/>
<polygon fill="midnightblue" stroke="midnightblue" points="711.736,-197.663 708.041,-187.734 704.737,-197.8 711.736,-197.663"/>
</g>
<!-- Node18 -->
<g id="node19" class="node"><title>Node18</title>
<g id="a_node19"><a xlink:href="YamlOptions_8h.html" target="_top" xlink:title="pinhao/Support/YamlOptions.h">
<polygon fill="white" stroke="black" points="523,-280.5 523,-299.5 672,-299.5 672,-280.5 523,-280.5"/>
<text text-anchor="middle" x="597.5" y="-287.5" font-family="Helvetica,sans-Serif" font-size="10.00">pinhao/Support/YamlOptions.h</text>
</a>
</g>
</g>
<!-- Node15&#45;&gt;Node18 -->
<g id="edge26" class="edge"><title>Node15&#45;&gt;Node18</title>
<path fill="none" stroke="midnightblue" d="M443.913,-392.459C468.575,-385.081 502.718,-372.925 529.5,-356 550.735,-342.58 571,-321.822 583.796,-307.388"/>
<polygon fill="midnightblue" stroke="midnightblue" points="586.528,-309.578 590.417,-299.723 581.231,-305.002 586.528,-309.578"/>
</g>
<!-- Node15&#45;&gt;Node19 -->
<g id="edge28" class="edge"><title>Node15&#45;&gt;Node19</title>
<path fill="none" stroke="midnightblue" d="M384.703,-392.444C360.207,-383.557 324.472,-369.563 300.3,-359.451"/>
<polygon fill="midnightblue" stroke="midnightblue" points="301.599,-356.201 291.027,-355.516 298.865,-362.645 301.599,-356.201"/>
</g>
<!-- Node20 -->
<g id="node21" class="node"><title>Node20</title>
<g id="a_node21"><a xlink:href="MapFeature_8h.html" target="_top" xlink:title="pinhao/Features/MapFeature.h">
<polygon fill="white" stroke="black" points="372,-336.5 372,-355.5 521,-355.5 521,-336.5 372,-336.5"/>
<text text-anchor="middle" x="446.5" y="-343.5" font-family="Helvetica,sans-Serif" font-size="10.00">pinhao/Features/MapFeature.h</text>
</a>
</g>
</g>
<!-- Node15&#45;&gt;Node20 -->
<g id="edge31" class="edge"><title>Node15&#45;&gt;Node20</title>
<path fill="none" stroke="midnightblue" d="M412.113,-392.083C415.482,-384.377 422.46,-373.033 429.418,-363.653"/>
<polygon fill="midnightblue" stroke="midnightblue" points="432.216,-365.758 435.697,-355.751 426.735,-361.403 432.216,-365.758"/>
</g>
<!-- Node16&#45;&gt;Node13 -->
<g id="edge23" class="edge"><title>Node16&#45;&gt;Node13</title>
<path fill="none" stroke="midnightblue" d="M693.201,-168.324C679.317,-159.9 658.008,-146.971 641.696,-137.074"/>
<polygon fill="midnightblue" stroke="midnightblue" points="643.129,-133.85 632.764,-131.655 639.498,-139.834 643.129,-133.85"/>
</g>
<!-- Node16&#45;&gt;Node14 -->
<g id="edge24" class="edge"><title>Node16&#45;&gt;Node14</title>
<path fill="none" stroke="midnightblue" d="M707.665,-168.083C707.796,-161.006 707.984,-150.861 708.148,-141.986"/>
<polygon fill="midnightblue" stroke="midnightblue" points="711.652,-141.814 708.338,-131.751 704.653,-141.685 711.652,-141.814"/>
</g>
<!-- Node17 -->
<g id="node18" class="node"><title>Node17</title>
<polygon fill="white" stroke="#bfbfbf" points="753.5,-112.5 753.5,-131.5 805.5,-131.5 805.5,-112.5 753.5,-112.5"/>
<text text-anchor="middle" x="779.5" y="-119.5" font-family="Helvetica,sans-Serif" font-size="10.00">ostream</text>
</g>
<!-- Node16&#45;&gt;Node17 -->
<g id="edge25" class="edge"><title>Node16&#45;&gt;Node17</title>
<path fill="none" stroke="midnightblue" d="M719.068,-168.324C729.92,-160.185 746.381,-147.839 759.383,-138.087"/>
<polygon fill="midnightblue" stroke="midnightblue" points="761.821,-140.634 767.721,-131.834 757.621,-135.034 761.821,-140.634"/>
</g>
<!-- Node18&#45;&gt;Node13 -->
<g id="edge27" class="edge"><title>Node18&#45;&gt;Node13</title>
<path fill="none" stroke="midnightblue" d="M598.629,-280.075C601.935,-253.945 611.642,-177.211 616.15,-141.577"/>
<polygon fill="midnightblue" stroke="midnightblue" points="619.633,-141.928 617.416,-131.568 612.689,-141.05 619.633,-141.928"/>
</g>
<!-- Node19&#45;&gt;Node6 -->
<g id="edge29" class="edge"><title>Node19&#45;&gt;Node6</title>
<path fill="none" stroke="midnightblue" d="M275.285,-336.368C276.898,-318.617 280.621,-277.666 282.809,-253.597"/>
<polygon fill="midnightblue" stroke="midnightblue" points="286.299,-253.867 283.719,-243.591 279.328,-253.233 286.299,-253.867"/>
</g>
<!-- Node19&#45;&gt;Node15 -->
<g id="edge30" class="edge"><title>Node19&#45;&gt;Node15</title>
<path fill="none" stroke="midnightblue" d="M301.186,-355.516C325.648,-364.388 361.384,-378.38 385.591,-388.503"/>
<polygon fill="midnightblue" stroke="midnightblue" points="384.308,-391.76 394.881,-392.444 387.042,-385.316 384.308,-391.76"/>
</g>
<!-- Node20&#45;&gt;Node6 -->
<g id="edge32" class="edge"><title>Node20&#45;&gt;Node6</title>
<path fill="none" stroke="midnightblue" d="M429.252,-336.498C412.507,-327.995 386.597,-314.177 365.5,-300 342.519,-284.557 317.962,-264.252 301.99,-250.476"/>
<polygon fill="midnightblue" stroke="midnightblue" points="303.902,-247.499 294.064,-243.566 299.302,-252.775 303.902,-247.499"/>
</g>
<!-- Node20&#45;&gt;Node15 -->
<g id="edge33" class="edge"><title>Node20&#45;&gt;Node15</title>
<path fill="none" stroke="midnightblue" d="M445.959,-355.751C442.642,-363.405 435.69,-374.736 428.733,-384.144"/>
<polygon fill="midnightblue" stroke="midnightblue" points="425.91,-382.07 422.446,-392.083 431.398,-386.416 425.91,-382.07"/>
</g>
<!-- Node20&#45;&gt;Node21 -->
<g id="edge34" class="edge"><title>Node20&#45;&gt;Node21</title>
<path fill="none" stroke="midnightblue" d="M444.849,-336.083C443.524,-328.927 441.618,-318.635 439.961,-309.691"/>
<polygon fill="midnightblue" stroke="midnightblue" points="443.383,-308.947 438.121,-299.751 436.5,-310.221 443.383,-308.947"/>
</g>
<!-- Node21&#45;&gt;Node4 -->
<g id="edge37" class="edge"><title>Node21&#45;&gt;Node4</title>
<path fill="none" stroke="midnightblue" d="M428.77,-280.251C421.427,-271.565 410.496,-257.615 403.5,-244 375.603,-189.714 357.314,-119.261 349.63,-85.9895"/>
<polygon fill="midnightblue" stroke="midnightblue" points="352.961,-84.8497 347.355,-75.8592 346.131,-86.383 352.961,-84.8497"/>
</g>
<!-- Node21&#45;&gt;Node6 -->
<g id="edge35" class="edge"><title>Node21&#45;&gt;Node6</title>
<path fill="none" stroke="midnightblue" d="M412.415,-280.444C386.955,-271.399 346.606,-257.064 318.041,-246.916"/>
<polygon fill="midnightblue" stroke="midnightblue" points="319.067,-243.566 308.472,-243.516 316.723,-250.162 319.067,-243.566"/>
</g>
<!-- Node22 -->
<g id="node23" class="node"><title>Node22</title>
<polygon fill="white" stroke="#bfbfbf" points="413,-224.5 413,-243.5 460,-243.5 460,-224.5 413,-224.5"/>
<text text-anchor="middle" x="436.5" y="-231.5" font-family="Helvetica,sans-Serif" font-size="10.00">iterator</text>
</g>
<!-- Node21&#45;&gt;Node22 -->
<g id="edge36" class="edge"><title>Node21&#45;&gt;Node22</title>
<path fill="none" stroke="midnightblue" d="M436.5,-280.083C436.5,-273.006 436.5,-262.861 436.5,-253.986"/>
<polygon fill="midnightblue" stroke="midnightblue" points="440,-253.751 436.5,-243.751 433,-253.751 440,-253.751"/>
</g>
</g>
</svg>
        <g id="navigator" transform="translate(0 0)" fill="#404254">
                <rect fill="#f2f5e9" fill-opacity="0.5" stroke="#606060" stroke-width=".5" x="0" y="0" width="60" height="60"/>
                <use id="zoomplus" xlink:href="#zoomPlus" x="17" y="9" onmousedown="handleZoom(evt,'in')"/>
                <use id="zoomminus" xlink:href="#zoomMin" x="42" y="9" onmousedown="handleZoom(evt,'out')"/>
                <use id="reset" xlink:href="#resetDef" x="30" y="36" onmousedown="handleReset()"/>
                <g id="arrowUp" xlink:href="#dirArrow" transform="translate(30 24)" onmousedown="handlePan(0,-1)">
                  <use xlink:href="#rim" fill="#404040">
                        <set attributeName="fill" to="#808080" begin="arrowUp.mouseover" end="arrowUp.mouseout"/>
                  </use>
                  <path fill="none" stroke="white" stroke-width="1.5" d="M0,-3.0v7 M-2.5,-0.5L0,-3.0L2.5,-0.5"/>
                </g>
                <g id="arrowRight" xlink:href="#dirArrow" transform="rotate(90) translate(36 -43)" onmousedown="handlePan(1,0)">
                  <use xlink:href="#rim" fill="#404040">
                        <set attributeName="fill" to="#808080" begin="arrowRight.mouseover" end="arrowRight.mouseout"/>
                  </use>
                  <path fill="none" stroke="white" stroke-width="1.5" d="M0,-3.0v7 M-2.5,-0.5L0,-3.0L2.5,-0.5"/>
                </g>
                <g id="arrowDown" xlink:href="#dirArrow" transform="rotate(180) translate(-30 -48)" onmousedown="handlePan(0,1)">
                  <use xlink:href="#rim" fill="#404040">
                        <set attributeName="fill" to="#808080" begin="arrowDown.mouseover" end="arrowDown.mouseout"/>
                  </use>
                  <path fill="none" stroke="white" stroke-width="1.5" d="M0,-3.0v7 M-2.5,-0.5L0,-3.0L2.5,-0.5"/>
                </g>
                <g id="arrowLeft" xlink:href="#dirArrow" transform="rotate(270) translate(-36 17)" onmousedown="handlePan(-1,0)">
                  <use xlink:href="#rim" fill="#404040">
                        <set attributeName="fill" to="#808080" begin="arrowLeft.mouseover" end="arrowLeft.mouseout"/>
                  </use>
                  <path fill="none" stroke="white" stroke-width="1.5" d="M0,-3.0v7 M-2.5,-0.5L0,-3.0L2.5,-0.5"/>
                </g>
        </g>
        <svg viewBox="0 0 15 15" width="100%" height="30px" preserveAspectRatio="xMaxYMin meet">
         <g id="arrow_out" transform="scale(0.3 0.3)">
          <a xlink:href="CFGModuleStaticFeatures_8cpp__incl_org.svg" target="_base">
           <rect id="button" ry="5" rx="5" y="6" x="6" height="38" width="38"
                fill="#f2f5e9" fill-opacity="0.5" stroke="#606060" stroke-width="1.0"/>
           <path id="arrow"
             d="M 11.500037,31.436501 C 11.940474,20.09759 22.043105,11.32322 32.158766,21.979434 L 37.068811,17.246167 C 37.068811,17.246167 37.088388,32 37.088388,32 L 22.160133,31.978069 C 22.160133,31.978069 26.997745,27.140456 26.997745,27.140456 C 18.528582,18.264221 13.291696,25.230495 11.500037,31.436501 z"
             style="fill:#404040;"/>
          </a>
         </g>
        </svg>
</svg>
