<?xml version="1.0" encoding="UTF-8" standalone="no"?>
<!DOCTYPE svg PUBLIC "-//W3C//DTD SVG 1.1//EN"
 "http://www.w3.org/Graphics/SVG/1.1/DTD/svg11.dtd">
<!-- Generated by graphviz version 2.38.0 (20140413.2041)
 -->
<!-- Title: /home/yukiosir/workspace/CompilerProject/Software/pinhao/lib/FeaturesImpl/CFGModuleStaticFeatures.cpp Pages: 1 -->
<!--zoomable 576 -->
<svg id="main" version="1.1" xmlns="http://www.w3.org/2000/svg" xmlns:xlink="http://www.w3.org/1999/xlink" xml:space="preserve" onload="init(evt)">
<style type="text/css"><![CDATA[
.edge:hover path { stroke: red; }
.edge:hover polygon { stroke: red; fill: red; }
]]></style>
<script type="text/javascript"><![CDATA[
var edges = document.getElementsByTagName('g');
if (edges && edges.length) {
  for (var i=0;i<edges.length;i++) {
    if (edges[i].id.substr(0,4)=='edge') {
      edges[i].setAttribute('class','edge');
    }
  }
}
]]></script>
        <defs>
                <circle id="rim" cx="0" cy="0" r="7"/>
                <circle id="rim2" cx="0" cy="0" r="3.5"/>
                <g id="zoomPlus">
                        <use xlink:href="#rim" fill="#404040">
                                <set attributeName="fill" to="#808080" begin="zoomplus.mouseover" end="zoomplus.mouseout"/>
                        </use>
                        <path d="M-4,0h8M0,-4v8" fill="none" stroke="white" stroke-width="1.5" pointer-events="none"/>
                </g>
                <g id="zoomMin">
                        <use xlink:href="#rim" fill="#404040">
                                <set attributeName="fill" to="#808080" begin="zoomminus.mouseover" end="zoomminus.mouseout"/>
                        </use>
                        <path d="M-4,0h8" fill="none" stroke="white" stroke-width="1.5" pointer-events="none"/>
                </g>
                <g id="dirArrow">
                        <path fill="none" stroke="white" stroke-width="1.5" d="M0,-3.0v7 M-2.5,-0.5L0,-3.0L2.5,-0.5"/>
                </g>
               <g id="resetDef">
                       <use xlink:href="#rim2" fill="#404040">
                               <set attributeName="fill" to="#808080" begin="reset.mouseover" end="reset.mouseout"/>
                       </use>
               </g>
        </defs>

<script type="text/javascript">
var viewWidth = 883;
var viewHeight = 576;
var sectionId = 'dynsection-0';
</script>
<script xlink:href="svgpan.js"/>
<svg id="graph" class="graph">
<g id="viewport">
<title>/home/yukiosir/workspace/CompilerProject/Software/pinhao/lib/FeaturesImpl/CFGModuleStaticFeatures.cpp</title>
<polygon fill="white" stroke="none" points="-4,4 -4,-572 878.5,-572 878.5,4 -4,4"/>
<!-- Node0 -->
<g id="node1" class="node"><title>Node0</title>
<polygon fill="#bfbfbf" stroke="black" points="363.5,-515.5 363.5,-567.5 518.5,-567.5 518.5,-515.5 363.5,-515.5"/>
<text text-anchor="start" x="371.5" y="-555.5" font-family="Helvetica,sans-Serif" font-size="10.00">/home/yukiosir/workspace</text>
<text text-anchor="start" x="371.5" y="-544.5" font-family="Helvetica,sans-Serif" font-size="10.00">/CompilerProject/Software</text>
<text text-anchor="start" x="371.5" y="-533.5" font-family="Helvetica,sans-Serif" font-size="10.00">/pinhao/lib/FeaturesImpl</text>
<text text-anchor="middle" x="441" y="-522.5" font-family="Helvetica,sans-Serif" font-size="10.00">/CFGModuleStaticFeatures.cpp</text>
</g>
<!-- Node1 -->
<g id="node2" class="node"><title>Node1</title>
<g id="a_node2"><a xlink:href="FeatureRegistry_8h.html" target="_top" xlink:title="This file defines a class that has all the registered features. ">
<polygon fill="white" stroke="black" points="65.5,-112.5 65.5,-131.5 232.5,-131.5 232.5,-112.5 65.5,-112.5"/>
<text text-anchor="middle" x="149" y="-119.5" font-family="Helvetica,sans-Serif" font-size="10.00">pinhao/Features/FeatureRegistry.h</text>
</a>
</g>
</g>
<!-- Node0&#45;&gt;Node1 -->
<g id="edge1" class="edge"><title>Node0&#45;&gt;Node1</title>
<path fill="none" stroke="midnightblue" d="M363.426,-532.414C236.886,-517.048 0,-478.235 0,-403 0,-403 0,-403 0,-233 0,-179.94 61.9123,-149.579 105.919,-134.7"/>
<polygon fill="midnightblue" stroke="midnightblue" points="107.121,-137.99 115.561,-131.587 104.97,-131.329 107.121,-137.99"/>
</g>
<!-- Node5 -->
<g id="node6" class="node"><title>Node5</title>
<g id="a_node6"><a xlink:href="MapVectorFeature_8h.html" target="_top" xlink:title="pinhao/Features/MapVector\lFeature.h">
<polygon fill="white" stroke="black" points="324.5,-448.5 324.5,-478.5 461.5,-478.5 461.5,-448.5 324.5,-448.5"/>
<text text-anchor="start" x="332.5" y="-466.5" font-family="Helvetica,sans-Serif" font-size="10.00">pinhao/Features/MapVector</text>
<text text-anchor="middle" x="393" y="-455.5" font-family="Helvetica,sans-Serif" font-size="10.00">Feature.h</text>
</a>
</g>
</g>
<!-- Node0&#45;&gt;Node5 -->
<g id="edge5" class="edge"><title>Node0&#45;&gt;Node5</title>
<path fill="none" stroke="midnightblue" d="M425.017,-515.193C419.349,-506.22 413.008,-496.179 407.474,-487.416"/>
<polygon fill="midnightblue" stroke="midnightblue" points="410.359,-485.431 402.06,-478.845 404.441,-489.169 410.359,-485.431"/>
</g>
<!-- Node19 -->
<g id="node20" class="node"><title>Node19</title>
<g id="a_node20"><a xlink:href="VectorFeature_8h.html" target="_top" xlink:title="pinhao/Features/VectorFeature.h">
<polygon fill="white" stroke="black" points="141.5,-336.5 141.5,-355.5 300.5,-355.5 300.5,-336.5 141.5,-336.5"/>
<text text-anchor="middle" x="221" y="-343.5" font-family="Helvetica,sans-Serif" font-size="10.00">pinhao/Features/VectorFeature.h</text>
</a>
</g>
</g>
<!-- Node0&#45;&gt;Node19 -->
<g id="edge40" class="edge"><title>Node0&#45;&gt;Node19</title>
<path fill="none" stroke="midnightblue" d="M374.134,-515.406C353.851,-505.885 332.363,-493.715 315,-479 275.605,-445.613 244.378,-392.244 229.859,-364.71"/>
<polygon fill="midnightblue" stroke="midnightblue" points="232.817,-362.81 225.13,-355.518 226.593,-366.012 232.817,-362.81"/>
</g>
<!-- Node23 -->
<g id="node24" class="node"><title>Node23</title>
<g id="a_node24"><a xlink:href="InitializationRoutines_8h.html" target="_top" xlink:title="pinhao/InitializationRoutines.h">
<polygon fill="white" stroke="black" points="727.5,-392.5 727.5,-411.5 874.5,-411.5 874.5,-392.5 727.5,-392.5"/>
<text text-anchor="middle" x="801" y="-399.5" font-family="Helvetica,sans-Serif" font-size="10.00">pinhao/InitializationRoutines.h</text>
</a>
</g>
</g>
<!-- Node0&#45;&gt;Node23 -->
<g id="edge41" class="edge"><title>Node0&#45;&gt;Node23</title>
<path fill="none" stroke="midnightblue" d="M452.501,-515.304C463.725,-493.76 482.921,-463.806 509,-448 526.641,-437.308 637.417,-422.284 717.31,-412.594"/>
<polygon fill="midnightblue" stroke="midnightblue" points="717.872,-416.052 727.382,-411.381 717.035,-409.102 717.872,-416.052"/>
</g>
<!-- Node24 -->
<g id="node25" class="node"><title>Node24</title>
<polygon fill="white" stroke="#bfbfbf" points="518,-454 518,-473 598,-473 598,-454 518,-454"/>
<text text-anchor="middle" x="558" y="-461" font-family="Helvetica,sans-Serif" font-size="10.00">llvm/IR/CFG.h</text>
</g>
<!-- Node0&#45;&gt;Node24 -->
<g id="edge43" class="edge"><title>Node0&#45;&gt;Node24</title>
<path fill="none" stroke="midnightblue" d="M479.634,-515.404C498.441,-503.188 520.356,-488.952 536.222,-478.647"/>
<polygon fill="midnightblue" stroke="midnightblue" points="538.315,-481.46 544.795,-473.078 534.502,-475.59 538.315,-481.46"/>
</g>
<!-- Node25 -->
<g id="node26" class="node"><title>Node25</title>
<polygon fill="white" stroke="#bfbfbf" points="616,-454 616,-473 726,-473 726,-454 616,-454"/>
<text text-anchor="middle" x="671" y="-461" font-family="Helvetica,sans-Serif" font-size="10.00">llvm/IR/Instructions.h</text>
</g>
<!-- Node0&#45;&gt;Node25 -->
<g id="edge44" class="edge"><title>Node0&#45;&gt;Node25</title>
<path fill="none" stroke="midnightblue" d="M516.948,-515.404C556.855,-502.217 603.883,-486.678 635.386,-476.268"/>
<polygon fill="midnightblue" stroke="midnightblue" points="636.644,-479.539 645.041,-473.078 634.447,-472.892 636.644,-479.539"/>
</g>
<!-- Node2 -->
<g id="node3" class="node"><title>Node2</title>
<polygon fill="white" stroke="#bfbfbf" points="123,-56.5 123,-75.5 175,-75.5 175,-56.5 123,-56.5"/>
<text text-anchor="middle" x="149" y="-63.5" font-family="Helvetica,sans-Serif" font-size="10.00">memory</text>
</g>
<!-- Node1&#45;&gt;Node2 -->
<g id="edge2" class="edge"><title>Node1&#45;&gt;Node2</title>
<path fill="none" stroke="midnightblue" d="M149,-112.083C149,-105.006 149,-94.8611 149,-85.9865"/>
<polygon fill="midnightblue" stroke="midnightblue" points="152.5,-85.751 149,-75.7511 145.5,-85.7511 152.5,-85.751"/>
</g>
<!-- Node3 -->
<g id="node4" class="node"><title>Node3</title>
<polygon fill="white" stroke="#bfbfbf" points="266.5,-56.5 266.5,-75.5 315.5,-75.5 315.5,-56.5 266.5,-56.5"/>
<text text-anchor="middle" x="291" y="-63.5" font-family="Helvetica,sans-Serif" font-size="10.00">cassert</text>
</g>
<!-- Node1&#45;&gt;Node3 -->
<g id="edge3" class="edge"><title>Node1&#45;&gt;Node3</title>
<path fill="none" stroke="midnightblue" d="M171.5,-112.444C195.077,-103.478 232.322,-89.314 258.964,-79.1827"/>
<polygon fill="midnightblue" stroke="midnightblue" points="260.502,-82.3424 268.605,-75.5164 258.014,-75.7995 260.502,-82.3424"/>
</g>
<!-- Node4 -->
<g id="node5" class="node"><title>Node4</title>
<polygon fill="white" stroke="#bfbfbf" points="200.5,-56.5 200.5,-75.5 235.5,-75.5 235.5,-56.5 200.5,-56.5"/>
<text text-anchor="middle" x="218" y="-63.5" font-family="Helvetica,sans-Serif" font-size="10.00">map</text>
</g>
<!-- Node1&#45;&gt;Node4 -->
<g id="edge4" class="edge"><title>Node1&#45;&gt;Node4</title>
<path fill="none" stroke="midnightblue" d="M160.086,-112.324C170.486,-104.185 186.261,-91.8395 198.722,-82.0874"/>
<polygon fill="midnightblue" stroke="midnightblue" points="200.994,-84.7533 206.712,-75.8339 196.68,-79.2407 200.994,-84.7533"/>
</g>
<!-- Node6 -->
<g id="node7" class="node"><title>Node6</title>
<g id="a_node7"><a xlink:href="Features_8h.html" target="_top" xlink:title="This file implements some basic feature classes that extends the base class Feature. ">
<polygon fill="white" stroke="black" points="325,-224.5 325,-243.5 461,-243.5 461,-224.5 325,-224.5"/>
<text text-anchor="middle" x="393" y="-231.5" font-family="Helvetica,sans-Serif" font-size="10.00">pinhao/Features/Features.h</text>
</a>
</g>
</g>
<!-- Node5&#45;&gt;Node6 -->
<g id="edge6" class="edge"><title>Node5&#45;&gt;Node6</title>
<path fill="none" stroke="midnightblue" d="M458.686,-448.465C564.055,-423.081 752.064,-364.243 680,-280 653.659,-249.207 547.305,-239.341 471.766,-236.263"/>
<polygon fill="midnightblue" stroke="midnightblue" points="471.447,-232.749 461.323,-235.872 471.186,-239.744 471.447,-232.749"/>
</g>
<!-- Node15 -->
<g id="node16" class="node"><title>Node15</title>
<g id="a_node16"><a xlink:href="FeatureYAMLWrapper_8h.html" target="_top" xlink:title="pinhao/Support/FeatureYAMLWrapper.h">
<polygon fill="white" stroke="black" points="298,-392.5 298,-411.5 488,-411.5 488,-392.5 298,-392.5"/>
<text text-anchor="middle" x="393" y="-399.5" font-family="Helvetica,sans-Serif" font-size="10.00">pinhao/Support/FeatureYAMLWrapper.h</text>
</a>
</g>
</g>
<!-- Node5&#45;&gt;Node15 -->
<g id="edge21" class="edge"><title>Node5&#45;&gt;Node15</title>
<path fill="none" stroke="midnightblue" d="M387.16,-448.399C386.13,-440.377 385.974,-430.233 386.693,-421.569"/>
<polygon fill="midnightblue" stroke="midnightblue" points="390.16,-422.044 388.071,-411.658 383.227,-421.081 390.16,-422.044"/>
</g>
<!-- Node21 -->
<g id="node22" class="node"><title>Node21</title>
<g id="a_node22"><a xlink:href="Iterator_8h.html" target="_top" xlink:title="pinhao/Support/Iterator.h">
<polygon fill="white" stroke="black" points="90,-280.5 90,-299.5 214,-299.5 214,-280.5 90,-280.5"/>
<text text-anchor="middle" x="152" y="-287.5" font-family="Helvetica,sans-Serif" font-size="10.00">pinhao/Support/Iterator.h</text>
</a>
</g>
</g>
<!-- Node5&#45;&gt;Node21 -->
<g id="edge39" class="edge"><title>Node5&#45;&gt;Node21</title>
<path fill="none" stroke="midnightblue" d="M324.428,-455.501C262.468,-445.135 174.651,-419.469 132,-356 122.262,-341.509 130.447,-322.071 139.099,-308.236"/>
<polygon fill="midnightblue" stroke="midnightblue" points="142.192,-309.913 144.948,-299.683 136.414,-305.961 142.192,-309.913"/>
</g>
<!-- Node7 -->
<g id="node8" class="node"><title>Node7</title>
<g id="a_node8"><a xlink:href="Feature_8h.html" target="_top" xlink:title="This file defines the base feature class. ">
<polygon fill="white" stroke="black" points="328.5,-168.5 328.5,-187.5 459.5,-187.5 459.5,-168.5 328.5,-168.5"/>
<text text-anchor="middle" x="394" y="-175.5" font-family="Helvetica,sans-Serif" font-size="10.00">pinhao/Features/Feature.h</text>
</a>
</g>
</g>
<!-- Node6&#45;&gt;Node7 -->
<g id="edge7" class="edge"><title>Node6&#45;&gt;Node7</title>
<path fill="none" stroke="midnightblue" d="M393.165,-224.083C393.296,-217.006 393.484,-206.861 393.648,-197.986"/>
<polygon fill="midnightblue" stroke="midnightblue" points="397.152,-197.814 393.838,-187.751 390.153,-197.685 397.152,-197.814"/>
</g>
<!-- Node7&#45;&gt;Node1 -->
<g id="edge15" class="edge"><title>Node7&#45;&gt;Node1</title>
<path fill="none" stroke="midnightblue" d="M355.179,-168.444C312.439,-159.023 243.668,-143.866 197.434,-133.675"/>
<polygon fill="midnightblue" stroke="midnightblue" points="198.158,-130.251 187.639,-131.516 196.652,-137.087 198.158,-130.251"/>
</g>
<!-- Node7&#45;&gt;Node3 -->
<g id="edge19" class="edge"><title>Node7&#45;&gt;Node3</title>
<path fill="none" stroke="midnightblue" d="M371.038,-168.396C354.098,-161.018 331.554,-148.891 317,-132 305.481,-118.632 298.665,-99.5198 294.923,-85.479"/>
<polygon fill="midnightblue" stroke="midnightblue" points="298.271,-84.4292 292.549,-75.5123 291.461,-86.0511 298.271,-84.4292"/>
</g>
<!-- Node7&#45;&gt;Node4 -->
<g id="edge18" class="edge"><title>Node7&#45;&gt;Node4</title>
<path fill="none" stroke="midnightblue" d="M373.011,-168.382C353.709,-160.103 324.592,-146.709 301,-132 276.929,-116.992 251.583,-96.3322 235.327,-82.3646"/>
<polygon fill="midnightblue" stroke="midnightblue" points="237.552,-79.6606 227.711,-75.7359 232.956,-84.941 237.552,-79.6606"/>
</g>
<!-- Node8 -->
<g id="node9" class="node"><title>Node8</title>
<g id="a_node9"><a xlink:href="FeatureInfo_8h.html" target="_top" xlink:title="This file defines a class that holds some informations about a feature. ">
<polygon fill="white" stroke="black" points="326.5,-112.5 326.5,-131.5 473.5,-131.5 473.5,-112.5 326.5,-112.5"/>
<text text-anchor="middle" x="400" y="-119.5" font-family="Helvetica,sans-Serif" font-size="10.00">pinhao/Features/FeatureInfo.h</text>
</a>
</g>
</g>
<!-- Node7&#45;&gt;Node8 -->
<g id="edge8" class="edge"><title>Node7&#45;&gt;Node8</title>
<path fill="none" stroke="midnightblue" d="M394.991,-168.083C395.786,-160.927 396.929,-150.635 397.923,-141.691"/>
<polygon fill="midnightblue" stroke="midnightblue" points="401.402,-142.076 399.028,-131.751 394.445,-141.303 401.402,-142.076"/>
</g>
<!-- Node12 -->
<g id="node13" class="node"><title>Node12</title>
<polygon fill="white" stroke="#bfbfbf" points="742.5,-112.5 742.5,-131.5 833.5,-131.5 833.5,-112.5 742.5,-112.5"/>
<text text-anchor="middle" x="788" y="-119.5" font-family="Helvetica,sans-Serif" font-size="10.00">llvm/IR/Module.h</text>
</g>
<!-- Node7&#45;&gt;Node12 -->
<g id="edge16" class="edge"><title>Node7&#45;&gt;Node12</title>
<path fill="none" stroke="midnightblue" d="M459.501,-168.812C527.647,-160.168 637.41,-145.895 732,-132 732.107,-131.984 732.213,-131.969 732.32,-131.953"/>
<polygon fill="midnightblue" stroke="midnightblue" points="733.111,-135.373 742.478,-130.421 732.068,-128.452 733.111,-135.373"/>
</g>
<!-- Node13 -->
<g id="node14" class="node"><title>Node13</title>
<polygon fill="white" stroke="#bfbfbf" points="634.5,-112.5 634.5,-131.5 723.5,-131.5 723.5,-112.5 634.5,-112.5"/>
<text text-anchor="middle" x="679" y="-119.5" font-family="Helvetica,sans-Serif" font-size="10.00">yaml&#45;cpp/yaml.h</text>
</g>
<!-- Node7&#45;&gt;Node13 -->
<g id="edge17" class="edge"><title>Node7&#45;&gt;Node13</title>
<path fill="none" stroke="midnightblue" d="M439.159,-168.444C489.294,-158.944 570.22,-143.611 624.006,-133.42"/>
<polygon fill="midnightblue" stroke="midnightblue" points="624.879,-136.817 634.052,-131.516 623.575,-129.939 624.879,-136.817"/>
</g>
<!-- Node14 -->
<g id="node15" class="node"><title>Node14</title>
<polygon fill="white" stroke="#bfbfbf" points="492,-112.5 492,-131.5 546,-131.5 546,-112.5 492,-112.5"/>
<text text-anchor="middle" x="519" y="-119.5" font-family="Helvetica,sans-Serif" font-size="10.00">iostream</text>
</g>
<!-- Node7&#45;&gt;Node14 -->
<g id="edge20" class="edge"><title>Node7&#45;&gt;Node14</title>
<path fill="none" stroke="midnightblue" d="M413.807,-168.444C434.287,-159.596 466.483,-145.687 489.865,-135.586"/>
<polygon fill="midnightblue" stroke="midnightblue" points="491.494,-138.695 499.286,-131.516 488.718,-132.269 491.494,-138.695"/>
</g>
<!-- Node8&#45;&gt;Node3 -->
<g id="edge14" class="edge"><title>Node8&#45;&gt;Node3</title>
<path fill="none" stroke="midnightblue" d="M382.487,-112.324C364.928,-103.625 337.669,-90.1202 317.469,-80.113"/>
<polygon fill="midnightblue" stroke="midnightblue" points="318.984,-76.9575 308.469,-75.6545 315.876,-83.23 318.984,-76.9575"/>
</g>
<!-- Node8&#45;&gt;Node4 -->
<g id="edge11" class="edge"><title>Node8&#45;&gt;Node4</title>
<path fill="none" stroke="midnightblue" d="M371.162,-112.444C336.644,-102.202 279.27,-85.1789 245.401,-75.1301"/>
<polygon fill="midnightblue" stroke="midnightblue" points="246.279,-71.7398 235.697,-72.2506 244.288,-78.4506 246.279,-71.7398"/>
</g>
<!-- Node9 -->
<g id="node10" class="node"><title>Node9</title>
<g id="a_node10"><a xlink:href="Types_8h.html" target="_top" xlink:title="pinhao/Support/Types.h">
<polygon fill="white" stroke="black" points="396,-56.5 396,-75.5 516,-75.5 516,-56.5 396,-56.5"/>
<text text-anchor="middle" x="456" y="-63.5" font-family="Helvetica,sans-Serif" font-size="10.00">pinhao/Support/Types.h</text>
</a>
</g>
</g>
<!-- Node8&#45;&gt;Node9 -->
<g id="edge9" class="edge"><title>Node8&#45;&gt;Node9</title>
<path fill="none" stroke="midnightblue" d="M408.997,-112.324C417.194,-104.42 429.506,-92.5482 439.472,-82.9377"/>
<polygon fill="midnightblue" stroke="midnightblue" points="442.07,-85.2947 446.839,-75.8339 437.211,-80.2558 442.07,-85.2947"/>
</g>
<!-- Node10 -->
<g id="node11" class="node"><title>Node10</title>
<polygon fill="white" stroke="#bfbfbf" points="479.5,-0.5 479.5,-19.5 520.5,-19.5 520.5,-0.5 479.5,-0.5"/>
<text text-anchor="middle" x="500" y="-7.5" font-family="Helvetica,sans-Serif" font-size="10.00">string</text>
</g>
<!-- Node8&#45;&gt;Node10 -->
<g id="edge13" class="edge"><title>Node8&#45;&gt;Node10</title>
<path fill="none" stroke="midnightblue" d="M467.25,-112.447C489.322,-106.084 511.605,-95.059 525,-76 535.38,-61.2318 525.15,-41.5817 514.819,-27.7667"/>
<polygon fill="midnightblue" stroke="midnightblue" points="517.247,-25.2045 508.231,-19.6408 511.81,-29.6129 517.247,-25.2045"/>
</g>
<!-- Node11 -->
<g id="node12" class="node"><title>Node11</title>
<polygon fill="white" stroke="#bfbfbf" points="334,-56.5 334,-75.5 378,-75.5 378,-56.5 334,-56.5"/>
<text text-anchor="middle" x="356" y="-63.5" font-family="Helvetica,sans-Serif" font-size="10.00">vector</text>
</g>
<!-- Node8&#45;&gt;Node11 -->
<g id="edge12" class="edge"><title>Node8&#45;&gt;Node11</title>
<path fill="none" stroke="midnightblue" d="M392.734,-112.083C386.455,-104.377 377.212,-93.0333 369.569,-83.6531"/>
<polygon fill="midnightblue" stroke="midnightblue" points="372.161,-81.2926 363.131,-75.7511 366.734,-85.7143 372.161,-81.2926"/>
</g>
<!-- Node9&#45;&gt;Node10 -->
<g id="edge10" class="edge"><title>Node9&#45;&gt;Node10</title>
<path fill="none" stroke="midnightblue" d="M463.266,-56.083C469.545,-48.3768 478.788,-37.0333 486.431,-27.6531"/>
<polygon fill="midnightblue" stroke="midnightblue" points="489.266,-29.7143 492.869,-19.7511 483.839,-25.2926 489.266,-29.7143"/>
</g>
<!-- Node15&#45;&gt;Node5 -->
<g id="edge38" class="edge"><title>Node15&#45;&gt;Node5</title>
<path fill="none" stroke="midnightblue" d="M397.929,-411.658C399.435,-418.655 400.007,-428.857 399.645,-438.289"/>
<polygon fill="midnightblue" stroke="midnightblue" points="396.145,-438.153 398.84,-448.399 403.123,-438.709 396.145,-438.153"/>
</g>
<!-- Node16 -->
<g id="node17" class="node"><title>Node16</title>
<g id="a_node17"><a xlink:href="YAMLWrapper_8h.html" target="_top" xlink:title="pinhao/Support/YAMLWrapper.h">
<polygon fill="white" stroke="black" points="487.5,-168.5 487.5,-187.5 644.5,-187.5 644.5,-168.5 487.5,-168.5"/>
<text text-anchor="middle" x="566" y="-175.5" font-family="Helvetica,sans-Serif" font-size="10.00">pinhao/Support/YAMLWrapper.h</text>
</a>
</g>
</g>
<!-- Node15&#45;&gt;Node16 -->
<g id="edge22" class="edge"><title>Node15&#45;&gt;Node16</title>
<path fill="none" stroke="midnightblue" d="M417.387,-392.488C435.457,-385.158 459.679,-373.051 476,-356 501.977,-328.861 496.048,-313.526 513,-280 527.906,-250.521 545.891,-216.574 556.612,-196.5"/>
<polygon fill="midnightblue" stroke="midnightblue" points="559.742,-198.069 561.374,-187.601 553.57,-194.766 559.742,-198.069"/>
</g>
<!-- Node18 -->
<g id="node19" class="node"><title>Node18</title>
<g id="a_node19"><a xlink:href="YamlOptions_8h.html" target="_top" xlink:title="pinhao/Support/YamlOptions.h">
<polygon fill="white" stroke="black" points="522.5,-280.5 522.5,-299.5 671.5,-299.5 671.5,-280.5 522.5,-280.5"/>
<text text-anchor="middle" x="597" y="-287.5" font-family="Helvetica,sans-Serif" font-size="10.00">pinhao/Support/YamlOptions.h</text>
</a>
</g>
</g>
<!-- Node15&#45;&gt;Node18 -->
<g id="edge26" class="edge"><title>Node15&#45;&gt;Node18</title>
<path fill="none" stroke="midnightblue" d="M421.114,-392.436C445.201,-384.557 480.424,-371.727 509,-356 535.073,-341.651 562.196,-320.516 579.316,-306.278"/>
<polygon fill="midnightblue" stroke="midnightblue" points="581.919,-308.661 587.298,-299.534 577.401,-303.314 581.919,-308.661"/>
</g>
<!-- Node15&#45;&gt;Node19 -->
<g id="edge28" class="edge"><title>Node15&#45;&gt;Node19</title>
<path fill="none" stroke="midnightblue" d="M360.657,-392.444C329.729,-383.359 283.598,-368.939 252.843,-358.783"/>
<polygon fill="midnightblue" stroke="midnightblue" points="253.64,-355.36 243.046,-355.516 251.426,-362 253.64,-355.36"/>
</g>
<!-- Node20 -->
<g id="node21" class="node"><title>Node20</title>
<g id="a_node21"><a xlink:href="MapFeature_8h.html" target="_top" xlink:title="pinhao/Features/MapFeature.h">
<polygon fill="white" stroke="black" points="318.5,-336.5 318.5,-355.5 467.5,-355.5 467.5,-336.5 318.5,-336.5"/>
<text text-anchor="middle" x="393" y="-343.5" font-family="Helvetica,sans-Serif" font-size="10.00">pinhao/Features/MapFeature.h</text>
</a>
</g>
</g>
<!-- Node15&#45;&gt;Node20 -->
<g id="edge31" class="edge"><title>Node15&#45;&gt;Node20</title>
<path fill="none" stroke="midnightblue" d="M387.834,-392.083C386.324,-384.927 385.894,-374.635 386.542,-365.691"/>
<polygon fill="midnightblue" stroke="midnightblue" points="390.015,-366.126 387.869,-355.751 383.077,-365.2 390.015,-366.126"/>
</g>
<!-- Node16&#45;&gt;Node13 -->
<g id="edge23" class="edge"><title>Node16&#45;&gt;Node13</title>
<path fill="none" stroke="midnightblue" d="M583.905,-168.444C602.254,-159.675 631.005,-145.935 652.094,-135.858"/>
<polygon fill="midnightblue" stroke="midnightblue" points="653.665,-138.986 661.179,-131.516 650.647,-132.67 653.665,-138.986"/>
</g>
<!-- Node16&#45;&gt;Node14 -->
<g id="edge24" class="edge"><title>Node16&#45;&gt;Node14</title>
<path fill="none" stroke="midnightblue" d="M558.239,-168.083C551.463,-160.298 541.457,-148.801 533.245,-139.367"/>
<polygon fill="midnightblue" stroke="midnightblue" points="535.822,-136.996 526.617,-131.751 530.542,-141.592 535.822,-136.996"/>
</g>
<!-- Node17 -->
<g id="node18" class="node"><title>Node17</title>
<polygon fill="white" stroke="#bfbfbf" points="564,-112.5 564,-131.5 616,-131.5 616,-112.5 564,-112.5"/>
<text text-anchor="middle" x="590" y="-119.5" font-family="Helvetica,sans-Serif" font-size="10.00">ostream</text>
</g>
<!-- Node16&#45;&gt;Node17 -->
<g id="edge25" class="edge"><title>Node16&#45;&gt;Node17</title>
<path fill="none" stroke="midnightblue" d="M569.963,-168.083C573.213,-160.77 577.919,-150.181 581.954,-141.103"/>
<polygon fill="midnightblue" stroke="midnightblue" points="585.248,-142.311 586.111,-131.751 578.851,-139.468 585.248,-142.311"/>
</g>
<!-- Node18&#45;&gt;Node13 -->
<g id="edge27" class="edge"><title>Node18&#45;&gt;Node13</title>
<path fill="none" stroke="midnightblue" d="M602.327,-280.28C612.758,-263.021 636.314,-223.135 653,-188 660.332,-172.561 667.454,-154.47 672.385,-141.3"/>
<polygon fill="midnightblue" stroke="midnightblue" points="675.8,-142.153 675.968,-131.56 669.231,-139.737 675.8,-142.153"/>
</g>
<!-- Node19&#45;&gt;Node6 -->
<g id="edge29" class="edge"><title>Node19&#45;&gt;Node6</title>
<path fill="none" stroke="midnightblue" d="M234.497,-336.368C264.012,-317.492 334.544,-272.385 370.739,-249.237"/>
<polygon fill="midnightblue" stroke="midnightblue" points="373.027,-251.928 379.566,-243.591 369.256,-246.031 373.027,-251.928"/>
</g>
<!-- Node19&#45;&gt;Node15 -->
<g id="edge30" class="edge"><title>Node19&#45;&gt;Node15</title>
<path fill="none" stroke="midnightblue" d="M253.206,-355.516C284.09,-364.585 330.222,-379.004 361.022,-389.172"/>
<polygon fill="midnightblue" stroke="midnightblue" points="360.241,-392.601 370.835,-392.444 362.455,-385.96 360.241,-392.601"/>
</g>
<!-- Node20&#45;&gt;Node6 -->
<g id="edge32" class="edge"><title>Node20&#45;&gt;Node6</title>
<path fill="none" stroke="midnightblue" d="M393,-336.368C393,-318.617 393,-277.666 393,-253.597"/>
<polygon fill="midnightblue" stroke="midnightblue" points="396.5,-253.591 393,-243.591 389.5,-253.591 396.5,-253.591"/>
</g>
<!-- Node20&#45;&gt;Node15 -->
<g id="edge33" class="edge"><title>Node20&#45;&gt;Node15</title>
<path fill="none" stroke="midnightblue" d="M398.131,-355.751C399.657,-362.858 400.104,-373.136 399.472,-382.101"/>
<polygon fill="midnightblue" stroke="midnightblue" points="395.993,-381.713 398.166,-392.083 402.934,-382.622 395.993,-381.713"/>
</g>
<!-- Node20&#45;&gt;Node21 -->
<g id="edge34" class="edge"><title>Node20&#45;&gt;Node21</title>
<path fill="none" stroke="midnightblue" d="M354.813,-336.444C312.859,-327.043 245.406,-311.929 199.929,-301.739"/>
<polygon fill="midnightblue" stroke="midnightblue" points="200.532,-298.288 190.009,-299.516 199.001,-305.118 200.532,-298.288"/>
</g>
<!-- Node21&#45;&gt;Node4 -->
<g id="edge37" class="edge"><title>Node21&#45;&gt;Node4</title>
<path fill="none" stroke="midnightblue" d="M140.493,-280.34C106.42,-253.667 11.1535,-171.002 56,-112 57.0421,-110.629 144.654,-86.8059 190.583,-74.3922"/>
<polygon fill="midnightblue" stroke="midnightblue" points="191.755,-77.7012 200.497,-71.715 189.93,-70.9433 191.755,-77.7012"/>
</g>
<!-- Node21&#45;&gt;Node6 -->
<g id="edge35" class="edge"><title>Node21&#45;&gt;Node6</title>
<path fill="none" stroke="midnightblue" d="M190.187,-280.444C232.141,-271.043 299.594,-255.929 345.071,-245.739"/>
<polygon fill="midnightblue" stroke="midnightblue" points="345.999,-249.118 354.991,-243.516 344.468,-242.288 345.999,-249.118"/>
</g>
<!-- Node22 -->
<g id="node23" class="node"><title>Node22</title>
<polygon fill="white" stroke="#bfbfbf" points="128.5,-224.5 128.5,-243.5 175.5,-243.5 175.5,-224.5 128.5,-224.5"/>
<text text-anchor="middle" x="152" y="-231.5" font-family="Helvetica,sans-Serif" font-size="10.00">iterator</text>
</g>
<!-- Node21&#45;&gt;Node22 -->
<g id="edge36" class="edge"><title>Node21&#45;&gt;Node22</title>
<path fill="none" stroke="midnightblue" d="M152,-280.083C152,-273.006 152,-262.861 152,-253.986"/>
<polygon fill="midnightblue" stroke="midnightblue" points="155.5,-253.751 152,-243.751 148.5,-253.751 155.5,-253.751"/>
</g>
<!-- Node23&#45;&gt;Node12 -->
<g id="edge42" class="edge"><title>Node23&#45;&gt;Node12</title>
<path fill="none" stroke="midnightblue" d="M799.693,-392.466C796.982,-374.007 791,-328.968 791,-291 791,-291 791,-291 791,-233 791,-200.936 789.711,-163.634 788.822,-141.745"/>
<polygon fill="midnightblue" stroke="midnightblue" points="792.311,-141.399 788.392,-131.556 785.317,-141.694 792.311,-141.399"/>
</g>
</g>
</svg>
        <g id="navigator" transform="translate(0 0)" fill="#404254">
                <rect fill="#f2f5e9" fill-opacity="0.5" stroke="#606060" stroke-width=".5" x="0" y="0" width="60" height="60"/>
                <use id="zoomplus" xlink:href="#zoomPlus" x="17" y="9" onmousedown="handleZoom(evt,'in')"/>
                <use id="zoomminus" xlink:href="#zoomMin" x="42" y="9" onmousedown="handleZoom(evt,'out')"/>
                <use id="reset" xlink:href="#resetDef" x="30" y="36" onmousedown="handleReset()"/>
                <g id="arrowUp" xlink:href="#dirArrow" transform="translate(30 24)" onmousedown="handlePan(0,-1)">
                  <use xlink:href="#rim" fill="#404040">
                        <set attributeName="fill" to="#808080" begin="arrowUp.mouseover" end="arrowUp.mouseout"/>
                  </use>
                  <path fill="none" stroke="white" stroke-width="1.5" d="M0,-3.0v7 M-2.5,-0.5L0,-3.0L2.5,-0.5"/>
                </g>
                <g id="arrowRight" xlink:href="#dirArrow" transform="rotate(90) translate(36 -43)" onmousedown="handlePan(1,0)">
                  <use xlink:href="#rim" fill="#404040">
                        <set attributeName="fill" to="#808080" begin="arrowRight.mouseover" end="arrowRight.mouseout"/>
                  </use>
                  <path fill="none" stroke="white" stroke-width="1.5" d="M0,-3.0v7 M-2.5,-0.5L0,-3.0L2.5,-0.5"/>
                </g>
                <g id="arrowDown" xlink:href="#dirArrow" transform="rotate(180) translate(-30 -48)" onmousedown="handlePan(0,1)">
                  <use xlink:href="#rim" fill="#404040">
                        <set attributeName="fill" to="#808080" begin="arrowDown.mouseover" end="arrowDown.mouseout"/>
                  </use>
                  <path fill="none" stroke="white" stroke-width="1.5" d="M0,-3.0v7 M-2.5,-0.5L0,-3.0L2.5,-0.5"/>
                </g>
                <g id="arrowLeft" xlink:href="#dirArrow" transform="rotate(270) translate(-36 17)" onmousedown="handlePan(-1,0)">
                  <use xlink:href="#rim" fill="#404040">
                        <set attributeName="fill" to="#808080" begin="arrowLeft.mouseover" end="arrowLeft.mouseout"/>
                  </use>
                  <path fill="none" stroke="white" stroke-width="1.5" d="M0,-3.0v7 M-2.5,-0.5L0,-3.0L2.5,-0.5"/>
                </g>
        </g>
        <svg viewBox="0 0 15 15" width="100%" height="30px" preserveAspectRatio="xMaxYMin meet">
         <g id="arrow_out" transform="scale(0.3 0.3)">
          <a xlink:href="CFGModuleStaticFeatures_8cpp__incl_org.svg" target="_base">
           <rect id="button" ry="5" rx="5" y="6" x="6" height="38" width="38"
                fill="#f2f5e9" fill-opacity="0.5" stroke="#606060" stroke-width="1.0"/>
           <path id="arrow"
             d="M 11.500037,31.436501 C 11.940474,20.09759 22.043105,11.32322 32.158766,21.979434 L 37.068811,17.246167 C 37.068811,17.246167 37.088388,32 37.088388,32 L 22.160133,31.978069 C 22.160133,31.978069 26.997745,27.140456 26.997745,27.140456 C 18.528582,18.264221 13.291696,25.230495 11.500037,31.436501 z"
             style="fill:#404040;"/>
          </a>
         </g>
        </svg>
</svg>
