<?xml version="1.0" encoding="UTF-8" standalone="no"?>
<!DOCTYPE svg PUBLIC "-//W3C//DTD SVG 1.1//EN"
 "http://www.w3.org/Graphics/SVG/1.1/DTD/svg11.dtd">
<!-- Generated by graphviz version 2.38.0 (20140413.2041)
 -->
<!-- Title: /home/yukiosir/workspace/CompilerProject/Software/pinhao/tools/OptLibraries/CFGStaticFeaturesGenPass.cpp Pages: 1 -->
<!--zoomable 341 -->
<svg id="main" version="1.1" xmlns="http://www.w3.org/2000/svg" xmlns:xlink="http://www.w3.org/1999/xlink" xml:space="preserve" onload="init(evt)">
<style type="text/css"><![CDATA[
.edge:hover path { stroke: red; }
.edge:hover polygon { stroke: red; fill: red; }
]]></style>
<script type="text/javascript"><![CDATA[
var edges = document.getElementsByTagName('g');
if (edges && edges.length) {
  for (var i=0;i<edges.length;i++) {
    if (edges[i].id.substr(0,4)=='edge') {
      edges[i].setAttribute('class','edge');
    }
  }
}
]]></script>
        <defs>
                <circle id="rim" cx="0" cy="0" r="7"/>
                <circle id="rim2" cx="0" cy="0" r="3.5"/>
                <g id="zoomPlus">
                        <use xlink:href="#rim" fill="#404040">
                                <set attributeName="fill" to="#808080" begin="zoomplus.mouseover" end="zoomplus.mouseout"/>
                        </use>
                        <path d="M-4,0h8M0,-4v8" fill="none" stroke="white" stroke-width="1.5" pointer-events="none"/>
                </g>
                <g id="zoomMin">
                        <use xlink:href="#rim" fill="#404040">
                                <set attributeName="fill" to="#808080" begin="zoomminus.mouseover" end="zoomminus.mouseout"/>
                        </use>
                        <path d="M-4,0h8" fill="none" stroke="white" stroke-width="1.5" pointer-events="none"/>
                </g>
                <g id="dirArrow">
                        <path fill="none" stroke="white" stroke-width="1.5" d="M0,-3.0v7 M-2.5,-0.5L0,-3.0L2.5,-0.5"/>
                </g>
               <g id="resetDef">
                       <use xlink:href="#rim2" fill="#404040">
                               <set attributeName="fill" to="#808080" begin="reset.mouseover" end="reset.mouseout"/>
                       </use>
               </g>
        </defs>

<script type="text/javascript">
var viewWidth = 1385;
var viewHeight = 341;
var sectionId = 'dynsection-0';
</script>
<script xlink:href="svgpan.js"/>
<svg id="graph" class="graph">
<g id="viewport">
<title>/home/yukiosir/workspace/CompilerProject/Software/pinhao/tools/OptLibraries/CFGStaticFeaturesGenPass.cpp</title>
<polygon fill="white" stroke="none" points="-4,4 -4,-337 1381,-337 1381,4 -4,4"/>
<!-- Node0 -->
<g id="node1" class="node"><title>Node0</title>
<polygon fill="#bfbfbf" stroke="black" points="830.5,-280.5 830.5,-332.5 994.5,-332.5 994.5,-280.5 830.5,-280.5"/>
<text text-anchor="start" x="838.5" y="-320.5" font-family="Helvetica,sans-Serif" font-size="10.00">/home/yukiosir/workspace</text>
<text text-anchor="start" x="838.5" y="-309.5" font-family="Helvetica,sans-Serif" font-size="10.00">/CompilerProject/Software</text>
<text text-anchor="start" x="838.5" y="-298.5" font-family="Helvetica,sans-Serif" font-size="10.00">/pinhao/tools/OptLibraries</text>
<text text-anchor="middle" x="912.5" y="-287.5" font-family="Helvetica,sans-Serif" font-size="10.00">/CFGStaticFeaturesGenPass.cpp</text>
</g>
<!-- Node1 -->
<g id="node2" class="node"><title>Node1</title>
<g id="a_node2"><a xlink:href="Features_8h.html" target="_top" xlink:title="This file implements some basic feature classes that extends the base class Feature. ">
<polygon fill="white" stroke="black" points="479.5,-224.5 479.5,-243.5 615.5,-243.5 615.5,-224.5 479.5,-224.5"/>
<text text-anchor="middle" x="547.5" y="-231.5" font-family="Helvetica,sans-Serif" font-size="10.00">pinhao/Features/Features.h</text>
</a>
</g>
</g>
<!-- Node0&#45;&gt;Node1 -->
<g id="edge1" class="edge"><title>Node0&#45;&gt;Node1</title>
<path fill="none" stroke="midnightblue" d="M830.132,-289.591C760.267,-276.096 662.047,-257.125 601.7,-245.469"/>
<polygon fill="midnightblue" stroke="midnightblue" points="602.102,-241.982 591.62,-243.522 600.775,-248.855 602.102,-241.982"/>
</g>
<!-- Node7 -->
<g id="node8" class="node"><title>Node7</title>
<polygon fill="white" stroke="#bfbfbf" points="730.5,-56.5 730.5,-75.5 774.5,-75.5 774.5,-56.5 730.5,-56.5"/>
<text text-anchor="middle" x="752.5" y="-63.5" font-family="Helvetica,sans-Serif" font-size="10.00">vector</text>
</g>
<!-- Node0&#45;&gt;Node7 -->
<g id="edge23" class="edge"><title>Node0&#45;&gt;Node7</title>
<path fill="none" stroke="midnightblue" d="M830.299,-289.947C804.501,-280.887 778.587,-266.578 762.5,-244 728.174,-195.823 739.754,-120.217 747.658,-85.5244"/>
<polygon fill="midnightblue" stroke="midnightblue" points="751.064,-86.3292 750.032,-75.7847 744.263,-84.6713 751.064,-86.3292"/>
</g>
<!-- Node14 -->
<g id="node15" class="node"><title>Node14</title>
<polygon fill="white" stroke="#bfbfbf" points="771.5,-224.5 771.5,-243.5 839.5,-243.5 839.5,-224.5 771.5,-224.5"/>
<text text-anchor="middle" x="805.5" y="-231.5" font-family="Helvetica,sans-Serif" font-size="10.00">llvm/Pass.h</text>
</g>
<!-- Node0&#45;&gt;Node14 -->
<g id="edge19" class="edge"><title>Node0&#45;&gt;Node14</title>
<path fill="none" stroke="midnightblue" d="M874.475,-280.446C858.564,-269.963 840.656,-258.163 827.075,-249.215"/>
<polygon fill="midnightblue" stroke="midnightblue" points="828.718,-246.106 818.442,-243.527 824.866,-251.952 828.718,-246.106"/>
</g>
<!-- Node15 -->
<g id="node16" class="node"><title>Node15</title>
<polygon fill="white" stroke="#bfbfbf" points="857.5,-224.5 857.5,-243.5 967.5,-243.5 967.5,-224.5 857.5,-224.5"/>
<text text-anchor="middle" x="912.5" y="-231.5" font-family="Helvetica,sans-Serif" font-size="10.00">llvm/IR/Instructions.h</text>
</g>
<!-- Node0&#45;&gt;Node15 -->
<g id="edge20" class="edge"><title>Node0&#45;&gt;Node15</title>
<path fill="none" stroke="midnightblue" d="M912.5,-280.446C912.5,-271.73 912.5,-262.104 912.5,-253.964"/>
<polygon fill="midnightblue" stroke="midnightblue" points="916,-253.695 912.5,-243.695 909,-253.696 916,-253.695"/>
</g>
<!-- Node16 -->
<g id="node17" class="node"><title>Node16</title>
<polygon fill="white" stroke="#bfbfbf" points="986,-224.5 986,-243.5 1125,-243.5 1125,-224.5 986,-224.5"/>
<text text-anchor="middle" x="1055.5" y="-231.5" font-family="Helvetica,sans-Serif" font-size="10.00">llvm/Support/raw_ostream.h</text>
</g>
<!-- Node0&#45;&gt;Node16 -->
<g id="edge21" class="edge"><title>Node0&#45;&gt;Node16</title>
<path fill="none" stroke="midnightblue" d="M963.319,-280.446C985.503,-269.509 1010.59,-257.14 1028.99,-248.07"/>
<polygon fill="midnightblue" stroke="midnightblue" points="1030.78,-251.088 1038.2,-243.527 1027.69,-244.81 1030.78,-251.088"/>
</g>
<!-- Node17 -->
<g id="node18" class="node"><title>Node17</title>
<polygon fill="white" stroke="#bfbfbf" points="1143.5,-224.5 1143.5,-243.5 1275.5,-243.5 1275.5,-224.5 1143.5,-224.5"/>
<text text-anchor="middle" x="1209.5" y="-231.5" font-family="Helvetica,sans-Serif" font-size="10.00">llvm/Support/FileSystem.h</text>
</g>
<!-- Node0&#45;&gt;Node17 -->
<g id="edge22" class="edge"><title>Node0&#45;&gt;Node17</title>
<path fill="none" stroke="midnightblue" d="M994.837,-285.955C1049.42,-272.999 1118.99,-256.484 1163.89,-245.826"/>
<polygon fill="midnightblue" stroke="midnightblue" points="1164.72,-249.228 1173.64,-243.513 1163.1,-242.417 1164.72,-249.228"/>
</g>
<!-- Node18 -->
<g id="node19" class="node"><title>Node18</title>
<polygon fill="white" stroke="#bfbfbf" points="1294,-224.5 1294,-243.5 1377,-243.5 1377,-224.5 1294,-224.5"/>
<text text-anchor="middle" x="1335.5" y="-231.5" font-family="Helvetica,sans-Serif" font-size="10.00">unordered_map</text>
</g>
<!-- Node0&#45;&gt;Node18 -->
<g id="edge24" class="edge"><title>Node0&#45;&gt;Node18</title>
<path fill="none" stroke="midnightblue" d="M994.55,-292.197C1067.67,-280.281 1177.89,-262.173 1283.85,-244.097"/>
<polygon fill="midnightblue" stroke="midnightblue" points="1284.49,-247.538 1293.76,-242.404 1283.31,-240.638 1284.49,-247.538"/>
</g>
<!-- Node2 -->
<g id="node3" class="node"><title>Node2</title>
<g id="a_node3"><a xlink:href="Feature_8h.html" target="_top" xlink:title="This file defines the base feature class. ">
<polygon fill="white" stroke="black" points="390,-168.5 390,-187.5 521,-187.5 521,-168.5 390,-168.5"/>
<text text-anchor="middle" x="455.5" y="-175.5" font-family="Helvetica,sans-Serif" font-size="10.00">pinhao/Features/Feature.h</text>
</a>
</g>
</g>
<!-- Node1&#45;&gt;Node2 -->
<g id="edge2" class="edge"><title>Node1&#45;&gt;Node2</title>
<path fill="none" stroke="midnightblue" d="M532.719,-224.324C518.233,-215.822 495.927,-202.729 479.007,-192.797"/>
<polygon fill="midnightblue" stroke="midnightblue" points="480.641,-189.698 470.245,-187.655 477.097,-195.735 480.641,-189.698"/>
</g>
<!-- Node3 -->
<g id="node4" class="node"><title>Node3</title>
<g id="a_node4"><a xlink:href="FeatureInfo_8h.html" target="_top" xlink:title="This file defines a class that holds some informations about a feature. ">
<polygon fill="white" stroke="black" points="550,-112.5 550,-131.5 697,-131.5 697,-112.5 550,-112.5"/>
<text text-anchor="middle" x="623.5" y="-119.5" font-family="Helvetica,sans-Serif" font-size="10.00">pinhao/Features/FeatureInfo.h</text>
</a>
</g>
</g>
<!-- Node2&#45;&gt;Node3 -->
<g id="edge3" class="edge"><title>Node2&#45;&gt;Node3</title>
<path fill="none" stroke="midnightblue" d="M482.12,-168.444C510.506,-159.32 555.637,-144.813 587.253,-134.651"/>
<polygon fill="midnightblue" stroke="midnightblue" points="588.555,-137.909 597.004,-131.516 586.413,-131.244 588.555,-137.909"/>
</g>
<!-- Node6 -->
<g id="node7" class="node"><title>Node6</title>
<polygon fill="white" stroke="#bfbfbf" points="434,-56.5 434,-75.5 469,-75.5 469,-56.5 434,-56.5"/>
<text text-anchor="middle" x="451.5" y="-63.5" font-family="Helvetica,sans-Serif" font-size="10.00">map</text>
</g>
<!-- Node2&#45;&gt;Node6 -->
<g id="edge16" class="edge"><title>Node2&#45;&gt;Node6</title>
<path fill="none" stroke="midnightblue" d="M458.289,-168.166C461.881,-155.66 467.342,-132.078 464.5,-112 463.232,-103.042 460.611,-93.372 458.052,-85.2998"/>
<polygon fill="midnightblue" stroke="midnightblue" points="461.361,-84.1569 454.844,-75.8034 454.729,-86.3976 461.361,-84.1569"/>
</g>
<!-- Node8 -->
<g id="node9" class="node"><title>Node8</title>
<polygon fill="white" stroke="#bfbfbf" points="487,-56.5 487,-75.5 536,-75.5 536,-56.5 487,-56.5"/>
<text text-anchor="middle" x="511.5" y="-63.5" font-family="Helvetica,sans-Serif" font-size="10.00">cassert</text>
</g>
<!-- Node2&#45;&gt;Node8 -->
<g id="edge17" class="edge"><title>Node2&#45;&gt;Node8</title>
<path fill="none" stroke="midnightblue" d="M460.184,-168.417C465.084,-159.394 472.956,-144.764 479.5,-132 487.559,-116.279 496.408,-98.2428 502.753,-85.164"/>
<polygon fill="midnightblue" stroke="midnightblue" points="506.042,-86.4034 507.243,-75.8768 499.739,-83.3567 506.042,-86.4034"/>
</g>
<!-- Node9 -->
<g id="node10" class="node"><title>Node9</title>
<g id="a_node10"><a xlink:href="FeatureRegistry_8h.html" target="_top" xlink:title="This file defines a class that has all the registered features. ">
<polygon fill="white" stroke="black" points="0,-112.5 0,-131.5 167,-131.5 167,-112.5 0,-112.5"/>
<text text-anchor="middle" x="83.5" y="-119.5" font-family="Helvetica,sans-Serif" font-size="10.00">pinhao/Features/FeatureRegistry.h</text>
</a>
</g>
</g>
<!-- Node2&#45;&gt;Node9 -->
<g id="edge10" class="edge"><title>Node2&#45;&gt;Node9</title>
<path fill="none" stroke="midnightblue" d="M396.555,-168.444C330.165,-158.806 222.404,-143.163 152.239,-132.978"/>
<polygon fill="midnightblue" stroke="midnightblue" points="152.568,-129.489 142.169,-131.516 151.562,-136.417 152.568,-129.489"/>
</g>
<!-- Node11 -->
<g id="node12" class="node"><title>Node11</title>
<polygon fill="white" stroke="#bfbfbf" points="185,-112.5 185,-131.5 276,-131.5 276,-112.5 185,-112.5"/>
<text text-anchor="middle" x="230.5" y="-119.5" font-family="Helvetica,sans-Serif" font-size="10.00">llvm/IR/Module.h</text>
</g>
<!-- Node2&#45;&gt;Node11 -->
<g id="edge14" class="edge"><title>Node2&#45;&gt;Node11</title>
<path fill="none" stroke="midnightblue" d="M419.848,-168.444C380.844,-159.083 318.234,-144.056 275.783,-133.868"/>
<polygon fill="midnightblue" stroke="midnightblue" points="276.526,-130.447 265.985,-131.516 274.892,-137.254 276.526,-130.447"/>
</g>
<!-- Node12 -->
<g id="node13" class="node"><title>Node12</title>
<polygon fill="white" stroke="#bfbfbf" points="294,-112.5 294,-131.5 383,-131.5 383,-112.5 294,-112.5"/>
<text text-anchor="middle" x="338.5" y="-119.5" font-family="Helvetica,sans-Serif" font-size="10.00">yaml&#45;cpp/yaml.h</text>
</g>
<!-- Node2&#45;&gt;Node12 -->
<g id="edge15" class="edge"><title>Node2&#45;&gt;Node12</title>
<path fill="none" stroke="midnightblue" d="M436.961,-168.444C417.877,-159.636 387.925,-145.812 366.064,-135.722"/>
<polygon fill="midnightblue" stroke="midnightblue" points="367.499,-132.529 356.952,-131.516 364.565,-138.885 367.499,-132.529"/>
</g>
<!-- Node13 -->
<g id="node14" class="node"><title>Node13</title>
<polygon fill="white" stroke="#bfbfbf" points="401.5,-112.5 401.5,-131.5 455.5,-131.5 455.5,-112.5 401.5,-112.5"/>
<text text-anchor="middle" x="428.5" y="-119.5" font-family="Helvetica,sans-Serif" font-size="10.00">iostream</text>
</g>
<!-- Node2&#45;&gt;Node13 -->
<g id="edge18" class="edge"><title>Node2&#45;&gt;Node13</title>
<path fill="none" stroke="midnightblue" d="M451.041,-168.083C447.346,-160.691 441.977,-149.953 437.406,-140.811"/>
<polygon fill="midnightblue" stroke="midnightblue" points="440.478,-139.13 432.876,-131.751 434.217,-142.261 440.478,-139.13"/>
</g>
<!-- Node4 -->
<g id="node5" class="node"><title>Node4</title>
<g id="a_node5"><a xlink:href="Types_8h.html" target="_top" xlink:title="pinhao/Support/Types.h">
<polygon fill="white" stroke="black" points="592.5,-56.5 592.5,-75.5 712.5,-75.5 712.5,-56.5 592.5,-56.5"/>
<text text-anchor="middle" x="652.5" y="-63.5" font-family="Helvetica,sans-Serif" font-size="10.00">pinhao/Support/Types.h</text>
</a>
</g>
</g>
<!-- Node3&#45;&gt;Node4 -->
<g id="edge4" class="edge"><title>Node3&#45;&gt;Node4</title>
<path fill="none" stroke="midnightblue" d="M628.289,-112.083C632.258,-104.691 638.025,-93.9533 642.935,-84.8111"/>
<polygon fill="midnightblue" stroke="midnightblue" points="646.153,-86.217 647.8,-75.7511 639.986,-82.9051 646.153,-86.217"/>
</g>
<!-- Node5 -->
<g id="node6" class="node"><title>Node5</title>
<polygon fill="white" stroke="#bfbfbf" points="588,-0.5 588,-19.5 629,-19.5 629,-0.5 588,-0.5"/>
<text text-anchor="middle" x="608.5" y="-7.5" font-family="Helvetica,sans-Serif" font-size="10.00">string</text>
</g>
<!-- Node3&#45;&gt;Node5 -->
<g id="edge8" class="edge"><title>Node3&#45;&gt;Node5</title>
<path fill="none" stroke="midnightblue" d="M612.234,-112.427C602.534,-104.275 589.221,-91.0465 583.5,-76 577.286,-59.6554 586.072,-41.033 594.893,-27.9229"/>
<polygon fill="midnightblue" stroke="midnightblue" points="597.74,-29.9598 600.822,-19.8231 592.091,-25.8253 597.74,-29.9598"/>
</g>
<!-- Node3&#45;&gt;Node6 -->
<g id="edge6" class="edge"><title>Node3&#45;&gt;Node6</title>
<path fill="none" stroke="midnightblue" d="M594.873,-112.493C567.329,-104.238 524.289,-91.1603 478.828,-76.3641"/>
<polygon fill="midnightblue" stroke="midnightblue" points="479.687,-72.9629 469.095,-73.1818 477.512,-79.6163 479.687,-72.9629"/>
</g>
<!-- Node3&#45;&gt;Node7 -->
<g id="edge7" class="edge"><title>Node3&#45;&gt;Node7</title>
<path fill="none" stroke="midnightblue" d="M643.94,-112.444C665.17,-103.557 698.599,-89.5632 722.755,-79.4514"/>
<polygon fill="midnightblue" stroke="midnightblue" points="724.282,-82.6064 732.155,-75.5164 721.579,-76.1493 724.282,-82.6064"/>
</g>
<!-- Node3&#45;&gt;Node8 -->
<g id="edge9" class="edge"><title>Node3&#45;&gt;Node8</title>
<path fill="none" stroke="midnightblue" d="M605.505,-112.324C587.462,-103.625 559.453,-90.1202 538.697,-80.113"/>
<polygon fill="midnightblue" stroke="midnightblue" points="539.978,-76.8449 529.45,-75.6545 536.938,-83.1502 539.978,-76.8449"/>
</g>
<!-- Node4&#45;&gt;Node5 -->
<g id="edge5" class="edge"><title>Node4&#45;&gt;Node5</title>
<path fill="none" stroke="midnightblue" d="M645.234,-56.083C638.955,-48.3768 629.712,-37.0333 622.069,-27.6531"/>
<polygon fill="midnightblue" stroke="midnightblue" points="624.661,-25.2926 615.631,-19.7511 619.234,-29.7143 624.661,-25.2926"/>
</g>
<!-- Node9&#45;&gt;Node6 -->
<g id="edge13" class="edge"><title>Node9&#45;&gt;Node6</title>
<path fill="none" stroke="midnightblue" d="M141.811,-112.444C222.135,-100.657 363.672,-79.8878 423.523,-71.1053"/>
<polygon fill="midnightblue" stroke="midnightblue" points="424.329,-74.5246 433.715,-69.6098 423.312,-67.5988 424.329,-74.5246"/>
</g>
<!-- Node9&#45;&gt;Node8 -->
<g id="edge12" class="edge"><title>Node9&#45;&gt;Node8</title>
<path fill="none" stroke="midnightblue" d="M163.452,-112.497C262.412,-101.882 423.503,-84.2782 476.791,-75.7341"/>
<polygon fill="midnightblue" stroke="midnightblue" points="477.461,-79.17 486.713,-74.0059 476.26,-72.2738 477.461,-79.17"/>
</g>
<!-- Node10 -->
<g id="node11" class="node"><title>Node10</title>
<polygon fill="white" stroke="#bfbfbf" points="57.5,-56.5 57.5,-75.5 109.5,-75.5 109.5,-56.5 57.5,-56.5"/>
<text text-anchor="middle" x="83.5" y="-63.5" font-family="Helvetica,sans-Serif" font-size="10.00">memory</text>
</g>
<!-- Node9&#45;&gt;Node10 -->
<g id="edge11" class="edge"><title>Node9&#45;&gt;Node10</title>
<path fill="none" stroke="midnightblue" d="M83.5,-112.083C83.5,-105.006 83.5,-94.8611 83.5,-85.9865"/>
<polygon fill="midnightblue" stroke="midnightblue" points="87.0001,-85.751 83.5,-75.7511 80.0001,-85.7511 87.0001,-85.751"/>
</g>
</g>
</svg>
        <g id="navigator" transform="translate(0 0)" fill="#404254">
                <rect fill="#f2f5e9" fill-opacity="0.5" stroke="#606060" stroke-width=".5" x="0" y="0" width="60" height="60"/>
                <use id="zoomplus" xlink:href="#zoomPlus" x="17" y="9" onmousedown="handleZoom(evt,'in')"/>
                <use id="zoomminus" xlink:href="#zoomMin" x="42" y="9" onmousedown="handleZoom(evt,'out')"/>
                <use id="reset" xlink:href="#resetDef" x="30" y="36" onmousedown="handleReset()"/>
                <g id="arrowUp" xlink:href="#dirArrow" transform="translate(30 24)" onmousedown="handlePan(0,-1)">
                  <use xlink:href="#rim" fill="#404040">
                        <set attributeName="fill" to="#808080" begin="arrowUp.mouseover" end="arrowUp.mouseout"/>
                  </use>
                  <path fill="none" stroke="white" stroke-width="1.5" d="M0,-3.0v7 M-2.5,-0.5L0,-3.0L2.5,-0.5"/>
                </g>
                <g id="arrowRight" xlink:href="#dirArrow" transform="rotate(90) translate(36 -43)" onmousedown="handlePan(1,0)">
                  <use xlink:href="#rim" fill="#404040">
                        <set attributeName="fill" to="#808080" begin="arrowRight.mouseover" end="arrowRight.mouseout"/>
                  </use>
                  <path fill="none" stroke="white" stroke-width="1.5" d="M0,-3.0v7 M-2.5,-0.5L0,-3.0L2.5,-0.5"/>
                </g>
                <g id="arrowDown" xlink:href="#dirArrow" transform="rotate(180) translate(-30 -48)" onmousedown="handlePan(0,1)">
                  <use xlink:href="#rim" fill="#404040">
                        <set attributeName="fill" to="#808080" begin="arrowDown.mouseover" end="arrowDown.mouseout"/>
                  </use>
                  <path fill="none" stroke="white" stroke-width="1.5" d="M0,-3.0v7 M-2.5,-0.5L0,-3.0L2.5,-0.5"/>
                </g>
                <g id="arrowLeft" xlink:href="#dirArrow" transform="rotate(270) translate(-36 17)" onmousedown="handlePan(-1,0)">
                  <use xlink:href="#rim" fill="#404040">
                        <set attributeName="fill" to="#808080" begin="arrowLeft.mouseover" end="arrowLeft.mouseout"/>
                  </use>
                  <path fill="none" stroke="white" stroke-width="1.5" d="M0,-3.0v7 M-2.5,-0.5L0,-3.0L2.5,-0.5"/>
                </g>
        </g>
        <svg viewBox="0 0 15 15" width="100%" height="30px" preserveAspectRatio="xMaxYMin meet">
         <g id="arrow_out" transform="scale(0.3 0.3)">
          <a xlink:href="CFGStaticFeaturesGenPass_8cpp__incl_org.svg" target="_base">
           <rect id="button" ry="5" rx="5" y="6" x="6" height="38" width="38"
                fill="#f2f5e9" fill-opacity="0.5" stroke="#606060" stroke-width="1.0"/>
           <path id="arrow"
             d="M 11.500037,31.436501 C 11.940474,20.09759 22.043105,11.32322 32.158766,21.979434 L 37.068811,17.246167 C 37.068811,17.246167 37.088388,32 37.088388,32 L 22.160133,31.978069 C 22.160133,31.978069 26.997745,27.140456 26.997745,27.140456 C 18.528582,18.264221 13.291696,25.230495 11.500037,31.436501 z"
             style="fill:#404040;"/>
          </a>
         </g>
        </svg>
</svg>
