<?xml version="1.0" encoding="UTF-8" standalone="no"?>
<!DOCTYPE svg PUBLIC "-//W3C//DTD SVG 1.1//EN"
 "http://www.w3.org/Graphics/SVG/1.1/DTD/svg11.dtd">
<!-- Generated by graphviz version 2.38.0 (20140413.2041)
 -->
<!-- Title: pinhao::BinOpFormulaBase&lt; T, OpT &gt; Pages: 1 -->
<!--zoomable 137 -->
<svg id="main" version="1.1" xmlns="http://www.w3.org/2000/svg" xmlns:xlink="http://www.w3.org/1999/xlink" xml:space="preserve" onload="init(evt)">
<style type="text/css"><![CDATA[
.edge:hover path { stroke: red; }
.edge:hover polygon { stroke: red; fill: red; }
]]></style>
<script type="text/javascript"><![CDATA[
var edges = document.getElementsByTagName('g');
if (edges && edges.length) {
  for (var i=0;i<edges.length;i++) {
    if (edges[i].id.substr(0,4)=='edge') {
      edges[i].setAttribute('class','edge');
    }
  }
}
]]></script>
        <defs>
                <circle id="rim" cx="0" cy="0" r="7"/>
                <circle id="rim2" cx="0" cy="0" r="3.5"/>
                <g id="zoomPlus">
                        <use xlink:href="#rim" fill="#404040">
                                <set attributeName="fill" to="#808080" begin="zoomplus.mouseover" end="zoomplus.mouseout"/>
                        </use>
                        <path d="M-4,0h8M0,-4v8" fill="none" stroke="white" stroke-width="1.5" pointer-events="none"/>
                </g>
                <g id="zoomMin">
                        <use xlink:href="#rim" fill="#404040">
                                <set attributeName="fill" to="#808080" begin="zoomminus.mouseover" end="zoomminus.mouseout"/>
                        </use>
                        <path d="M-4,0h8" fill="none" stroke="white" stroke-width="1.5" pointer-events="none"/>
                </g>
                <g id="dirArrow">
                        <path fill="none" stroke="white" stroke-width="1.5" d="M0,-3.0v7 M-2.5,-0.5L0,-3.0L2.5,-0.5"/>
                </g>
               <g id="resetDef">
                       <use xlink:href="#rim2" fill="#404040">
                               <set attributeName="fill" to="#808080" begin="reset.mouseover" end="reset.mouseout"/>
                       </use>
               </g>
        </defs>

<script type="text/javascript">
var viewWidth = 868;
var viewHeight = 137;
var sectionId = 'dynsection-0';
</script>
<script xlink:href="svgpan.js"/>
<svg id="graph" class="graph">
<g id="viewport">
<title>pinhao::BinOpFormulaBase&lt; T, OpT &gt;</title>
<polygon fill="white" stroke="none" points="-4,4 -4,-133 864,-133 864,4 -4,4"/>
<!-- Node0 -->
<g id="node1" class="node"><title>Node0</title>
<polygon fill="#bfbfbf" stroke="black" points="293,-49.5 293,-79.5 429,-79.5 429,-49.5 293,-49.5"/>
<text text-anchor="start" x="301" y="-67.5" font-family="Helvetica,sans-Serif" font-size="10.00">pinhao::BinOpFormulaBase</text>
<text text-anchor="middle" x="361" y="-56.5" font-family="Helvetica,sans-Serif" font-size="10.00">&lt; T, OpT &gt;</text>
</g>
<!-- Node3 -->
<g id="node4" class="node"><title>Node3</title>
<g id="a_node4"><a xlink:href="classpinhao_1_1BinOpFormulaBase.html" target="_top" xlink:title="pinhao::BinOpFormulaBase\l\&lt; bool, T \&gt;">
<polygon fill="white" stroke="black" points="529,-98.5 529,-128.5 665,-128.5 665,-98.5 529,-98.5"/>
<text text-anchor="start" x="537" y="-116.5" font-family="Helvetica,sans-Serif" font-size="10.00">pinhao::BinOpFormulaBase</text>
<text text-anchor="middle" x="597" y="-105.5" font-family="Helvetica,sans-Serif" font-size="10.00">&lt; bool, T &gt;</text>
</a>
</g>
</g>
<!-- Node0&#45;&gt;Node3 -->
<g id="edge3" class="edge"><title>Node0&#45;&gt;Node3</title>
<path fill="none" stroke="orange" stroke-dasharray="5,2" d="M439.151,-80.6556C468.172,-86.7325 500.907,-93.5873 528.935,-99.4565"/>
<polygon fill="orange" stroke="orange" points="439.56,-77.1654 429.055,-78.5414 438.125,-84.0168 439.56,-77.1654"/>
<text text-anchor="middle" x="479" y="-98.5" font-family="Helvetica,sans-Serif" font-size="10.00"> &lt; bool, T &gt;</text>
</g>
<!-- Node5 -->
<g id="node6" class="node"><title>Node5</title>
<g id="a_node6"><a xlink:href="classpinhao_1_1BinOpFormulaBase.html" target="_top" xlink:title="pinhao::BinOpFormulaBase\l\&lt; T, T \&gt;">
<polygon fill="white" stroke="black" points="529,-49.5 529,-79.5 665,-79.5 665,-49.5 529,-49.5"/>
<text text-anchor="start" x="537" y="-67.5" font-family="Helvetica,sans-Serif" font-size="10.00">pinhao::BinOpFormulaBase</text>
<text text-anchor="middle" x="597" y="-56.5" font-family="Helvetica,sans-Serif" font-size="10.00">&lt; T, T &gt;</text>
</a>
</g>
</g>
<!-- Node0&#45;&gt;Node5 -->
<g id="edge5" class="edge"><title>Node0&#45;&gt;Node5</title>
<path fill="none" stroke="orange" stroke-dasharray="5,2" d="M439.151,-64.5C468.172,-64.5 500.907,-64.5 528.935,-64.5"/>
<polygon fill="orange" stroke="orange" points="439.055,-61.0001 429.055,-64.5 439.055,-68.0001 439.055,-61.0001"/>
<text text-anchor="middle" x="479" y="-67.5" font-family="Helvetica,sans-Serif" font-size="10.00"> &lt; T, T &gt;</text>
</g>
<!-- Node7 -->
<g id="node8" class="node"><title>Node7</title>
<g id="a_node8"><a xlink:href="classpinhao_1_1BinOpFormulaBase.html" target="_top" xlink:title="pinhao::BinOpFormulaBase\l\&lt; bool, bool \&gt;">
<polygon fill="white" stroke="black" points="529,-0.5 529,-30.5 665,-30.5 665,-0.5 529,-0.5"/>
<text text-anchor="start" x="537" y="-18.5" font-family="Helvetica,sans-Serif" font-size="10.00">pinhao::BinOpFormulaBase</text>
<text text-anchor="middle" x="597" y="-7.5" font-family="Helvetica,sans-Serif" font-size="10.00">&lt; bool, bool &gt;</text>
</a>
</g>
</g>
<!-- Node0&#45;&gt;Node7 -->
<g id="edge7" class="edge"><title>Node0&#45;&gt;Node7</title>
<path fill="none" stroke="orange" stroke-dasharray="5,2" d="M439.151,-48.3444C468.172,-42.2675 500.907,-35.4127 528.935,-29.5435"/>
<polygon fill="orange" stroke="orange" points="438.125,-44.9832 429.055,-50.4586 439.56,-51.8346 438.125,-44.9832"/>
<text text-anchor="middle" x="479" y="-49.5" font-family="Helvetica,sans-Serif" font-size="10.00"> &lt; bool, bool &gt;</text>
</g>
<!-- Node1 -->
<g id="node2" class="node"><title>Node1</title>
<g id="a_node2"><a xlink:href="classpinhao_1_1Formula.html" target="_top" xlink:title="The base template class for the Formulas. ">
<polygon fill="white" stroke="black" points="146,-55 146,-74 256,-74 256,-55 146,-55"/>
<text text-anchor="middle" x="201" y="-62" font-family="Helvetica,sans-Serif" font-size="10.00">pinhao::Formula&lt; T &gt;</text>
</a>
</g>
</g>
<!-- Node1&#45;&gt;Node0 -->
<g id="edge1" class="edge"><title>Node1&#45;&gt;Node0</title>
<path fill="none" stroke="midnightblue" d="M266.483,-64.5C275.212,-64.5 284.185,-64.5 292.958,-64.5"/>
<polygon fill="midnightblue" stroke="midnightblue" points="266.375,-61.0001 256.375,-64.5 266.375,-68.0001 266.375,-61.0001"/>
</g>
<!-- Node2 -->
<g id="node3" class="node"><title>Node2</title>
<g id="a_node3"><a xlink:href="classpinhao_1_1FormulaBase.html" target="_top" xlink:title="The base class for all Formula types. A Formula is a statement which when evaluated for a FeatureSet...">
<polygon fill="white" stroke="black" points="0,-55 0,-74 109,-74 109,-55 0,-55"/>
<text text-anchor="middle" x="54.5" y="-62" font-family="Helvetica,sans-Serif" font-size="10.00">pinhao::FormulaBase</text>
</a>
</g>
</g>
<!-- Node2&#45;&gt;Node1 -->
<g id="edge2" class="edge"><title>Node2&#45;&gt;Node1</title>
<path fill="none" stroke="midnightblue" d="M119.464,-64.5C128.208,-64.5 137.116,-64.5 145.667,-64.5"/>
<polygon fill="midnightblue" stroke="midnightblue" points="119.307,-61.0001 109.306,-64.5 119.306,-68.0001 119.307,-61.0001"/>
</g>
<!-- Node4 -->
<g id="node5" class="node"><title>Node4</title>
<g id="a_node5"><a xlink:href="classpinhao_1_1BoolBinOpFormula.html" target="_top" xlink:title="Represents all logical operations (supported). ">
<polygon fill="white" stroke="black" points="702.5,-104 702.5,-123 859.5,-123 859.5,-104 702.5,-104"/>
<text text-anchor="middle" x="781" y="-111" font-family="Helvetica,sans-Serif" font-size="10.00">pinhao::BoolBinOpFormula&lt; T &gt;</text>
</a>
</g>
</g>
<!-- Node3&#45;&gt;Node4 -->
<g id="edge4" class="edge"><title>Node3&#45;&gt;Node4</title>
<path fill="none" stroke="midnightblue" d="M675.541,-113.5C684.391,-113.5 693.414,-113.5 702.266,-113.5"/>
<polygon fill="midnightblue" stroke="midnightblue" points="675.253,-110 665.253,-113.5 675.253,-117 675.253,-110"/>
</g>
<!-- Node6 -->
<g id="node7" class="node"><title>Node6</title>
<g id="a_node7"><a xlink:href="classpinhao_1_1ArithBinOpFormula.html" target="_top" xlink:title="Represents all arithmetics operations (supported). Only numerical operands type permitted. ">
<polygon fill="white" stroke="black" points="702,-55 702,-74 860,-74 860,-55 702,-55"/>
<text text-anchor="middle" x="781" y="-62" font-family="Helvetica,sans-Serif" font-size="10.00">pinhao::ArithBinOpFormula&lt; T &gt;</text>
</a>
</g>
</g>
<!-- Node5&#45;&gt;Node6 -->
<g id="edge6" class="edge"><title>Node5&#45;&gt;Node6</title>
<path fill="none" stroke="midnightblue" d="M675.454,-64.5C684.228,-64.5 693.174,-64.5 701.955,-64.5"/>
<polygon fill="midnightblue" stroke="midnightblue" points="675.253,-61.0001 665.253,-64.5 675.253,-68.0001 675.253,-61.0001"/>
</g>
<!-- Node8 -->
<g id="node9" class="node"><title>Node8</title>
<g id="a_node9"><a xlink:href="classpinhao_1_1BoolBinOpFormula_3_01bool_01_4.html" target="_top" xlink:title="The operations that can only be applied to two Boolean operands. ">
<polygon fill="white" stroke="black" points="714.5,-0.5 714.5,-30.5 847.5,-30.5 847.5,-0.5 714.5,-0.5"/>
<text text-anchor="start" x="722.5" y="-18.5" font-family="Helvetica,sans-Serif" font-size="10.00">pinhao::BoolBinOpFormula</text>
<text text-anchor="middle" x="781" y="-7.5" font-family="Helvetica,sans-Serif" font-size="10.00">&lt; bool &gt;</text>
</a>
</g>
</g>
<!-- Node7&#45;&gt;Node8 -->
<g id="edge8" class="edge"><title>Node7&#45;&gt;Node8</title>
<path fill="none" stroke="midnightblue" d="M675.498,-15.5C688.396,-15.5 701.665,-15.5 714.236,-15.5"/>
<polygon fill="midnightblue" stroke="midnightblue" points="675.253,-12.0001 665.253,-15.5 675.253,-19.0001 675.253,-12.0001"/>
</g>
</g>
</svg>
        <g id="navigator" transform="translate(0 0)" fill="#404254">
                <rect fill="#f2f5e9" fill-opacity="0.5" stroke="#606060" stroke-width=".5" x="0" y="0" width="60" height="60"/>
                <use id="zoomplus" xlink:href="#zoomPlus" x="17" y="9" onmousedown="handleZoom(evt,'in')"/>
                <use id="zoomminus" xlink:href="#zoomMin" x="42" y="9" onmousedown="handleZoom(evt,'out')"/>
                <use id="reset" xlink:href="#resetDef" x="30" y="36" onmousedown="handleReset()"/>
                <g id="arrowUp" xlink:href="#dirArrow" transform="translate(30 24)" onmousedown="handlePan(0,-1)">
                  <use xlink:href="#rim" fill="#404040">
                        <set attributeName="fill" to="#808080" begin="arrowUp.mouseover" end="arrowUp.mouseout"/>
                  </use>
                  <path fill="none" stroke="white" stroke-width="1.5" d="M0,-3.0v7 M-2.5,-0.5L0,-3.0L2.5,-0.5"/>
                </g>
                <g id="arrowRight" xlink:href="#dirArrow" transform="rotate(90) translate(36 -43)" onmousedown="handlePan(1,0)">
                  <use xlink:href="#rim" fill="#404040">
                        <set attributeName="fill" to="#808080" begin="arrowRight.mouseover" end="arrowRight.mouseout"/>
                  </use>
                  <path fill="none" stroke="white" stroke-width="1.5" d="M0,-3.0v7 M-2.5,-0.5L0,-3.0L2.5,-0.5"/>
                </g>
                <g id="arrowDown" xlink:href="#dirArrow" transform="rotate(180) translate(-30 -48)" onmousedown="handlePan(0,1)">
                  <use xlink:href="#rim" fill="#404040">
                        <set attributeName="fill" to="#808080" begin="arrowDown.mouseover" end="arrowDown.mouseout"/>
                  </use>
                  <path fill="none" stroke="white" stroke-width="1.5" d="M0,-3.0v7 M-2.5,-0.5L0,-3.0L2.5,-0.5"/>
                </g>
                <g id="arrowLeft" xlink:href="#dirArrow" transform="rotate(270) translate(-36 17)" onmousedown="handlePan(-1,0)">
                  <use xlink:href="#rim" fill="#404040">
                        <set attributeName="fill" to="#808080" begin="arrowLeft.mouseover" end="arrowLeft.mouseout"/>
                  </use>
                  <path fill="none" stroke="white" stroke-width="1.5" d="M0,-3.0v7 M-2.5,-0.5L0,-3.0L2.5,-0.5"/>
                </g>
        </g>
        <svg viewBox="0 0 15 15" width="100%" height="30px" preserveAspectRatio="xMaxYMin meet">
         <g id="arrow_out" transform="scale(0.3 0.3)">
          <a xlink:href="classpinhao_1_1BinOpFormulaBase__inherit__graph_org.svg" target="_base">
           <rect id="button" ry="5" rx="5" y="6" x="6" height="38" width="38"
                fill="#f2f5e9" fill-opacity="0.5" stroke="#606060" stroke-width="1.0"/>
           <path id="arrow"
             d="M 11.500037,31.436501 C 11.940474,20.09759 22.043105,11.32322 32.158766,21.979434 L 37.068811,17.246167 C 37.068811,17.246167 37.088388,32 37.088388,32 L 22.160133,31.978069 C 22.160133,31.978069 26.997745,27.140456 26.997745,27.140456 C 18.528582,18.264221 13.291696,25.230495 11.500037,31.436501 z"
             style="fill:#404040;"/>
          </a>
         </g>
        </svg>
</svg>
