<?xml version="1.0" encoding="UTF-8" standalone="no"?>
<!DOCTYPE svg PUBLIC "-//W3C//DTD SVG 1.1//EN"
 "http://www.w3.org/Graphics/SVG/1.1/DTD/svg11.dtd">
<!-- Generated by graphviz version 2.38.0 (20140413.2041)
 -->
<!-- Title: pinhao::MapFeature&lt; KeyType, ElemType &gt; Pages: 1 -->
<svg width="222pt" height="242pt"
 viewBox="0.00 0.00 222.00 242.00" xmlns="http://www.w3.org/2000/svg" xmlns:xlink="http://www.w3.org/1999/xlink">
<g id="graph0" class="graph" transform="scale(1 1) rotate(0) translate(4 238)">
<title>pinhao::MapFeature&lt; KeyType, ElemType &gt;</title>
<polygon fill="white" stroke="none" points="-4,4 -4,-238 218,-238 218,4 -4,4"/>
<!-- Node0 -->
<g id="node1" class="node"><title>Node0</title>
<polygon fill="#bfbfbf" stroke="black" points="-7.10543e-15,-0.5 -7.10543e-15,-30.5 124,-30.5 124,-0.5 -7.10543e-15,-0.5"/>
<text text-anchor="start" x="8" y="-18.5" font-family="Helvetica,sans-Serif" font-size="10.00">pinhao::MapFeature</text>
<text text-anchor="middle" x="62" y="-7.5" font-family="Helvetica,sans-Serif" font-size="10.00">&lt; KeyType, ElemType &gt;</text>
</g>
<!-- Node1 -->
<g id="node2" class="node"><title>Node1</title>
<g id="a_node2"><a xlink:href="classpinhao_1_1MappedFeature.html" target="_top" xlink:title="pinhao::MappedFeature\l\&lt; KeyType, ElemType \&gt;">
<polygon fill="white" stroke="black" points="-7.10543e-15,-68.5 -7.10543e-15,-98.5 124,-98.5 124,-68.5 -7.10543e-15,-68.5"/>
<text text-anchor="start" x="8" y="-86.5" font-family="Helvetica,sans-Serif" font-size="10.00">pinhao::MappedFeature</text>
<text text-anchor="middle" x="62" y="-75.5" font-family="Helvetica,sans-Serif" font-size="10.00">&lt; KeyType, ElemType &gt;</text>
</a>
</g>
</g>
<!-- Node1&#45;&gt;Node0 -->
<g id="edge1" class="edge"><title>Node1&#45;&gt;Node0</title>
<path fill="none" stroke="midnightblue" d="M62,-58.0322C62,-48.8606 62,-38.7449 62,-30.7931"/>
<polygon fill="midnightblue" stroke="midnightblue" points="58.5001,-58.1789 62,-68.179 65.5001,-58.179 58.5001,-58.1789"/>
</g>
<!-- Node2 -->
<g id="node3" class="node"><title>Node2</title>
<g id="a_node3"><a xlink:href="classpinhao_1_1Feature.html" target="_top" xlink:title="This is the base class for features. ">
<polygon fill="white" stroke="black" points="33,-214.5 33,-233.5 117,-233.5 117,-214.5 33,-214.5"/>
<text text-anchor="middle" x="75" y="-221.5" font-family="Helvetica,sans-Serif" font-size="10.00">pinhao::Feature</text>
</a>
</g>
</g>
<!-- Node2&#45;&gt;Node1 -->
<g id="edge2" class="edge"><title>Node2&#45;&gt;Node1</title>
<path fill="none" stroke="midnightblue" d="M70.169,-204.475C68.2035,-196.138 66.1317,-186.136 65,-177 61.583,-149.414 61.4142,-116.869 61.664,-98.6659"/>
<polygon fill="midnightblue" stroke="midnightblue" points="66.7933,-205.404 72.6036,-214.263 73.5863,-203.714 66.7933,-205.404"/>
</g>
<!-- Node3 -->
<g id="node4" class="node"><title>Node3</title>
<g id="a_node4"><a xlink:href="classpinhao_1_1MappedFeature.html" target="_top" xlink:title="Abstract class of mapped features. ">
<polygon fill="white" stroke="black" points="74,-146.5 74,-176.5 200,-176.5 200,-146.5 74,-146.5"/>
<text text-anchor="start" x="82" y="-164.5" font-family="Helvetica,sans-Serif" font-size="10.00">pinhao::MappedFeature</text>
<text text-anchor="middle" x="137" y="-153.5" font-family="Helvetica,sans-Serif" font-size="10.00">&lt; KeyType, ValueType &gt;</text>
</a>
</g>
</g>
<!-- Node2&#45;&gt;Node3 -->
<g id="edge4" class="edge"><title>Node2&#45;&gt;Node3</title>
<path fill="none" stroke="midnightblue" d="M91.2878,-207.106C100.933,-197.694 113.052,-185.869 122.388,-176.759"/>
<polygon fill="midnightblue" stroke="midnightblue" points="88.5958,-204.843 83.8831,-214.332 93.4846,-209.853 88.5958,-204.843"/>
</g>
<!-- Node3&#45;&gt;Node1 -->
<g id="edge3" class="edge"><title>Node3&#45;&gt;Node1</title>
<path fill="none" stroke="orange" stroke-dasharray="5,2" d="M115.816,-139.033C103.084,-126.132 87.2351,-110.072 76.0437,-98.7309"/>
<polygon fill="orange" stroke="orange" points="113.378,-141.546 122.893,-146.205 118.36,-136.629 113.378,-141.546"/>
<text text-anchor="middle" x="158.5" y="-120" font-family="Helvetica,sans-Serif" font-size="10.00"> &lt; KeyType, ElemType &gt;</text>
</g>
</g>
</svg>
