<?xml version="1.0" encoding="UTF-8" standalone="no"?>
<!DOCTYPE svg PUBLIC "-//W3C//DTD SVG 1.1//EN"
 "http://www.w3.org/Graphics/SVG/1.1/DTD/svg11.dtd">
<!-- Generated by graphviz version 2.38.0 (20140413.2041)
 -->
<!-- Title: pinhao::FormulaBase Pages: 1 -->
<svg width="1004pt" height="229pt"
 viewBox="0.00 0.00 1004.00 228.50" xmlns="http://www.w3.org/2000/svg" xmlns:xlink="http://www.w3.org/1999/xlink">
<g id="graph0" class="graph" transform="scale(1 1) rotate(0) translate(4 224.5)">
<title>pinhao::FormulaBase</title>
<polygon fill="white" stroke="none" points="-4,4 -4,-224.5 1000,-224.5 1000,4 -4,4"/>
<!-- Node0 -->
<g id="node1" class="node"><title>Node0</title>
<polygon fill="#bfbfbf" stroke="black" points="0,-162.5 0,-181.5 109,-181.5 109,-162.5 0,-162.5"/>
<text text-anchor="middle" x="54.5" y="-169.5" font-family="Helvetica,sans-Serif" font-size="10.00">pinhao::FormulaBase</text>
</g>
<!-- Node1 -->
<g id="node2" class="node"><title>Node1</title>
<g id="a_node2"><a xlink:href="classpinhao_1_1Formula.html" target="_top" xlink:title="pinhao::Formula\&lt; bool \&gt;">
<polygon fill="white" stroke="black" points="351,-185.5 351,-204.5 473,-204.5 473,-185.5 351,-185.5"/>
<text text-anchor="middle" x="412" y="-192.5" font-family="Helvetica,sans-Serif" font-size="10.00">pinhao::Formula&lt; bool &gt;</text>
</a>
</g>
</g>
<!-- Node0&#45;&gt;Node1 -->
<g id="edge1" class="edge"><title>Node0&#45;&gt;Node1</title>
<path fill="none" stroke="midnightblue" d="M119.321,-176.129C184.95,-180.375 286.391,-186.938 350.701,-191.099"/>
<polygon fill="midnightblue" stroke="midnightblue" points="119.312,-172.621 109.107,-175.468 118.86,-179.607 119.312,-172.621"/>
</g>
<!-- Node6 -->
<g id="node7" class="node"><title>Node6</title>
<g id="a_node7"><a xlink:href="classpinhao_1_1Formula.html" target="_top" xlink:title="The base template class for the Formulas. ">
<polygon fill="white" stroke="black" points="146,-105.5 146,-124.5 256,-124.5 256,-105.5 146,-105.5"/>
<text text-anchor="middle" x="201" y="-112.5" font-family="Helvetica,sans-Serif" font-size="10.00">pinhao::Formula&lt; T &gt;</text>
</a>
</g>
</g>
<!-- Node0&#45;&gt;Node6 -->
<g id="edge6" class="edge"><title>Node0&#45;&gt;Node6</title>
<path fill="none" stroke="midnightblue" d="M89.3203,-158.659C115.822,-148.205 152.055,-133.913 175.735,-124.572"/>
<polygon fill="midnightblue" stroke="midnightblue" points="87.7041,-155.534 79.6861,-162.459 90.2728,-162.046 87.7041,-155.534"/>
</g>
<!-- Node2 -->
<g id="node3" class="node"><title>Node2</title>
<g id="a_node3"><a xlink:href="classpinhao_1_1BinOpFormulaBase.html" target="_top" xlink:title="pinhao::BinOpFormulaBase\l\&lt; bool, bool \&gt;">
<polygon fill="white" stroke="black" points="665,-190 665,-220 801,-220 801,-190 665,-190"/>
<text text-anchor="start" x="673" y="-208" font-family="Helvetica,sans-Serif" font-size="10.00">pinhao::BinOpFormulaBase</text>
<text text-anchor="middle" x="733" y="-197" font-family="Helvetica,sans-Serif" font-size="10.00">&lt; bool, bool &gt;</text>
</a>
</g>
</g>
<!-- Node1&#45;&gt;Node2 -->
<g id="edge2" class="edge"><title>Node1&#45;&gt;Node2</title>
<path fill="none" stroke="midnightblue" d="M483.307,-201.409C492.284,-202.048 501.354,-202.605 510,-203 561.979,-205.374 620.873,-205.801 664.933,-205.673"/>
<polygon fill="midnightblue" stroke="midnightblue" points="483.47,-197.912 473.237,-200.658 482.949,-204.892 483.47,-197.912"/>
</g>
<!-- Node4 -->
<g id="node5" class="node"><title>Node4</title>
<g id="a_node5"><a xlink:href="classpinhao_1_1BinOpFormulaBase.html" target="_top" xlink:title="pinhao::BinOpFormulaBase\l\&lt; bool, T \&gt;">
<polygon fill="white" stroke="black" points="665,-130 665,-160 801,-160 801,-130 665,-130"/>
<text text-anchor="start" x="673" y="-148" font-family="Helvetica,sans-Serif" font-size="10.00">pinhao::BinOpFormulaBase</text>
<text text-anchor="middle" x="733" y="-137" font-family="Helvetica,sans-Serif" font-size="10.00">&lt; bool, T &gt;</text>
</a>
</g>
</g>
<!-- Node1&#45;&gt;Node4 -->
<g id="edge4" class="edge"><title>Node1&#45;&gt;Node4</title>
<path fill="none" stroke="midnightblue" d="M459.346,-182.897C475.317,-179.024 493.369,-174.973 510,-172 561.596,-162.775 620.511,-155.771 664.677,-151.211"/>
<polygon fill="midnightblue" stroke="midnightblue" points="458.058,-179.61 449.188,-185.403 459.735,-186.406 458.058,-179.61"/>
</g>
<!-- Node3 -->
<g id="node4" class="node"><title>Node3</title>
<g id="a_node4"><a xlink:href="classpinhao_1_1BoolBinOpFormula_3_01bool_01_4.html" target="_top" xlink:title="The operations that can only be applied to two Boolean operands. ">
<polygon fill="white" stroke="black" points="850.5,-190 850.5,-220 983.5,-220 983.5,-190 850.5,-190"/>
<text text-anchor="start" x="858.5" y="-208" font-family="Helvetica,sans-Serif" font-size="10.00">pinhao::BoolBinOpFormula</text>
<text text-anchor="middle" x="917" y="-197" font-family="Helvetica,sans-Serif" font-size="10.00">&lt; bool &gt;</text>
</a>
</g>
</g>
<!-- Node2&#45;&gt;Node3 -->
<g id="edge3" class="edge"><title>Node2&#45;&gt;Node3</title>
<path fill="none" stroke="midnightblue" d="M811.498,-205C824.396,-205 837.665,-205 850.236,-205"/>
<polygon fill="midnightblue" stroke="midnightblue" points="811.253,-201.5 801.253,-205 811.253,-208.5 811.253,-201.5"/>
</g>
<!-- Node5 -->
<g id="node6" class="node"><title>Node5</title>
<g id="a_node6"><a xlink:href="classpinhao_1_1BoolBinOpFormula.html" target="_top" xlink:title="Represents all logical operations (supported). ">
<polygon fill="white" stroke="black" points="838.5,-135.5 838.5,-154.5 995.5,-154.5 995.5,-135.5 838.5,-135.5"/>
<text text-anchor="middle" x="917" y="-142.5" font-family="Helvetica,sans-Serif" font-size="10.00">pinhao::BoolBinOpFormula&lt; T &gt;</text>
</a>
</g>
</g>
<!-- Node4&#45;&gt;Node5 -->
<g id="edge5" class="edge"><title>Node4&#45;&gt;Node5</title>
<path fill="none" stroke="midnightblue" d="M811.541,-145C820.391,-145 829.414,-145 838.266,-145"/>
<polygon fill="midnightblue" stroke="midnightblue" points="811.253,-141.5 801.253,-145 811.253,-148.5 811.253,-141.5"/>
</g>
<!-- Node6&#45;&gt;Node1 -->
<g id="edge17" class="edge"><title>Node6&#45;&gt;Node1</title>
<path fill="none" stroke="orange" stroke-dasharray="5,2" d="M229.756,-129.228C255.704,-142.135 295.779,-161.068 332,-174 344.162,-178.342 357.66,-182.251 370.008,-185.486"/>
<polygon fill="orange" stroke="orange" points="231.047,-125.961 220.54,-124.602 227.907,-132.217 231.047,-125.961"/>
<text text-anchor="middle" x="294" y="-171" font-family="Helvetica,sans-Serif" font-size="10.00"> &lt; bool &gt;</text>
</g>
<!-- Node7 -->
<g id="node8" class="node"><title>Node7</title>
<g id="a_node8"><a xlink:href="classpinhao_1_1BinOpFormulaBase.html" target="_top" xlink:title="BinOpFormulaBase\&lt; T, T \&gt;">
<polygon fill="white" stroke="black" points="510,-0.5 510,-19.5 647,-19.5 647,-0.5 510,-0.5"/>
<text text-anchor="middle" x="578.5" y="-7.5" font-family="Helvetica,sans-Serif" font-size="10.00">BinOpFormulaBase&lt; T, T &gt;</text>
</a>
</g>
</g>
<!-- Node6&#45;&gt;Node7 -->
<g id="edge7" class="edge"><title>Node6&#45;&gt;Node7</title>
<path fill="none" stroke="midnightblue" d="M218.537,-98.1792C241.586,-76.005 285.77,-37.943 332,-22 389.688,-2.10577 459.53,-0.692798 509.948,-3.32159"/>
<polygon fill="midnightblue" stroke="midnightblue" points="215.974,-95.7909 211.297,-105.298 220.882,-100.782 215.974,-95.7909"/>
</g>
<!-- Node9 -->
<g id="node10" class="node"><title>Node9</title>
<g id="a_node10"><a xlink:href="classpinhao_1_1BinOpFormulaBase.html" target="_top" xlink:title="Base class for binary operations. ">
<polygon fill="white" stroke="black" points="332,-145.5 332,-164.5 492,-164.5 492,-145.5 332,-145.5"/>
<text text-anchor="middle" x="412" y="-152.5" font-family="Helvetica,sans-Serif" font-size="10.00">pinhao::BinOpFormulaBase&lt; T &gt;</text>
</a>
</g>
</g>
<!-- Node6&#45;&gt;Node9 -->
<g id="edge9" class="edge"><title>Node6&#45;&gt;Node9</title>
<path fill="none" stroke="midnightblue" d="M261.76,-126.437C293.231,-132.461 331.377,-139.761 361.225,-145.474"/>
<polygon fill="midnightblue" stroke="midnightblue" points="262.275,-122.972 251.795,-124.53 260.959,-129.848 262.275,-122.972"/>
</g>
<!-- Node11 -->
<g id="node12" class="node"><title>Node11</title>
<g id="a_node12"><a xlink:href="classpinhao_1_1FeatureFormula.html" target="_top" xlink:title="Holds a pair of std::strings. The first represents the feature, and the second represents the sub&#45;fea...">
<polygon fill="white" stroke="black" points="340.5,-107.5 340.5,-126.5 483.5,-126.5 483.5,-107.5 340.5,-107.5"/>
<text text-anchor="middle" x="412" y="-114.5" font-family="Helvetica,sans-Serif" font-size="10.00">pinhao::FeatureFormula&lt; T &gt;</text>
</a>
</g>
</g>
<!-- Node6&#45;&gt;Node11 -->
<g id="edge14" class="edge"><title>Node6&#45;&gt;Node11</title>
<path fill="none" stroke="midnightblue" d="M266.257,-115.615C289.661,-115.839 316.244,-116.093 340.185,-116.322"/>
<polygon fill="midnightblue" stroke="midnightblue" points="266.128,-112.114 256.094,-115.518 266.061,-119.113 266.128,-112.114"/>
</g>
<!-- Node12 -->
<g id="node13" class="node"><title>Node12</title>
<g id="a_node13"><a xlink:href="classpinhao_1_1IfFormula.html" target="_top" xlink:title="The If Formula. ">
<polygon fill="white" stroke="black" points="354,-69.5 354,-88.5 470,-88.5 470,-69.5 354,-69.5"/>
<text text-anchor="middle" x="412" y="-76.5" font-family="Helvetica,sans-Serif" font-size="10.00">pinhao::IfFormula&lt; T &gt;</text>
</a>
</g>
</g>
<!-- Node6&#45;&gt;Node12 -->
<g id="edge15" class="edge"><title>Node6&#45;&gt;Node12</title>
<path fill="none" stroke="midnightblue" d="M266.012,-103.974C294.667,-99.0383 328.126,-93.275 355.677,-88.5293"/>
<polygon fill="midnightblue" stroke="midnightblue" points="265.355,-100.536 256.094,-105.682 266.544,-107.434 265.355,-100.536"/>
</g>
<!-- Node13 -->
<g id="node14" class="node"><title>Node13</title>
<g id="a_node14"><a xlink:href="classpinhao_1_1LitFormula.html" target="_top" xlink:title="Holds literal of the types. ">
<polygon fill="white" stroke="black" points="351.5,-31.5 351.5,-50.5 472.5,-50.5 472.5,-31.5 351.5,-31.5"/>
<text text-anchor="middle" x="412" y="-38.5" font-family="Helvetica,sans-Serif" font-size="10.00">pinhao::LitFormula&lt; T &gt;</text>
</a>
</g>
</g>
<!-- Node6&#45;&gt;Node13 -->
<g id="edge16" class="edge"><title>Node6&#45;&gt;Node13</title>
<path fill="none" stroke="midnightblue" d="M231.151,-101.035C257.157,-88.9732 296.5,-71.6909 332,-60 342.719,-56.4701 354.453,-53.2909 365.522,-50.588"/>
<polygon fill="midnightblue" stroke="midnightblue" points="229.445,-97.9693 221.873,-105.38 232.414,-104.309 229.445,-97.9693"/>
</g>
<!-- Node8 -->
<g id="node9" class="node"><title>Node8</title>
<g id="a_node9"><a xlink:href="classpinhao_1_1ArithBinOpFormula.html" target="_top" xlink:title="Represents all arithmetics operations (supported). Only numerical operands type permitted. ">
<polygon fill="white" stroke="black" points="838,-36.5 838,-55.5 996,-55.5 996,-36.5 838,-36.5"/>
<text text-anchor="middle" x="917" y="-43.5" font-family="Helvetica,sans-Serif" font-size="10.00">pinhao::ArithBinOpFormula&lt; T &gt;</text>
</a>
</g>
</g>
<!-- Node7&#45;&gt;Node8 -->
<g id="edge8" class="edge"><title>Node7&#45;&gt;Node8</title>
<path fill="none" stroke="midnightblue" d="M657.436,-18.3379C711.619,-24.1346 783.561,-31.8312 837.801,-37.634"/>
<polygon fill="midnightblue" stroke="midnightblue" points="657.507,-14.8255 647.191,-17.2418 656.762,-21.7858 657.507,-14.8255"/>
</g>
<!-- Node9&#45;&gt;Node2 -->
<g id="edge13" class="edge"><title>Node9&#45;&gt;Node2</title>
<path fill="none" stroke="orange" stroke-dasharray="5,2" d="M490.021,-166.002C535.697,-172.656 594.703,-181.476 647,-190 652.768,-190.94 658.751,-191.942 664.75,-192.965"/>
<polygon fill="orange" stroke="orange" points="490.295,-162.505 479.895,-164.531 489.288,-169.432 490.295,-162.505"/>
<text text-anchor="middle" x="578.5" y="-193" font-family="Helvetica,sans-Serif" font-size="10.00"> &lt; bool, bool &gt;</text>
</g>
<!-- Node9&#45;&gt;Node4 -->
<g id="edge10" class="edge"><title>Node9&#45;&gt;Node4</title>
<path fill="none" stroke="orange" stroke-dasharray="5,2" d="M461.216,-143.019C480.479,-138.453 500.355,-134.08 510,-133 570.511,-126.224 586.261,-128.734 647,-133 652.798,-133.407 658.802,-133.969 664.815,-134.629"/>
<polygon fill="orange" stroke="orange" points="460.163,-139.672 451.255,-145.408 461.796,-146.479 460.163,-139.672"/>
<text text-anchor="middle" x="578.5" y="-136" font-family="Helvetica,sans-Serif" font-size="10.00"> &lt; bool, T &gt;</text>
</g>
<!-- Node10 -->
<g id="node11" class="node"><title>Node10</title>
<g id="a_node11"><a xlink:href="classpinhao_1_1BinOpFormulaBase.html" target="_top" xlink:title="pinhao::BinOpFormulaBase\l\&lt; T, T \&gt;">
<polygon fill="white" stroke="black" points="665,-75 665,-105 801,-105 801,-75 665,-75"/>
<text text-anchor="start" x="673" y="-93" font-family="Helvetica,sans-Serif" font-size="10.00">pinhao::BinOpFormulaBase</text>
<text text-anchor="middle" x="733" y="-82" font-family="Helvetica,sans-Serif" font-size="10.00">&lt; T, T &gt;</text>
</a>
</g>
</g>
<!-- Node9&#45;&gt;Node10 -->
<g id="edge11" class="edge"><title>Node9&#45;&gt;Node10</title>
<path fill="none" stroke="orange" stroke-dasharray="5,2" d="M481.238,-141.707C484.985,-140.026 488.602,-138.133 492,-136 502.7,-129.283 498.891,-120.017 510,-114 557.382,-88.3376 618.759,-83.4674 664.964,-84.376"/>
<polygon fill="orange" stroke="orange" points="479.73,-138.539 471.71,-145.463 482.297,-145.052 479.73,-138.539"/>
<text text-anchor="middle" x="578.5" y="-117" font-family="Helvetica,sans-Serif" font-size="10.00"> &lt; T, T &gt;</text>
</g>
<!-- Node10&#45;&gt;Node8 -->
<g id="edge12" class="edge"><title>Node10&#45;&gt;Node8</title>
<path fill="none" stroke="midnightblue" d="M805.958,-72.6036C830.049,-66.7794 856.004,-60.5046 876.653,-55.5124"/>
<polygon fill="midnightblue" stroke="midnightblue" points="805.023,-69.2288 796.125,-74.9808 806.668,-76.0328 805.023,-69.2288"/>
</g>
</g>
</svg>
