<?xml version="1.0" encoding="UTF-8" standalone="no"?>
<!DOCTYPE svg PUBLIC "-//W3C//DTD SVG 1.1//EN"
 "http://www.w3.org/Graphics/SVG/1.1/DTD/svg11.dtd">
<!-- Generated by graphviz version 2.38.0 (20140413.2041)
 -->
<!-- Title: pinhao::MappedFeature&lt; KeyType, ValueType &gt; Pages: 1 -->
<svg width="694pt" height="88pt"
 viewBox="0.00 0.00 694.00 88.00" xmlns="http://www.w3.org/2000/svg" xmlns:xlink="http://www.w3.org/1999/xlink">
<g id="graph0" class="graph" transform="scale(1 1) rotate(0) translate(4 84)">
<title>pinhao::MappedFeature&lt; KeyType, ValueType &gt;</title>
<polygon fill="white" stroke="none" points="-4,4 -4,-84 690,-84 690,4 -4,4"/>
<!-- Node0 -->
<g id="node1" class="node"><title>Node0</title>
<polygon fill="#bfbfbf" stroke="black" points="121,-24.5 121,-54.5 247,-54.5 247,-24.5 121,-24.5"/>
<text text-anchor="start" x="129" y="-42.5" font-family="Helvetica,sans-Serif" font-size="10.00">pinhao::MappedFeature</text>
<text text-anchor="middle" x="184" y="-31.5" font-family="Helvetica,sans-Serif" font-size="10.00">&lt; KeyType, ValueType &gt;</text>
</g>
<!-- Node2 -->
<g id="node3" class="node"><title>Node2</title>
<g id="a_node3"><a xlink:href="classpinhao_1_1MappedFeature.html" target="_top" xlink:title="pinhao::MappedFeature\l\&lt; KeyType, ElemType \&gt;">
<polygon fill="white" stroke="black" points="394,-24.5 394,-54.5 518,-54.5 518,-24.5 394,-24.5"/>
<text text-anchor="start" x="402" y="-42.5" font-family="Helvetica,sans-Serif" font-size="10.00">pinhao::MappedFeature</text>
<text text-anchor="middle" x="456" y="-31.5" font-family="Helvetica,sans-Serif" font-size="10.00">&lt; KeyType, ElemType &gt;</text>
</a>
</g>
</g>
<!-- Node0&#45;&gt;Node2 -->
<g id="edge2" class="edge"><title>Node0&#45;&gt;Node2</title>
<path fill="none" stroke="orange" stroke-dasharray="5,2" d="M257.327,-39.5C300.003,-39.5 353.419,-39.5 393.961,-39.5"/>
<polygon fill="orange" stroke="orange" points="257.283,-36.0001 247.282,-39.5 257.282,-43.0001 257.283,-36.0001"/>
<text text-anchor="middle" x="320.5" y="-42.5" font-family="Helvetica,sans-Serif" font-size="10.00"> &lt; KeyType, ElemType &gt;</text>
</g>
<!-- Node1 -->
<g id="node2" class="node"><title>Node1</title>
<g id="a_node2"><a xlink:href="classpinhao_1_1Feature.html" target="_top" xlink:title="This is the base class for features. ">
<polygon fill="white" stroke="black" points="0,-30 0,-49 84,-49 84,-30 0,-30"/>
<text text-anchor="middle" x="42" y="-37" font-family="Helvetica,sans-Serif" font-size="10.00">pinhao::Feature</text>
</a>
</g>
</g>
<!-- Node1&#45;&gt;Node0 -->
<g id="edge1" class="edge"><title>Node1&#45;&gt;Node0</title>
<path fill="none" stroke="midnightblue" d="M94.4532,-39.5C103.013,-39.5 111.972,-39.5 120.766,-39.5"/>
<polygon fill="midnightblue" stroke="midnightblue" points="94.2474,-36.0001 84.2474,-39.5 94.2474,-43.0001 94.2474,-36.0001"/>
</g>
<!-- Node3 -->
<g id="node4" class="node"><title>Node3</title>
<g id="a_node4"><a xlink:href="classpinhao_1_1MapFeature.html" target="_top" xlink:title="This class maps a KeyType to a ElemType feature. ">
<polygon fill="white" stroke="black" points="558.5,-49.5 558.5,-79.5 682.5,-79.5 682.5,-49.5 558.5,-49.5"/>
<text text-anchor="start" x="566.5" y="-67.5" font-family="Helvetica,sans-Serif" font-size="10.00">pinhao::MapFeature</text>
<text text-anchor="middle" x="620.5" y="-56.5" font-family="Helvetica,sans-Serif" font-size="10.00">&lt; KeyType, ElemType &gt;</text>
</a>
</g>
</g>
<!-- Node2&#45;&gt;Node3 -->
<g id="edge3" class="edge"><title>Node2&#45;&gt;Node3</title>
<path fill="none" stroke="midnightblue" d="M528.322,-50.4725C538.299,-52.0075 548.479,-53.5738 558.248,-55.0767"/>
<polygon fill="midnightblue" stroke="midnightblue" points="528.85,-47.0128 518.434,-48.9514 527.786,-53.9314 528.85,-47.0128"/>
</g>
<!-- Node4 -->
<g id="node5" class="node"><title>Node4</title>
<g id="a_node5"><a xlink:href="classpinhao_1_1MapVectorFeature.html" target="_top" xlink:title="This class maps a KeyType to a vector of ElemType features. ">
<polygon fill="white" stroke="black" points="555,-0.5 555,-30.5 686,-30.5 686,-0.5 555,-0.5"/>
<text text-anchor="start" x="563" y="-18.5" font-family="Helvetica,sans-Serif" font-size="10.00">pinhao::MapVectorFeature</text>
<text text-anchor="middle" x="620.5" y="-7.5" font-family="Helvetica,sans-Serif" font-size="10.00">&lt; KeyType, ElemType &gt;</text>
</a>
</g>
</g>
<!-- Node2&#45;&gt;Node4 -->
<g id="edge4" class="edge"><title>Node2&#45;&gt;Node4</title>
<path fill="none" stroke="midnightblue" d="M528.562,-28.9308C537.27,-27.6448 546.128,-26.3365 554.728,-25.0663"/>
<polygon fill="midnightblue" stroke="midnightblue" points="527.816,-25.503 518.434,-30.4266 528.838,-32.4279 527.816,-25.503"/>
</g>
</g>
</svg>
