<?xml version="1.0" encoding="UTF-8" standalone="no"?>
<!DOCTYPE svg PUBLIC "-//W3C//DTD SVG 1.1//EN"
 "http://www.w3.org/Graphics/SVG/1.1/DTD/svg11.dtd">
<!-- Generated by graphviz version 2.38.0 (20140413.2041)
 -->
<!-- Title: pinhao::Formula&lt; T &gt; Pages: 1 -->
<!--zoomable 222 -->
<svg id="main" version="1.1" xmlns="http://www.w3.org/2000/svg" xmlns:xlink="http://www.w3.org/1999/xlink" xml:space="preserve" onload="init(evt)">
<style type="text/css"><![CDATA[
.edge:hover path { stroke: red; }
.edge:hover polygon { stroke: red; fill: red; }
]]></style>
<script type="text/javascript"><![CDATA[
var edges = document.getElementsByTagName('g');
if (edges && edges.length) {
  for (var i=0;i<edges.length;i++) {
    if (edges[i].id.substr(0,4)=='edge') {
      edges[i].setAttribute('class','edge');
    }
  }
}
]]></script>
        <defs>
                <circle id="rim" cx="0" cy="0" r="7"/>
                <circle id="rim2" cx="0" cy="0" r="3.5"/>
                <g id="zoomPlus">
                        <use xlink:href="#rim" fill="#404040">
                                <set attributeName="fill" to="#808080" begin="zoomplus.mouseover" end="zoomplus.mouseout"/>
                        </use>
                        <path d="M-4,0h8M0,-4v8" fill="none" stroke="white" stroke-width="1.5" pointer-events="none"/>
                </g>
                <g id="zoomMin">
                        <use xlink:href="#rim" fill="#404040">
                                <set attributeName="fill" to="#808080" begin="zoomminus.mouseover" end="zoomminus.mouseout"/>
                        </use>
                        <path d="M-4,0h8" fill="none" stroke="white" stroke-width="1.5" pointer-events="none"/>
                </g>
                <g id="dirArrow">
                        <path fill="none" stroke="white" stroke-width="1.5" d="M0,-3.0v7 M-2.5,-0.5L0,-3.0L2.5,-0.5"/>
                </g>
               <g id="resetDef">
                       <use xlink:href="#rim2" fill="#404040">
                               <set attributeName="fill" to="#808080" begin="reset.mouseover" end="reset.mouseout"/>
                       </use>
               </g>
        </defs>

<script type="text/javascript">
var viewWidth = 1028;
var viewHeight = 222;
var sectionId = 'dynsection-0';
</script>
<script xlink:href="svgpan.js"/>
<svg id="graph" class="graph">
<g id="viewport">
<title>pinhao::Formula&lt; T &gt;</title>
<polygon fill="white" stroke="none" points="-4,4 -4,-218 1024,-218 1024,4 -4,4"/>
<!-- Node0 -->
<g id="node1" class="node"><title>Node0</title>
<polygon fill="#bfbfbf" stroke="black" points="146,-95.5 146,-114.5 256,-114.5 256,-95.5 146,-95.5"/>
<text text-anchor="middle" x="201" y="-102.5" font-family="Helvetica,sans-Serif" font-size="10.00">pinhao::Formula&lt; T &gt;</text>
</g>
<!-- Node2 -->
<g id="node3" class="node"><title>Node2</title>
<g id="a_node3"><a xlink:href="classpinhao_1_1BinOpFormulaBase.html" target="_top" xlink:title="BinOpFormulaBase\&lt; T, T \&gt;">
<polygon fill="white" stroke="black" points="510,-194.5 510,-213.5 647,-213.5 647,-194.5 510,-194.5"/>
<text text-anchor="middle" x="578.5" y="-201.5" font-family="Helvetica,sans-Serif" font-size="10.00">BinOpFormulaBase&lt; T, T &gt;</text>
</a>
</g>
</g>
<!-- Node0&#45;&gt;Node2 -->
<g id="edge2" class="edge"><title>Node0&#45;&gt;Node2</title>
<path fill="none" stroke="midnightblue" d="M222.143,-120.694C246.593,-138.776 289.807,-167.7 332,-181 390.18,-199.339 459.657,-204.388 509.827,-205.26"/>
<polygon fill="midnightblue" stroke="midnightblue" points="224.113,-117.796 214.02,-114.572 219.899,-123.386 224.113,-117.796"/>
</g>
<!-- Node4 -->
<g id="node5" class="node"><title>Node4</title>
<g id="a_node5"><a xlink:href="classpinhao_1_1BinOpFormulaBase.html" target="_top" xlink:title="Base class for binary operations. ">
<polygon fill="white" stroke="black" points="332,-152.5 332,-171.5 492,-171.5 492,-152.5 332,-152.5"/>
<text text-anchor="middle" x="412" y="-159.5" font-family="Helvetica,sans-Serif" font-size="10.00">pinhao::BinOpFormulaBase&lt; T &gt;</text>
</a>
</g>
</g>
<!-- Node0&#45;&gt;Node4 -->
<g id="edge4" class="edge"><title>Node0&#45;&gt;Node4</title>
<path fill="none" stroke="midnightblue" d="M240.26,-117.662C251.127,-121.138 262.996,-124.822 274,-128 305.667,-137.145 341.876,-146.066 369.113,-152.474"/>
<polygon fill="midnightblue" stroke="midnightblue" points="241.208,-114.29 230.617,-114.548 239.058,-120.951 241.208,-114.29"/>
</g>
<!-- Node8 -->
<g id="node9" class="node"><title>Node8</title>
<g id="a_node9"><a xlink:href="classpinhao_1_1FeatureFormula.html" target="_top" xlink:title="Holds a pair of std::strings. The first represents the feature, and the second represents the sub&#45;fea...">
<polygon fill="white" stroke="black" points="340.5,-114.5 340.5,-133.5 483.5,-133.5 483.5,-114.5 340.5,-114.5"/>
<text text-anchor="middle" x="412" y="-121.5" font-family="Helvetica,sans-Serif" font-size="10.00">pinhao::FeatureFormula&lt; T &gt;</text>
</a>
</g>
</g>
<!-- Node0&#45;&gt;Node8 -->
<g id="edge9" class="edge"><title>Node0&#45;&gt;Node8</title>
<path fill="none" stroke="midnightblue" d="M266.257,-110.842C289.661,-112.969 316.244,-115.386 340.185,-117.562"/>
<polygon fill="midnightblue" stroke="midnightblue" points="266.37,-107.338 256.094,-109.918 265.737,-114.309 266.37,-107.338"/>
</g>
<!-- Node9 -->
<g id="node10" class="node"><title>Node9</title>
<g id="a_node10"><a xlink:href="classpinhao_1_1IfFormula.html" target="_top" xlink:title="The If Formula. ">
<polygon fill="white" stroke="black" points="354,-76.5 354,-95.5 470,-95.5 470,-76.5 354,-76.5"/>
<text text-anchor="middle" x="412" y="-83.5" font-family="Helvetica,sans-Serif" font-size="10.00">pinhao::IfFormula&lt; T &gt;</text>
</a>
</g>
</g>
<!-- Node0&#45;&gt;Node9 -->
<g id="edge10" class="edge"><title>Node0&#45;&gt;Node9</title>
<path fill="none" stroke="midnightblue" d="M266.18,-99.1655C294.164,-96.6215 326.704,-93.6633 353.842,-91.1962"/>
<polygon fill="midnightblue" stroke="midnightblue" points="265.737,-95.6912 256.094,-100.082 266.37,-102.662 265.737,-95.6912"/>
</g>
<!-- Node10 -->
<g id="node11" class="node"><title>Node10</title>
<g id="a_node11"><a xlink:href="classpinhao_1_1LitFormula.html" target="_top" xlink:title="Holds literal of the types. ">
<polygon fill="white" stroke="black" points="351.5,-38.5 351.5,-57.5 472.5,-57.5 472.5,-38.5 351.5,-38.5"/>
<text text-anchor="middle" x="412" y="-45.5" font-family="Helvetica,sans-Serif" font-size="10.00">pinhao::LitFormula&lt; T &gt;</text>
</a>
</g>
</g>
<!-- Node0&#45;&gt;Node10 -->
<g id="edge11" class="edge"><title>Node0&#45;&gt;Node10</title>
<path fill="none" stroke="midnightblue" d="M242.854,-92.5076C268.391,-84.836 302.011,-74.9843 332,-67 344.132,-63.77 357.377,-60.4894 369.494,-57.5838"/>
<polygon fill="midnightblue" stroke="midnightblue" points="241.703,-89.1991 233.14,-95.4379 243.724,-95.9008 241.703,-89.1991"/>
</g>
<!-- Node11 -->
<g id="node12" class="node"><title>Node11</title>
<g id="a_node12"><a xlink:href="classpinhao_1_1Formula.html" target="_top" xlink:title="pinhao::Formula\&lt; bool \&gt;">
<polygon fill="white" stroke="black" points="351,-0.5 351,-19.5 473,-19.5 473,-0.5 351,-0.5"/>
<text text-anchor="middle" x="412" y="-7.5" font-family="Helvetica,sans-Serif" font-size="10.00">pinhao::Formula&lt; bool &gt;</text>
</a>
</g>
</g>
<!-- Node0&#45;&gt;Node11 -->
<g id="edge12" class="edge"><title>Node0&#45;&gt;Node11</title>
<path fill="none" stroke="orange" stroke-dasharray="5,2" d="M223.146,-89.393C247.936,-71.8923 290.878,-44.0032 332,-29 342.071,-25.3255 353.126,-22.1582 363.691,-19.5207"/>
<polygon fill="orange" stroke="orange" points="220.957,-86.6554 214.871,-95.3275 225.037,-92.3437 220.957,-86.6554"/>
<text text-anchor="middle" x="294" y="-59" font-family="Helvetica,sans-Serif" font-size="10.00"> &lt; bool &gt;</text>
</g>
<!-- Node1 -->
<g id="node2" class="node"><title>Node1</title>
<g id="a_node2"><a xlink:href="classpinhao_1_1FormulaBase.html" target="_top" xlink:title="The base class for all Formula types. A Formula is a statement which when evaluated for a FeatureSet...">
<polygon fill="white" stroke="black" points="0,-95.5 0,-114.5 109,-114.5 109,-95.5 0,-95.5"/>
<text text-anchor="middle" x="54.5" y="-102.5" font-family="Helvetica,sans-Serif" font-size="10.00">pinhao::FormulaBase</text>
</a>
</g>
</g>
<!-- Node1&#45;&gt;Node0 -->
<g id="edge1" class="edge"><title>Node1&#45;&gt;Node0</title>
<path fill="none" stroke="midnightblue" d="M119.464,-105C128.208,-105 137.116,-105 145.667,-105"/>
<polygon fill="midnightblue" stroke="midnightblue" points="119.307,-101.5 109.306,-105 119.306,-108.5 119.307,-101.5"/>
</g>
<!-- Node3 -->
<g id="node4" class="node"><title>Node3</title>
<g id="a_node4"><a xlink:href="classpinhao_1_1ArithmeticBinOpFormula.html" target="_top" xlink:title="Represents all arithmetics operations (supported). Only numerical operands type permitted. ">
<polygon fill="white" stroke="black" points="838,-181.5 838,-200.5 1020,-200.5 1020,-181.5 838,-181.5"/>
<text text-anchor="middle" x="929" y="-188.5" font-family="Helvetica,sans-Serif" font-size="10.00">pinhao::ArithmeticBinOpFormula&lt; T &gt;</text>
</a>
</g>
</g>
<!-- Node2&#45;&gt;Node3 -->
<g id="edge3" class="edge"><title>Node2&#45;&gt;Node3</title>
<path fill="none" stroke="midnightblue" d="M657.215,-201.101C710.681,-199.107 781.862,-196.451 837.826,-194.364"/>
<polygon fill="midnightblue" stroke="midnightblue" points="656.97,-197.608 647.108,-201.478 657.231,-204.603 656.97,-197.608"/>
</g>
<!-- Node5 -->
<g id="node6" class="node"><title>Node5</title>
<g id="a_node6"><a xlink:href="classpinhao_1_1BinOpFormulaBase.html" target="_top" xlink:title="pinhao::BinOpFormulaBase\l\&lt; bool, T \&gt;">
<polygon fill="white" stroke="black" points="665,-43 665,-73 801,-73 801,-43 665,-43"/>
<text text-anchor="start" x="673" y="-61" font-family="Helvetica,sans-Serif" font-size="10.00">pinhao::BinOpFormulaBase</text>
<text text-anchor="middle" x="733" y="-50" font-family="Helvetica,sans-Serif" font-size="10.00">&lt; bool, T &gt;</text>
</a>
</g>
</g>
<!-- Node4&#45;&gt;Node5 -->
<g id="edge5" class="edge"><title>Node4&#45;&gt;Node5</title>
<path fill="none" stroke="orange" stroke-dasharray="5,2" d="M466,-150.06C474.727,-147.863 483.648,-145.476 492,-143 564.045,-121.642 646.24,-91.1667 693.335,-73.1016"/>
<polygon fill="orange" stroke="orange" points="465.142,-146.667 456.268,-152.455 466.814,-153.464 465.142,-146.667"/>
<text text-anchor="middle" x="578.5" y="-141" font-family="Helvetica,sans-Serif" font-size="10.00"> &lt; bool, T &gt;</text>
</g>
<!-- Node7 -->
<g id="node8" class="node"><title>Node7</title>
<g id="a_node8"><a xlink:href="classpinhao_1_1BinOpFormulaBase.html" target="_top" xlink:title="pinhao::BinOpFormulaBase\l\&lt; T, T \&gt;">
<polygon fill="white" stroke="black" points="665,-145 665,-175 801,-175 801,-145 665,-145"/>
<text text-anchor="start" x="673" y="-163" font-family="Helvetica,sans-Serif" font-size="10.00">pinhao::BinOpFormulaBase</text>
<text text-anchor="middle" x="733" y="-152" font-family="Helvetica,sans-Serif" font-size="10.00">&lt; T, T &gt;</text>
</a>
</g>
</g>
<!-- Node4&#45;&gt;Node7 -->
<g id="edge7" class="edge"><title>Node4&#45;&gt;Node7</title>
<path fill="none" stroke="orange" stroke-dasharray="5,2" d="M502.39,-161.44C553.874,-161.117 617.525,-160.718 664.743,-160.422"/>
<polygon fill="orange" stroke="orange" points="502.242,-157.94 492.264,-161.503 502.286,-164.94 502.242,-157.94"/>
<text text-anchor="middle" x="578.5" y="-165" font-family="Helvetica,sans-Serif" font-size="10.00"> &lt; T, T &gt;</text>
</g>
<!-- Node6 -->
<g id="node7" class="node"><title>Node6</title>
<g id="a_node7"><a xlink:href="classpinhao_1_1BooleanBinOpFormula.html" target="_top" xlink:title="Represents all logical operations (supported). ">
<polygon fill="white" stroke="black" points="842.5,-48.5 842.5,-67.5 1015.5,-67.5 1015.5,-48.5 842.5,-48.5"/>
<text text-anchor="middle" x="929" y="-55.5" font-family="Helvetica,sans-Serif" font-size="10.00">pinhao::BooleanBinOpFormula&lt; T &gt;</text>
</a>
</g>
</g>
<!-- Node5&#45;&gt;Node6 -->
<g id="edge6" class="edge"><title>Node5&#45;&gt;Node6</title>
<path fill="none" stroke="midnightblue" d="M811.196,-58C821.479,-58 832.071,-58 842.484,-58"/>
<polygon fill="midnightblue" stroke="midnightblue" points="811.035,-54.5001 801.035,-58 811.035,-61.5001 811.035,-54.5001"/>
</g>
<!-- Node7&#45;&gt;Node3 -->
<g id="edge8" class="edge"><title>Node7&#45;&gt;Node3</title>
<path fill="none" stroke="midnightblue" d="M810.922,-172.292C830.051,-175.348 850.269,-178.579 868.421,-181.48"/>
<polygon fill="midnightblue" stroke="midnightblue" points="811.462,-168.834 801.035,-170.712 810.358,-175.746 811.462,-168.834"/>
</g>
<!-- Node11&#45;&gt;Node5 -->
<g id="edge13" class="edge"><title>Node11&#45;&gt;Node5</title>
<path fill="none" stroke="midnightblue" d="M483.192,-20.5618C537.257,-28.697 611.523,-39.8719 664.819,-47.8912"/>
<polygon fill="midnightblue" stroke="midnightblue" points="483.411,-17.0554 473.001,-19.0284 482.369,-23.9775 483.411,-17.0554"/>
</g>
</g>
</svg>
        <g id="navigator" transform="translate(0 0)" fill="#404254">
                <rect fill="#f2f5e9" fill-opacity="0.5" stroke="#606060" stroke-width=".5" x="0" y="0" width="60" height="60"/>
                <use id="zoomplus" xlink:href="#zoomPlus" x="17" y="9" onmousedown="handleZoom(evt,'in')"/>
                <use id="zoomminus" xlink:href="#zoomMin" x="42" y="9" onmousedown="handleZoom(evt,'out')"/>
                <use id="reset" xlink:href="#resetDef" x="30" y="36" onmousedown="handleReset()"/>
                <g id="arrowUp" xlink:href="#dirArrow" transform="translate(30 24)" onmousedown="handlePan(0,-1)">
                  <use xlink:href="#rim" fill="#404040">
                        <set attributeName="fill" to="#808080" begin="arrowUp.mouseover" end="arrowUp.mouseout"/>
                  </use>
                  <path fill="none" stroke="white" stroke-width="1.5" d="M0,-3.0v7 M-2.5,-0.5L0,-3.0L2.5,-0.5"/>
                </g>
                <g id="arrowRight" xlink:href="#dirArrow" transform="rotate(90) translate(36 -43)" onmousedown="handlePan(1,0)">
                  <use xlink:href="#rim" fill="#404040">
                        <set attributeName="fill" to="#808080" begin="arrowRight.mouseover" end="arrowRight.mouseout"/>
                  </use>
                  <path fill="none" stroke="white" stroke-width="1.5" d="M0,-3.0v7 M-2.5,-0.5L0,-3.0L2.5,-0.5"/>
                </g>
                <g id="arrowDown" xlink:href="#dirArrow" transform="rotate(180) translate(-30 -48)" onmousedown="handlePan(0,1)">
                  <use xlink:href="#rim" fill="#404040">
                        <set attributeName="fill" to="#808080" begin="arrowDown.mouseover" end="arrowDown.mouseout"/>
                  </use>
                  <path fill="none" stroke="white" stroke-width="1.5" d="M0,-3.0v7 M-2.5,-0.5L0,-3.0L2.5,-0.5"/>
                </g>
                <g id="arrowLeft" xlink:href="#dirArrow" transform="rotate(270) translate(-36 17)" onmousedown="handlePan(-1,0)">
                  <use xlink:href="#rim" fill="#404040">
                        <set attributeName="fill" to="#808080" begin="arrowLeft.mouseover" end="arrowLeft.mouseout"/>
                  </use>
                  <path fill="none" stroke="white" stroke-width="1.5" d="M0,-3.0v7 M-2.5,-0.5L0,-3.0L2.5,-0.5"/>
                </g>
        </g>
        <svg viewBox="0 0 15 15" width="100%" height="30px" preserveAspectRatio="xMaxYMin meet">
         <g id="arrow_out" transform="scale(0.3 0.3)">
          <a xlink:href="classpinhao_1_1Formula__inherit__graph_org.svg" target="_base">
           <rect id="button" ry="5" rx="5" y="6" x="6" height="38" width="38"
                fill="#f2f5e9" fill-opacity="0.5" stroke="#606060" stroke-width="1.0"/>
           <path id="arrow"
             d="M 11.500037,31.436501 C 11.940474,20.09759 22.043105,11.32322 32.158766,21.979434 L 37.068811,17.246167 C 37.068811,17.246167 37.088388,32 37.088388,32 L 22.160133,31.978069 C 22.160133,31.978069 26.997745,27.140456 26.997745,27.140456 C 18.528582,18.264221 13.291696,25.230495 11.500037,31.436501 z"
             style="fill:#404040;"/>
          </a>
         </g>
        </svg>
</svg>
