<?xml version="1.0" encoding="UTF-8" standalone="no"?>
<!DOCTYPE svg PUBLIC "-//W3C//DTD SVG 1.1//EN"
 "http://www.w3.org/Graphics/SVG/1.1/DTD/svg11.dtd">
<!-- Generated by graphviz version 2.38.0 (20140413.2041)
 -->
<!-- Title: pinhao::LinearFeature&lt; ValueType &gt; Pages: 1 -->
<svg width="250pt" height="242pt"
 viewBox="0.00 0.00 249.50 242.00" xmlns="http://www.w3.org/2000/svg" xmlns:xlink="http://www.w3.org/1999/xlink">
<g id="graph0" class="graph" transform="scale(1 1) rotate(0) translate(4 238)">
<title>pinhao::LinearFeature&lt; ValueType &gt;</title>
<polygon fill="white" stroke="none" points="-4,4 -4,-238 245.5,-238 245.5,4 -4,4"/>
<!-- Node0 -->
<g id="node1" class="node"><title>Node0</title>
<polygon fill="#bfbfbf" stroke="black" points="55,-146.5 55,-176.5 165,-176.5 165,-146.5 55,-146.5"/>
<text text-anchor="start" x="63" y="-164.5" font-family="Helvetica,sans-Serif" font-size="10.00">pinhao::LinearFeature</text>
<text text-anchor="middle" x="110" y="-153.5" font-family="Helvetica,sans-Serif" font-size="10.00">&lt; ValueType &gt;</text>
</g>
<!-- Node2 -->
<g id="node3" class="node"><title>Node2</title>
<g id="a_node3"><a xlink:href="classpinhao_1_1LinearFeature.html" target="_top" xlink:title="pinhao::LinearFeature\l\&lt; std::string \&gt;">
<polygon fill="white" stroke="black" points="1,-68.5 1,-98.5 111,-98.5 111,-68.5 1,-68.5"/>
<text text-anchor="start" x="9" y="-86.5" font-family="Helvetica,sans-Serif" font-size="10.00">pinhao::LinearFeature</text>
<text text-anchor="middle" x="56" y="-75.5" font-family="Helvetica,sans-Serif" font-size="10.00">&lt; std::string &gt;</text>
</a>
</g>
</g>
<!-- Node0&#45;&gt;Node2 -->
<g id="edge2" class="edge"><title>Node0&#45;&gt;Node2</title>
<path fill="none" stroke="orange" stroke-dasharray="5,2" d="M93.9711,-137.941C84.9431,-125.235 73.9433,-109.754 66.1114,-98.7309"/>
<polygon fill="orange" stroke="orange" points="91.1978,-140.08 99.843,-146.205 96.904,-136.026 91.1978,-140.08"/>
<text text-anchor="middle" x="119.5" y="-120" font-family="Helvetica,sans-Serif" font-size="10.00"> &lt; std::string &gt;</text>
</g>
<!-- Node4 -->
<g id="node5" class="node"><title>Node4</title>
<g id="a_node5"><a xlink:href="classpinhao_1_1LinearFeature.html" target="_top" xlink:title="pinhao::LinearFeature\l\&lt; ElemType \&gt;">
<polygon fill="white" stroke="black" points="130,-68.5 130,-98.5 240,-98.5 240,-68.5 130,-68.5"/>
<text text-anchor="start" x="138" y="-86.5" font-family="Helvetica,sans-Serif" font-size="10.00">pinhao::LinearFeature</text>
<text text-anchor="middle" x="185" y="-75.5" font-family="Helvetica,sans-Serif" font-size="10.00">&lt; ElemType &gt;</text>
</a>
</g>
</g>
<!-- Node0&#45;&gt;Node4 -->
<g id="edge4" class="edge"><title>Node0&#45;&gt;Node4</title>
<path fill="none" stroke="orange" stroke-dasharray="5,2" d="M139.167,-140.282C143.992,-136.433 148.789,-132.266 153,-128 161.826,-119.059 170.179,-107.56 176.137,-98.6301"/>
<polygon fill="orange" stroke="orange" points="136.946,-137.574 131.119,-146.422 141.192,-143.139 136.946,-137.574"/>
<text text-anchor="middle" x="195" y="-120" font-family="Helvetica,sans-Serif" font-size="10.00"> &lt; ElemType &gt;</text>
</g>
<!-- Node1 -->
<g id="node2" class="node"><title>Node1</title>
<g id="a_node2"><a xlink:href="classpinhao_1_1Feature.html" target="_top" xlink:title="This is the base class for features. ">
<polygon fill="white" stroke="black" points="68,-214.5 68,-233.5 152,-233.5 152,-214.5 68,-214.5"/>
<text text-anchor="middle" x="110" y="-221.5" font-family="Helvetica,sans-Serif" font-size="10.00">pinhao::Feature</text>
</a>
</g>
</g>
<!-- Node1&#45;&gt;Node0 -->
<g id="edge1" class="edge"><title>Node1&#45;&gt;Node0</title>
<path fill="none" stroke="midnightblue" d="M110,-204.215C110,-195.356 110,-184.958 110,-176.759"/>
<polygon fill="midnightblue" stroke="midnightblue" points="106.5,-204.332 110,-214.332 113.5,-204.332 106.5,-204.332"/>
</g>
<!-- Node3 -->
<g id="node4" class="node"><title>Node3</title>
<g id="a_node4"><a xlink:href="classpinhao_1_1StringFeature.html" target="_top" xlink:title="Implements a string version of a linear feature. ">
<polygon fill="white" stroke="black" points="0,-6 0,-25 110,-25 110,-6 0,-6"/>
<text text-anchor="middle" x="55" y="-13" font-family="Helvetica,sans-Serif" font-size="10.00">pinhao::StringFeature</text>
</a>
</g>
</g>
<!-- Node2&#45;&gt;Node3 -->
<g id="edge3" class="edge"><title>Node2&#45;&gt;Node3</title>
<path fill="none" stroke="midnightblue" d="M55.6269,-57.8764C55.4541,-46.4711 55.2596,-33.6364 55.1338,-25.3283"/>
<polygon fill="midnightblue" stroke="midnightblue" points="52.1318,-58.2332 55.783,-68.179 59.131,-58.1271 52.1318,-58.2332"/>
</g>
<!-- Node5 -->
<g id="node6" class="node"><title>Node5</title>
<g id="a_node6"><a xlink:href="classpinhao_1_1VectorFeature.html" target="_top" xlink:title="Implements a template vector feature class. ">
<polygon fill="white" stroke="black" points="128.5,-0.5 128.5,-30.5 241.5,-30.5 241.5,-0.5 128.5,-0.5"/>
<text text-anchor="start" x="136.5" y="-18.5" font-family="Helvetica,sans-Serif" font-size="10.00">pinhao::VectorFeature</text>
<text text-anchor="middle" x="185" y="-7.5" font-family="Helvetica,sans-Serif" font-size="10.00">&lt; ElemType &gt;</text>
</a>
</g>
</g>
<!-- Node4&#45;&gt;Node5 -->
<g id="edge5" class="edge"><title>Node4&#45;&gt;Node5</title>
<path fill="none" stroke="midnightblue" d="M185,-58.0322C185,-48.8606 185,-38.7449 185,-30.7931"/>
<polygon fill="midnightblue" stroke="midnightblue" points="181.5,-58.1789 185,-68.179 188.5,-58.179 181.5,-58.1789"/>
</g>
</g>
</svg>
