<?xml version="1.0" encoding="UTF-8" standalone="no"?>
<!DOCTYPE svg PUBLIC "-//W3C//DTD SVG 1.1//EN"
 "http://www.w3.org/Graphics/SVG/1.1/DTD/svg11.dtd">
<!-- Generated by graphviz version 2.38.0 (20140413.2041)
 -->
<!-- Title: pinhao::StringFeature Pages: 1 -->
<svg width="185pt" height="231pt"
 viewBox="0.00 0.00 185.00 231.00" xmlns="http://www.w3.org/2000/svg" xmlns:xlink="http://www.w3.org/1999/xlink">
<g id="graph0" class="graph" transform="scale(1 1) rotate(0) translate(4 227)">
<title>pinhao::StringFeature</title>
<polygon fill="white" stroke="none" points="-4,4 -4,-227 181,-227 181,4 -4,4"/>
<!-- Node0 -->
<g id="node1" class="node"><title>Node0</title>
<polygon fill="#bfbfbf" stroke="black" points="0,-0.5 0,-19.5 110,-19.5 110,-0.5 0,-0.5"/>
<text text-anchor="middle" x="55" y="-7.5" font-family="Helvetica,sans-Serif" font-size="10.00">pinhao::StringFeature</text>
</g>
<!-- Node1 -->
<g id="node2" class="node"><title>Node1</title>
<g id="a_node2"><a xlink:href="classpinhao_1_1LinearFeature.html" target="_top" xlink:title="pinhao::LinearFeature\l\&lt; std::string \&gt;">
<polygon fill="white" stroke="black" points="0,-57.5 0,-87.5 110,-87.5 110,-57.5 0,-57.5"/>
<text text-anchor="start" x="8" y="-75.5" font-family="Helvetica,sans-Serif" font-size="10.00">pinhao::LinearFeature</text>
<text text-anchor="middle" x="55" y="-64.5" font-family="Helvetica,sans-Serif" font-size="10.00">&lt; std::string &gt;</text>
</a>
</g>
</g>
<!-- Node1&#45;&gt;Node0 -->
<g id="edge1" class="edge"><title>Node1&#45;&gt;Node0</title>
<path fill="none" stroke="midnightblue" d="M55,-47.3524C55,-37.5132 55,-26.7753 55,-19.5399"/>
<polygon fill="midnightblue" stroke="midnightblue" points="51.5001,-47.468 55,-57.468 58.5001,-47.4681 51.5001,-47.468"/>
</g>
<!-- Node2 -->
<g id="node3" class="node"><title>Node2</title>
<g id="a_node3"><a xlink:href="classpinhao_1_1Feature.html" target="_top" xlink:title="This is the base class for features. ">
<polygon fill="white" stroke="black" points="24,-203.5 24,-222.5 108,-222.5 108,-203.5 24,-203.5"/>
<text text-anchor="middle" x="66" y="-210.5" font-family="Helvetica,sans-Serif" font-size="10.00">pinhao::Feature</text>
</a>
</g>
</g>
<!-- Node2&#45;&gt;Node1 -->
<g id="edge2" class="edge"><title>Node2&#45;&gt;Node1</title>
<path fill="none" stroke="midnightblue" d="M62.1079,-193.143C60.556,-184.854 58.922,-174.981 58,-166 55.1612,-138.349 54.7892,-105.827 54.8463,-87.6452"/>
<polygon fill="midnightblue" stroke="midnightblue" points="58.7289,-194.099 64.0987,-203.232 65.5965,-192.744 58.7289,-194.099"/>
</g>
<!-- Node3 -->
<g id="node4" class="node"><title>Node3</title>
<g id="a_node4"><a xlink:href="classpinhao_1_1LinearFeature.html" target="_top" xlink:title="Abstract class of linear features. ">
<polygon fill="white" stroke="black" points="67,-135.5 67,-165.5 177,-165.5 177,-135.5 67,-135.5"/>
<text text-anchor="start" x="75" y="-153.5" font-family="Helvetica,sans-Serif" font-size="10.00">pinhao::LinearFeature</text>
<text text-anchor="middle" x="122" y="-142.5" font-family="Helvetica,sans-Serif" font-size="10.00">&lt; ValueType &gt;</text>
</a>
</g>
</g>
<!-- Node2&#45;&gt;Node3 -->
<g id="edge4" class="edge"><title>Node2&#45;&gt;Node3</title>
<path fill="none" stroke="midnightblue" d="M80.9736,-195.823C89.642,-186.458 100.454,-174.778 108.802,-165.759"/>
<polygon fill="midnightblue" stroke="midnightblue" points="78.2478,-193.616 74.0234,-203.332 83.3849,-198.371 78.2478,-193.616"/>
</g>
<!-- Node3&#45;&gt;Node1 -->
<g id="edge3" class="edge"><title>Node3&#45;&gt;Node1</title>
<path fill="none" stroke="orange" stroke-dasharray="5,2" d="M102.756,-127.671C91.4373,-114.832 77.4499,-98.9656 67.5457,-87.7309"/>
<polygon fill="orange" stroke="orange" points="100.159,-130.018 109.398,-135.205 105.41,-125.389 100.159,-130.018"/>
<text text-anchor="middle" x="124.5" y="-109" font-family="Helvetica,sans-Serif" font-size="10.00"> &lt; std::string &gt;</text>
</g>
</g>
</svg>
