<?xml version="1.0" encoding="UTF-8" standalone="no"?>
<!DOCTYPE svg PUBLIC "-//W3C//DTD SVG 1.1//EN"
 "http://www.w3.org/Graphics/SVG/1.1/DTD/svg11.dtd">
<!-- Generated by graphviz version 2.38.0 (20140413.2041)
 -->
<!-- Title: pinhao::ArithmeticBinOpFormula&lt; T &gt; Pages: 1 -->
<svg width="231pt" height="288pt"
 viewBox="0.00 0.00 231.00 288.00" xmlns="http://www.w3.org/2000/svg" xmlns:xlink="http://www.w3.org/1999/xlink">
<g id="graph0" class="graph" transform="scale(1 1) rotate(0) translate(4 284)">
<title>pinhao::ArithmeticBinOpFormula&lt; T &gt;</title>
<polygon fill="white" stroke="none" points="-4,4 -4,-284 227,-284 227,4 -4,4"/>
<!-- Node0 -->
<g id="node1" class="node"><title>Node0</title>
<polygon fill="#bfbfbf" stroke="black" points="0,-0.5 0,-19.5 182,-19.5 182,-0.5 0,-0.5"/>
<text text-anchor="middle" x="91" y="-7.5" font-family="Helvetica,sans-Serif" font-size="10.00">pinhao::ArithmeticBinOpFormula&lt; T &gt;</text>
</g>
<!-- Node1 -->
<g id="node2" class="node"><title>Node1</title>
<g id="a_node2"><a xlink:href="classpinhao_1_1BinOpFormulaBase.html" target="_top" xlink:title="pinhao::BinOpFormulaBase\l\&lt; T, T \&gt;">
<polygon fill="white" stroke="black" points="23,-57.5 23,-87.5 159,-87.5 159,-57.5 23,-57.5"/>
<text text-anchor="start" x="31" y="-75.5" font-family="Helvetica,sans-Serif" font-size="10.00">pinhao::BinOpFormulaBase</text>
<text text-anchor="middle" x="91" y="-64.5" font-family="Helvetica,sans-Serif" font-size="10.00">&lt; T, T &gt;</text>
</a>
</g>
</g>
<!-- Node1&#45;&gt;Node0 -->
<g id="edge1" class="edge"><title>Node1&#45;&gt;Node0</title>
<path fill="none" stroke="midnightblue" d="M91,-47.3524C91,-37.5132 91,-26.7753 91,-19.5399"/>
<polygon fill="midnightblue" stroke="midnightblue" points="87.5001,-47.468 91,-57.468 94.5001,-47.4681 87.5001,-47.468"/>
</g>
<!-- Node2 -->
<g id="node3" class="node"><title>Node2</title>
<g id="a_node3"><a xlink:href="classpinhao_1_1Formula.html" target="_top" xlink:title="The base template class for the Formulas. ">
<polygon fill="white" stroke="black" points="16,-203.5 16,-222.5 126,-222.5 126,-203.5 16,-203.5"/>
<text text-anchor="middle" x="71" y="-210.5" font-family="Helvetica,sans-Serif" font-size="10.00">pinhao::Formula&lt; T &gt;</text>
</a>
</g>
</g>
<!-- Node2&#45;&gt;Node1 -->
<g id="edge2" class="edge"><title>Node2&#45;&gt;Node1</title>
<path fill="none" stroke="midnightblue" d="M72.1019,-193.008C73.1584,-177.378 75.0369,-154.674 78,-135 80.4704,-118.597 84.5902,-99.9916 87.5299,-87.5816"/>
<polygon fill="midnightblue" stroke="midnightblue" points="68.5822,-193.215 71.4499,-203.415 75.5685,-193.653 68.5822,-193.215"/>
</g>
<!-- Node4 -->
<g id="node5" class="node"><title>Node4</title>
<g id="a_node5"><a xlink:href="classpinhao_1_1BinOpFormulaBase.html" target="_top" xlink:title="Base class for binary operations. ">
<polygon fill="white" stroke="black" points="87,-135.5 87,-165.5 223,-165.5 223,-135.5 87,-135.5"/>
<text text-anchor="start" x="95" y="-153.5" font-family="Helvetica,sans-Serif" font-size="10.00">pinhao::BinOpFormulaBase</text>
<text text-anchor="middle" x="155" y="-142.5" font-family="Helvetica,sans-Serif" font-size="10.00">&lt; T, OpT &gt;</text>
</a>
</g>
</g>
<!-- Node2&#45;&gt;Node4 -->
<g id="edge5" class="edge"><title>Node2&#45;&gt;Node4</title>
<path fill="none" stroke="midnightblue" d="M91.1917,-197.457C104.643,-187.769 122.225,-175.106 135.526,-165.526"/>
<polygon fill="midnightblue" stroke="midnightblue" points="89.1041,-194.647 83.0352,-203.332 93.1951,-200.328 89.1041,-194.647"/>
</g>
<!-- Node3 -->
<g id="node4" class="node"><title>Node3</title>
<g id="a_node4"><a xlink:href="classpinhao_1_1FormulaBase.html" target="_top" xlink:title="The base class for all Formula types. A Formula is a statement which when evaluated for a FeatureSet...">
<polygon fill="white" stroke="black" points="16.5,-260.5 16.5,-279.5 125.5,-279.5 125.5,-260.5 16.5,-260.5"/>
<text text-anchor="middle" x="71" y="-267.5" font-family="Helvetica,sans-Serif" font-size="10.00">pinhao::FormulaBase</text>
</a>
</g>
</g>
<!-- Node3&#45;&gt;Node2 -->
<g id="edge3" class="edge"><title>Node3&#45;&gt;Node2</title>
<path fill="none" stroke="midnightblue" d="M71,-250.117C71,-240.817 71,-230.056 71,-222.715"/>
<polygon fill="midnightblue" stroke="midnightblue" points="67.5001,-250.406 71,-260.406 74.5001,-250.406 67.5001,-250.406"/>
</g>
<!-- Node4&#45;&gt;Node1 -->
<g id="edge4" class="edge"><title>Node4&#45;&gt;Node1</title>
<path fill="none" stroke="orange" stroke-dasharray="5,2" d="M136.311,-127.307C125.554,-114.533 112.355,-98.8596 102.984,-87.7309"/>
<polygon fill="orange" stroke="orange" points="133.844,-129.81 142.962,-135.205 139.198,-125.301 133.844,-129.81"/>
<text text-anchor="middle" x="146" y="-109" font-family="Helvetica,sans-Serif" font-size="10.00"> &lt; T, T &gt;</text>
</g>
</g>
</svg>
