<?xml version="1.0" encoding="UTF-8" standalone="no"?>
<!DOCTYPE svg PUBLIC "-//W3C//DTD SVG 1.1//EN"
 "http://www.w3.org/Graphics/SVG/1.1/DTD/svg11.dtd">
<!-- Generated by graphviz version 2.38.0 (20140413.2041)
 -->
<!-- Title: pinhao::BoolBinOpFormula&lt; bool &gt; Pages: 1 -->
<svg width="284pt" height="309pt"
 viewBox="0.00 0.00 284.00 309.00" xmlns="http://www.w3.org/2000/svg" xmlns:xlink="http://www.w3.org/1999/xlink">
<g id="graph0" class="graph" transform="scale(1 1) rotate(0) translate(4 305)">
<title>pinhao::BoolBinOpFormula&lt; bool &gt;</title>
<polygon fill="white" stroke="none" points="-4,4 -4,-305 280,-305 280,4 -4,4"/>
<!-- Node0 -->
<g id="node1" class="node"><title>Node0</title>
<polygon fill="#bfbfbf" stroke="black" points="38.5,-0.5 38.5,-30.5 171.5,-30.5 171.5,-0.5 38.5,-0.5"/>
<text text-anchor="start" x="46.5" y="-18.5" font-family="Helvetica,sans-Serif" font-size="10.00">pinhao::BoolBinOpFormula</text>
<text text-anchor="middle" x="105" y="-7.5" font-family="Helvetica,sans-Serif" font-size="10.00">&lt; bool &gt;</text>
</g>
<!-- Node1 -->
<g id="node2" class="node"><title>Node1</title>
<g id="a_node2"><a xlink:href="classpinhao_1_1BinOpFormulaBase.html" target="_top" xlink:title="pinhao::BinOpFormulaBase\l\&lt; bool, bool \&gt;">
<polygon fill="white" stroke="black" points="37,-68.5 37,-98.5 173,-98.5 173,-68.5 37,-68.5"/>
<text text-anchor="start" x="45" y="-86.5" font-family="Helvetica,sans-Serif" font-size="10.00">pinhao::BinOpFormulaBase</text>
<text text-anchor="middle" x="105" y="-75.5" font-family="Helvetica,sans-Serif" font-size="10.00">&lt; bool, bool &gt;</text>
</a>
</g>
</g>
<!-- Node1&#45;&gt;Node0 -->
<g id="edge1" class="edge"><title>Node1&#45;&gt;Node0</title>
<path fill="none" stroke="midnightblue" d="M105,-58.0322C105,-48.8606 105,-38.7449 105,-30.7931"/>
<polygon fill="midnightblue" stroke="midnightblue" points="101.5,-58.1789 105,-68.179 108.5,-58.179 101.5,-58.1789"/>
</g>
<!-- Node2 -->
<g id="node3" class="node"><title>Node2</title>
<g id="a_node3"><a xlink:href="classpinhao_1_1Formula.html" target="_top" xlink:title="pinhao::Formula\&lt; bool \&gt;">
<polygon fill="white" stroke="black" points="0,-152 0,-171 122,-171 122,-152 0,-152"/>
<text text-anchor="middle" x="61" y="-159" font-family="Helvetica,sans-Serif" font-size="10.00">pinhao::Formula&lt; bool &gt;</text>
</a>
</g>
</g>
<!-- Node2&#45;&gt;Node1 -->
<g id="edge2" class="edge"><title>Node2&#45;&gt;Node1</title>
<path fill="none" stroke="midnightblue" d="M71.1469,-142.974C78.9638,-129.472 89.6272,-111.053 96.8833,-98.5198"/>
<polygon fill="midnightblue" stroke="midnightblue" points="68.0288,-141.374 66.0474,-151.782 74.0868,-144.881 68.0288,-141.374"/>
</g>
<!-- Node3 -->
<g id="node4" class="node"><title>Node3</title>
<g id="a_node4"><a xlink:href="classpinhao_1_1FormulaBase.html" target="_top" xlink:title="The base class for all Formula types. A Formula is a statement which when evaluated for a FeatureSet...">
<polygon fill="white" stroke="black" points="33.5,-281.5 33.5,-300.5 142.5,-300.5 142.5,-281.5 33.5,-281.5"/>
<text text-anchor="middle" x="88" y="-288.5" font-family="Helvetica,sans-Serif" font-size="10.00">pinhao::FormulaBase</text>
</a>
</g>
</g>
<!-- Node3&#45;&gt;Node2 -->
<g id="edge3" class="edge"><title>Node3&#45;&gt;Node2</title>
<path fill="none" stroke="midnightblue" d="M84.01,-271.158C78.0913,-243.209 67.217,-191.858 62.8688,-171.325"/>
<polygon fill="midnightblue" stroke="midnightblue" points="80.6483,-272.178 86.1442,-281.236 87.4965,-270.728 80.6483,-272.178"/>
</g>
<!-- Node4 -->
<g id="node5" class="node"><title>Node4</title>
<g id="a_node5"><a xlink:href="classpinhao_1_1Formula.html" target="_top" xlink:title="The base template class for the Formulas. ">
<polygon fill="white" stroke="black" points="89,-224.5 89,-243.5 199,-243.5 199,-224.5 89,-224.5"/>
<text text-anchor="middle" x="144" y="-231.5" font-family="Helvetica,sans-Serif" font-size="10.00">pinhao::Formula&lt; T &gt;</text>
</a>
</g>
</g>
<!-- Node3&#45;&gt;Node4 -->
<g id="edge5" class="edge"><title>Node3&#45;&gt;Node4</title>
<path fill="none" stroke="midnightblue" d="M104.166,-274.123C114.245,-264.224 126.831,-251.862 135.127,-243.715"/>
<polygon fill="midnightblue" stroke="midnightblue" points="101.432,-271.902 96.75,-281.406 106.337,-276.896 101.432,-271.902"/>
</g>
<!-- Node4&#45;&gt;Node2 -->
<g id="edge4" class="edge"><title>Node4&#45;&gt;Node2</title>
<path fill="none" stroke="orange" stroke-dasharray="5,2" d="M125.852,-217.585C109.116,-203.37 84.8695,-182.775 71.2607,-171.215"/>
<polygon fill="orange" stroke="orange" points="123.935,-220.549 133.823,-224.355 128.467,-215.214 123.935,-220.549"/>
<text text-anchor="middle" x="129" y="-198" font-family="Helvetica,sans-Serif" font-size="10.00"> &lt; bool &gt;</text>
</g>
<!-- Node5 -->
<g id="node6" class="node"><title>Node5</title>
<g id="a_node6"><a xlink:href="classpinhao_1_1BinOpFormulaBase.html" target="_top" xlink:title="Base class for binary operations. ">
<polygon fill="white" stroke="black" points="140,-146.5 140,-176.5 276,-176.5 276,-146.5 140,-146.5"/>
<text text-anchor="start" x="148" y="-164.5" font-family="Helvetica,sans-Serif" font-size="10.00">pinhao::BinOpFormulaBase</text>
<text text-anchor="middle" x="208" y="-153.5" font-family="Helvetica,sans-Serif" font-size="10.00">&lt; T, OpT &gt;</text>
</a>
</g>
</g>
<!-- Node4&#45;&gt;Node5 -->
<g id="edge7" class="edge"><title>Node4&#45;&gt;Node5</title>
<path fill="none" stroke="midnightblue" d="M158.757,-216.744C169.783,-204.598 184.703,-188.163 195.222,-176.576"/>
<polygon fill="midnightblue" stroke="midnightblue" points="155.978,-214.599 151.848,-224.355 161.161,-219.304 155.978,-214.599"/>
</g>
<!-- Node5&#45;&gt;Node1 -->
<g id="edge6" class="edge"><title>Node5&#45;&gt;Node1</title>
<path fill="none" stroke="orange" stroke-dasharray="5,2" d="M180.367,-140.111C162.647,-127.036 140.087,-110.39 124.287,-98.7309"/>
<polygon fill="orange" stroke="orange" points="178.502,-143.084 188.626,-146.205 182.658,-137.451 178.502,-143.084"/>
<text text-anchor="middle" x="194" y="-120" font-family="Helvetica,sans-Serif" font-size="10.00"> &lt; bool, bool &gt;</text>
</g>
</g>
</svg>
