<?xml version="1.0" encoding="UTF-8" standalone="no"?>
<!DOCTYPE svg PUBLIC "-//W3C//DTD SVG 1.1//EN"
 "http://www.w3.org/Graphics/SVG/1.1/DTD/svg11.dtd">
<!-- Generated by graphviz version 2.38.0 (20140413.2041)
 -->
<!-- Title: pinhao::SimpleGrammarEvolution Pages: 1 -->
<svg width="170pt" height="163pt"
 viewBox="0.00 0.00 170.00 163.00" xmlns="http://www.w3.org/2000/svg" xmlns:xlink="http://www.w3.org/1999/xlink">
<g id="graph0" class="graph" transform="scale(1 1) rotate(0) translate(4 159)">
<title>pinhao::SimpleGrammarEvolution</title>
<polygon fill="white" stroke="none" points="-4,4 -4,-159 166,-159 166,4 -4,4"/>
<!-- Node0 -->
<g id="node1" class="node"><title>Node0</title>
<polygon fill="#bfbfbf" stroke="black" points="0,-0.5 0,-19.5 162,-19.5 162,-0.5 0,-0.5"/>
<text text-anchor="middle" x="81" y="-7.5" font-family="Helvetica,sans-Serif" font-size="10.00">pinhao::SimpleGrammarEvolution</text>
</g>
<!-- Node1 -->
<g id="node2" class="node"><title>Node1</title>
<g id="a_node2"><a xlink:href="classpinhao_1_1GrammarEvolution.html" target="_top" xlink:title="pinhao::GrammarEvolution\l\&lt; Candidate \&gt;">
<polygon fill="white" stroke="black" points="15,-57.5 15,-87.5 147,-87.5 147,-57.5 15,-57.5"/>
<text text-anchor="start" x="23" y="-75.5" font-family="Helvetica,sans-Serif" font-size="10.00">pinhao::GrammarEvolution</text>
<text text-anchor="middle" x="81" y="-64.5" font-family="Helvetica,sans-Serif" font-size="10.00">&lt; Candidate &gt;</text>
</a>
</g>
</g>
<!-- Node1&#45;&gt;Node0 -->
<g id="edge1" class="edge"><title>Node1&#45;&gt;Node0</title>
<path fill="none" stroke="midnightblue" d="M81,-47.3524C81,-37.5132 81,-26.7753 81,-19.5399"/>
<polygon fill="midnightblue" stroke="midnightblue" points="77.5001,-47.468 81,-57.468 84.5001,-47.4681 77.5001,-47.468"/>
</g>
<!-- Node2 -->
<g id="node3" class="node"><title>Node2</title>
<g id="a_node3"><a xlink:href="classpinhao_1_1GrammarEvolution.html" target="_top" xlink:title="The base GrammarEvolution class. ">
<polygon fill="white" stroke="black" points="3,-135.5 3,-154.5 159,-154.5 159,-135.5 3,-135.5"/>
<text text-anchor="middle" x="81" y="-142.5" font-family="Helvetica,sans-Serif" font-size="10.00">pinhao::GrammarEvolution&lt; T &gt;</text>
</a>
</g>
</g>
<!-- Node2&#45;&gt;Node1 -->
<g id="edge2" class="edge"><title>Node2&#45;&gt;Node1</title>
<path fill="none" stroke="orange" stroke-dasharray="5,2" d="M81,-125.236C81,-113.408 81,-98.3829 81,-87.5762"/>
<polygon fill="orange" stroke="orange" points="77.5001,-125.355 81,-135.355 84.5001,-125.355 77.5001,-125.355"/>
<text text-anchor="middle" x="114" y="-109" font-family="Helvetica,sans-Serif" font-size="10.00"> &lt; Candidate &gt;</text>
</g>
</g>
</svg>
