<?xml version="1.0" encoding="UTF-8" standalone="no"?>
<!DOCTYPE svg PUBLIC "-//W3C//DTD SVG 1.1//EN"
 "http://www.w3.org/Graphics/SVG/1.1/DTD/svg11.dtd">
<!-- Generated by graphviz version 2.38.0 (20140413.2041)
 -->
<!-- Title: pinhao::FeatureSet::iterator Pages: 1 -->
<svg width="255pt" height="61pt"
 viewBox="0.00 0.00 255.00 61.00" xmlns="http://www.w3.org/2000/svg" xmlns:xlink="http://www.w3.org/1999/xlink">
<g id="graph0" class="graph" transform="scale(1 1) rotate(0) translate(4 57)">
<title>pinhao::FeatureSet::iterator</title>
<polygon fill="white" stroke="none" points="-4,4 -4,-57 251,-57 251,4 -4,4"/>
<!-- Node0 -->
<g id="node1" class="node"><title>Node0</title>
<polygon fill="#bfbfbf" stroke="black" points="148,-11.5 148,-41.5 247,-41.5 247,-11.5 148,-11.5"/>
<text text-anchor="start" x="156" y="-29.5" font-family="Helvetica,sans-Serif" font-size="10.00">pinhao::FeatureSet</text>
<text text-anchor="middle" x="197.5" y="-18.5" font-family="Helvetica,sans-Serif" font-size="10.00">::iterator</text>
</g>
<!-- Node1 -->
<g id="node2" class="node"><title>Node1</title>
<polygon fill="white" stroke="#bfbfbf" points="0,-0.5 0,-52.5 112,-52.5 112,-0.5 0,-0.5"/>
<text text-anchor="start" x="8" y="-40.5" font-family="Helvetica,sans-Serif" font-size="10.00">std::iterator&lt; std</text>
<text text-anchor="start" x="8" y="-29.5" font-family="Helvetica,sans-Serif" font-size="10.00">::forward_iterator_tag,</text>
<text text-anchor="start" x="8" y="-18.5" font-family="Helvetica,sans-Serif" font-size="10.00"> std::pair&lt; std::string,</text>
<text text-anchor="middle" x="56" y="-7.5" font-family="Helvetica,sans-Serif" font-size="10.00"> std::string &gt; &gt;</text>
</g>
<!-- Node1&#45;&gt;Node0 -->
<g id="edge1" class="edge"><title>Node1&#45;&gt;Node0</title>
<path fill="none" stroke="#8b1a1a" d="M122.135,-26.5C130.718,-26.5 139.395,-26.5 147.642,-26.5"/>
<polygon fill="#8b1a1a" stroke="#8b1a1a" points="122.134,-23.0001 112.134,-26.5 122.134,-30.0001 122.134,-23.0001"/>
</g>
</g>
</svg>
