<?xml version="1.0" encoding="UTF-8" standalone="no"?>
<!DOCTYPE svg PUBLIC "-//W3C//DTD SVG 1.1//EN"
 "http://www.w3.org/Graphics/SVG/1.1/DTD/svg11.dtd">
<!-- Generated by graphviz version 2.38.0 (20140413.2041)
 -->
<!-- Title: pinhao::VectorFeature&lt; ElemType &gt; Pages: 1 -->
<svg width="187pt" height="242pt"
 viewBox="0.00 0.00 186.50 242.00" xmlns="http://www.w3.org/2000/svg" xmlns:xlink="http://www.w3.org/1999/xlink">
<g id="graph0" class="graph" transform="scale(1 1) rotate(0) translate(4 238)">
<title>pinhao::VectorFeature&lt; ElemType &gt;</title>
<polygon fill="white" stroke="none" points="-4,4 -4,-238 182.5,-238 182.5,4 -4,4"/>
<!-- Node0 -->
<g id="node1" class="node"><title>Node0</title>
<polygon fill="#bfbfbf" stroke="black" points="0,-0.5 0,-30.5 113,-30.5 113,-0.5 0,-0.5"/>
<text text-anchor="start" x="8" y="-18.5" font-family="Helvetica,sans-Serif" font-size="10.00">pinhao::VectorFeature</text>
<text text-anchor="middle" x="56.5" y="-7.5" font-family="Helvetica,sans-Serif" font-size="10.00">&lt; ElemType &gt;</text>
</g>
<!-- Node1 -->
<g id="node2" class="node"><title>Node1</title>
<g id="a_node2"><a xlink:href="classpinhao_1_1LinearFeature.html" target="_top" xlink:title="pinhao::LinearFeature\l\&lt; ElemType \&gt;">
<polygon fill="white" stroke="black" points="1.5,-68.5 1.5,-98.5 111.5,-98.5 111.5,-68.5 1.5,-68.5"/>
<text text-anchor="start" x="9.5" y="-86.5" font-family="Helvetica,sans-Serif" font-size="10.00">pinhao::LinearFeature</text>
<text text-anchor="middle" x="56.5" y="-75.5" font-family="Helvetica,sans-Serif" font-size="10.00">&lt; ElemType &gt;</text>
</a>
</g>
</g>
<!-- Node1&#45;&gt;Node0 -->
<g id="edge1" class="edge"><title>Node1&#45;&gt;Node0</title>
<path fill="none" stroke="midnightblue" d="M56.5,-58.0322C56.5,-48.8606 56.5,-38.7449 56.5,-30.7931"/>
<polygon fill="midnightblue" stroke="midnightblue" points="53.0001,-58.1789 56.5,-68.179 60.0001,-58.179 53.0001,-58.1789"/>
</g>
<!-- Node2 -->
<g id="node3" class="node"><title>Node2</title>
<g id="a_node3"><a xlink:href="classpinhao_1_1Feature.html" target="_top" xlink:title="This is the base class for features. ">
<polygon fill="white" stroke="black" points="25.5,-214.5 25.5,-233.5 109.5,-233.5 109.5,-214.5 25.5,-214.5"/>
<text text-anchor="middle" x="67.5" y="-221.5" font-family="Helvetica,sans-Serif" font-size="10.00">pinhao::Feature</text>
</a>
</g>
</g>
<!-- Node2&#45;&gt;Node1 -->
<g id="edge2" class="edge"><title>Node2&#45;&gt;Node1</title>
<path fill="none" stroke="midnightblue" d="M63.6079,-204.143C62.056,-195.854 60.422,-185.981 59.5,-177 56.6612,-149.349 56.2892,-116.827 56.3463,-98.6452"/>
<polygon fill="midnightblue" stroke="midnightblue" points="60.2289,-205.099 65.5987,-214.232 67.0965,-203.744 60.2289,-205.099"/>
</g>
<!-- Node3 -->
<g id="node4" class="node"><title>Node3</title>
<g id="a_node4"><a xlink:href="classpinhao_1_1LinearFeature.html" target="_top" xlink:title="Abstract class of linear features. ">
<polygon fill="white" stroke="black" points="68.5,-146.5 68.5,-176.5 178.5,-176.5 178.5,-146.5 68.5,-146.5"/>
<text text-anchor="start" x="76.5" y="-164.5" font-family="Helvetica,sans-Serif" font-size="10.00">pinhao::LinearFeature</text>
<text text-anchor="middle" x="123.5" y="-153.5" font-family="Helvetica,sans-Serif" font-size="10.00">&lt; ValueType &gt;</text>
</a>
</g>
</g>
<!-- Node2&#45;&gt;Node3 -->
<g id="edge4" class="edge"><title>Node2&#45;&gt;Node3</title>
<path fill="none" stroke="midnightblue" d="M82.4736,-206.823C91.142,-197.458 101.954,-185.778 110.302,-176.759"/>
<polygon fill="midnightblue" stroke="midnightblue" points="79.7478,-204.616 75.5234,-214.332 84.8849,-209.371 79.7478,-204.616"/>
</g>
<!-- Node3&#45;&gt;Node1 -->
<g id="edge3" class="edge"><title>Node3&#45;&gt;Node1</title>
<path fill="none" stroke="orange" stroke-dasharray="5,2" d="M104.256,-138.671C92.9373,-125.832 78.9499,-109.966 69.0457,-98.7309"/>
<polygon fill="orange" stroke="orange" points="101.659,-141.018 110.898,-146.205 106.91,-136.389 101.659,-141.018"/>
<text text-anchor="middle" x="126.5" y="-120" font-family="Helvetica,sans-Serif" font-size="10.00"> &lt; ElemType &gt;</text>
</g>
</g>
</svg>
