<?xml version="1.0" encoding="UTF-8" standalone="no"?>
<!DOCTYPE svg PUBLIC "-//W3C//DTD SVG 1.1//EN"
 "http://www.w3.org/Graphics/SVG/1.1/DTD/svg11.dtd">
<!-- Generated by graphviz version 2.38.0 (20140413.2041)
 -->
<!-- Title: pinhao::Formula&lt; T &gt; Pages: 1 -->
<!--zoomable 271 -->
<svg id="main" version="1.1" xmlns="http://www.w3.org/2000/svg" xmlns:xlink="http://www.w3.org/1999/xlink" xml:space="preserve" onload="init(evt)">
<style type="text/css"><![CDATA[
.edge:hover path { stroke: red; }
.edge:hover polygon { stroke: red; fill: red; }
]]></style>
<script type="text/javascript"><![CDATA[
var edges = document.getElementsByTagName('g');
if (edges && edges.length) {
  for (var i=0;i<edges.length;i++) {
    if (edges[i].id.substr(0,4)=='edge') {
      edges[i].setAttribute('class','edge');
    }
  }
}
]]></script>
        <defs>
                <circle id="rim" cx="0" cy="0" r="7"/>
                <circle id="rim2" cx="0" cy="0" r="3.5"/>
                <g id="zoomPlus">
                        <use xlink:href="#rim" fill="#404040">
                                <set attributeName="fill" to="#808080" begin="zoomplus.mouseover" end="zoomplus.mouseout"/>
                        </use>
                        <path d="M-4,0h8M0,-4v8" fill="none" stroke="white" stroke-width="1.5" pointer-events="none"/>
                </g>
                <g id="zoomMin">
                        <use xlink:href="#rim" fill="#404040">
                                <set attributeName="fill" to="#808080" begin="zoomminus.mouseover" end="zoomminus.mouseout"/>
                        </use>
                        <path d="M-4,0h8" fill="none" stroke="white" stroke-width="1.5" pointer-events="none"/>
                </g>
                <g id="dirArrow">
                        <path fill="none" stroke="white" stroke-width="1.5" d="M0,-3.0v7 M-2.5,-0.5L0,-3.0L2.5,-0.5"/>
                </g>
               <g id="resetDef">
                       <use xlink:href="#rim2" fill="#404040">
                               <set attributeName="fill" to="#808080" begin="reset.mouseover" end="reset.mouseout"/>
                       </use>
               </g>
        </defs>

<script type="text/javascript">
var viewWidth = 1004;
var viewHeight = 271;
var sectionId = 'dynsection-0';
</script>
<script xlink:href="svgpan.js"/>
<svg id="graph" class="graph">
<g id="viewport">
<title>pinhao::Formula&lt; T &gt;</title>
<polygon fill="white" stroke="none" points="-4,4 -4,-267 1000,-267 1000,4 -4,4"/>
<!-- Node0 -->
<g id="node1" class="node"><title>Node0</title>
<polygon fill="#bfbfbf" stroke="black" points="146,-95.5 146,-114.5 256,-114.5 256,-95.5 146,-95.5"/>
<text text-anchor="middle" x="201" y="-102.5" font-family="Helvetica,sans-Serif" font-size="10.00">pinhao::Formula&lt; T &gt;</text>
</g>
<!-- Node2 -->
<g id="node3" class="node"><title>Node2</title>
<g id="a_node3"><a xlink:href="classpinhao_1_1BinOpFormulaBase.html" target="_top" xlink:title="BinOpFormulaBase\&lt; T, T \&gt;">
<polygon fill="white" stroke="black" points="510,-243.5 510,-262.5 647,-262.5 647,-243.5 510,-243.5"/>
<text text-anchor="middle" x="578.5" y="-250.5" font-family="Helvetica,sans-Serif" font-size="10.00">BinOpFormulaBase&lt; T, T &gt;</text>
</a>
</g>
</g>
<!-- Node0&#45;&gt;Node2 -->
<g id="edge2" class="edge"><title>Node0&#45;&gt;Node2</title>
<path fill="none" stroke="midnightblue" d="M220.602,-121.282C244.68,-141.518 288.704,-175.729 332,-195 389.315,-220.511 459.357,-235.632 509.937,-244.004"/>
<polygon fill="midnightblue" stroke="midnightblue" points="222.83,-118.582 212.95,-114.755 218.286,-123.908 222.83,-118.582"/>
</g>
<!-- Node4 -->
<g id="node5" class="node"><title>Node4</title>
<g id="a_node5"><a xlink:href="classpinhao_1_1BinOpFormulaBase.html" target="_top" xlink:title="Base class for binary operations. ">
<polygon fill="white" stroke="black" points="332,-166.5 332,-185.5 492,-185.5 492,-166.5 332,-166.5"/>
<text text-anchor="middle" x="412" y="-173.5" font-family="Helvetica,sans-Serif" font-size="10.00">pinhao::BinOpFormulaBase&lt; T &gt;</text>
</a>
</g>
</g>
<!-- Node0&#45;&gt;Node4 -->
<g id="edge4" class="edge"><title>Node0&#45;&gt;Node4</title>
<path fill="none" stroke="midnightblue" d="M237.336,-117.992C248.986,-122.214 262.024,-126.872 274,-131 310.686,-143.646 353.171,-157.475 380.983,-166.419"/>
<polygon fill="midnightblue" stroke="midnightblue" points="238.524,-114.7 227.93,-114.57 236.131,-121.278 238.524,-114.7"/>
</g>
<!-- Node10 -->
<g id="node11" class="node"><title>Node10</title>
<g id="a_node11"><a xlink:href="classpinhao_1_1FeatureFormula.html" target="_top" xlink:title="Holds a pair of std::strings. The first represents the feature, and the second represents the sub&#45;fea...">
<polygon fill="white" stroke="black" points="340.5,-76.5 340.5,-95.5 483.5,-95.5 483.5,-76.5 340.5,-76.5"/>
<text text-anchor="middle" x="412" y="-83.5" font-family="Helvetica,sans-Serif" font-size="10.00">pinhao::FeatureFormula&lt; T &gt;</text>
</a>
</g>
</g>
<!-- Node0&#45;&gt;Node10 -->
<g id="edge11" class="edge"><title>Node0&#45;&gt;Node10</title>
<path fill="none" stroke="midnightblue" d="M266.257,-99.1585C289.661,-97.0308 316.244,-94.6142 340.185,-92.4377"/>
<polygon fill="midnightblue" stroke="midnightblue" points="265.737,-95.6912 256.094,-100.082 266.37,-102.662 265.737,-95.6912"/>
</g>
<!-- Node11 -->
<g id="node12" class="node"><title>Node11</title>
<g id="a_node12"><a xlink:href="classpinhao_1_1IfFormula.html" target="_top" xlink:title="The If Formula. ">
<polygon fill="white" stroke="black" points="354,-38.5 354,-57.5 470,-57.5 470,-38.5 354,-38.5"/>
<text text-anchor="middle" x="412" y="-45.5" font-family="Helvetica,sans-Serif" font-size="10.00">pinhao::IfFormula&lt; T &gt;</text>
</a>
</g>
</g>
<!-- Node0&#45;&gt;Node11 -->
<g id="edge12" class="edge"><title>Node0&#45;&gt;Node11</title>
<path fill="none" stroke="midnightblue" d="M242.854,-92.5076C268.391,-84.836 302.011,-74.9843 332,-67 344.132,-63.77 357.377,-60.4894 369.494,-57.5838"/>
<polygon fill="midnightblue" stroke="midnightblue" points="241.703,-89.1991 233.14,-95.4379 243.724,-95.9008 241.703,-89.1991"/>
</g>
<!-- Node12 -->
<g id="node13" class="node"><title>Node12</title>
<g id="a_node13"><a xlink:href="classpinhao_1_1LitFormula.html" target="_top" xlink:title="Holds literal of the types. ">
<polygon fill="white" stroke="black" points="351.5,-0.5 351.5,-19.5 472.5,-19.5 472.5,-0.5 351.5,-0.5"/>
<text text-anchor="middle" x="412" y="-7.5" font-family="Helvetica,sans-Serif" font-size="10.00">pinhao::LitFormula&lt; T &gt;</text>
</a>
</g>
</g>
<!-- Node0&#45;&gt;Node12 -->
<g id="edge13" class="edge"><title>Node0&#45;&gt;Node12</title>
<path fill="none" stroke="midnightblue" d="M223.73,-89.5997C248.749,-72.5247 291.606,-45.2523 332,-29 341.292,-25.2615 351.506,-22.1353 361.416,-19.5692"/>
<polygon fill="midnightblue" stroke="midnightblue" points="221.591,-86.8232 215.357,-95.3898 225.572,-92.5806 221.591,-86.8232"/>
</g>
<!-- Node13 -->
<g id="node14" class="node"><title>Node13</title>
<g id="a_node14"><a xlink:href="classpinhao_1_1Formula.html" target="_top" xlink:title="pinhao::Formula\&lt; bool \&gt;">
<polygon fill="white" stroke="black" points="351,-114.5 351,-133.5 473,-133.5 473,-114.5 351,-114.5"/>
<text text-anchor="middle" x="412" y="-121.5" font-family="Helvetica,sans-Serif" font-size="10.00">pinhao::Formula&lt; bool &gt;</text>
</a>
</g>
</g>
<!-- Node0&#45;&gt;Node13 -->
<g id="edge14" class="edge"><title>Node0&#45;&gt;Node13</title>
<path fill="none" stroke="orange" stroke-dasharray="5,2" d="M266.204,-110.837C293.168,-113.288 324.36,-116.124 350.873,-118.534"/>
<polygon fill="orange" stroke="orange" points="266.37,-107.338 256.094,-109.918 265.737,-114.309 266.37,-107.338"/>
<text text-anchor="middle" x="294" y="-119" font-family="Helvetica,sans-Serif" font-size="10.00"> &lt; bool &gt;</text>
</g>
<!-- Node1 -->
<g id="node2" class="node"><title>Node1</title>
<g id="a_node2"><a xlink:href="classpinhao_1_1FormulaBase.html" target="_top" xlink:title="The base class for all Formula types. A Formula is a statement which when evaluated for a FeatureSet...">
<polygon fill="white" stroke="black" points="0,-95.5 0,-114.5 109,-114.5 109,-95.5 0,-95.5"/>
<text text-anchor="middle" x="54.5" y="-102.5" font-family="Helvetica,sans-Serif" font-size="10.00">pinhao::FormulaBase</text>
</a>
</g>
</g>
<!-- Node1&#45;&gt;Node0 -->
<g id="edge1" class="edge"><title>Node1&#45;&gt;Node0</title>
<path fill="none" stroke="midnightblue" d="M119.464,-105C128.208,-105 137.116,-105 145.667,-105"/>
<polygon fill="midnightblue" stroke="midnightblue" points="119.307,-101.5 109.306,-105 119.306,-108.5 119.307,-101.5"/>
</g>
<!-- Node3 -->
<g id="node4" class="node"><title>Node3</title>
<g id="a_node4"><a xlink:href="classpinhao_1_1ArithBinOpFormula.html" target="_top" xlink:title="Represents all arithmetics operations (supported). Only numerical operands type permitted. ">
<polygon fill="white" stroke="black" points="838,-234.5 838,-253.5 996,-253.5 996,-234.5 838,-234.5"/>
<text text-anchor="middle" x="917" y="-241.5" font-family="Helvetica,sans-Serif" font-size="10.00">pinhao::ArithBinOpFormula&lt; T &gt;</text>
</a>
</g>
</g>
<!-- Node2&#45;&gt;Node3 -->
<g id="edge3" class="edge"><title>Node2&#45;&gt;Node3</title>
<path fill="none" stroke="midnightblue" d="M657.436,-250.916C711.619,-249.466 783.561,-247.542 837.801,-246.091"/>
<polygon fill="midnightblue" stroke="midnightblue" points="657.094,-247.423 647.191,-251.19 657.281,-254.421 657.094,-247.423"/>
</g>
<!-- Node5 -->
<g id="node6" class="node"><title>Node5</title>
<g id="a_node6"><a xlink:href="classpinhao_1_1BinOpFormulaBase.html" target="_top" xlink:title="pinhao::BinOpFormulaBase\l\&lt; bool, T \&gt;">
<polygon fill="white" stroke="black" points="665,-144 665,-174 801,-174 801,-144 665,-144"/>
<text text-anchor="start" x="673" y="-162" font-family="Helvetica,sans-Serif" font-size="10.00">pinhao::BinOpFormulaBase</text>
<text text-anchor="middle" x="733" y="-151" font-family="Helvetica,sans-Serif" font-size="10.00">&lt; bool, T &gt;</text>
</a>
</g>
</g>
<!-- Node4&#45;&gt;Node5 -->
<g id="edge5" class="edge"><title>Node4&#45;&gt;Node5</title>
<path fill="none" stroke="orange" stroke-dasharray="5,2" d="M502.39,-171.236C553.874,-168.493 617.525,-165.101 664.743,-162.584"/>
<polygon fill="orange" stroke="orange" points="502.063,-167.749 492.264,-171.776 502.436,-174.739 502.063,-167.749"/>
<text text-anchor="middle" x="578.5" y="-174" font-family="Helvetica,sans-Serif" font-size="10.00"> &lt; bool, T &gt;</text>
</g>
<!-- Node7 -->
<g id="node8" class="node"><title>Node7</title>
<g id="a_node8"><a xlink:href="classpinhao_1_1BinOpFormulaBase.html" target="_top" xlink:title="pinhao::BinOpFormulaBase\l\&lt; T, T \&gt;">
<polygon fill="white" stroke="black" points="665,-198 665,-228 801,-228 801,-198 665,-198"/>
<text text-anchor="start" x="673" y="-216" font-family="Helvetica,sans-Serif" font-size="10.00">pinhao::BinOpFormulaBase</text>
<text text-anchor="middle" x="733" y="-205" font-family="Helvetica,sans-Serif" font-size="10.00">&lt; T, T &gt;</text>
</a>
</g>
</g>
<!-- Node4&#45;&gt;Node7 -->
<g id="edge7" class="edge"><title>Node4&#45;&gt;Node7</title>
<path fill="none" stroke="orange" stroke-dasharray="5,2" d="M502.39,-186.368C553.874,-192.34 617.525,-199.722 664.743,-205.199"/>
<polygon fill="orange" stroke="orange" points="502.6,-182.869 492.264,-185.194 501.794,-189.823 502.6,-182.869"/>
<text text-anchor="middle" x="578.5" y="-207" font-family="Helvetica,sans-Serif" font-size="10.00"> &lt; T, T &gt;</text>
</g>
<!-- Node8 -->
<g id="node9" class="node"><title>Node8</title>
<g id="a_node9"><a xlink:href="classpinhao_1_1BinOpFormulaBase.html" target="_top" xlink:title="pinhao::BinOpFormulaBase\l\&lt; bool, bool \&gt;">
<polygon fill="white" stroke="black" points="665,-86 665,-116 801,-116 801,-86 665,-86"/>
<text text-anchor="start" x="673" y="-104" font-family="Helvetica,sans-Serif" font-size="10.00">pinhao::BinOpFormulaBase</text>
<text text-anchor="middle" x="733" y="-93" font-family="Helvetica,sans-Serif" font-size="10.00">&lt; bool, bool &gt;</text>
</a>
</g>
</g>
<!-- Node4&#45;&gt;Node8 -->
<g id="edge9" class="edge"><title>Node4&#45;&gt;Node8</title>
<path fill="none" stroke="orange" stroke-dasharray="5,2" d="M455.275,-163.653C472.228,-158.854 491.984,-153.451 510,-149 561.68,-136.232 620.59,-123.582 664.733,-114.476"/>
<polygon fill="orange" stroke="orange" points="454.307,-160.29 445.651,-166.398 456.227,-167.021 454.307,-160.29"/>
<text text-anchor="middle" x="578.5" y="-152" font-family="Helvetica,sans-Serif" font-size="10.00"> &lt; bool, bool &gt;</text>
</g>
<!-- Node6 -->
<g id="node7" class="node"><title>Node6</title>
<g id="a_node7"><a xlink:href="classpinhao_1_1BoolBinOpFormula.html" target="_top" xlink:title="Represents all logical operations (supported). ">
<polygon fill="white" stroke="black" points="838.5,-149.5 838.5,-168.5 995.5,-168.5 995.5,-149.5 838.5,-149.5"/>
<text text-anchor="middle" x="917" y="-156.5" font-family="Helvetica,sans-Serif" font-size="10.00">pinhao::BoolBinOpFormula&lt; T &gt;</text>
</a>
</g>
</g>
<!-- Node5&#45;&gt;Node6 -->
<g id="edge6" class="edge"><title>Node5&#45;&gt;Node6</title>
<path fill="none" stroke="midnightblue" d="M811.541,-159C820.391,-159 829.414,-159 838.266,-159"/>
<polygon fill="midnightblue" stroke="midnightblue" points="811.253,-155.5 801.253,-159 811.253,-162.5 811.253,-155.5"/>
</g>
<!-- Node7&#45;&gt;Node3 -->
<g id="edge8" class="edge"><title>Node7&#45;&gt;Node3</title>
<path fill="none" stroke="midnightblue" d="M811.342,-226.174C827.703,-228.96 844.666,-231.85 860.051,-234.47"/>
<polygon fill="midnightblue" stroke="midnightblue" points="811.699,-222.684 801.253,-224.455 810.523,-229.585 811.699,-222.684"/>
</g>
<!-- Node9 -->
<g id="node10" class="node"><title>Node9</title>
<g id="a_node10"><a xlink:href="classpinhao_1_1BoolBinOpFormula_3_01bool_01_4.html" target="_top" xlink:title="The operations that can only be applied to two Boolean operands. ">
<polygon fill="white" stroke="black" points="850.5,-86 850.5,-116 983.5,-116 983.5,-86 850.5,-86"/>
<text text-anchor="start" x="858.5" y="-104" font-family="Helvetica,sans-Serif" font-size="10.00">pinhao::BoolBinOpFormula</text>
<text text-anchor="middle" x="917" y="-93" font-family="Helvetica,sans-Serif" font-size="10.00">&lt; bool &gt;</text>
</a>
</g>
</g>
<!-- Node8&#45;&gt;Node9 -->
<g id="edge10" class="edge"><title>Node8&#45;&gt;Node9</title>
<path fill="none" stroke="midnightblue" d="M811.498,-101C824.396,-101 837.665,-101 850.236,-101"/>
<polygon fill="midnightblue" stroke="midnightblue" points="811.253,-97.5001 801.253,-101 811.253,-104.5 811.253,-97.5001"/>
</g>
<!-- Node13&#45;&gt;Node5 -->
<g id="edge16" class="edge"><title>Node13&#45;&gt;Node5</title>
<path fill="none" stroke="midnightblue" d="M483.14,-120.863C529.904,-120.05 592.553,-121.426 647,-131 662.761,-133.771 679.599,-138.845 694.097,-143.92"/>
<polygon fill="midnightblue" stroke="midnightblue" points="483.036,-117.364 473.112,-121.074 483.184,-124.362 483.036,-117.364"/>
</g>
<!-- Node13&#45;&gt;Node8 -->
<g id="edge15" class="edge"><title>Node13&#45;&gt;Node8</title>
<path fill="none" stroke="midnightblue" d="M466.3,-112.516C480.44,-109.908 495.742,-107.474 510,-106 561.769,-100.649 620.674,-99.5511 664.792,-99.7088"/>
<polygon fill="midnightblue" stroke="midnightblue" points="465.408,-109.123 456.241,-114.435 466.72,-115.999 465.408,-109.123"/>
</g>
</g>
</svg>
        <g id="navigator" transform="translate(0 0)" fill="#404254">
                <rect fill="#f2f5e9" fill-opacity="0.5" stroke="#606060" stroke-width=".5" x="0" y="0" width="60" height="60"/>
                <use id="zoomplus" xlink:href="#zoomPlus" x="17" y="9" onmousedown="handleZoom(evt,'in')"/>
                <use id="zoomminus" xlink:href="#zoomMin" x="42" y="9" onmousedown="handleZoom(evt,'out')"/>
                <use id="reset" xlink:href="#resetDef" x="30" y="36" onmousedown="handleReset()"/>
                <g id="arrowUp" xlink:href="#dirArrow" transform="translate(30 24)" onmousedown="handlePan(0,-1)">
                  <use xlink:href="#rim" fill="#404040">
                        <set attributeName="fill" to="#808080" begin="arrowUp.mouseover" end="arrowUp.mouseout"/>
                  </use>
                  <path fill="none" stroke="white" stroke-width="1.5" d="M0,-3.0v7 M-2.5,-0.5L0,-3.0L2.5,-0.5"/>
                </g>
                <g id="arrowRight" xlink:href="#dirArrow" transform="rotate(90) translate(36 -43)" onmousedown="handlePan(1,0)">
                  <use xlink:href="#rim" fill="#404040">
                        <set attributeName="fill" to="#808080" begin="arrowRight.mouseover" end="arrowRight.mouseout"/>
                  </use>
                  <path fill="none" stroke="white" stroke-width="1.5" d="M0,-3.0v7 M-2.5,-0.5L0,-3.0L2.5,-0.5"/>
                </g>
                <g id="arrowDown" xlink:href="#dirArrow" transform="rotate(180) translate(-30 -48)" onmousedown="handlePan(0,1)">
                  <use xlink:href="#rim" fill="#404040">
                        <set attributeName="fill" to="#808080" begin="arrowDown.mouseover" end="arrowDown.mouseout"/>
                  </use>
                  <path fill="none" stroke="white" stroke-width="1.5" d="M0,-3.0v7 M-2.5,-0.5L0,-3.0L2.5,-0.5"/>
                </g>
                <g id="arrowLeft" xlink:href="#dirArrow" transform="rotate(270) translate(-36 17)" onmousedown="handlePan(-1,0)">
                  <use xlink:href="#rim" fill="#404040">
                        <set attributeName="fill" to="#808080" begin="arrowLeft.mouseover" end="arrowLeft.mouseout"/>
                  </use>
                  <path fill="none" stroke="white" stroke-width="1.5" d="M0,-3.0v7 M-2.5,-0.5L0,-3.0L2.5,-0.5"/>
                </g>
        </g>
        <svg viewBox="0 0 15 15" width="100%" height="30px" preserveAspectRatio="xMaxYMin meet">
         <g id="arrow_out" transform="scale(0.3 0.3)">
          <a xlink:href="classpinhao_1_1Formula__inherit__graph_org.svg" target="_base">
           <rect id="button" ry="5" rx="5" y="6" x="6" height="38" width="38"
                fill="#f2f5e9" fill-opacity="0.5" stroke="#606060" stroke-width="1.0"/>
           <path id="arrow"
             d="M 11.500037,31.436501 C 11.940474,20.09759 22.043105,11.32322 32.158766,21.979434 L 37.068811,17.246167 C 37.068811,17.246167 37.088388,32 37.088388,32 L 22.160133,31.978069 C 22.160133,31.978069 26.997745,27.140456 26.997745,27.140456 C 18.528582,18.264221 13.291696,25.230495 11.500037,31.436501 z"
             style="fill:#404040;"/>
          </a>
         </g>
        </svg>
</svg>
