<?xml version="1.0" encoding="UTF-8" standalone="no"?>
<!DOCTYPE svg PUBLIC "-//W3C//DTD SVG 1.1//EN"
 "http://www.w3.org/Graphics/SVG/1.1/DTD/svg11.dtd">
<!-- Generated by graphviz version 2.38.0 (20140413.2041)
 -->
<!-- Title: pinhao::KeyIterator&lt; KType &gt; Pages: 1 -->
<svg width="141pt" height="184pt"
 viewBox="0.00 0.00 141.00 184.00" xmlns="http://www.w3.org/2000/svg" xmlns:xlink="http://www.w3.org/1999/xlink">
<g id="graph0" class="graph" transform="scale(1 1) rotate(0) translate(4 180)">
<title>pinhao::KeyIterator&lt; KType &gt;</title>
<polygon fill="white" stroke="none" points="-4,4 -4,-180 137,-180 137,4 -4,4"/>
<!-- Node0 -->
<g id="node1" class="node"><title>Node0</title>
<polygon fill="#bfbfbf" stroke="black" points="17,-67.5 17,-97.5 116,-97.5 116,-67.5 17,-67.5"/>
<text text-anchor="start" x="25" y="-85.5" font-family="Helvetica,sans-Serif" font-size="10.00">pinhao::KeyIterator</text>
<text text-anchor="middle" x="66.5" y="-74.5" font-family="Helvetica,sans-Serif" font-size="10.00">&lt; KType &gt;</text>
</g>
<!-- Node2 -->
<g id="node3" class="node"><title>Node2</title>
<g id="a_node3"><a xlink:href="classpinhao_1_1StdMapKeyIterator.html" target="_top" xlink:title="Concrete class that iterates over the keys of the stl provided std::map class. ">
<polygon fill="white" stroke="black" points="0,-0.5 0,-30.5 133,-30.5 133,-0.5 0,-0.5"/>
<text text-anchor="start" x="8" y="-18.5" font-family="Helvetica,sans-Serif" font-size="10.00">pinhao::StdMapKeyIterator</text>
<text text-anchor="middle" x="66.5" y="-7.5" font-family="Helvetica,sans-Serif" font-size="10.00">&lt; KType &gt;</text>
</a>
</g>
</g>
<!-- Node0&#45;&gt;Node2 -->
<g id="edge2" class="edge"><title>Node0&#45;&gt;Node2</title>
<path fill="none" stroke="midnightblue" d="M66.5,-57.1081C66.5,-48.1539 66.5,-38.3227 66.5,-30.5765"/>
<polygon fill="midnightblue" stroke="midnightblue" points="63.0001,-57.3959 66.5,-67.396 70.0001,-57.396 63.0001,-57.3959"/>
</g>
<!-- Node1 -->
<g id="node2" class="node"><title>Node1</title>
<polygon fill="white" stroke="#bfbfbf" points="10.5,-134.5 10.5,-175.5 122.5,-175.5 122.5,-134.5 10.5,-134.5"/>
<text text-anchor="start" x="18.5" y="-163.5" font-family="Helvetica,sans-Serif" font-size="10.00">std::iterator&lt; std</text>
<text text-anchor="start" x="18.5" y="-152.5" font-family="Helvetica,sans-Serif" font-size="10.00">::forward_iterator_tag,</text>
<text text-anchor="middle" x="66.5" y="-141.5" font-family="Helvetica,sans-Serif" font-size="10.00"> KType &gt;</text>
</g>
<!-- Node1&#45;&gt;Node0 -->
<g id="edge1" class="edge"><title>Node1&#45;&gt;Node0</title>
<path fill="none" stroke="midnightblue" d="M66.5,-124.08C66.5,-115.006 66.5,-105.45 66.5,-97.8916"/>
<polygon fill="midnightblue" stroke="midnightblue" points="63.0001,-124.362 66.5,-134.362 70.0001,-124.362 63.0001,-124.362"/>
</g>
</g>
</svg>
