<?xml version="1.0" encoding="UTF-8" standalone="no"?>
<!DOCTYPE svg PUBLIC "-//W3C//DTD SVG 1.1//EN"
 "http://www.w3.org/Graphics/SVG/1.1/DTD/svg11.dtd">
<!-- Generated by graphviz version 2.38.0 (20140413.2041)
 -->
<!-- Title: pinhao::FormulaBase Pages: 1 -->
<svg width="1028pt" height="218pt"
 viewBox="0.00 0.00 1028.00 218.00" xmlns="http://www.w3.org/2000/svg" xmlns:xlink="http://www.w3.org/1999/xlink">
<g id="graph0" class="graph" transform="scale(1 1) rotate(0) translate(4 214)">
<title>pinhao::FormulaBase</title>
<polygon fill="white" stroke="none" points="-4,4 -4,-214 1024,-214 1024,4 -4,4"/>
<!-- Node0 -->
<g id="node1" class="node"><title>Node0</title>
<polygon fill="#bfbfbf" stroke="black" points="0,-167.5 0,-186.5 109,-186.5 109,-167.5 0,-167.5"/>
<text text-anchor="middle" x="54.5" y="-174.5" font-family="Helvetica,sans-Serif" font-size="10.00">pinhao::FormulaBase</text>
</g>
<!-- Node1 -->
<g id="node2" class="node"><title>Node1</title>
<g id="a_node2"><a xlink:href="classpinhao_1_1Formula.html" target="_top" xlink:title="pinhao::Formula\&lt; bool \&gt;">
<polygon fill="white" stroke="black" points="351,-190.5 351,-209.5 473,-209.5 473,-190.5 351,-190.5"/>
<text text-anchor="middle" x="412" y="-197.5" font-family="Helvetica,sans-Serif" font-size="10.00">pinhao::Formula&lt; bool &gt;</text>
</a>
</g>
</g>
<!-- Node0&#45;&gt;Node1 -->
<g id="edge1" class="edge"><title>Node0&#45;&gt;Node1</title>
<path fill="none" stroke="midnightblue" d="M119.321,-181.129C184.95,-185.375 286.391,-191.938 350.701,-196.099"/>
<polygon fill="midnightblue" stroke="midnightblue" points="119.312,-177.621 109.107,-180.468 118.86,-184.607 119.312,-177.621"/>
</g>
<!-- Node4 -->
<g id="node5" class="node"><title>Node4</title>
<g id="a_node5"><a xlink:href="classpinhao_1_1Formula.html" target="_top" xlink:title="The base template class for the Formulas. ">
<polygon fill="white" stroke="black" points="146,-110.5 146,-129.5 256,-129.5 256,-110.5 146,-110.5"/>
<text text-anchor="middle" x="201" y="-117.5" font-family="Helvetica,sans-Serif" font-size="10.00">pinhao::Formula&lt; T &gt;</text>
</a>
</g>
</g>
<!-- Node0&#45;&gt;Node4 -->
<g id="edge4" class="edge"><title>Node0&#45;&gt;Node4</title>
<path fill="none" stroke="midnightblue" d="M89.3203,-163.659C115.822,-153.205 152.055,-138.913 175.735,-129.572"/>
<polygon fill="midnightblue" stroke="midnightblue" points="87.7041,-160.534 79.6861,-167.459 90.2728,-167.046 87.7041,-160.534"/>
</g>
<!-- Node2 -->
<g id="node3" class="node"><title>Node2</title>
<g id="a_node3"><a xlink:href="classpinhao_1_1BinOpFormulaBase.html" target="_top" xlink:title="pinhao::BinOpFormulaBase\l\&lt; bool, T \&gt;">
<polygon fill="white" stroke="black" points="665,-170 665,-200 801,-200 801,-170 665,-170"/>
<text text-anchor="start" x="673" y="-188" font-family="Helvetica,sans-Serif" font-size="10.00">pinhao::BinOpFormulaBase</text>
<text text-anchor="middle" x="733" y="-177" font-family="Helvetica,sans-Serif" font-size="10.00">&lt; bool, T &gt;</text>
</a>
</g>
</g>
<!-- Node1&#45;&gt;Node2 -->
<g id="edge2" class="edge"><title>Node1&#45;&gt;Node2</title>
<path fill="none" stroke="midnightblue" d="M483.192,-196.699C537.257,-194.157 611.523,-190.665 664.819,-188.159"/>
<polygon fill="midnightblue" stroke="midnightblue" points="482.826,-193.213 473.001,-197.179 483.155,-200.205 482.826,-193.213"/>
</g>
<!-- Node3 -->
<g id="node4" class="node"><title>Node3</title>
<g id="a_node4"><a xlink:href="classpinhao_1_1BooleanBinOpFormula.html" target="_top" xlink:title="Represents all logical operations (supported). ">
<polygon fill="white" stroke="black" points="842.5,-175.5 842.5,-194.5 1015.5,-194.5 1015.5,-175.5 842.5,-175.5"/>
<text text-anchor="middle" x="929" y="-182.5" font-family="Helvetica,sans-Serif" font-size="10.00">pinhao::BooleanBinOpFormula&lt; T &gt;</text>
</a>
</g>
</g>
<!-- Node2&#45;&gt;Node3 -->
<g id="edge3" class="edge"><title>Node2&#45;&gt;Node3</title>
<path fill="none" stroke="midnightblue" d="M811.196,-185C821.479,-185 832.071,-185 842.484,-185"/>
<polygon fill="midnightblue" stroke="midnightblue" points="811.035,-181.5 801.035,-185 811.035,-188.5 811.035,-181.5"/>
</g>
<!-- Node4&#45;&gt;Node1 -->
<g id="edge14" class="edge"><title>Node4&#45;&gt;Node1</title>
<path fill="none" stroke="orange" stroke-dasharray="5,2" d="M228.742,-134.512C254.565,-148.049 295.077,-168.048 332,-181 342.383,-184.642 353.772,-187.829 364.591,-190.499"/>
<polygon fill="orange" stroke="orange" points="230.078,-131.259 219.603,-129.669 226.8,-137.444 230.078,-131.259"/>
<text text-anchor="middle" x="294" y="-178" font-family="Helvetica,sans-Serif" font-size="10.00"> &lt; bool &gt;</text>
</g>
<!-- Node5 -->
<g id="node6" class="node"><title>Node5</title>
<g id="a_node6"><a xlink:href="classpinhao_1_1BinOpFormulaBase.html" target="_top" xlink:title="BinOpFormulaBase\&lt; T, T \&gt;">
<polygon fill="white" stroke="black" points="510,-73.5 510,-92.5 647,-92.5 647,-73.5 510,-73.5"/>
<text text-anchor="middle" x="578.5" y="-80.5" font-family="Helvetica,sans-Serif" font-size="10.00">BinOpFormulaBase&lt; T, T &gt;</text>
</a>
</g>
</g>
<!-- Node4&#45;&gt;Node5 -->
<g id="edge5" class="edge"><title>Node4&#45;&gt;Node5</title>
<path fill="none" stroke="midnightblue" d="M266.129,-112.272C287.111,-109.831 310.538,-107.199 332,-105 392.129,-98.8378 460.644,-92.7781 509.985,-88.5838"/>
<polygon fill="midnightblue" stroke="midnightblue" points="265.57,-108.813 256.045,-113.452 266.384,-115.766 265.57,-108.813"/>
</g>
<!-- Node7 -->
<g id="node8" class="node"><title>Node7</title>
<g id="a_node8"><a xlink:href="classpinhao_1_1BinOpFormulaBase.html" target="_top" xlink:title="Base class for binary operations. ">
<polygon fill="white" stroke="black" points="332,-114.5 332,-133.5 492,-133.5 492,-114.5 332,-114.5"/>
<text text-anchor="middle" x="412" y="-121.5" font-family="Helvetica,sans-Serif" font-size="10.00">pinhao::BinOpFormulaBase&lt; T &gt;</text>
</a>
</g>
</g>
<!-- Node4&#45;&gt;Node7 -->
<g id="edge7" class="edge"><title>Node4&#45;&gt;Node7</title>
<path fill="none" stroke="midnightblue" d="M266.362,-121.232C287.078,-121.628 310.276,-122.072 331.924,-122.487"/>
<polygon fill="midnightblue" stroke="midnightblue" points="266.16,-117.727 256.094,-121.035 266.026,-124.726 266.16,-117.727"/>
</g>
<!-- Node9 -->
<g id="node10" class="node"><title>Node9</title>
<g id="a_node10"><a xlink:href="classpinhao_1_1FeatureFormula.html" target="_top" xlink:title="Holds a pair of std::strings. The first represents the feature, and the second represents the sub&#45;fea...">
<polygon fill="white" stroke="black" points="340.5,-38.5 340.5,-57.5 483.5,-57.5 483.5,-38.5 340.5,-38.5"/>
<text text-anchor="middle" x="412" y="-45.5" font-family="Helvetica,sans-Serif" font-size="10.00">pinhao::FeatureFormula&lt; T &gt;</text>
</a>
</g>
</g>
<!-- Node4&#45;&gt;Node9 -->
<g id="edge11" class="edge"><title>Node4&#45;&gt;Node9</title>
<path fill="none" stroke="midnightblue" d="M221.578,-103.673C235.387,-93.0138 254.779,-79.6931 274,-72 294.849,-63.6555 318.63,-58.2065 340.461,-54.6504"/>
<polygon fill="midnightblue" stroke="midnightblue" points="219.012,-101.242 213.368,-110.208 223.372,-106.719 219.012,-101.242"/>
</g>
<!-- Node10 -->
<g id="node11" class="node"><title>Node10</title>
<g id="a_node11"><a xlink:href="classpinhao_1_1IfFormula.html" target="_top" xlink:title="The If Formula. ">
<polygon fill="white" stroke="black" points="354,-0.5 354,-19.5 470,-19.5 470,-0.5 354,-0.5"/>
<text text-anchor="middle" x="412" y="-7.5" font-family="Helvetica,sans-Serif" font-size="10.00">pinhao::IfFormula&lt; T &gt;</text>
</a>
</g>
</g>
<!-- Node4&#45;&gt;Node10 -->
<g id="edge12" class="edge"><title>Node4&#45;&gt;Node10</title>
<path fill="none" stroke="midnightblue" d="M218.932,-102.822C232.882,-89.2738 253.617,-70.4797 274,-57 297.876,-41.2104 305.042,-38.6239 332,-29 342.23,-25.3481 353.453,-22.1741 364.146,-19.521"/>
<polygon fill="midnightblue" stroke="midnightblue" points="216.207,-100.593 211.556,-110.112 221.128,-105.572 216.207,-100.593"/>
</g>
<!-- Node11 -->
<g id="node12" class="node"><title>Node11</title>
<g id="a_node12"><a xlink:href="classpinhao_1_1LitFormula.html" target="_top" xlink:title="Holds literal of the types. ">
<polygon fill="white" stroke="black" points="351.5,-152.5 351.5,-171.5 472.5,-171.5 472.5,-152.5 351.5,-152.5"/>
<text text-anchor="middle" x="412" y="-159.5" font-family="Helvetica,sans-Serif" font-size="10.00">pinhao::LitFormula&lt; T &gt;</text>
</a>
</g>
</g>
<!-- Node4&#45;&gt;Node11 -->
<g id="edge13" class="edge"><title>Node4&#45;&gt;Node11</title>
<path fill="none" stroke="midnightblue" d="M259.3,-131.515C291.988,-138.084 332.477,-146.22 363.401,-152.435"/>
<polygon fill="midnightblue" stroke="midnightblue" points="259.919,-128.069 249.425,-129.53 258.54,-134.932 259.919,-128.069"/>
</g>
<!-- Node6 -->
<g id="node7" class="node"><title>Node6</title>
<g id="a_node7"><a xlink:href="classpinhao_1_1ArithmeticBinOpFormula.html" target="_top" xlink:title="Represents all arithmetics operations (supported). Only numerical operands type permitted. ">
<polygon fill="white" stroke="black" points="838,-90.5 838,-109.5 1020,-109.5 1020,-90.5 838,-90.5"/>
<text text-anchor="middle" x="929" y="-97.5" font-family="Helvetica,sans-Serif" font-size="10.00">pinhao::ArithmeticBinOpFormula&lt; T &gt;</text>
</a>
</g>
</g>
<!-- Node5&#45;&gt;Node6 -->
<g id="edge6" class="edge"><title>Node5&#45;&gt;Node6</title>
<path fill="none" stroke="midnightblue" d="M657.215,-86.791C710.681,-89.3991 781.862,-92.8713 837.826,-95.6012"/>
<polygon fill="midnightblue" stroke="midnightblue" points="657.266,-83.2894 647.108,-86.2979 656.925,-90.2811 657.266,-83.2894"/>
</g>
<!-- Node7&#45;&gt;Node2 -->
<g id="edge8" class="edge"><title>Node7&#45;&gt;Node2</title>
<path fill="none" stroke="orange" stroke-dasharray="5,2" d="M472.719,-135.42C527.294,-145.856 607.914,-161.272 664.738,-172.138"/>
<polygon fill="orange" stroke="orange" points="473.323,-131.972 462.844,-133.531 472.008,-138.847 473.323,-131.972"/>
<text text-anchor="middle" x="578.5" y="-172" font-family="Helvetica,sans-Serif" font-size="10.00"> &lt; bool, T &gt;</text>
</g>
<!-- Node8 -->
<g id="node9" class="node"><title>Node8</title>
<g id="a_node9"><a xlink:href="classpinhao_1_1BinOpFormulaBase.html" target="_top" xlink:title="pinhao::BinOpFormulaBase\l\&lt; T, T \&gt;">
<polygon fill="white" stroke="black" points="665,-111 665,-141 801,-141 801,-111 665,-111"/>
<text text-anchor="start" x="673" y="-129" font-family="Helvetica,sans-Serif" font-size="10.00">pinhao::BinOpFormulaBase</text>
<text text-anchor="middle" x="733" y="-118" font-family="Helvetica,sans-Serif" font-size="10.00">&lt; T, T &gt;</text>
</a>
</g>
</g>
<!-- Node7&#45;&gt;Node8 -->
<g id="edge9" class="edge"><title>Node7&#45;&gt;Node8</title>
<path fill="none" stroke="orange" stroke-dasharray="5,2" d="M502.39,-124.56C553.874,-124.883 617.525,-125.282 664.743,-125.578"/>
<polygon fill="orange" stroke="orange" points="502.286,-121.06 492.264,-124.497 502.242,-128.06 502.286,-121.06"/>
<text text-anchor="middle" x="578.5" y="-129" font-family="Helvetica,sans-Serif" font-size="10.00"> &lt; T, T &gt;</text>
</g>
<!-- Node8&#45;&gt;Node6 -->
<g id="edge10" class="edge"><title>Node8&#45;&gt;Node6</title>
<path fill="none" stroke="midnightblue" d="M811.344,-115.634C826.413,-113.615 842.143,-111.507 856.996,-109.516"/>
<polygon fill="midnightblue" stroke="midnightblue" points="810.482,-112.218 801.035,-117.016 811.412,-119.156 810.482,-112.218"/>
</g>
</g>
</svg>
