<?xml version="1.0" encoding="UTF-8" standalone="no"?>
<!DOCTYPE svg PUBLIC "-//W3C//DTD SVG 1.1//EN"
 "http://www.w3.org/Graphics/SVG/1.1/DTD/svg11.dtd">
<!-- Generated by graphviz version 2.38.0 (20140413.2041)
 -->
<!-- Title: pinhao::SerialSet&lt; T, CompareType &gt; Pages: 1 -->
<svg width="238pt" height="174pt"
 viewBox="0.00 0.00 238.00 174.00" xmlns="http://www.w3.org/2000/svg" xmlns:xlink="http://www.w3.org/1999/xlink">
<g id="graph0" class="graph" transform="scale(1 1) rotate(0) translate(4 170)">
<title>pinhao::SerialSet&lt; T, CompareType &gt;</title>
<polygon fill="white" stroke="none" points="-4,4 -4,-170 234,-170 234,4 -4,4"/>
<!-- Node0 -->
<g id="node1" class="node"><title>Node0</title>
<polygon fill="#bfbfbf" stroke="black" points="68.5,-78.5 68.5,-108.5 170.5,-108.5 170.5,-78.5 68.5,-78.5"/>
<text text-anchor="start" x="76.5" y="-96.5" font-family="Helvetica,sans-Serif" font-size="10.00">pinhao::SerialSet&lt;</text>
<text text-anchor="middle" x="119.5" y="-85.5" font-family="Helvetica,sans-Serif" font-size="10.00"> T, CompareType &gt;</text>
</g>
<!-- Node2 -->
<g id="node3" class="node"><title>Node2</title>
<g id="a_node3"><a xlink:href="classpinhao_1_1SerialSet.html" target="_top" xlink:title="pinhao::SerialSet\&lt; T \&gt;">
<polygon fill="white" stroke="black" points="0,-6 0,-25 115,-25 115,-6 0,-6"/>
<text text-anchor="middle" x="57.5" y="-13" font-family="Helvetica,sans-Serif" font-size="10.00">pinhao::SerialSet&lt; T &gt;</text>
</a>
</g>
</g>
<!-- Node0&#45;&gt;Node2 -->
<g id="edge2" class="edge"><title>Node0&#45;&gt;Node2</title>
<path fill="none" stroke="orange" stroke-dasharray="5,2" d="M101.383,-70.2927C89.0351,-55.1559 73.369,-35.9523 64.486,-25.0635"/>
<polygon fill="orange" stroke="orange" points="98.8049,-72.6688 107.838,-78.205 104.229,-68.2439 98.8049,-72.6688"/>
<text text-anchor="middle" x="106.5" y="-52" font-family="Helvetica,sans-Serif" font-size="10.00"> &lt; T &gt;</text>
</g>
<!-- Node3 -->
<g id="node4" class="node"><title>Node3</title>
<g id="a_node4"><a xlink:href="classpinhao_1_1SerialSet.html" target="_top" xlink:title="pinhao::SerialSet\&lt;\l Candidate \&gt;">
<polygon fill="white" stroke="black" points="133,-0.5 133,-30.5 230,-30.5 230,-0.5 133,-0.5"/>
<text text-anchor="start" x="141" y="-18.5" font-family="Helvetica,sans-Serif" font-size="10.00">pinhao::SerialSet&lt;</text>
<text text-anchor="middle" x="181.5" y="-7.5" font-family="Helvetica,sans-Serif" font-size="10.00"> Candidate &gt;</text>
</a>
</g>
</g>
<!-- Node0&#45;&gt;Node3 -->
<g id="edge3" class="edge"><title>Node0&#45;&gt;Node3</title>
<path fill="none" stroke="orange" stroke-dasharray="5,2" d="M137.605,-70.3065C148.026,-57.5329 160.812,-41.8596 169.891,-30.7309"/>
<polygon fill="orange" stroke="orange" points="134.771,-68.2439 131.162,-78.205 140.195,-72.6688 134.771,-68.2439"/>
<text text-anchor="middle" x="187.5" y="-52" font-family="Helvetica,sans-Serif" font-size="10.00"> &lt; Candidate &gt;</text>
</g>
<!-- Node1 -->
<g id="node2" class="node"><title>Node1</title>
<polygon fill="white" stroke="#bfbfbf" points="49,-146.5 49,-165.5 190,-165.5 190,-146.5 49,-146.5"/>
<text text-anchor="middle" x="119.5" y="-153.5" font-family="Helvetica,sans-Serif" font-size="10.00">std::set&lt; T, CompareType &gt;</text>
</g>
<!-- Node1&#45;&gt;Node0 -->
<g id="edge1" class="edge"><title>Node1&#45;&gt;Node0</title>
<path fill="none" stroke="midnightblue" d="M119.5,-136.215C119.5,-127.356 119.5,-116.958 119.5,-108.759"/>
<polygon fill="midnightblue" stroke="midnightblue" points="116,-136.332 119.5,-146.332 123,-136.332 116,-136.332"/>
</g>
</g>
</svg>
