<?xml version="1.0" encoding="UTF-8" standalone="no"?>
<!DOCTYPE svg PUBLIC "-//W3C//DTD SVG 1.1//EN"
 "http://www.w3.org/Graphics/SVG/1.1/DTD/svg11.dtd">
<!-- Generated by graphviz version 2.38.0 (20140413.2041)
 -->
<!-- Title: pinhao::BinOpFormulaBase&lt; T, OpT &gt; Pages: 1 -->
<svg width="382pt" height="288pt"
 viewBox="0.00 0.00 381.50 288.00" xmlns="http://www.w3.org/2000/svg" xmlns:xlink="http://www.w3.org/1999/xlink">
<g id="graph0" class="graph" transform="scale(1 1) rotate(0) translate(4 284)">
<title>pinhao::BinOpFormulaBase&lt; T, OpT &gt;</title>
<polygon fill="white" stroke="none" points="-4,4 -4,-284 377.5,-284 377.5,4 -4,4"/>
<!-- Node0 -->
<g id="node1" class="node"><title>Node0</title>
<polygon fill="#bfbfbf" stroke="black" points="100.5,-135.5 100.5,-165.5 236.5,-165.5 236.5,-135.5 100.5,-135.5"/>
<text text-anchor="start" x="108.5" y="-153.5" font-family="Helvetica,sans-Serif" font-size="10.00">pinhao::BinOpFormulaBase</text>
<text text-anchor="middle" x="168.5" y="-142.5" font-family="Helvetica,sans-Serif" font-size="10.00">&lt; T, OpT &gt;</text>
</g>
<!-- Node3 -->
<g id="node4" class="node"><title>Node3</title>
<g id="a_node4"><a xlink:href="classpinhao_1_1BinOpFormulaBase.html" target="_top" xlink:title="pinhao::BinOpFormulaBase\l\&lt; bool, T \&gt;">
<polygon fill="white" stroke="black" points="33.5,-57.5 33.5,-87.5 169.5,-87.5 169.5,-57.5 33.5,-57.5"/>
<text text-anchor="start" x="41.5" y="-75.5" font-family="Helvetica,sans-Serif" font-size="10.00">pinhao::BinOpFormulaBase</text>
<text text-anchor="middle" x="101.5" y="-64.5" font-family="Helvetica,sans-Serif" font-size="10.00">&lt; bool, T &gt;</text>
</a>
</g>
</g>
<!-- Node0&#45;&gt;Node3 -->
<g id="edge3" class="edge"><title>Node0&#45;&gt;Node3</title>
<path fill="none" stroke="orange" stroke-dasharray="5,2" d="M149.256,-127.671C137.937,-114.832 123.95,-98.9656 114.046,-87.7309"/>
<polygon fill="orange" stroke="orange" points="146.659,-130.018 155.898,-135.205 151.91,-125.389 146.659,-130.018"/>
<text text-anchor="middle" x="165.5" y="-109" font-family="Helvetica,sans-Serif" font-size="10.00"> &lt; bool, T &gt;</text>
</g>
<!-- Node5 -->
<g id="node6" class="node"><title>Node5</title>
<g id="a_node6"><a xlink:href="classpinhao_1_1BinOpFormulaBase.html" target="_top" xlink:title="pinhao::BinOpFormulaBase\l\&lt; T, T \&gt;">
<polygon fill="white" stroke="black" points="206.5,-57.5 206.5,-87.5 342.5,-87.5 342.5,-57.5 206.5,-57.5"/>
<text text-anchor="start" x="214.5" y="-75.5" font-family="Helvetica,sans-Serif" font-size="10.00">pinhao::BinOpFormulaBase</text>
<text text-anchor="middle" x="274.5" y="-64.5" font-family="Helvetica,sans-Serif" font-size="10.00">&lt; T, T &gt;</text>
</a>
</g>
</g>
<!-- Node0&#45;&gt;Node5 -->
<g id="edge5" class="edge"><title>Node0&#45;&gt;Node5</title>
<path fill="none" stroke="orange" stroke-dasharray="5,2" d="M196.938,-129.111C215.174,-116.036 238.391,-99.3895 254.652,-87.7309"/>
<polygon fill="orange" stroke="orange" points="194.525,-126.534 188.438,-135.205 198.604,-132.223 194.525,-126.534"/>
<text text-anchor="middle" x="248.5" y="-109" font-family="Helvetica,sans-Serif" font-size="10.00"> &lt; T, T &gt;</text>
</g>
<!-- Node1 -->
<g id="node2" class="node"><title>Node1</title>
<g id="a_node2"><a xlink:href="classpinhao_1_1Formula.html" target="_top" xlink:title="The base template class for the Formulas. ">
<polygon fill="white" stroke="black" points="113.5,-203.5 113.5,-222.5 223.5,-222.5 223.5,-203.5 113.5,-203.5"/>
<text text-anchor="middle" x="168.5" y="-210.5" font-family="Helvetica,sans-Serif" font-size="10.00">pinhao::Formula&lt; T &gt;</text>
</a>
</g>
</g>
<!-- Node1&#45;&gt;Node0 -->
<g id="edge1" class="edge"><title>Node1&#45;&gt;Node0</title>
<path fill="none" stroke="midnightblue" d="M168.5,-193.215C168.5,-184.356 168.5,-173.958 168.5,-165.759"/>
<polygon fill="midnightblue" stroke="midnightblue" points="165,-193.332 168.5,-203.332 172,-193.332 165,-193.332"/>
</g>
<!-- Node2 -->
<g id="node3" class="node"><title>Node2</title>
<g id="a_node3"><a xlink:href="classpinhao_1_1FormulaBase.html" target="_top" xlink:title="The base class for all Formula types. A Formula is a statement which when evaluated for a FeatureSet...">
<polygon fill="white" stroke="black" points="114,-260.5 114,-279.5 223,-279.5 223,-260.5 114,-260.5"/>
<text text-anchor="middle" x="168.5" y="-267.5" font-family="Helvetica,sans-Serif" font-size="10.00">pinhao::FormulaBase</text>
</a>
</g>
</g>
<!-- Node2&#45;&gt;Node1 -->
<g id="edge2" class="edge"><title>Node2&#45;&gt;Node1</title>
<path fill="none" stroke="midnightblue" d="M168.5,-250.117C168.5,-240.817 168.5,-230.056 168.5,-222.715"/>
<polygon fill="midnightblue" stroke="midnightblue" points="165,-250.406 168.5,-260.406 172,-250.406 165,-250.406"/>
</g>
<!-- Node4 -->
<g id="node5" class="node"><title>Node4</title>
<g id="a_node5"><a xlink:href="classpinhao_1_1BooleanBinOpFormula.html" target="_top" xlink:title="Represents all logical operations (supported). ">
<polygon fill="white" stroke="black" points="0,-0.5 0,-19.5 173,-19.5 173,-0.5 0,-0.5"/>
<text text-anchor="middle" x="86.5" y="-7.5" font-family="Helvetica,sans-Serif" font-size="10.00">pinhao::BooleanBinOpFormula&lt; T &gt;</text>
</a>
</g>
</g>
<!-- Node3&#45;&gt;Node4 -->
<g id="edge4" class="edge"><title>Node3&#45;&gt;Node4</title>
<path fill="none" stroke="midnightblue" d="M95.5908,-47.6661C93.1303,-37.7421 90.4303,-26.8523 88.6173,-19.5399"/>
<polygon fill="midnightblue" stroke="midnightblue" points="92.2173,-48.6042 98.021,-57.468 99.0116,-46.9196 92.2173,-48.6042"/>
</g>
<!-- Node6 -->
<g id="node7" class="node"><title>Node6</title>
<g id="a_node7"><a xlink:href="classpinhao_1_1ArithmeticBinOpFormula.html" target="_top" xlink:title="Represents all arithmetics operations (supported). Only numerical operands type permitted. ">
<polygon fill="white" stroke="black" points="191.5,-0.5 191.5,-19.5 373.5,-19.5 373.5,-0.5 191.5,-0.5"/>
<text text-anchor="middle" x="282.5" y="-7.5" font-family="Helvetica,sans-Serif" font-size="10.00">pinhao::ArithmeticBinOpFormula&lt; T &gt;</text>
</a>
</g>
</g>
<!-- Node5&#45;&gt;Node6 -->
<g id="edge6" class="edge"><title>Node5&#45;&gt;Node6</title>
<path fill="none" stroke="midnightblue" d="M277.693,-47.3524C278.994,-37.5132 280.414,-26.7753 281.371,-19.5399"/>
<polygon fill="midnightblue" stroke="midnightblue" points="274.197,-47.0955 276.355,-57.468 281.136,-48.0132 274.197,-47.0955"/>
</g>
</g>
</svg>
