<?xml version="1.0" encoding="UTF-8" standalone="no"?>
<!DOCTYPE svg PUBLIC "-//W3C//DTD SVG 1.1//EN"
 "http://www.w3.org/Graphics/SVG/1.1/DTD/svg11.dtd">
<!-- Generated by graphviz version 2.38.0 (20140413.2041)
 -->
<!-- Title: pinhao::BooleanBinOpFormula&lt; T &gt; Pages: 1 -->
<svg width="284pt" height="298pt"
 viewBox="0.00 0.00 284.00 298.00" xmlns="http://www.w3.org/2000/svg" xmlns:xlink="http://www.w3.org/1999/xlink">
<g id="graph0" class="graph" transform="scale(1 1) rotate(0) translate(4 294)">
<title>pinhao::BooleanBinOpFormula&lt; T &gt;</title>
<polygon fill="white" stroke="none" points="-4,4 -4,-294 280,-294 280,4 -4,4"/>
<!-- Node0 -->
<g id="node1" class="node"><title>Node0</title>
<polygon fill="#bfbfbf" stroke="black" points="18.5,-0.5 18.5,-19.5 191.5,-19.5 191.5,-0.5 18.5,-0.5"/>
<text text-anchor="middle" x="105" y="-7.5" font-family="Helvetica,sans-Serif" font-size="10.00">pinhao::BooleanBinOpFormula&lt; T &gt;</text>
</g>
<!-- Node1 -->
<g id="node2" class="node"><title>Node1</title>
<g id="a_node2"><a xlink:href="classpinhao_1_1BinOpFormulaBase.html" target="_top" xlink:title="pinhao::BinOpFormulaBase\l\&lt; bool, T \&gt;">
<polygon fill="white" stroke="black" points="37,-57.5 37,-87.5 173,-87.5 173,-57.5 37,-57.5"/>
<text text-anchor="start" x="45" y="-75.5" font-family="Helvetica,sans-Serif" font-size="10.00">pinhao::BinOpFormulaBase</text>
<text text-anchor="middle" x="105" y="-64.5" font-family="Helvetica,sans-Serif" font-size="10.00">&lt; bool, T &gt;</text>
</a>
</g>
</g>
<!-- Node1&#45;&gt;Node0 -->
<g id="edge1" class="edge"><title>Node1&#45;&gt;Node0</title>
<path fill="none" stroke="midnightblue" d="M105,-47.3524C105,-37.5132 105,-26.7753 105,-19.5399"/>
<polygon fill="midnightblue" stroke="midnightblue" points="101.5,-47.468 105,-57.468 108.5,-47.4681 101.5,-47.468"/>
</g>
<!-- Node2 -->
<g id="node3" class="node"><title>Node2</title>
<g id="a_node3"><a xlink:href="classpinhao_1_1Formula.html" target="_top" xlink:title="pinhao::Formula\&lt; bool \&gt;">
<polygon fill="white" stroke="black" points="0,-141 0,-160 122,-160 122,-141 0,-141"/>
<text text-anchor="middle" x="61" y="-148" font-family="Helvetica,sans-Serif" font-size="10.00">pinhao::Formula&lt; bool &gt;</text>
</a>
</g>
</g>
<!-- Node2&#45;&gt;Node1 -->
<g id="edge2" class="edge"><title>Node2&#45;&gt;Node1</title>
<path fill="none" stroke="midnightblue" d="M71.1469,-131.974C78.9638,-118.472 89.6272,-100.053 96.8833,-87.5198"/>
<polygon fill="midnightblue" stroke="midnightblue" points="68.0288,-130.374 66.0474,-140.782 74.0868,-133.881 68.0288,-130.374"/>
</g>
<!-- Node3 -->
<g id="node4" class="node"><title>Node3</title>
<g id="a_node4"><a xlink:href="classpinhao_1_1FormulaBase.html" target="_top" xlink:title="The base class for all Formula types. A Formula is a statement which when evaluated for a FeatureSet...">
<polygon fill="white" stroke="black" points="33.5,-270.5 33.5,-289.5 142.5,-289.5 142.5,-270.5 33.5,-270.5"/>
<text text-anchor="middle" x="88" y="-277.5" font-family="Helvetica,sans-Serif" font-size="10.00">pinhao::FormulaBase</text>
</a>
</g>
</g>
<!-- Node3&#45;&gt;Node2 -->
<g id="edge3" class="edge"><title>Node3&#45;&gt;Node2</title>
<path fill="none" stroke="midnightblue" d="M84.01,-260.158C78.0913,-232.209 67.217,-180.858 62.8688,-160.325"/>
<polygon fill="midnightblue" stroke="midnightblue" points="80.6483,-261.178 86.1442,-270.236 87.4965,-259.728 80.6483,-261.178"/>
</g>
<!-- Node4 -->
<g id="node5" class="node"><title>Node4</title>
<g id="a_node5"><a xlink:href="classpinhao_1_1Formula.html" target="_top" xlink:title="The base template class for the Formulas. ">
<polygon fill="white" stroke="black" points="89,-213.5 89,-232.5 199,-232.5 199,-213.5 89,-213.5"/>
<text text-anchor="middle" x="144" y="-220.5" font-family="Helvetica,sans-Serif" font-size="10.00">pinhao::Formula&lt; T &gt;</text>
</a>
</g>
</g>
<!-- Node3&#45;&gt;Node4 -->
<g id="edge5" class="edge"><title>Node3&#45;&gt;Node4</title>
<path fill="none" stroke="midnightblue" d="M104.166,-263.123C114.245,-253.224 126.831,-240.862 135.127,-232.715"/>
<polygon fill="midnightblue" stroke="midnightblue" points="101.432,-260.902 96.75,-270.406 106.337,-265.896 101.432,-260.902"/>
</g>
<!-- Node4&#45;&gt;Node2 -->
<g id="edge4" class="edge"><title>Node4&#45;&gt;Node2</title>
<path fill="none" stroke="orange" stroke-dasharray="5,2" d="M125.852,-206.585C109.116,-192.37 84.8695,-171.775 71.2607,-160.215"/>
<polygon fill="orange" stroke="orange" points="123.935,-209.549 133.823,-213.355 128.467,-204.214 123.935,-209.549"/>
<text text-anchor="middle" x="129" y="-187" font-family="Helvetica,sans-Serif" font-size="10.00"> &lt; bool &gt;</text>
</g>
<!-- Node5 -->
<g id="node6" class="node"><title>Node5</title>
<g id="a_node6"><a xlink:href="classpinhao_1_1BinOpFormulaBase.html" target="_top" xlink:title="Base class for binary operations. ">
<polygon fill="white" stroke="black" points="140,-135.5 140,-165.5 276,-165.5 276,-135.5 140,-135.5"/>
<text text-anchor="start" x="148" y="-153.5" font-family="Helvetica,sans-Serif" font-size="10.00">pinhao::BinOpFormulaBase</text>
<text text-anchor="middle" x="208" y="-142.5" font-family="Helvetica,sans-Serif" font-size="10.00">&lt; T, OpT &gt;</text>
</a>
</g>
</g>
<!-- Node4&#45;&gt;Node5 -->
<g id="edge7" class="edge"><title>Node4&#45;&gt;Node5</title>
<path fill="none" stroke="midnightblue" d="M158.757,-205.744C169.783,-193.598 184.703,-177.163 195.222,-165.576"/>
<polygon fill="midnightblue" stroke="midnightblue" points="155.978,-203.599 151.848,-213.355 161.161,-208.304 155.978,-203.599"/>
</g>
<!-- Node5&#45;&gt;Node1 -->
<g id="edge6" class="edge"><title>Node5&#45;&gt;Node1</title>
<path fill="none" stroke="orange" stroke-dasharray="5,2" d="M180.367,-129.111C162.647,-116.036 140.087,-99.3895 124.287,-87.7309"/>
<polygon fill="orange" stroke="orange" points="178.502,-132.084 188.626,-135.205 182.658,-126.451 178.502,-132.084"/>
<text text-anchor="middle" x="188" y="-109" font-family="Helvetica,sans-Serif" font-size="10.00"> &lt; bool, T &gt;</text>
</g>
</g>
</svg>
