<?xml version="1.0" encoding="UTF-8" standalone="no"?>
<!DOCTYPE svg PUBLIC "-//W3C//DTD SVG 1.1//EN"
 "http://www.w3.org/Graphics/SVG/1.1/DTD/svg11.dtd">
<!-- Generated by graphviz version 2.38.0 (20140413.2041)
 -->
<!-- Title: pinhao::ArithBinOpFormula&lt; T &gt; Pages: 1 -->
<svg width="219pt" height="288pt"
 viewBox="0.00 0.00 219.00 288.00" xmlns="http://www.w3.org/2000/svg" xmlns:xlink="http://www.w3.org/1999/xlink">
<g id="graph0" class="graph" transform="scale(1 1) rotate(0) translate(4 284)">
<title>pinhao::ArithBinOpFormula&lt; T &gt;</title>
<polygon fill="white" stroke="none" points="-4,4 -4,-284 215,-284 215,4 -4,4"/>
<!-- Node0 -->
<g id="node1" class="node"><title>Node0</title>
<polygon fill="#bfbfbf" stroke="black" points="-1.42109e-14,-0.5 -1.42109e-14,-19.5 158,-19.5 158,-0.5 -1.42109e-14,-0.5"/>
<text text-anchor="middle" x="79" y="-7.5" font-family="Helvetica,sans-Serif" font-size="10.00">pinhao::ArithBinOpFormula&lt; T &gt;</text>
</g>
<!-- Node1 -->
<g id="node2" class="node"><title>Node1</title>
<g id="a_node2"><a xlink:href="classpinhao_1_1BinOpFormulaBase.html" target="_top" xlink:title="pinhao::BinOpFormulaBase\l\&lt; T, T \&gt;">
<polygon fill="white" stroke="black" points="11,-57.5 11,-87.5 147,-87.5 147,-57.5 11,-57.5"/>
<text text-anchor="start" x="19" y="-75.5" font-family="Helvetica,sans-Serif" font-size="10.00">pinhao::BinOpFormulaBase</text>
<text text-anchor="middle" x="79" y="-64.5" font-family="Helvetica,sans-Serif" font-size="10.00">&lt; T, T &gt;</text>
</a>
</g>
</g>
<!-- Node1&#45;&gt;Node0 -->
<g id="edge1" class="edge"><title>Node1&#45;&gt;Node0</title>
<path fill="none" stroke="midnightblue" d="M79,-47.3524C79,-37.5132 79,-26.7753 79,-19.5399"/>
<polygon fill="midnightblue" stroke="midnightblue" points="75.5001,-47.468 79,-57.468 82.5001,-47.4681 75.5001,-47.468"/>
</g>
<!-- Node2 -->
<g id="node3" class="node"><title>Node2</title>
<g id="a_node3"><a xlink:href="classpinhao_1_1Formula.html" target="_top" xlink:title="The base template class for the Formulas. ">
<polygon fill="white" stroke="black" points="4,-203.5 4,-222.5 114,-222.5 114,-203.5 4,-203.5"/>
<text text-anchor="middle" x="59" y="-210.5" font-family="Helvetica,sans-Serif" font-size="10.00">pinhao::Formula&lt; T &gt;</text>
</a>
</g>
</g>
<!-- Node2&#45;&gt;Node1 -->
<g id="edge2" class="edge"><title>Node2&#45;&gt;Node1</title>
<path fill="none" stroke="midnightblue" d="M60.1019,-193.008C61.1584,-177.378 63.0369,-154.674 66,-135 68.4704,-118.597 72.5902,-99.9916 75.5299,-87.5816"/>
<polygon fill="midnightblue" stroke="midnightblue" points="56.5822,-193.215 59.4499,-203.415 63.5685,-193.653 56.5822,-193.215"/>
</g>
<!-- Node4 -->
<g id="node5" class="node"><title>Node4</title>
<g id="a_node5"><a xlink:href="classpinhao_1_1BinOpFormulaBase.html" target="_top" xlink:title="Base class for binary operations. ">
<polygon fill="white" stroke="black" points="75,-135.5 75,-165.5 211,-165.5 211,-135.5 75,-135.5"/>
<text text-anchor="start" x="83" y="-153.5" font-family="Helvetica,sans-Serif" font-size="10.00">pinhao::BinOpFormulaBase</text>
<text text-anchor="middle" x="143" y="-142.5" font-family="Helvetica,sans-Serif" font-size="10.00">&lt; T, OpT &gt;</text>
</a>
</g>
</g>
<!-- Node2&#45;&gt;Node4 -->
<g id="edge5" class="edge"><title>Node2&#45;&gt;Node4</title>
<path fill="none" stroke="midnightblue" d="M79.1917,-197.457C92.6431,-187.769 110.225,-175.106 123.526,-165.526"/>
<polygon fill="midnightblue" stroke="midnightblue" points="77.1041,-194.647 71.0352,-203.332 81.1951,-200.328 77.1041,-194.647"/>
</g>
<!-- Node3 -->
<g id="node4" class="node"><title>Node3</title>
<g id="a_node4"><a xlink:href="classpinhao_1_1FormulaBase.html" target="_top" xlink:title="The base class for all Formula types. A Formula is a statement which when evaluated for a FeatureSet...">
<polygon fill="white" stroke="black" points="4.5,-260.5 4.5,-279.5 113.5,-279.5 113.5,-260.5 4.5,-260.5"/>
<text text-anchor="middle" x="59" y="-267.5" font-family="Helvetica,sans-Serif" font-size="10.00">pinhao::FormulaBase</text>
</a>
</g>
</g>
<!-- Node3&#45;&gt;Node2 -->
<g id="edge3" class="edge"><title>Node3&#45;&gt;Node2</title>
<path fill="none" stroke="midnightblue" d="M59,-250.117C59,-240.817 59,-230.056 59,-222.715"/>
<polygon fill="midnightblue" stroke="midnightblue" points="55.5001,-250.406 59,-260.406 62.5001,-250.406 55.5001,-250.406"/>
</g>
<!-- Node4&#45;&gt;Node1 -->
<g id="edge4" class="edge"><title>Node4&#45;&gt;Node1</title>
<path fill="none" stroke="orange" stroke-dasharray="5,2" d="M124.311,-127.307C113.554,-114.533 100.355,-98.8596 90.9839,-87.7309"/>
<polygon fill="orange" stroke="orange" points="121.844,-129.81 130.962,-135.205 127.198,-125.301 121.844,-129.81"/>
<text text-anchor="middle" x="134" y="-109" font-family="Helvetica,sans-Serif" font-size="10.00"> &lt; T, T &gt;</text>
</g>
</g>
</svg>
