<?xml version="1.0" encoding="UTF-8" standalone="no"?>
<!DOCTYPE svg PUBLIC "-//W3C//DTD SVG 1.1//EN"
 "http://www.w3.org/Graphics/SVG/1.1/DTD/svg11.dtd">
<!-- Generated by graphviz version 2.38.0 (20140413.2041)
 -->
<!-- Title: pinhao::Feature Pages: 1 -->
<svg width="694pt" height="201pt"
 viewBox="0.00 0.00 694.00 201.30" xmlns="http://www.w3.org/2000/svg" xmlns:xlink="http://www.w3.org/1999/xlink">
<g id="graph0" class="graph" transform="scale(1 1) rotate(0) translate(4 197.301)">
<title>pinhao::Feature</title>
<polygon fill="white" stroke="none" points="-4,4 -4,-197.301 690,-197.301 690,4 -4,4"/>
<!-- Node0 -->
<g id="node1" class="node"><title>Node0</title>
<polygon fill="#bfbfbf" stroke="black" points="0,-88 0,-107 84,-107 84,-88 0,-88"/>
<text text-anchor="middle" x="42" y="-95" font-family="Helvetica,sans-Serif" font-size="10.00">pinhao::Feature</text>
</g>
<!-- Node1 -->
<g id="node2" class="node"><title>Node1</title>
<g id="a_node2"><a xlink:href="classpinhao_1_1LinearFeature.html" target="_top" xlink:title="pinhao::LinearFeature\l\&lt; ElemType \&gt;">
<polygon fill="white" stroke="black" points="401,-157.5 401,-187.5 511,-187.5 511,-157.5 401,-157.5"/>
<text text-anchor="start" x="409" y="-175.5" font-family="Helvetica,sans-Serif" font-size="10.00">pinhao::LinearFeature</text>
<text text-anchor="middle" x="456" y="-164.5" font-family="Helvetica,sans-Serif" font-size="10.00">&lt; ElemType &gt;</text>
</a>
</g>
</g>
<!-- Node0&#45;&gt;Node1 -->
<g id="edge1" class="edge"><title>Node0&#45;&gt;Node1</title>
<path fill="none" stroke="midnightblue" d="M56.9246,-114.825C71.1265,-131.087 94.7538,-154.508 121,-165.5 213.147,-204.093 332.503,-193.921 400.735,-183.134"/>
<polygon fill="midnightblue" stroke="midnightblue" points="59.5145,-112.467 50.3931,-107.077 54.1626,-116.978 59.5145,-112.467"/>
</g>
<!-- Node3 -->
<g id="node4" class="node"><title>Node3</title>
<g id="a_node4"><a xlink:href="classpinhao_1_1LinearFeature.html" target="_top" xlink:title="pinhao::LinearFeature\l\&lt; std::string \&gt;">
<polygon fill="white" stroke="black" points="401,-106.5 401,-136.5 511,-136.5 511,-106.5 401,-106.5"/>
<text text-anchor="start" x="409" y="-124.5" font-family="Helvetica,sans-Serif" font-size="10.00">pinhao::LinearFeature</text>
<text text-anchor="middle" x="456" y="-113.5" font-family="Helvetica,sans-Serif" font-size="10.00">&lt; std::string &gt;</text>
</a>
</g>
</g>
<!-- Node0&#45;&gt;Node3 -->
<g id="edge3" class="edge"><title>Node0&#45;&gt;Node3</title>
<path fill="none" stroke="midnightblue" d="M94.1038,-100.477C172.297,-105.032 320.954,-113.692 400.903,-118.349"/>
<polygon fill="midnightblue" stroke="midnightblue" points="94.197,-96.9765 84.0104,-99.889 93.7899,-103.965 94.197,-96.9765"/>
</g>
<!-- Node5 -->
<g id="node6" class="node"><title>Node5</title>
<g id="a_node6"><a xlink:href="classpinhao_1_1MappedFeature.html" target="_top" xlink:title="pinhao::MappedFeature\l\&lt; KeyType, ElemType \&gt;">
<polygon fill="white" stroke="black" points="394,-10.5 394,-40.5 518,-40.5 518,-10.5 394,-10.5"/>
<text text-anchor="start" x="402" y="-28.5" font-family="Helvetica,sans-Serif" font-size="10.00">pinhao::MappedFeature</text>
<text text-anchor="middle" x="456" y="-17.5" font-family="Helvetica,sans-Serif" font-size="10.00">&lt; KeyType, ElemType &gt;</text>
</a>
</g>
</g>
<!-- Node0&#45;&gt;Node5 -->
<g id="edge5" class="edge"><title>Node0&#45;&gt;Node5</title>
<path fill="none" stroke="midnightblue" d="M94.2831,-88.5379C170.298,-75.2538 312.622,-50.3817 393.92,-36.1741"/>
<polygon fill="midnightblue" stroke="midnightblue" points="93.2585,-85.1638 84.0104,-90.3331 94.4636,-92.0593 93.2585,-85.1638"/>
</g>
<!-- Node8 -->
<g id="node9" class="node"><title>Node8</title>
<g id="a_node9"><a xlink:href="classpinhao_1_1LinearFeature.html" target="_top" xlink:title="Abstract class of linear features. ">
<polygon fill="white" stroke="black" points="129,-126.5 129,-156.5 239,-156.5 239,-126.5 129,-126.5"/>
<text text-anchor="start" x="137" y="-144.5" font-family="Helvetica,sans-Serif" font-size="10.00">pinhao::LinearFeature</text>
<text text-anchor="middle" x="184" y="-133.5" font-family="Helvetica,sans-Serif" font-size="10.00">&lt; ValueType &gt;</text>
</a>
</g>
</g>
<!-- Node0&#45;&gt;Node8 -->
<g id="edge8" class="edge"><title>Node0&#45;&gt;Node8</title>
<path fill="none" stroke="midnightblue" d="M83.0884,-110.099C99.2962,-115.193 118.139,-121.115 135.065,-126.435"/>
<polygon fill="midnightblue" stroke="midnightblue" points="83.9673,-106.707 73.3779,-107.047 81.8684,-113.385 83.9673,-106.707"/>
</g>
<!-- Node9 -->
<g id="node10" class="node"><title>Node9</title>
<g id="a_node10"><a xlink:href="classpinhao_1_1MappedFeature.html" target="_top" xlink:title="Abstract class of mapped features. ">
<polygon fill="white" stroke="black" points="121,-0.5 121,-30.5 247,-30.5 247,-0.5 121,-0.5"/>
<text text-anchor="start" x="129" y="-18.5" font-family="Helvetica,sans-Serif" font-size="10.00">pinhao::MappedFeature</text>
<text text-anchor="middle" x="184" y="-7.5" font-family="Helvetica,sans-Serif" font-size="10.00">&lt; KeyType, ValueType &gt;</text>
</a>
</g>
</g>
<!-- Node0&#45;&gt;Node9 -->
<g id="edge11" class="edge"><title>Node0&#45;&gt;Node9</title>
<path fill="none" stroke="midnightblue" d="M59.0344,-80.4073C70.221,-69.2697 85.9662,-55.0798 102,-45.5 111.655,-39.7314 122.605,-34.7679 133.263,-30.6329"/>
<polygon fill="midnightblue" stroke="midnightblue" points="56.2335,-78.2662 51.7555,-87.8682 61.244,-83.1545 56.2335,-78.2662"/>
</g>
<!-- Node2 -->
<g id="node3" class="node"><title>Node2</title>
<g id="a_node3"><a xlink:href="classpinhao_1_1VectorFeature.html" target="_top" xlink:title="Implements a template vector feature class. ">
<polygon fill="white" stroke="black" points="564,-157.5 564,-187.5 677,-187.5 677,-157.5 564,-157.5"/>
<text text-anchor="start" x="572" y="-175.5" font-family="Helvetica,sans-Serif" font-size="10.00">pinhao::VectorFeature</text>
<text text-anchor="middle" x="620.5" y="-164.5" font-family="Helvetica,sans-Serif" font-size="10.00">&lt; ElemType &gt;</text>
</a>
</g>
</g>
<!-- Node1&#45;&gt;Node2 -->
<g id="edge2" class="edge"><title>Node1&#45;&gt;Node2</title>
<path fill="none" stroke="midnightblue" d="M521.243,-172.5C535.368,-172.5 550.212,-172.5 563.96,-172.5"/>
<polygon fill="midnightblue" stroke="midnightblue" points="521.11,-169 511.11,-172.5 521.11,-176 521.11,-169"/>
</g>
<!-- Node4 -->
<g id="node5" class="node"><title>Node4</title>
<g id="a_node5"><a xlink:href="classpinhao_1_1StringFeature.html" target="_top" xlink:title="Implements a string version of a linear feature. ">
<polygon fill="white" stroke="black" points="565.5,-112 565.5,-131 675.5,-131 675.5,-112 565.5,-112"/>
<text text-anchor="middle" x="620.5" y="-119" font-family="Helvetica,sans-Serif" font-size="10.00">pinhao::StringFeature</text>
</a>
</g>
</g>
<!-- Node3&#45;&gt;Node4 -->
<g id="edge4" class="edge"><title>Node3&#45;&gt;Node4</title>
<path fill="none" stroke="midnightblue" d="M521.522,-121.5C536.041,-121.5 551.305,-121.5 565.349,-121.5"/>
<polygon fill="midnightblue" stroke="midnightblue" points="521.11,-118 511.11,-121.5 521.11,-125 521.11,-118"/>
</g>
<!-- Node6 -->
<g id="node7" class="node"><title>Node6</title>
<g id="a_node7"><a xlink:href="classpinhao_1_1MapFeature.html" target="_top" xlink:title="This class maps a KeyType to a ElemType feature. ">
<polygon fill="white" stroke="black" points="558.5,-55.5 558.5,-85.5 682.5,-85.5 682.5,-55.5 558.5,-55.5"/>
<text text-anchor="start" x="566.5" y="-73.5" font-family="Helvetica,sans-Serif" font-size="10.00">pinhao::MapFeature</text>
<text text-anchor="middle" x="620.5" y="-62.5" font-family="Helvetica,sans-Serif" font-size="10.00">&lt; KeyType, ElemType &gt;</text>
</a>
</g>
</g>
<!-- Node5&#45;&gt;Node6 -->
<g id="edge6" class="edge"><title>Node5&#45;&gt;Node6</title>
<path fill="none" stroke="midnightblue" d="M521.427,-43.3414C535.883,-47.3444 551.081,-51.5532 565.082,-55.4303"/>
<polygon fill="midnightblue" stroke="midnightblue" points="522.134,-39.9053 511.562,-40.6095 520.265,-46.6515 522.134,-39.9053"/>
</g>
<!-- Node7 -->
<g id="node8" class="node"><title>Node7</title>
<g id="a_node8"><a xlink:href="classpinhao_1_1MapVectorFeature.html" target="_top" xlink:title="This class maps a KeyType to a vector of ElemType features. ">
<polygon fill="white" stroke="black" points="555,-6.5 555,-36.5 686,-36.5 686,-6.5 555,-6.5"/>
<text text-anchor="start" x="563" y="-24.5" font-family="Helvetica,sans-Serif" font-size="10.00">pinhao::MapVectorFeature</text>
<text text-anchor="middle" x="620.5" y="-13.5" font-family="Helvetica,sans-Serif" font-size="10.00">&lt; KeyType, ElemType &gt;</text>
</a>
</g>
</g>
<!-- Node5&#45;&gt;Node7 -->
<g id="edge7" class="edge"><title>Node5&#45;&gt;Node7</title>
<path fill="none" stroke="midnightblue" d="M528.562,-23.7385C537.27,-23.5241 546.128,-23.3061 554.728,-23.0944"/>
<polygon fill="midnightblue" stroke="midnightblue" points="528.345,-20.2427 518.434,-23.9878 528.517,-27.2405 528.345,-20.2427"/>
</g>
<!-- Node8&#45;&gt;Node1 -->
<g id="edge10" class="edge"><title>Node8&#45;&gt;Node1</title>
<path fill="none" stroke="orange" stroke-dasharray="5,2" d="M249.512,-148.907C295.679,-154.208 357.131,-161.263 400.773,-166.274"/>
<polygon fill="orange" stroke="orange" points="249.648,-145.4 239.314,-147.736 248.849,-152.354 249.648,-145.4"/>
<text text-anchor="middle" x="320.5" y="-165.5" font-family="Helvetica,sans-Serif" font-size="10.00"> &lt; ElemType &gt;</text>
</g>
<!-- Node8&#45;&gt;Node3 -->
<g id="edge9" class="edge"><title>Node8&#45;&gt;Node3</title>
<path fill="none" stroke="orange" stroke-dasharray="5,2" d="M249.334,-133.05C254.629,-132.479 259.902,-131.952 265,-131.5 310.735,-127.443 362.819,-124.844 400.875,-123.315"/>
<polygon fill="orange" stroke="orange" points="248.711,-129.598 239.166,-134.195 249.494,-136.554 248.711,-129.598"/>
<text text-anchor="middle" x="320.5" y="-134.5" font-family="Helvetica,sans-Serif" font-size="10.00"> &lt; std::string &gt;</text>
</g>
<!-- Node9&#45;&gt;Node5 -->
<g id="edge12" class="edge"><title>Node9&#45;&gt;Node5</title>
<path fill="none" stroke="orange" stroke-dasharray="5,2" d="M257.327,-18.1788C300.003,-19.7594 353.419,-21.7377 393.961,-23.2393"/>
<polygon fill="orange" stroke="orange" points="257.405,-14.6794 247.282,-17.8068 257.146,-21.6746 257.405,-14.6794"/>
<text text-anchor="middle" x="320.5" y="-26.5" font-family="Helvetica,sans-Serif" font-size="10.00"> &lt; KeyType, ElemType &gt;</text>
</g>
</g>
</svg>
