<?xml version="1.0" encoding="UTF-8" standalone="no"?>
<!DOCTYPE svg PUBLIC "-//W3C//DTD SVG 1.1//EN"
 "http://www.w3.org/Graphics/SVG/1.1/DTD/svg11.dtd">
<!-- Generated by graphviz version 2.38.0 (20140413.2041)
 -->
<!-- Title: pinhao::MapVectorFeature&lt; KeyType, ElemType &gt; Pages: 1 -->
<svg width="226pt" height="242pt"
 viewBox="0.00 0.00 225.50 242.00" xmlns="http://www.w3.org/2000/svg" xmlns:xlink="http://www.w3.org/1999/xlink">
<g id="graph0" class="graph" transform="scale(1 1) rotate(0) translate(4 238)">
<title>pinhao::MapVectorFeature&lt; KeyType, ElemType &gt;</title>
<polygon fill="white" stroke="none" points="-4,4 -4,-238 221.5,-238 221.5,4 -4,4"/>
<!-- Node0 -->
<g id="node1" class="node"><title>Node0</title>
<polygon fill="#bfbfbf" stroke="black" points="0,-0.5 0,-30.5 131,-30.5 131,-0.5 0,-0.5"/>
<text text-anchor="start" x="8" y="-18.5" font-family="Helvetica,sans-Serif" font-size="10.00">pinhao::MapVectorFeature</text>
<text text-anchor="middle" x="65.5" y="-7.5" font-family="Helvetica,sans-Serif" font-size="10.00">&lt; KeyType, ElemType &gt;</text>
</g>
<!-- Node1 -->
<g id="node2" class="node"><title>Node1</title>
<g id="a_node2"><a xlink:href="classpinhao_1_1MappedFeature.html" target="_top" xlink:title="pinhao::MappedFeature\l\&lt; KeyType, ElemType \&gt;">
<polygon fill="white" stroke="black" points="3.5,-68.5 3.5,-98.5 127.5,-98.5 127.5,-68.5 3.5,-68.5"/>
<text text-anchor="start" x="11.5" y="-86.5" font-family="Helvetica,sans-Serif" font-size="10.00">pinhao::MappedFeature</text>
<text text-anchor="middle" x="65.5" y="-75.5" font-family="Helvetica,sans-Serif" font-size="10.00">&lt; KeyType, ElemType &gt;</text>
</a>
</g>
</g>
<!-- Node1&#45;&gt;Node0 -->
<g id="edge1" class="edge"><title>Node1&#45;&gt;Node0</title>
<path fill="none" stroke="midnightblue" d="M65.5,-58.0322C65.5,-48.8606 65.5,-38.7449 65.5,-30.7931"/>
<polygon fill="midnightblue" stroke="midnightblue" points="62.0001,-58.1789 65.5,-68.179 69.0001,-58.179 62.0001,-58.1789"/>
</g>
<!-- Node2 -->
<g id="node3" class="node"><title>Node2</title>
<g id="a_node3"><a xlink:href="classpinhao_1_1Feature.html" target="_top" xlink:title="This is the base class for features. ">
<polygon fill="white" stroke="black" points="36.5,-214.5 36.5,-233.5 120.5,-233.5 120.5,-214.5 36.5,-214.5"/>
<text text-anchor="middle" x="78.5" y="-221.5" font-family="Helvetica,sans-Serif" font-size="10.00">pinhao::Feature</text>
</a>
</g>
</g>
<!-- Node2&#45;&gt;Node1 -->
<g id="edge2" class="edge"><title>Node2&#45;&gt;Node1</title>
<path fill="none" stroke="midnightblue" d="M73.669,-204.475C71.7035,-196.138 69.6317,-186.136 68.5,-177 65.083,-149.414 64.9142,-116.869 65.164,-98.6659"/>
<polygon fill="midnightblue" stroke="midnightblue" points="70.2933,-205.404 76.1036,-214.263 77.0863,-203.714 70.2933,-205.404"/>
</g>
<!-- Node3 -->
<g id="node4" class="node"><title>Node3</title>
<g id="a_node4"><a xlink:href="classpinhao_1_1MappedFeature.html" target="_top" xlink:title="Abstract class of mapped features. ">
<polygon fill="white" stroke="black" points="77.5,-146.5 77.5,-176.5 203.5,-176.5 203.5,-146.5 77.5,-146.5"/>
<text text-anchor="start" x="85.5" y="-164.5" font-family="Helvetica,sans-Serif" font-size="10.00">pinhao::MappedFeature</text>
<text text-anchor="middle" x="140.5" y="-153.5" font-family="Helvetica,sans-Serif" font-size="10.00">&lt; KeyType, ValueType &gt;</text>
</a>
</g>
</g>
<!-- Node2&#45;&gt;Node3 -->
<g id="edge4" class="edge"><title>Node2&#45;&gt;Node3</title>
<path fill="none" stroke="midnightblue" d="M94.7878,-207.106C104.433,-197.694 116.552,-185.869 125.888,-176.759"/>
<polygon fill="midnightblue" stroke="midnightblue" points="92.0958,-204.843 87.3831,-214.332 96.9846,-209.853 92.0958,-204.843"/>
</g>
<!-- Node3&#45;&gt;Node1 -->
<g id="edge3" class="edge"><title>Node3&#45;&gt;Node1</title>
<path fill="none" stroke="orange" stroke-dasharray="5,2" d="M119.316,-139.033C106.584,-126.132 90.7351,-110.072 79.5437,-98.7309"/>
<polygon fill="orange" stroke="orange" points="116.878,-141.546 126.393,-146.205 121.86,-136.629 116.878,-141.546"/>
<text text-anchor="middle" x="162" y="-120" font-family="Helvetica,sans-Serif" font-size="10.00"> &lt; KeyType, ElemType &gt;</text>
</g>
</g>
</svg>
