<?xml version="1.0" encoding="UTF-8" standalone="no"?>
<!DOCTYPE svg PUBLIC "-//W3C//DTD SVG 1.1//EN"
 "http://www.w3.org/Graphics/SVG/1.1/DTD/svg11.dtd">
<!-- Generated by graphviz version 2.38.0 (20140413.2041)
 -->
<!-- Title: /home/yukiosir/workspace/CompilerProject/Software/pinhao/include/pinhao/Support Pages: 1 -->
<svg width="186pt" height="151pt"
 viewBox="0.00 0.00 186.00 151.00" xmlns="http://www.w3.org/2000/svg" xmlns:xlink="http://www.w3.org/1999/xlink">
<g id="graph0" class="graph" transform="scale(1 1) rotate(0) translate(4 147)">
<title>/home/yukiosir/workspace/CompilerProject/Software/pinhao/include/pinhao/Support</title>
<polygon fill="white" stroke="none" points="-4,4 -4,-147 182,-147 182,4 -4,4"/>
<g id="clust1" class="cluster"><title>clusterdir_4e520cd54e0a57cca3ded6761052085a</title>
<g id="a_clust1"><a xlink:href="dir_4e520cd54e0a57cca3ded6761052085a.html" target="_top" xlink:title="pinhao">
<polygon fill="#ddddee" stroke="black" points="8,-64 8,-135 78,-135 78,-64 8,-64"/>
<text text-anchor="middle" x="43" y="-123" font-family="Helvetica,sans-Serif" font-size="10.00">pinhao</text>
</a>
</g>
</g>
<!-- dir_0fccb6c9d3322ac7c2e3c005f3c88aab -->
<g id="node1" class="node"><title>dir_0fccb6c9d3322ac7c2e3c005f3c88aab</title>
<g id="a_node1"><a xlink:href="dir_0fccb6c9d3322ac7c2e3c005f3c88aab.html" target="_top" xlink:title="Support">
<polygon fill="#eeeeff" stroke="black" points="70,-108 16,-108 16,-72 70,-72 70,-108"/>
<text text-anchor="middle" x="43" y="-87.5" font-family="Helvetica,sans-Serif" font-size="10.00">Support</text>
</a>
</g>
</g>
<!-- dir_354bd357b842371bef13c970f77efe20 -->
<g id="node2" class="node"><title>dir_354bd357b842371bef13c970f77efe20</title>
<g id="a_node2"><a xlink:href="dir_354bd357b842371bef13c970f77efe20.html" target="_top" xlink:title="MachineLearning">
<polygon fill="white" stroke="red" points="178,-108 88,-108 88,-72 178,-72 178,-108"/>
<text text-anchor="middle" x="133" y="-87.5" font-family="Helvetica,sans-Serif" font-size="10.00">MachineLearning</text>
</a>
</g>
</g>
<!-- dir_0fccb6c9d3322ac7c2e3c005f3c88aab&#45;&gt;dir_354bd357b842371bef13c970f77efe20 -->
<g id="edge1" class="edge"><title>dir_0fccb6c9d3322ac7c2e3c005f3c88aab&#45;&gt;dir_354bd357b842371bef13c970f77efe20</title>
<path fill="none" stroke="black" d="M70.0703,-90C72.5592,-90 75.0481,-90 77.5371,-90"/>
<polygon fill="black" stroke="black" points="77.7693,-93.5001 87.7693,-90 77.7693,-86.5001 77.7693,-93.5001"/>
<g id="a_edge1&#45;headlabel"><a xlink:href="dir_000009_000005.html" target="_top" xlink:title="1">
<text text-anchor="middle" x="74.1747" y="-93.8393" font-family="Helvetica,sans-Serif" font-size="10.00">1</text>
</a>
</g>
</g>
<!-- dir_bbc824b1dac0c62b36bc6e26d702e5e3 -->
<g id="node3" class="node"><title>dir_bbc824b1dac0c62b36bc6e26d702e5e3</title>
<g id="a_node3"><a xlink:href="dir_bbc824b1dac0c62b36bc6e26d702e5e3.html" target="_top" xlink:title="Features">
<polygon fill="none" stroke="black" points="115.5,-36 60.5,-36 60.5,-0 115.5,-0 115.5,-36"/>
<text text-anchor="middle" x="88" y="-15.5" font-family="Helvetica,sans-Serif" font-size="10.00">Features</text>
</a>
</g>
</g>
<!-- dir_0fccb6c9d3322ac7c2e3c005f3c88aab&#45;&gt;dir_bbc824b1dac0c62b36bc6e26d702e5e3 -->
<g id="edge2" class="edge"><title>dir_0fccb6c9d3322ac7c2e3c005f3c88aab&#45;&gt;dir_bbc824b1dac0c62b36bc6e26d702e5e3</title>
<path fill="none" stroke="black" d="M48.2079,-71.6966C52.6456,-63.4741 58.8669,-53.4832 65.138,-44.4207"/>
<polygon fill="black" stroke="black" points="68.1199,-46.2687 71.1093,-36.1043 62.4338,-42.186 68.1199,-46.2687"/>
<g id="a_edge2&#45;headlabel"><a xlink:href="dir_000009_000004.html" target="_top" xlink:title="4">
<text text-anchor="middle" x="68.3297" y="-48.3445" font-family="Helvetica,sans-Serif" font-size="10.00">4</text>
</a>
</g>
</g>
<!-- dir_354bd357b842371bef13c970f77efe20&#45;&gt;dir_bbc824b1dac0c62b36bc6e26d702e5e3 -->
<g id="edge3" class="edge"><title>dir_354bd357b842371bef13c970f77efe20&#45;&gt;dir_bbc824b1dac0c62b36bc6e26d702e5e3</title>
<path fill="none" stroke="black" d="M121.876,-71.6966C116.645,-63.5589 110.3,-53.689 104.522,-44.7013"/>
<polygon fill="black" stroke="black" points="107.347,-42.6235 98.9956,-36.1043 101.459,-46.4088 107.347,-42.6235"/>
<g id="a_edge3&#45;headlabel"><a xlink:href="dir_000005_000004.html" target="_top" xlink:title="1">
<text text-anchor="middle" x="111.679" y="-41.6118" font-family="Helvetica,sans-Serif" font-size="10.00">1</text>
</a>
</g>
</g>
<!-- dir_bbc824b1dac0c62b36bc6e26d702e5e3&#45;&gt;dir_0fccb6c9d3322ac7c2e3c005f3c88aab -->
<g id="edge4" class="edge"><title>dir_bbc824b1dac0c62b36bc6e26d702e5e3&#45;&gt;dir_0fccb6c9d3322ac7c2e3c005f3c88aab</title>
<path fill="none" stroke="black" d="M82.8994,-36.1043C78.4906,-44.2981 72.2843,-54.282 66.014,-63.3594"/>
<polygon fill="black" stroke="black" points="63.0194,-61.5295 60.0393,-71.6966 68.7093,-65.607 63.0194,-61.5295"/>
<g id="a_edge4&#45;headlabel"><a xlink:href="dir_000004_000009.html" target="_top" xlink:title="6">
<text text-anchor="middle" x="62.8054" y="-54.4539" font-family="Helvetica,sans-Serif" font-size="10.00">6</text>
</a>
</g>
</g>
</g>
</svg>
