<?xml version="1.0" encoding="UTF-8" standalone="no"?>
<!DOCTYPE svg PUBLIC "-//W3C//DTD SVG 1.1//EN"
 "http://www.w3.org/Graphics/SVG/1.1/DTD/svg11.dtd">
<!-- Generated by graphviz version 2.38.0 (20140413.2041)
 -->
<!-- Title: /home/yukiosir/workspace/CompilerProject/Software/pinhao/include/pinhao Pages: 1 -->
<svg width="312pt" height="327pt"
 viewBox="0.00 0.00 312.00 327.00" xmlns="http://www.w3.org/2000/svg" xmlns:xlink="http://www.w3.org/1999/xlink">
<g id="graph0" class="graph" transform="scale(1 1) rotate(0) translate(4 323)">
<title>/home/yukiosir/workspace/CompilerProject/Software/pinhao/include/pinhao</title>
<polygon fill="white" stroke="none" points="-4,4 -4,-323 308,-323 308,4 -4,4"/>
<g id="clust1" class="cluster"><title>clusterdir_c2dcae61f19b4264a33bd5ea8aa70853</title>
<g id="a_clust1"><a xlink:href="dir_c2dcae61f19b4264a33bd5ea8aa70853.html" target="_top" xlink:title="include">
<polygon fill="#ddddee" stroke="black" points="8,-8 8,-311 296,-311 296,-8 8,-8"/>
<text text-anchor="middle" x="152" y="-299" font-family="Helvetica,sans-Serif" font-size="10.00">include</text>
</a>
</g>
</g>
<g id="clust2" class="cluster"><title>clusterdir_4e520cd54e0a57cca3ded6761052085a</title>
<g id="a_clust2"><a xlink:href="dir_4e520cd54e0a57cca3ded6761052085a.html" target="_top">
<polygon fill="#eeeeff" stroke="black" points="16,-16 16,-284 288,-284 288,-16 16,-16"/>
</a>
</g>
</g>
<!-- dir_4e520cd54e0a57cca3ded6761052085a -->
<g id="node1" class="node"><title>dir_4e520cd54e0a57cca3ded6761052085a</title>
<text text-anchor="middle" x="253" y="-255.5" font-family="Helvetica,sans-Serif" font-size="10.00">pinhao</text>
</g>
<!-- dir_bbc824b1dac0c62b36bc6e26d702e5e3 -->
<g id="node2" class="node"><title>dir_bbc824b1dac0c62b36bc6e26d702e5e3</title>
<g id="a_node2"><a xlink:href="dir_bbc824b1dac0c62b36bc6e26d702e5e3.html" target="_top" xlink:title="Features">
<polygon fill="white" stroke="black" points="207.5,-276 152.5,-276 152.5,-240 207.5,-240 207.5,-276"/>
<text text-anchor="middle" x="180" y="-255.5" font-family="Helvetica,sans-Serif" font-size="10.00">Features</text>
</a>
</g>
</g>
<!-- dir_0fccb6c9d3322ac7c2e3c005f3c88aab -->
<g id="node6" class="node"><title>dir_0fccb6c9d3322ac7c2e3c005f3c88aab</title>
<g id="a_node6"><a xlink:href="dir_0fccb6c9d3322ac7c2e3c005f3c88aab.html" target="_top" xlink:title="Support">
<polygon fill="white" stroke="black" points="184,-204 130,-204 130,-168 184,-168 184,-204"/>
<text text-anchor="middle" x="157" y="-183.5" font-family="Helvetica,sans-Serif" font-size="10.00">Support</text>
</a>
</g>
</g>
<!-- dir_bbc824b1dac0c62b36bc6e26d702e5e3&#45;&gt;dir_0fccb6c9d3322ac7c2e3c005f3c88aab -->
<g id="edge7" class="edge"><title>dir_bbc824b1dac0c62b36bc6e26d702e5e3&#45;&gt;dir_0fccb6c9d3322ac7c2e3c005f3c88aab</title>
<path fill="none" stroke="black" d="M168.399,-239.697C165.032,-231.898 161.724,-222.509 159.232,-213.829"/>
<polygon fill="black" stroke="black" points="162.61,-212.914 156.725,-204.104 155.832,-214.661 162.61,-212.914"/>
<g id="a_edge7&#45;headlabel"><a xlink:href="dir_000004_000009.html" target="_top" xlink:title="6">
<text text-anchor="middle" x="166.257" y="-213.186" font-family="Helvetica,sans-Serif" font-size="10.00">6</text>
</a>
</g>
</g>
<!-- dir_354bd357b842371bef13c970f77efe20 -->
<g id="node3" class="node"><title>dir_354bd357b842371bef13c970f77efe20</title>
<g id="a_node3"><a xlink:href="dir_354bd357b842371bef13c970f77efe20.html" target="_top" xlink:title="MachineLearning">
<polygon fill="white" stroke="red" points="225,-132 135,-132 135,-96 225,-96 225,-132"/>
<text text-anchor="middle" x="180" y="-111.5" font-family="Helvetica,sans-Serif" font-size="10.00">MachineLearning</text>
</a>
</g>
</g>
<!-- dir_354bd357b842371bef13c970f77efe20&#45;&gt;dir_bbc824b1dac0c62b36bc6e26d702e5e3 -->
<g id="edge5" class="edge"><title>dir_354bd357b842371bef13c970f77efe20&#45;&gt;dir_bbc824b1dac0c62b36bc6e26d702e5e3</title>
<path fill="none" stroke="black" d="M185.409,-132.471C188.295,-142.711 191.545,-155.961 193,-168 194.92,-183.884 194.92,-188.116 193,-204 191.977,-212.465 190.067,-221.529 188.019,-229.724"/>
<polygon fill="black" stroke="black" points="184.599,-228.966 185.409,-239.529 191.364,-230.766 184.599,-228.966"/>
<g id="a_edge5&#45;headlabel"><a xlink:href="dir_000005_000004.html" target="_top" xlink:title="1">
<text text-anchor="middle" x="182.78" y="-222.262" font-family="Helvetica,sans-Serif" font-size="10.00">1</text>
</a>
</g>
</g>
<!-- dir_7eaf8a4f0ed4880e049e5a886aca1269 -->
<g id="node4" class="node"><title>dir_7eaf8a4f0ed4880e049e5a886aca1269</title>
<g id="a_node4"><a xlink:href="dir_7eaf8a4f0ed4880e049e5a886aca1269.html" target="_top" xlink:title="Optimizer">
<polygon fill="white" stroke="black" points="177.5,-60 118.5,-60 118.5,-24 177.5,-24 177.5,-60"/>
<text text-anchor="middle" x="148" y="-39.5" font-family="Helvetica,sans-Serif" font-size="10.00">Optimizer</text>
</a>
</g>
</g>
<!-- dir_354bd357b842371bef13c970f77efe20&#45;&gt;dir_7eaf8a4f0ed4880e049e5a886aca1269 -->
<g id="edge4" class="edge"><title>dir_354bd357b842371bef13c970f77efe20&#45;&gt;dir_7eaf8a4f0ed4880e049e5a886aca1269</title>
<path fill="none" stroke="black" d="M172.09,-95.6966C168.447,-87.7284 164.046,-78.0995 160.006,-69.2641"/>
<polygon fill="black" stroke="black" points="163.16,-67.7439 155.819,-60.1043 156.794,-70.6543 163.16,-67.7439"/>
<g id="a_edge4&#45;headlabel"><a xlink:href="dir_000005_000007.html" target="_top" xlink:title="1">
<text text-anchor="middle" x="167.237" y="-67.3327" font-family="Helvetica,sans-Serif" font-size="10.00">1</text>
</a>
</g>
</g>
<!-- dir_354bd357b842371bef13c970f77efe20&#45;&gt;dir_0fccb6c9d3322ac7c2e3c005f3c88aab -->
<g id="edge3" class="edge"><title>dir_354bd357b842371bef13c970f77efe20&#45;&gt;dir_0fccb6c9d3322ac7c2e3c005f3c88aab</title>
<path fill="none" stroke="black" d="M180.275,-132.104C178.517,-139.96 175.624,-149.462 172.376,-158.232"/>
<polygon fill="black" stroke="black" points="169.055,-157.112 168.601,-167.697 175.557,-159.705 169.055,-157.112"/>
<g id="a_edge3&#45;headlabel"><a xlink:href="dir_000005_000009.html" target="_top" xlink:title="6">
<text text-anchor="middle" x="167.75" y="-150.221" font-family="Helvetica,sans-Serif" font-size="10.00">6</text>
</a>
</g>
</g>
<!-- dir_7eaf8a4f0ed4880e049e5a886aca1269&#45;&gt;dir_0fccb6c9d3322ac7c2e3c005f3c88aab -->
<g id="edge6" class="edge"><title>dir_7eaf8a4f0ed4880e049e5a886aca1269&#45;&gt;dir_0fccb6c9d3322ac7c2e3c005f3c88aab</title>
<path fill="none" stroke="black" d="M138.552,-60.1202C129.857,-78.0833 119.256,-107.113 126,-132 128.58,-141.52 133.345,-151.083 138.378,-159.413"/>
<polygon fill="black" stroke="black" points="135.494,-161.399 143.854,-167.908 141.378,-157.607 135.494,-161.399"/>
<g id="a_edge6&#45;headlabel"><a xlink:href="dir_000007_000009.html" target="_top" xlink:title="2">
<text text-anchor="middle" x="131.16" y="-157.417" font-family="Helvetica,sans-Serif" font-size="10.00">2</text>
</a>
</g>
</g>
<!-- dir_431b76270e61fa8c3ba040b83a56b4b5 -->
<g id="node5" class="node"><title>dir_431b76270e61fa8c3ba040b83a56b4b5</title>
<g id="a_node5"><a xlink:href="dir_431b76270e61fa8c3ba040b83a56b4b5.html" target="_top" xlink:title="PerformanceAnalyser">
<polygon fill="white" stroke="black" points="134,-276 24,-276 24,-240 134,-240 134,-276"/>
<text text-anchor="middle" x="79" y="-255.5" font-family="Helvetica,sans-Serif" font-size="10.00">PerformanceAnalyser</text>
</a>
</g>
</g>
<!-- dir_431b76270e61fa8c3ba040b83a56b4b5&#45;&gt;dir_0fccb6c9d3322ac7c2e3c005f3c88aab -->
<g id="edge8" class="edge"><title>dir_431b76270e61fa8c3ba040b83a56b4b5&#45;&gt;dir_0fccb6c9d3322ac7c2e3c005f3c88aab</title>
<path fill="none" stroke="black" d="M98.2809,-239.697C107.915,-231.05 119.729,-220.449 130.227,-211.027"/>
<polygon fill="black" stroke="black" points="132.836,-213.388 137.941,-204.104 128.161,-208.179 132.836,-213.388"/>
<g id="a_edge8&#45;headlabel"><a xlink:href="dir_000008_000009.html" target="_top" xlink:title="1">
<text text-anchor="middle" x="132.057" y="-215.402" font-family="Helvetica,sans-Serif" font-size="10.00">1</text>
</a>
</g>
</g>
<!-- dir_0fccb6c9d3322ac7c2e3c005f3c88aab&#45;&gt;dir_bbc824b1dac0c62b36bc6e26d702e5e3 -->
<g id="edge2" class="edge"><title>dir_0fccb6c9d3322ac7c2e3c005f3c88aab&#45;&gt;dir_bbc824b1dac0c62b36bc6e26d702e5e3</title>
<path fill="none" stroke="black" d="M168.515,-204.104C171.883,-211.876 175.198,-221.257 177.705,-229.949"/>
<polygon fill="black" stroke="black" points="174.334,-230.894 180.23,-239.697 181.11,-229.138 174.334,-230.894"/>
<g id="a_edge2&#45;headlabel"><a xlink:href="dir_000009_000004.html" target="_top" xlink:title="4">
<text text-anchor="middle" x="170.684" y="-225.627" font-family="Helvetica,sans-Serif" font-size="10.00">4</text>
</a>
</g>
</g>
<!-- dir_0fccb6c9d3322ac7c2e3c005f3c88aab&#45;&gt;dir_354bd357b842371bef13c970f77efe20 -->
<g id="edge1" class="edge"><title>dir_0fccb6c9d3322ac7c2e3c005f3c88aab&#45;&gt;dir_354bd357b842371bef13c970f77efe20</title>
<path fill="none" stroke="black" d="M156.77,-167.697C158.547,-159.813 161.452,-150.304 164.706,-141.546"/>
<polygon fill="black" stroke="black" points="168.018,-142.689 168.485,-132.104 161.52,-140.088 168.018,-142.689"/>
<g id="a_edge1&#45;headlabel"><a xlink:href="dir_000009_000005.html" target="_top" xlink:title="1">
<text text-anchor="middle" x="169.319" y="-144.581" font-family="Helvetica,sans-Serif" font-size="10.00">1</text>
</a>
</g>
</g>
</g>
</svg>
