<?xml version="1.0" encoding="UTF-8" standalone="no"?>
<!DOCTYPE svg PUBLIC "-//W3C//DTD SVG 1.1//EN"
 "http://www.w3.org/Graphics/SVG/1.1/DTD/svg11.dtd">
<!-- Generated by graphviz version 2.38.0 (20140413.2041)
 -->
<!-- Title: /home/yukiosir/workspace/CompilerProject/Software/pinhao/lib Pages: 1 -->
<svg width="662pt" height="159pt"
 viewBox="0.00 0.00 662.00 159.00" xmlns="http://www.w3.org/2000/svg" xmlns:xlink="http://www.w3.org/1999/xlink">
<g id="graph0" class="graph" transform="scale(1 1) rotate(0) translate(4 155)">
<title>/home/yukiosir/workspace/CompilerProject/Software/pinhao/lib</title>
<polygon fill="white" stroke="none" points="-4,4 -4,-155 658,-155 658,4 -4,4"/>
<g id="clust1" class="cluster"><title>clusterdir_c66aaba898193cd75848a69fb0834b08</title>
<g id="a_clust1"><a xlink:href="dir_c66aaba898193cd75848a69fb0834b08.html" target="_top" xlink:title="pinhao">
<polygon fill="#ddddee" stroke="black" points="8,-56 8,-143 646,-143 646,-56 8,-56"/>
<text text-anchor="middle" x="327" y="-131" font-family="Helvetica,sans-Serif" font-size="10.00">pinhao</text>
</a>
</g>
</g>
<g id="clust2" class="cluster"><title>clusterdir_38aa94f0b69c1504002506a3716b8e53</title>
<g id="a_clust2"><a xlink:href="dir_38aa94f0b69c1504002506a3716b8e53.html" target="_top">
<polygon fill="#eeeeff" stroke="black" points="16,-64 16,-116 638,-116 638,-64 16,-64"/>
</a>
</g>
</g>
<!-- dir_38aa94f0b69c1504002506a3716b8e53 -->
<g id="node1" class="node"><title>dir_38aa94f0b69c1504002506a3716b8e53</title>
<text text-anchor="middle" x="603" y="-87.5" font-family="Helvetica,sans-Serif" font-size="10.00">lib</text>
</g>
<!-- dir_4f41bf78076cc2d9565cc4f54f33abd1 -->
<g id="node2" class="node"><title>dir_4f41bf78076cc2d9565cc4f54f33abd1</title>
<g id="a_node2"><a xlink:href="dir_4f41bf78076cc2d9565cc4f54f33abd1.html" target="_top" xlink:title="Features">
<polygon fill="white" stroke="black" points="557.5,-108 502.5,-108 502.5,-72 557.5,-72 557.5,-108"/>
<text text-anchor="middle" x="530" y="-87.5" font-family="Helvetica,sans-Serif" font-size="10.00">Features</text>
</a>
</g>
</g>
<!-- dir_c2dcae61f19b4264a33bd5ea8aa70853 -->
<g id="node8" class="node"><title>dir_c2dcae61f19b4264a33bd5ea8aa70853</title>
<g id="a_node8"><a xlink:href="dir_c2dcae61f19b4264a33bd5ea8aa70853.html" target="_top" xlink:title="include">
<polygon fill="white" stroke="red" points="327,-36 273,-36 273,-0 327,-0 327,-36"/>
<text text-anchor="middle" x="300" y="-15.5" font-family="Helvetica,sans-Serif" font-size="10.00">include</text>
</a>
</g>
</g>
<!-- dir_4f41bf78076cc2d9565cc4f54f33abd1&#45;&gt;dir_c2dcae61f19b4264a33bd5ea8aa70853 -->
<g id="edge5" class="edge"><title>dir_4f41bf78076cc2d9565cc4f54f33abd1&#45;&gt;dir_c2dcae61f19b4264a33bd5ea8aa70853</title>
<path fill="none" stroke="black" d="M514.486,-71.7635C508.344,-65.9174 500.871,-59.8887 493,-56 442.739,-31.1693 377.486,-22.9709 337.193,-20.2834"/>
<polygon fill="black" stroke="black" points="337.206,-16.7782 327.018,-19.687 336.796,-23.7662 337.206,-16.7782"/>
<g id="a_edge5&#45;headlabel"><a xlink:href="dir_000011_000002.html" target="_top" xlink:title="7">
<text text-anchor="middle" x="340.96" y="-11.654" font-family="Helvetica,sans-Serif" font-size="10.00">7</text>
</a>
</g>
</g>
<!-- dir_fc1423ec04940a7508b6c7307d19f1b5 -->
<g id="node3" class="node"><title>dir_fc1423ec04940a7508b6c7307d19f1b5</title>
<g id="a_node3"><a xlink:href="dir_fc1423ec04940a7508b6c7307d19f1b5.html" target="_top" xlink:title="FeaturesImpl">
<polygon fill="white" stroke="red" points="484,-108 410,-108 410,-72 484,-72 484,-108"/>
<text text-anchor="middle" x="447" y="-87.5" font-family="Helvetica,sans-Serif" font-size="10.00">FeaturesImpl</text>
</a>
</g>
</g>
<!-- dir_fc1423ec04940a7508b6c7307d19f1b5&#45;&gt;dir_c2dcae61f19b4264a33bd5ea8aa70853 -->
<g id="edge2" class="edge"><title>dir_fc1423ec04940a7508b6c7307d19f1b5&#45;&gt;dir_c2dcae61f19b4264a33bd5ea8aa70853</title>
<path fill="none" stroke="black" d="M425.791,-71.9539C418.25,-66.3972 409.513,-60.5053 401,-56 380.619,-45.2148 356.402,-36.2258 336.791,-29.8095"/>
<polygon fill="black" stroke="black" points="337.591,-26.3911 327,-26.6928 335.467,-33.0613 337.591,-26.3911"/>
<g id="a_edge2&#45;headlabel"><a xlink:href="dir_000012_000002.html" target="_top" xlink:title="23">
<text text-anchor="middle" x="341.877" y="-22.2758" font-family="Helvetica,sans-Serif" font-size="10.00">23</text>
</a>
</g>
</g>
<!-- dir_c2c09ff9a6a48aadc7d14faf2f08d6b3 -->
<g id="node4" class="node"><title>dir_c2c09ff9a6a48aadc7d14faf2f08d6b3</title>
<g id="a_node4"><a xlink:href="dir_c2c09ff9a6a48aadc7d14faf2f08d6b3.html" target="_top" xlink:title="MachineLearning">
<polygon fill="white" stroke="red" points="392,-108 302,-108 302,-72 392,-72 392,-108"/>
<text text-anchor="middle" x="347" y="-87.5" font-family="Helvetica,sans-Serif" font-size="10.00">MachineLearning</text>
</a>
</g>
</g>
<!-- dir_c2c09ff9a6a48aadc7d14faf2f08d6b3&#45;&gt;dir_c2dcae61f19b4264a33bd5ea8aa70853 -->
<g id="edge4" class="edge"><title>dir_c2c09ff9a6a48aadc7d14faf2f08d6b3&#45;&gt;dir_c2dcae61f19b4264a33bd5ea8aa70853</title>
<path fill="none" stroke="black" d="M335.382,-71.6966C329.861,-63.4741 323.153,-53.4832 317.068,-44.4207"/>
<polygon fill="black" stroke="black" points="319.965,-42.4555 311.484,-36.1043 314.153,-46.3576 319.965,-42.4555"/>
<g id="a_edge4&#45;headlabel"><a xlink:href="dir_000014_000002.html" target="_top" xlink:title="17">
<text text-anchor="middle" x="324.325" y="-41.3571" font-family="Helvetica,sans-Serif" font-size="10.00">17</text>
</a>
</g>
</g>
<!-- dir_95e39c0ef7e31bdbc97b2dbcec64a232 -->
<g id="node5" class="node"><title>dir_95e39c0ef7e31bdbc97b2dbcec64a232</title>
<g id="a_node5"><a xlink:href="dir_95e39c0ef7e31bdbc97b2dbcec64a232.html" target="_top" xlink:title="Optimizer">
<polygon fill="white" stroke="black" points="283.5,-108 224.5,-108 224.5,-72 283.5,-72 283.5,-108"/>
<text text-anchor="middle" x="254" y="-87.5" font-family="Helvetica,sans-Serif" font-size="10.00">Optimizer</text>
</a>
</g>
</g>
<!-- dir_95e39c0ef7e31bdbc97b2dbcec64a232&#45;&gt;dir_c2dcae61f19b4264a33bd5ea8aa70853 -->
<g id="edge3" class="edge"><title>dir_95e39c0ef7e31bdbc97b2dbcec64a232&#45;&gt;dir_c2dcae61f19b4264a33bd5ea8aa70853</title>
<path fill="none" stroke="black" d="M265.371,-71.6966C270.718,-63.5589 277.204,-53.689 283.111,-44.7013"/>
<polygon fill="black" stroke="black" points="286.193,-46.3835 288.76,-36.1043 280.343,-42.5393 286.193,-46.3835"/>
<g id="a_edge3&#45;headlabel"><a xlink:href="dir_000016_000002.html" target="_top" xlink:title="14">
<text text-anchor="middle" x="286.592" y="-48.4468" font-family="Helvetica,sans-Serif" font-size="10.00">14</text>
</a>
</g>
</g>
<!-- dir_ce7eda352ff038779059688037a675ec -->
<g id="node6" class="node"><title>dir_ce7eda352ff038779059688037a675ec</title>
<g id="a_node6"><a xlink:href="dir_ce7eda352ff038779059688037a675ec.html" target="_top" xlink:title="PerformanceAnalyser">
<polygon fill="white" stroke="black" points="206,-108 96,-108 96,-72 206,-72 206,-108"/>
<text text-anchor="middle" x="151" y="-87.5" font-family="Helvetica,sans-Serif" font-size="10.00">PerformanceAnalyser</text>
</a>
</g>
</g>
<!-- dir_ce7eda352ff038779059688037a675ec&#45;&gt;dir_c2dcae61f19b4264a33bd5ea8aa70853 -->
<g id="edge6" class="edge"><title>dir_ce7eda352ff038779059688037a675ec&#45;&gt;dir_c2dcae61f19b4264a33bd5ea8aa70853</title>
<path fill="none" stroke="black" d="M183.894,-71.8589C194.123,-66.6477 205.477,-60.984 216,-56 231.476,-48.6698 248.761,-40.9739 263.609,-34.511"/>
<polygon fill="black" stroke="black" points="265.184,-37.6431 272.97,-30.4583 262.403,-31.2192 265.184,-37.6431"/>
<g id="a_edge6&#45;headlabel"><a xlink:href="dir_000017_000002.html" target="_top" xlink:title="5">
<text text-anchor="middle" x="263.013" y="-39.1767" font-family="Helvetica,sans-Serif" font-size="10.00">5</text>
</a>
</g>
</g>
<!-- dir_c576381be8f06d6cbd8605818afe5597 -->
<g id="node7" class="node"><title>dir_c576381be8f06d6cbd8605818afe5597</title>
<g id="a_node7"><a xlink:href="dir_c576381be8f06d6cbd8605818afe5597.html" target="_top" xlink:title="Support">
<polygon fill="white" stroke="red" points="78,-108 24,-108 24,-72 78,-72 78,-108"/>
<text text-anchor="middle" x="51" y="-87.5" font-family="Helvetica,sans-Serif" font-size="10.00">Support</text>
</a>
</g>
</g>
<!-- dir_c576381be8f06d6cbd8605818afe5597&#45;&gt;dir_c2dcae61f19b4264a33bd5ea8aa70853 -->
<g id="edge1" class="edge"><title>dir_c576381be8f06d6cbd8605818afe5597&#45;&gt;dir_c2dcae61f19b4264a33bd5ea8aa70853</title>
<path fill="none" stroke="black" d="M65.9836,-71.6844C71.9477,-65.8297 79.2392,-59.8158 87,-56 143.943,-28.0024 218.57,-20.8472 262.69,-19.2164"/>
<polygon fill="black" stroke="black" points="263.06,-22.7072 272.954,-18.9171 262.856,-15.7101 263.06,-22.7072"/>
<g id="a_edge1&#45;headlabel"><a xlink:href="dir_000018_000002.html" target="_top" xlink:title="15">
<text text-anchor="middle" x="259.55" y="-23.1499" font-family="Helvetica,sans-Serif" font-size="10.00">15</text>
</a>
</g>
</g>
</g>
</svg>
