<?xml version="1.0" encoding="UTF-8" standalone="no"?>
<!DOCTYPE svg PUBLIC "-//W3C//DTD SVG 1.1//EN"
 "http://www.w3.org/Graphics/SVG/1.1/DTD/svg11.dtd">
<!-- Generated by graphviz version 2.38.0 (20140413.2041)
 -->
<!-- Title: /home/yukiosir/workspace/CompilerProject/Software/pinhao/tools Pages: 1 -->
<svg width="198pt" height="159pt"
 viewBox="0.00 0.00 198.00 159.00" xmlns="http://www.w3.org/2000/svg" xmlns:xlink="http://www.w3.org/1999/xlink">
<g id="graph0" class="graph" transform="scale(1 1) rotate(0) translate(4 155)">
<title>/home/yukiosir/workspace/CompilerProject/Software/pinhao/tools</title>
<polygon fill="white" stroke="none" points="-4,4 -4,-155 194,-155 194,4 -4,4"/>
<g id="clust1" class="cluster"><title>clusterdir_c66aaba898193cd75848a69fb0834b08</title>
<g id="a_clust1"><a xlink:href="dir_c66aaba898193cd75848a69fb0834b08.html" target="_top" xlink:title="pinhao">
<polygon fill="#ddddee" stroke="black" points="8,-56 8,-143 182,-143 182,-56 8,-56"/>
<text text-anchor="middle" x="95" y="-131" font-family="Helvetica,sans-Serif" font-size="10.00">pinhao</text>
</a>
</g>
</g>
<g id="clust2" class="cluster"><title>clusterdir_06ab285032ddff4de209743e5f69950b</title>
<g id="a_clust2"><a xlink:href="dir_06ab285032ddff4de209743e5f69950b.html" target="_top">
<polygon fill="#eeeeff" stroke="black" points="16,-64 16,-116 174,-116 174,-64 16,-64"/>
</a>
</g>
</g>
<!-- dir_06ab285032ddff4de209743e5f69950b -->
<g id="node1" class="node"><title>dir_06ab285032ddff4de209743e5f69950b</title>
<text text-anchor="middle" x="139" y="-87.5" font-family="Helvetica,sans-Serif" font-size="10.00">tools</text>
</g>
<!-- dir_143d5e15a43a1fd467d166ca017dd5b4 -->
<g id="node2" class="node"><title>dir_143d5e15a43a1fd467d166ca017dd5b4</title>
<g id="a_node2"><a xlink:href="dir_143d5e15a43a1fd467d166ca017dd5b4.html" target="_top" xlink:title="OptLibraries">
<polygon fill="white" stroke="black" points="93.5,-108 24.5,-108 24.5,-72 93.5,-72 93.5,-108"/>
<text text-anchor="middle" x="59" y="-87.5" font-family="Helvetica,sans-Serif" font-size="10.00">OptLibraries</text>
</a>
</g>
</g>
<!-- dir_c2dcae61f19b4264a33bd5ea8aa70853 -->
<g id="node3" class="node"><title>dir_c2dcae61f19b4264a33bd5ea8aa70853</title>
<g id="a_node3"><a xlink:href="dir_c2dcae61f19b4264a33bd5ea8aa70853.html" target="_top" xlink:title="include">
<polygon fill="white" stroke="red" points="86,-36 32,-36 32,-0 86,-0 86,-36"/>
<text text-anchor="middle" x="59" y="-15.5" font-family="Helvetica,sans-Serif" font-size="10.00">include</text>
</a>
</g>
</g>
<!-- dir_143d5e15a43a1fd467d166ca017dd5b4&#45;&gt;dir_c2dcae61f19b4264a33bd5ea8aa70853 -->
<g id="edge1" class="edge"><title>dir_143d5e15a43a1fd467d166ca017dd5b4&#45;&gt;dir_c2dcae61f19b4264a33bd5ea8aa70853</title>
<path fill="none" stroke="black" d="M59,-71.6966C59,-63.9827 59,-54.7125 59,-46.1124"/>
<polygon fill="black" stroke="black" points="62.5001,-46.1043 59,-36.1043 55.5001,-46.1044 62.5001,-46.1043"/>
<g id="a_edge1&#45;headlabel"><a xlink:href="dir_000021_000002.html" target="_top" xlink:title="4">
<text text-anchor="middle" x="65.3393" y="-47.199" font-family="Helvetica,sans-Serif" font-size="10.00">4</text>
</a>
</g>
</g>
</g>
</svg>
