<?xml version="1.0" encoding="UTF-8" standalone="no"?>
<!DOCTYPE svg PUBLIC "-//W3C//DTD SVG 1.1//EN"
 "http://www.w3.org/Graphics/SVG/1.1/DTD/svg11.dtd">
<!-- Generated by graphviz version 2.38.0 (20140413.2041)
 -->
<!-- Title: /home/yukiosir/workspace/CompilerProject/Software/pinhao/lib/Optimizer Pages: 1 -->
<svg width="100pt" height="151pt"
 viewBox="0.00 0.00 100.00 151.00" xmlns="http://www.w3.org/2000/svg" xmlns:xlink="http://www.w3.org/1999/xlink">
<g id="graph0" class="graph" transform="scale(1 1) rotate(0) translate(4 147)">
<title>/home/yukiosir/workspace/CompilerProject/Software/pinhao/lib/Optimizer</title>
<polygon fill="white" stroke="none" points="-4,4 -4,-147 96,-147 96,4 -4,4"/>
<g id="clust1" class="cluster"><title>clusterdir_38aa94f0b69c1504002506a3716b8e53</title>
<g id="a_clust1"><a xlink:href="dir_38aa94f0b69c1504002506a3716b8e53.html" target="_top" xlink:title="lib">
<polygon fill="#ddddee" stroke="black" points="8,-64 8,-135 84,-135 84,-64 8,-64"/>
<text text-anchor="middle" x="46" y="-123" font-family="Helvetica,sans-Serif" font-size="10.00">lib</text>
</a>
</g>
</g>
<!-- dir_95e39c0ef7e31bdbc97b2dbcec64a232 -->
<g id="node1" class="node"><title>dir_95e39c0ef7e31bdbc97b2dbcec64a232</title>
<g id="a_node1"><a xlink:href="dir_95e39c0ef7e31bdbc97b2dbcec64a232.html" target="_top" xlink:title="Optimizer">
<polygon fill="#eeeeff" stroke="black" points="75.5,-108 16.5,-108 16.5,-72 75.5,-72 75.5,-108"/>
<text text-anchor="middle" x="46" y="-87.5" font-family="Helvetica,sans-Serif" font-size="10.00">Optimizer</text>
</a>
</g>
</g>
<!-- dir_c2dcae61f19b4264a33bd5ea8aa70853 -->
<g id="node2" class="node"><title>dir_c2dcae61f19b4264a33bd5ea8aa70853</title>
<g id="a_node2"><a xlink:href="dir_c2dcae61f19b4264a33bd5ea8aa70853.html" target="_top" xlink:title="include">
<polygon fill="white" stroke="red" points="73,-36 19,-36 19,-0 73,-0 73,-36"/>
<text text-anchor="middle" x="46" y="-15.5" font-family="Helvetica,sans-Serif" font-size="10.00">include</text>
</a>
</g>
</g>
<!-- dir_95e39c0ef7e31bdbc97b2dbcec64a232&#45;&gt;dir_c2dcae61f19b4264a33bd5ea8aa70853 -->
<g id="edge1" class="edge"><title>dir_95e39c0ef7e31bdbc97b2dbcec64a232&#45;&gt;dir_c2dcae61f19b4264a33bd5ea8aa70853</title>
<path fill="none" stroke="black" d="M46,-71.6966C46,-63.9827 46,-54.7125 46,-46.1124"/>
<polygon fill="black" stroke="black" points="49.5001,-46.1043 46,-36.1043 42.5001,-46.1044 49.5001,-46.1043"/>
<g id="a_edge1&#45;headlabel"><a xlink:href="dir_000016_000002.html" target="_top" xlink:title="14">
<text text-anchor="middle" x="52.3393" y="-47.199" font-family="Helvetica,sans-Serif" font-size="10.00">14</text>
</a>
</g>
</g>
</g>
</svg>
