<?xml version="1.0" encoding="UTF-8" standalone="no"?>
<!DOCTYPE svg PUBLIC "-//W3C//DTD SVG 1.1//EN"
 "http://www.w3.org/Graphics/SVG/1.1/DTD/svg11.dtd">
<!-- Generated by graphviz version 2.38.0 (20140413.2041)
 -->
<!-- Title: /home/yukiosir/workspace/CompilerProject/Software/pinhao/lib/MachineLearning Pages: 1 -->
<svg width="262pt" height="159pt"
 viewBox="0.00 0.00 262.00 159.00" xmlns="http://www.w3.org/2000/svg" xmlns:xlink="http://www.w3.org/1999/xlink">
<g id="graph0" class="graph" transform="scale(1 1) rotate(0) translate(4 155)">
<title>/home/yukiosir/workspace/CompilerProject/Software/pinhao/lib/MachineLearning</title>
<polygon fill="white" stroke="none" points="-4,4 -4,-155 258,-155 258,4 -4,4"/>
<g id="clust1" class="cluster"><title>clusterdir_38aa94f0b69c1504002506a3716b8e53</title>
<g id="a_clust1"><a xlink:href="dir_38aa94f0b69c1504002506a3716b8e53.html" target="_top" xlink:title="lib">
<polygon fill="#ddddee" stroke="black" points="8,-56 8,-143 246,-143 246,-56 8,-56"/>
<text text-anchor="middle" x="127" y="-131" font-family="Helvetica,sans-Serif" font-size="10.00">lib</text>
</a>
</g>
</g>
<g id="clust2" class="cluster"><title>clusterdir_c2c09ff9a6a48aadc7d14faf2f08d6b3</title>
<g id="a_clust2"><a xlink:href="dir_c2c09ff9a6a48aadc7d14faf2f08d6b3.html" target="_top">
<polygon fill="#eeeeff" stroke="black" points="16,-64 16,-116 238,-116 238,-64 16,-64"/>
</a>
</g>
</g>
<!-- dir_c2c09ff9a6a48aadc7d14faf2f08d6b3 -->
<g id="node1" class="node"><title>dir_c2c09ff9a6a48aadc7d14faf2f08d6b3</title>
<text text-anchor="middle" x="185" y="-87.5" font-family="Helvetica,sans-Serif" font-size="10.00">MachineLearning</text>
</g>
<!-- dir_28ff23c606994681cab7fa0746a6b9f3 -->
<g id="node2" class="node"><title>dir_28ff23c606994681cab7fa0746a6b9f3</title>
<g id="a_node2"><a xlink:href="dir_28ff23c606994681cab7fa0746a6b9f3.html" target="_top" xlink:title="GrammarEvolution">
<polygon fill="white" stroke="black" points="122,-108 24,-108 24,-72 122,-72 122,-108"/>
<text text-anchor="middle" x="73" y="-87.5" font-family="Helvetica,sans-Serif" font-size="10.00">GrammarEvolution</text>
</a>
</g>
</g>
<!-- dir_c2dcae61f19b4264a33bd5ea8aa70853 -->
<g id="node3" class="node"><title>dir_c2dcae61f19b4264a33bd5ea8aa70853</title>
<g id="a_node3"><a xlink:href="dir_c2dcae61f19b4264a33bd5ea8aa70853.html" target="_top" xlink:title="include">
<polygon fill="white" stroke="red" points="100,-36 46,-36 46,-0 100,-0 100,-36"/>
<text text-anchor="middle" x="73" y="-15.5" font-family="Helvetica,sans-Serif" font-size="10.00">include</text>
</a>
</g>
</g>
<!-- dir_28ff23c606994681cab7fa0746a6b9f3&#45;&gt;dir_c2dcae61f19b4264a33bd5ea8aa70853 -->
<g id="edge1" class="edge"><title>dir_28ff23c606994681cab7fa0746a6b9f3&#45;&gt;dir_c2dcae61f19b4264a33bd5ea8aa70853</title>
<path fill="none" stroke="black" d="M73,-71.6966C73,-63.9827 73,-54.7125 73,-46.1124"/>
<polygon fill="black" stroke="black" points="76.5001,-46.1043 73,-36.1043 69.5001,-46.1044 76.5001,-46.1043"/>
<g id="a_edge1&#45;headlabel"><a xlink:href="dir_000015_000002.html" target="_top" xlink:title="17">
<text text-anchor="middle" x="79.3393" y="-47.199" font-family="Helvetica,sans-Serif" font-size="10.00">17</text>
</a>
</g>
</g>
</g>
</svg>
