<?xml version="1.0" encoding="UTF-8" standalone="no"?>
<!DOCTYPE svg PUBLIC "-//W3C//DTD SVG 1.1//EN"
 "http://www.w3.org/Graphics/SVG/1.1/DTD/svg11.dtd">
<!-- Generated by graphviz version 2.38.0 (20140413.2041)
 -->
<!-- Title: /home/yukiosir/workspace/CompilerProject/Software/pinhao/tools Pages: 1 -->
<svg width="344pt" height="159pt"
 viewBox="0.00 0.00 344.00 159.00" xmlns="http://www.w3.org/2000/svg" xmlns:xlink="http://www.w3.org/1999/xlink">
<g id="graph0" class="graph" transform="scale(1 1) rotate(0) translate(4 155)">
<title>/home/yukiosir/workspace/CompilerProject/Software/pinhao/tools</title>
<polygon fill="white" stroke="none" points="-4,4 -4,-155 340,-155 340,4 -4,4"/>
<g id="clust1" class="cluster"><title>clusterdir_c66aaba898193cd75848a69fb0834b08</title>
<g id="a_clust1"><a xlink:href="dir_c66aaba898193cd75848a69fb0834b08.html" target="_top" xlink:title="pinhao">
<polygon fill="#ddddee" stroke="black" points="8,-56 8,-143 328,-143 328,-56 8,-56"/>
<text text-anchor="middle" x="168" y="-131" font-family="Helvetica,sans-Serif" font-size="10.00">pinhao</text>
</a>
</g>
</g>
<g id="clust2" class="cluster"><title>clusterdir_06ab285032ddff4de209743e5f69950b</title>
<g id="a_clust2"><a xlink:href="dir_06ab285032ddff4de209743e5f69950b.html" target="_top">
<polygon fill="#eeeeff" stroke="black" points="16,-64 16,-116 320,-116 320,-64 16,-64"/>
</a>
</g>
</g>
<!-- dir_06ab285032ddff4de209743e5f69950b -->
<g id="node1" class="node"><title>dir_06ab285032ddff4de209743e5f69950b</title>
<text text-anchor="middle" x="285" y="-87.5" font-family="Helvetica,sans-Serif" font-size="10.00">tools</text>
</g>
<!-- dir_143d5e15a43a1fd467d166ca017dd5b4 -->
<g id="node2" class="node"><title>dir_143d5e15a43a1fd467d166ca017dd5b4</title>
<g id="a_node2"><a xlink:href="dir_143d5e15a43a1fd467d166ca017dd5b4.html" target="_top" xlink:title="OptLibraries">
<polygon fill="white" stroke="black" points="239.5,-108 170.5,-108 170.5,-72 239.5,-72 239.5,-108"/>
<text text-anchor="middle" x="205" y="-87.5" font-family="Helvetica,sans-Serif" font-size="10.00">OptLibraries</text>
</a>
</g>
</g>
<!-- dir_c2dcae61f19b4264a33bd5ea8aa70853 -->
<g id="node4" class="node"><title>dir_c2dcae61f19b4264a33bd5ea8aa70853</title>
<g id="a_node4"><a xlink:href="dir_c2dcae61f19b4264a33bd5ea8aa70853.html" target="_top" xlink:title="include">
<polygon fill="white" stroke="red" points="173,-36 119,-36 119,-0 173,-0 173,-36"/>
<text text-anchor="middle" x="146" y="-15.5" font-family="Helvetica,sans-Serif" font-size="10.00">include</text>
</a>
</g>
</g>
<!-- dir_143d5e15a43a1fd467d166ca017dd5b4&#45;&gt;dir_c2dcae61f19b4264a33bd5ea8aa70853 -->
<g id="edge2" class="edge"><title>dir_143d5e15a43a1fd467d166ca017dd5b4&#45;&gt;dir_c2dcae61f19b4264a33bd5ea8aa70853</title>
<path fill="none" stroke="black" d="M190.416,-71.6966C183.342,-63.3046 174.717,-53.0705 166.955,-43.8613"/>
<polygon fill="black" stroke="black" points="169.537,-41.495 160.417,-36.1043 164.185,-46.0063 169.537,-41.495"/>
<g id="a_edge2&#45;headlabel"><a xlink:href="dir_000021_000002.html" target="_top" xlink:title="4">
<text text-anchor="middle" x="174.025" y="-39.9137" font-family="Helvetica,sans-Serif" font-size="10.00">4</text>
</a>
</g>
</g>
<!-- dir_78a87b90495deb4120eda8622a5e2806 -->
<g id="node3" class="node"><title>dir_78a87b90495deb4120eda8622a5e2806</title>
<g id="a_node3"><a xlink:href="dir_78a87b90495deb4120eda8622a5e2806.html" target="_top" xlink:title="SimpleGrammarEvolution">
<polygon fill="white" stroke="black" points="152,-108 24,-108 24,-72 152,-72 152,-108"/>
<text text-anchor="middle" x="88" y="-87.5" font-family="Helvetica,sans-Serif" font-size="10.00">SimpleGrammarEvolution</text>
</a>
</g>
</g>
<!-- dir_78a87b90495deb4120eda8622a5e2806&#45;&gt;dir_c2dcae61f19b4264a33bd5ea8aa70853 -->
<g id="edge1" class="edge"><title>dir_78a87b90495deb4120eda8622a5e2806&#45;&gt;dir_c2dcae61f19b4264a33bd5ea8aa70853</title>
<path fill="none" stroke="black" d="M102.337,-71.6966C109.291,-63.3046 117.77,-53.0705 125.401,-43.8613"/>
<polygon fill="black" stroke="black" points="128.143,-46.0376 131.828,-36.1043 122.753,-41.5715 128.143,-46.0376"/>
<g id="a_edge1&#45;headlabel"><a xlink:href="dir_000022_000002.html" target="_top" xlink:title="4">
<text text-anchor="middle" x="128.036" y="-48.1171" font-family="Helvetica,sans-Serif" font-size="10.00">4</text>
</a>
</g>
</g>
</g>
</svg>
