<?xml version="1.0" encoding="UTF-8" standalone="no"?>
<!DOCTYPE svg PUBLIC "-//W3C//DTD SVG 1.1//EN"
 "http://www.w3.org/Graphics/SVG/1.1/DTD/svg11.dtd">
<!-- Generated by graphviz version 2.38.0 (20140413.2041)
 -->
<!-- Title: /home/yukiosir/workspace/CompilerProject/Software/pinhao/include/pinhao/MachineLearning Pages: 1 -->
<svg width="317pt" height="195pt"
 viewBox="0.00 0.00 316.50 195.00" xmlns="http://www.w3.org/2000/svg" xmlns:xlink="http://www.w3.org/1999/xlink">
<g id="graph0" class="graph" transform="scale(1 1) rotate(0) translate(4 191)">
<title>/home/yukiosir/workspace/CompilerProject/Software/pinhao/include/pinhao/MachineLearning</title>
<polygon fill="white" stroke="none" points="-4,4 -4,-191 312.5,-191 312.5,4 -4,4"/>
<g id="clust1" class="cluster"><title>clusterdir_4e520cd54e0a57cca3ded6761052085a</title>
<g id="a_clust1"><a xlink:href="dir_4e520cd54e0a57cca3ded6761052085a.html" target="_top" xlink:title="pinhao">
<polygon fill="#ddddee" stroke="black" points="8,-56 8,-143 246,-143 246,-56 8,-56"/>
<text text-anchor="middle" x="127" y="-131" font-family="Helvetica,sans-Serif" font-size="10.00">pinhao</text>
</a>
</g>
</g>
<g id="clust2" class="cluster"><title>clusterdir_354bd357b842371bef13c970f77efe20</title>
<g id="a_clust2"><a xlink:href="dir_354bd357b842371bef13c970f77efe20.html" target="_top">
<polygon fill="#eeeeff" stroke="black" points="16,-64 16,-116 238,-116 238,-64 16,-64"/>
</a>
</g>
</g>
<!-- dir_354bd357b842371bef13c970f77efe20 -->
<g id="node1" class="node"><title>dir_354bd357b842371bef13c970f77efe20</title>
<text text-anchor="middle" x="185" y="-87.5" font-family="Helvetica,sans-Serif" font-size="10.00">MachineLearning</text>
</g>
<!-- dir_6600b7943bda90bc66d357cd858ab5d0 -->
<g id="node2" class="node"><title>dir_6600b7943bda90bc66d357cd858ab5d0</title>
<g id="a_node2"><a xlink:href="dir_6600b7943bda90bc66d357cd858ab5d0.html" target="_top" xlink:title="GrammarEvolution">
<polygon fill="white" stroke="black" points="122,-108 24,-108 24,-72 122,-72 122,-108"/>
<text text-anchor="middle" x="73" y="-87.5" font-family="Helvetica,sans-Serif" font-size="10.00">GrammarEvolution</text>
</a>
</g>
</g>
<!-- dir_0fccb6c9d3322ac7c2e3c005f3c88aab -->
<g id="node3" class="node"><title>dir_0fccb6c9d3322ac7c2e3c005f3c88aab</title>
<g id="a_node3"><a xlink:href="dir_0fccb6c9d3322ac7c2e3c005f3c88aab.html" target="_top" xlink:title="Support">
<polygon fill="none" stroke="black" points="308,-108 254,-108 254,-72 308,-72 308,-108"/>
<text text-anchor="middle" x="281" y="-87.5" font-family="Helvetica,sans-Serif" font-size="10.00">Support</text>
</a>
</g>
</g>
<!-- dir_6600b7943bda90bc66d357cd858ab5d0&#45;&gt;dir_0fccb6c9d3322ac7c2e3c005f3c88aab -->
<g id="edge6" class="edge"><title>dir_6600b7943bda90bc66d357cd858ab5d0&#45;&gt;dir_0fccb6c9d3322ac7c2e3c005f3c88aab</title>
<path fill="none" stroke="black" d="M85.9456,-108.192C97.93,-122.99 117.292,-142.181 140,-147 160.216,-151.29 212.784,-151.29 233,-147 237.282,-146.091 238.589,-145.743 242,-143 251.04,-135.73 259.045,-125.888 265.413,-116.659"/>
<polygon fill="black" stroke="black" points="268.463,-118.389 270.998,-108.101 262.601,-114.563 268.463,-118.389"/>
<g id="a_edge6&#45;headlabel"><a xlink:href="dir_000006_000009.html" target="_top" xlink:title="6">
<text text-anchor="middle" x="268.876" y="-120.451" font-family="Helvetica,sans-Serif" font-size="10.00">6</text>
</a>
</g>
</g>
<!-- dir_7eaf8a4f0ed4880e049e5a886aca1269 -->
<g id="node4" class="node"><title>dir_7eaf8a4f0ed4880e049e5a886aca1269</title>
<g id="a_node4"><a xlink:href="dir_7eaf8a4f0ed4880e049e5a886aca1269.html" target="_top" xlink:title="Optimizer">
<polygon fill="none" stroke="black" points="206.5,-187 147.5,-187 147.5,-151 206.5,-151 206.5,-187"/>
<text text-anchor="middle" x="177" y="-166.5" font-family="Helvetica,sans-Serif" font-size="10.00">Optimizer</text>
</a>
</g>
</g>
<!-- dir_6600b7943bda90bc66d357cd858ab5d0&#45;&gt;dir_7eaf8a4f0ed4880e049e5a886aca1269 -->
<g id="edge7" class="edge"><title>dir_6600b7943bda90bc66d357cd858ab5d0&#45;&gt;dir_7eaf8a4f0ed4880e049e5a886aca1269</title>
<path fill="none" stroke="black" d="M89.8731,-108.056C100.995,-118.796 116.192,-132.554 131,-143 133.367,-144.67 135.858,-146.312 138.406,-147.906"/>
<polygon fill="black" stroke="black" points="136.799,-151.023 147.184,-153.119 140.373,-145.004 136.799,-151.023"/>
<g id="a_edge7&#45;headlabel"><a xlink:href="dir_000006_000007.html" target="_top" xlink:title="1">
<text text-anchor="middle" x="132.258" y="-149.129" font-family="Helvetica,sans-Serif" font-size="10.00">1</text>
</a>
</g>
</g>
<!-- dir_bbc824b1dac0c62b36bc6e26d702e5e3 -->
<g id="node5" class="node"><title>dir_bbc824b1dac0c62b36bc6e26d702e5e3</title>
<g id="a_node5"><a xlink:href="dir_bbc824b1dac0c62b36bc6e26d702e5e3.html" target="_top" xlink:title="Features">
<polygon fill="none" stroke="black" points="308.5,-36 253.5,-36 253.5,-0 308.5,-0 308.5,-36"/>
<text text-anchor="middle" x="281" y="-15.5" font-family="Helvetica,sans-Serif" font-size="10.00">Features</text>
</a>
</g>
</g>
<!-- dir_6600b7943bda90bc66d357cd858ab5d0&#45;&gt;dir_bbc824b1dac0c62b36bc6e26d702e5e3 -->
<g id="edge8" class="edge"><title>dir_6600b7943bda90bc66d357cd858ab5d0&#45;&gt;dir_bbc824b1dac0c62b36bc6e26d702e5e3</title>
<path fill="none" stroke="black" d="M99.3763,-71.9542C109.035,-66.2669 120.239,-60.2925 131,-56 168.044,-41.223 212.659,-31.1295 243.554,-25.264"/>
<polygon fill="black" stroke="black" points="244.274,-28.6903 253.474,-23.4362 243.006,-21.8061 244.274,-28.6903"/>
<g id="a_edge8&#45;headlabel"><a xlink:href="dir_000006_000004.html" target="_top" xlink:title="1">
<text text-anchor="middle" x="241.253" y="-29.6338" font-family="Helvetica,sans-Serif" font-size="10.00">1</text>
</a>
</g>
</g>
<!-- dir_0fccb6c9d3322ac7c2e3c005f3c88aab&#45;&gt;dir_354bd357b842371bef13c970f77efe20 -->
<g id="edge1" class="edge"><title>dir_0fccb6c9d3322ac7c2e3c005f3c88aab&#45;&gt;dir_354bd357b842371bef13c970f77efe20</title>
<path fill="none" stroke="black" d="M253.71,-90C249.335,-90 244.959,-90 240.584,-90"/>
<polygon fill="black" stroke="black" points="240.375,-86.5001 230.375,-90 240.375,-93.5001 240.375,-86.5001"/>
<g id="a_edge1&#45;headlabel"><a xlink:href="dir_000009_000005.html" target="_top" xlink:title="1">
<text text-anchor="middle" x="243.97" y="-81.1607" font-family="Helvetica,sans-Serif" font-size="10.00">1</text>
</a>
</g>
</g>
<!-- dir_0fccb6c9d3322ac7c2e3c005f3c88aab&#45;&gt;dir_6600b7943bda90bc66d357cd858ab5d0 -->
<g id="edge3" class="edge"><title>dir_0fccb6c9d3322ac7c2e3c005f3c88aab&#45;&gt;dir_6600b7943bda90bc66d357cd858ab5d0</title>
<path fill="none" stroke="black" d="M270.998,-108.101C264.055,-119.335 253.929,-133.406 242,-143 238.589,-145.743 237.282,-146.091 233,-147 212.784,-151.29 160.216,-151.29 140,-147 121.195,-143.009 104.685,-129.162 92.7585,-116.116"/>
<polygon fill="black" stroke="black" points="95.119,-113.493 85.9456,-108.192 89.8111,-118.057 95.119,-113.493"/>
<g id="a_edge3&#45;headlabel"><a xlink:href="dir_000009_000006.html" target="_top" xlink:title="1">
<text text-anchor="middle" x="99.6154" y="-111.868" font-family="Helvetica,sans-Serif" font-size="10.00">1</text>
</a>
</g>
</g>
<!-- dir_0fccb6c9d3322ac7c2e3c005f3c88aab&#45;&gt;dir_bbc824b1dac0c62b36bc6e26d702e5e3 -->
<g id="edge2" class="edge"><title>dir_0fccb6c9d3322ac7c2e3c005f3c88aab&#45;&gt;dir_bbc824b1dac0c62b36bc6e26d702e5e3</title>
<path fill="none" stroke="black" d="M275.084,-71.6966C274.289,-63.9827 274.062,-54.7125 274.405,-46.1124"/>
<polygon fill="black" stroke="black" points="277.898,-46.3243 275.105,-36.1043 270.915,-45.8356 277.898,-46.3243"/>
<g id="a_edge2&#45;headlabel"><a xlink:href="dir_000009_000004.html" target="_top" xlink:title="4">
<text text-anchor="middle" x="280.48" y="-47.6083" font-family="Helvetica,sans-Serif" font-size="10.00">4</text>
</a>
</g>
</g>
<!-- dir_7eaf8a4f0ed4880e049e5a886aca1269&#45;&gt;dir_0fccb6c9d3322ac7c2e3c005f3c88aab -->
<g id="edge4" class="edge"><title>dir_7eaf8a4f0ed4880e049e5a886aca1269&#45;&gt;dir_0fccb6c9d3322ac7c2e3c005f3c88aab</title>
<path fill="none" stroke="black" d="M206.61,-160.489C218.387,-156.553 231.583,-150.874 242,-143 251.278,-135.987 259.407,-126.193 265.808,-116.993"/>
<polygon fill="black" stroke="black" points="268.842,-118.748 271.396,-108.466 262.988,-114.911 268.842,-118.748"/>
<g id="a_edge4&#45;headlabel"><a xlink:href="dir_000007_000009.html" target="_top" xlink:title="2">
<text text-anchor="middle" x="269.247" y="-120.811" font-family="Helvetica,sans-Serif" font-size="10.00">2</text>
</a>
</g>
</g>
<!-- dir_bbc824b1dac0c62b36bc6e26d702e5e3&#45;&gt;dir_0fccb6c9d3322ac7c2e3c005f3c88aab -->
<g id="edge5" class="edge"><title>dir_bbc824b1dac0c62b36bc6e26d702e5e3&#45;&gt;dir_0fccb6c9d3322ac7c2e3c005f3c88aab</title>
<path fill="none" stroke="black" d="M286.895,-36.1043C287.701,-43.7913 287.937,-53.0537 287.604,-61.6651"/>
<polygon fill="black" stroke="black" points="284.109,-61.4805 286.916,-71.6966 291.092,-61.9597 284.109,-61.4805"/>
<g id="a_edge5&#45;headlabel"><a xlink:href="dir_000004_000009.html" target="_top" xlink:title="6">
<text text-anchor="middle" x="281.522" y="-55.2" font-family="Helvetica,sans-Serif" font-size="10.00">6</text>
</a>
</g>
</g>
</g>
</svg>
