<?xml version="1.0" encoding="UTF-8" standalone="no"?>
<!DOCTYPE svg PUBLIC "-//W3C//DTD SVG 1.1//EN"
 "http://www.w3.org/Graphics/SVG/1.1/DTD/svg11.dtd">
<!-- Generated by graphviz version 2.38.0 (20140413.2041)
 -->
<!-- Title: /home/yukiosir/workspace/CompilerProject/Software/pinhao/include/pinhao/MachineLearning/GrammarEvolution Pages: 1 -->
<svg width="200pt" height="223pt"
 viewBox="0.00 0.00 199.50 223.00" xmlns="http://www.w3.org/2000/svg" xmlns:xlink="http://www.w3.org/1999/xlink">
<g id="graph0" class="graph" transform="scale(1 1) rotate(0) translate(4 219)">
<title>/home/yukiosir/workspace/CompilerProject/Software/pinhao/include/pinhao/MachineLearning/GrammarEvolution</title>
<polygon fill="white" stroke="none" points="-4,4 -4,-219 195.5,-219 195.5,4 -4,4"/>
<g id="clust1" class="cluster"><title>clusterdir_354bd357b842371bef13c970f77efe20</title>
<g id="a_clust1"><a xlink:href="dir_354bd357b842371bef13c970f77efe20.html" target="_top" xlink:title="MachineLearning">
<polygon fill="#ddddee" stroke="black" points="69.5,-136 69.5,-207 183.5,-207 183.5,-136 69.5,-136"/>
<text text-anchor="middle" x="126.5" y="-195" font-family="Helvetica,sans-Serif" font-size="10.00">MachineLearning</text>
</a>
</g>
</g>
<!-- dir_6600b7943bda90bc66d357cd858ab5d0 -->
<g id="node1" class="node"><title>dir_6600b7943bda90bc66d357cd858ab5d0</title>
<g id="a_node1"><a xlink:href="dir_6600b7943bda90bc66d357cd858ab5d0.html" target="_top" xlink:title="GrammarEvolution">
<polygon fill="#eeeeff" stroke="black" points="175.5,-180 77.5,-180 77.5,-144 175.5,-144 175.5,-180"/>
<text text-anchor="middle" x="126.5" y="-159.5" font-family="Helvetica,sans-Serif" font-size="10.00">GrammarEvolution</text>
</a>
</g>
</g>
<!-- dir_0fccb6c9d3322ac7c2e3c005f3c88aab -->
<g id="node2" class="node"><title>dir_0fccb6c9d3322ac7c2e3c005f3c88aab</title>
<g id="a_node2"><a xlink:href="dir_0fccb6c9d3322ac7c2e3c005f3c88aab.html" target="_top" xlink:title="Support">
<polygon fill="none" stroke="black" points="98.5,-108 44.5,-108 44.5,-72 98.5,-72 98.5,-108"/>
<text text-anchor="middle" x="71.5" y="-87.5" font-family="Helvetica,sans-Serif" font-size="10.00">Support</text>
</a>
</g>
</g>
<!-- dir_6600b7943bda90bc66d357cd858ab5d0&#45;&gt;dir_0fccb6c9d3322ac7c2e3c005f3c88aab -->
<g id="edge5" class="edge"><title>dir_6600b7943bda90bc66d357cd858ab5d0&#45;&gt;dir_0fccb6c9d3322ac7c2e3c005f3c88aab</title>
<path fill="none" stroke="black" d="M106.989,-143.697C99.6801,-135.474 91.6286,-125.483 84.9533,-116.421"/>
<polygon fill="black" stroke="black" points="87.6895,-114.229 79.0441,-108.104 81.9833,-118.283 87.6895,-114.229"/>
<g id="a_edge5&#45;headlabel"><a xlink:href="dir_000006_000009.html" target="_top" xlink:title="6">
<text text-anchor="middle" x="92.086" y="-113.014" font-family="Helvetica,sans-Serif" font-size="10.00">6</text>
</a>
</g>
</g>
<!-- dir_7eaf8a4f0ed4880e049e5a886aca1269 -->
<g id="node3" class="node"><title>dir_7eaf8a4f0ed4880e049e5a886aca1269</title>
<g id="a_node3"><a xlink:href="dir_7eaf8a4f0ed4880e049e5a886aca1269.html" target="_top" xlink:title="Optimizer">
<polygon fill="none" stroke="black" points="59,-180 0,-180 0,-144 59,-144 59,-180"/>
<text text-anchor="middle" x="29.5" y="-159.5" font-family="Helvetica,sans-Serif" font-size="10.00">Optimizer</text>
</a>
</g>
</g>
<!-- dir_6600b7943bda90bc66d357cd858ab5d0&#45;&gt;dir_7eaf8a4f0ed4880e049e5a886aca1269 -->
<g id="edge6" class="edge"><title>dir_6600b7943bda90bc66d357cd858ab5d0&#45;&gt;dir_7eaf8a4f0ed4880e049e5a886aca1269</title>
<path fill="none" stroke="black" d="M77.4968,-162C74.7112,-162 71.9257,-162 69.1402,-162"/>
<polygon fill="black" stroke="black" points="69.0547,-158.5 59.0547,-162 69.0547,-165.5 69.0547,-158.5"/>
<g id="a_edge6&#45;headlabel"><a xlink:href="dir_000006_000007.html" target="_top" xlink:title="1">
<text text-anchor="middle" x="72.6493" y="-153.161" font-family="Helvetica,sans-Serif" font-size="10.00">1</text>
</a>
</g>
</g>
<!-- dir_bbc824b1dac0c62b36bc6e26d702e5e3 -->
<g id="node4" class="node"><title>dir_bbc824b1dac0c62b36bc6e26d702e5e3</title>
<g id="a_node4"><a xlink:href="dir_bbc824b1dac0c62b36bc6e26d702e5e3.html" target="_top" xlink:title="Features">
<polygon fill="none" stroke="black" points="99,-36 44,-36 44,-0 99,-0 99,-36"/>
<text text-anchor="middle" x="71.5" y="-15.5" font-family="Helvetica,sans-Serif" font-size="10.00">Features</text>
</a>
</g>
</g>
<!-- dir_6600b7943bda90bc66d357cd858ab5d0&#45;&gt;dir_bbc824b1dac0c62b36bc6e26d702e5e3 -->
<g id="edge7" class="edge"><title>dir_6600b7943bda90bc66d357cd858ab5d0&#45;&gt;dir_bbc824b1dac0c62b36bc6e26d702e5e3</title>
<path fill="none" stroke="black" d="M124.803,-143.674C122.55,-125.29 117.612,-95.6852 107.5,-72 103.416,-62.4333 97.5116,-52.7836 91.6621,-44.3881"/>
<polygon fill="black" stroke="black" points="94.3797,-42.1741 85.6647,-36.1492 88.7203,-46.2938 94.3797,-42.1741"/>
<g id="a_edge7&#45;headlabel"><a xlink:href="dir_000006_000004.html" target="_top" xlink:title="1">
<text text-anchor="middle" x="98.7906" y="-40.9093" font-family="Helvetica,sans-Serif" font-size="10.00">1</text>
</a>
</g>
</g>
<!-- dir_0fccb6c9d3322ac7c2e3c005f3c88aab&#45;&gt;dir_6600b7943bda90bc66d357cd858ab5d0 -->
<g id="edge2" class="edge"><title>dir_0fccb6c9d3322ac7c2e3c005f3c88aab&#45;&gt;dir_6600b7943bda90bc66d357cd858ab5d0</title>
<path fill="none" stroke="black" d="M90.8342,-108.104C98.1307,-116.298 106.187,-126.282 112.885,-135.359"/>
<polygon fill="black" stroke="black" points="110.169,-137.58 118.82,-143.697 115.872,-133.52 110.169,-137.58"/>
<g id="a_edge2&#45;headlabel"><a xlink:href="dir_000009_000006.html" target="_top" xlink:title="1">
<text text-anchor="middle" x="105.771" y="-133.799" font-family="Helvetica,sans-Serif" font-size="10.00">1</text>
</a>
</g>
</g>
<!-- dir_0fccb6c9d3322ac7c2e3c005f3c88aab&#45;&gt;dir_bbc824b1dac0c62b36bc6e26d702e5e3 -->
<g id="edge1" class="edge"><title>dir_0fccb6c9d3322ac7c2e3c005f3c88aab&#45;&gt;dir_bbc824b1dac0c62b36bc6e26d702e5e3</title>
<path fill="none" stroke="black" d="M65.5843,-71.6966C64.7886,-63.9827 64.5621,-54.7125 64.9047,-46.1124"/>
<polygon fill="black" stroke="black" points="68.3984,-46.3243 65.605,-36.1043 61.4154,-45.8356 68.3984,-46.3243"/>
<g id="a_edge1&#45;headlabel"><a xlink:href="dir_000009_000004.html" target="_top" xlink:title="4">
<text text-anchor="middle" x="70.9799" y="-47.6083" font-family="Helvetica,sans-Serif" font-size="10.00">4</text>
</a>
</g>
</g>
<!-- dir_7eaf8a4f0ed4880e049e5a886aca1269&#45;&gt;dir_0fccb6c9d3322ac7c2e3c005f3c88aab -->
<g id="edge3" class="edge"><title>dir_7eaf8a4f0ed4880e049e5a886aca1269&#45;&gt;dir_0fccb6c9d3322ac7c2e3c005f3c88aab</title>
<path fill="none" stroke="black" d="M39.882,-143.697C44.7647,-135.559 50.6866,-125.689 56.0792,-116.701"/>
<polygon fill="black" stroke="black" points="59.0936,-118.48 61.2374,-108.104 53.0912,-114.879 59.0936,-118.48"/>
<g id="a_edge3&#45;headlabel"><a xlink:href="dir_000007_000009.html" target="_top" xlink:title="2">
<text text-anchor="middle" x="59.6789" y="-120.523" font-family="Helvetica,sans-Serif" font-size="10.00">2</text>
</a>
</g>
</g>
<!-- dir_bbc824b1dac0c62b36bc6e26d702e5e3&#45;&gt;dir_0fccb6c9d3322ac7c2e3c005f3c88aab -->
<g id="edge4" class="edge"><title>dir_bbc824b1dac0c62b36bc6e26d702e5e3&#45;&gt;dir_0fccb6c9d3322ac7c2e3c005f3c88aab</title>
<path fill="none" stroke="black" d="M77.395,-36.1043C78.2005,-43.7913 78.4369,-53.0537 78.104,-61.6651"/>
<polygon fill="black" stroke="black" points="74.6085,-61.4805 77.4157,-71.6966 81.5921,-61.9597 74.6085,-61.4805"/>
<g id="a_edge4&#45;headlabel"><a xlink:href="dir_000004_000009.html" target="_top" xlink:title="6">
<text text-anchor="middle" x="72.0219" y="-55.2" font-family="Helvetica,sans-Serif" font-size="10.00">6</text>
</a>
</g>
</g>
</g>
</svg>
