<?xml version="1.0" encoding="UTF-8" standalone="no"?>
<!DOCTYPE svg PUBLIC "-//W3C//DTD SVG 1.1//EN"
 "http://www.w3.org/Graphics/SVG/1.1/DTD/svg11.dtd">
<!-- Generated by graphviz version 2.38.0 (20140413.2041)
 -->
<!-- Title: /home/yukiosir/workspace/CompilerProject/Software/pinhao/tools/SimpleGrammarEvolution Pages: 1 -->
<svg width="168pt" height="151pt"
 viewBox="0.00 0.00 168.00 151.00" xmlns="http://www.w3.org/2000/svg" xmlns:xlink="http://www.w3.org/1999/xlink">
<g id="graph0" class="graph" transform="scale(1 1) rotate(0) translate(4 147)">
<title>/home/yukiosir/workspace/CompilerProject/Software/pinhao/tools/SimpleGrammarEvolution</title>
<polygon fill="white" stroke="none" points="-4,4 -4,-147 164,-147 164,4 -4,4"/>
<g id="clust1" class="cluster"><title>clusterdir_06ab285032ddff4de209743e5f69950b</title>
<g id="a_clust1"><a xlink:href="dir_06ab285032ddff4de209743e5f69950b.html" target="_top" xlink:title="tools">
<polygon fill="#ddddee" stroke="black" points="8,-64 8,-135 152,-135 152,-64 8,-64"/>
<text text-anchor="middle" x="80" y="-123" font-family="Helvetica,sans-Serif" font-size="10.00">tools</text>
</a>
</g>
</g>
<!-- dir_78a87b90495deb4120eda8622a5e2806 -->
<g id="node1" class="node"><title>dir_78a87b90495deb4120eda8622a5e2806</title>
<g id="a_node1"><a xlink:href="dir_78a87b90495deb4120eda8622a5e2806.html" target="_top" xlink:title="SimpleGrammarEvolution">
<polygon fill="#eeeeff" stroke="black" points="144,-108 16,-108 16,-72 144,-72 144,-108"/>
<text text-anchor="middle" x="80" y="-87.5" font-family="Helvetica,sans-Serif" font-size="10.00">SimpleGrammarEvolution</text>
</a>
</g>
</g>
<!-- dir_c2dcae61f19b4264a33bd5ea8aa70853 -->
<g id="node2" class="node"><title>dir_c2dcae61f19b4264a33bd5ea8aa70853</title>
<g id="a_node2"><a xlink:href="dir_c2dcae61f19b4264a33bd5ea8aa70853.html" target="_top" xlink:title="include">
<polygon fill="white" stroke="red" points="107,-36 53,-36 53,-0 107,-0 107,-36"/>
<text text-anchor="middle" x="80" y="-15.5" font-family="Helvetica,sans-Serif" font-size="10.00">include</text>
</a>
</g>
</g>
<!-- dir_78a87b90495deb4120eda8622a5e2806&#45;&gt;dir_c2dcae61f19b4264a33bd5ea8aa70853 -->
<g id="edge1" class="edge"><title>dir_78a87b90495deb4120eda8622a5e2806&#45;&gt;dir_c2dcae61f19b4264a33bd5ea8aa70853</title>
<path fill="none" stroke="black" d="M80,-71.6966C80,-63.9827 80,-54.7125 80,-46.1124"/>
<polygon fill="black" stroke="black" points="83.5001,-46.1043 80,-36.1043 76.5001,-46.1044 83.5001,-46.1043"/>
<g id="a_edge1&#45;headlabel"><a xlink:href="dir_000022_000002.html" target="_top" xlink:title="4">
<text text-anchor="middle" x="86.3393" y="-47.199" font-family="Helvetica,sans-Serif" font-size="10.00">4</text>
</a>
</g>
</g>
</g>
</svg>
