<?xml version="1.0" encoding="UTF-8" standalone="no"?>
<!DOCTYPE svg PUBLIC "-//W3C//DTD SVG 1.1//EN"
 "http://www.w3.org/Graphics/SVG/1.1/DTD/svg11.dtd">
<!-- Generated by graphviz version 2.38.0 (20140413.2041)
 -->
<!-- Title: /home/yukiosir/workspace/CompilerProject/Software/pinhao Pages: 1 -->
<svg width="254pt" height="183pt"
 viewBox="0.00 0.00 254.00 183.00" xmlns="http://www.w3.org/2000/svg" xmlns:xlink="http://www.w3.org/1999/xlink">
<g id="graph0" class="graph" transform="scale(1 1) rotate(0) translate(4 179)">
<title>/home/yukiosir/workspace/CompilerProject/Software/pinhao</title>
<polygon fill="white" stroke="none" points="-4,4 -4,-179 250,-179 250,4 -4,4"/>
<g id="clust1" class="cluster"><title>clusterdir_4e9c05acfa2c3671b8618fcb95d57d96</title>
<g id="a_clust1"><a xlink:href="dir_4e9c05acfa2c3671b8618fcb95d57d96.html" target="_top" xlink:title="Software">
<polygon fill="#ddddee" stroke="black" points="8,-8 8,-167 238,-167 238,-8 8,-8"/>
<text text-anchor="middle" x="123" y="-155" font-family="Helvetica,sans-Serif" font-size="10.00">Software</text>
</a>
</g>
</g>
<g id="clust2" class="cluster"><title>clusterdir_c66aaba898193cd75848a69fb0834b08</title>
<g id="a_clust2"><a xlink:href="dir_c66aaba898193cd75848a69fb0834b08.html" target="_top">
<polygon fill="#eeeeff" stroke="black" points="16,-16 16,-140 230,-140 230,-16 16,-16"/>
</a>
</g>
</g>
<!-- dir_c66aaba898193cd75848a69fb0834b08 -->
<g id="node1" class="node"><title>dir_c66aaba898193cd75848a69fb0834b08</title>
<text text-anchor="middle" x="195" y="-111.5" font-family="Helvetica,sans-Serif" font-size="10.00">pinhao</text>
</g>
<!-- dir_c2dcae61f19b4264a33bd5ea8aa70853 -->
<g id="node2" class="node"><title>dir_c2dcae61f19b4264a33bd5ea8aa70853</title>
<g id="a_node2"><a xlink:href="dir_c2dcae61f19b4264a33bd5ea8aa70853.html" target="_top" xlink:title="include">
<polygon fill="white" stroke="red" points="114,-60 60,-60 60,-24 114,-24 114,-60"/>
<text text-anchor="middle" x="87" y="-39.5" font-family="Helvetica,sans-Serif" font-size="10.00">include</text>
</a>
</g>
</g>
<!-- dir_38aa94f0b69c1504002506a3716b8e53 -->
<g id="node3" class="node"><title>dir_38aa94f0b69c1504002506a3716b8e53</title>
<g id="a_node3"><a xlink:href="dir_38aa94f0b69c1504002506a3716b8e53.html" target="_top" xlink:title="lib">
<polygon fill="white" stroke="red" points="150,-132 96,-132 96,-96 150,-96 150,-132"/>
<text text-anchor="middle" x="123" y="-111.5" font-family="Helvetica,sans-Serif" font-size="10.00">lib</text>
</a>
</g>
</g>
<!-- dir_38aa94f0b69c1504002506a3716b8e53&#45;&gt;dir_c2dcae61f19b4264a33bd5ea8aa70853 -->
<g id="edge2" class="edge"><title>dir_38aa94f0b69c1504002506a3716b8e53&#45;&gt;dir_c2dcae61f19b4264a33bd5ea8aa70853</title>
<path fill="none" stroke="black" d="M114.101,-95.6966C110.003,-87.7284 105.051,-78.0995 100.507,-69.2641"/>
<polygon fill="black" stroke="black" points="103.483,-67.3965 95.7965,-60.1043 97.2575,-70.598 103.483,-67.3965"/>
<g id="a_edge2&#45;headlabel"><a xlink:href="dir_000010_000002.html" target="_top" xlink:title="83">
<text text-anchor="middle" x="107.651" y="-66.7946" font-family="Helvetica,sans-Serif" font-size="10.00">83</text>
</a>
</g>
</g>
<!-- dir_06ab285032ddff4de209743e5f69950b -->
<g id="node4" class="node"><title>dir_06ab285032ddff4de209743e5f69950b</title>
<g id="a_node4"><a xlink:href="dir_06ab285032ddff4de209743e5f69950b.html" target="_top" xlink:title="tools">
<polygon fill="white" stroke="red" points="78,-132 24,-132 24,-96 78,-96 78,-132"/>
<text text-anchor="middle" x="51" y="-111.5" font-family="Helvetica,sans-Serif" font-size="10.00">tools</text>
</a>
</g>
</g>
<!-- dir_06ab285032ddff4de209743e5f69950b&#45;&gt;dir_c2dcae61f19b4264a33bd5ea8aa70853 -->
<g id="edge1" class="edge"><title>dir_06ab285032ddff4de209743e5f69950b&#45;&gt;dir_c2dcae61f19b4264a33bd5ea8aa70853</title>
<path fill="none" stroke="black" d="M59.8989,-95.6966C63.9968,-87.7284 68.9488,-78.0995 73.4927,-69.2641"/>
<polygon fill="black" stroke="black" points="76.7425,-70.598 78.2035,-60.1043 70.5174,-67.3965 76.7425,-70.598"/>
<g id="a_edge1&#45;headlabel"><a xlink:href="dir_000020_000002.html" target="_top" xlink:title="8">
<text text-anchor="middle" x="77.6235" y="-72.5931" font-family="Helvetica,sans-Serif" font-size="10.00">8</text>
</a>
</g>
</g>
</g>
</svg>
