<?xml version="1.0" encoding="UTF-8" standalone="no"?>
<!DOCTYPE svg PUBLIC "-//W3C//DTD SVG 1.1//EN"
 "http://www.w3.org/Graphics/SVG/1.1/DTD/svg11.dtd">
<!-- Generated by graphviz version 2.38.0 (20140413.2041)
 -->
<!-- Title: /home/yukiosir/workspace/CompilerProject/Software/pinhao/include/pinhao/MachineLearning/GrammarEvolution Pages: 1 -->
<svg width="195pt" height="151pt"
 viewBox="0.00 0.00 194.50 151.00" xmlns="http://www.w3.org/2000/svg" xmlns:xlink="http://www.w3.org/1999/xlink">
<g id="graph0" class="graph" transform="scale(1 1) rotate(0) translate(4 147)">
<title>/home/yukiosir/workspace/CompilerProject/Software/pinhao/include/pinhao/MachineLearning/GrammarEvolution</title>
<polygon fill="white" stroke="none" points="-4,4 -4,-147 190.5,-147 190.5,4 -4,4"/>
<g id="clust1" class="cluster"><title>clusterdir_354bd357b842371bef13c970f77efe20</title>
<g id="a_clust1"><a xlink:href="dir_354bd357b842371bef13c970f77efe20.html" target="_top" xlink:title="MachineLearning">
<polygon fill="#ddddee" stroke="black" points="8,-64 8,-135 122,-135 122,-64 8,-64"/>
<text text-anchor="middle" x="65" y="-123" font-family="Helvetica,sans-Serif" font-size="10.00">MachineLearning</text>
</a>
</g>
</g>
<!-- dir_6600b7943bda90bc66d357cd858ab5d0 -->
<g id="node1" class="node"><title>dir_6600b7943bda90bc66d357cd858ab5d0</title>
<g id="a_node1"><a xlink:href="dir_6600b7943bda90bc66d357cd858ab5d0.html" target="_top" xlink:title="GrammarEvolution">
<polygon fill="#eeeeff" stroke="black" points="114,-108 16,-108 16,-72 114,-72 114,-108"/>
<text text-anchor="middle" x="65" y="-87.5" font-family="Helvetica,sans-Serif" font-size="10.00">GrammarEvolution</text>
</a>
</g>
</g>
<!-- dir_0fccb6c9d3322ac7c2e3c005f3c88aab -->
<g id="node2" class="node"><title>dir_0fccb6c9d3322ac7c2e3c005f3c88aab</title>
<g id="a_node2"><a xlink:href="dir_0fccb6c9d3322ac7c2e3c005f3c88aab.html" target="_top" xlink:title="Support">
<polygon fill="none" stroke="black" points="186,-108 132,-108 132,-72 186,-72 186,-108"/>
<text text-anchor="middle" x="159" y="-87.5" font-family="Helvetica,sans-Serif" font-size="10.00">Support</text>
</a>
</g>
</g>
<!-- dir_6600b7943bda90bc66d357cd858ab5d0&#45;&gt;dir_0fccb6c9d3322ac7c2e3c005f3c88aab -->
<g id="edge4" class="edge"><title>dir_6600b7943bda90bc66d357cd858ab5d0&#45;&gt;dir_0fccb6c9d3322ac7c2e3c005f3c88aab</title>
<path fill="none" stroke="black" d="M114.203,-90C116.664,-90 119.125,-90 121.585,-90"/>
<polygon fill="black" stroke="black" points="121.702,-93.5001 131.702,-90 121.702,-86.5001 121.702,-93.5001"/>
<g id="a_edge4&#45;headlabel"><a xlink:href="dir_000006_000009.html" target="_top" xlink:title="2">
<text text-anchor="middle" x="118.107" y="-93.8393" font-family="Helvetica,sans-Serif" font-size="10.00">2</text>
</a>
</g>
</g>
<!-- dir_bbc824b1dac0c62b36bc6e26d702e5e3 -->
<g id="node3" class="node"><title>dir_bbc824b1dac0c62b36bc6e26d702e5e3</title>
<g id="a_node3"><a xlink:href="dir_bbc824b1dac0c62b36bc6e26d702e5e3.html" target="_top" xlink:title="Features">
<polygon fill="none" stroke="black" points="186.5,-36 131.5,-36 131.5,-0 186.5,-0 186.5,-36"/>
<text text-anchor="middle" x="159" y="-15.5" font-family="Helvetica,sans-Serif" font-size="10.00">Features</text>
</a>
</g>
</g>
<!-- dir_6600b7943bda90bc66d357cd858ab5d0&#45;&gt;dir_bbc824b1dac0c62b36bc6e26d702e5e3 -->
<g id="edge5" class="edge"><title>dir_6600b7943bda90bc66d357cd858ab5d0&#45;&gt;dir_bbc824b1dac0c62b36bc6e26d702e5e3</title>
<path fill="none" stroke="black" d="M88.236,-71.6966C100.188,-62.796 114.923,-51.8232 127.847,-42.1989"/>
<polygon fill="black" stroke="black" points="130.101,-44.8842 136.031,-36.1043 125.92,-39.2699 130.101,-44.8842"/>
<g id="a_edge5&#45;headlabel"><a xlink:href="dir_000006_000004.html" target="_top" xlink:title="1">
<text text-anchor="middle" x="128.914" y="-46.8083" font-family="Helvetica,sans-Serif" font-size="10.00">1</text>
</a>
</g>
</g>
<!-- dir_0fccb6c9d3322ac7c2e3c005f3c88aab&#45;&gt;dir_6600b7943bda90bc66d357cd858ab5d0 -->
<g id="edge2" class="edge"><title>dir_0fccb6c9d3322ac7c2e3c005f3c88aab&#45;&gt;dir_6600b7943bda90bc66d357cd858ab5d0</title>
<path fill="none" stroke="black" d="M131.702,-90C129.241,-90 126.78,-90 124.32,-90"/>
<polygon fill="black" stroke="black" points="124.203,-86.5001 114.203,-90 124.203,-93.5001 124.203,-86.5001"/>
<g id="a_edge2&#45;headlabel"><a xlink:href="dir_000009_000006.html" target="_top" xlink:title="1">
<text text-anchor="middle" x="127.798" y="-81.1607" font-family="Helvetica,sans-Serif" font-size="10.00">1</text>
</a>
</g>
</g>
<!-- dir_0fccb6c9d3322ac7c2e3c005f3c88aab&#45;&gt;dir_bbc824b1dac0c62b36bc6e26d702e5e3 -->
<g id="edge1" class="edge"><title>dir_0fccb6c9d3322ac7c2e3c005f3c88aab&#45;&gt;dir_bbc824b1dac0c62b36bc6e26d702e5e3</title>
<path fill="none" stroke="black" d="M153.084,-71.6966C152.289,-63.9827 152.062,-54.7125 152.405,-46.1124"/>
<polygon fill="black" stroke="black" points="155.898,-46.3243 153.105,-36.1043 148.915,-45.8356 155.898,-46.3243"/>
<g id="a_edge1&#45;headlabel"><a xlink:href="dir_000009_000004.html" target="_top" xlink:title="4">
<text text-anchor="middle" x="158.48" y="-47.6083" font-family="Helvetica,sans-Serif" font-size="10.00">4</text>
</a>
</g>
</g>
<!-- dir_bbc824b1dac0c62b36bc6e26d702e5e3&#45;&gt;dir_0fccb6c9d3322ac7c2e3c005f3c88aab -->
<g id="edge3" class="edge"><title>dir_bbc824b1dac0c62b36bc6e26d702e5e3&#45;&gt;dir_0fccb6c9d3322ac7c2e3c005f3c88aab</title>
<path fill="none" stroke="black" d="M164.895,-36.1043C165.701,-43.7913 165.937,-53.0537 165.604,-61.6651"/>
<polygon fill="black" stroke="black" points="162.109,-61.4805 164.916,-71.6966 169.092,-61.9597 162.109,-61.4805"/>
<g id="a_edge3&#45;headlabel"><a xlink:href="dir_000004_000009.html" target="_top" xlink:title="6">
<text text-anchor="middle" x="159.522" y="-55.2" font-family="Helvetica,sans-Serif" font-size="10.00">6</text>
</a>
</g>
</g>
</g>
</svg>
