<?xml version="1.0" encoding="UTF-8" standalone="no"?>
<!DOCTYPE svg PUBLIC "-//W3C//DTD SVG 1.1//EN"
 "http://www.w3.org/Graphics/SVG/1.1/DTD/svg11.dtd">
<!-- Generated by graphviz version 2.38.0 (20140413.2041)
 -->
<!-- Title: /home/yukiosir/workspace/CompilerProject/Software/pinhao/include/pinhao Pages: 1 -->
<svg width="389pt" height="255pt"
 viewBox="0.00 0.00 389.00 255.00" xmlns="http://www.w3.org/2000/svg" xmlns:xlink="http://www.w3.org/1999/xlink">
<g id="graph0" class="graph" transform="scale(1 1) rotate(0) translate(4 251)">
<title>/home/yukiosir/workspace/CompilerProject/Software/pinhao/include/pinhao</title>
<polygon fill="white" stroke="none" points="-4,4 -4,-251 385,-251 385,4 -4,4"/>
<g id="clust1" class="cluster"><title>clusterdir_c2dcae61f19b4264a33bd5ea8aa70853</title>
<g id="a_clust1"><a xlink:href="dir_c2dcae61f19b4264a33bd5ea8aa70853.html" target="_top" xlink:title="include">
<polygon fill="#ddddee" stroke="black" points="8,-8 8,-239 373,-239 373,-8 8,-8"/>
<text text-anchor="middle" x="190.5" y="-227" font-family="Helvetica,sans-Serif" font-size="10.00">include</text>
</a>
</g>
</g>
<g id="clust2" class="cluster"><title>clusterdir_4e520cd54e0a57cca3ded6761052085a</title>
<g id="a_clust2"><a xlink:href="dir_4e520cd54e0a57cca3ded6761052085a.html" target="_top">
<polygon fill="#eeeeff" stroke="black" points="16,-16 16,-212 365,-212 365,-16 16,-16"/>
</a>
</g>
</g>
<!-- dir_4e520cd54e0a57cca3ded6761052085a -->
<g id="node1" class="node"><title>dir_4e520cd54e0a57cca3ded6761052085a</title>
<text text-anchor="middle" x="330" y="-183.5" font-family="Helvetica,sans-Serif" font-size="10.00">pinhao</text>
</g>
<!-- dir_bbc824b1dac0c62b36bc6e26d702e5e3 -->
<g id="node2" class="node"><title>dir_bbc824b1dac0c62b36bc6e26d702e5e3</title>
<g id="a_node2"><a xlink:href="dir_bbc824b1dac0c62b36bc6e26d702e5e3.html" target="_top" xlink:title="Features">
<polygon fill="white" stroke="black" points="284.5,-204 229.5,-204 229.5,-168 284.5,-168 284.5,-204"/>
<text text-anchor="middle" x="257" y="-183.5" font-family="Helvetica,sans-Serif" font-size="10.00">Features</text>
</a>
</g>
</g>
<!-- dir_0fccb6c9d3322ac7c2e3c005f3c88aab -->
<g id="node6" class="node"><title>dir_0fccb6c9d3322ac7c2e3c005f3c88aab</title>
<g id="a_node6"><a xlink:href="dir_0fccb6c9d3322ac7c2e3c005f3c88aab.html" target="_top" xlink:title="Support">
<polygon fill="white" stroke="black" points="238,-132 184,-132 184,-96 238,-96 238,-132"/>
<text text-anchor="middle" x="211" y="-111.5" font-family="Helvetica,sans-Serif" font-size="10.00">Support</text>
</a>
</g>
</g>
<!-- dir_bbc824b1dac0c62b36bc6e26d702e5e3&#45;&gt;dir_0fccb6c9d3322ac7c2e3c005f3c88aab -->
<g id="edge6" class="edge"><title>dir_bbc824b1dac0c62b36bc6e26d702e5e3&#45;&gt;dir_0fccb6c9d3322ac7c2e3c005f3c88aab</title>
<path fill="none" stroke="black" d="M239.713,-167.697C233.591,-159.644 226.974,-149.894 221.527,-140.982"/>
<polygon fill="black" stroke="black" points="224.409,-138.976 216.345,-132.104 218.364,-142.505 224.409,-138.976"/>
<g id="a_edge6&#45;headlabel"><a xlink:href="dir_000004_000009.html" target="_top" xlink:title="6">
<text text-anchor="middle" x="228.673" y="-138.149" font-family="Helvetica,sans-Serif" font-size="10.00">6</text>
</a>
</g>
</g>
<!-- dir_354bd357b842371bef13c970f77efe20 -->
<g id="node3" class="node"><title>dir_354bd357b842371bef13c970f77efe20</title>
<g id="a_node3"><a xlink:href="dir_354bd357b842371bef13c970f77efe20.html" target="_top" xlink:title="MachineLearning">
<polygon fill="white" stroke="red" points="256,-60 166,-60 166,-24 256,-24 256,-60"/>
<text text-anchor="middle" x="211" y="-39.5" font-family="Helvetica,sans-Serif" font-size="10.00">MachineLearning</text>
</a>
</g>
</g>
<!-- dir_354bd357b842371bef13c970f77efe20&#45;&gt;dir_bbc824b1dac0c62b36bc6e26d702e5e3 -->
<g id="edge4" class="edge"><title>dir_354bd357b842371bef13c970f77efe20&#45;&gt;dir_bbc824b1dac0c62b36bc6e26d702e5e3</title>
<path fill="none" stroke="black" d="M226.027,-60.4237C233.619,-70.2246 242.215,-83.0637 247,-96 254.315,-115.778 256.686,-139.578 257.299,-157.589"/>
<polygon fill="black" stroke="black" points="253.801,-157.773 257.481,-167.708 260.8,-157.647 253.801,-157.773"/>
<g id="a_edge4&#45;headlabel"><a xlink:href="dir_000005_000004.html" target="_top" xlink:title="1">
<text text-anchor="middle" x="250.898" y="-151.73" font-family="Helvetica,sans-Serif" font-size="10.00">1</text>
</a>
</g>
</g>
<!-- dir_354bd357b842371bef13c970f77efe20&#45;&gt;dir_0fccb6c9d3322ac7c2e3c005f3c88aab -->
<g id="edge3" class="edge"><title>dir_354bd357b842371bef13c970f77efe20&#45;&gt;dir_0fccb6c9d3322ac7c2e3c005f3c88aab</title>
<path fill="none" stroke="black" d="M216.895,-60.1043C217.701,-67.7913 217.937,-77.0537 217.604,-85.6651"/>
<polygon fill="black" stroke="black" points="214.109,-85.4805 216.916,-95.6966 221.092,-85.9597 214.109,-85.4805"/>
<g id="a_edge3&#45;headlabel"><a xlink:href="dir_000005_000009.html" target="_top" xlink:title="2">
<text text-anchor="middle" x="211.522" y="-79.2" font-family="Helvetica,sans-Serif" font-size="10.00">2</text>
</a>
</g>
</g>
<!-- dir_7eaf8a4f0ed4880e049e5a886aca1269 -->
<g id="node4" class="node"><title>dir_7eaf8a4f0ed4880e049e5a886aca1269</title>
<g id="a_node4"><a xlink:href="dir_7eaf8a4f0ed4880e049e5a886aca1269.html" target="_top" xlink:title="Optimizer">
<polygon fill="white" stroke="black" points="211.5,-204 152.5,-204 152.5,-168 211.5,-168 211.5,-204"/>
<text text-anchor="middle" x="182" y="-183.5" font-family="Helvetica,sans-Serif" font-size="10.00">Optimizer</text>
</a>
</g>
</g>
<!-- dir_7eaf8a4f0ed4880e049e5a886aca1269&#45;&gt;dir_0fccb6c9d3322ac7c2e3c005f3c88aab -->
<g id="edge5" class="edge"><title>dir_7eaf8a4f0ed4880e049e5a886aca1269&#45;&gt;dir_0fccb6c9d3322ac7c2e3c005f3c88aab</title>
<path fill="none" stroke="black" d="M189.169,-167.697C192.435,-159.813 196.374,-150.304 200.002,-141.546"/>
<polygon fill="black" stroke="black" points="203.32,-142.683 203.914,-132.104 196.853,-140.003 203.32,-142.683"/>
<g id="a_edge5&#45;headlabel"><a xlink:href="dir_000007_000009.html" target="_top" xlink:title="2">
<text text-anchor="middle" x="204.567" y="-144.59" font-family="Helvetica,sans-Serif" font-size="10.00">2</text>
</a>
</g>
</g>
<!-- dir_431b76270e61fa8c3ba040b83a56b4b5 -->
<g id="node5" class="node"><title>dir_431b76270e61fa8c3ba040b83a56b4b5</title>
<g id="a_node5"><a xlink:href="dir_431b76270e61fa8c3ba040b83a56b4b5.html" target="_top" xlink:title="PerformanceAnalyser">
<polygon fill="white" stroke="black" points="134,-204 24,-204 24,-168 134,-168 134,-204"/>
<text text-anchor="middle" x="79" y="-183.5" font-family="Helvetica,sans-Serif" font-size="10.00">PerformanceAnalyser</text>
</a>
</g>
</g>
<!-- dir_431b76270e61fa8c3ba040b83a56b4b5&#45;&gt;dir_0fccb6c9d3322ac7c2e3c005f3c88aab -->
<g id="edge7" class="edge"><title>dir_431b76270e61fa8c3ba040b83a56b4b5&#45;&gt;dir_0fccb6c9d3322ac7c2e3c005f3c88aab</title>
<path fill="none" stroke="black" d="M111.291,-167.876C130.531,-157.673 154.995,-144.7 174.875,-134.157"/>
<polygon fill="black" stroke="black" points="176.742,-137.129 183.937,-129.352 173.462,-130.945 176.742,-137.129"/>
<g id="a_edge7&#45;headlabel"><a xlink:href="dir_000008_000009.html" target="_top" xlink:title="1">
<text text-anchor="middle" x="174.897" y="-138.821" font-family="Helvetica,sans-Serif" font-size="10.00">1</text>
</a>
</g>
</g>
<!-- dir_0fccb6c9d3322ac7c2e3c005f3c88aab&#45;&gt;dir_bbc824b1dac0c62b36bc6e26d702e5e3 -->
<g id="edge2" class="edge"><title>dir_0fccb6c9d3322ac7c2e3c005f3c88aab&#45;&gt;dir_bbc824b1dac0c62b36bc6e26d702e5e3</title>
<path fill="none" stroke="black" d="M228.135,-132.104C234.249,-140.129 240.872,-149.871 246.338,-158.797"/>
<polygon fill="black" stroke="black" points="243.474,-160.833 251.545,-167.697 249.516,-157.298 243.474,-160.833"/>
<g id="a_edge2&#45;headlabel"><a xlink:href="dir_000009_000004.html" target="_top" xlink:title="4">
<text text-anchor="middle" x="239.208" y="-156.664" font-family="Helvetica,sans-Serif" font-size="10.00">4</text>
</a>
</g>
</g>
<!-- dir_0fccb6c9d3322ac7c2e3c005f3c88aab&#45;&gt;dir_354bd357b842371bef13c970f77efe20 -->
<g id="edge1" class="edge"><title>dir_0fccb6c9d3322ac7c2e3c005f3c88aab&#45;&gt;dir_354bd357b842371bef13c970f77efe20</title>
<path fill="none" stroke="black" d="M205.084,-95.6966C204.289,-87.9827 204.062,-78.7125 204.405,-70.1124"/>
<polygon fill="black" stroke="black" points="207.898,-70.3243 205.105,-60.1043 200.915,-69.8356 207.898,-70.3243"/>
<g id="a_edge1&#45;headlabel"><a xlink:href="dir_000009_000005.html" target="_top" xlink:title="1">
<text text-anchor="middle" x="210.48" y="-71.6083" font-family="Helvetica,sans-Serif" font-size="10.00">1</text>
</a>
</g>
</g>
</g>
</svg>
