<?xml version="1.0" encoding="UTF-8" standalone="no"?>
<!DOCTYPE svg PUBLIC "-//W3C//DTD SVG 1.1//EN"
 "http://www.w3.org/Graphics/SVG/1.1/DTD/svg11.dtd">
<!-- Generated by graphviz version 2.38.0 (20140413.2041)
 -->
<!-- Title: /home/yukiosir/workspace/CompilerProject/Software/pinhao/include/pinhao/Features Pages: 1 -->
<svg width="96pt" height="151pt"
 viewBox="0.00 0.00 96.00 151.00" xmlns="http://www.w3.org/2000/svg" xmlns:xlink="http://www.w3.org/1999/xlink">
<g id="graph0" class="graph" transform="scale(1 1) rotate(0) translate(4 147)">
<title>/home/yukiosir/workspace/CompilerProject/Software/pinhao/include/pinhao/Features</title>
<polygon fill="white" stroke="none" points="-4,4 -4,-147 92,-147 92,4 -4,4"/>
<g id="clust1" class="cluster"><title>clusterdir_4e520cd54e0a57cca3ded6761052085a</title>
<g id="a_clust1"><a xlink:href="dir_4e520cd54e0a57cca3ded6761052085a.html" target="_top" xlink:title="pinhao">
<polygon fill="#ddddee" stroke="black" points="8,-64 8,-135 80,-135 80,-64 8,-64"/>
<text text-anchor="middle" x="44" y="-123" font-family="Helvetica,sans-Serif" font-size="10.00">pinhao</text>
</a>
</g>
</g>
<!-- dir_bbc824b1dac0c62b36bc6e26d702e5e3 -->
<g id="node1" class="node"><title>dir_bbc824b1dac0c62b36bc6e26d702e5e3</title>
<g id="a_node1"><a xlink:href="dir_bbc824b1dac0c62b36bc6e26d702e5e3.html" target="_top" xlink:title="Features">
<polygon fill="#eeeeff" stroke="black" points="71.5,-108 16.5,-108 16.5,-72 71.5,-72 71.5,-108"/>
<text text-anchor="middle" x="44" y="-87.5" font-family="Helvetica,sans-Serif" font-size="10.00">Features</text>
</a>
</g>
</g>
<!-- dir_0fccb6c9d3322ac7c2e3c005f3c88aab -->
<g id="node2" class="node"><title>dir_0fccb6c9d3322ac7c2e3c005f3c88aab</title>
<g id="a_node2"><a xlink:href="dir_0fccb6c9d3322ac7c2e3c005f3c88aab.html" target="_top" xlink:title="Support">
<polygon fill="none" stroke="black" points="71,-36 17,-36 17,-0 71,-0 71,-36"/>
<text text-anchor="middle" x="44" y="-15.5" font-family="Helvetica,sans-Serif" font-size="10.00">Support</text>
</a>
</g>
</g>
<!-- dir_bbc824b1dac0c62b36bc6e26d702e5e3&#45;&gt;dir_0fccb6c9d3322ac7c2e3c005f3c88aab -->
<g id="edge2" class="edge"><title>dir_bbc824b1dac0c62b36bc6e26d702e5e3&#45;&gt;dir_0fccb6c9d3322ac7c2e3c005f3c88aab</title>
<path fill="none" stroke="black" d="M38.0843,-71.6966C37.2886,-63.9827 37.0621,-54.7125 37.4047,-46.1124"/>
<polygon fill="black" stroke="black" points="40.8984,-46.3243 38.105,-36.1043 33.9154,-45.8356 40.8984,-46.3243"/>
<g id="a_edge2&#45;headlabel"><a xlink:href="dir_000004_000009.html" target="_top" xlink:title="6">
<text text-anchor="middle" x="43.4799" y="-47.6083" font-family="Helvetica,sans-Serif" font-size="10.00">6</text>
</a>
</g>
</g>
<!-- dir_0fccb6c9d3322ac7c2e3c005f3c88aab&#45;&gt;dir_bbc824b1dac0c62b36bc6e26d702e5e3 -->
<g id="edge1" class="edge"><title>dir_0fccb6c9d3322ac7c2e3c005f3c88aab&#45;&gt;dir_bbc824b1dac0c62b36bc6e26d702e5e3</title>
<path fill="none" stroke="black" d="M49.895,-36.1043C50.7005,-43.7913 50.9369,-53.0537 50.604,-61.6651"/>
<polygon fill="black" stroke="black" points="47.1085,-61.4805 49.9157,-71.6966 54.0921,-61.9597 47.1085,-61.4805"/>
<g id="a_edge1&#45;headlabel"><a xlink:href="dir_000009_000004.html" target="_top" xlink:title="4">
<text text-anchor="middle" x="44.5219" y="-55.2" font-family="Helvetica,sans-Serif" font-size="10.00">4</text>
</a>
</g>
</g>
</g>
</svg>
