<?xml version="1.0" encoding="UTF-8" standalone="no"?>
<!DOCTYPE svg PUBLIC "-//W3C//DTD SVG 1.1//EN"
 "http://www.w3.org/Graphics/SVG/1.1/DTD/svg11.dtd">
<!-- Generated by graphviz version 2.38.0 (20140413.2041)
 -->
<!-- Title: /home/yukiosir/workspace/CompilerProject/Software/pinhao/include/pinhao/PerformanceAnalyser Pages: 1 -->
<svg width="150pt" height="151pt"
 viewBox="0.00 0.00 150.00 151.00" xmlns="http://www.w3.org/2000/svg" xmlns:xlink="http://www.w3.org/1999/xlink">
<g id="graph0" class="graph" transform="scale(1 1) rotate(0) translate(4 147)">
<title>/home/yukiosir/workspace/CompilerProject/Software/pinhao/include/pinhao/PerformanceAnalyser</title>
<polygon fill="white" stroke="none" points="-4,4 -4,-147 146,-147 146,4 -4,4"/>
<g id="clust1" class="cluster"><title>clusterdir_4e520cd54e0a57cca3ded6761052085a</title>
<g id="a_clust1"><a xlink:href="dir_4e520cd54e0a57cca3ded6761052085a.html" target="_top" xlink:title="pinhao">
<polygon fill="#ddddee" stroke="black" points="8,-64 8,-135 134,-135 134,-64 8,-64"/>
<text text-anchor="middle" x="71" y="-123" font-family="Helvetica,sans-Serif" font-size="10.00">pinhao</text>
</a>
</g>
</g>
<!-- dir_431b76270e61fa8c3ba040b83a56b4b5 -->
<g id="node1" class="node"><title>dir_431b76270e61fa8c3ba040b83a56b4b5</title>
<g id="a_node1"><a xlink:href="dir_431b76270e61fa8c3ba040b83a56b4b5.html" target="_top" xlink:title="PerformanceAnalyser">
<polygon fill="#eeeeff" stroke="black" points="126,-108 16,-108 16,-72 126,-72 126,-108"/>
<text text-anchor="middle" x="71" y="-87.5" font-family="Helvetica,sans-Serif" font-size="10.00">PerformanceAnalyser</text>
</a>
</g>
</g>
<!-- dir_0fccb6c9d3322ac7c2e3c005f3c88aab -->
<g id="node2" class="node"><title>dir_0fccb6c9d3322ac7c2e3c005f3c88aab</title>
<g id="a_node2"><a xlink:href="dir_0fccb6c9d3322ac7c2e3c005f3c88aab.html" target="_top" xlink:title="Support">
<polygon fill="none" stroke="black" points="98,-36 44,-36 44,-0 98,-0 98,-36"/>
<text text-anchor="middle" x="71" y="-15.5" font-family="Helvetica,sans-Serif" font-size="10.00">Support</text>
</a>
</g>
</g>
<!-- dir_431b76270e61fa8c3ba040b83a56b4b5&#45;&gt;dir_0fccb6c9d3322ac7c2e3c005f3c88aab -->
<g id="edge1" class="edge"><title>dir_431b76270e61fa8c3ba040b83a56b4b5&#45;&gt;dir_0fccb6c9d3322ac7c2e3c005f3c88aab</title>
<path fill="none" stroke="black" d="M71,-71.6966C71,-63.9827 71,-54.7125 71,-46.1124"/>
<polygon fill="black" stroke="black" points="74.5001,-46.1043 71,-36.1043 67.5001,-46.1044 74.5001,-46.1043"/>
<g id="a_edge1&#45;headlabel"><a xlink:href="dir_000008_000009.html" target="_top" xlink:title="1">
<text text-anchor="middle" x="77.3393" y="-47.199" font-family="Helvetica,sans-Serif" font-size="10.00">1</text>
</a>
</g>
</g>
</g>
</svg>
