<?xml version="1.0" encoding="UTF-8" standalone="no"?>
<!DOCTYPE svg PUBLIC "-//W3C//DTD SVG 1.1//EN"
 "http://www.w3.org/Graphics/SVG/1.1/DTD/svg11.dtd">
<!-- Generated by graphviz version 2.38.0 (20140413.2041)
 -->
<!-- Title: /home/yukiosir/workspace/CompilerProject/Software/pinhao/lib/FeaturesImpl Pages: 1 -->
<svg width="232pt" height="159pt"
 viewBox="0.00 0.00 232.00 159.00" xmlns="http://www.w3.org/2000/svg" xmlns:xlink="http://www.w3.org/1999/xlink">
<g id="graph0" class="graph" transform="scale(1 1) rotate(0) translate(4 155)">
<title>/home/yukiosir/workspace/CompilerProject/Software/pinhao/lib/FeaturesImpl</title>
<polygon fill="white" stroke="none" points="-4,4 -4,-155 228,-155 228,4 -4,4"/>
<g id="clust1" class="cluster"><title>clusterdir_38aa94f0b69c1504002506a3716b8e53</title>
<g id="a_clust1"><a xlink:href="dir_38aa94f0b69c1504002506a3716b8e53.html" target="_top" xlink:title="lib">
<polygon fill="#ddddee" stroke="black" points="8,-56 8,-143 216,-143 216,-56 8,-56"/>
<text text-anchor="middle" x="112" y="-131" font-family="Helvetica,sans-Serif" font-size="10.00">lib</text>
</a>
</g>
</g>
<g id="clust2" class="cluster"><title>clusterdir_fc1423ec04940a7508b6c7307d19f1b5</title>
<g id="a_clust2"><a xlink:href="dir_fc1423ec04940a7508b6c7307d19f1b5.html" target="_top">
<polygon fill="#eeeeff" stroke="black" points="16,-64 16,-116 208,-116 208,-64 16,-64"/>
</a>
</g>
</g>
<!-- dir_fc1423ec04940a7508b6c7307d19f1b5 -->
<g id="node1" class="node"><title>dir_fc1423ec04940a7508b6c7307d19f1b5</title>
<text text-anchor="middle" x="163" y="-87.5" font-family="Helvetica,sans-Serif" font-size="10.00">FeaturesImpl</text>
</g>
<!-- dir_c2dcae61f19b4264a33bd5ea8aa70853 -->
<g id="node3" class="node"><title>dir_c2dcae61f19b4264a33bd5ea8aa70853</title>
<g id="a_node3"><a xlink:href="dir_c2dcae61f19b4264a33bd5ea8aa70853.html" target="_top" xlink:title="include">
<polygon fill="white" stroke="red" points="141,-36 87,-36 87,-0 141,-0 141,-36"/>
<text text-anchor="middle" x="114" y="-15.5" font-family="Helvetica,sans-Serif" font-size="10.00">include</text>
</a>
</g>
</g>
<!-- dir_fc1423ec04940a7508b6c7307d19f1b5&#45;&gt;dir_c2dcae61f19b4264a33bd5ea8aa70853 -->
<g id="edge2" class="edge"><title>dir_fc1423ec04940a7508b6c7307d19f1b5&#45;&gt;dir_c2dcae61f19b4264a33bd5ea8aa70853</title>
<path fill="none" stroke="black" d="M150.888,-71.6966C145.132,-63.4741 138.138,-53.4832 131.794,-44.4207"/>
<polygon fill="black" stroke="black" points="134.575,-42.2895 125.973,-36.1043 128.84,-46.3038 134.575,-42.2895"/>
<g id="a_edge2&#45;headlabel"><a xlink:href="dir_000012_000002.html" target="_top" xlink:title="23">
<text text-anchor="middle" x="138.962" y="-41.1061" font-family="Helvetica,sans-Serif" font-size="10.00">23</text>
</a>
</g>
</g>
<!-- dir_267119b40f65b9666b1732696a2baea0 -->
<g id="node2" class="node"><title>dir_267119b40f65b9666b1732696a2baea0</title>
<g id="a_node2"><a xlink:href="dir_267119b40f65b9666b1732696a2baea0.html" target="_top" xlink:title="GEOSFeatures">
<polygon fill="white" stroke="black" points="107.5,-108 24.5,-108 24.5,-72 107.5,-72 107.5,-108"/>
<text text-anchor="middle" x="66" y="-87.5" font-family="Helvetica,sans-Serif" font-size="10.00">GEOSFeatures</text>
</a>
</g>
</g>
<!-- dir_267119b40f65b9666b1732696a2baea0&#45;&gt;dir_c2dcae61f19b4264a33bd5ea8aa70853 -->
<g id="edge1" class="edge"><title>dir_267119b40f65b9666b1732696a2baea0&#45;&gt;dir_c2dcae61f19b4264a33bd5ea8aa70853</title>
<path fill="none" stroke="black" d="M77.8652,-71.6966C83.5035,-63.4741 90.3543,-53.4832 96.5687,-44.4207"/>
<polygon fill="black" stroke="black" points="99.5025,-46.331 102.271,-36.1043 93.7294,-42.3723 99.5025,-46.331"/>
<g id="a_edge1&#45;headlabel"><a xlink:href="dir_000013_000002.html" target="_top" xlink:title="6">
<text text-anchor="middle" x="99.8114" y="-48.4012" font-family="Helvetica,sans-Serif" font-size="10.00">6</text>
</a>
</g>
</g>
</g>
</svg>
