<?xml version="1.0" encoding="UTF-8" standalone="no"?>
<!DOCTYPE svg PUBLIC "-//W3C//DTD SVG 1.1//EN"
 "http://www.w3.org/Graphics/SVG/1.1/DTD/svg11.dtd">
<!-- Generated by graphviz version 2.38.0 (20140413.2041)
 -->
<!-- Title: /home/yukiosir/workspace/CompilerProject/Software/pinhao/lib/MachineLearning/GrammarEvolution Pages: 1 -->
<svg width="138pt" height="151pt"
 viewBox="0.00 0.00 138.00 151.00" xmlns="http://www.w3.org/2000/svg" xmlns:xlink="http://www.w3.org/1999/xlink">
<g id="graph0" class="graph" transform="scale(1 1) rotate(0) translate(4 147)">
<title>/home/yukiosir/workspace/CompilerProject/Software/pinhao/lib/MachineLearning/GrammarEvolution</title>
<polygon fill="white" stroke="none" points="-4,4 -4,-147 134,-147 134,4 -4,4"/>
<g id="clust1" class="cluster"><title>clusterdir_c2c09ff9a6a48aadc7d14faf2f08d6b3</title>
<g id="a_clust1"><a xlink:href="dir_c2c09ff9a6a48aadc7d14faf2f08d6b3.html" target="_top" xlink:title="MachineLearning">
<polygon fill="#ddddee" stroke="black" points="8,-64 8,-135 122,-135 122,-64 8,-64"/>
<text text-anchor="middle" x="65" y="-123" font-family="Helvetica,sans-Serif" font-size="10.00">MachineLearning</text>
</a>
</g>
</g>
<!-- dir_28ff23c606994681cab7fa0746a6b9f3 -->
<g id="node1" class="node"><title>dir_28ff23c606994681cab7fa0746a6b9f3</title>
<g id="a_node1"><a xlink:href="dir_28ff23c606994681cab7fa0746a6b9f3.html" target="_top" xlink:title="GrammarEvolution">
<polygon fill="#eeeeff" stroke="black" points="114,-108 16,-108 16,-72 114,-72 114,-108"/>
<text text-anchor="middle" x="65" y="-87.5" font-family="Helvetica,sans-Serif" font-size="10.00">GrammarEvolution</text>
</a>
</g>
</g>
<!-- dir_c2dcae61f19b4264a33bd5ea8aa70853 -->
<g id="node2" class="node"><title>dir_c2dcae61f19b4264a33bd5ea8aa70853</title>
<g id="a_node2"><a xlink:href="dir_c2dcae61f19b4264a33bd5ea8aa70853.html" target="_top" xlink:title="include">
<polygon fill="white" stroke="red" points="92,-36 38,-36 38,-0 92,-0 92,-36"/>
<text text-anchor="middle" x="65" y="-15.5" font-family="Helvetica,sans-Serif" font-size="10.00">include</text>
</a>
</g>
</g>
<!-- dir_28ff23c606994681cab7fa0746a6b9f3&#45;&gt;dir_c2dcae61f19b4264a33bd5ea8aa70853 -->
<g id="edge1" class="edge"><title>dir_28ff23c606994681cab7fa0746a6b9f3&#45;&gt;dir_c2dcae61f19b4264a33bd5ea8aa70853</title>
<path fill="none" stroke="black" d="M65,-71.6966C65,-63.9827 65,-54.7125 65,-46.1124"/>
<polygon fill="black" stroke="black" points="68.5001,-46.1043 65,-36.1043 61.5001,-46.1044 68.5001,-46.1043"/>
<g id="a_edge1&#45;headlabel"><a xlink:href="dir_000015_000002.html" target="_top" xlink:title="17">
<text text-anchor="middle" x="71.3393" y="-47.199" font-family="Helvetica,sans-Serif" font-size="10.00">17</text>
</a>
</g>
</g>
</g>
</svg>
