<?xml version="1.0" encoding="UTF-8" standalone="no"?>
<!DOCTYPE svg PUBLIC "-//W3C//DTD SVG 1.1//EN"
 "http://www.w3.org/Graphics/SVG/1.1/DTD/svg11.dtd">
<!-- Generated by graphviz version 2.38.0 (20140413.2041)
 -->
<!-- Title: /home/yukiosir/workspace/CompilerProject/Software/pinhao/lib/Support Pages: 1 -->
<svg width="208pt" height="159pt"
 viewBox="0.00 0.00 208.00 159.00" xmlns="http://www.w3.org/2000/svg" xmlns:xlink="http://www.w3.org/1999/xlink">
<g id="graph0" class="graph" transform="scale(1 1) rotate(0) translate(4 155)">
<title>/home/yukiosir/workspace/CompilerProject/Software/pinhao/lib/Support</title>
<polygon fill="white" stroke="none" points="-4,4 -4,-155 204,-155 204,4 -4,4"/>
<g id="clust1" class="cluster"><title>clusterdir_38aa94f0b69c1504002506a3716b8e53</title>
<g id="a_clust1"><a xlink:href="dir_38aa94f0b69c1504002506a3716b8e53.html" target="_top" xlink:title="lib">
<polygon fill="#ddddee" stroke="black" points="8,-56 8,-143 192,-143 192,-56 8,-56"/>
<text text-anchor="middle" x="100" y="-131" font-family="Helvetica,sans-Serif" font-size="10.00">lib</text>
</a>
</g>
</g>
<g id="clust2" class="cluster"><title>clusterdir_c576381be8f06d6cbd8605818afe5597</title>
<g id="a_clust2"><a xlink:href="dir_c576381be8f06d6cbd8605818afe5597.html" target="_top">
<polygon fill="#eeeeff" stroke="black" points="16,-64 16,-116 184,-116 184,-64 16,-64"/>
</a>
</g>
</g>
<!-- dir_c576381be8f06d6cbd8605818afe5597 -->
<g id="node1" class="node"><title>dir_c576381be8f06d6cbd8605818afe5597</title>
<text text-anchor="middle" x="149" y="-87.5" font-family="Helvetica,sans-Serif" font-size="10.00">Support</text>
</g>
<!-- dir_c2dcae61f19b4264a33bd5ea8aa70853 -->
<g id="node3" class="node"><title>dir_c2dcae61f19b4264a33bd5ea8aa70853</title>
<g id="a_node3"><a xlink:href="dir_c2dcae61f19b4264a33bd5ea8aa70853.html" target="_top" xlink:title="include">
<polygon fill="white" stroke="red" points="133,-36 79,-36 79,-0 133,-0 133,-36"/>
<text text-anchor="middle" x="106" y="-15.5" font-family="Helvetica,sans-Serif" font-size="10.00">include</text>
</a>
</g>
</g>
<!-- dir_c576381be8f06d6cbd8605818afe5597&#45;&gt;dir_c2dcae61f19b4264a33bd5ea8aa70853 -->
<g id="edge1" class="edge"><title>dir_c576381be8f06d6cbd8605818afe5597&#45;&gt;dir_c2dcae61f19b4264a33bd5ea8aa70853</title>
<path fill="none" stroke="black" d="M138.371,-71.6966C133.372,-63.5589 127.309,-53.689 121.788,-44.7013"/>
<polygon fill="black" stroke="black" points="124.723,-42.7931 116.507,-36.1043 118.759,-46.4571 124.723,-42.7931"/>
<g id="a_edge1&#45;headlabel"><a xlink:href="dir_000018_000002.html" target="_top" xlink:title="15">
<text text-anchor="middle" x="129.024" y="-41.8699" font-family="Helvetica,sans-Serif" font-size="10.00">15</text>
</a>
</g>
</g>
<!-- dir_2e2093f87362a7b7a01635ecb2c123dd -->
<g id="node2" class="node"><title>dir_2e2093f87362a7b7a01635ecb2c123dd</title>
<g id="a_node2"><a xlink:href="dir_2e2093f87362a7b7a01635ecb2c123dd.html" target="_top" xlink:title="YAMLWrapper">
<polygon fill="white" stroke="black" points="104,-108 24,-108 24,-72 104,-72 104,-108"/>
<text text-anchor="middle" x="64" y="-87.5" font-family="Helvetica,sans-Serif" font-size="10.00">YAMLWrapper</text>
</a>
</g>
</g>
<!-- dir_2e2093f87362a7b7a01635ecb2c123dd&#45;&gt;dir_c2dcae61f19b4264a33bd5ea8aa70853 -->
<g id="edge2" class="edge"><title>dir_2e2093f87362a7b7a01635ecb2c123dd&#45;&gt;dir_c2dcae61f19b4264a33bd5ea8aa70853</title>
<path fill="none" stroke="black" d="M74.382,-71.6966C79.2647,-63.5589 85.1866,-53.689 90.5792,-44.7013"/>
<polygon fill="black" stroke="black" points="93.5936,-46.48 95.7374,-36.1043 87.5912,-42.8785 93.5936,-46.48"/>
<g id="a_edge2&#45;headlabel"><a xlink:href="dir_000019_000002.html" target="_top" xlink:title="11">
<text text-anchor="middle" x="94.1789" y="-48.5232" font-family="Helvetica,sans-Serif" font-size="10.00">11</text>
</a>
</g>
</g>
</g>
</svg>
