<?xml version="1.0" encoding="UTF-8" standalone="no"?>
<!DOCTYPE svg PUBLIC "-//W3C//DTD SVG 1.1//EN"
 "http://www.w3.org/Graphics/SVG/1.1/DTD/svg11.dtd">
<!-- Generated by graphviz version 2.38.0 (20140413.2041)
 -->
<!-- Title: /home/yukiosir/workspace/CompilerProject/Software/pinhao/lib/Features Pages: 1 -->
<svg width="96pt" height="151pt"
 viewBox="0.00 0.00 96.00 151.00" xmlns="http://www.w3.org/2000/svg" xmlns:xlink="http://www.w3.org/1999/xlink">
<g id="graph0" class="graph" transform="scale(1 1) rotate(0) translate(4 147)">
<title>/home/yukiosir/workspace/CompilerProject/Software/pinhao/lib/Features</title>
<polygon fill="white" stroke="none" points="-4,4 -4,-147 92,-147 92,4 -4,4"/>
<g id="clust1" class="cluster"><title>clusterdir_38aa94f0b69c1504002506a3716b8e53</title>
<g id="a_clust1"><a xlink:href="dir_38aa94f0b69c1504002506a3716b8e53.html" target="_top" xlink:title="lib">
<polygon fill="#ddddee" stroke="black" points="8,-64 8,-135 80,-135 80,-64 8,-64"/>
<text text-anchor="middle" x="44" y="-123" font-family="Helvetica,sans-Serif" font-size="10.00">lib</text>
</a>
</g>
</g>
<!-- dir_4f41bf78076cc2d9565cc4f54f33abd1 -->
<g id="node1" class="node"><title>dir_4f41bf78076cc2d9565cc4f54f33abd1</title>
<g id="a_node1"><a xlink:href="dir_4f41bf78076cc2d9565cc4f54f33abd1.html" target="_top" xlink:title="Features">
<polygon fill="#eeeeff" stroke="black" points="71.5,-108 16.5,-108 16.5,-72 71.5,-72 71.5,-108"/>
<text text-anchor="middle" x="44" y="-87.5" font-family="Helvetica,sans-Serif" font-size="10.00">Features</text>
</a>
</g>
</g>
<!-- dir_c2dcae61f19b4264a33bd5ea8aa70853 -->
<g id="node2" class="node"><title>dir_c2dcae61f19b4264a33bd5ea8aa70853</title>
<g id="a_node2"><a xlink:href="dir_c2dcae61f19b4264a33bd5ea8aa70853.html" target="_top" xlink:title="include">
<polygon fill="white" stroke="red" points="71,-36 17,-36 17,-0 71,-0 71,-36"/>
<text text-anchor="middle" x="44" y="-15.5" font-family="Helvetica,sans-Serif" font-size="10.00">include</text>
</a>
</g>
</g>
<!-- dir_4f41bf78076cc2d9565cc4f54f33abd1&#45;&gt;dir_c2dcae61f19b4264a33bd5ea8aa70853 -->
<g id="edge1" class="edge"><title>dir_4f41bf78076cc2d9565cc4f54f33abd1&#45;&gt;dir_c2dcae61f19b4264a33bd5ea8aa70853</title>
<path fill="none" stroke="black" d="M44,-71.6966C44,-63.9827 44,-54.7125 44,-46.1124"/>
<polygon fill="black" stroke="black" points="47.5001,-46.1043 44,-36.1043 40.5001,-46.1044 47.5001,-46.1043"/>
<g id="a_edge1&#45;headlabel"><a xlink:href="dir_000011_000002.html" target="_top" xlink:title="7">
<text text-anchor="middle" x="50.3393" y="-47.199" font-family="Helvetica,sans-Serif" font-size="10.00">7</text>
</a>
</g>
</g>
</g>
</svg>
