<?xml version="1.0" encoding="UTF-8" standalone="no"?>
<!DOCTYPE svg PUBLIC "-//W3C//DTD SVG 1.1//EN"
 "http://www.w3.org/Graphics/SVG/1.1/DTD/svg11.dtd">
<!-- Generated by graphviz version 2.38.0 (20140413.2041)
 -->
<!-- Title: /home/yukiosir/workspace/CompilerProject/Software/pinhao/include/pinhao/MachineLearning Pages: 1 -->
<svg width="309pt" height="195pt"
 viewBox="0.00 0.00 308.50 195.00" xmlns="http://www.w3.org/2000/svg" xmlns:xlink="http://www.w3.org/1999/xlink">
<g id="graph0" class="graph" transform="scale(1 1) rotate(0) translate(4 191)">
<title>/home/yukiosir/workspace/CompilerProject/Software/pinhao/include/pinhao/MachineLearning</title>
<polygon fill="white" stroke="none" points="-4,4 -4,-191 304.5,-191 304.5,4 -4,4"/>
<g id="clust1" class="cluster"><title>clusterdir_4e520cd54e0a57cca3ded6761052085a</title>
<g id="a_clust1"><a xlink:href="dir_4e520cd54e0a57cca3ded6761052085a.html" target="_top" xlink:title="pinhao">
<polygon fill="#ddddee" stroke="black" points="8,-56 8,-143 246,-143 246,-56 8,-56"/>
<text text-anchor="middle" x="127" y="-131" font-family="Helvetica,sans-Serif" font-size="10.00">pinhao</text>
</a>
</g>
</g>
<g id="clust2" class="cluster"><title>clusterdir_354bd357b842371bef13c970f77efe20</title>
<g id="a_clust2"><a xlink:href="dir_354bd357b842371bef13c970f77efe20.html" target="_top">
<polygon fill="#eeeeff" stroke="black" points="16,-64 16,-116 238,-116 238,-64 16,-64"/>
</a>
</g>
</g>
<!-- dir_354bd357b842371bef13c970f77efe20 -->
<g id="node1" class="node"><title>dir_354bd357b842371bef13c970f77efe20</title>
<text text-anchor="middle" x="185" y="-87.5" font-family="Helvetica,sans-Serif" font-size="10.00">MachineLearning</text>
</g>
<!-- dir_6600b7943bda90bc66d357cd858ab5d0 -->
<g id="node2" class="node"><title>dir_6600b7943bda90bc66d357cd858ab5d0</title>
<g id="a_node2"><a xlink:href="dir_6600b7943bda90bc66d357cd858ab5d0.html" target="_top" xlink:title="GrammarEvolution">
<polygon fill="white" stroke="black" points="122,-108 24,-108 24,-72 122,-72 122,-108"/>
<text text-anchor="middle" x="73" y="-87.5" font-family="Helvetica,sans-Serif" font-size="10.00">GrammarEvolution</text>
</a>
</g>
</g>
<!-- dir_0fccb6c9d3322ac7c2e3c005f3c88aab -->
<g id="node3" class="node"><title>dir_0fccb6c9d3322ac7c2e3c005f3c88aab</title>
<g id="a_node3"><a xlink:href="dir_0fccb6c9d3322ac7c2e3c005f3c88aab.html" target="_top" xlink:title="Support">
<polygon fill="none" stroke="black" points="256,-187 202,-187 202,-151 256,-151 256,-187"/>
<text text-anchor="middle" x="229" y="-166.5" font-family="Helvetica,sans-Serif" font-size="10.00">Support</text>
</a>
</g>
</g>
<!-- dir_6600b7943bda90bc66d357cd858ab5d0&#45;&gt;dir_0fccb6c9d3322ac7c2e3c005f3c88aab -->
<g id="edge5" class="edge"><title>dir_6600b7943bda90bc66d357cd858ab5d0&#45;&gt;dir_0fccb6c9d3322ac7c2e3c005f3c88aab</title>
<path fill="none" stroke="black" d="M80.5244,-108.357C89.9682,-119.787 105.536,-134.211 122,-143 143.299,-154.37 169.989,-160.738 191.53,-164.198"/>
<polygon fill="black" stroke="black" points="191.245,-167.693 201.645,-165.671 192.254,-160.766 191.245,-167.693"/>
<g id="a_edge5&#45;headlabel"><a xlink:href="dir_000006_000009.html" target="_top" xlink:title="2">
<text text-anchor="middle" x="187.279" y="-167.484" font-family="Helvetica,sans-Serif" font-size="10.00">2</text>
</a>
</g>
</g>
<!-- dir_bbc824b1dac0c62b36bc6e26d702e5e3 -->
<g id="node4" class="node"><title>dir_bbc824b1dac0c62b36bc6e26d702e5e3</title>
<g id="a_node4"><a xlink:href="dir_bbc824b1dac0c62b36bc6e26d702e5e3.html" target="_top" xlink:title="Features">
<polygon fill="none" stroke="black" points="300.5,-36 245.5,-36 245.5,-0 300.5,-0 300.5,-36"/>
<text text-anchor="middle" x="273" y="-15.5" font-family="Helvetica,sans-Serif" font-size="10.00">Features</text>
</a>
</g>
</g>
<!-- dir_6600b7943bda90bc66d357cd858ab5d0&#45;&gt;dir_bbc824b1dac0c62b36bc6e26d702e5e3 -->
<g id="edge6" class="edge"><title>dir_6600b7943bda90bc66d357cd858ab5d0&#45;&gt;dir_bbc824b1dac0c62b36bc6e26d702e5e3</title>
<path fill="none" stroke="black" d="M99.6981,-71.8619C109.294,-66.2327 120.375,-60.319 131,-56 165.156,-42.1157 206.077,-32.1046 235.197,-26.0248"/>
<polygon fill="black" stroke="black" points="236.253,-29.3819 245.358,-23.9629 234.861,-22.5218 236.253,-29.3819"/>
<g id="a_edge6&#45;headlabel"><a xlink:href="dir_000006_000004.html" target="_top" xlink:title="1">
<text text-anchor="middle" x="233.295" y="-30.3793" font-family="Helvetica,sans-Serif" font-size="10.00">1</text>
</a>
</g>
</g>
<!-- dir_0fccb6c9d3322ac7c2e3c005f3c88aab&#45;&gt;dir_354bd357b842371bef13c970f77efe20 -->
<g id="edge1" class="edge"><title>dir_0fccb6c9d3322ac7c2e3c005f3c88aab&#45;&gt;dir_354bd357b842371bef13c970f77efe20</title>
<path fill="none" stroke="black" d="M219.235,-150.911C213.538,-140.942 206.237,-128.165 199.842,-116.973"/>
<polygon fill="black" stroke="black" points="202.738,-114.987 194.738,-108.041 196.66,-118.46 202.738,-114.987"/>
<g id="a_edge1&#45;headlabel"><a xlink:href="dir_000009_000005.html" target="_top" xlink:title="1">
<text text-anchor="middle" x="206.987" y="-114.199" font-family="Helvetica,sans-Serif" font-size="10.00">1</text>
</a>
</g>
</g>
<!-- dir_0fccb6c9d3322ac7c2e3c005f3c88aab&#45;&gt;dir_6600b7943bda90bc66d357cd858ab5d0 -->
<g id="edge3" class="edge"><title>dir_0fccb6c9d3322ac7c2e3c005f3c88aab&#45;&gt;dir_6600b7943bda90bc66d357cd858ab5d0</title>
<path fill="none" stroke="black" d="M201.878,-163.267C183.563,-159.638 159.517,-153.419 140,-143 126.656,-135.876 113.9,-125.051 103.015,-115.118"/>
<polygon fill="black" stroke="black" points="105.156,-112.331 95.4387,-108.109 100.403,-117.469 105.156,-112.331"/>
<g id="a_edge3&#45;headlabel"><a xlink:href="dir_000009_000006.html" target="_top" xlink:title="1">
<text text-anchor="middle" x="109.723" y="-110.188" font-family="Helvetica,sans-Serif" font-size="10.00">1</text>
</a>
</g>
</g>
<!-- dir_0fccb6c9d3322ac7c2e3c005f3c88aab&#45;&gt;dir_bbc824b1dac0c62b36bc6e26d702e5e3 -->
<g id="edge2" class="edge"><title>dir_0fccb6c9d3322ac7c2e3c005f3c88aab&#45;&gt;dir_bbc824b1dac0c62b36bc6e26d702e5e3</title>
<path fill="none" stroke="black" d="M229.723,-150.756C230.861,-148.199 232.029,-145.562 233,-143 245.302,-110.537 254.146,-71.4423 261.217,-45.9447"/>
<polygon fill="black" stroke="black" points="264.61,-46.8127 264.044,-36.233 257.889,-44.8566 264.61,-46.8127"/>
<g id="a_edge2&#45;headlabel"><a xlink:href="dir_000009_000004.html" target="_top" xlink:title="4">
<text text-anchor="middle" x="266.332" y="-48.5575" font-family="Helvetica,sans-Serif" font-size="10.00">4</text>
</a>
</g>
</g>
<!-- dir_bbc824b1dac0c62b36bc6e26d702e5e3&#45;&gt;dir_0fccb6c9d3322ac7c2e3c005f3c88aab -->
<g id="edge4" class="edge"><title>dir_bbc824b1dac0c62b36bc6e26d702e5e3&#45;&gt;dir_0fccb6c9d3322ac7c2e3c005f3c88aab</title>
<path fill="none" stroke="black" d="M275.993,-36.233C274.621,-58.8342 266.296,-99.7681 251.1,-141.324"/>
<polygon fill="black" stroke="black" points="247.797,-140.165 247.534,-150.756 254.344,-142.64 247.797,-140.165"/>
<g id="a_edge4&#45;headlabel"><a xlink:href="dir_000004_000009.html" target="_top" xlink:title="6">
<text text-anchor="middle" x="246.412" y="-133.298" font-family="Helvetica,sans-Serif" font-size="10.00">6</text>
</a>
</g>
</g>
</g>
</svg>
