<?xml version="1.0" encoding="UTF-8" standalone="no"?>
<!DOCTYPE svg PUBLIC "-//W3C//DTD SVG 1.1//EN"
 "http://www.w3.org/Graphics/SVG/1.1/DTD/svg11.dtd">
<!-- Generated by graphviz version 2.38.0 (20140413.2041)
 -->
<!-- Title: /home/yukiosir/workspace/CompilerProject/Software/pinhao/include/pinhao/MachineLearning/GrammarEvolution/Evolution.h Pages: 1 -->
<svg width="1395pt" height="595pt"
 viewBox="0.00 0.00 1394.50 595.00" xmlns="http://www.w3.org/2000/svg" xmlns:xlink="http://www.w3.org/1999/xlink">
<g id="graph0" class="graph" transform="scale(1 1) rotate(0) translate(4 591)">
<title>/home/yukiosir/workspace/CompilerProject/Software/pinhao/include/pinhao/MachineLearning/GrammarEvolution/Evolution.h</title>
<polygon fill="white" stroke="none" points="-4,4 -4,-591 1390.5,-591 1390.5,4 -4,4"/>
<!-- Node4 -->
<g id="node1" class="node"><title>Node4</title>
<polygon fill="#bfbfbf" stroke="black" points="995,-534.5 995,-586.5 1185,-586.5 1185,-534.5 995,-534.5"/>
<text text-anchor="start" x="1003" y="-574.5" font-family="Helvetica,sans-Serif" font-size="10.00">/home/yukiosir/workspace</text>
<text text-anchor="start" x="1003" y="-563.5" font-family="Helvetica,sans-Serif" font-size="10.00">/CompilerProject/Software</text>
<text text-anchor="start" x="1003" y="-552.5" font-family="Helvetica,sans-Serif" font-size="10.00">/pinhao/include/pinhao/MachineLearning</text>
<text text-anchor="middle" x="1090" y="-541.5" font-family="Helvetica,sans-Serif" font-size="10.00">/GrammarEvolution/Evolution.h</text>
</g>
<!-- Node5 -->
<g id="node2" class="node"><title>Node5</title>
<g id="a_node2"><a xlink:href="Formula_8h.html" target="_top" xlink:title="/home/yukiosir/workspace\l/CompilerProject/Software\l/pinhao/include/pinhao/MachineLearning\l/GrammarEvolution/Formula.h">
<polygon fill="white" stroke="black" points="424,-445.5 424,-497.5 614,-497.5 614,-445.5 424,-445.5"/>
<text text-anchor="start" x="432" y="-485.5" font-family="Helvetica,sans-Serif" font-size="10.00">/home/yukiosir/workspace</text>
<text text-anchor="start" x="432" y="-474.5" font-family="Helvetica,sans-Serif" font-size="10.00">/CompilerProject/Software</text>
<text text-anchor="start" x="432" y="-463.5" font-family="Helvetica,sans-Serif" font-size="10.00">/pinhao/include/pinhao/MachineLearning</text>
<text text-anchor="middle" x="519" y="-452.5" font-family="Helvetica,sans-Serif" font-size="10.00">/GrammarEvolution/Formula.h</text>
</a>
</g>
</g>
<!-- Node4&#45;&gt;Node5 -->
<g id="edge1" class="edge"><title>Node4&#45;&gt;Node5</title>
<path fill="none" stroke="midnightblue" d="M984.66,-543.45C878.558,-527.284 716.324,-502.565 614.045,-486.981"/>
<polygon fill="midnightblue" stroke="midnightblue" points="984.336,-546.941 994.749,-544.987 985.39,-540.021 984.336,-546.941"/>
</g>
<!-- Node15 -->
<g id="node12" class="node"><title>Node15</title>
<g id="a_node12"><a xlink:href="Candidate_8cpp.html" target="_top" xlink:title="/home/yukiosir/workspace\l/CompilerProject/Software\l/pinhao/lib/MachineLearning\l/GrammarEvolution/Candidate.cpp">
<polygon fill="white" stroke="black" points="1219.5,-356.5 1219.5,-408.5 1386.5,-408.5 1386.5,-356.5 1219.5,-356.5"/>
<text text-anchor="start" x="1227.5" y="-396.5" font-family="Helvetica,sans-Serif" font-size="10.00">/home/yukiosir/workspace</text>
<text text-anchor="start" x="1227.5" y="-385.5" font-family="Helvetica,sans-Serif" font-size="10.00">/CompilerProject/Software</text>
<text text-anchor="start" x="1227.5" y="-374.5" font-family="Helvetica,sans-Serif" font-size="10.00">/pinhao/lib/MachineLearning</text>
<text text-anchor="middle" x="1303" y="-363.5" font-family="Helvetica,sans-Serif" font-size="10.00">/GrammarEvolution/Candidate.cpp</text>
</a>
</g>
</g>
<!-- Node4&#45;&gt;Node15 -->
<g id="edge27" class="edge"><title>Node4&#45;&gt;Node15</title>
<path fill="none" stroke="midnightblue" d="M1148.71,-529.526C1164.68,-520.303 1181.54,-509.518 1196,-498 1229.84,-471.052 1262.92,-433.409 1283.13,-408.752"/>
<polygon fill="midnightblue" stroke="midnightblue" points="1146.94,-526.511 1139.96,-534.484 1150.39,-532.602 1146.94,-526.511"/>
</g>
<!-- Node18 -->
<g id="node15" class="node"><title>Node18</title>
<g id="a_node15"><a xlink:href="GrammarEvolution_8h.html" target="_top" xlink:title="/home/yukiosir/workspace\l/CompilerProject/Software\l/pinhao/include/pinhao/MachineLearning\l/GrammarEvolution/GrammarEvolution.h">
<polygon fill="white" stroke="black" points="993.5,-445.5 993.5,-497.5 1186.5,-497.5 1186.5,-445.5 993.5,-445.5"/>
<text text-anchor="start" x="1001.5" y="-485.5" font-family="Helvetica,sans-Serif" font-size="10.00">/home/yukiosir/workspace</text>
<text text-anchor="start" x="1001.5" y="-474.5" font-family="Helvetica,sans-Serif" font-size="10.00">/CompilerProject/Software</text>
<text text-anchor="start" x="1001.5" y="-463.5" font-family="Helvetica,sans-Serif" font-size="10.00">/pinhao/include/pinhao/MachineLearning</text>
<text text-anchor="middle" x="1090" y="-452.5" font-family="Helvetica,sans-Serif" font-size="10.00">/GrammarEvolution/GrammarEvolution.h</text>
</a>
</g>
</g>
<!-- Node4&#45;&gt;Node18 -->
<g id="edge21" class="edge"><title>Node4&#45;&gt;Node18</title>
<path fill="none" stroke="midnightblue" d="M1090,-524.191C1090,-515.282 1090,-505.899 1090,-497.607"/>
<polygon fill="midnightblue" stroke="midnightblue" points="1086.5,-524.336 1090,-534.336 1093.5,-524.336 1086.5,-524.336"/>
</g>
<!-- Node6 -->
<g id="node3" class="node"><title>Node6</title>
<g id="a_node3"><a xlink:href="BinOpFormula_8h.html" target="_top" xlink:title="/home/yukiosir/workspace\l/CompilerProject/Software\l/pinhao/include/pinhao/MachineLearning\l/GrammarEvolution/BinOpFormula.h">
<polygon fill="white" stroke="black" points="116,-267.5 116,-319.5 306,-319.5 306,-267.5 116,-267.5"/>
<text text-anchor="start" x="124" y="-307.5" font-family="Helvetica,sans-Serif" font-size="10.00">/home/yukiosir/workspace</text>
<text text-anchor="start" x="124" y="-296.5" font-family="Helvetica,sans-Serif" font-size="10.00">/CompilerProject/Software</text>
<text text-anchor="start" x="124" y="-285.5" font-family="Helvetica,sans-Serif" font-size="10.00">/pinhao/include/pinhao/MachineLearning</text>
<text text-anchor="middle" x="211" y="-274.5" font-family="Helvetica,sans-Serif" font-size="10.00">/GrammarEvolution/BinOpFormula.h</text>
</a>
</g>
</g>
<!-- Node5&#45;&gt;Node6 -->
<g id="edge2" class="edge"><title>Node5&#45;&gt;Node6</title>
<path fill="none" stroke="midnightblue" d="M413.909,-460.543C341.994,-451.495 255.261,-435.43 230,-409 207.445,-385.401 205.828,-345.818 207.681,-319.931"/>
<polygon fill="midnightblue" stroke="midnightblue" points="413.599,-464.031 423.951,-461.773 414.45,-457.083 413.599,-464.031"/>
</g>
<!-- Node7 -->
<g id="node4" class="node"><title>Node7</title>
<g id="a_node4"><a xlink:href="Formulas_8h.html" target="_top" xlink:title="/home/yukiosir/workspace\l/CompilerProject/Software\l/pinhao/include/pinhao/MachineLearning\l/GrammarEvolution/Formulas.h">
<polygon fill="white" stroke="black" points="199,-178.5 199,-230.5 389,-230.5 389,-178.5 199,-178.5"/>
<text text-anchor="start" x="207" y="-218.5" font-family="Helvetica,sans-Serif" font-size="10.00">/home/yukiosir/workspace</text>
<text text-anchor="start" x="207" y="-207.5" font-family="Helvetica,sans-Serif" font-size="10.00">/CompilerProject/Software</text>
<text text-anchor="start" x="207" y="-196.5" font-family="Helvetica,sans-Serif" font-size="10.00">/pinhao/include/pinhao/MachineLearning</text>
<text text-anchor="middle" x="294" y="-185.5" font-family="Helvetica,sans-Serif" font-size="10.00">/GrammarEvolution/Formulas.h</text>
</a>
</g>
</g>
<!-- Node5&#45;&gt;Node7 -->
<g id="edge10" class="edge"><title>Node5&#45;&gt;Node7</title>
<path fill="none" stroke="midnightblue" d="M413.677,-464.147C350.428,-456.936 269.91,-441.594 205,-409 152.42,-382.598 130.816,-373.801 107,-320 97.465,-298.461 93.1885,-286.082 107,-267 128.341,-237.516 164.29,-221.92 198.998,-213.759"/>
<polygon fill="midnightblue" stroke="midnightblue" points="413.355,-467.633 423.675,-465.236 414.113,-460.674 413.355,-467.633"/>
</g>
<!-- Node10 -->
<g id="node7" class="node"><title>Node10</title>
<g id="a_node7"><a xlink:href="FormulaYAMLWrapper_8cpp.html" target="_top" xlink:title="/home/yukiosir/workspace\l/CompilerProject/Software\l/pinhao/lib/Support/YAMLWrapper\l/FormulaYAMLWrapper.cpp">
<polygon fill="white" stroke="black" points="0,-0.5 0,-52.5 164,-52.5 164,-0.5 0,-0.5"/>
<text text-anchor="start" x="8" y="-40.5" font-family="Helvetica,sans-Serif" font-size="10.00">/home/yukiosir/workspace</text>
<text text-anchor="start" x="8" y="-29.5" font-family="Helvetica,sans-Serif" font-size="10.00">/CompilerProject/Software</text>
<text text-anchor="start" x="8" y="-18.5" font-family="Helvetica,sans-Serif" font-size="10.00">/pinhao/lib/Support/YAMLWrapper</text>
<text text-anchor="middle" x="82" y="-7.5" font-family="Helvetica,sans-Serif" font-size="10.00">/FormulaYAMLWrapper.cpp</text>
</a>
</g>
</g>
<!-- Node5&#45;&gt;Node10 -->
<g id="edge20" class="edge"><title>Node5&#45;&gt;Node10</title>
<path fill="none" stroke="midnightblue" d="M413.676,-463.795C313.234,-455.697 170.573,-439.23 124,-409 73.1765,-376.01 50,-355.092 50,-294.5 50,-294.5 50,-294.5 50,-203.5 50,-148.996 65.0392,-86.5065 74.4974,-52.5959"/>
<polygon fill="midnightblue" stroke="midnightblue" points="413.625,-467.302 423.87,-464.6 414.176,-460.323 413.625,-467.302"/>
</g>
<!-- Node11 -->
<g id="node8" class="node"><title>Node11</title>
<g id="a_node8"><a xlink:href="FeatureFormula_8h.html" target="_top" xlink:title="/home/yukiosir/workspace\l/CompilerProject/Software\l/pinhao/include/pinhao/MachineLearning\l/GrammarEvolution/FeatureFormula.h">
<polygon fill="white" stroke="black" points="548,-267.5 548,-319.5 738,-319.5 738,-267.5 548,-267.5"/>
<text text-anchor="start" x="556" y="-307.5" font-family="Helvetica,sans-Serif" font-size="10.00">/home/yukiosir/workspace</text>
<text text-anchor="start" x="556" y="-296.5" font-family="Helvetica,sans-Serif" font-size="10.00">/CompilerProject/Software</text>
<text text-anchor="start" x="556" y="-285.5" font-family="Helvetica,sans-Serif" font-size="10.00">/pinhao/include/pinhao/MachineLearning</text>
<text text-anchor="middle" x="643" y="-274.5" font-family="Helvetica,sans-Serif" font-size="10.00">/GrammarEvolution/FeatureFormula.h</text>
</a>
</g>
</g>
<!-- Node5&#45;&gt;Node11 -->
<g id="edge8" class="edge"><title>Node5&#45;&gt;Node11</title>
<path fill="none" stroke="midnightblue" d="M490.516,-436.98C473.728,-412.952 458.833,-380.616 476,-356 485.367,-342.568 515.609,-329.716 547.832,-319.266"/>
<polygon fill="midnightblue" stroke="midnightblue" points="487.743,-439.118 496.483,-445.107 493.385,-434.975 487.743,-439.118"/>
</g>
<!-- Node12 -->
<g id="node9" class="node"><title>Node12</title>
<g id="a_node9"><a xlink:href="IfFormula_8h.html" target="_top" xlink:title="/home/yukiosir/workspace\l/CompilerProject/Software\l/pinhao/include/pinhao/MachineLearning\l/GrammarEvolution/IfFormula.h">
<polygon fill="white" stroke="black" points="485,-356.5 485,-408.5 675,-408.5 675,-356.5 485,-356.5"/>
<text text-anchor="start" x="493" y="-396.5" font-family="Helvetica,sans-Serif" font-size="10.00">/home/yukiosir/workspace</text>
<text text-anchor="start" x="493" y="-385.5" font-family="Helvetica,sans-Serif" font-size="10.00">/CompilerProject/Software</text>
<text text-anchor="start" x="493" y="-374.5" font-family="Helvetica,sans-Serif" font-size="10.00">/pinhao/include/pinhao/MachineLearning</text>
<text text-anchor="middle" x="580" y="-363.5" font-family="Helvetica,sans-Serif" font-size="10.00">/GrammarEvolution/IfFormula.h</text>
</a>
</g>
</g>
<!-- Node5&#45;&gt;Node12 -->
<g id="edge11" class="edge"><title>Node5&#45;&gt;Node12</title>
<path fill="none" stroke="midnightblue" d="M542.54,-436.927C549.142,-427.511 556.203,-417.439 562.396,-408.607"/>
<polygon fill="midnightblue" stroke="midnightblue" points="539.519,-435.139 536.644,-445.336 545.25,-439.157 539.519,-435.139"/>
</g>
<!-- Node13 -->
<g id="node10" class="node"><title>Node13</title>
<g id="a_node10"><a xlink:href="LitFormula_8h.html" target="_top" xlink:title="/home/yukiosir/workspace\l/CompilerProject/Software\l/pinhao/include/pinhao/MachineLearning\l/GrammarEvolution/LitFormula.h">
<polygon fill="white" stroke="black" points="239,-356.5 239,-408.5 429,-408.5 429,-356.5 239,-356.5"/>
<text text-anchor="start" x="247" y="-396.5" font-family="Helvetica,sans-Serif" font-size="10.00">/home/yukiosir/workspace</text>
<text text-anchor="start" x="247" y="-385.5" font-family="Helvetica,sans-Serif" font-size="10.00">/CompilerProject/Software</text>
<text text-anchor="start" x="247" y="-374.5" font-family="Helvetica,sans-Serif" font-size="10.00">/pinhao/include/pinhao/MachineLearning</text>
<text text-anchor="middle" x="334" y="-363.5" font-family="Helvetica,sans-Serif" font-size="10.00">/GrammarEvolution/LitFormula.h</text>
</a>
</g>
</g>
<!-- Node5&#45;&gt;Node13 -->
<g id="edge13" class="edge"><title>Node5&#45;&gt;Node13</title>
<path fill="none" stroke="midnightblue" d="M456.393,-441.058C433.982,-430.519 408.949,-418.746 387.389,-408.607"/>
<polygon fill="midnightblue" stroke="midnightblue" points="454.952,-444.248 465.49,-445.336 457.931,-437.913 454.952,-444.248"/>
</g>
<!-- Node5&#45;&gt;Node15 -->
<g id="edge17" class="edge"><title>Node5&#45;&gt;Node15</title>
<path fill="none" stroke="midnightblue" d="M624.174,-466.986C760.309,-461.105 1004.45,-446.02 1210,-409 1213.05,-408.451 1216.14,-407.848 1219.26,-407.202"/>
<polygon fill="midnightblue" stroke="midnightblue" points="624.002,-463.49 614.159,-467.411 624.298,-470.484 624.002,-463.49"/>
</g>
<!-- Node16 -->
<g id="node13" class="node"><title>Node16</title>
<g id="a_node13"><a xlink:href="CandidateYAMLWrapper_8cpp.html" target="_top" xlink:title="/home/yukiosir/workspace\l/CompilerProject/Software\l/pinhao/lib/MachineLearning\l/GrammarEvolution/CandidateYAMLWrapper.cpp">
<polygon fill="white" stroke="black" points="731,-356.5 731,-408.5 961,-408.5 961,-356.5 731,-356.5"/>
<text text-anchor="start" x="739" y="-396.5" font-family="Helvetica,sans-Serif" font-size="10.00">/home/yukiosir/workspace</text>
<text text-anchor="start" x="739" y="-385.5" font-family="Helvetica,sans-Serif" font-size="10.00">/CompilerProject/Software</text>
<text text-anchor="start" x="739" y="-374.5" font-family="Helvetica,sans-Serif" font-size="10.00">/pinhao/lib/MachineLearning</text>
<text text-anchor="middle" x="846" y="-363.5" font-family="Helvetica,sans-Serif" font-size="10.00">/GrammarEvolution/CandidateYAMLWrapper.cpp</text>
</a>
</g>
</g>
<!-- Node5&#45;&gt;Node16 -->
<g id="edge18" class="edge"><title>Node5&#45;&gt;Node16</title>
<path fill="none" stroke="midnightblue" d="M622.974,-442.837C664.351,-431.829 711.617,-419.253 751.955,-408.521"/>
<polygon fill="midnightblue" stroke="midnightblue" points="621.907,-439.499 613.143,-445.453 623.707,-446.264 621.907,-439.499"/>
</g>
<!-- Node17 -->
<g id="node14" class="node"><title>Node17</title>
<g id="a_node14"><a xlink:href="SimpleGrammarEvolution_8cpp.html" target="_top" xlink:title="/home/yukiosir/workspace\l/CompilerProject/Software\l/pinhao/lib/MachineLearning\l/GrammarEvolution/SimpleGrammarEvolution.cpp">
<polygon fill="white" stroke="black" points="794.5,-267.5 794.5,-319.5 1027.5,-319.5 1027.5,-267.5 794.5,-267.5"/>
<text text-anchor="start" x="802.5" y="-307.5" font-family="Helvetica,sans-Serif" font-size="10.00">/home/yukiosir/workspace</text>
<text text-anchor="start" x="802.5" y="-296.5" font-family="Helvetica,sans-Serif" font-size="10.00">/CompilerProject/Software</text>
<text text-anchor="start" x="802.5" y="-285.5" font-family="Helvetica,sans-Serif" font-size="10.00">/pinhao/lib/MachineLearning</text>
<text text-anchor="middle" x="911" y="-274.5" font-family="Helvetica,sans-Serif" font-size="10.00">/GrammarEvolution/SimpleGrammarEvolution.cpp</text>
</a>
</g>
</g>
<!-- Node5&#45;&gt;Node17 -->
<g id="edge19" class="edge"><title>Node5&#45;&gt;Node17</title>
<path fill="none" stroke="midnightblue" d="M623.699,-442.143C644.887,-433.56 666.124,-422.668 684,-409 707.025,-391.395 698.608,-373.115 722,-356 743.443,-340.311 769.085,-328.496 794.461,-319.644"/>
<polygon fill="midnightblue" stroke="midnightblue" points="622.353,-438.911 614.307,-445.803 624.895,-445.433 622.353,-438.911"/>
</g>
<!-- Node6&#45;&gt;Node7 -->
<g id="edge3" class="edge"><title>Node6&#45;&gt;Node7</title>
<path fill="none" stroke="midnightblue" d="M241.932,-260.077C251.226,-250.335 261.277,-239.8 270.047,-230.607"/>
<polygon fill="midnightblue" stroke="midnightblue" points="239.377,-257.685 235.007,-267.336 244.442,-262.517 239.377,-257.685"/>
</g>
<!-- Node8 -->
<g id="node5" class="node"><title>Node8</title>
<g id="a_node5"><a xlink:href="FormulaYAMLWrapper_8h.html" target="_top" xlink:title="/home/yukiosir/workspace\l/CompilerProject/Software\l/pinhao/include/pinhao/Support\l/FormulaYAMLWrapper.h">
<polygon fill="white" stroke="black" points="116,-89.5 116,-141.5 266,-141.5 266,-89.5 116,-89.5"/>
<text text-anchor="start" x="124" y="-129.5" font-family="Helvetica,sans-Serif" font-size="10.00">/home/yukiosir/workspace</text>
<text text-anchor="start" x="124" y="-118.5" font-family="Helvetica,sans-Serif" font-size="10.00">/CompilerProject/Software</text>
<text text-anchor="start" x="124" y="-107.5" font-family="Helvetica,sans-Serif" font-size="10.00">/pinhao/include/pinhao/Support</text>
<text text-anchor="middle" x="191" y="-96.5" font-family="Helvetica,sans-Serif" font-size="10.00">/FormulaYAMLWrapper.h</text>
</a>
</g>
</g>
<!-- Node7&#45;&gt;Node8 -->
<g id="edge4" class="edge"><title>Node7&#45;&gt;Node8</title>
<path fill="none" stroke="midnightblue" d="M256.291,-171.649C244.571,-161.749 231.821,-150.98 220.725,-141.607"/>
<polygon fill="midnightblue" stroke="midnightblue" points="254.31,-174.557 264.208,-178.336 258.827,-169.209 254.31,-174.557"/>
</g>
<!-- Node9 -->
<g id="node6" class="node"><title>Node9</title>
<g id="a_node6"><a xlink:href="Formula_8cpp.html" target="_top" xlink:title="/home/yukiosir/workspace\l/CompilerProject/Software\l/pinhao/lib/MachineLearning\l/GrammarEvolution/Formula.cpp">
<polygon fill="white" stroke="black" points="198,-0.5 198,-52.5 356,-52.5 356,-0.5 198,-0.5"/>
<text text-anchor="start" x="206" y="-40.5" font-family="Helvetica,sans-Serif" font-size="10.00">/home/yukiosir/workspace</text>
<text text-anchor="start" x="206" y="-29.5" font-family="Helvetica,sans-Serif" font-size="10.00">/CompilerProject/Software</text>
<text text-anchor="start" x="206" y="-18.5" font-family="Helvetica,sans-Serif" font-size="10.00">/pinhao/lib/MachineLearning</text>
<text text-anchor="middle" x="277" y="-7.5" font-family="Helvetica,sans-Serif" font-size="10.00">/GrammarEvolution/Formula.cpp</text>
</a>
</g>
</g>
<!-- Node7&#45;&gt;Node9 -->
<g id="edge7" class="edge"><title>Node7&#45;&gt;Node9</title>
<path fill="none" stroke="midnightblue" d="M290.595,-168.249C287.291,-134.038 282.358,-82.9693 279.431,-52.6697"/>
<polygon fill="midnightblue" stroke="midnightblue" points="287.119,-168.666 291.564,-178.283 294.087,-167.993 287.119,-168.666"/>
</g>
<!-- Node8&#45;&gt;Node9 -->
<g id="edge5" class="edge"><title>Node8&#45;&gt;Node9</title>
<path fill="none" stroke="midnightblue" d="M223.051,-82.0768C232.68,-72.3353 243.094,-61.7998 252.181,-52.6075"/>
<polygon fill="midnightblue" stroke="midnightblue" points="220.416,-79.7636 215.875,-89.336 225.394,-84.6847 220.416,-79.7636"/>
</g>
<!-- Node8&#45;&gt;Node10 -->
<g id="edge6" class="edge"><title>Node8&#45;&gt;Node10</title>
<path fill="none" stroke="midnightblue" d="M151.452,-82.9342C138.951,-72.9562 125.312,-62.0702 113.456,-52.6075"/>
<polygon fill="midnightblue" stroke="midnightblue" points="149.474,-85.8333 159.473,-89.336 153.84,-80.3623 149.474,-85.8333"/>
</g>
<!-- Node11&#45;&gt;Node7 -->
<g id="edge9" class="edge"><title>Node11&#45;&gt;Node7</title>
<path fill="none" stroke="midnightblue" d="M537.689,-266.248C490.48,-254.479 435.209,-240.701 389.25,-229.244"/>
<polygon fill="midnightblue" stroke="midnightblue" points="537.085,-269.704 547.634,-268.727 538.778,-262.912 537.085,-269.704"/>
</g>
<!-- Node12&#45;&gt;Node7 -->
<g id="edge12" class="edge"><title>Node12&#45;&gt;Node7</title>
<path fill="none" stroke="midnightblue" d="M684.905,-353.478C713.319,-343.667 738.584,-332.067 747,-320 760.474,-300.679 762.495,-284.741 747,-267 723.832,-240.474 515.013,-221.166 389.127,-211.819"/>
<polygon fill="midnightblue" stroke="midnightblue" points="683.541,-350.243 675.168,-356.734 685.761,-356.882 683.541,-350.243"/>
</g>
<!-- Node13&#45;&gt;Node6 -->
<g id="edge14" class="edge"><title>Node13&#45;&gt;Node6</title>
<path fill="none" stroke="midnightblue" d="M290.177,-350.503C275.853,-340.371 260.13,-329.25 246.497,-319.607"/>
<polygon fill="midnightblue" stroke="midnightblue" points="288.238,-353.419 298.423,-356.336 292.28,-347.704 288.238,-353.419"/>
</g>
<!-- Node13&#45;&gt;Node7 -->
<g id="edge15" class="edge"><title>Node13&#45;&gt;Node7</title>
<path fill="none" stroke="midnightblue" d="M329.69,-346.323C326.522,-323.514 321.615,-293.265 315,-267 311.941,-254.856 307.587,-241.681 303.636,-230.652"/>
<polygon fill="midnightblue" stroke="midnightblue" points="326.222,-346.794 331.024,-356.239 333.16,-345.861 326.222,-346.794"/>
</g>
<!-- Node14 -->
<g id="node11" class="node"><title>Node14</title>
<g id="a_node11"><a xlink:href="LitFormula_8cpp.html" target="_top" xlink:title="/home/yukiosir/workspace\l/CompilerProject/Software\l/pinhao/lib/MachineLearning\l/GrammarEvolution/LitFormula.cpp">
<polygon fill="white" stroke="black" points="362,-267.5 362,-319.5 530,-319.5 530,-267.5 362,-267.5"/>
<text text-anchor="start" x="370" y="-307.5" font-family="Helvetica,sans-Serif" font-size="10.00">/home/yukiosir/workspace</text>
<text text-anchor="start" x="370" y="-296.5" font-family="Helvetica,sans-Serif" font-size="10.00">/CompilerProject/Software</text>
<text text-anchor="start" x="370" y="-285.5" font-family="Helvetica,sans-Serif" font-size="10.00">/pinhao/lib/MachineLearning</text>
<text text-anchor="middle" x="446" y="-274.5" font-family="Helvetica,sans-Serif" font-size="10.00">/GrammarEvolution/LitFormula.cpp</text>
</a>
</g>
</g>
<!-- Node13&#45;&gt;Node14 -->
<g id="edge16" class="edge"><title>Node13&#45;&gt;Node14</title>
<path fill="none" stroke="midnightblue" d="M374.636,-349.934C387.482,-339.956 401.496,-329.07 413.678,-319.607"/>
<polygon fill="midnightblue" stroke="midnightblue" points="372.145,-347.437 366.395,-356.336 376.439,-352.966 372.145,-347.437"/>
</g>
<!-- Node18&#45;&gt;Node15 -->
<g id="edge25" class="edge"><title>Node18&#45;&gt;Node15</title>
<path fill="none" stroke="midnightblue" d="M1160.81,-441.576C1187.01,-430.876 1216.46,-418.846 1241.74,-408.521"/>
<polygon fill="midnightblue" stroke="midnightblue" points="1159.26,-438.431 1151.32,-445.453 1161.9,-444.912 1159.26,-438.431"/>
</g>
<!-- Node18&#45;&gt;Node16 -->
<g id="edge26" class="edge"><title>Node18&#45;&gt;Node16</title>
<path fill="none" stroke="midnightblue" d="M1010.06,-441.998C979.76,-431.193 945.512,-418.982 916.174,-408.521"/>
<polygon fill="midnightblue" stroke="midnightblue" points="1009.16,-445.391 1019.75,-445.453 1011.51,-438.797 1009.16,-445.391"/>
</g>
<!-- Node19 -->
<g id="node16" class="node"><title>Node19</title>
<g id="a_node16"><a xlink:href="SimpleGrammarEvolution_8h.html" target="_top" xlink:title="/home/yukiosir/workspace\l/CompilerProject/Software\l/pinhao/include/pinhao/MachineLearning\l/GrammarEvolution/SimpleGrammarEvolution.h">
<polygon fill="white" stroke="black" points="978.5,-356.5 978.5,-408.5 1201.5,-408.5 1201.5,-356.5 978.5,-356.5"/>
<text text-anchor="start" x="986.5" y="-396.5" font-family="Helvetica,sans-Serif" font-size="10.00">/home/yukiosir/workspace</text>
<text text-anchor="start" x="986.5" y="-385.5" font-family="Helvetica,sans-Serif" font-size="10.00">/CompilerProject/Software</text>
<text text-anchor="start" x="986.5" y="-374.5" font-family="Helvetica,sans-Serif" font-size="10.00">/pinhao/include/pinhao/MachineLearning</text>
<text text-anchor="middle" x="1090" y="-363.5" font-family="Helvetica,sans-Serif" font-size="10.00">/GrammarEvolution/SimpleGrammarEvolution.h</text>
</a>
</g>
</g>
<!-- Node18&#45;&gt;Node19 -->
<g id="edge22" class="edge"><title>Node18&#45;&gt;Node19</title>
<path fill="none" stroke="midnightblue" d="M1090,-435.191C1090,-426.282 1090,-416.899 1090,-408.607"/>
<polygon fill="midnightblue" stroke="midnightblue" points="1086.5,-435.336 1090,-445.336 1093.5,-435.336 1086.5,-435.336"/>
</g>
<!-- Node19&#45;&gt;Node17 -->
<g id="edge23" class="edge"><title>Node19&#45;&gt;Node17</title>
<path fill="none" stroke="midnightblue" d="M1029.13,-351.917C1007.52,-341.414 983.425,-329.701 962.658,-319.607"/>
<polygon fill="midnightblue" stroke="midnightblue" points="1027.7,-355.112 1038.23,-356.336 1030.76,-348.817 1027.7,-355.112"/>
</g>
<!-- Node20 -->
<g id="node17" class="node"><title>Node20</title>
<g id="a_node17"><a xlink:href="Main_8cpp.html" target="_top" xlink:title="/home/yukiosir/workspace\l/CompilerProject/Software\l/pinhao/tools/SimpleGrammarEvolution\l/Main.cpp">
<polygon fill="white" stroke="black" points="1045,-267.5 1045,-319.5 1231,-319.5 1231,-267.5 1045,-267.5"/>
<text text-anchor="start" x="1053" y="-307.5" font-family="Helvetica,sans-Serif" font-size="10.00">/home/yukiosir/workspace</text>
<text text-anchor="start" x="1053" y="-296.5" font-family="Helvetica,sans-Serif" font-size="10.00">/CompilerProject/Software</text>
<text text-anchor="start" x="1053" y="-285.5" font-family="Helvetica,sans-Serif" font-size="10.00">/pinhao/tools/SimpleGrammarEvolution</text>
<text text-anchor="middle" x="1138" y="-274.5" font-family="Helvetica,sans-Serif" font-size="10.00">/Main.cpp</text>
</a>
</g>
</g>
<!-- Node19&#45;&gt;Node20 -->
<g id="edge24" class="edge"><title>Node19&#45;&gt;Node20</title>
<path fill="none" stroke="midnightblue" d="M1108.84,-347.35C1113.94,-338.1 1119.37,-328.259 1124.15,-319.607"/>
<polygon fill="midnightblue" stroke="midnightblue" points="1105.65,-345.889 1103.88,-356.336 1111.78,-349.271 1105.65,-345.889"/>
</g>
</g>
</svg>
