<?xml version="1.0" encoding="UTF-8" standalone="no"?>
<!DOCTYPE svg PUBLIC "-//W3C//DTD SVG 1.1//EN"
 "http://www.w3.org/Graphics/SVG/1.1/DTD/svg11.dtd">
<!-- Generated by graphviz version 2.38.0 (20140413.2041)
 -->
<!-- Title: /home/yukiosir/workspace/CompilerProject/Software/pinhao/lib/Support/YAMLWrapper/FeatureYAMLWrapper.cpp Pages: 1 -->
<!--zoomable 520 -->
<svg id="main" version="1.1" xmlns="http://www.w3.org/2000/svg" xmlns:xlink="http://www.w3.org/1999/xlink" xml:space="preserve" onload="init(evt)">
<style type="text/css"><![CDATA[
.edge:hover path { stroke: red; }
.edge:hover polygon { stroke: red; fill: red; }
]]></style>
<script type="text/javascript"><![CDATA[
var edges = document.getElementsByTagName('g');
if (edges && edges.length) {
  for (var i=0;i<edges.length;i++) {
    if (edges[i].id.substr(0,4)=='edge') {
      edges[i].setAttribute('class','edge');
    }
  }
}
]]></script>
        <defs>
                <circle id="rim" cx="0" cy="0" r="7"/>
                <circle id="rim2" cx="0" cy="0" r="3.5"/>
                <g id="zoomPlus">
                        <use xlink:href="#rim" fill="#404040">
                                <set attributeName="fill" to="#808080" begin="zoomplus.mouseover" end="zoomplus.mouseout"/>
                        </use>
                        <path d="M-4,0h8M0,-4v8" fill="none" stroke="white" stroke-width="1.5" pointer-events="none"/>
                </g>
                <g id="zoomMin">
                        <use xlink:href="#rim" fill="#404040">
                                <set attributeName="fill" to="#808080" begin="zoomminus.mouseover" end="zoomminus.mouseout"/>
                        </use>
                        <path d="M-4,0h8" fill="none" stroke="white" stroke-width="1.5" pointer-events="none"/>
                </g>
                <g id="dirArrow">
                        <path fill="none" stroke="white" stroke-width="1.5" d="M0,-3.0v7 M-2.5,-0.5L0,-3.0L2.5,-0.5"/>
                </g>
               <g id="resetDef">
                       <use xlink:href="#rim2" fill="#404040">
                               <set attributeName="fill" to="#808080" begin="reset.mouseover" end="reset.mouseout"/>
                       </use>
               </g>
        </defs>

<script type="text/javascript">
var viewWidth = 757;
var viewHeight = 520;
var sectionId = 'dynsection-0';
</script>
<script xlink:href="svgpan.js"/>
<svg id="graph" class="graph">
<g id="viewport">
<title>/home/yukiosir/workspace/CompilerProject/Software/pinhao/lib/Support/YAMLWrapper/FeatureYAMLWrapper.cpp</title>
<polygon fill="white" stroke="none" points="-4,4 -4,-516 753.322,-516 753.322,4 -4,4"/>
<!-- Node0 -->
<g id="node1" class="node"><title>Node0</title>
<polygon fill="#bfbfbf" stroke="black" points="498.322,-459.5 498.322,-511.5 662.322,-511.5 662.322,-459.5 498.322,-459.5"/>
<text text-anchor="start" x="506.322" y="-499.5" font-family="Helvetica,sans-Serif" font-size="10.00">/home/yukiosir/workspace</text>
<text text-anchor="start" x="506.322" y="-488.5" font-family="Helvetica,sans-Serif" font-size="10.00">/CompilerProject/Software</text>
<text text-anchor="start" x="506.322" y="-477.5" font-family="Helvetica,sans-Serif" font-size="10.00">/pinhao/lib/Support/YAMLWrapper</text>
<text text-anchor="middle" x="580.322" y="-466.5" font-family="Helvetica,sans-Serif" font-size="10.00">/FeatureYAMLWrapper.cpp</text>
</g>
<!-- Node1 -->
<g id="node2" class="node"><title>Node1</title>
<g id="a_node2"><a xlink:href="FeatureYAMLWrapper_8h.html" target="_top" xlink:title="pinhao/Support/FeatureYAMLWrapper.h">
<polygon fill="white" stroke="black" points="394.322,-403.5 394.322,-422.5 584.322,-422.5 584.322,-403.5 394.322,-403.5"/>
<text text-anchor="middle" x="489.322" y="-410.5" font-family="Helvetica,sans-Serif" font-size="10.00">pinhao/Support/FeatureYAMLWrapper.h</text>
</a>
</g>
</g>
<!-- Node0&#45;&gt;Node1 -->
<g id="edge1" class="edge"><title>Node0&#45;&gt;Node1</title>
<path fill="none" stroke="midnightblue" d="M547.983,-459.446C534.793,-449.227 519.989,-437.758 508.553,-428.898"/>
<polygon fill="midnightblue" stroke="midnightblue" points="510.595,-426.053 500.546,-422.695 506.308,-431.587 510.595,-426.053"/>
</g>
<!-- Node8 -->
<g id="node9" class="node"><title>Node8</title>
<g id="a_node9"><a xlink:href="Features_8h.html" target="_top" xlink:title="This file implements some basic feature classes that extends the base class Feature. ">
<polygon fill="white" stroke="black" points="253.322,-224.5 253.322,-243.5 389.322,-243.5 389.322,-224.5 253.322,-224.5"/>
<text text-anchor="middle" x="321.322" y="-231.5" font-family="Helvetica,sans-Serif" font-size="10.00">pinhao/Features/Features.h</text>
</a>
</g>
</g>
<!-- Node0&#45;&gt;Node8 -->
<g id="edge39" class="edge"><title>Node0&#45;&gt;Node8</title>
<path fill="none" stroke="midnightblue" d="M595.575,-459.404C619.113,-417.093 657.222,-331.183 613.322,-280 586.277,-248.468 476.557,-238.823 399.61,-235.991"/>
<polygon fill="midnightblue" stroke="midnightblue" points="399.566,-232.488 389.454,-235.65 399.331,-239.484 399.566,-232.488"/>
</g>
<!-- Node2 -->
<g id="node3" class="node"><title>Node2</title>
<g id="a_node3"><a xlink:href="YAMLWrapper_8h.html" target="_top" xlink:title="pinhao/Support/YAMLWrapper.h">
<polygon fill="white" stroke="black" points="556.822,-168.5 556.822,-187.5 713.822,-187.5 713.822,-168.5 556.822,-168.5"/>
<text text-anchor="middle" x="635.322" y="-175.5" font-family="Helvetica,sans-Serif" font-size="10.00">pinhao/Support/YAMLWrapper.h</text>
</a>
</g>
</g>
<!-- Node1&#45;&gt;Node2 -->
<g id="edge2" class="edge"><title>Node1&#45;&gt;Node2</title>
<path fill="none" stroke="midnightblue" d="M529.293,-403.466C551.005,-396.901 576.73,-385.68 593.322,-367 636.409,-318.49 638.312,-235.536 636.707,-198.202"/>
<polygon fill="midnightblue" stroke="midnightblue" points="640.176,-197.569 636.11,-187.785 633.188,-197.969 640.176,-197.569"/>
</g>
<!-- Node6 -->
<g id="node7" class="node"><title>Node6</title>
<g id="a_node7"><a xlink:href="YamlOptions_8h.html" target="_top" xlink:title="pinhao/Support/YamlOptions.h">
<polygon fill="white" stroke="black" points="455.822,-280.5 455.822,-299.5 604.822,-299.5 604.822,-280.5 455.822,-280.5"/>
<text text-anchor="middle" x="530.322" y="-287.5" font-family="Helvetica,sans-Serif" font-size="10.00">pinhao/Support/YamlOptions.h</text>
</a>
</g>
</g>
<!-- Node1&#45;&gt;Node6 -->
<g id="edge6" class="edge"><title>Node1&#45;&gt;Node6</title>
<path fill="none" stroke="midnightblue" d="M525.174,-403.397C544.203,-396.81 565.949,-385.589 577.322,-367 584.513,-355.247 582.733,-348.671 577.322,-336 572.176,-323.947 562.041,-313.576 552.496,-305.839"/>
<polygon fill="midnightblue" stroke="midnightblue" points="554.494,-302.962 544.401,-299.741 550.283,-308.553 554.494,-302.962"/>
</g>
<!-- Node7 -->
<g id="node8" class="node"><title>Node7</title>
<g id="a_node8"><a xlink:href="VectorFeature_8h.html" target="_top" xlink:title="pinhao/Features/VectorFeature.h">
<polygon fill="white" stroke="black" points="409.822,-342 409.822,-361 568.822,-361 568.822,-342 409.822,-342"/>
<text text-anchor="middle" x="489.322" y="-349" font-family="Helvetica,sans-Serif" font-size="10.00">pinhao/Features/VectorFeature.h</text>
</a>
</g>
</g>
<!-- Node1&#45;&gt;Node7 -->
<g id="edge8" class="edge"><title>Node1&#45;&gt;Node7</title>
<path fill="none" stroke="midnightblue" d="M484.422,-403.475C482.591,-395.08 482.119,-381.981 483.008,-371.163"/>
<polygon fill="midnightblue" stroke="midnightblue" points="486.509,-371.397 484.425,-361.009 479.576,-370.429 486.509,-371.397"/>
</g>
<!-- Node19 -->
<g id="node20" class="node"><title>Node19</title>
<g id="a_node20"><a xlink:href="MapFeature_8h.html" target="_top" xlink:title="pinhao/Features/MapFeature.h">
<polygon fill="white" stroke="black" points="242.822,-342 242.822,-361 391.822,-361 391.822,-342 242.822,-342"/>
<text text-anchor="middle" x="317.322" y="-349" font-family="Helvetica,sans-Serif" font-size="10.00">pinhao/Features/MapFeature.h</text>
</a>
</g>
</g>
<!-- Node1&#45;&gt;Node19 -->
<g id="edge28" class="edge"><title>Node1&#45;&gt;Node19</title>
<path fill="none" stroke="midnightblue" d="M459.778,-403.475C428.048,-393.269 378.224,-376.108 346.604,-364.549"/>
<polygon fill="midnightblue" stroke="midnightblue" points="347.616,-361.192 337.023,-361.009 345.19,-367.758 347.616,-361.192"/>
</g>
<!-- Node22 -->
<g id="node23" class="node"><title>Node22</title>
<g id="a_node23"><a xlink:href="MapVectorFeature_8h.html" target="_top" xlink:title="pinhao/Features/MapVector\lFeature.h">
<polygon fill="white" stroke="black" points="87.8224,-336.5 87.8224,-366.5 224.822,-366.5 224.822,-336.5 87.8224,-336.5"/>
<text text-anchor="start" x="95.8224" y="-354.5" font-family="Helvetica,sans-Serif" font-size="10.00">pinhao/Features/MapVector</text>
<text text-anchor="middle" x="156.322" y="-343.5" font-family="Helvetica,sans-Serif" font-size="10.00">Feature.h</text>
</a>
</g>
</g>
<!-- Node1&#45;&gt;Node22 -->
<g id="edge35" class="edge"><title>Node1&#45;&gt;Node22</title>
<path fill="none" stroke="midnightblue" d="M432.995,-403.467C381.56,-394.946 303.431,-381.343 231.94,-368.382"/>
<polygon fill="midnightblue" stroke="midnightblue" points="232.365,-364.902 221.9,-366.558 231.114,-371.789 232.365,-364.902"/>
</g>
<!-- Node3 -->
<g id="node4" class="node"><title>Node3</title>
<polygon fill="white" stroke="#bfbfbf" points="589.822,-112.5 589.822,-131.5 678.822,-131.5 678.822,-112.5 589.822,-112.5"/>
<text text-anchor="middle" x="634.322" y="-119.5" font-family="Helvetica,sans-Serif" font-size="10.00">yaml&#45;cpp/yaml.h</text>
</g>
<!-- Node2&#45;&gt;Node3 -->
<g id="edge3" class="edge"><title>Node2&#45;&gt;Node3</title>
<path fill="none" stroke="midnightblue" d="M635.157,-168.083C635.026,-161.006 634.838,-150.861 634.674,-141.986"/>
<polygon fill="midnightblue" stroke="midnightblue" points="638.169,-141.685 634.484,-131.751 631.17,-141.814 638.169,-141.685"/>
</g>
<!-- Node4 -->
<g id="node5" class="node"><title>Node4</title>
<polygon fill="white" stroke="#bfbfbf" points="517.322,-112.5 517.322,-131.5 571.322,-131.5 571.322,-112.5 517.322,-112.5"/>
<text text-anchor="middle" x="544.322" y="-119.5" font-family="Helvetica,sans-Serif" font-size="10.00">iostream</text>
</g>
<!-- Node2&#45;&gt;Node4 -->
<g id="edge4" class="edge"><title>Node2&#45;&gt;Node4</title>
<path fill="none" stroke="midnightblue" d="M620.702,-168.324C606.373,-159.822 584.31,-146.729 567.574,-136.797"/>
<polygon fill="midnightblue" stroke="midnightblue" points="569.293,-133.748 558.907,-131.655 565.721,-139.768 569.293,-133.748"/>
</g>
<!-- Node5 -->
<g id="node6" class="node"><title>Node5</title>
<polygon fill="white" stroke="#bfbfbf" points="697.322,-112.5 697.322,-131.5 749.322,-131.5 749.322,-112.5 697.322,-112.5"/>
<text text-anchor="middle" x="723.322" y="-119.5" font-family="Helvetica,sans-Serif" font-size="10.00">ostream</text>
</g>
<!-- Node2&#45;&gt;Node5 -->
<g id="edge5" class="edge"><title>Node2&#45;&gt;Node5</title>
<path fill="none" stroke="midnightblue" d="M649.461,-168.324C663.189,-159.9 684.259,-146.971 700.387,-137.074"/>
<polygon fill="midnightblue" stroke="midnightblue" points="702.526,-139.868 709.219,-131.655 698.865,-133.902 702.526,-139.868"/>
</g>
<!-- Node6&#45;&gt;Node3 -->
<g id="edge7" class="edge"><title>Node6&#45;&gt;Node3</title>
<path fill="none" stroke="midnightblue" d="M529.045,-280.421C526.362,-259.18 522.301,-203.308 547.322,-168 558.172,-152.691 575.832,-142.218 592.416,-135.258"/>
<polygon fill="midnightblue" stroke="midnightblue" points="593.93,-138.425 601.996,-131.555 591.406,-131.895 593.93,-138.425"/>
</g>
<!-- Node7&#45;&gt;Node1 -->
<g id="edge27" class="edge"><title>Node7&#45;&gt;Node1</title>
<path fill="none" stroke="midnightblue" d="M494.22,-361.009C496.052,-369.398 496.525,-382.496 495.639,-393.317"/>
<polygon fill="midnightblue" stroke="midnightblue" points="492.137,-393.088 494.223,-403.475 499.07,-394.054 492.137,-393.088"/>
</g>
<!-- Node7&#45;&gt;Node8 -->
<g id="edge9" class="edge"><title>Node7&#45;&gt;Node8</title>
<path fill="none" stroke="midnightblue" d="M476.695,-341.819C448.115,-322.17 378.208,-274.109 342.729,-249.717"/>
<polygon fill="midnightblue" stroke="midnightblue" points="344.32,-246.563 334.096,-243.782 340.354,-252.331 344.32,-246.563"/>
</g>
<!-- Node9 -->
<g id="node10" class="node"><title>Node9</title>
<g id="a_node10"><a xlink:href="Feature_8h.html" target="_top" xlink:title="This file defines the base feature class. ">
<polygon fill="white" stroke="black" points="256.822,-168.5 256.822,-187.5 387.822,-187.5 387.822,-168.5 256.822,-168.5"/>
<text text-anchor="middle" x="322.322" y="-175.5" font-family="Helvetica,sans-Serif" font-size="10.00">pinhao/Features/Feature.h</text>
</a>
</g>
</g>
<!-- Node8&#45;&gt;Node9 -->
<g id="edge10" class="edge"><title>Node8&#45;&gt;Node9</title>
<path fill="none" stroke="midnightblue" d="M321.488,-224.083C321.619,-217.006 321.806,-206.861 321.971,-197.986"/>
<polygon fill="midnightblue" stroke="midnightblue" points="325.474,-197.814 322.16,-187.751 318.476,-197.685 325.474,-197.814"/>
</g>
<!-- Node9&#45;&gt;Node3 -->
<g id="edge23" class="edge"><title>Node9&#45;&gt;Node3</title>
<path fill="none" stroke="midnightblue" d="M371.76,-168.444C428.331,-158.652 520.715,-142.663 579.463,-132.495"/>
<polygon fill="midnightblue" stroke="midnightblue" points="580.409,-135.883 589.666,-130.729 579.215,-128.986 580.409,-135.883"/>
</g>
<!-- Node9&#45;&gt;Node4 -->
<g id="edge26" class="edge"><title>Node9&#45;&gt;Node4</title>
<path fill="none" stroke="midnightblue" d="M357.499,-168.444C398.386,-158.498 465.566,-142.157 507.248,-132.018"/>
<polygon fill="midnightblue" stroke="midnightblue" points="508.119,-135.408 517.009,-129.644 506.465,-128.607 508.119,-135.408"/>
</g>
<!-- Node10 -->
<g id="node11" class="node"><title>Node10</title>
<g id="a_node11"><a xlink:href="FeatureInfo_8h.html" target="_top" xlink:title="This file defines a class that holds some informations about a feature. ">
<polygon fill="white" stroke="black" points="351.822,-112.5 351.822,-131.5 498.822,-131.5 498.822,-112.5 351.822,-112.5"/>
<text text-anchor="middle" x="425.322" y="-119.5" font-family="Helvetica,sans-Serif" font-size="10.00">pinhao/Features/FeatureInfo.h</text>
</a>
</g>
</g>
<!-- Node9&#45;&gt;Node10 -->
<g id="edge11" class="edge"><title>Node9&#45;&gt;Node10</title>
<path fill="none" stroke="midnightblue" d="M338.871,-168.324C355.314,-159.703 380.757,-146.364 399.791,-136.386"/>
<polygon fill="midnightblue" stroke="midnightblue" points="401.583,-139.398 408.815,-131.655 398.333,-133.198 401.583,-139.398"/>
</g>
<!-- Node13 -->
<g id="node14" class="node"><title>Node13</title>
<polygon fill="white" stroke="#bfbfbf" points="52.8224,-56.5 52.8224,-75.5 87.8224,-75.5 87.8224,-56.5 52.8224,-56.5"/>
<text text-anchor="middle" x="70.3224" y="-63.5" font-family="Helvetica,sans-Serif" font-size="10.00">map</text>
</g>
<!-- Node9&#45;&gt;Node13 -->
<g id="edge24" class="edge"><title>Node9&#45;&gt;Node13</title>
<path fill="none" stroke="midnightblue" d="M256.743,-177.19C174.81,-175.868 41.5388,-168.042 10.3224,-132 -5.58405,-113.635 21.0833,-93.1447 43.7795,-80.1698"/>
<polygon fill="midnightblue" stroke="midnightblue" points="45.6981,-83.1106 52.8127,-75.26 42.3552,-76.9604 45.6981,-83.1106"/>
</g>
<!-- Node15 -->
<g id="node16" class="node"><title>Node15</title>
<polygon fill="white" stroke="#bfbfbf" points="291.822,-56.5 291.822,-75.5 340.822,-75.5 340.822,-56.5 291.822,-56.5"/>
<text text-anchor="middle" x="316.322" y="-63.5" font-family="Helvetica,sans-Serif" font-size="10.00">cassert</text>
</g>
<!-- Node9&#45;&gt;Node15 -->
<g id="edge25" class="edge"><title>Node9&#45;&gt;Node15</title>
<path fill="none" stroke="midnightblue" d="M321.852,-168.368C320.883,-150.617 318.65,-109.666 317.337,-85.5974"/>
<polygon fill="midnightblue" stroke="midnightblue" points="320.831,-85.3859 316.791,-75.5914 313.841,-85.7672 320.831,-85.3859"/>
</g>
<!-- Node16 -->
<g id="node17" class="node"><title>Node16</title>
<g id="a_node17"><a xlink:href="FeatureRegistry_8h.html" target="_top" xlink:title="This file defines a class that has all the registered features. ">
<polygon fill="white" stroke="black" points="128.822,-112.5 128.822,-131.5 295.822,-131.5 295.822,-112.5 128.822,-112.5"/>
<text text-anchor="middle" x="212.322" y="-119.5" font-family="Helvetica,sans-Serif" font-size="10.00">pinhao/Features/FeatureRegistry.h</text>
</a>
</g>
</g>
<!-- Node9&#45;&gt;Node16 -->
<g id="edge18" class="edge"><title>Node9&#45;&gt;Node16</title>
<path fill="none" stroke="midnightblue" d="M304.649,-168.324C286.928,-159.625 259.419,-146.12 239.034,-136.113"/>
<polygon fill="midnightblue" stroke="midnightblue" points="240.471,-132.919 229.952,-131.655 237.386,-139.203 240.471,-132.919"/>
</g>
<!-- Node18 -->
<g id="node19" class="node"><title>Node18</title>
<polygon fill="white" stroke="#bfbfbf" points="19.8224,-112.5 19.8224,-131.5 110.822,-131.5 110.822,-112.5 19.8224,-112.5"/>
<text text-anchor="middle" x="65.3224" y="-119.5" font-family="Helvetica,sans-Serif" font-size="10.00">llvm/IR/Module.h</text>
</g>
<!-- Node9&#45;&gt;Node18 -->
<g id="edge22" class="edge"><title>Node9&#45;&gt;Node18</title>
<path fill="none" stroke="midnightblue" d="M281.6,-168.444C236.673,-159.004 164.325,-143.802 115.823,-133.611"/>
<polygon fill="midnightblue" stroke="midnightblue" points="116.36,-130.148 105.854,-131.516 114.921,-136.998 116.36,-130.148"/>
</g>
<!-- Node11 -->
<g id="node12" class="node"><title>Node11</title>
<g id="a_node12"><a xlink:href="Types_8h.html" target="_top" xlink:title="pinhao/Support/Types.h">
<polygon fill="white" stroke="black" points="459.322,-56.5 459.322,-75.5 579.322,-75.5 579.322,-56.5 459.322,-56.5"/>
<text text-anchor="middle" x="519.322" y="-63.5" font-family="Helvetica,sans-Serif" font-size="10.00">pinhao/Support/Types.h</text>
</a>
</g>
</g>
<!-- Node10&#45;&gt;Node11 -->
<g id="edge12" class="edge"><title>Node10&#45;&gt;Node11</title>
<path fill="none" stroke="midnightblue" d="M440.425,-112.324C455.226,-103.822 478.017,-90.7288 495.305,-80.7975"/>
<polygon fill="midnightblue" stroke="midnightblue" points="497.33,-83.6707 504.257,-75.6545 493.843,-77.6009 497.33,-83.6707"/>
</g>
<!-- Node12 -->
<g id="node13" class="node"><title>Node12</title>
<polygon fill="white" stroke="#bfbfbf" points="454.822,-0.5 454.822,-19.5 495.822,-19.5 495.822,-0.5 454.822,-0.5"/>
<text text-anchor="middle" x="475.322" y="-7.5" font-family="Helvetica,sans-Serif" font-size="10.00">string</text>
</g>
<!-- Node10&#45;&gt;Node12 -->
<g id="edge16" class="edge"><title>Node10&#45;&gt;Node12</title>
<path fill="none" stroke="midnightblue" d="M428.188,-112.428C432.492,-99.8418 441.109,-75.7167 450.322,-56 454.673,-46.6887 460.16,-36.6621 464.884,-28.4419"/>
<polygon fill="midnightblue" stroke="midnightblue" points="467.928,-30.17 469.966,-19.7729 461.889,-26.63 467.928,-30.17"/>
</g>
<!-- Node10&#45;&gt;Node13 -->
<g id="edge14" class="edge"><title>Node10&#45;&gt;Node13</title>
<path fill="none" stroke="midnightblue" d="M369.072,-112.444C291.93,-100.709 156.261,-80.0723 98.0857,-71.2232"/>
<polygon fill="midnightblue" stroke="midnightblue" points="98.2525,-67.7083 87.8398,-69.6646 97.1997,-74.6287 98.2525,-67.7083"/>
</g>
<!-- Node14 -->
<g id="node15" class="node"><title>Node14</title>
<polygon fill="white" stroke="#bfbfbf" points="359.322,-56.5 359.322,-75.5 403.322,-75.5 403.322,-56.5 359.322,-56.5"/>
<text text-anchor="middle" x="381.322" y="-63.5" font-family="Helvetica,sans-Serif" font-size="10.00">vector</text>
</g>
<!-- Node10&#45;&gt;Node14 -->
<g id="edge15" class="edge"><title>Node10&#45;&gt;Node14</title>
<path fill="none" stroke="midnightblue" d="M418.057,-112.083C411.778,-104.377 402.535,-93.0333 394.892,-83.6531"/>
<polygon fill="midnightblue" stroke="midnightblue" points="397.483,-81.2926 388.453,-75.7511 392.056,-85.7143 397.483,-81.2926"/>
</g>
<!-- Node10&#45;&gt;Node15 -->
<g id="edge17" class="edge"><title>Node10&#45;&gt;Node15</title>
<path fill="none" stroke="midnightblue" d="M407.81,-112.324C390.25,-103.625 362.991,-90.1202 342.791,-80.113"/>
<polygon fill="midnightblue" stroke="midnightblue" points="344.306,-76.9575 333.792,-75.6545 341.199,-83.23 344.306,-76.9575"/>
</g>
<!-- Node11&#45;&gt;Node12 -->
<g id="edge13" class="edge"><title>Node11&#45;&gt;Node12</title>
<path fill="none" stroke="midnightblue" d="M512.057,-56.083C505.778,-48.3768 496.535,-37.0333 488.892,-27.6531"/>
<polygon fill="midnightblue" stroke="midnightblue" points="491.483,-25.2926 482.453,-19.7511 486.056,-29.7143 491.483,-25.2926"/>
</g>
<!-- Node16&#45;&gt;Node13 -->
<g id="edge21" class="edge"><title>Node16&#45;&gt;Node13</title>
<path fill="none" stroke="midnightblue" d="M189.822,-112.444C164.858,-102.95 124.571,-87.6297 97.7719,-77.4385"/>
<polygon fill="midnightblue" stroke="midnightblue" points="98.8124,-74.0898 88.2213,-73.8067 96.3242,-80.6326 98.8124,-74.0898"/>
</g>
<!-- Node16&#45;&gt;Node15 -->
<g id="edge20" class="edge"><title>Node16&#45;&gt;Node15</title>
<path fill="none" stroke="midnightblue" d="M229.032,-112.324C245.634,-103.703 271.325,-90.3643 290.543,-80.3855"/>
<polygon fill="midnightblue" stroke="midnightblue" points="292.392,-83.3689 299.654,-75.6545 289.167,-77.1565 292.392,-83.3689"/>
</g>
<!-- Node17 -->
<g id="node18" class="node"><title>Node17</title>
<polygon fill="white" stroke="#bfbfbf" points="186.322,-56.5 186.322,-75.5 238.322,-75.5 238.322,-56.5 186.322,-56.5"/>
<text text-anchor="middle" x="212.322" y="-63.5" font-family="Helvetica,sans-Serif" font-size="10.00">memory</text>
</g>
<!-- Node16&#45;&gt;Node17 -->
<g id="edge19" class="edge"><title>Node16&#45;&gt;Node17</title>
<path fill="none" stroke="midnightblue" d="M212.322,-112.083C212.322,-105.006 212.322,-94.8611 212.322,-85.9865"/>
<polygon fill="midnightblue" stroke="midnightblue" points="215.822,-85.751 212.322,-75.7511 208.822,-85.7511 215.822,-85.751"/>
</g>
<!-- Node19&#45;&gt;Node1 -->
<g id="edge30" class="edge"><title>Node19&#45;&gt;Node1</title>
<path fill="none" stroke="midnightblue" d="M346.817,-361.009C378.529,-371.208 428.353,-388.368 459.992,-399.933"/>
<polygon fill="midnightblue" stroke="midnightblue" points="458.986,-403.292 469.58,-403.475 461.412,-396.726 458.986,-403.292"/>
</g>
<!-- Node19&#45;&gt;Node8 -->
<g id="edge29" class="edge"><title>Node19&#45;&gt;Node8</title>
<path fill="none" stroke="midnightblue" d="M317.623,-341.819C318.266,-323.257 319.787,-279.339 320.665,-253.973"/>
<polygon fill="midnightblue" stroke="midnightblue" points="324.17,-253.897 321.018,-243.782 317.174,-253.655 324.17,-253.897"/>
</g>
<!-- Node20 -->
<g id="node21" class="node"><title>Node20</title>
<g id="a_node21"><a xlink:href="Iterator_8h.html" target="_top" xlink:title="pinhao/Support/Iterator.h">
<polygon fill="white" stroke="black" points="110.322,-280.5 110.322,-299.5 234.322,-299.5 234.322,-280.5 110.322,-280.5"/>
<text text-anchor="middle" x="172.322" y="-287.5" font-family="Helvetica,sans-Serif" font-size="10.00">pinhao/Support/Iterator.h</text>
</a>
</g>
</g>
<!-- Node19&#45;&gt;Node20 -->
<g id="edge31" class="edge"><title>Node19&#45;&gt;Node20</title>
<path fill="none" stroke="midnightblue" d="M296.547,-341.975C271.89,-331.857 230.577,-314.905 202.421,-303.351"/>
<polygon fill="midnightblue" stroke="midnightblue" points="203.639,-300.067 193.059,-299.509 200.981,-306.543 203.639,-300.067"/>
</g>
<!-- Node20&#45;&gt;Node8 -->
<g id="edge32" class="edge"><title>Node20&#45;&gt;Node8</title>
<path fill="none" stroke="midnightblue" d="M195.932,-280.444C220.78,-271.438 260.097,-257.189 288.076,-247.049"/>
<polygon fill="midnightblue" stroke="midnightblue" points="289.614,-250.214 297.823,-243.516 287.229,-243.633 289.614,-250.214"/>
</g>
<!-- Node20&#45;&gt;Node13 -->
<g id="edge34" class="edge"><title>Node20&#45;&gt;Node13</title>
<path fill="none" stroke="midnightblue" d="M156.37,-280.467C120.606,-260.301 34.62,-205.792 2.32237,-132 -8.03721,-108.331 20.3765,-89.0924 43.5975,-77.8477"/>
<polygon fill="midnightblue" stroke="midnightblue" points="45.1342,-80.9938 52.7848,-73.6644 42.2334,-74.6231 45.1342,-80.9938"/>
</g>
<!-- Node21 -->
<g id="node22" class="node"><title>Node21</title>
<polygon fill="white" stroke="#bfbfbf" points="148.822,-224.5 148.822,-243.5 195.822,-243.5 195.822,-224.5 148.822,-224.5"/>
<text text-anchor="middle" x="172.322" y="-231.5" font-family="Helvetica,sans-Serif" font-size="10.00">iterator</text>
</g>
<!-- Node20&#45;&gt;Node21 -->
<g id="edge33" class="edge"><title>Node20&#45;&gt;Node21</title>
<path fill="none" stroke="midnightblue" d="M172.322,-280.083C172.322,-273.006 172.322,-262.861 172.322,-253.986"/>
<polygon fill="midnightblue" stroke="midnightblue" points="175.822,-253.751 172.322,-243.751 168.822,-253.751 175.822,-253.751"/>
</g>
<!-- Node22&#45;&gt;Node1 -->
<g id="edge37" class="edge"><title>Node22&#45;&gt;Node1</title>
<path fill="none" stroke="midnightblue" d="M224.961,-363.812C230.852,-364.899 236.701,-365.977 242.322,-367 309.401,-379.211 386.474,-392.683 436.528,-401.674"/>
<polygon fill="midnightblue" stroke="midnightblue" points="436.014,-405.138 446.476,-403.467 437.255,-398.249 436.014,-405.138"/>
</g>
<!-- Node22&#45;&gt;Node8 -->
<g id="edge36" class="edge"><title>Node22&#45;&gt;Node8</title>
<path fill="none" stroke="midnightblue" d="M183.309,-336.376C200.865,-326.817 224.002,-313.513 243.322,-300 265.504,-284.486 289.141,-264.195 304.505,-250.441"/>
<polygon fill="midnightblue" stroke="midnightblue" points="307.061,-252.849 312.128,-243.545 302.364,-247.658 307.061,-252.849"/>
</g>
<!-- Node22&#45;&gt;Node20 -->
<g id="edge38" class="edge"><title>Node22&#45;&gt;Node20</title>
<path fill="none" stroke="midnightblue" d="M160.114,-336.399C162.271,-328.377 164.999,-318.233 167.329,-309.569"/>
<polygon fill="midnightblue" stroke="midnightblue" points="170.777,-310.224 169.994,-299.658 164.017,-308.406 170.777,-310.224"/>
</g>
</g>
</svg>
        <g id="navigator" transform="translate(0 0)" fill="#404254">
                <rect fill="#f2f5e9" fill-opacity="0.5" stroke="#606060" stroke-width=".5" x="0" y="0" width="60" height="60"/>
                <use id="zoomplus" xlink:href="#zoomPlus" x="17" y="9" onmousedown="handleZoom(evt,'in')"/>
                <use id="zoomminus" xlink:href="#zoomMin" x="42" y="9" onmousedown="handleZoom(evt,'out')"/>
                <use id="reset" xlink:href="#resetDef" x="30" y="36" onmousedown="handleReset()"/>
                <g id="arrowUp" xlink:href="#dirArrow" transform="translate(30 24)" onmousedown="handlePan(0,-1)">
                  <use xlink:href="#rim" fill="#404040">
                        <set attributeName="fill" to="#808080" begin="arrowUp.mouseover" end="arrowUp.mouseout"/>
                  </use>
                  <path fill="none" stroke="white" stroke-width="1.5" d="M0,-3.0v7 M-2.5,-0.5L0,-3.0L2.5,-0.5"/>
                </g>
                <g id="arrowRight" xlink:href="#dirArrow" transform="rotate(90) translate(36 -43)" onmousedown="handlePan(1,0)">
                  <use xlink:href="#rim" fill="#404040">
                        <set attributeName="fill" to="#808080" begin="arrowRight.mouseover" end="arrowRight.mouseout"/>
                  </use>
                  <path fill="none" stroke="white" stroke-width="1.5" d="M0,-3.0v7 M-2.5,-0.5L0,-3.0L2.5,-0.5"/>
                </g>
                <g id="arrowDown" xlink:href="#dirArrow" transform="rotate(180) translate(-30 -48)" onmousedown="handlePan(0,1)">
                  <use xlink:href="#rim" fill="#404040">
                        <set attributeName="fill" to="#808080" begin="arrowDown.mouseover" end="arrowDown.mouseout"/>
                  </use>
                  <path fill="none" stroke="white" stroke-width="1.5" d="M0,-3.0v7 M-2.5,-0.5L0,-3.0L2.5,-0.5"/>
                </g>
                <g id="arrowLeft" xlink:href="#dirArrow" transform="rotate(270) translate(-36 17)" onmousedown="handlePan(-1,0)">
                  <use xlink:href="#rim" fill="#404040">
                        <set attributeName="fill" to="#808080" begin="arrowLeft.mouseover" end="arrowLeft.mouseout"/>
                  </use>
                  <path fill="none" stroke="white" stroke-width="1.5" d="M0,-3.0v7 M-2.5,-0.5L0,-3.0L2.5,-0.5"/>
                </g>
        </g>
        <svg viewBox="0 0 15 15" width="100%" height="30px" preserveAspectRatio="xMaxYMin meet">
         <g id="arrow_out" transform="scale(0.3 0.3)">
          <a xlink:href="FeatureYAMLWrapper_8cpp__incl_org.svg" target="_base">
           <rect id="button" ry="5" rx="5" y="6" x="6" height="38" width="38"
                fill="#f2f5e9" fill-opacity="0.5" stroke="#606060" stroke-width="1.0"/>
           <path id="arrow"
             d="M 11.500037,31.436501 C 11.940474,20.09759 22.043105,11.32322 32.158766,21.979434 L 37.068811,17.246167 C 37.068811,17.246167 37.088388,32 37.088388,32 L 22.160133,31.978069 C 22.160133,31.978069 26.997745,27.140456 26.997745,27.140456 C 18.528582,18.264221 13.291696,25.230495 11.500037,31.436501 z"
             style="fill:#404040;"/>
          </a>
         </g>
        </svg>
</svg>
