<?xml version="1.0" encoding="UTF-8" standalone="no"?>
<!DOCTYPE svg PUBLIC "-//W3C//DTD SVG 1.1//EN"
 "http://www.w3.org/Graphics/SVG/1.1/DTD/svg11.dtd">
<!-- Generated by graphviz version 2.38.0 (20140413.2041)
 -->
<!-- Title: /home/yukiosir/workspace/CompilerProject/Software/pinhao/lib/Features/FeatureSet.cpp Pages: 1 -->
<!--zoomable 386 -->
<svg id="main" version="1.1" xmlns="http://www.w3.org/2000/svg" xmlns:xlink="http://www.w3.org/1999/xlink" xml:space="preserve" onload="init(evt)">
<style type="text/css"><![CDATA[
.edge:hover path { stroke: red; }
.edge:hover polygon { stroke: red; fill: red; }
]]></style>
<script type="text/javascript"><![CDATA[
var edges = document.getElementsByTagName('g');
if (edges && edges.length) {
  for (var i=0;i<edges.length;i++) {
    if (edges[i].id.substr(0,4)=='edge') {
      edges[i].setAttribute('class','edge');
    }
  }
}
]]></script>
        <defs>
                <circle id="rim" cx="0" cy="0" r="7"/>
                <circle id="rim2" cx="0" cy="0" r="3.5"/>
                <g id="zoomPlus">
                        <use xlink:href="#rim" fill="#404040">
                                <set attributeName="fill" to="#808080" begin="zoomplus.mouseover" end="zoomplus.mouseout"/>
                        </use>
                        <path d="M-4,0h8M0,-4v8" fill="none" stroke="white" stroke-width="1.5" pointer-events="none"/>
                </g>
                <g id="zoomMin">
                        <use xlink:href="#rim" fill="#404040">
                                <set attributeName="fill" to="#808080" begin="zoomminus.mouseover" end="zoomminus.mouseout"/>
                        </use>
                        <path d="M-4,0h8" fill="none" stroke="white" stroke-width="1.5" pointer-events="none"/>
                </g>
                <g id="dirArrow">
                        <path fill="none" stroke="white" stroke-width="1.5" d="M0,-3.0v7 M-2.5,-0.5L0,-3.0L2.5,-0.5"/>
                </g>
               <g id="resetDef">
                       <use xlink:href="#rim2" fill="#404040">
                               <set attributeName="fill" to="#808080" begin="reset.mouseover" end="reset.mouseout"/>
                       </use>
               </g>
        </defs>

<script type="text/javascript">
var viewWidth = 803;
var viewHeight = 386;
var sectionId = 'dynsection-0';
</script>
<script xlink:href="svgpan.js"/>
<svg id="graph" class="graph">
<g id="viewport">
<title>/home/yukiosir/workspace/CompilerProject/Software/pinhao/lib/Features/FeatureSet.cpp</title>
<polygon fill="white" stroke="none" points="-4,4 -4,-382 799.321,-382 799.321,4 -4,4"/>
<!-- Node0 -->
<g id="node1" class="node"><title>Node0</title>
<polygon fill="#bfbfbf" stroke="black" points="530.321,-336.5 530.321,-377.5 702.321,-377.5 702.321,-336.5 530.321,-336.5"/>
<text text-anchor="start" x="538.321" y="-365.5" font-family="Helvetica,sans-Serif" font-size="10.00">/home/yukiosir/workspace</text>
<text text-anchor="start" x="538.321" y="-354.5" font-family="Helvetica,sans-Serif" font-size="10.00">/CompilerProject/Software</text>
<text text-anchor="middle" x="616.321" y="-343.5" font-family="Helvetica,sans-Serif" font-size="10.00">/pinhao/lib/Features/FeatureSet.cpp</text>
</g>
<!-- Node1 -->
<g id="node2" class="node"><title>Node1</title>
<g id="a_node2"><a xlink:href="FeatureSet_8h.html" target="_top" xlink:title="This file defines a class which contains the features selected by the user (by some command line)...">
<polygon fill="white" stroke="black" points="471.321,-280.5 471.321,-299.5 617.321,-299.5 617.321,-280.5 471.321,-280.5"/>
<text text-anchor="middle" x="544.321" y="-287.5" font-family="Helvetica,sans-Serif" font-size="10.00">pinhao/Features/FeatureSet.h</text>
</a>
</g>
</g>
<!-- Node0&#45;&gt;Node1 -->
<g id="edge1" class="edge"><title>Node0&#45;&gt;Node1</title>
<path fill="none" stroke="midnightblue" d="M594.719,-336.498C584.104,-326.915 571.491,-315.528 561.538,-306.543"/>
<polygon fill="midnightblue" stroke="midnightblue" points="563.673,-303.756 553.905,-299.652 558.983,-308.952 563.673,-303.756"/>
</g>
<!-- Node15 -->
<g id="node16" class="node"><title>Node15</title>
<polygon fill="white" stroke="#bfbfbf" points="635.821,-280.5 635.821,-299.5 740.821,-299.5 740.821,-280.5 635.821,-280.5"/>
<text text-anchor="middle" x="688.321" y="-287.5" font-family="Helvetica,sans-Serif" font-size="10.00">llvm/PassRegistry.h</text>
</g>
<!-- Node0&#45;&gt;Node15 -->
<g id="edge24" class="edge"><title>Node0&#45;&gt;Node15</title>
<path fill="none" stroke="midnightblue" d="M637.923,-336.498C648.538,-326.915 661.152,-315.528 671.104,-306.543"/>
<polygon fill="midnightblue" stroke="midnightblue" points="673.659,-308.952 678.737,-299.652 668.969,-303.756 673.659,-308.952"/>
</g>
<!-- Node2 -->
<g id="node3" class="node"><title>Node2</title>
<g id="a_node3"><a xlink:href="Features_8h.html" target="_top" xlink:title="This file implements some basic feature classes that extends the base class Feature. ">
<polygon fill="white" stroke="black" points="301.321,-224.5 301.321,-243.5 437.321,-243.5 437.321,-224.5 301.321,-224.5"/>
<text text-anchor="middle" x="369.321" y="-231.5" font-family="Helvetica,sans-Serif" font-size="10.00">pinhao/Features/Features.h</text>
</a>
</g>
</g>
<!-- Node1&#45;&gt;Node2 -->
<g id="edge2" class="edge"><title>Node1&#45;&gt;Node2</title>
<path fill="none" stroke="midnightblue" d="M516.592,-280.444C486.896,-271.28 439.605,-256.688 406.652,-246.519"/>
<polygon fill="midnightblue" stroke="midnightblue" points="407.508,-243.121 396.921,-243.516 405.444,-249.809 407.508,-243.121"/>
</g>
<!-- Node7 -->
<g id="node8" class="node"><title>Node7</title>
<polygon fill="white" stroke="#bfbfbf" points="383.821,-56.5 383.821,-75.5 418.821,-75.5 418.821,-56.5 383.821,-56.5"/>
<text text-anchor="middle" x="401.321" y="-63.5" font-family="Helvetica,sans-Serif" font-size="10.00">map</text>
</g>
<!-- Node1&#45;&gt;Node7 -->
<g id="edge21" class="edge"><title>Node1&#45;&gt;Node7</title>
<path fill="none" stroke="midnightblue" d="M546.186,-280.472C551.718,-252.757 565.225,-164.024 524.321,-112 501.391,-82.8357 457.728,-72.5674 429.073,-68.9554"/>
<polygon fill="midnightblue" stroke="midnightblue" points="429.215,-65.4508 418.9,-67.8715 428.473,-72.4114 429.215,-65.4508"/>
</g>
<!-- Node8 -->
<g id="node9" class="node"><title>Node8</title>
<polygon fill="white" stroke="#bfbfbf" points="751.321,-56.5 751.321,-75.5 795.321,-75.5 795.321,-56.5 751.321,-56.5"/>
<text text-anchor="middle" x="773.321" y="-63.5" font-family="Helvetica,sans-Serif" font-size="10.00">vector</text>
</g>
<!-- Node1&#45;&gt;Node8 -->
<g id="edge22" class="edge"><title>Node1&#45;&gt;Node8</title>
<path fill="none" stroke="midnightblue" d="M567.108,-280.46C613.679,-261.676 719.327,-211.974 766.321,-132 774.497,-118.086 775.75,-99.5764 775.249,-85.8684"/>
<polygon fill="midnightblue" stroke="midnightblue" points="778.726,-85.4171 774.528,-75.6893 771.743,-85.9116 778.726,-85.4171"/>
</g>
<!-- Node9 -->
<g id="node10" class="node"><title>Node9</title>
<polygon fill="white" stroke="#bfbfbf" points="61.8211,-56.5 61.8211,-75.5 110.821,-75.5 110.821,-56.5 61.8211,-56.5"/>
<text text-anchor="middle" x="86.3211" y="-63.5" font-family="Helvetica,sans-Serif" font-size="10.00">cassert</text>
</g>
<!-- Node1&#45;&gt;Node9 -->
<g id="edge20" class="edge"><title>Node1&#45;&gt;Node9</title>
<path fill="none" stroke="midnightblue" d="M480.146,-280.474C349.125,-261.558 58.6176,-211.373 4.3211,-132 -11.8512,-108.359 23.0056,-89.1813 52.1668,-77.9377"/>
<polygon fill="midnightblue" stroke="midnightblue" points="53.5647,-81.1533 61.756,-74.4338 51.1622,-74.5785 53.5647,-81.1533"/>
</g>
<!-- Node11 -->
<g id="node12" class="node"><title>Node11</title>
<polygon fill="white" stroke="#bfbfbf" points="232.321,-56.5 232.321,-75.5 284.321,-75.5 284.321,-56.5 232.321,-56.5"/>
<text text-anchor="middle" x="258.321" y="-63.5" font-family="Helvetica,sans-Serif" font-size="10.00">memory</text>
</g>
<!-- Node1&#45;&gt;Node11 -->
<g id="edge23" class="edge"><title>Node1&#45;&gt;Node11</title>
<path fill="none" stroke="midnightblue" d="M549.959,-280.481C555.375,-271.745 563.185,-257.556 566.321,-244 578.293,-192.253 536.803,-122.298 524.321,-112 506.795,-97.541 363.017,-79.1479 294.446,-71.0913"/>
<polygon fill="midnightblue" stroke="midnightblue" points="294.845,-67.6142 284.507,-69.9342 294.035,-74.5672 294.845,-67.6142"/>
</g>
<!-- Node3 -->
<g id="node4" class="node"><title>Node3</title>
<g id="a_node4"><a xlink:href="Feature_8h.html" target="_top" xlink:title="This file defines the base feature class. ">
<polygon fill="white" stroke="black" points="260.821,-168.5 260.821,-187.5 391.821,-187.5 391.821,-168.5 260.821,-168.5"/>
<text text-anchor="middle" x="326.321" y="-175.5" font-family="Helvetica,sans-Serif" font-size="10.00">pinhao/Features/Feature.h</text>
</a>
</g>
</g>
<!-- Node2&#45;&gt;Node3 -->
<g id="edge3" class="edge"><title>Node2&#45;&gt;Node3</title>
<path fill="none" stroke="midnightblue" d="M362.221,-224.083C356.084,-216.377 347.051,-205.033 339.582,-195.653"/>
<polygon fill="midnightblue" stroke="midnightblue" points="342.257,-193.394 333.29,-187.751 336.781,-197.754 342.257,-193.394"/>
</g>
<!-- Node4 -->
<g id="node5" class="node"><title>Node4</title>
<g id="a_node5"><a xlink:href="FeatureInfo_8h.html" target="_top" xlink:title="This file defines a class that holds some informations about a feature. ">
<polygon fill="white" stroke="black" points="610.821,-112.5 610.821,-131.5 757.821,-131.5 757.821,-112.5 610.821,-112.5"/>
<text text-anchor="middle" x="684.321" y="-119.5" font-family="Helvetica,sans-Serif" font-size="10.00">pinhao/Features/FeatureInfo.h</text>
</a>
</g>
</g>
<!-- Node3&#45;&gt;Node4 -->
<g id="edge4" class="edge"><title>Node3&#45;&gt;Node4</title>
<path fill="none" stroke="midnightblue" d="M383.047,-168.444C446.809,-158.826 550.22,-143.228 617.754,-133.041"/>
<polygon fill="midnightblue" stroke="midnightblue" points="618.494,-136.469 627.86,-131.516 617.45,-129.547 618.494,-136.469"/>
</g>
<!-- Node3&#45;&gt;Node7 -->
<g id="edge17" class="edge"><title>Node3&#45;&gt;Node7</title>
<path fill="none" stroke="midnightblue" d="M319.841,-168.372C310.874,-155.291 297,-130.055 308.321,-112 322.552,-89.3047 351.831,-77.7744 373.756,-72.1061"/>
<polygon fill="midnightblue" stroke="midnightblue" points="374.583,-75.5072 383.531,-69.8331 372.998,-68.6891 374.583,-75.5072"/>
</g>
<!-- Node3&#45;&gt;Node9 -->
<g id="edge18" class="edge"><title>Node3&#45;&gt;Node9</title>
<path fill="none" stroke="midnightblue" d="M260.534,-177.223C178.34,-175.935 44.6437,-168.148 13.3211,-132 -4.07511,-111.924 27.1008,-92.0954 53.9504,-79.7187"/>
<polygon fill="midnightblue" stroke="midnightblue" points="55.4329,-82.8904 63.1803,-75.6635 52.6171,-76.4817 55.4329,-82.8904"/>
</g>
<!-- Node10 -->
<g id="node11" class="node"><title>Node10</title>
<g id="a_node11"><a xlink:href="FeatureRegistry_8h.html" target="_top" xlink:title="This file defines a class that has all the registered features. ">
<polygon fill="white" stroke="black" points="94.8211,-112.5 94.8211,-131.5 261.821,-131.5 261.821,-112.5 94.8211,-112.5"/>
<text text-anchor="middle" x="178.321" y="-119.5" font-family="Helvetica,sans-Serif" font-size="10.00">pinhao/Features/FeatureRegistry.h</text>
</a>
</g>
</g>
<!-- Node3&#45;&gt;Node10 -->
<g id="edge11" class="edge"><title>Node3&#45;&gt;Node10</title>
<path fill="none" stroke="midnightblue" d="M302.87,-168.444C278.188,-159.438 239.136,-145.189 211.344,-135.049"/>
<polygon fill="midnightblue" stroke="midnightblue" points="212.256,-131.656 201.662,-131.516 209.857,-138.232 212.256,-131.656"/>
</g>
<!-- Node12 -->
<g id="node13" class="node"><title>Node12</title>
<polygon fill="white" stroke="#bfbfbf" points="317.821,-112.5 317.821,-131.5 408.821,-131.5 408.821,-112.5 317.821,-112.5"/>
<text text-anchor="middle" x="363.321" y="-119.5" font-family="Helvetica,sans-Serif" font-size="10.00">llvm/IR/Module.h</text>
</g>
<!-- Node3&#45;&gt;Node12 -->
<g id="edge15" class="edge"><title>Node3&#45;&gt;Node12</title>
<path fill="none" stroke="midnightblue" d="M332.431,-168.083C337.603,-160.534 345.167,-149.495 351.516,-140.23"/>
<polygon fill="midnightblue" stroke="midnightblue" points="354.56,-141.979 357.325,-131.751 348.785,-138.022 354.56,-141.979"/>
</g>
<!-- Node13 -->
<g id="node14" class="node"><title>Node13</title>
<polygon fill="white" stroke="#bfbfbf" points="426.821,-112.5 426.821,-131.5 515.821,-131.5 515.821,-112.5 426.821,-112.5"/>
<text text-anchor="middle" x="471.321" y="-119.5" font-family="Helvetica,sans-Serif" font-size="10.00">yaml&#45;cpp/yaml.h</text>
</g>
<!-- Node3&#45;&gt;Node13 -->
<g id="edge16" class="edge"><title>Node3&#45;&gt;Node13</title>
<path fill="none" stroke="midnightblue" d="M349.297,-168.444C373.478,-159.438 411.739,-145.189 438.967,-135.049"/>
<polygon fill="midnightblue" stroke="midnightblue" points="440.303,-138.286 448.453,-131.516 437.86,-131.727 440.303,-138.286"/>
</g>
<!-- Node14 -->
<g id="node15" class="node"><title>Node14</title>
<polygon fill="white" stroke="#bfbfbf" points="22.3211,-112.5 22.3211,-131.5 76.3211,-131.5 76.3211,-112.5 22.3211,-112.5"/>
<text text-anchor="middle" x="49.3211" y="-119.5" font-family="Helvetica,sans-Serif" font-size="10.00">iostream</text>
</g>
<!-- Node3&#45;&gt;Node14 -->
<g id="edge19" class="edge"><title>Node3&#45;&gt;Node14</title>
<path fill="none" stroke="midnightblue" d="M275.83,-168.487C229.141,-160.408 157.603,-147.512 86.4426,-132.142"/>
<polygon fill="midnightblue" stroke="midnightblue" points="86.9224,-128.665 76.4067,-129.958 85.4333,-135.505 86.9224,-128.665"/>
</g>
<!-- Node5 -->
<g id="node6" class="node"><title>Node5</title>
<g id="a_node6"><a xlink:href="Types_8h.html" target="_top" xlink:title="pinhao/Support/Types.h">
<polygon fill="white" stroke="black" points="549.321,-56.5 549.321,-75.5 669.321,-75.5 669.321,-56.5 549.321,-56.5"/>
<text text-anchor="middle" x="609.321" y="-63.5" font-family="Helvetica,sans-Serif" font-size="10.00">pinhao/Support/Types.h</text>
</a>
</g>
</g>
<!-- Node4&#45;&gt;Node5 -->
<g id="edge5" class="edge"><title>Node4&#45;&gt;Node5</title>
<path fill="none" stroke="midnightblue" d="M672.271,-112.324C660.858,-104.107 643.49,-91.6017 629.886,-81.8069"/>
<polygon fill="midnightblue" stroke="midnightblue" points="631.751,-78.8366 621.59,-75.8339 627.661,-84.5174 631.751,-78.8366"/>
</g>
<!-- Node6 -->
<g id="node7" class="node"><title>Node6</title>
<polygon fill="white" stroke="#bfbfbf" points="632.821,-0.5 632.821,-19.5 673.821,-19.5 673.821,-0.5 632.821,-0.5"/>
<text text-anchor="middle" x="653.321" y="-7.5" font-family="Helvetica,sans-Serif" font-size="10.00">string</text>
</g>
<!-- Node4&#45;&gt;Node6 -->
<g id="edge9" class="edge"><title>Node4&#45;&gt;Node6</title>
<path fill="none" stroke="midnightblue" d="M684.64,-112.369C684.862,-99.7074 684.341,-75.4903 678.321,-56 675.326,-46.3027 670.068,-36.3537 665.145,-28.2845"/>
<polygon fill="midnightblue" stroke="midnightblue" points="668.037,-26.3097 659.675,-19.8032 662.154,-30.1039 668.037,-26.3097"/>
</g>
<!-- Node4&#45;&gt;Node7 -->
<g id="edge7" class="edge"><title>Node4&#45;&gt;Node7</title>
<path fill="none" stroke="midnightblue" d="M639.479,-112.444C580.237,-101.139 477.694,-81.573 428.796,-72.2426"/>
<polygon fill="midnightblue" stroke="midnightblue" points="429.416,-68.7978 418.937,-70.3614 428.104,-75.6737 429.416,-68.7978"/>
</g>
<!-- Node4&#45;&gt;Node8 -->
<g id="edge8" class="edge"><title>Node4&#45;&gt;Node8</title>
<path fill="none" stroke="midnightblue" d="M698.62,-112.324C712.504,-103.9 733.813,-90.9709 750.125,-81.0741"/>
<polygon fill="midnightblue" stroke="midnightblue" points="752.323,-83.8341 759.057,-75.6545 748.692,-77.8495 752.323,-83.8341"/>
</g>
<!-- Node4&#45;&gt;Node9 -->
<g id="edge10" class="edge"><title>Node4&#45;&gt;Node9</title>
<path fill="none" stroke="midnightblue" d="M610.695,-114.351C480.835,-102.625 215.865,-78.6979 121.037,-70.1349"/>
<polygon fill="midnightblue" stroke="midnightblue" points="121.123,-66.6285 110.849,-69.2149 120.494,-73.6001 121.123,-66.6285"/>
</g>
<!-- Node5&#45;&gt;Node6 -->
<g id="edge6" class="edge"><title>Node5&#45;&gt;Node6</title>
<path fill="none" stroke="midnightblue" d="M616.587,-56.083C622.866,-48.3768 632.109,-37.0333 639.752,-27.6531"/>
<polygon fill="midnightblue" stroke="midnightblue" points="642.587,-29.7143 646.191,-19.7511 637.16,-25.2926 642.587,-29.7143"/>
</g>
<!-- Node10&#45;&gt;Node7 -->
<g id="edge14" class="edge"><title>Node10&#45;&gt;Node7</title>
<path fill="none" stroke="midnightblue" d="M213.656,-112.444C258.075,-101.687 333.385,-83.4509 373.777,-73.6698"/>
<polygon fill="midnightblue" stroke="midnightblue" points="374.827,-77.0169 383.722,-71.2616 373.179,-70.2135 374.827,-77.0169"/>
</g>
<!-- Node10&#45;&gt;Node9 -->
<g id="edge13" class="edge"><title>Node10&#45;&gt;Node9</title>
<path fill="none" stroke="midnightblue" d="M163.54,-112.324C149.054,-103.822 126.748,-90.7288 109.828,-80.7975"/>
<polygon fill="midnightblue" stroke="midnightblue" points="111.462,-77.6981 101.066,-75.6545 107.918,-83.735 111.462,-77.6981"/>
</g>
<!-- Node10&#45;&gt;Node11 -->
<g id="edge12" class="edge"><title>Node10&#45;&gt;Node11</title>
<path fill="none" stroke="midnightblue" d="M191.174,-112.324C203.537,-103.979 222.451,-91.2122 237.058,-81.3524"/>
<polygon fill="midnightblue" stroke="midnightblue" points="239.169,-84.1503 245.5,-75.6545 235.253,-78.3483 239.169,-84.1503"/>
</g>
</g>
</svg>
        <g id="navigator" transform="translate(0 0)" fill="#404254">
                <rect fill="#f2f5e9" fill-opacity="0.5" stroke="#606060" stroke-width=".5" x="0" y="0" width="60" height="60"/>
                <use id="zoomplus" xlink:href="#zoomPlus" x="17" y="9" onmousedown="handleZoom(evt,'in')"/>
                <use id="zoomminus" xlink:href="#zoomMin" x="42" y="9" onmousedown="handleZoom(evt,'out')"/>
                <use id="reset" xlink:href="#resetDef" x="30" y="36" onmousedown="handleReset()"/>
                <g id="arrowUp" xlink:href="#dirArrow" transform="translate(30 24)" onmousedown="handlePan(0,-1)">
                  <use xlink:href="#rim" fill="#404040">
                        <set attributeName="fill" to="#808080" begin="arrowUp.mouseover" end="arrowUp.mouseout"/>
                  </use>
                  <path fill="none" stroke="white" stroke-width="1.5" d="M0,-3.0v7 M-2.5,-0.5L0,-3.0L2.5,-0.5"/>
                </g>
                <g id="arrowRight" xlink:href="#dirArrow" transform="rotate(90) translate(36 -43)" onmousedown="handlePan(1,0)">
                  <use xlink:href="#rim" fill="#404040">
                        <set attributeName="fill" to="#808080" begin="arrowRight.mouseover" end="arrowRight.mouseout"/>
                  </use>
                  <path fill="none" stroke="white" stroke-width="1.5" d="M0,-3.0v7 M-2.5,-0.5L0,-3.0L2.5,-0.5"/>
                </g>
                <g id="arrowDown" xlink:href="#dirArrow" transform="rotate(180) translate(-30 -48)" onmousedown="handlePan(0,1)">
                  <use xlink:href="#rim" fill="#404040">
                        <set attributeName="fill" to="#808080" begin="arrowDown.mouseover" end="arrowDown.mouseout"/>
                  </use>
                  <path fill="none" stroke="white" stroke-width="1.5" d="M0,-3.0v7 M-2.5,-0.5L0,-3.0L2.5,-0.5"/>
                </g>
                <g id="arrowLeft" xlink:href="#dirArrow" transform="rotate(270) translate(-36 17)" onmousedown="handlePan(-1,0)">
                  <use xlink:href="#rim" fill="#404040">
                        <set attributeName="fill" to="#808080" begin="arrowLeft.mouseover" end="arrowLeft.mouseout"/>
                  </use>
                  <path fill="none" stroke="white" stroke-width="1.5" d="M0,-3.0v7 M-2.5,-0.5L0,-3.0L2.5,-0.5"/>
                </g>
        </g>
        <svg viewBox="0 0 15 15" width="100%" height="30px" preserveAspectRatio="xMaxYMin meet">
         <g id="arrow_out" transform="scale(0.3 0.3)">
          <a xlink:href="FeatureSet_8cpp__incl_org.svg" target="_base">
           <rect id="button" ry="5" rx="5" y="6" x="6" height="38" width="38"
                fill="#f2f5e9" fill-opacity="0.5" stroke="#606060" stroke-width="1.0"/>
           <path id="arrow"
             d="M 11.500037,31.436501 C 11.940474,20.09759 22.043105,11.32322 32.158766,21.979434 L 37.068811,17.246167 C 37.068811,17.246167 37.088388,32 37.088388,32 L 22.160133,31.978069 C 22.160133,31.978069 26.997745,27.140456 26.997745,27.140456 C 18.528582,18.264221 13.291696,25.230495 11.500037,31.436501 z"
             style="fill:#404040;"/>
          </a>
         </g>
        </svg>
</svg>
