<?xml version="1.0" encoding="UTF-8" standalone="no"?>
<!DOCTYPE svg PUBLIC "-//W3C//DTD SVG 1.1//EN"
 "http://www.w3.org/Graphics/SVG/1.1/DTD/svg11.dtd">
<!-- Generated by graphviz version 2.38.0 (20140413.2041)
 -->
<!-- Title: /home/yukiosir/workspace/CompilerProject/Software/pinhao/include/pinhao/Support/FeatureYAMLWrapper.h Pages: 1 -->
<!--zoomable 464 -->
<svg id="main" version="1.1" xmlns="http://www.w3.org/2000/svg" xmlns:xlink="http://www.w3.org/1999/xlink" xml:space="preserve" onload="init(evt)">
<style type="text/css"><![CDATA[
.edge:hover path { stroke: red; }
.edge:hover polygon { stroke: red; fill: red; }
]]></style>
<script type="text/javascript"><![CDATA[
var edges = document.getElementsByTagName('g');
if (edges && edges.length) {
  for (var i=0;i<edges.length;i++) {
    if (edges[i].id.substr(0,4)=='edge') {
      edges[i].setAttribute('class','edge');
    }
  }
}
]]></script>
        <defs>
                <circle id="rim" cx="0" cy="0" r="7"/>
                <circle id="rim2" cx="0" cy="0" r="3.5"/>
                <g id="zoomPlus">
                        <use xlink:href="#rim" fill="#404040">
                                <set attributeName="fill" to="#808080" begin="zoomplus.mouseover" end="zoomplus.mouseout"/>
                        </use>
                        <path d="M-4,0h8M0,-4v8" fill="none" stroke="white" stroke-width="1.5" pointer-events="none"/>
                </g>
                <g id="zoomMin">
                        <use xlink:href="#rim" fill="#404040">
                                <set attributeName="fill" to="#808080" begin="zoomminus.mouseover" end="zoomminus.mouseout"/>
                        </use>
                        <path d="M-4,0h8" fill="none" stroke="white" stroke-width="1.5" pointer-events="none"/>
                </g>
                <g id="dirArrow">
                        <path fill="none" stroke="white" stroke-width="1.5" d="M0,-3.0v7 M-2.5,-0.5L0,-3.0L2.5,-0.5"/>
                </g>
               <g id="resetDef">
                       <use xlink:href="#rim2" fill="#404040">
                               <set attributeName="fill" to="#808080" begin="reset.mouseover" end="reset.mouseout"/>
                       </use>
               </g>
        </defs>

<script type="text/javascript">
var viewWidth = 880;
var viewHeight = 464;
var sectionId = 'dynsection-0';
</script>
<script xlink:href="svgpan.js"/>
<svg id="graph" class="graph">
<g id="viewport">
<title>/home/yukiosir/workspace/CompilerProject/Software/pinhao/include/pinhao/Support/FeatureYAMLWrapper.h</title>
<polygon fill="white" stroke="none" points="-4,4 -4,-460 875.5,-460 875.5,4 -4,4"/>
<!-- Node0 -->
<g id="node1" class="node"><title>Node0</title>
<polygon fill="#bfbfbf" stroke="black" points="340,-403.5 340,-455.5 490,-455.5 490,-403.5 340,-403.5"/>
<text text-anchor="start" x="348" y="-443.5" font-family="Helvetica,sans-Serif" font-size="10.00">/home/yukiosir/workspace</text>
<text text-anchor="start" x="348" y="-432.5" font-family="Helvetica,sans-Serif" font-size="10.00">/CompilerProject/Software</text>
<text text-anchor="start" x="348" y="-421.5" font-family="Helvetica,sans-Serif" font-size="10.00">/pinhao/include/pinhao/Support</text>
<text text-anchor="middle" x="415" y="-410.5" font-family="Helvetica,sans-Serif" font-size="10.00">/FeatureYAMLWrapper.h</text>
</g>
<!-- Node1 -->
<g id="node2" class="node"><title>Node1</title>
<g id="a_node2"><a xlink:href="YAMLWrapper_8h.html" target="_top" xlink:title="pinhao/Support/YAMLWrapper.h">
<polygon fill="white" stroke="black" points="36.5,-168.5 36.5,-187.5 193.5,-187.5 193.5,-168.5 36.5,-168.5"/>
<text text-anchor="middle" x="115" y="-175.5" font-family="Helvetica,sans-Serif" font-size="10.00">pinhao/Support/YAMLWrapper.h</text>
</a>
</g>
</g>
<!-- Node0&#45;&gt;Node1 -->
<g id="edge1" class="edge"><title>Node0&#45;&gt;Node1</title>
<path fill="none" stroke="midnightblue" d="M339.809,-417.205C273.329,-402.733 180.503,-370.478 138,-300 118.648,-267.911 115.013,-223.053 114.645,-197.945"/>
<polygon fill="midnightblue" stroke="midnightblue" points="118.146,-197.639 114.667,-187.632 111.146,-197.624 118.146,-197.639"/>
</g>
<!-- Node5 -->
<g id="node6" class="node"><title>Node5</title>
<g id="a_node6"><a xlink:href="YamlOptions_8h.html" target="_top" xlink:title="pinhao/Support/YamlOptions.h">
<polygon fill="white" stroke="black" points="147.5,-280.5 147.5,-299.5 296.5,-299.5 296.5,-280.5 147.5,-280.5"/>
<text text-anchor="middle" x="222" y="-287.5" font-family="Helvetica,sans-Serif" font-size="10.00">pinhao/Support/YamlOptions.h</text>
</a>
</g>
</g>
<!-- Node0&#45;&gt;Node5 -->
<g id="edge5" class="edge"><title>Node0&#45;&gt;Node5</title>
<path fill="none" stroke="midnightblue" d="M339.868,-418.884C304.917,-410.651 265.525,-395.368 240,-367 225.999,-351.439 222.338,-327.009 221.638,-310.065"/>
<polygon fill="midnightblue" stroke="midnightblue" points="225.135,-309.696 221.536,-299.731 218.135,-309.765 225.135,-309.696"/>
</g>
<!-- Node6 -->
<g id="node7" class="node"><title>Node6</title>
<g id="a_node7"><a xlink:href="VectorFeature_8h.html" target="_top" xlink:title="pinhao/Features/VectorFeature.h">
<polygon fill="white" stroke="black" points="249.5,-342 249.5,-361 408.5,-361 408.5,-342 249.5,-342"/>
<text text-anchor="middle" x="329" y="-349" font-family="Helvetica,sans-Serif" font-size="10.00">pinhao/Features/VectorFeature.h</text>
</a>
</g>
</g>
<!-- Node0&#45;&gt;Node6 -->
<g id="edge7" class="edge"><title>Node0&#45;&gt;Node6</title>
<path fill="none" stroke="midnightblue" d="M380.211,-403.404C366.578,-391.941 351.848,-378.7 341.581,-368.596"/>
<polygon fill="midnightblue" stroke="midnightblue" points="343.903,-365.965 334.41,-361.26 338.897,-370.858 343.903,-365.965"/>
</g>
<!-- Node18 -->
<g id="node19" class="node"><title>Node18</title>
<g id="a_node19"><a xlink:href="MapFeature_8h.html" target="_top" xlink:title="pinhao/Features/MapFeature.h">
<polygon fill="white" stroke="black" points="426.5,-342 426.5,-361 575.5,-361 575.5,-342 426.5,-342"/>
<text text-anchor="middle" x="501" y="-349" font-family="Helvetica,sans-Serif" font-size="10.00">pinhao/Features/MapFeature.h</text>
</a>
</g>
</g>
<!-- Node0&#45;&gt;Node18 -->
<g id="edge27" class="edge"><title>Node0&#45;&gt;Node18</title>
<path fill="none" stroke="midnightblue" d="M437.233,-403.193C450.028,-391.291 465.927,-377.513 478.741,-367.328"/>
<polygon fill="midnightblue" stroke="midnightblue" points="480.884,-370.095 486.653,-361.209 476.601,-364.558 480.884,-370.095"/>
</g>
<!-- Node21 -->
<g id="node22" class="node"><title>Node21</title>
<g id="a_node22"><a xlink:href="MapVectorFeature_8h.html" target="_top" xlink:title="pinhao/Features/MapVector\lFeature.h">
<polygon fill="white" stroke="black" points="593.5,-336.5 593.5,-366.5 730.5,-366.5 730.5,-336.5 593.5,-336.5"/>
<text text-anchor="start" x="601.5" y="-354.5" font-family="Helvetica,sans-Serif" font-size="10.00">pinhao/Features/MapVector</text>
<text text-anchor="middle" x="662" y="-343.5" font-family="Helvetica,sans-Serif" font-size="10.00">Feature.h</text>
</a>
</g>
</g>
<!-- Node0&#45;&gt;Node21 -->
<g id="edge34" class="edge"><title>Node0&#45;&gt;Node21</title>
<path fill="none" stroke="midnightblue" d="M490.17,-403.404C525.722,-392.268 567.59,-379.453 601.126,-369.467"/>
<polygon fill="midnightblue" stroke="midnightblue" points="602.208,-372.797 610.799,-366.597 600.217,-366.086 602.208,-372.797"/>
</g>
<!-- Node2 -->
<g id="node3" class="node"><title>Node2</title>
<polygon fill="white" stroke="#bfbfbf" points="70.5,-112.5 70.5,-131.5 159.5,-131.5 159.5,-112.5 70.5,-112.5"/>
<text text-anchor="middle" x="115" y="-119.5" font-family="Helvetica,sans-Serif" font-size="10.00">yaml&#45;cpp/yaml.h</text>
</g>
<!-- Node1&#45;&gt;Node2 -->
<g id="edge2" class="edge"><title>Node1&#45;&gt;Node2</title>
<path fill="none" stroke="midnightblue" d="M115,-168.083C115,-161.006 115,-150.861 115,-141.986"/>
<polygon fill="midnightblue" stroke="midnightblue" points="118.5,-141.751 115,-131.751 111.5,-141.751 118.5,-141.751"/>
</g>
<!-- Node3 -->
<g id="node4" class="node"><title>Node3</title>
<polygon fill="white" stroke="#bfbfbf" points="178,-112.5 178,-131.5 232,-131.5 232,-112.5 178,-112.5"/>
<text text-anchor="middle" x="205" y="-119.5" font-family="Helvetica,sans-Serif" font-size="10.00">iostream</text>
</g>
<!-- Node1&#45;&gt;Node3 -->
<g id="edge3" class="edge"><title>Node1&#45;&gt;Node3</title>
<path fill="none" stroke="midnightblue" d="M129.46,-168.324C143.5,-159.9 165.048,-146.971 181.543,-137.074"/>
<polygon fill="midnightblue" stroke="midnightblue" points="183.802,-139.801 190.576,-131.655 180.2,-133.798 183.802,-139.801"/>
</g>
<!-- Node4 -->
<g id="node5" class="node"><title>Node4</title>
<polygon fill="white" stroke="#bfbfbf" points="0,-112.5 0,-131.5 52,-131.5 52,-112.5 0,-112.5"/>
<text text-anchor="middle" x="26" y="-119.5" font-family="Helvetica,sans-Serif" font-size="10.00">ostream</text>
</g>
<!-- Node1&#45;&gt;Node4 -->
<g id="edge4" class="edge"><title>Node1&#45;&gt;Node4</title>
<path fill="none" stroke="midnightblue" d="M100.701,-168.324C86.8171,-159.9 65.5076,-146.971 49.1963,-137.074"/>
<polygon fill="midnightblue" stroke="midnightblue" points="50.6289,-133.85 40.2639,-131.655 46.9978,-139.834 50.6289,-133.85"/>
</g>
<!-- Node5&#45;&gt;Node2 -->
<g id="edge6" class="edge"><title>Node5&#45;&gt;Node2</title>
<path fill="none" stroke="midnightblue" d="M223.021,-280.4C225.077,-259.109 227.542,-203.132 202,-168 190.882,-152.708 173.012,-142.211 156.352,-135.228"/>
<polygon fill="midnightblue" stroke="midnightblue" points="157.331,-131.855 146.742,-131.513 154.807,-138.384 157.331,-131.855"/>
</g>
<!-- Node6&#45;&gt;Node0 -->
<g id="edge26" class="edge"><title>Node6&#45;&gt;Node0</title>
<path fill="none" stroke="midnightblue" d="M343.347,-361.209C354.832,-369.796 371.015,-383.453 385.16,-396.226"/>
<polygon fill="midnightblue" stroke="midnightblue" points="383.029,-399.019 392.767,-403.193 387.757,-393.858 383.029,-399.019"/>
</g>
<!-- Node7 -->
<g id="node8" class="node"><title>Node7</title>
<g id="a_node8"><a xlink:href="Features_8h.html" target="_top" xlink:title="This file implements some basic feature classes that extends the base class Feature. ">
<polygon fill="white" stroke="black" points="433,-224.5 433,-243.5 569,-243.5 569,-224.5 433,-224.5"/>
<text text-anchor="middle" x="501" y="-231.5" font-family="Helvetica,sans-Serif" font-size="10.00">pinhao/Features/Features.h</text>
</a>
</g>
</g>
<!-- Node6&#45;&gt;Node7 -->
<g id="edge8" class="edge"><title>Node6&#45;&gt;Node7</title>
<path fill="none" stroke="midnightblue" d="M341.928,-341.819C371.313,-322.086 443.37,-273.699 479.546,-249.407"/>
<polygon fill="midnightblue" stroke="midnightblue" points="481.571,-252.263 487.922,-243.782 477.669,-246.451 481.571,-252.263"/>
</g>
<!-- Node8 -->
<g id="node9" class="node"><title>Node8</title>
<g id="a_node9"><a xlink:href="Feature_8h.html" target="_top" xlink:title="This file defines the base feature class. ">
<polygon fill="white" stroke="black" points="397.5,-168.5 397.5,-187.5 528.5,-187.5 528.5,-168.5 397.5,-168.5"/>
<text text-anchor="middle" x="463" y="-175.5" font-family="Helvetica,sans-Serif" font-size="10.00">pinhao/Features/Feature.h</text>
</a>
</g>
</g>
<!-- Node7&#45;&gt;Node8 -->
<g id="edge9" class="edge"><title>Node7&#45;&gt;Node8</title>
<path fill="none" stroke="midnightblue" d="M494.725,-224.083C489.358,-216.455 481.482,-205.264 474.921,-195.941"/>
<polygon fill="midnightblue" stroke="midnightblue" points="477.775,-193.915 469.158,-187.751 472.051,-197.943 477.775,-193.915"/>
</g>
<!-- Node8&#45;&gt;Node2 -->
<g id="edge22" class="edge"><title>Node8&#45;&gt;Node2</title>
<path fill="none" stroke="midnightblue" d="M405.779,-168.471C348.648,-159.904 258.058,-146.18 169.707,-132.096"/>
<polygon fill="midnightblue" stroke="midnightblue" points="170.208,-128.632 159.782,-130.511 169.104,-135.544 170.208,-128.632"/>
</g>
<!-- Node8&#45;&gt;Node3 -->
<g id="edge25" class="edge"><title>Node8&#45;&gt;Node3</title>
<path fill="none" stroke="midnightblue" d="M417.803,-168.457C374.961,-160.22 308.573,-147.099 241.928,-132.134"/>
<polygon fill="midnightblue" stroke="midnightblue" points="242.621,-128.702 232.096,-129.913 241.079,-135.53 242.621,-128.702"/>
</g>
<!-- Node9 -->
<g id="node10" class="node"><title>Node9</title>
<g id="a_node10"><a xlink:href="FeatureInfo_8h.html" target="_top" xlink:title="This file defines a class that holds some informations about a feature. ">
<polygon fill="white" stroke="black" points="250.5,-112.5 250.5,-131.5 397.5,-131.5 397.5,-112.5 250.5,-112.5"/>
<text text-anchor="middle" x="324" y="-119.5" font-family="Helvetica,sans-Serif" font-size="10.00">pinhao/Features/FeatureInfo.h</text>
</a>
</g>
</g>
<!-- Node8&#45;&gt;Node9 -->
<g id="edge10" class="edge"><title>Node8&#45;&gt;Node9</title>
<path fill="none" stroke="midnightblue" d="M440.975,-168.444C417.896,-159.478 381.438,-145.314 355.359,-135.183"/>
<polygon fill="midnightblue" stroke="midnightblue" points="356.511,-131.875 345.922,-131.516 353.976,-138.4 356.511,-131.875"/>
</g>
<!-- Node12 -->
<g id="node13" class="node"><title>Node12</title>
<polygon fill="white" stroke="#bfbfbf" points="715.5,-56.5 715.5,-75.5 750.5,-75.5 750.5,-56.5 715.5,-56.5"/>
<text text-anchor="middle" x="733" y="-63.5" font-family="Helvetica,sans-Serif" font-size="10.00">map</text>
</g>
<!-- Node8&#45;&gt;Node12 -->
<g id="edge23" class="edge"><title>Node8&#45;&gt;Node12</title>
<path fill="none" stroke="midnightblue" d="M528.729,-175.731C601.647,-172.77 712.546,-163.117 739,-132 749.868,-119.216 746.158,-99.4766 741.097,-85.1037"/>
<polygon fill="midnightblue" stroke="midnightblue" points="744.324,-83.7486 737.362,-75.7626 737.825,-86.3474 744.324,-83.7486"/>
</g>
<!-- Node14 -->
<g id="node15" class="node"><title>Node14</title>
<polygon fill="white" stroke="#bfbfbf" points="445.5,-56.5 445.5,-75.5 494.5,-75.5 494.5,-56.5 445.5,-56.5"/>
<text text-anchor="middle" x="470" y="-63.5" font-family="Helvetica,sans-Serif" font-size="10.00">cassert</text>
</g>
<!-- Node8&#45;&gt;Node14 -->
<g id="edge24" class="edge"><title>Node8&#45;&gt;Node14</title>
<path fill="none" stroke="midnightblue" d="M457.549,-168.194C450.516,-155.72 439.772,-132.176 445,-112 447.546,-102.175 452.753,-92.2118 457.759,-84.166"/>
<polygon fill="midnightblue" stroke="midnightblue" points="460.749,-85.9903 463.371,-75.7252 454.92,-82.1143 460.749,-85.9903"/>
</g>
<!-- Node15 -->
<g id="node16" class="node"><title>Node15</title>
<g id="a_node16"><a xlink:href="FeatureRegistry_8h.html" target="_top" xlink:title="This file defines a class that has all the registered features. ">
<polygon fill="white" stroke="black" points="563.5,-112.5 563.5,-131.5 730.5,-131.5 730.5,-112.5 563.5,-112.5"/>
<text text-anchor="middle" x="647" y="-119.5" font-family="Helvetica,sans-Serif" font-size="10.00">pinhao/Features/FeatureRegistry.h</text>
</a>
</g>
</g>
<!-- Node8&#45;&gt;Node15 -->
<g id="edge17" class="edge"><title>Node8&#45;&gt;Node15</title>
<path fill="none" stroke="midnightblue" d="M492.155,-168.444C523.513,-159.241 573.531,-144.562 608.197,-134.388"/>
<polygon fill="midnightblue" stroke="midnightblue" points="609.371,-137.691 617.981,-131.516 607.4,-130.974 609.371,-137.691"/>
</g>
<!-- Node17 -->
<g id="node18" class="node"><title>Node17</title>
<polygon fill="white" stroke="#bfbfbf" points="454.5,-112.5 454.5,-131.5 545.5,-131.5 545.5,-112.5 454.5,-112.5"/>
<text text-anchor="middle" x="500" y="-119.5" font-family="Helvetica,sans-Serif" font-size="10.00">llvm/IR/Module.h</text>
</g>
<!-- Node8&#45;&gt;Node17 -->
<g id="edge21" class="edge"><title>Node8&#45;&gt;Node17</title>
<path fill="none" stroke="midnightblue" d="M469.11,-168.083C474.282,-160.534 481.846,-149.495 488.194,-140.23"/>
<polygon fill="midnightblue" stroke="midnightblue" points="491.239,-141.979 494.004,-131.751 485.464,-138.022 491.239,-141.979"/>
</g>
<!-- Node10 -->
<g id="node11" class="node"><title>Node10</title>
<g id="a_node11"><a xlink:href="Types_8h.html" target="_top" xlink:title="pinhao/Support/Types.h">
<polygon fill="white" stroke="black" points="308,-56.5 308,-75.5 428,-75.5 428,-56.5 308,-56.5"/>
<text text-anchor="middle" x="368" y="-63.5" font-family="Helvetica,sans-Serif" font-size="10.00">pinhao/Support/Types.h</text>
</a>
</g>
</g>
<!-- Node9&#45;&gt;Node10 -->
<g id="edge11" class="edge"><title>Node9&#45;&gt;Node10</title>
<path fill="none" stroke="midnightblue" d="M331.266,-112.083C337.545,-104.377 346.788,-93.0333 354.431,-83.6531"/>
<polygon fill="midnightblue" stroke="midnightblue" points="357.266,-85.7143 360.869,-75.7511 351.839,-81.2926 357.266,-85.7143"/>
</g>
<!-- Node11 -->
<g id="node12" class="node"><title>Node11</title>
<polygon fill="white" stroke="#bfbfbf" points="303.5,-0.5 303.5,-19.5 344.5,-19.5 344.5,-0.5 303.5,-0.5"/>
<text text-anchor="middle" x="324" y="-7.5" font-family="Helvetica,sans-Serif" font-size="10.00">string</text>
</g>
<!-- Node9&#45;&gt;Node11 -->
<g id="edge15" class="edge"><title>Node9&#45;&gt;Node11</title>
<path fill="none" stroke="midnightblue" d="M317.371,-112.275C311.235,-103.607 302.542,-89.6693 299,-76 294.656,-59.2358 302.999,-40.8827 311.192,-27.9668"/>
<polygon fill="midnightblue" stroke="midnightblue" points="314.151,-29.8423 316.948,-19.6235 308.389,-25.8673 314.151,-29.8423"/>
</g>
<!-- Node9&#45;&gt;Node12 -->
<g id="edge13" class="edge"><title>Node9&#45;&gt;Node12</title>
<path fill="none" stroke="midnightblue" d="M397.511,-112.84C469.985,-104.541 583.825,-90.8233 682,-76 689.493,-74.8687 697.58,-73.5068 705.058,-72.1887"/>
<polygon fill="midnightblue" stroke="midnightblue" points="705.875,-75.5979 715.098,-70.3833 704.636,-68.7084 705.875,-75.5979"/>
</g>
<!-- Node13 -->
<g id="node14" class="node"><title>Node13</title>
<polygon fill="white" stroke="#bfbfbf" points="208,-56.5 208,-75.5 252,-75.5 252,-56.5 208,-56.5"/>
<text text-anchor="middle" x="230" y="-63.5" font-family="Helvetica,sans-Serif" font-size="10.00">vector</text>
</g>
<!-- Node9&#45;&gt;Node13 -->
<g id="edge14" class="edge"><title>Node9&#45;&gt;Node13</title>
<path fill="none" stroke="midnightblue" d="M308.897,-112.324C294.097,-103.822 271.306,-90.7288 254.018,-80.7975"/>
<polygon fill="midnightblue" stroke="midnightblue" points="255.48,-77.6009 245.065,-75.6545 251.993,-83.6707 255.48,-77.6009"/>
</g>
<!-- Node9&#45;&gt;Node14 -->
<g id="edge16" class="edge"><title>Node9&#45;&gt;Node14</title>
<path fill="none" stroke="midnightblue" d="M347.134,-112.444C371.482,-103.438 410.007,-89.1891 437.423,-79.049"/>
<polygon fill="midnightblue" stroke="midnightblue" points="438.809,-82.2681 446.974,-75.5164 436.381,-75.7028 438.809,-82.2681"/>
</g>
<!-- Node10&#45;&gt;Node11 -->
<g id="edge12" class="edge"><title>Node10&#45;&gt;Node11</title>
<path fill="none" stroke="midnightblue" d="M360.734,-56.083C354.455,-48.3768 345.212,-37.0333 337.569,-27.6531"/>
<polygon fill="midnightblue" stroke="midnightblue" points="340.161,-25.2926 331.131,-19.7511 334.734,-29.7143 340.161,-25.2926"/>
</g>
<!-- Node15&#45;&gt;Node12 -->
<g id="edge20" class="edge"><title>Node15&#45;&gt;Node12</title>
<path fill="none" stroke="midnightblue" d="M660.817,-112.324C674.233,-103.9 694.824,-90.9709 710.586,-81.0741"/>
<polygon fill="midnightblue" stroke="midnightblue" points="712.609,-83.9364 719.217,-75.6545 708.887,-78.0081 712.609,-83.9364"/>
</g>
<!-- Node15&#45;&gt;Node14 -->
<g id="edge19" class="edge"><title>Node15&#45;&gt;Node14</title>
<path fill="none" stroke="midnightblue" d="M618.954,-112.444C587.946,-102.984 537.973,-87.7377 504.569,-77.5465"/>
<polygon fill="midnightblue" stroke="midnightblue" points="505.36,-74.1285 494.773,-74.558 503.317,-80.8238 505.36,-74.1285"/>
</g>
<!-- Node16 -->
<g id="node17" class="node"><title>Node16</title>
<polygon fill="white" stroke="#bfbfbf" points="621,-56.5 621,-75.5 673,-75.5 673,-56.5 621,-56.5"/>
<text text-anchor="middle" x="647" y="-63.5" font-family="Helvetica,sans-Serif" font-size="10.00">memory</text>
</g>
<!-- Node15&#45;&gt;Node16 -->
<g id="edge18" class="edge"><title>Node15&#45;&gt;Node16</title>
<path fill="none" stroke="midnightblue" d="M647,-112.083C647,-105.006 647,-94.8611 647,-85.9865"/>
<polygon fill="midnightblue" stroke="midnightblue" points="650.5,-85.751 647,-75.7511 643.5,-85.7511 650.5,-85.751"/>
</g>
<!-- Node18&#45;&gt;Node0 -->
<g id="edge29" class="edge"><title>Node18&#45;&gt;Node0</title>
<path fill="none" stroke="midnightblue" d="M495.59,-361.26C487.514,-369.975 472.508,-383.874 457.562,-396.779"/>
<polygon fill="midnightblue" stroke="midnightblue" points="455.13,-394.254 449.789,-403.404 459.67,-399.581 455.13,-394.254"/>
</g>
<!-- Node18&#45;&gt;Node7 -->
<g id="edge28" class="edge"><title>Node18&#45;&gt;Node7</title>
<path fill="none" stroke="midnightblue" d="M501,-341.819C501,-323.257 501,-279.339 501,-253.973"/>
<polygon fill="midnightblue" stroke="midnightblue" points="504.5,-253.782 501,-243.782 497.5,-253.782 504.5,-253.782"/>
</g>
<!-- Node19 -->
<g id="node20" class="node"><title>Node19</title>
<g id="a_node20"><a xlink:href="Iterator_8h.html" target="_top" xlink:title="pinhao/Support/Iterator.h">
<polygon fill="white" stroke="black" points="600,-280.5 600,-299.5 724,-299.5 724,-280.5 600,-280.5"/>
<text text-anchor="middle" x="662" y="-287.5" font-family="Helvetica,sans-Serif" font-size="10.00">pinhao/Support/Iterator.h</text>
</a>
</g>
</g>
<!-- Node18&#45;&gt;Node19 -->
<g id="edge30" class="edge"><title>Node18&#45;&gt;Node19</title>
<path fill="none" stroke="midnightblue" d="M524.067,-341.975C551.685,-331.769 598.12,-314.608 629.396,-303.049"/>
<polygon fill="midnightblue" stroke="midnightblue" points="630.809,-306.259 638.975,-299.509 628.382,-299.693 630.809,-306.259"/>
</g>
<!-- Node19&#45;&gt;Node7 -->
<g id="edge31" class="edge"><title>Node19&#45;&gt;Node7</title>
<path fill="none" stroke="midnightblue" d="M636.489,-280.444C609.404,-271.359 566.41,-256.939 536.131,-246.783"/>
<polygon fill="midnightblue" stroke="midnightblue" points="536.986,-243.378 526.392,-243.516 534.76,-250.015 536.986,-243.378"/>
</g>
<!-- Node19&#45;&gt;Node12 -->
<g id="edge33" class="edge"><title>Node19&#45;&gt;Node12</title>
<path fill="none" stroke="midnightblue" d="M669.639,-280.263C688.808,-257.687 738.645,-194.771 756,-132 760.569,-115.474 752.825,-97.0929 745.116,-84.1057"/>
<polygon fill="midnightblue" stroke="midnightblue" points="748.054,-82.2036 739.686,-75.706 742.176,-86.0041 748.054,-82.2036"/>
</g>
<!-- Node20 -->
<g id="node21" class="node"><title>Node20</title>
<polygon fill="white" stroke="#bfbfbf" points="824.5,-224.5 824.5,-243.5 871.5,-243.5 871.5,-224.5 824.5,-224.5"/>
<text text-anchor="middle" x="848" y="-231.5" font-family="Helvetica,sans-Serif" font-size="10.00">iterator</text>
</g>
<!-- Node19&#45;&gt;Node20 -->
<g id="edge32" class="edge"><title>Node19&#45;&gt;Node20</title>
<path fill="none" stroke="midnightblue" d="M691.472,-280.444C724.943,-270.726 779.442,-254.904 814.498,-244.726"/>
<polygon fill="midnightblue" stroke="midnightblue" points="815.645,-248.038 824.273,-241.889 813.693,-241.316 815.645,-248.038"/>
</g>
<!-- Node21&#45;&gt;Node0 -->
<g id="edge36" class="edge"><title>Node21&#45;&gt;Node0</title>
<path fill="none" stroke="midnightblue" d="M621.677,-366.563C588.769,-377.123 541.247,-391.843 500.041,-404.284"/>
<polygon fill="midnightblue" stroke="midnightblue" points="498.829,-400.994 490.263,-407.229 500.848,-407.696 498.829,-400.994"/>
</g>
<!-- Node21&#45;&gt;Node7 -->
<g id="edge35" class="edge"><title>Node21&#45;&gt;Node7</title>
<path fill="none" stroke="midnightblue" d="M642.08,-336.389C627.833,-326.283 608.212,-312.337 591,-300 566.902,-282.728 539.268,-262.744 521.049,-249.543"/>
<polygon fill="midnightblue" stroke="midnightblue" points="523.069,-246.684 512.918,-243.649 518.96,-252.352 523.069,-246.684"/>
</g>
<!-- Node21&#45;&gt;Node19 -->
<g id="edge37" class="edge"><title>Node21&#45;&gt;Node19</title>
<path fill="none" stroke="midnightblue" d="M662,-336.399C662,-328.466 662,-318.458 662,-309.858"/>
<polygon fill="midnightblue" stroke="midnightblue" points="665.5,-309.658 662,-299.658 658.5,-309.658 665.5,-309.658"/>
</g>
</g>
</svg>
        <g id="navigator" transform="translate(0 0)" fill="#404254">
                <rect fill="#f2f5e9" fill-opacity="0.5" stroke="#606060" stroke-width=".5" x="0" y="0" width="60" height="60"/>
                <use id="zoomplus" xlink:href="#zoomPlus" x="17" y="9" onmousedown="handleZoom(evt,'in')"/>
                <use id="zoomminus" xlink:href="#zoomMin" x="42" y="9" onmousedown="handleZoom(evt,'out')"/>
                <use id="reset" xlink:href="#resetDef" x="30" y="36" onmousedown="handleReset()"/>
                <g id="arrowUp" xlink:href="#dirArrow" transform="translate(30 24)" onmousedown="handlePan(0,-1)">
                  <use xlink:href="#rim" fill="#404040">
                        <set attributeName="fill" to="#808080" begin="arrowUp.mouseover" end="arrowUp.mouseout"/>
                  </use>
                  <path fill="none" stroke="white" stroke-width="1.5" d="M0,-3.0v7 M-2.5,-0.5L0,-3.0L2.5,-0.5"/>
                </g>
                <g id="arrowRight" xlink:href="#dirArrow" transform="rotate(90) translate(36 -43)" onmousedown="handlePan(1,0)">
                  <use xlink:href="#rim" fill="#404040">
                        <set attributeName="fill" to="#808080" begin="arrowRight.mouseover" end="arrowRight.mouseout"/>
                  </use>
                  <path fill="none" stroke="white" stroke-width="1.5" d="M0,-3.0v7 M-2.5,-0.5L0,-3.0L2.5,-0.5"/>
                </g>
                <g id="arrowDown" xlink:href="#dirArrow" transform="rotate(180) translate(-30 -48)" onmousedown="handlePan(0,1)">
                  <use xlink:href="#rim" fill="#404040">
                        <set attributeName="fill" to="#808080" begin="arrowDown.mouseover" end="arrowDown.mouseout"/>
                  </use>
                  <path fill="none" stroke="white" stroke-width="1.5" d="M0,-3.0v7 M-2.5,-0.5L0,-3.0L2.5,-0.5"/>
                </g>
                <g id="arrowLeft" xlink:href="#dirArrow" transform="rotate(270) translate(-36 17)" onmousedown="handlePan(-1,0)">
                  <use xlink:href="#rim" fill="#404040">
                        <set attributeName="fill" to="#808080" begin="arrowLeft.mouseover" end="arrowLeft.mouseout"/>
                  </use>
                  <path fill="none" stroke="white" stroke-width="1.5" d="M0,-3.0v7 M-2.5,-0.5L0,-3.0L2.5,-0.5"/>
                </g>
        </g>
        <svg viewBox="0 0 15 15" width="100%" height="30px" preserveAspectRatio="xMaxYMin meet">
         <g id="arrow_out" transform="scale(0.3 0.3)">
          <a xlink:href="FeatureYAMLWrapper_8h__incl_org.svg" target="_base">
           <rect id="button" ry="5" rx="5" y="6" x="6" height="38" width="38"
                fill="#f2f5e9" fill-opacity="0.5" stroke="#606060" stroke-width="1.0"/>
           <path id="arrow"
             d="M 11.500037,31.436501 C 11.940474,20.09759 22.043105,11.32322 32.158766,21.979434 L 37.068811,17.246167 C 37.068811,17.246167 37.088388,32 37.088388,32 L 22.160133,31.978069 C 22.160133,31.978069 26.997745,27.140456 26.997745,27.140456 C 18.528582,18.264221 13.291696,25.230495 11.500037,31.436501 z"
             style="fill:#404040;"/>
          </a>
         </g>
        </svg>
</svg>
