<?xml version="1.0" encoding="UTF-8" standalone="no"?>
<!DOCTYPE svg PUBLIC "-//W3C//DTD SVG 1.1//EN"
 "http://www.w3.org/Graphics/SVG/1.1/DTD/svg11.dtd">
<!-- Generated by graphviz version 2.38.0 (20140413.2041)
 -->
<!-- Title: /home/yukiosir/workspace/CompilerProject/Software/pinhao/lib/Features/Features.cpp Pages: 1 -->
<svg width="750pt" height="330pt"
 viewBox="0.00 0.00 750.18 330.00" xmlns="http://www.w3.org/2000/svg" xmlns:xlink="http://www.w3.org/1999/xlink">
<g id="graph0" class="graph" transform="scale(1 1) rotate(0) translate(4 326)">
<title>/home/yukiosir/workspace/CompilerProject/Software/pinhao/lib/Features/Features.cpp</title>
<polygon fill="white" stroke="none" points="-4,4 -4,-326 746.179,-326 746.179,4 -4,4"/>
<!-- Node0 -->
<g id="node1" class="node"><title>Node0</title>
<polygon fill="#bfbfbf" stroke="black" points="382.179,-280.5 382.179,-321.5 544.179,-321.5 544.179,-280.5 382.179,-280.5"/>
<text text-anchor="start" x="390.179" y="-309.5" font-family="Helvetica,sans-Serif" font-size="10.00">/home/yukiosir/workspace</text>
<text text-anchor="start" x="390.179" y="-298.5" font-family="Helvetica,sans-Serif" font-size="10.00">/CompilerProject/Software</text>
<text text-anchor="middle" x="463.179" y="-287.5" font-family="Helvetica,sans-Serif" font-size="10.00">/pinhao/lib/Features/Features.cpp</text>
</g>
<!-- Node1 -->
<g id="node2" class="node"><title>Node1</title>
<g id="a_node2"><a xlink:href="Features_8h.html" target="_top" xlink:title="This file implements some basic feature classes that extends the base class Feature. ">
<polygon fill="white" stroke="black" points="303.179,-224.5 303.179,-243.5 439.179,-243.5 439.179,-224.5 303.179,-224.5"/>
<text text-anchor="middle" x="371.179" y="-231.5" font-family="Helvetica,sans-Serif" font-size="10.00">pinhao/Features/Features.h</text>
</a>
</g>
</g>
<!-- Node0&#45;&gt;Node1 -->
<g id="edge1" class="edge"><title>Node0&#45;&gt;Node1</title>
<path fill="none" stroke="midnightblue" d="M435.575,-280.498C421.47,-270.532 404.602,-258.614 391.668,-249.476"/>
<polygon fill="midnightblue" stroke="midnightblue" points="393.612,-246.564 383.425,-243.652 389.573,-252.281 393.612,-246.564"/>
</g>
<!-- Node14 -->
<g id="node15" class="node"><title>Node14</title>
<g id="a_node15"><a xlink:href="YAMLWrapper_8h.html" target="_top" xlink:title="pinhao/Support/YAMLWrapper.h">
<polygon fill="white" stroke="black" points="521.679,-168.5 521.679,-187.5 678.679,-187.5 678.679,-168.5 521.679,-168.5"/>
<text text-anchor="middle" x="600.179" y="-175.5" font-family="Helvetica,sans-Serif" font-size="10.00">pinhao/Support/YAMLWrapper.h</text>
</a>
</g>
</g>
<!-- Node0&#45;&gt;Node14 -->
<g id="edge19" class="edge"><title>Node0&#45;&gt;Node14</title>
<path fill="none" stroke="midnightblue" d="M485.495,-280.29C512.743,-256.224 558.241,-216.04 582.945,-194.22"/>
<polygon fill="midnightblue" stroke="midnightblue" points="585.292,-196.818 590.47,-187.575 580.658,-191.571 585.292,-196.818"/>
</g>
<!-- Node2 -->
<g id="node3" class="node"><title>Node2</title>
<g id="a_node3"><a xlink:href="Feature_8h.html" target="_top" xlink:title="This file defines the base feature class. ">
<polygon fill="white" stroke="black" points="261.679,-168.5 261.679,-187.5 392.679,-187.5 392.679,-168.5 261.679,-168.5"/>
<text text-anchor="middle" x="327.179" y="-175.5" font-family="Helvetica,sans-Serif" font-size="10.00">pinhao/Features/Feature.h</text>
</a>
</g>
</g>
<!-- Node1&#45;&gt;Node2 -->
<g id="edge2" class="edge"><title>Node1&#45;&gt;Node2</title>
<path fill="none" stroke="midnightblue" d="M363.913,-224.083C357.634,-216.377 348.391,-205.033 340.748,-195.653"/>
<polygon fill="midnightblue" stroke="midnightblue" points="343.339,-193.293 334.309,-187.751 337.912,-197.714 343.339,-193.293"/>
</g>
<!-- Node3 -->
<g id="node4" class="node"><title>Node3</title>
<g id="a_node4"><a xlink:href="FeatureInfo_8h.html" target="_top" xlink:title="This file defines a class that holds some informations about a feature. ">
<polygon fill="white" stroke="black" points="345.679,-112.5 345.679,-131.5 492.679,-131.5 492.679,-112.5 345.679,-112.5"/>
<text text-anchor="middle" x="419.179" y="-119.5" font-family="Helvetica,sans-Serif" font-size="10.00">pinhao/Features/FeatureInfo.h</text>
</a>
</g>
</g>
<!-- Node2&#45;&gt;Node3 -->
<g id="edge3" class="edge"><title>Node2&#45;&gt;Node3</title>
<path fill="none" stroke="midnightblue" d="M341.96,-168.324C356.446,-159.822 378.752,-146.729 395.672,-136.797"/>
<polygon fill="midnightblue" stroke="midnightblue" points="397.581,-139.735 404.434,-131.655 394.038,-133.698 397.581,-139.735"/>
</g>
<!-- Node6 -->
<g id="node7" class="node"><title>Node6</title>
<polygon fill="white" stroke="#bfbfbf" points="104.679,-56.5 104.679,-75.5 139.679,-75.5 139.679,-56.5 104.679,-56.5"/>
<text text-anchor="middle" x="122.179" y="-63.5" font-family="Helvetica,sans-Serif" font-size="10.00">map</text>
</g>
<!-- Node2&#45;&gt;Node6 -->
<g id="edge16" class="edge"><title>Node2&#45;&gt;Node6</title>
<path fill="none" stroke="midnightblue" d="M261.486,-177.57C176.892,-176.738 36.8419,-169.53 4.17851,-132 -1.65714,-125.295 -0.864222,-119.32 4.17851,-112 6.88385,-108.073 60.4247,-88.6953 94.4467,-76.6845"/>
<polygon fill="midnightblue" stroke="midnightblue" points="96.0285,-79.8384 104.301,-73.2187 93.7059,-73.2349 96.0285,-79.8384"/>
</g>
<!-- Node8 -->
<g id="node9" class="node"><title>Node8</title>
<polygon fill="white" stroke="#bfbfbf" points="183.679,-56.5 183.679,-75.5 232.679,-75.5 232.679,-56.5 183.679,-56.5"/>
<text text-anchor="middle" x="208.179" y="-63.5" font-family="Helvetica,sans-Serif" font-size="10.00">cassert</text>
</g>
<!-- Node2&#45;&gt;Node8 -->
<g id="edge17" class="edge"><title>Node2&#45;&gt;Node8</title>
<path fill="none" stroke="midnightblue" d="M289.668,-168.442C268.568,-161.807 243.301,-150.526 227.179,-132 215.972,-119.124 211.366,-99.9458 209.478,-85.7556"/>
<polygon fill="midnightblue" stroke="midnightblue" points="212.946,-85.264 208.472,-75.6603 205.98,-85.958 212.946,-85.264"/>
</g>
<!-- Node9 -->
<g id="node10" class="node"><title>Node9</title>
<g id="a_node10"><a xlink:href="FeatureRegistry_8h.html" target="_top" xlink:title="This file defines a class that has all the registered features. ">
<polygon fill="white" stroke="black" points="13.6785,-112.5 13.6785,-131.5 180.679,-131.5 180.679,-112.5 13.6785,-112.5"/>
<text text-anchor="middle" x="97.1785" y="-119.5" font-family="Helvetica,sans-Serif" font-size="10.00">pinhao/Features/FeatureRegistry.h</text>
</a>
</g>
</g>
<!-- Node2&#45;&gt;Node9 -->
<g id="edge10" class="edge"><title>Node2&#45;&gt;Node9</title>
<path fill="none" stroke="midnightblue" d="M290.734,-168.444C250.78,-159.063 186.592,-143.993 143.194,-133.804"/>
<polygon fill="midnightblue" stroke="midnightblue" points="143.987,-130.395 133.452,-131.516 142.387,-137.21 143.987,-130.395"/>
</g>
<!-- Node11 -->
<g id="node12" class="node"><title>Node11</title>
<polygon fill="white" stroke="#bfbfbf" points="236.679,-112.5 236.679,-131.5 327.679,-131.5 327.679,-112.5 236.679,-112.5"/>
<text text-anchor="middle" x="282.179" y="-119.5" font-family="Helvetica,sans-Serif" font-size="10.00">llvm/IR/Module.h</text>
</g>
<!-- Node2&#45;&gt;Node11 -->
<g id="edge14" class="edge"><title>Node2&#45;&gt;Node11</title>
<path fill="none" stroke="midnightblue" d="M319.748,-168.083C313.326,-160.377 303.873,-149.033 296.056,-139.653"/>
<polygon fill="midnightblue" stroke="midnightblue" points="298.562,-137.193 289.471,-131.751 293.184,-141.674 298.562,-137.193"/>
</g>
<!-- Node12 -->
<g id="node13" class="node"><title>Node12</title>
<polygon fill="white" stroke="#bfbfbf" points="510.679,-112.5 510.679,-131.5 599.679,-131.5 599.679,-112.5 510.679,-112.5"/>
<text text-anchor="middle" x="555.179" y="-119.5" font-family="Helvetica,sans-Serif" font-size="10.00">yaml&#45;cpp/yaml.h</text>
</g>
<!-- Node2&#45;&gt;Node12 -->
<g id="edge15" class="edge"><title>Node2&#45;&gt;Node12</title>
<path fill="none" stroke="midnightblue" d="M363.306,-168.444C402.83,-159.083 466.275,-144.056 509.291,-133.868"/>
<polygon fill="midnightblue" stroke="midnightblue" points="510.296,-137.227 519.22,-131.516 508.683,-130.415 510.296,-137.227"/>
</g>
<!-- Node13 -->
<g id="node14" class="node"><title>Node13</title>
<polygon fill="white" stroke="#bfbfbf" points="618.179,-112.5 618.179,-131.5 672.179,-131.5 672.179,-112.5 618.179,-112.5"/>
<text text-anchor="middle" x="645.179" y="-119.5" font-family="Helvetica,sans-Serif" font-size="10.00">iostream</text>
</g>
<!-- Node2&#45;&gt;Node13 -->
<g id="edge18" class="edge"><title>Node2&#45;&gt;Node13</title>
<path fill="none" stroke="midnightblue" d="M389.38,-168.493C446.491,-160.339 533.348,-147.068 608.179,-132 608.28,-131.98 608.381,-131.959 608.483,-131.939"/>
<polygon fill="midnightblue" stroke="midnightblue" points="609.127,-135.38 618.156,-129.837 607.641,-128.54 609.127,-135.38"/>
</g>
<!-- Node4 -->
<g id="node5" class="node"><title>Node4</title>
<g id="a_node5"><a xlink:href="Types_8h.html" target="_top" xlink:title="pinhao/Support/Types.h">
<polygon fill="white" stroke="black" points="447.179,-56.5 447.179,-75.5 567.179,-75.5 567.179,-56.5 447.179,-56.5"/>
<text text-anchor="middle" x="507.179" y="-63.5" font-family="Helvetica,sans-Serif" font-size="10.00">pinhao/Support/Types.h</text>
</a>
</g>
</g>
<!-- Node3&#45;&gt;Node4 -->
<g id="edge4" class="edge"><title>Node3&#45;&gt;Node4</title>
<path fill="none" stroke="midnightblue" d="M433.317,-112.324C447.045,-103.9 468.115,-90.9709 484.243,-81.0741"/>
<polygon fill="midnightblue" stroke="midnightblue" points="486.382,-83.8678 493.075,-75.6545 482.721,-77.9016 486.382,-83.8678"/>
</g>
<!-- Node5 -->
<g id="node6" class="node"><title>Node5</title>
<polygon fill="white" stroke="#bfbfbf" points="442.679,-0.5 442.679,-19.5 483.679,-19.5 483.679,-0.5 442.679,-0.5"/>
<text text-anchor="middle" x="463.179" y="-7.5" font-family="Helvetica,sans-Serif" font-size="10.00">string</text>
</g>
<!-- Node3&#45;&gt;Node5 -->
<g id="edge8" class="edge"><title>Node3&#45;&gt;Node5</title>
<path fill="none" stroke="midnightblue" d="M421.051,-112.378C423.941,-99.7291 430.021,-75.5269 438.179,-56 442.141,-46.5166 447.588,-36.4726 452.386,-28.2853"/>
<polygon fill="midnightblue" stroke="midnightblue" points="455.415,-30.0404 457.594,-19.6719 449.425,-26.4188 455.415,-30.0404"/>
</g>
<!-- Node3&#45;&gt;Node6 -->
<g id="edge6" class="edge"><title>Node3&#45;&gt;Node6</title>
<path fill="none" stroke="midnightblue" d="M372.118,-112.444C309.509,-101.06 200.819,-81.2983 149.942,-72.0479"/>
<polygon fill="midnightblue" stroke="midnightblue" points="150.465,-68.5857 140,-70.2403 149.213,-75.4728 150.465,-68.5857"/>
</g>
<!-- Node7 -->
<g id="node8" class="node"><title>Node7</title>
<polygon fill="white" stroke="#bfbfbf" points="347.179,-56.5 347.179,-75.5 391.179,-75.5 391.179,-56.5 347.179,-56.5"/>
<text text-anchor="middle" x="369.179" y="-63.5" font-family="Helvetica,sans-Serif" font-size="10.00">vector</text>
</g>
<!-- Node3&#45;&gt;Node7 -->
<g id="edge7" class="edge"><title>Node3&#45;&gt;Node7</title>
<path fill="none" stroke="midnightblue" d="M410.922,-112.083C403.714,-104.298 393.069,-92.8015 384.333,-83.3665"/>
<polygon fill="midnightblue" stroke="midnightblue" points="386.644,-80.7108 377.281,-75.7511 381.507,-85.4666 386.644,-80.7108"/>
</g>
<!-- Node3&#45;&gt;Node8 -->
<g id="edge9" class="edge"><title>Node3&#45;&gt;Node8</title>
<path fill="none" stroke="midnightblue" d="M385.745,-112.444C346.62,-102.431 282.166,-85.9351 242.614,-75.813"/>
<polygon fill="midnightblue" stroke="midnightblue" points="243.44,-72.4117 232.885,-73.323 241.705,-79.1931 243.44,-72.4117"/>
</g>
<!-- Node4&#45;&gt;Node5 -->
<g id="edge5" class="edge"><title>Node4&#45;&gt;Node5</title>
<path fill="none" stroke="midnightblue" d="M499.913,-56.083C493.634,-48.3768 484.391,-37.0333 476.748,-27.6531"/>
<polygon fill="midnightblue" stroke="midnightblue" points="479.339,-25.2926 470.309,-19.7511 473.912,-29.7143 479.339,-25.2926"/>
</g>
<!-- Node9&#45;&gt;Node6 -->
<g id="edge13" class="edge"><title>Node9&#45;&gt;Node6</title>
<path fill="none" stroke="midnightblue" d="M101.307,-112.083C104.692,-104.77 109.595,-94.1814 113.797,-85.1034"/>
<polygon fill="midnightblue" stroke="midnightblue" points="117.102,-86.2962 118.127,-75.7511 110.75,-83.3553 117.102,-86.2962"/>
</g>
<!-- Node9&#45;&gt;Node8 -->
<g id="edge12" class="edge"><title>Node9&#45;&gt;Node8</title>
<path fill="none" stroke="midnightblue" d="M115.013,-112.324C132.894,-103.625 160.654,-90.1202 181.224,-80.113"/>
<polygon fill="midnightblue" stroke="midnightblue" points="182.927,-83.1765 190.389,-75.6545 179.865,-76.8819 182.927,-83.1765"/>
</g>
<!-- Node10 -->
<g id="node11" class="node"><title>Node10</title>
<polygon fill="white" stroke="#bfbfbf" points="34.1785,-56.5 34.1785,-75.5 86.1785,-75.5 86.1785,-56.5 34.1785,-56.5"/>
<text text-anchor="middle" x="60.1785" y="-63.5" font-family="Helvetica,sans-Serif" font-size="10.00">memory</text>
</g>
<!-- Node9&#45;&gt;Node10 -->
<g id="edge11" class="edge"><title>Node9&#45;&gt;Node10</title>
<path fill="none" stroke="midnightblue" d="M91.0687,-112.083C85.8963,-104.534 78.3324,-93.4948 71.9841,-84.2298"/>
<polygon fill="midnightblue" stroke="midnightblue" points="74.7142,-82.0221 66.1746,-75.7511 68.9397,-85.9787 74.7142,-82.0221"/>
</g>
<!-- Node14&#45;&gt;Node12 -->
<g id="edge20" class="edge"><title>Node14&#45;&gt;Node12</title>
<path fill="none" stroke="midnightblue" d="M592.748,-168.083C586.326,-160.377 576.873,-149.033 569.056,-139.653"/>
<polygon fill="midnightblue" stroke="midnightblue" points="571.562,-137.193 562.471,-131.751 566.184,-141.674 571.562,-137.193"/>
</g>
<!-- Node14&#45;&gt;Node13 -->
<g id="edge21" class="edge"><title>Node14&#45;&gt;Node13</title>
<path fill="none" stroke="midnightblue" d="M607.609,-168.083C614.031,-160.377 623.484,-149.033 631.301,-139.653"/>
<polygon fill="midnightblue" stroke="midnightblue" points="634.173,-141.674 637.886,-131.751 628.795,-137.193 634.173,-141.674"/>
</g>
<!-- Node15 -->
<g id="node16" class="node"><title>Node15</title>
<polygon fill="white" stroke="#bfbfbf" points="690.179,-112.5 690.179,-131.5 742.179,-131.5 742.179,-112.5 690.179,-112.5"/>
<text text-anchor="middle" x="716.179" y="-119.5" font-family="Helvetica,sans-Serif" font-size="10.00">ostream</text>
</g>
<!-- Node14&#45;&gt;Node15 -->
<g id="edge22" class="edge"><title>Node14&#45;&gt;Node15</title>
<path fill="none" stroke="midnightblue" d="M618.559,-168.444C637.395,-159.675 666.91,-145.935 688.558,-135.858"/>
<polygon fill="midnightblue" stroke="midnightblue" points="690.295,-138.91 697.884,-131.516 687.341,-132.564 690.295,-138.91"/>
</g>
</g>
</svg>
