<?xml version="1.0" encoding="UTF-8" standalone="no"?>
<!DOCTYPE svg PUBLIC "-//W3C//DTD SVG 1.1//EN"
 "http://www.w3.org/Graphics/SVG/1.1/DTD/svg11.dtd">
<!-- Generated by graphviz version 2.38.0 (20140413.2041)
 -->
<!-- Title: /home/yukiosir/workspace/CompilerProject/Software/pinhao/include/pinhao/Features/FeatureInfo.h Pages: 1 -->
<svg width="350pt" height="173pt"
 viewBox="0.00 0.00 349.50 173.00" xmlns="http://www.w3.org/2000/svg" xmlns:xlink="http://www.w3.org/1999/xlink">
<g id="graph0" class="graph" transform="scale(1 1) rotate(0) translate(4 169)">
<title>/home/yukiosir/workspace/CompilerProject/Software/pinhao/include/pinhao/Features/FeatureInfo.h</title>
<polygon fill="white" stroke="none" points="-4,4 -4,-169 345.5,-169 345.5,4 -4,4"/>
<!-- Node0 -->
<g id="node1" class="node"><title>Node0</title>
<polygon fill="#bfbfbf" stroke="black" points="116.5,-112.5 116.5,-164.5 271.5,-164.5 271.5,-112.5 116.5,-112.5"/>
<text text-anchor="start" x="124.5" y="-152.5" font-family="Helvetica,sans-Serif" font-size="10.00">/home/yukiosir/workspace</text>
<text text-anchor="start" x="124.5" y="-141.5" font-family="Helvetica,sans-Serif" font-size="10.00">/CompilerProject/Software</text>
<text text-anchor="start" x="124.5" y="-130.5" font-family="Helvetica,sans-Serif" font-size="10.00">/pinhao/include/pinhao/Features</text>
<text text-anchor="middle" x="194" y="-119.5" font-family="Helvetica,sans-Serif" font-size="10.00">/FeatureInfo.h</text>
</g>
<!-- Node1 -->
<g id="node2" class="node"><title>Node1</title>
<g id="a_node2"><a xlink:href="Types_8h.html" target="_top" xlink:title="pinhao/Support/Types.h">
<polygon fill="white" stroke="black" points="0,-56.5 0,-75.5 120,-75.5 120,-56.5 0,-56.5"/>
<text text-anchor="middle" x="60" y="-63.5" font-family="Helvetica,sans-Serif" font-size="10.00">pinhao/Support/Types.h</text>
</a>
</g>
</g>
<!-- Node0&#45;&gt;Node1 -->
<g id="edge1" class="edge"><title>Node0&#45;&gt;Node1</title>
<path fill="none" stroke="midnightblue" d="M146.379,-112.446C125.688,-101.56 102.298,-89.2537 85.0808,-80.1955"/>
<polygon fill="midnightblue" stroke="midnightblue" points="86.6869,-77.0857 76.2073,-75.527 83.4276,-83.2806 86.6869,-77.0857"/>
</g>
<!-- Node2 -->
<g id="node3" class="node"><title>Node2</title>
<polygon fill="white" stroke="#bfbfbf" points="83.5,-0.5 83.5,-19.5 124.5,-19.5 124.5,-0.5 83.5,-0.5"/>
<text text-anchor="middle" x="104" y="-7.5" font-family="Helvetica,sans-Serif" font-size="10.00">string</text>
</g>
<!-- Node0&#45;&gt;Node2 -->
<g id="edge5" class="edge"><title>Node0&#45;&gt;Node2</title>
<path fill="none" stroke="midnightblue" d="M176.003,-112.205C158.139,-87.0956 131.265,-49.3224 115.902,-27.7292"/>
<polygon fill="midnightblue" stroke="midnightblue" points="118.732,-25.6689 110.083,-19.5497 113.028,-29.727 118.732,-25.6689"/>
</g>
<!-- Node3 -->
<g id="node4" class="node"><title>Node3</title>
<polygon fill="white" stroke="#bfbfbf" points="176.5,-56.5 176.5,-75.5 211.5,-75.5 211.5,-56.5 176.5,-56.5"/>
<text text-anchor="middle" x="194" y="-63.5" font-family="Helvetica,sans-Serif" font-size="10.00">map</text>
</g>
<!-- Node0&#45;&gt;Node3 -->
<g id="edge3" class="edge"><title>Node0&#45;&gt;Node3</title>
<path fill="none" stroke="midnightblue" d="M194,-112.446C194,-103.73 194,-94.1045 194,-85.9641"/>
<polygon fill="midnightblue" stroke="midnightblue" points="197.5,-85.6954 194,-75.6955 190.5,-85.6955 197.5,-85.6954"/>
</g>
<!-- Node4 -->
<g id="node5" class="node"><title>Node4</title>
<polygon fill="white" stroke="#bfbfbf" points="230,-56.5 230,-75.5 274,-75.5 274,-56.5 230,-56.5"/>
<text text-anchor="middle" x="252" y="-63.5" font-family="Helvetica,sans-Serif" font-size="10.00">vector</text>
</g>
<!-- Node0&#45;&gt;Node4 -->
<g id="edge4" class="edge"><title>Node0&#45;&gt;Node4</title>
<path fill="none" stroke="midnightblue" d="M214.612,-112.446C222.524,-102.828 231.348,-92.1032 238.435,-83.4881"/>
<polygon fill="midnightblue" stroke="midnightblue" points="241.196,-85.6416 244.846,-75.6955 235.79,-81.1943 241.196,-85.6416"/>
</g>
<!-- Node5 -->
<g id="node6" class="node"><title>Node5</title>
<polygon fill="white" stroke="#bfbfbf" points="292.5,-56.5 292.5,-75.5 341.5,-75.5 341.5,-56.5 292.5,-56.5"/>
<text text-anchor="middle" x="317" y="-63.5" font-family="Helvetica,sans-Serif" font-size="10.00">cassert</text>
</g>
<!-- Node0&#45;&gt;Node5 -->
<g id="edge6" class="edge"><title>Node0&#45;&gt;Node5</title>
<path fill="none" stroke="midnightblue" d="M237.712,-112.446C256.353,-101.761 277.38,-89.709 293.094,-80.7021"/>
<polygon fill="midnightblue" stroke="midnightblue" points="295.188,-83.5364 302.123,-75.527 291.707,-77.4632 295.188,-83.5364"/>
</g>
<!-- Node1&#45;&gt;Node2 -->
<g id="edge2" class="edge"><title>Node1&#45;&gt;Node2</title>
<path fill="none" stroke="midnightblue" d="M67.2657,-56.083C73.5448,-48.3768 82.7876,-37.0333 90.4308,-27.6531"/>
<polygon fill="midnightblue" stroke="midnightblue" points="93.2661,-29.7143 96.8695,-19.7511 87.8394,-25.2926 93.2661,-29.7143"/>
</g>
</g>
</svg>
