<?xml version="1.0" encoding="UTF-8" standalone="no"?>
<!DOCTYPE svg PUBLIC "-//W3C//DTD SVG 1.1//EN"
 "http://www.w3.org/Graphics/SVG/1.1/DTD/svg11.dtd">
<!-- Generated by graphviz version 2.38.0 (20140413.2041)
 -->
<!-- Title: /home/yukiosir/workspace/CompilerProject/Software/pinhao/include/pinhao/Support/FeatureYAMLWrapper.h Pages: 1 -->
<svg width="1460pt" height="239pt"
 viewBox="0.00 0.00 1460.00 239.00" xmlns="http://www.w3.org/2000/svg" xmlns:xlink="http://www.w3.org/1999/xlink">
<g id="graph0" class="graph" transform="scale(1 1) rotate(0) translate(4 235)">
<title>/home/yukiosir/workspace/CompilerProject/Software/pinhao/include/pinhao/Support/FeatureYAMLWrapper.h</title>
<polygon fill="white" stroke="none" points="-4,4 -4,-235 1456,-235 1456,4 -4,4"/>
<!-- Node22 -->
<g id="node1" class="node"><title>Node22</title>
<polygon fill="#bfbfbf" stroke="black" points="782.5,-178.5 782.5,-230.5 932.5,-230.5 932.5,-178.5 782.5,-178.5"/>
<text text-anchor="start" x="790.5" y="-218.5" font-family="Helvetica,sans-Serif" font-size="10.00">/home/yukiosir/workspace</text>
<text text-anchor="start" x="790.5" y="-207.5" font-family="Helvetica,sans-Serif" font-size="10.00">/CompilerProject/Software</text>
<text text-anchor="start" x="790.5" y="-196.5" font-family="Helvetica,sans-Serif" font-size="10.00">/pinhao/include/pinhao/Support</text>
<text text-anchor="middle" x="857.5" y="-185.5" font-family="Helvetica,sans-Serif" font-size="10.00">/FeatureYAMLWrapper.h</text>
</g>
<!-- Node23 -->
<g id="node2" class="node"><title>Node23</title>
<g id="a_node2"><a xlink:href="MapFeature_8h.html" target="_top" xlink:title="/home/yukiosir/workspace\l/CompilerProject/Software\l/pinhao/include/pinhao/Features\l/MapFeature.h">
<polygon fill="white" stroke="black" points="370,-89.5 370,-141.5 525,-141.5 525,-89.5 370,-89.5"/>
<text text-anchor="start" x="378" y="-129.5" font-family="Helvetica,sans-Serif" font-size="10.00">/home/yukiosir/workspace</text>
<text text-anchor="start" x="378" y="-118.5" font-family="Helvetica,sans-Serif" font-size="10.00">/CompilerProject/Software</text>
<text text-anchor="start" x="378" y="-107.5" font-family="Helvetica,sans-Serif" font-size="10.00">/pinhao/include/pinhao/Features</text>
<text text-anchor="middle" x="447.5" y="-96.5" font-family="Helvetica,sans-Serif" font-size="10.00">/MapFeature.h</text>
</a>
</g>
</g>
<!-- Node22&#45;&gt;Node23 -->
<g id="edge1" class="edge"><title>Node22&#45;&gt;Node23</title>
<path fill="none" stroke="midnightblue" d="M772.192,-186.56C699.379,-171.464 595.628,-149.454 525.112,-134.147"/>
<polygon fill="midnightblue" stroke="midnightblue" points="771.753,-190.043 782.255,-188.643 773.172,-183.189 771.753,-190.043"/>
</g>
<!-- Node27 -->
<g id="node6" class="node"><title>Node27</title>
<g id="a_node6"><a xlink:href="MapVectorFeature_8h.html" target="_top" xlink:title="/home/yukiosir/workspace\l/CompilerProject/Software\l/pinhao/include/pinhao/Features\l/MapVectorFeature.h">
<polygon fill="white" stroke="black" points="780,-89.5 780,-141.5 935,-141.5 935,-89.5 780,-89.5"/>
<text text-anchor="start" x="788" y="-129.5" font-family="Helvetica,sans-Serif" font-size="10.00">/home/yukiosir/workspace</text>
<text text-anchor="start" x="788" y="-118.5" font-family="Helvetica,sans-Serif" font-size="10.00">/CompilerProject/Software</text>
<text text-anchor="start" x="788" y="-107.5" font-family="Helvetica,sans-Serif" font-size="10.00">/pinhao/include/pinhao/Features</text>
<text text-anchor="middle" x="857.5" y="-96.5" font-family="Helvetica,sans-Serif" font-size="10.00">/MapVectorFeature.h</text>
</a>
</g>
</g>
<!-- Node22&#45;&gt;Node27 -->
<g id="edge6" class="edge"><title>Node22&#45;&gt;Node27</title>
<path fill="none" stroke="midnightblue" d="M850.858,-168.191C850.621,-159.282 850.775,-149.899 851.318,-141.607"/>
<polygon fill="midnightblue" stroke="midnightblue" points="847.368,-168.503 851.314,-178.336 854.361,-168.189 847.368,-168.503"/>
</g>
<!-- Node31 -->
<g id="node10" class="node"><title>Node31</title>
<g id="a_node10"><a xlink:href="VectorFeature_8h.html" target="_top" xlink:title="/home/yukiosir/workspace\l/CompilerProject/Software\l/pinhao/include/pinhao/Features\l/VectorFeature.h">
<polygon fill="white" stroke="black" points="954,-89.5 954,-141.5 1109,-141.5 1109,-89.5 954,-89.5"/>
<text text-anchor="start" x="962" y="-129.5" font-family="Helvetica,sans-Serif" font-size="10.00">/home/yukiosir/workspace</text>
<text text-anchor="start" x="962" y="-118.5" font-family="Helvetica,sans-Serif" font-size="10.00">/CompilerProject/Software</text>
<text text-anchor="start" x="962" y="-107.5" font-family="Helvetica,sans-Serif" font-size="10.00">/pinhao/include/pinhao/Features</text>
<text text-anchor="middle" x="1031.5" y="-96.5" font-family="Helvetica,sans-Serif" font-size="10.00">/VectorFeature.h</text>
</a>
</g>
</g>
<!-- Node22&#45;&gt;Node31 -->
<g id="edge11" class="edge"><title>Node22&#45;&gt;Node31</title>
<path fill="none" stroke="midnightblue" d="M910.783,-173.635C931.165,-163.205 954.441,-151.611 975.103,-141.607"/>
<polygon fill="midnightblue" stroke="midnightblue" points="908.934,-170.65 901.642,-178.336 912.136,-176.875 908.934,-170.65"/>
</g>
<!-- Node34 -->
<g id="node13" class="node"><title>Node34</title>
<g id="a_node13"><a xlink:href="FeatureYAMLWrapper_8cpp.html" target="_top" xlink:title="/home/yukiosir/workspace\l/CompilerProject/Software\l/pinhao/lib/Support/YAMLWrapper\l/FeatureYAMLWrapper.cpp">
<polygon fill="white" stroke="black" points="1127.5,-89.5 1127.5,-141.5 1291.5,-141.5 1291.5,-89.5 1127.5,-89.5"/>
<text text-anchor="start" x="1135.5" y="-129.5" font-family="Helvetica,sans-Serif" font-size="10.00">/home/yukiosir/workspace</text>
<text text-anchor="start" x="1135.5" y="-118.5" font-family="Helvetica,sans-Serif" font-size="10.00">/CompilerProject/Software</text>
<text text-anchor="start" x="1135.5" y="-107.5" font-family="Helvetica,sans-Serif" font-size="10.00">/pinhao/lib/Support/YAMLWrapper</text>
<text text-anchor="middle" x="1209.5" y="-96.5" font-family="Helvetica,sans-Serif" font-size="10.00">/FeatureYAMLWrapper.cpp</text>
</a>
</g>
</g>
<!-- Node22&#45;&gt;Node34 -->
<g id="edge16" class="edge"><title>Node22&#45;&gt;Node34</title>
<path fill="none" stroke="midnightblue" d="M942.536,-184.408C993.667,-172.694 1059.97,-157.09 1118.5,-142 1121.36,-141.263 1124.27,-140.503 1127.2,-139.728"/>
<polygon fill="midnightblue" stroke="midnightblue" points="941.488,-181.058 932.519,-186.698 943.048,-187.882 941.488,-181.058"/>
</g>
<!-- Node23&#45;&gt;Node22 -->
<g id="edge2" class="edge"><title>Node23&#45;&gt;Node22</title>
<path fill="none" stroke="midnightblue" d="M535.399,-133.977C608.972,-149.242 712.755,-171.268 782.479,-186.415"/>
<polygon fill="midnightblue" stroke="midnightblue" points="535.726,-130.471 525.224,-131.869 534.306,-137.325 535.726,-130.471"/>
</g>
<!-- Node24 -->
<g id="node3" class="node"><title>Node24</title>
<g id="a_node3"><a xlink:href="FunctionsGeneFeature_8cpp.html" target="_top" xlink:title="/home/yukiosir/workspace\l/CompilerProject/Software\l/pinhao/lib/FeaturesImpl\l/FunctionsGeneFeature.cpp">
<polygon fill="white" stroke="black" points="0,-0.5 0,-52.5 137,-52.5 137,-0.5 0,-0.5"/>
<text text-anchor="start" x="8" y="-40.5" font-family="Helvetica,sans-Serif" font-size="10.00">/home/yukiosir/workspace</text>
<text text-anchor="start" x="8" y="-29.5" font-family="Helvetica,sans-Serif" font-size="10.00">/CompilerProject/Software</text>
<text text-anchor="start" x="8" y="-18.5" font-family="Helvetica,sans-Serif" font-size="10.00">/pinhao/lib/FeaturesImpl</text>
<text text-anchor="middle" x="68.5" y="-7.5" font-family="Helvetica,sans-Serif" font-size="10.00">/FunctionsGeneFeature.cpp</text>
</a>
</g>
</g>
<!-- Node23&#45;&gt;Node24 -->
<g id="edge3" class="edge"><title>Node23&#45;&gt;Node24</title>
<path fill="none" stroke="midnightblue" d="M360.034,-99.5337C299.393,-88.4651 217.006,-72.0489 145.5,-53 142.779,-52.275 140.012,-51.5077 137.225,-50.709"/>
<polygon fill="midnightblue" stroke="midnightblue" points="359.489,-102.992 369.953,-101.332 360.738,-96.1043 359.489,-102.992"/>
</g>
<!-- Node25 -->
<g id="node4" class="node"><title>Node25</title>
<g id="a_node4"><a xlink:href="FunctionStaticCostFeature_8cpp.html" target="_top" xlink:title="/home/yukiosir/workspace\l/CompilerProject/Software\l/pinhao/lib/FeaturesImpl\l/FunctionStaticCostFeature.cpp">
<polygon fill="white" stroke="black" points="155,-0.5 155,-52.5 310,-52.5 310,-0.5 155,-0.5"/>
<text text-anchor="start" x="163" y="-40.5" font-family="Helvetica,sans-Serif" font-size="10.00">/home/yukiosir/workspace</text>
<text text-anchor="start" x="163" y="-29.5" font-family="Helvetica,sans-Serif" font-size="10.00">/CompilerProject/Software</text>
<text text-anchor="start" x="163" y="-18.5" font-family="Helvetica,sans-Serif" font-size="10.00">/pinhao/lib/FeaturesImpl</text>
<text text-anchor="middle" x="232.5" y="-7.5" font-family="Helvetica,sans-Serif" font-size="10.00">/FunctionStaticCostFeature.cpp</text>
</a>
</g>
</g>
<!-- Node23&#45;&gt;Node25 -->
<g id="edge4" class="edge"><title>Node23&#45;&gt;Node25</title>
<path fill="none" stroke="midnightblue" d="M376.022,-85.5764C349.579,-74.8763 319.849,-62.8457 294.334,-52.5211"/>
<polygon fill="midnightblue" stroke="midnightblue" points="375.019,-88.9461 385.602,-89.4527 377.645,-82.4572 375.019,-88.9461"/>
</g>
<!-- Node26 -->
<g id="node5" class="node"><title>Node26</title>
<g id="a_node5"><a xlink:href="GEOSBasicBlockFreqFeature_8cpp.html" target="_top" xlink:title="/home/yukiosir/workspace\l/CompilerProject/Software\l/pinhao/lib/FeaturesImpl\l/GEOSFeatures/GEOSBasicBlockFreqFeature.cpp">
<polygon fill="white" stroke="black" points="328,-0.5 328,-52.5 567,-52.5 567,-0.5 328,-0.5"/>
<text text-anchor="start" x="336" y="-40.5" font-family="Helvetica,sans-Serif" font-size="10.00">/home/yukiosir/workspace</text>
<text text-anchor="start" x="336" y="-29.5" font-family="Helvetica,sans-Serif" font-size="10.00">/CompilerProject/Software</text>
<text text-anchor="start" x="336" y="-18.5" font-family="Helvetica,sans-Serif" font-size="10.00">/pinhao/lib/FeaturesImpl</text>
<text text-anchor="middle" x="447.5" y="-7.5" font-family="Helvetica,sans-Serif" font-size="10.00">/GEOSFeatures/GEOSBasicBlockFreqFeature.cpp</text>
</a>
</g>
</g>
<!-- Node23&#45;&gt;Node26 -->
<g id="edge5" class="edge"><title>Node23&#45;&gt;Node26</title>
<path fill="none" stroke="midnightblue" d="M447.5,-79.1908C447.5,-70.2824 447.5,-60.8986 447.5,-52.6075"/>
<polygon fill="midnightblue" stroke="midnightblue" points="444,-79.336 447.5,-89.336 451,-79.336 444,-79.336"/>
</g>
<!-- Node27&#45;&gt;Node22 -->
<g id="edge7" class="edge"><title>Node27&#45;&gt;Node22</title>
<path fill="none" stroke="midnightblue" d="M864.141,-151.749C864.379,-160.655 864.227,-170.04 863.686,-178.336"/>
<polygon fill="midnightblue" stroke="midnightblue" points="867.631,-151.439 863.682,-141.607 860.638,-151.755 867.631,-151.439"/>
</g>
<!-- Node28 -->
<g id="node7" class="node"><title>Node28</title>
<g id="a_node7"><a xlink:href="CFGBasicBlockStaticFeatures_8cpp.html" target="_top" xlink:title="This file implements the CFGBasicBlockStaticFeatures class. ">
<polygon fill="white" stroke="black" points="585,-0.5 585,-52.5 758,-52.5 758,-0.5 585,-0.5"/>
<text text-anchor="start" x="593" y="-40.5" font-family="Helvetica,sans-Serif" font-size="10.00">/home/yukiosir/workspace</text>
<text text-anchor="start" x="593" y="-29.5" font-family="Helvetica,sans-Serif" font-size="10.00">/CompilerProject/Software</text>
<text text-anchor="start" x="593" y="-18.5" font-family="Helvetica,sans-Serif" font-size="10.00">/pinhao/lib/FeaturesImpl</text>
<text text-anchor="middle" x="671.5" y="-7.5" font-family="Helvetica,sans-Serif" font-size="10.00">/CFGBasicBlockStaticFeatures.cpp</text>
</a>
</g>
</g>
<!-- Node27&#45;&gt;Node28 -->
<g id="edge8" class="edge"><title>Node27&#45;&gt;Node28</title>
<path fill="none" stroke="midnightblue" d="M794.554,-85.0576C772.023,-74.5186 746.854,-62.7461 725.178,-52.6075"/>
<polygon fill="midnightblue" stroke="midnightblue" points="793.16,-88.2694 803.701,-89.336 796.126,-81.9288 793.16,-88.2694"/>
</g>
<!-- Node29 -->
<g id="node8" class="node"><title>Node29</title>
<g id="a_node8"><a xlink:href="CFGFunctionStaticFeatures_8cpp.html" target="_top" xlink:title="This file implements the CFGFunctionStaticFeatures class. ">
<polygon fill="white" stroke="black" points="776,-0.5 776,-52.5 937,-52.5 937,-0.5 776,-0.5"/>
<text text-anchor="start" x="784" y="-40.5" font-family="Helvetica,sans-Serif" font-size="10.00">/home/yukiosir/workspace</text>
<text text-anchor="start" x="784" y="-29.5" font-family="Helvetica,sans-Serif" font-size="10.00">/CompilerProject/Software</text>
<text text-anchor="start" x="784" y="-18.5" font-family="Helvetica,sans-Serif" font-size="10.00">/pinhao/lib/FeaturesImpl</text>
<text text-anchor="middle" x="856.5" y="-7.5" font-family="Helvetica,sans-Serif" font-size="10.00">/CFGFunctionStaticFeatures.cpp</text>
</a>
</g>
</g>
<!-- Node27&#45;&gt;Node29 -->
<g id="edge9" class="edge"><title>Node27&#45;&gt;Node29</title>
<path fill="none" stroke="midnightblue" d="M857.094,-79.1908C856.992,-70.2824 856.884,-60.8986 856.789,-52.6075"/>
<polygon fill="midnightblue" stroke="midnightblue" points="853.596,-79.3769 857.211,-89.336 860.595,-79.2964 853.596,-79.3769"/>
</g>
<!-- Node30 -->
<g id="node9" class="node"><title>Node30</title>
<g id="a_node9"><a xlink:href="CFGModuleStaticFeatures_8cpp.html" target="_top" xlink:title="/home/yukiosir/workspace\l/CompilerProject/Software\l/pinhao/lib/FeaturesImpl\l/CFGModuleStaticFeatures.cpp">
<polygon fill="white" stroke="black" points="955,-0.5 955,-52.5 1110,-52.5 1110,-0.5 955,-0.5"/>
<text text-anchor="start" x="963" y="-40.5" font-family="Helvetica,sans-Serif" font-size="10.00">/home/yukiosir/workspace</text>
<text text-anchor="start" x="963" y="-29.5" font-family="Helvetica,sans-Serif" font-size="10.00">/CompilerProject/Software</text>
<text text-anchor="start" x="963" y="-18.5" font-family="Helvetica,sans-Serif" font-size="10.00">/pinhao/lib/FeaturesImpl</text>
<text text-anchor="middle" x="1032.5" y="-7.5" font-family="Helvetica,sans-Serif" font-size="10.00">/CFGModuleStaticFeatures.cpp</text>
</a>
</g>
</g>
<!-- Node27&#45;&gt;Node30 -->
<g id="edge10" class="edge"><title>Node27&#45;&gt;Node30</title>
<path fill="none" stroke="midnightblue" d="M917.289,-84.7763C938.343,-74.3094 961.784,-62.656 981.997,-52.6075"/>
<polygon fill="midnightblue" stroke="midnightblue" points="915.514,-81.7502 908.117,-89.336 918.63,-88.0184 915.514,-81.7502"/>
</g>
<!-- Node31&#45;&gt;Node22 -->
<g id="edge12" class="edge"><title>Node31&#45;&gt;Node22</title>
<path fill="none" stroke="midnightblue" d="M978.332,-146.306C957.962,-156.732 934.686,-168.327 914.014,-178.336"/>
<polygon fill="midnightblue" stroke="midnightblue" points="980.175,-149.294 987.467,-141.607 976.974,-143.069 980.175,-149.294"/>
</g>
<!-- Node31&#45;&gt;Node30 -->
<g id="edge13" class="edge"><title>Node31&#45;&gt;Node30</title>
<path fill="none" stroke="midnightblue" d="M1031.91,-79.1908C1032.01,-70.2824 1032.12,-60.8986 1032.21,-52.6075"/>
<polygon fill="midnightblue" stroke="midnightblue" points="1028.4,-79.2964 1031.79,-89.336 1035.4,-79.3769 1028.4,-79.2964"/>
</g>
<!-- Node32 -->
<g id="node11" class="node"><title>Node32</title>
<g id="a_node11"><a xlink:href="GEOSFeatures_8cpp.html" target="_top" xlink:title="/home/yukiosir/workspace\l/CompilerProject/Software\l/pinhao/lib/FeaturesImpl\l/GEOSFeatures/GEOSFeatures.cpp">
<polygon fill="white" stroke="black" points="1128,-0.5 1128,-52.5 1303,-52.5 1303,-0.5 1128,-0.5"/>
<text text-anchor="start" x="1136" y="-40.5" font-family="Helvetica,sans-Serif" font-size="10.00">/home/yukiosir/workspace</text>
<text text-anchor="start" x="1136" y="-29.5" font-family="Helvetica,sans-Serif" font-size="10.00">/CompilerProject/Software</text>
<text text-anchor="start" x="1136" y="-18.5" font-family="Helvetica,sans-Serif" font-size="10.00">/pinhao/lib/FeaturesImpl</text>
<text text-anchor="middle" x="1215.5" y="-7.5" font-family="Helvetica,sans-Serif" font-size="10.00">/GEOSFeatures/GEOSFeatures.cpp</text>
</a>
</g>
</g>
<!-- Node31&#45;&gt;Node32 -->
<g id="edge14" class="edge"><title>Node31&#45;&gt;Node32</title>
<path fill="none" stroke="midnightblue" d="M1093.77,-85.0576C1116.06,-74.5186 1140.96,-62.7461 1162.4,-52.6075"/>
<polygon fill="midnightblue" stroke="midnightblue" points="1092.26,-81.8973 1084.72,-89.336 1095.26,-88.2255 1092.26,-81.8973"/>
</g>
<!-- Node33 -->
<g id="node12" class="node"><title>Node33</title>
<g id="a_node12"><a xlink:href="PAPIMultFeatures_8cpp.html" target="_top" xlink:title="This file implements the features extracted by the PAPI tool by multiplexing. ">
<polygon fill="white" stroke="black" points="1321,-0.5 1321,-52.5 1452,-52.5 1452,-0.5 1321,-0.5"/>
<text text-anchor="start" x="1329" y="-40.5" font-family="Helvetica,sans-Serif" font-size="10.00">/home/yukiosir/workspace</text>
<text text-anchor="start" x="1329" y="-29.5" font-family="Helvetica,sans-Serif" font-size="10.00">/CompilerProject/Software</text>
<text text-anchor="start" x="1329" y="-18.5" font-family="Helvetica,sans-Serif" font-size="10.00">/pinhao/lib/FeaturesImpl</text>
<text text-anchor="middle" x="1386.5" y="-7.5" font-family="Helvetica,sans-Serif" font-size="10.00">/PAPIMultFeatures.cpp</text>
</a>
</g>
</g>
<!-- Node31&#45;&gt;Node33 -->
<g id="edge15" class="edge"><title>Node31&#45;&gt;Node33</title>
<path fill="none" stroke="midnightblue" d="M1119.17,-88.9613C1205.61,-69.0875 1230.76,-74.5391 1312.5,-53 1315.26,-52.2728 1318.06,-51.4934 1320.89,-50.6751"/>
<polygon fill="midnightblue" stroke="midnightblue" points="1118.12,-85.6126 1109.18,-91.3059 1119.72,-92.4273 1118.12,-85.6126"/>
</g>
</g>
</svg>
