<?xml version="1.0" encoding="UTF-8" standalone="no"?>
<!DOCTYPE svg PUBLIC "-//W3C//DTD SVG 1.1//EN"
 "http://www.w3.org/Graphics/SVG/1.1/DTD/svg11.dtd">
<!-- Generated by graphviz version 2.38.0 (20140413.2041)
 -->
<!-- Title: /home/yukiosir/workspace/CompilerProject/Software/pinhao/include/pinhao/Features/Features.h Pages: 1 -->
<svg width="747pt" height="285pt"
 viewBox="0.00 0.00 747.40 285.00" xmlns="http://www.w3.org/2000/svg" xmlns:xlink="http://www.w3.org/1999/xlink">
<g id="graph0" class="graph" transform="scale(1 1) rotate(0) translate(4 281)">
<title>/home/yukiosir/workspace/CompilerProject/Software/pinhao/include/pinhao/Features/Features.h</title>
<polygon fill="white" stroke="none" points="-4,4 -4,-281 743.399,-281 743.399,4 -4,4"/>
<!-- Node0 -->
<g id="node1" class="node"><title>Node0</title>
<polygon fill="#bfbfbf" stroke="black" points="362.899,-224.5 362.899,-276.5 517.899,-276.5 517.899,-224.5 362.899,-224.5"/>
<text text-anchor="start" x="370.899" y="-264.5" font-family="Helvetica,sans-Serif" font-size="10.00">/home/yukiosir/workspace</text>
<text text-anchor="start" x="370.899" y="-253.5" font-family="Helvetica,sans-Serif" font-size="10.00">/CompilerProject/Software</text>
<text text-anchor="start" x="370.899" y="-242.5" font-family="Helvetica,sans-Serif" font-size="10.00">/pinhao/include/pinhao/Features</text>
<text text-anchor="middle" x="440.399" y="-231.5" font-family="Helvetica,sans-Serif" font-size="10.00">/Features.h</text>
</g>
<!-- Node1 -->
<g id="node2" class="node"><title>Node1</title>
<g id="a_node2"><a xlink:href="Feature_8h.html" target="_top" xlink:title="This file defines the base feature class. ">
<polygon fill="white" stroke="black" points="374.899,-168.5 374.899,-187.5 505.899,-187.5 505.899,-168.5 374.899,-168.5"/>
<text text-anchor="middle" x="440.399" y="-175.5" font-family="Helvetica,sans-Serif" font-size="10.00">pinhao/Features/Feature.h</text>
</a>
</g>
</g>
<!-- Node0&#45;&gt;Node1 -->
<g id="edge1" class="edge"><title>Node0&#45;&gt;Node1</title>
<path fill="none" stroke="midnightblue" d="M440.399,-224.446C440.399,-215.73 440.399,-206.104 440.399,-197.964"/>
<polygon fill="midnightblue" stroke="midnightblue" points="443.899,-197.695 440.399,-187.695 436.899,-197.696 443.899,-197.695"/>
</g>
<!-- Node2 -->
<g id="node3" class="node"><title>Node2</title>
<g id="a_node3"><a xlink:href="FeatureInfo_8h.html" target="_top" xlink:title="This file defines a class that holds some informations about a feature. ">
<polygon fill="white" stroke="black" points="42.899,-112.5 42.899,-131.5 189.899,-131.5 189.899,-112.5 42.899,-112.5"/>
<text text-anchor="middle" x="116.399" y="-119.5" font-family="Helvetica,sans-Serif" font-size="10.00">pinhao/Features/FeatureInfo.h</text>
</a>
</g>
</g>
<!-- Node1&#45;&gt;Node2 -->
<g id="edge2" class="edge"><title>Node1&#45;&gt;Node2</title>
<path fill="none" stroke="midnightblue" d="M389.06,-168.444C331.591,-158.865 238.532,-143.356 177.399,-133.167"/>
<polygon fill="midnightblue" stroke="midnightblue" points="177.937,-129.708 167.498,-131.516 176.786,-136.613 177.937,-129.708"/>
</g>
<!-- Node5 -->
<g id="node6" class="node"><title>Node5</title>
<polygon fill="white" stroke="#bfbfbf" points="213.899,-56.5 213.899,-75.5 248.899,-75.5 248.899,-56.5 213.899,-56.5"/>
<text text-anchor="middle" x="231.399" y="-63.5" font-family="Helvetica,sans-Serif" font-size="10.00">map</text>
</g>
<!-- Node1&#45;&gt;Node5 -->
<g id="edge15" class="edge"><title>Node1&#45;&gt;Node5</title>
<path fill="none" stroke="midnightblue" d="M374.796,-170.787C322.584,-164.39 255.388,-152.414 237.399,-132 226.521,-119.656 226.052,-100.406 227.684,-86.0544"/>
<polygon fill="midnightblue" stroke="midnightblue" points="231.197,-86.2409 229.284,-75.8202 224.281,-85.1592 231.197,-86.2409"/>
</g>
<!-- Node7 -->
<g id="node8" class="node"><title>Node7</title>
<polygon fill="white" stroke="#bfbfbf" points="291.899,-56.5 291.899,-75.5 340.899,-75.5 340.899,-56.5 291.899,-56.5"/>
<text text-anchor="middle" x="316.399" y="-63.5" font-family="Helvetica,sans-Serif" font-size="10.00">cassert</text>
</g>
<!-- Node1&#45;&gt;Node7 -->
<g id="edge16" class="edge"><title>Node1&#45;&gt;Node7</title>
<path fill="none" stroke="midnightblue" d="M440.14,-168.309C439.285,-154.686 435.747,-128.19 421.399,-112 411.601,-100.944 377.652,-87.5177 350.976,-78.223"/>
<polygon fill="midnightblue" stroke="midnightblue" points="351.768,-74.7953 341.174,-74.8766 349.507,-81.4199 351.768,-74.7953"/>
</g>
<!-- Node8 -->
<g id="node9" class="node"><title>Node8</title>
<g id="a_node9"><a xlink:href="FeatureRegistry_8h.html" target="_top" xlink:title="This file defines a class that has all the registered features. ">
<polygon fill="white" stroke="black" points="245.899,-112.5 245.899,-131.5 412.899,-131.5 412.899,-112.5 245.899,-112.5"/>
<text text-anchor="middle" x="329.399" y="-119.5" font-family="Helvetica,sans-Serif" font-size="10.00">pinhao/Features/FeatureRegistry.h</text>
</a>
</g>
</g>
<!-- Node1&#45;&gt;Node8 -->
<g id="edge9" class="edge"><title>Node1&#45;&gt;Node8</title>
<path fill="none" stroke="midnightblue" d="M422.565,-168.324C404.683,-159.625 376.924,-146.12 356.353,-136.113"/>
<polygon fill="midnightblue" stroke="midnightblue" points="357.712,-132.882 347.189,-131.655 354.65,-139.177 357.712,-132.882"/>
</g>
<!-- Node10 -->
<g id="node11" class="node"><title>Node10</title>
<polygon fill="white" stroke="#bfbfbf" points="468.899,-112.5 468.899,-131.5 559.899,-131.5 559.899,-112.5 468.899,-112.5"/>
<text text-anchor="middle" x="514.399" y="-119.5" font-family="Helvetica,sans-Serif" font-size="10.00">llvm/IR/Module.h</text>
</g>
<!-- Node1&#45;&gt;Node10 -->
<g id="edge13" class="edge"><title>Node1&#45;&gt;Node10</title>
<path fill="none" stroke="midnightblue" d="M452.288,-168.324C463.549,-160.107 480.686,-147.602 494.108,-137.807"/>
<polygon fill="midnightblue" stroke="midnightblue" points="496.279,-140.556 502.293,-131.834 492.152,-134.901 496.279,-140.556"/>
</g>
<!-- Node11 -->
<g id="node12" class="node"><title>Node11</title>
<polygon fill="white" stroke="#bfbfbf" points="577.899,-112.5 577.899,-131.5 666.899,-131.5 666.899,-112.5 577.899,-112.5"/>
<text text-anchor="middle" x="622.399" y="-119.5" font-family="Helvetica,sans-Serif" font-size="10.00">yaml&#45;cpp/yaml.h</text>
</g>
<!-- Node1&#45;&gt;Node11 -->
<g id="edge14" class="edge"><title>Node1&#45;&gt;Node11</title>
<path fill="none" stroke="midnightblue" d="M469.237,-168.444C500.255,-159.241 549.728,-144.562 584.017,-134.388"/>
<polygon fill="midnightblue" stroke="midnightblue" points="585.104,-137.716 593.696,-131.516 583.113,-131.006 585.104,-137.716"/>
</g>
<!-- Node12 -->
<g id="node13" class="node"><title>Node12</title>
<polygon fill="white" stroke="#bfbfbf" points="685.399,-112.5 685.399,-131.5 739.399,-131.5 739.399,-112.5 685.399,-112.5"/>
<text text-anchor="middle" x="712.399" y="-119.5" font-family="Helvetica,sans-Serif" font-size="10.00">iostream</text>
</g>
<!-- Node1&#45;&gt;Node12 -->
<g id="edge17" class="edge"><title>Node1&#45;&gt;Node12</title>
<path fill="none" stroke="midnightblue" d="M489.379,-168.495C535.076,-160.372 605.371,-147.4 675.43,-132.118"/>
<polygon fill="midnightblue" stroke="midnightblue" points="676.295,-135.511 685.311,-129.946 674.793,-128.674 676.295,-135.511"/>
</g>
<!-- Node3 -->
<g id="node4" class="node"><title>Node3</title>
<g id="a_node4"><a xlink:href="Types_8h.html" target="_top" xlink:title="pinhao/Support/Types.h">
<polygon fill="white" stroke="black" points="13.399,-56.5 13.399,-75.5 133.399,-75.5 133.399,-56.5 13.399,-56.5"/>
<text text-anchor="middle" x="73.399" y="-63.5" font-family="Helvetica,sans-Serif" font-size="10.00">pinhao/Support/Types.h</text>
</a>
</g>
</g>
<!-- Node2&#45;&gt;Node3 -->
<g id="edge3" class="edge"><title>Node2&#45;&gt;Node3</title>
<path fill="none" stroke="midnightblue" d="M109.298,-112.083C103.162,-104.377 94.1293,-93.0333 86.6598,-83.6531"/>
<polygon fill="midnightblue" stroke="midnightblue" points="89.3348,-81.3936 80.3675,-75.7511 83.8588,-85.7542 89.3348,-81.3936"/>
</g>
<!-- Node4 -->
<g id="node5" class="node"><title>Node4</title>
<polygon fill="white" stroke="#bfbfbf" points="8.89903,-0.5 8.89903,-19.5 49.899,-19.5 49.899,-0.5 8.89903,-0.5"/>
<text text-anchor="middle" x="29.399" y="-7.5" font-family="Helvetica,sans-Serif" font-size="10.00">string</text>
</g>
<!-- Node2&#45;&gt;Node4 -->
<g id="edge7" class="edge"><title>Node2&#45;&gt;Node4</title>
<path fill="none" stroke="midnightblue" d="M61.2598,-112.42C39.8012,-106.092 17.3073,-95.0975 4.39903,-76 -5.70933,-61.0449 4.47531,-41.4259 14.7215,-27.6693"/>
<polygon fill="midnightblue" stroke="midnightblue" points="17.6913,-29.5627 21.251,-19.5837 12.2453,-25.1648 17.6913,-29.5627"/>
</g>
<!-- Node2&#45;&gt;Node5 -->
<g id="edge5" class="edge"><title>Node2&#45;&gt;Node5</title>
<path fill="none" stroke="midnightblue" d="M134.621,-112.444C153.405,-103.624 182.9,-89.7736 204.394,-79.6805"/>
<polygon fill="midnightblue" stroke="midnightblue" points="206.076,-82.7576 213.64,-75.339 203.101,-76.4213 206.076,-82.7576"/>
</g>
<!-- Node6 -->
<g id="node7" class="node"><title>Node6</title>
<polygon fill="white" stroke="#bfbfbf" points="151.399,-56.5 151.399,-75.5 195.399,-75.5 195.399,-56.5 151.399,-56.5"/>
<text text-anchor="middle" x="173.399" y="-63.5" font-family="Helvetica,sans-Serif" font-size="10.00">vector</text>
</g>
<!-- Node2&#45;&gt;Node6 -->
<g id="edge6" class="edge"><title>Node2&#45;&gt;Node6</title>
<path fill="none" stroke="midnightblue" d="M125.557,-112.324C133.901,-104.42 146.431,-92.5482 156.576,-82.9377"/>
<polygon fill="midnightblue" stroke="midnightblue" points="159.222,-85.2522 164.074,-75.8339 154.408,-80.1705 159.222,-85.2522"/>
</g>
<!-- Node2&#45;&gt;Node7 -->
<g id="edge8" class="edge"><title>Node2&#45;&gt;Node7</title>
<path fill="none" stroke="midnightblue" d="M148.09,-112.444C184.536,-102.603 244.171,-86.5016 281.8,-76.3418"/>
<polygon fill="midnightblue" stroke="midnightblue" points="283.05,-79.6296 291.792,-73.6439 281.225,-72.8716 283.05,-79.6296"/>
</g>
<!-- Node3&#45;&gt;Node4 -->
<g id="edge4" class="edge"><title>Node3&#45;&gt;Node4</title>
<path fill="none" stroke="midnightblue" d="M66.1333,-56.083C59.8542,-48.3768 50.6114,-37.0333 42.9682,-27.6531"/>
<polygon fill="midnightblue" stroke="midnightblue" points="45.5596,-25.2926 36.5295,-19.7511 40.133,-29.7143 45.5596,-25.2926"/>
</g>
<!-- Node8&#45;&gt;Node5 -->
<g id="edge12" class="edge"><title>Node8&#45;&gt;Node5</title>
<path fill="none" stroke="midnightblue" d="M313.654,-112.324C298.08,-103.743 274.022,-90.486 255.94,-80.5224"/>
<polygon fill="midnightblue" stroke="midnightblue" points="257.553,-77.4152 247.105,-75.6545 254.175,-83.546 257.553,-77.4152"/>
</g>
<!-- Node8&#45;&gt;Node7 -->
<g id="edge11" class="edge"><title>Node8&#45;&gt;Node7</title>
<path fill="none" stroke="midnightblue" d="M327.252,-112.083C325.53,-104.927 323.052,-94.6353 320.899,-85.6911"/>
<polygon fill="midnightblue" stroke="midnightblue" points="324.249,-84.6541 318.506,-75.7511 317.444,-86.2925 324.249,-84.6541"/>
</g>
<!-- Node9 -->
<g id="node10" class="node"><title>Node9</title>
<polygon fill="white" stroke="#bfbfbf" points="359.399,-56.5 359.399,-75.5 411.399,-75.5 411.399,-56.5 359.399,-56.5"/>
<text text-anchor="middle" x="385.399" y="-63.5" font-family="Helvetica,sans-Serif" font-size="10.00">memory</text>
</g>
<!-- Node8&#45;&gt;Node9 -->
<g id="edge10" class="edge"><title>Node8&#45;&gt;Node9</title>
<path fill="none" stroke="midnightblue" d="M338.396,-112.324C346.593,-104.42 358.905,-92.5482 368.871,-82.9377"/>
<polygon fill="midnightblue" stroke="midnightblue" points="371.469,-85.2947 376.238,-75.8339 366.61,-80.2558 371.469,-85.2947"/>
</g>
</g>
</svg>
