<?xml version="1.0" encoding="UTF-8" standalone="no"?>
<!DOCTYPE svg PUBLIC "-//W3C//DTD SVG 1.1//EN"
 "http://www.w3.org/Graphics/SVG/1.1/DTD/svg11.dtd">
<!-- Generated by graphviz version 2.38.0 (20140413.2041)
 -->
<!-- Title: /home/yukiosir/workspace/CompilerProject/Software/pinhao/include/pinhao/Features/Feature.h Pages: 1 -->
<!--zoomable 229 -->
<svg id="main" version="1.1" xmlns="http://www.w3.org/2000/svg" xmlns:xlink="http://www.w3.org/1999/xlink" xml:space="preserve" onload="init(evt)">
<style type="text/css"><![CDATA[
.edge:hover path { stroke: red; }
.edge:hover polygon { stroke: red; fill: red; }
]]></style>
<script type="text/javascript"><![CDATA[
var edges = document.getElementsByTagName('g');
if (edges && edges.length) {
  for (var i=0;i<edges.length;i++) {
    if (edges[i].id.substr(0,4)=='edge') {
      edges[i].setAttribute('class','edge');
    }
  }
}
]]></script>
        <defs>
                <circle id="rim" cx="0" cy="0" r="7"/>
                <circle id="rim2" cx="0" cy="0" r="3.5"/>
                <g id="zoomPlus">
                        <use xlink:href="#rim" fill="#404040">
                                <set attributeName="fill" to="#808080" begin="zoomplus.mouseover" end="zoomplus.mouseout"/>
                        </use>
                        <path d="M-4,0h8M0,-4v8" fill="none" stroke="white" stroke-width="1.5" pointer-events="none"/>
                </g>
                <g id="zoomMin">
                        <use xlink:href="#rim" fill="#404040">
                                <set attributeName="fill" to="#808080" begin="zoomminus.mouseover" end="zoomminus.mouseout"/>
                        </use>
                        <path d="M-4,0h8" fill="none" stroke="white" stroke-width="1.5" pointer-events="none"/>
                </g>
                <g id="dirArrow">
                        <path fill="none" stroke="white" stroke-width="1.5" d="M0,-3.0v7 M-2.5,-0.5L0,-3.0L2.5,-0.5"/>
                </g>
               <g id="resetDef">
                       <use xlink:href="#rim2" fill="#404040">
                               <set attributeName="fill" to="#808080" begin="reset.mouseover" end="reset.mouseout"/>
                       </use>
               </g>
        </defs>

<script type="text/javascript">
var viewWidth = 747;
var viewHeight = 229;
var sectionId = 'dynsection-0';
</script>
<script xlink:href="svgpan.js"/>
<svg id="graph" class="graph">
<g id="viewport">
<title>/home/yukiosir/workspace/CompilerProject/Software/pinhao/include/pinhao/Features/Feature.h</title>
<polygon fill="white" stroke="none" points="-4,4 -4,-225 743.399,-225 743.399,4 -4,4"/>
<!-- Node0 -->
<g id="node1" class="node"><title>Node0</title>
<polygon fill="#bfbfbf" stroke="black" points="362.899,-168.5 362.899,-220.5 517.899,-220.5 517.899,-168.5 362.899,-168.5"/>
<text text-anchor="start" x="370.899" y="-208.5" font-family="Helvetica,sans-Serif" font-size="10.00">/home/yukiosir/workspace</text>
<text text-anchor="start" x="370.899" y="-197.5" font-family="Helvetica,sans-Serif" font-size="10.00">/CompilerProject/Software</text>
<text text-anchor="start" x="370.899" y="-186.5" font-family="Helvetica,sans-Serif" font-size="10.00">/pinhao/include/pinhao/Features</text>
<text text-anchor="middle" x="440.399" y="-175.5" font-family="Helvetica,sans-Serif" font-size="10.00">/Feature.h</text>
</g>
<!-- Node1 -->
<g id="node2" class="node"><title>Node1</title>
<g id="a_node2"><a xlink:href="FeatureInfo_8h.html" target="_top" xlink:title="This file defines a class that holds some informations about a feature. ">
<polygon fill="white" stroke="black" points="42.899,-112.5 42.899,-131.5 189.899,-131.5 189.899,-112.5 42.899,-112.5"/>
<text text-anchor="middle" x="116.399" y="-119.5" font-family="Helvetica,sans-Serif" font-size="10.00">pinhao/Features/FeatureInfo.h</text>
</a>
</g>
</g>
<!-- Node0&#45;&gt;Node1 -->
<g id="edge1" class="edge"><title>Node0&#45;&gt;Node1</title>
<path fill="none" stroke="midnightblue" d="M362.793,-176.613C301.54,-163.285 217.953,-145.097 165.591,-133.704"/>
<polygon fill="midnightblue" stroke="midnightblue" points="166.066,-130.225 155.55,-131.519 164.577,-137.065 166.066,-130.225"/>
</g>
<!-- Node4 -->
<g id="node5" class="node"><title>Node4</title>
<polygon fill="white" stroke="#bfbfbf" points="213.899,-56.5 213.899,-75.5 248.899,-75.5 248.899,-56.5 213.899,-56.5"/>
<text text-anchor="middle" x="231.399" y="-63.5" font-family="Helvetica,sans-Serif" font-size="10.00">map</text>
</g>
<!-- Node0&#45;&gt;Node4 -->
<g id="edge14" class="edge"><title>Node0&#45;&gt;Node4</title>
<path fill="none" stroke="midnightblue" d="M362.766,-190.358C319.139,-184.255 267.546,-168.951 237.399,-132 226.998,-119.251 226.464,-100.056 227.952,-85.8271"/>
<polygon fill="midnightblue" stroke="midnightblue" points="231.449,-86.0987 229.428,-75.6985 224.522,-85.0892 231.449,-86.0987"/>
</g>
<!-- Node6 -->
<g id="node7" class="node"><title>Node6</title>
<polygon fill="white" stroke="#bfbfbf" points="291.899,-56.5 291.899,-75.5 340.899,-75.5 340.899,-56.5 291.899,-56.5"/>
<text text-anchor="middle" x="316.399" y="-63.5" font-family="Helvetica,sans-Serif" font-size="10.00">cassert</text>
</g>
<!-- Node0&#45;&gt;Node6 -->
<g id="edge15" class="edge"><title>Node0&#45;&gt;Node6</title>
<path fill="none" stroke="midnightblue" d="M440.307,-168.442C438.984,-150.831 434.556,-127.701 421.399,-112 411.869,-100.628 377.61,-87.1766 350.785,-77.9616"/>
<polygon fill="midnightblue" stroke="midnightblue" points="351.892,-74.6412 341.298,-74.7699 349.66,-81.2759 351.892,-74.6412"/>
</g>
<!-- Node7 -->
<g id="node8" class="node"><title>Node7</title>
<g id="a_node8"><a xlink:href="FeatureRegistry_8h.html" target="_top" xlink:title="This file defines a class that has all the registered features. ">
<polygon fill="white" stroke="black" points="245.899,-112.5 245.899,-131.5 412.899,-131.5 412.899,-112.5 245.899,-112.5"/>
<text text-anchor="middle" x="329.399" y="-119.5" font-family="Helvetica,sans-Serif" font-size="10.00">pinhao/Features/FeatureRegistry.h</text>
</a>
</g>
</g>
<!-- Node0&#45;&gt;Node7 -->
<g id="edge8" class="edge"><title>Node0&#45;&gt;Node7</title>
<path fill="none" stroke="midnightblue" d="M400.952,-168.446C384.288,-157.862 365.511,-145.936 351.375,-136.958"/>
<polygon fill="midnightblue" stroke="midnightblue" points="353.142,-133.934 342.824,-131.527 349.389,-139.843 353.142,-133.934"/>
</g>
<!-- Node9 -->
<g id="node10" class="node"><title>Node9</title>
<polygon fill="white" stroke="#bfbfbf" points="468.899,-112.5 468.899,-131.5 559.899,-131.5 559.899,-112.5 468.899,-112.5"/>
<text text-anchor="middle" x="514.399" y="-119.5" font-family="Helvetica,sans-Serif" font-size="10.00">llvm/IR/Module.h</text>
</g>
<!-- Node0&#45;&gt;Node9 -->
<g id="edge12" class="edge"><title>Node0&#45;&gt;Node9</title>
<path fill="none" stroke="midnightblue" d="M466.697,-168.446C477.107,-158.528 488.754,-147.432 497.934,-138.687"/>
<polygon fill="midnightblue" stroke="midnightblue" points="500.446,-141.127 505.272,-131.695 495.617,-136.059 500.446,-141.127"/>
</g>
<!-- Node10 -->
<g id="node11" class="node"><title>Node10</title>
<polygon fill="white" stroke="#bfbfbf" points="577.899,-112.5 577.899,-131.5 666.899,-131.5 666.899,-112.5 577.899,-112.5"/>
<text text-anchor="middle" x="622.399" y="-119.5" font-family="Helvetica,sans-Serif" font-size="10.00">yaml&#45;cpp/yaml.h</text>
</g>
<!-- Node0&#45;&gt;Node10 -->
<g id="edge13" class="edge"><title>Node0&#45;&gt;Node10</title>
<path fill="none" stroke="midnightblue" d="M505.078,-168.446C534.222,-157.156 567.308,-144.34 590.897,-135.203"/>
<polygon fill="midnightblue" stroke="midnightblue" points="592.326,-138.403 600.386,-131.527 589.797,-131.875 592.326,-138.403"/>
</g>
<!-- Node11 -->
<g id="node12" class="node"><title>Node11</title>
<polygon fill="white" stroke="#bfbfbf" points="685.399,-112.5 685.399,-131.5 739.399,-131.5 739.399,-112.5 685.399,-112.5"/>
<text text-anchor="middle" x="712.399" y="-119.5" font-family="Helvetica,sans-Serif" font-size="10.00">iostream</text>
</g>
<!-- Node0&#45;&gt;Node11 -->
<g id="edge16" class="edge"><title>Node0&#45;&gt;Node11</title>
<path fill="none" stroke="midnightblue" d="M517.979,-173.392C569.548,-160.026 634.952,-143.074 675.225,-132.635"/>
<polygon fill="midnightblue" stroke="midnightblue" points="676.343,-135.961 685.145,-130.064 674.587,-129.185 676.343,-135.961"/>
</g>
<!-- Node2 -->
<g id="node3" class="node"><title>Node2</title>
<g id="a_node3"><a xlink:href="Types_8h.html" target="_top" xlink:title="pinhao/Support/Types.h">
<polygon fill="white" stroke="black" points="13.399,-56.5 13.399,-75.5 133.399,-75.5 133.399,-56.5 13.399,-56.5"/>
<text text-anchor="middle" x="73.399" y="-63.5" font-family="Helvetica,sans-Serif" font-size="10.00">pinhao/Support/Types.h</text>
</a>
</g>
</g>
<!-- Node1&#45;&gt;Node2 -->
<g id="edge2" class="edge"><title>Node1&#45;&gt;Node2</title>
<path fill="none" stroke="midnightblue" d="M109.298,-112.083C103.162,-104.377 94.1293,-93.0333 86.6598,-83.6531"/>
<polygon fill="midnightblue" stroke="midnightblue" points="89.3348,-81.3936 80.3675,-75.7511 83.8588,-85.7542 89.3348,-81.3936"/>
</g>
<!-- Node3 -->
<g id="node4" class="node"><title>Node3</title>
<polygon fill="white" stroke="#bfbfbf" points="8.89903,-0.5 8.89903,-19.5 49.899,-19.5 49.899,-0.5 8.89903,-0.5"/>
<text text-anchor="middle" x="29.399" y="-7.5" font-family="Helvetica,sans-Serif" font-size="10.00">string</text>
</g>
<!-- Node1&#45;&gt;Node3 -->
<g id="edge6" class="edge"><title>Node1&#45;&gt;Node3</title>
<path fill="none" stroke="midnightblue" d="M61.2598,-112.42C39.8012,-106.092 17.3073,-95.0975 4.39903,-76 -5.70933,-61.0449 4.47531,-41.4259 14.7215,-27.6693"/>
<polygon fill="midnightblue" stroke="midnightblue" points="17.6913,-29.5627 21.251,-19.5837 12.2453,-25.1648 17.6913,-29.5627"/>
</g>
<!-- Node1&#45;&gt;Node4 -->
<g id="edge4" class="edge"><title>Node1&#45;&gt;Node4</title>
<path fill="none" stroke="midnightblue" d="M134.621,-112.444C153.405,-103.624 182.9,-89.7736 204.394,-79.6805"/>
<polygon fill="midnightblue" stroke="midnightblue" points="206.076,-82.7576 213.64,-75.339 203.101,-76.4213 206.076,-82.7576"/>
</g>
<!-- Node5 -->
<g id="node6" class="node"><title>Node5</title>
<polygon fill="white" stroke="#bfbfbf" points="151.399,-56.5 151.399,-75.5 195.399,-75.5 195.399,-56.5 151.399,-56.5"/>
<text text-anchor="middle" x="173.399" y="-63.5" font-family="Helvetica,sans-Serif" font-size="10.00">vector</text>
</g>
<!-- Node1&#45;&gt;Node5 -->
<g id="edge5" class="edge"><title>Node1&#45;&gt;Node5</title>
<path fill="none" stroke="midnightblue" d="M125.557,-112.324C133.901,-104.42 146.431,-92.5482 156.576,-82.9377"/>
<polygon fill="midnightblue" stroke="midnightblue" points="159.222,-85.2522 164.074,-75.8339 154.408,-80.1705 159.222,-85.2522"/>
</g>
<!-- Node1&#45;&gt;Node6 -->
<g id="edge7" class="edge"><title>Node1&#45;&gt;Node6</title>
<path fill="none" stroke="midnightblue" d="M148.09,-112.444C184.536,-102.603 244.171,-86.5016 281.8,-76.3418"/>
<polygon fill="midnightblue" stroke="midnightblue" points="283.05,-79.6296 291.792,-73.6439 281.225,-72.8716 283.05,-79.6296"/>
</g>
<!-- Node2&#45;&gt;Node3 -->
<g id="edge3" class="edge"><title>Node2&#45;&gt;Node3</title>
<path fill="none" stroke="midnightblue" d="M66.1333,-56.083C59.8542,-48.3768 50.6114,-37.0333 42.9682,-27.6531"/>
<polygon fill="midnightblue" stroke="midnightblue" points="45.5596,-25.2926 36.5295,-19.7511 40.133,-29.7143 45.5596,-25.2926"/>
</g>
<!-- Node7&#45;&gt;Node4 -->
<g id="edge11" class="edge"><title>Node7&#45;&gt;Node4</title>
<path fill="none" stroke="midnightblue" d="M313.654,-112.324C298.08,-103.743 274.022,-90.486 255.94,-80.5224"/>
<polygon fill="midnightblue" stroke="midnightblue" points="257.553,-77.4152 247.105,-75.6545 254.175,-83.546 257.553,-77.4152"/>
</g>
<!-- Node7&#45;&gt;Node6 -->
<g id="edge10" class="edge"><title>Node7&#45;&gt;Node6</title>
<path fill="none" stroke="midnightblue" d="M327.252,-112.083C325.53,-104.927 323.052,-94.6353 320.899,-85.6911"/>
<polygon fill="midnightblue" stroke="midnightblue" points="324.249,-84.6541 318.506,-75.7511 317.444,-86.2925 324.249,-84.6541"/>
</g>
<!-- Node8 -->
<g id="node9" class="node"><title>Node8</title>
<polygon fill="white" stroke="#bfbfbf" points="359.399,-56.5 359.399,-75.5 411.399,-75.5 411.399,-56.5 359.399,-56.5"/>
<text text-anchor="middle" x="385.399" y="-63.5" font-family="Helvetica,sans-Serif" font-size="10.00">memory</text>
</g>
<!-- Node7&#45;&gt;Node8 -->
<g id="edge9" class="edge"><title>Node7&#45;&gt;Node8</title>
<path fill="none" stroke="midnightblue" d="M338.396,-112.324C346.593,-104.42 358.905,-92.5482 368.871,-82.9377"/>
<polygon fill="midnightblue" stroke="midnightblue" points="371.469,-85.2947 376.238,-75.8339 366.61,-80.2558 371.469,-85.2947"/>
</g>
</g>
</svg>
        <g id="navigator" transform="translate(0 0)" fill="#404254">
                <rect fill="#f2f5e9" fill-opacity="0.5" stroke="#606060" stroke-width=".5" x="0" y="0" width="60" height="60"/>
                <use id="zoomplus" xlink:href="#zoomPlus" x="17" y="9" onmousedown="handleZoom(evt,'in')"/>
                <use id="zoomminus" xlink:href="#zoomMin" x="42" y="9" onmousedown="handleZoom(evt,'out')"/>
                <use id="reset" xlink:href="#resetDef" x="30" y="36" onmousedown="handleReset()"/>
                <g id="arrowUp" xlink:href="#dirArrow" transform="translate(30 24)" onmousedown="handlePan(0,-1)">
                  <use xlink:href="#rim" fill="#404040">
                        <set attributeName="fill" to="#808080" begin="arrowUp.mouseover" end="arrowUp.mouseout"/>
                  </use>
                  <path fill="none" stroke="white" stroke-width="1.5" d="M0,-3.0v7 M-2.5,-0.5L0,-3.0L2.5,-0.5"/>
                </g>
                <g id="arrowRight" xlink:href="#dirArrow" transform="rotate(90) translate(36 -43)" onmousedown="handlePan(1,0)">
                  <use xlink:href="#rim" fill="#404040">
                        <set attributeName="fill" to="#808080" begin="arrowRight.mouseover" end="arrowRight.mouseout"/>
                  </use>
                  <path fill="none" stroke="white" stroke-width="1.5" d="M0,-3.0v7 M-2.5,-0.5L0,-3.0L2.5,-0.5"/>
                </g>
                <g id="arrowDown" xlink:href="#dirArrow" transform="rotate(180) translate(-30 -48)" onmousedown="handlePan(0,1)">
                  <use xlink:href="#rim" fill="#404040">
                        <set attributeName="fill" to="#808080" begin="arrowDown.mouseover" end="arrowDown.mouseout"/>
                  </use>
                  <path fill="none" stroke="white" stroke-width="1.5" d="M0,-3.0v7 M-2.5,-0.5L0,-3.0L2.5,-0.5"/>
                </g>
                <g id="arrowLeft" xlink:href="#dirArrow" transform="rotate(270) translate(-36 17)" onmousedown="handlePan(-1,0)">
                  <use xlink:href="#rim" fill="#404040">
                        <set attributeName="fill" to="#808080" begin="arrowLeft.mouseover" end="arrowLeft.mouseout"/>
                  </use>
                  <path fill="none" stroke="white" stroke-width="1.5" d="M0,-3.0v7 M-2.5,-0.5L0,-3.0L2.5,-0.5"/>
                </g>
        </g>
        <svg viewBox="0 0 15 15" width="100%" height="30px" preserveAspectRatio="xMaxYMin meet">
         <g id="arrow_out" transform="scale(0.3 0.3)">
          <a xlink:href="Feature_8h__incl_org.svg" target="_base">
           <rect id="button" ry="5" rx="5" y="6" x="6" height="38" width="38"
                fill="#f2f5e9" fill-opacity="0.5" stroke="#606060" stroke-width="1.0"/>
           <path id="arrow"
             d="M 11.500037,31.436501 C 11.940474,20.09759 22.043105,11.32322 32.158766,21.979434 L 37.068811,17.246167 C 37.068811,17.246167 37.088388,32 37.088388,32 L 22.160133,31.978069 C 22.160133,31.978069 26.997745,27.140456 26.997745,27.140456 C 18.528582,18.264221 13.291696,25.230495 11.500037,31.436501 z"
             style="fill:#404040;"/>
          </a>
         </g>
        </svg>
</svg>
