<?xml version="1.0" encoding="UTF-8" standalone="no"?>
<!DOCTYPE svg PUBLIC "-//W3C//DTD SVG 1.1//EN"
 "http://www.w3.org/Graphics/SVG/1.1/DTD/svg11.dtd">
<!-- Generated by graphviz version 2.38.0 (20140413.2041)
 -->
<!-- Title: /home/yukiosir/workspace/CompilerProject/Software/pinhao/include/pinhao/Features/FeatureSet.h Pages: 1 -->
<svg width="1401pt" height="595pt"
 viewBox="0.00 0.00 1400.50 595.00" xmlns="http://www.w3.org/2000/svg" xmlns:xlink="http://www.w3.org/1999/xlink">
<g id="graph0" class="graph" transform="scale(1 1) rotate(0) translate(4 591)">
<title>/home/yukiosir/workspace/CompilerProject/Software/pinhao/include/pinhao/Features/FeatureSet.h</title>
<polygon fill="white" stroke="none" points="-4,4 -4,-591 1396.5,-591 1396.5,4 -4,4"/>
<!-- Node14 -->
<g id="node1" class="node"><title>Node14</title>
<polygon fill="#bfbfbf" stroke="black" points="698.5,-534.5 698.5,-586.5 853.5,-586.5 853.5,-534.5 698.5,-534.5"/>
<text text-anchor="start" x="706.5" y="-574.5" font-family="Helvetica,sans-Serif" font-size="10.00">/home/yukiosir/workspace</text>
<text text-anchor="start" x="706.5" y="-563.5" font-family="Helvetica,sans-Serif" font-size="10.00">/CompilerProject/Software</text>
<text text-anchor="start" x="706.5" y="-552.5" font-family="Helvetica,sans-Serif" font-size="10.00">/pinhao/include/pinhao/Features</text>
<text text-anchor="middle" x="776" y="-541.5" font-family="Helvetica,sans-Serif" font-size="10.00">/FeatureSet.h</text>
</g>
<!-- Node15 -->
<g id="node2" class="node"><title>Node15</title>
<g id="a_node2"><a xlink:href="Formula_8h.html" target="_top" xlink:title="/home/yukiosir/workspace\l/CompilerProject/Software\l/pinhao/include/pinhao/MachineLearning\l/GrammarEvolution/Formula.h">
<polygon fill="white" stroke="black" points="482,-445.5 482,-497.5 672,-497.5 672,-445.5 482,-445.5"/>
<text text-anchor="start" x="490" y="-485.5" font-family="Helvetica,sans-Serif" font-size="10.00">/home/yukiosir/workspace</text>
<text text-anchor="start" x="490" y="-474.5" font-family="Helvetica,sans-Serif" font-size="10.00">/CompilerProject/Software</text>
<text text-anchor="start" x="490" y="-463.5" font-family="Helvetica,sans-Serif" font-size="10.00">/pinhao/include/pinhao/MachineLearning</text>
<text text-anchor="middle" x="577" y="-452.5" font-family="Helvetica,sans-Serif" font-size="10.00">/GrammarEvolution/Formula.h</text>
</a>
</g>
</g>
<!-- Node14&#45;&gt;Node15 -->
<g id="edge1" class="edge"><title>Node14&#45;&gt;Node15</title>
<path fill="none" stroke="midnightblue" d="M709.519,-530.436C685.125,-519.771 657.745,-507.8 634.232,-497.521"/>
<polygon fill="midnightblue" stroke="midnightblue" points="708.143,-533.654 718.708,-534.453 710.947,-527.24 708.143,-533.654"/>
</g>
<!-- Node28 -->
<g id="node15" class="node"><title>Node28</title>
<g id="a_node15"><a xlink:href="FeatureSet_8cpp.html" target="_top" xlink:title="/home/yukiosir/workspace\l/CompilerProject/Software\l/pinhao/lib/Features/FeatureSet.cpp">
<polygon fill="white" stroke="black" points="690,-451 690,-492 862,-492 862,-451 690,-451"/>
<text text-anchor="start" x="698" y="-480" font-family="Helvetica,sans-Serif" font-size="10.00">/home/yukiosir/workspace</text>
<text text-anchor="start" x="698" y="-469" font-family="Helvetica,sans-Serif" font-size="10.00">/CompilerProject/Software</text>
<text text-anchor="middle" x="776" y="-458" font-family="Helvetica,sans-Serif" font-size="10.00">/pinhao/lib/Features/FeatureSet.cpp</text>
</a>
</g>
</g>
<!-- Node14&#45;&gt;Node28 -->
<g id="edge21" class="edge"><title>Node14&#45;&gt;Node28</title>
<path fill="none" stroke="midnightblue" d="M776,-524.155C776,-513.21 776,-501.549 776,-492.082"/>
<polygon fill="midnightblue" stroke="midnightblue" points="772.5,-524.336 776,-534.336 779.5,-524.336 772.5,-524.336"/>
</g>
<!-- Node29 -->
<g id="node16" class="node"><title>Node29</title>
<g id="a_node16"><a xlink:href="Main_8cpp.html" target="_top" xlink:title="/home/yukiosir/workspace\l/CompilerProject/Software\l/pinhao/tools/SimpleGrammarEvolution\l/Main.cpp">
<polygon fill="white" stroke="black" points="880,-445.5 880,-497.5 1066,-497.5 1066,-445.5 880,-445.5"/>
<text text-anchor="start" x="888" y="-485.5" font-family="Helvetica,sans-Serif" font-size="10.00">/home/yukiosir/workspace</text>
<text text-anchor="start" x="888" y="-474.5" font-family="Helvetica,sans-Serif" font-size="10.00">/CompilerProject/Software</text>
<text text-anchor="start" x="888" y="-463.5" font-family="Helvetica,sans-Serif" font-size="10.00">/pinhao/tools/SimpleGrammarEvolution</text>
<text text-anchor="middle" x="973" y="-452.5" font-family="Helvetica,sans-Serif" font-size="10.00">/Main.cpp</text>
</a>
</g>
</g>
<!-- Node14&#45;&gt;Node29 -->
<g id="edge22" class="edge"><title>Node14&#45;&gt;Node29</title>
<path fill="none" stroke="midnightblue" d="M842.132,-530.295C866.2,-519.665 893.169,-507.755 916.343,-497.521"/>
<polygon fill="midnightblue" stroke="midnightblue" points="840.45,-527.211 832.716,-534.453 843.278,-533.615 840.45,-527.211"/>
</g>
<!-- Node16 -->
<g id="node3" class="node"><title>Node16</title>
<g id="a_node3"><a xlink:href="BinOpFormula_8h.html" target="_top" xlink:title="/home/yukiosir/workspace\l/CompilerProject/Software\l/pinhao/include/pinhao/MachineLearning\l/GrammarEvolution/BinOpFormula.h">
<polygon fill="white" stroke="black" points="706,-267.5 706,-319.5 896,-319.5 896,-267.5 706,-267.5"/>
<text text-anchor="start" x="714" y="-307.5" font-family="Helvetica,sans-Serif" font-size="10.00">/home/yukiosir/workspace</text>
<text text-anchor="start" x="714" y="-296.5" font-family="Helvetica,sans-Serif" font-size="10.00">/CompilerProject/Software</text>
<text text-anchor="start" x="714" y="-285.5" font-family="Helvetica,sans-Serif" font-size="10.00">/pinhao/include/pinhao/MachineLearning</text>
<text text-anchor="middle" x="801" y="-274.5" font-family="Helvetica,sans-Serif" font-size="10.00">/GrammarEvolution/BinOpFormula.h</text>
</a>
</g>
</g>
<!-- Node15&#45;&gt;Node16 -->
<g id="edge2" class="edge"><title>Node15&#45;&gt;Node16</title>
<path fill="none" stroke="midnightblue" d="M637.605,-440.367C652.648,-431.401 668.132,-420.782 681,-409 702.377,-389.426 698.726,-376.714 719,-356 732.07,-342.647 748.213,-329.901 762.71,-319.511"/>
<polygon fill="midnightblue" stroke="midnightblue" points="635.722,-437.413 628.822,-445.452 639.23,-443.471 635.722,-437.413"/>
</g>
<!-- Node17 -->
<g id="node4" class="node"><title>Node17</title>
<g id="a_node4"><a xlink:href="Formulas_8h.html" target="_top" xlink:title="/home/yukiosir/workspace\l/CompilerProject/Software\l/pinhao/include/pinhao/MachineLearning\l/GrammarEvolution/Formulas.h">
<polygon fill="white" stroke="black" points="297,-178.5 297,-230.5 487,-230.5 487,-178.5 297,-178.5"/>
<text text-anchor="start" x="305" y="-218.5" font-family="Helvetica,sans-Serif" font-size="10.00">/home/yukiosir/workspace</text>
<text text-anchor="start" x="305" y="-207.5" font-family="Helvetica,sans-Serif" font-size="10.00">/CompilerProject/Software</text>
<text text-anchor="start" x="305" y="-196.5" font-family="Helvetica,sans-Serif" font-size="10.00">/pinhao/include/pinhao/MachineLearning</text>
<text text-anchor="middle" x="392" y="-185.5" font-family="Helvetica,sans-Serif" font-size="10.00">/GrammarEvolution/Formulas.h</text>
</a>
</g>
</g>
<!-- Node15&#45;&gt;Node17 -->
<g id="edge10" class="edge"><title>Node15&#45;&gt;Node17</title>
<path fill="none" stroke="midnightblue" d="M508.181,-440.136C494.973,-431.673 482.361,-421.337 473,-409 433.508,-356.956 462.581,-326.225 435,-267 429.06,-254.245 420.479,-241.306 412.542,-230.609"/>
<polygon fill="midnightblue" stroke="midnightblue" points="506.553,-443.241 516.919,-445.429 510.18,-437.254 506.553,-443.241"/>
</g>
<!-- Node20 -->
<g id="node7" class="node"><title>Node20</title>
<g id="a_node7"><a xlink:href="FormulaYAMLWrapper_8cpp.html" target="_top" xlink:title="/home/yukiosir/workspace\l/CompilerProject/Software\l/pinhao/lib/Support/YAMLWrapper\l/FormulaYAMLWrapper.cpp">
<polygon fill="white" stroke="black" points="29,-0.5 29,-52.5 193,-52.5 193,-0.5 29,-0.5"/>
<text text-anchor="start" x="37" y="-40.5" font-family="Helvetica,sans-Serif" font-size="10.00">/home/yukiosir/workspace</text>
<text text-anchor="start" x="37" y="-29.5" font-family="Helvetica,sans-Serif" font-size="10.00">/CompilerProject/Software</text>
<text text-anchor="start" x="37" y="-18.5" font-family="Helvetica,sans-Serif" font-size="10.00">/pinhao/lib/Support/YAMLWrapper</text>
<text text-anchor="middle" x="111" y="-7.5" font-family="Helvetica,sans-Serif" font-size="10.00">/FormulaYAMLWrapper.cpp</text>
</a>
</g>
</g>
<!-- Node15&#45;&gt;Node20 -->
<g id="edge20" class="edge"><title>Node15&#45;&gt;Node20</title>
<path fill="none" stroke="midnightblue" d="M471.447,-460.098C304.933,-440.729 0,-391.953 0,-294.5 0,-294.5 0,-294.5 0,-203.5 0,-141.907 49.237,-84.2883 82.1258,-52.6712"/>
<polygon fill="midnightblue" stroke="midnightblue" points="471.386,-463.614 481.72,-461.276 472.184,-456.66 471.386,-463.614"/>
</g>
<!-- Node21 -->
<g id="node8" class="node"><title>Node21</title>
<g id="a_node8"><a xlink:href="FeatureFormula_8h.html" target="_top" xlink:title="/home/yukiosir/workspace\l/CompilerProject/Software\l/pinhao/include/pinhao/MachineLearning\l/GrammarEvolution/FeatureFormula.h">
<polygon fill="white" stroke="black" points="28,-267.5 28,-319.5 218,-319.5 218,-267.5 28,-267.5"/>
<text text-anchor="start" x="36" y="-307.5" font-family="Helvetica,sans-Serif" font-size="10.00">/home/yukiosir/workspace</text>
<text text-anchor="start" x="36" y="-296.5" font-family="Helvetica,sans-Serif" font-size="10.00">/CompilerProject/Software</text>
<text text-anchor="start" x="36" y="-285.5" font-family="Helvetica,sans-Serif" font-size="10.00">/pinhao/include/pinhao/MachineLearning</text>
<text text-anchor="middle" x="123" y="-274.5" font-family="Helvetica,sans-Serif" font-size="10.00">/GrammarEvolution/FeatureFormula.h</text>
</a>
</g>
</g>
<!-- Node15&#45;&gt;Node21 -->
<g id="edge8" class="edge"><title>Node15&#45;&gt;Node21</title>
<path fill="none" stroke="midnightblue" d="M478.683,-442.497C446.624,-432.694 411.045,-421.094 379,-409 306.573,-381.667 225.36,-344.117 174.214,-319.586"/>
<polygon fill="midnightblue" stroke="midnightblue" points="477.925,-445.924 488.511,-445.48 479.959,-439.226 477.925,-445.924"/>
</g>
<!-- Node22 -->
<g id="node9" class="node"><title>Node22</title>
<g id="a_node9"><a xlink:href="IfFormula_8h.html" target="_top" xlink:title="/home/yukiosir/workspace\l/CompilerProject/Software\l/pinhao/include/pinhao/MachineLearning\l/GrammarEvolution/IfFormula.h">
<polygon fill="white" stroke="black" points="236,-267.5 236,-319.5 426,-319.5 426,-267.5 236,-267.5"/>
<text text-anchor="start" x="244" y="-307.5" font-family="Helvetica,sans-Serif" font-size="10.00">/home/yukiosir/workspace</text>
<text text-anchor="start" x="244" y="-296.5" font-family="Helvetica,sans-Serif" font-size="10.00">/CompilerProject/Software</text>
<text text-anchor="start" x="244" y="-285.5" font-family="Helvetica,sans-Serif" font-size="10.00">/pinhao/include/pinhao/MachineLearning</text>
<text text-anchor="middle" x="331" y="-274.5" font-family="Helvetica,sans-Serif" font-size="10.00">/GrammarEvolution/IfFormula.h</text>
</a>
</g>
</g>
<!-- Node15&#45;&gt;Node22 -->
<g id="edge11" class="edge"><title>Node15&#45;&gt;Node22</title>
<path fill="none" stroke="midnightblue" d="M497.974,-441.29C478.211,-432.329 457.636,-421.483 440,-409 403.934,-383.471 370.12,-344.765 349.991,-319.554"/>
<polygon fill="midnightblue" stroke="midnightblue" points="496.726,-444.565 507.287,-445.405 499.554,-438.162 496.726,-444.565"/>
</g>
<!-- Node23 -->
<g id="node10" class="node"><title>Node23</title>
<g id="a_node10"><a xlink:href="LitFormula_8h.html" target="_top" xlink:title="/home/yukiosir/workspace\l/CompilerProject/Software\l/pinhao/include/pinhao/MachineLearning\l/GrammarEvolution/LitFormula.h">
<polygon fill="white" stroke="black" points="482,-356.5 482,-408.5 672,-408.5 672,-356.5 482,-356.5"/>
<text text-anchor="start" x="490" y="-396.5" font-family="Helvetica,sans-Serif" font-size="10.00">/home/yukiosir/workspace</text>
<text text-anchor="start" x="490" y="-385.5" font-family="Helvetica,sans-Serif" font-size="10.00">/CompilerProject/Software</text>
<text text-anchor="start" x="490" y="-374.5" font-family="Helvetica,sans-Serif" font-size="10.00">/pinhao/include/pinhao/MachineLearning</text>
<text text-anchor="middle" x="577" y="-363.5" font-family="Helvetica,sans-Serif" font-size="10.00">/GrammarEvolution/LitFormula.h</text>
</a>
</g>
</g>
<!-- Node15&#45;&gt;Node23 -->
<g id="edge13" class="edge"><title>Node15&#45;&gt;Node23</title>
<path fill="none" stroke="midnightblue" d="M577,-435.191C577,-426.282 577,-416.899 577,-408.607"/>
<polygon fill="midnightblue" stroke="midnightblue" points="573.5,-435.336 577,-445.336 580.5,-435.336 573.5,-435.336"/>
</g>
<!-- Node25 -->
<g id="node12" class="node"><title>Node25</title>
<g id="a_node12"><a xlink:href="Candidate_8cpp.html" target="_top" xlink:title="/home/yukiosir/workspace\l/CompilerProject/Software\l/pinhao/lib/MachineLearning\l/GrammarEvolution/Candidate.cpp">
<polygon fill="white" stroke="black" points="727.5,-356.5 727.5,-408.5 894.5,-408.5 894.5,-356.5 727.5,-356.5"/>
<text text-anchor="start" x="735.5" y="-396.5" font-family="Helvetica,sans-Serif" font-size="10.00">/home/yukiosir/workspace</text>
<text text-anchor="start" x="735.5" y="-385.5" font-family="Helvetica,sans-Serif" font-size="10.00">/CompilerProject/Software</text>
<text text-anchor="start" x="735.5" y="-374.5" font-family="Helvetica,sans-Serif" font-size="10.00">/pinhao/lib/MachineLearning</text>
<text text-anchor="middle" x="811" y="-363.5" font-family="Helvetica,sans-Serif" font-size="10.00">/GrammarEvolution/Candidate.cpp</text>
</a>
</g>
</g>
<!-- Node15&#45;&gt;Node25 -->
<g id="edge17" class="edge"><title>Node15&#45;&gt;Node25</title>
<path fill="none" stroke="midnightblue" d="M654.038,-441.858C683.006,-431.087 715.689,-418.936 743.702,-408.521"/>
<polygon fill="midnightblue" stroke="midnightblue" points="652.522,-438.687 644.369,-445.453 654.961,-445.248 652.522,-438.687"/>
</g>
<!-- Node26 -->
<g id="node13" class="node"><title>Node26</title>
<g id="a_node13"><a xlink:href="CandidateYAMLWrapper_8cpp.html" target="_top" xlink:title="/home/yukiosir/workspace\l/CompilerProject/Software\l/pinhao/lib/MachineLearning\l/GrammarEvolution/CandidateYAMLWrapper.cpp">
<polygon fill="white" stroke="black" points="912,-356.5 912,-408.5 1142,-408.5 1142,-356.5 912,-356.5"/>
<text text-anchor="start" x="920" y="-396.5" font-family="Helvetica,sans-Serif" font-size="10.00">/home/yukiosir/workspace</text>
<text text-anchor="start" x="920" y="-385.5" font-family="Helvetica,sans-Serif" font-size="10.00">/CompilerProject/Software</text>
<text text-anchor="start" x="920" y="-374.5" font-family="Helvetica,sans-Serif" font-size="10.00">/pinhao/lib/MachineLearning</text>
<text text-anchor="middle" x="1027" y="-363.5" font-family="Helvetica,sans-Serif" font-size="10.00">/GrammarEvolution/CandidateYAMLWrapper.cpp</text>
</a>
</g>
</g>
<!-- Node15&#45;&gt;Node26 -->
<g id="edge18" class="edge"><title>Node15&#45;&gt;Node26</title>
<path fill="none" stroke="midnightblue" d="M681.966,-444.87C781.077,-425.145 808.354,-426.626 904,-409 906.574,-408.526 909.176,-408.04 911.8,-407.545"/>
<polygon fill="midnightblue" stroke="midnightblue" points="681.259,-441.442 672.146,-446.846 682.64,-448.305 681.259,-441.442"/>
</g>
<!-- Node27 -->
<g id="node14" class="node"><title>Node27</title>
<g id="a_node14"><a xlink:href="SimpleGrammarEvolution_8cpp.html" target="_top" xlink:title="/home/yukiosir/workspace\l/CompilerProject/Software\l/pinhao/lib/MachineLearning\l/GrammarEvolution/SimpleGrammarEvolution.cpp">
<polygon fill="white" stroke="black" points="1159.5,-356.5 1159.5,-408.5 1392.5,-408.5 1392.5,-356.5 1159.5,-356.5"/>
<text text-anchor="start" x="1167.5" y="-396.5" font-family="Helvetica,sans-Serif" font-size="10.00">/home/yukiosir/workspace</text>
<text text-anchor="start" x="1167.5" y="-385.5" font-family="Helvetica,sans-Serif" font-size="10.00">/CompilerProject/Software</text>
<text text-anchor="start" x="1167.5" y="-374.5" font-family="Helvetica,sans-Serif" font-size="10.00">/pinhao/lib/MachineLearning</text>
<text text-anchor="middle" x="1276" y="-363.5" font-family="Helvetica,sans-Serif" font-size="10.00">/GrammarEvolution/SimpleGrammarEvolution.cpp</text>
</a>
</g>
</g>
<!-- Node15&#45;&gt;Node27 -->
<g id="edge19" class="edge"><title>Node15&#45;&gt;Node27</title>
<path fill="none" stroke="midnightblue" d="M682.086,-444.947C889.652,-412.744 946.757,-437.541 1151,-409 1153.74,-408.617 1156.51,-408.21 1159.31,-407.784"/>
<polygon fill="midnightblue" stroke="midnightblue" points="681.42,-441.509 672.087,-446.524 682.511,-448.423 681.42,-441.509"/>
</g>
<!-- Node16&#45;&gt;Node17 -->
<g id="edge3" class="edge"><title>Node16&#45;&gt;Node17</title>
<path fill="none" stroke="midnightblue" d="M695.645,-266.729C620.081,-249.976 544.709,-234.849 487.01,-223.605"/>
<polygon fill="midnightblue" stroke="midnightblue" points="695.301,-270.238 705.822,-268.996 696.822,-263.406 695.301,-270.238"/>
</g>
<!-- Node18 -->
<g id="node5" class="node"><title>Node18</title>
<g id="a_node5"><a xlink:href="FormulaYAMLWrapper_8h.html" target="_top" xlink:title="/home/yukiosir/workspace\l/CompilerProject/Software\l/pinhao/include/pinhao/Support\l/FormulaYAMLWrapper.h">
<polygon fill="white" stroke="black" points="214,-89.5 214,-141.5 364,-141.5 364,-89.5 214,-89.5"/>
<text text-anchor="start" x="222" y="-129.5" font-family="Helvetica,sans-Serif" font-size="10.00">/home/yukiosir/workspace</text>
<text text-anchor="start" x="222" y="-118.5" font-family="Helvetica,sans-Serif" font-size="10.00">/CompilerProject/Software</text>
<text text-anchor="start" x="222" y="-107.5" font-family="Helvetica,sans-Serif" font-size="10.00">/pinhao/include/pinhao/Support</text>
<text text-anchor="middle" x="289" y="-96.5" font-family="Helvetica,sans-Serif" font-size="10.00">/FormulaYAMLWrapper.h</text>
</a>
</g>
</g>
<!-- Node17&#45;&gt;Node18 -->
<g id="edge4" class="edge"><title>Node17&#45;&gt;Node18</title>
<path fill="none" stroke="midnightblue" d="M354.291,-171.649C342.571,-161.749 329.821,-150.98 318.725,-141.607"/>
<polygon fill="midnightblue" stroke="midnightblue" points="352.31,-174.557 362.208,-178.336 356.827,-169.209 352.31,-174.557"/>
</g>
<!-- Node19 -->
<g id="node6" class="node"><title>Node19</title>
<g id="a_node6"><a xlink:href="Formula_8cpp.html" target="_top" xlink:title="/home/yukiosir/workspace\l/CompilerProject/Software\l/pinhao/lib/MachineLearning\l/GrammarEvolution/Formula.cpp">
<polygon fill="white" stroke="black" points="261,-0.5 261,-52.5 419,-52.5 419,-0.5 261,-0.5"/>
<text text-anchor="start" x="269" y="-40.5" font-family="Helvetica,sans-Serif" font-size="10.00">/home/yukiosir/workspace</text>
<text text-anchor="start" x="269" y="-29.5" font-family="Helvetica,sans-Serif" font-size="10.00">/CompilerProject/Software</text>
<text text-anchor="start" x="269" y="-18.5" font-family="Helvetica,sans-Serif" font-size="10.00">/pinhao/lib/MachineLearning</text>
<text text-anchor="middle" x="340" y="-7.5" font-family="Helvetica,sans-Serif" font-size="10.00">/GrammarEvolution/Formula.cpp</text>
</a>
</g>
</g>
<!-- Node17&#45;&gt;Node19 -->
<g id="edge7" class="edge"><title>Node17&#45;&gt;Node19</title>
<path fill="none" stroke="midnightblue" d="M389.176,-168.342C386.599,-145.309 381.794,-114.802 373,-89 368.739,-76.4985 362.124,-63.4935 355.932,-52.6801"/>
<polygon fill="midnightblue" stroke="midnightblue" points="385.701,-168.768 390.209,-178.356 392.664,-168.049 385.701,-168.768"/>
</g>
<!-- Node18&#45;&gt;Node19 -->
<g id="edge5" class="edge"><title>Node18&#45;&gt;Node19</title>
<path fill="none" stroke="midnightblue" d="M308.85,-80.6387C314.321,-71.3056 320.157,-61.3492 325.282,-52.6075"/>
<polygon fill="midnightblue" stroke="midnightblue" points="305.789,-78.939 303.751,-89.336 311.828,-82.479 305.789,-78.939"/>
</g>
<!-- Node18&#45;&gt;Node20 -->
<g id="edge6" class="edge"><title>Node18&#45;&gt;Node20</title>
<path fill="none" stroke="midnightblue" d="M228.474,-84.917C206.985,-74.414 183.02,-62.701 162.369,-52.6075"/>
<polygon fill="midnightblue" stroke="midnightblue" points="226.994,-88.0892 237.515,-89.336 230.068,-81.8002 226.994,-88.0892"/>
</g>
<!-- Node21&#45;&gt;Node17 -->
<g id="edge9" class="edge"><title>Node21&#45;&gt;Node17</title>
<path fill="none" stroke="midnightblue" d="M210.26,-264.278C243.881,-253.405 282.013,-241.072 314.636,-230.521"/>
<polygon fill="midnightblue" stroke="midnightblue" points="208.883,-261.045 200.445,-267.453 211.037,-267.706 208.883,-261.045"/>
</g>
<!-- Node22&#45;&gt;Node17 -->
<g id="edge12" class="edge"><title>Node22&#45;&gt;Node17</title>
<path fill="none" stroke="midnightblue" d="M354.54,-258.927C361.142,-249.511 368.203,-239.439 374.396,-230.607"/>
<polygon fill="midnightblue" stroke="midnightblue" points="351.519,-257.139 348.644,-267.336 357.25,-261.157 351.519,-257.139"/>
</g>
<!-- Node23&#45;&gt;Node16 -->
<g id="edge14" class="edge"><title>Node23&#45;&gt;Node16</title>
<path fill="none" stroke="midnightblue" d="M651.108,-352.717C678.748,-341.982 709.878,-329.891 736.578,-319.521"/>
<polygon fill="midnightblue" stroke="midnightblue" points="649.544,-349.57 641.49,-356.453 652.078,-356.095 649.544,-349.57"/>
</g>
<!-- Node23&#45;&gt;Node17 -->
<g id="edge15" class="edge"><title>Node23&#45;&gt;Node17</title>
<path fill="none" stroke="midnightblue" d="M540.797,-349.457C530.866,-340.219 520.284,-329.943 511,-320 490.298,-297.829 489.462,-288.435 468,-267 455.15,-254.166 439.764,-241.317 426.208,-230.707"/>
<polygon fill="midnightblue" stroke="midnightblue" points="538.502,-352.102 548.231,-356.296 543.241,-346.95 538.502,-352.102"/>
</g>
<!-- Node24 -->
<g id="node11" class="node"><title>Node24</title>
<g id="a_node11"><a xlink:href="LitFormula_8cpp.html" target="_top" xlink:title="/home/yukiosir/workspace\l/CompilerProject/Software\l/pinhao/lib/MachineLearning\l/GrammarEvolution/LitFormula.cpp">
<polygon fill="white" stroke="black" points="520,-267.5 520,-319.5 688,-319.5 688,-267.5 520,-267.5"/>
<text text-anchor="start" x="528" y="-307.5" font-family="Helvetica,sans-Serif" font-size="10.00">/home/yukiosir/workspace</text>
<text text-anchor="start" x="528" y="-296.5" font-family="Helvetica,sans-Serif" font-size="10.00">/CompilerProject/Software</text>
<text text-anchor="start" x="528" y="-285.5" font-family="Helvetica,sans-Serif" font-size="10.00">/pinhao/lib/MachineLearning</text>
<text text-anchor="middle" x="604" y="-274.5" font-family="Helvetica,sans-Serif" font-size="10.00">/GrammarEvolution/LitFormula.cpp</text>
</a>
</g>
</g>
<!-- Node23&#45;&gt;Node24 -->
<g id="edge16" class="edge"><title>Node23&#45;&gt;Node24</title>
<path fill="none" stroke="midnightblue" d="M587.778,-346.771C590.596,-337.691 593.579,-328.079 596.208,-319.607"/>
<polygon fill="midnightblue" stroke="midnightblue" points="584.431,-345.748 584.81,-356.336 591.116,-347.823 584.431,-345.748"/>
</g>
</g>
</svg>
