<?xml version="1.0" encoding="UTF-8" standalone="no"?>
<!DOCTYPE svg PUBLIC "-//W3C//DTD SVG 1.1//EN"
 "http://www.w3.org/Graphics/SVG/1.1/DTD/svg11.dtd">
<!-- Generated by graphviz version 2.38.0 (20140413.2041)
 -->
<!-- Title: /home/yukiosir/workspace/CompilerProject/Software/pinhao/include/pinhao/Features/Feature.h Pages: 1 -->
<!--zoomable 595 -->
<svg id="main" version="1.1" xmlns="http://www.w3.org/2000/svg" xmlns:xlink="http://www.w3.org/1999/xlink" xml:space="preserve" onload="init(evt)">
<style type="text/css"><![CDATA[
.edge:hover path { stroke: red; }
.edge:hover polygon { stroke: red; fill: red; }
]]></style>
<script type="text/javascript"><![CDATA[
var edges = document.getElementsByTagName('g');
if (edges && edges.length) {
  for (var i=0;i<edges.length;i++) {
    if (edges[i].id.substr(0,4)=='edge') {
      edges[i].setAttribute('class','edge');
    }
  }
}
]]></script>
        <defs>
                <circle id="rim" cx="0" cy="0" r="7"/>
                <circle id="rim2" cx="0" cy="0" r="3.5"/>
                <g id="zoomPlus">
                        <use xlink:href="#rim" fill="#404040">
                                <set attributeName="fill" to="#808080" begin="zoomplus.mouseover" end="zoomplus.mouseout"/>
                        </use>
                        <path d="M-4,0h8M0,-4v8" fill="none" stroke="white" stroke-width="1.5" pointer-events="none"/>
                </g>
                <g id="zoomMin">
                        <use xlink:href="#rim" fill="#404040">
                                <set attributeName="fill" to="#808080" begin="zoomminus.mouseover" end="zoomminus.mouseout"/>
                        </use>
                        <path d="M-4,0h8" fill="none" stroke="white" stroke-width="1.5" pointer-events="none"/>
                </g>
                <g id="dirArrow">
                        <path fill="none" stroke="white" stroke-width="1.5" d="M0,-3.0v7 M-2.5,-0.5L0,-3.0L2.5,-0.5"/>
                </g>
               <g id="resetDef">
                       <use xlink:href="#rim2" fill="#404040">
                               <set attributeName="fill" to="#808080" begin="reset.mouseover" end="reset.mouseout"/>
                       </use>
               </g>
        </defs>

<script type="text/javascript">
var viewWidth = 2063;
var viewHeight = 595;
var sectionId = 'dynsection-1';
</script>
<script xlink:href="svgpan.js"/>
<svg id="graph" class="graph">
<g id="viewport">
<title>/home/yukiosir/workspace/CompilerProject/Software/pinhao/include/pinhao/Features/Feature.h</title>
<polygon fill="white" stroke="none" points="-4,4 -4,-591 2059,-591 2059,4 -4,4"/>
<!-- Node12 -->
<g id="node1" class="node"><title>Node12</title>
<polygon fill="#bfbfbf" stroke="black" points="1538.5,-534.5 1538.5,-586.5 1693.5,-586.5 1693.5,-534.5 1538.5,-534.5"/>
<text text-anchor="start" x="1546.5" y="-574.5" font-family="Helvetica,sans-Serif" font-size="10.00">/home/yukiosir/workspace</text>
<text text-anchor="start" x="1546.5" y="-563.5" font-family="Helvetica,sans-Serif" font-size="10.00">/CompilerProject/Software</text>
<text text-anchor="start" x="1546.5" y="-552.5" font-family="Helvetica,sans-Serif" font-size="10.00">/pinhao/include/pinhao/Features</text>
<text text-anchor="middle" x="1616" y="-541.5" font-family="Helvetica,sans-Serif" font-size="10.00">/Feature.h</text>
</g>
<!-- Node13 -->
<g id="node2" class="node"><title>Node13</title>
<g id="a_node2"><a xlink:href="Features_8h.html" target="_top" xlink:title="This file implements some basic feature classes that extends the base class Feature. ">
<polygon fill="white" stroke="black" points="1170.5,-445.5 1170.5,-497.5 1325.5,-497.5 1325.5,-445.5 1170.5,-445.5"/>
<text text-anchor="start" x="1178.5" y="-485.5" font-family="Helvetica,sans-Serif" font-size="10.00">/home/yukiosir/workspace</text>
<text text-anchor="start" x="1178.5" y="-474.5" font-family="Helvetica,sans-Serif" font-size="10.00">/CompilerProject/Software</text>
<text text-anchor="start" x="1178.5" y="-463.5" font-family="Helvetica,sans-Serif" font-size="10.00">/pinhao/include/pinhao/Features</text>
<text text-anchor="middle" x="1248" y="-452.5" font-family="Helvetica,sans-Serif" font-size="10.00">/Features.h</text>
</a>
</g>
</g>
<!-- Node12&#45;&gt;Node13 -->
<g id="edge1" class="edge"><title>Node12&#45;&gt;Node13</title>
<path fill="none" stroke="midnightblue" d="M1528.61,-542.009C1472.96,-530.468 1399.47,-514.482 1335,-498 1331.95,-497.22 1328.85,-496.407 1325.71,-495.57"/>
<polygon fill="midnightblue" stroke="midnightblue" points="1527.93,-545.443 1538.43,-544.039 1529.35,-538.588 1527.93,-545.443"/>
</g>
<!-- Node37 -->
<g id="node26" class="node"><title>Node37</title>
<g id="a_node26"><a xlink:href="Feature_8cpp.html" target="_top" xlink:title="/home/yukiosir/workspace\l/CompilerProject/Software\l/pinhao/lib/Features/Feature.cpp">
<polygon fill="white" stroke="black" points="1343.5,-451 1343.5,-492 1500.5,-492 1500.5,-451 1343.5,-451"/>
<text text-anchor="start" x="1351.5" y="-480" font-family="Helvetica,sans-Serif" font-size="10.00">/home/yukiosir/workspace</text>
<text text-anchor="start" x="1351.5" y="-469" font-family="Helvetica,sans-Serif" font-size="10.00">/CompilerProject/Software</text>
<text text-anchor="middle" x="1422" y="-458" font-family="Helvetica,sans-Serif" font-size="10.00">/pinhao/lib/Features/Feature.cpp</text>
</a>
</g>
</g>
<!-- Node12&#45;&gt;Node37 -->
<g id="edge36" class="edge"><title>Node12&#45;&gt;Node37</title>
<path fill="none" stroke="midnightblue" d="M1550.82,-530.271C1522.83,-517.719 1490.87,-503.384 1465.78,-492.134"/>
<polygon fill="midnightblue" stroke="midnightblue" points="1549.59,-533.554 1560.15,-534.453 1552.46,-527.167 1549.59,-533.554"/>
</g>
<!-- Node38 -->
<g id="node27" class="node"><title>Node38</title>
<g id="a_node27"><a xlink:href="FeatureRegistry_8cpp.html" target="_top" xlink:title="This file implements the functions and defines the static members of the FeatureRegistry class...">
<polygon fill="white" stroke="black" points="1519,-451 1519,-492 1713,-492 1713,-451 1519,-451"/>
<text text-anchor="start" x="1527" y="-480" font-family="Helvetica,sans-Serif" font-size="10.00">/home/yukiosir/workspace</text>
<text text-anchor="start" x="1527" y="-469" font-family="Helvetica,sans-Serif" font-size="10.00">/CompilerProject/Software</text>
<text text-anchor="middle" x="1616" y="-458" font-family="Helvetica,sans-Serif" font-size="10.00">/pinhao/lib/Features/FeatureRegistry.cpp</text>
</a>
</g>
</g>
<!-- Node12&#45;&gt;Node38 -->
<g id="edge37" class="edge"><title>Node12&#45;&gt;Node38</title>
<path fill="none" stroke="midnightblue" d="M1616,-524.155C1616,-513.21 1616,-501.549 1616,-492.082"/>
<polygon fill="midnightblue" stroke="midnightblue" points="1612.5,-524.336 1616,-534.336 1619.5,-524.336 1612.5,-524.336"/>
</g>
<!-- Node39 -->
<g id="node28" class="node"><title>Node39</title>
<g id="a_node28"><a xlink:href="CFGStaticFeaturesPass_8cpp.html" target="_top" xlink:title="This file implements the CFGStaticFeaturesPass class. ">
<polygon fill="white" stroke="black" points="1731,-445.5 1731,-497.5 1877,-497.5 1877,-445.5 1731,-445.5"/>
<text text-anchor="start" x="1739" y="-485.5" font-family="Helvetica,sans-Serif" font-size="10.00">/home/yukiosir/workspace</text>
<text text-anchor="start" x="1739" y="-474.5" font-family="Helvetica,sans-Serif" font-size="10.00">/CompilerProject/Software</text>
<text text-anchor="start" x="1739" y="-463.5" font-family="Helvetica,sans-Serif" font-size="10.00">/pinhao/tools/OptLibraries</text>
<text text-anchor="middle" x="1804" y="-452.5" font-family="Helvetica,sans-Serif" font-size="10.00">/CFGStaticFeaturesPass.cpp</text>
</a>
</g>
</g>
<!-- Node12&#45;&gt;Node39 -->
<g id="edge38" class="edge"><title>Node12&#45;&gt;Node39</title>
<path fill="none" stroke="midnightblue" d="M1679.42,-530.153C1702.31,-519.56 1727.91,-507.71 1749.93,-497.521"/>
<polygon fill="midnightblue" stroke="midnightblue" points="1677.73,-527.077 1670.13,-534.453 1680.67,-533.429 1677.73,-527.077"/>
</g>
<!-- Node40 -->
<g id="node29" class="node"><title>Node40</title>
<g id="a_node29"><a xlink:href="FunctionsGeneFeaturePass_8cpp.html" target="_top" xlink:title="/home/yukiosir/workspace\l/CompilerProject/Software\l/pinhao/tools/OptLibraries\l/FunctionsGeneFeaturePass.cpp">
<polygon fill="white" stroke="black" points="1895,-445.5 1895,-497.5 2055,-497.5 2055,-445.5 1895,-445.5"/>
<text text-anchor="start" x="1903" y="-485.5" font-family="Helvetica,sans-Serif" font-size="10.00">/home/yukiosir/workspace</text>
<text text-anchor="start" x="1903" y="-474.5" font-family="Helvetica,sans-Serif" font-size="10.00">/CompilerProject/Software</text>
<text text-anchor="start" x="1903" y="-463.5" font-family="Helvetica,sans-Serif" font-size="10.00">/pinhao/tools/OptLibraries</text>
<text text-anchor="middle" x="1975" y="-452.5" font-family="Helvetica,sans-Serif" font-size="10.00">/FunctionsGeneFeaturePass.cpp</text>
</a>
</g>
</g>
<!-- Node12&#45;&gt;Node40 -->
<g id="edge39" class="edge"><title>Node12&#45;&gt;Node40</title>
<path fill="none" stroke="midnightblue" d="M1703.71,-540.804C1756.67,-529.197 1825.41,-513.567 1886,-498 1888.8,-497.28 1891.65,-496.535 1894.52,-495.773"/>
<polygon fill="midnightblue" stroke="midnightblue" points="1702.69,-537.443 1693.67,-542.997 1704.18,-544.282 1702.69,-537.443"/>
</g>
<!-- Node14 -->
<g id="node3" class="node"><title>Node14</title>
<g id="a_node3"><a xlink:href="FeatureSet_8h.html" target="_top" xlink:title="This file defines a class which contains the features selected by the user (by some command line)...">
<polygon fill="white" stroke="black" points="207.5,-356.5 207.5,-408.5 362.5,-408.5 362.5,-356.5 207.5,-356.5"/>
<text text-anchor="start" x="215.5" y="-396.5" font-family="Helvetica,sans-Serif" font-size="10.00">/home/yukiosir/workspace</text>
<text text-anchor="start" x="215.5" y="-385.5" font-family="Helvetica,sans-Serif" font-size="10.00">/CompilerProject/Software</text>
<text text-anchor="start" x="215.5" y="-374.5" font-family="Helvetica,sans-Serif" font-size="10.00">/pinhao/include/pinhao/Features</text>
<text text-anchor="middle" x="285" y="-363.5" font-family="Helvetica,sans-Serif" font-size="10.00">/FeatureSet.h</text>
</a>
</g>
</g>
<!-- Node13&#45;&gt;Node14 -->
<g id="edge2" class="edge"><title>Node13&#45;&gt;Node14</title>
<path fill="none" stroke="midnightblue" d="M1160.08,-468.158C1006.02,-463.151 677.506,-448.452 403,-409 389.93,-407.122 376.147,-404.623 362.793,-401.924"/>
<polygon fill="midnightblue" stroke="midnightblue" points="1160.32,-471.667 1170.43,-468.488 1160.54,-464.67 1160.32,-471.667"/>
</g>
<!-- Node20 -->
<g id="node9" class="node"><title>Node20</title>
<g id="a_node9"><a xlink:href="MapFeature_8h.html" target="_top" xlink:title="/home/yukiosir/workspace\l/CompilerProject/Software\l/pinhao/include/pinhao/Features\l/MapFeature.h">
<polygon fill="white" stroke="black" points="722.5,-267.5 722.5,-319.5 877.5,-319.5 877.5,-267.5 722.5,-267.5"/>
<text text-anchor="start" x="730.5" y="-307.5" font-family="Helvetica,sans-Serif" font-size="10.00">/home/yukiosir/workspace</text>
<text text-anchor="start" x="730.5" y="-296.5" font-family="Helvetica,sans-Serif" font-size="10.00">/CompilerProject/Software</text>
<text text-anchor="start" x="730.5" y="-285.5" font-family="Helvetica,sans-Serif" font-size="10.00">/pinhao/include/pinhao/Features</text>
<text text-anchor="middle" x="800" y="-274.5" font-family="Helvetica,sans-Serif" font-size="10.00">/MapFeature.h</text>
</a>
</g>
</g>
<!-- Node13&#45;&gt;Node20 -->
<g id="edge10" class="edge"><title>Node13&#45;&gt;Node20</title>
<path fill="none" stroke="midnightblue" d="M1174.81,-441.747C1088.38,-407.79 946.001,-351.858 863.854,-319.586"/>
<polygon fill="midnightblue" stroke="midnightblue" points="1173.7,-445.071 1184.29,-445.47 1176.26,-438.556 1173.7,-445.071"/>
</g>
<!-- Node22 -->
<g id="node11" class="node"><title>Node22</title>
<g id="a_node11"><a xlink:href="MapVectorFeature_8h.html" target="_top" xlink:title="/home/yukiosir/workspace\l/CompilerProject/Software\l/pinhao/include/pinhao/Features\l/MapVectorFeature.h">
<polygon fill="white" stroke="black" points="413.5,-89.5 413.5,-141.5 568.5,-141.5 568.5,-89.5 413.5,-89.5"/>
<text text-anchor="start" x="421.5" y="-129.5" font-family="Helvetica,sans-Serif" font-size="10.00">/home/yukiosir/workspace</text>
<text text-anchor="start" x="421.5" y="-118.5" font-family="Helvetica,sans-Serif" font-size="10.00">/CompilerProject/Software</text>
<text text-anchor="start" x="421.5" y="-107.5" font-family="Helvetica,sans-Serif" font-size="10.00">/pinhao/include/pinhao/Features</text>
<text text-anchor="middle" x="491" y="-96.5" font-family="Helvetica,sans-Serif" font-size="10.00">/MapVectorFeature.h</text>
</a>
</g>
</g>
<!-- Node13&#45;&gt;Node22 -->
<g id="edge27" class="edge"><title>Node13&#45;&gt;Node22</title>
<path fill="none" stroke="midnightblue" d="M1160.05,-467.778C1053.43,-462.785 869.011,-448.687 716,-409 615.894,-383.035 575.214,-392.027 501,-320 453.949,-274.335 446.249,-241.886 461,-178 463.913,-165.383 469.784,-152.361 475.566,-141.566"/>
<polygon fill="midnightblue" stroke="midnightblue" points="1159.98,-471.278 1170.12,-468.234 1160.29,-464.286 1159.98,-471.278"/>
</g>
<!-- Node26 -->
<g id="node15" class="node"><title>Node26</title>
<g id="a_node15"><a xlink:href="VectorFeature_8h.html" target="_top" xlink:title="/home/yukiosir/workspace\l/CompilerProject/Software\l/pinhao/include/pinhao/Features\l/VectorFeature.h">
<polygon fill="white" stroke="black" points="696.5,-89.5 696.5,-141.5 851.5,-141.5 851.5,-89.5 696.5,-89.5"/>
<text text-anchor="start" x="704.5" y="-129.5" font-family="Helvetica,sans-Serif" font-size="10.00">/home/yukiosir/workspace</text>
<text text-anchor="start" x="704.5" y="-118.5" font-family="Helvetica,sans-Serif" font-size="10.00">/CompilerProject/Software</text>
<text text-anchor="start" x="704.5" y="-107.5" font-family="Helvetica,sans-Serif" font-size="10.00">/pinhao/include/pinhao/Features</text>
<text text-anchor="middle" x="774" y="-96.5" font-family="Helvetica,sans-Serif" font-size="10.00">/VectorFeature.h</text>
</a>
</g>
</g>
<!-- Node13&#45;&gt;Node26 -->
<g id="edge28" class="edge"><title>Node13&#45;&gt;Node26</title>
<path fill="none" stroke="midnightblue" d="M1250.88,-435.263C1255.73,-365.703 1261.99,-214.323 1228,-178 1215.27,-164.397 977.956,-137.76 851.638,-124.456"/>
<polygon fill="midnightblue" stroke="midnightblue" points="1247.38,-435.074 1250.14,-445.302 1254.36,-435.583 1247.38,-435.074"/>
</g>
<!-- Node29 -->
<g id="node18" class="node"><title>Node29</title>
<g id="a_node18"><a xlink:href="FeatureYAMLWrapper_8cpp.html" target="_top" xlink:title="/home/yukiosir/workspace\l/CompilerProject/Software\l/pinhao/lib/Support/YAMLWrapper\l/FeatureYAMLWrapper.cpp">
<polygon fill="white" stroke="black" points="1067,-89.5 1067,-141.5 1231,-141.5 1231,-89.5 1067,-89.5"/>
<text text-anchor="start" x="1075" y="-129.5" font-family="Helvetica,sans-Serif" font-size="10.00">/home/yukiosir/workspace</text>
<text text-anchor="start" x="1075" y="-118.5" font-family="Helvetica,sans-Serif" font-size="10.00">/CompilerProject/Software</text>
<text text-anchor="start" x="1075" y="-107.5" font-family="Helvetica,sans-Serif" font-size="10.00">/pinhao/lib/Support/YAMLWrapper</text>
<text text-anchor="middle" x="1149" y="-96.5" font-family="Helvetica,sans-Serif" font-size="10.00">/FeatureYAMLWrapper.cpp</text>
</a>
</g>
</g>
<!-- Node13&#45;&gt;Node29 -->
<g id="edge33" class="edge"><title>Node13&#45;&gt;Node29</title>
<path fill="none" stroke="midnightblue" d="M1261.3,-435.379C1280.93,-377.261 1310.39,-259.428 1262,-178 1252.76,-162.447 1238.05,-150.58 1222.26,-141.622"/>
<polygon fill="midnightblue" stroke="midnightblue" points="1257.87,-434.586 1257.89,-445.18 1264.49,-436.885 1257.87,-434.586"/>
</g>
<!-- Node33 -->
<g id="node22" class="node"><title>Node33</title>
<g id="a_node22"><a xlink:href="Iterator_8h.html" target="_top" xlink:title="/home/yukiosir/workspace\l/CompilerProject/Software\l/pinhao/include/pinhao/Support\l/Iterator.h">
<polygon fill="white" stroke="black" points="725,-356.5 725,-408.5 875,-408.5 875,-356.5 725,-356.5"/>
<text text-anchor="start" x="733" y="-396.5" font-family="Helvetica,sans-Serif" font-size="10.00">/home/yukiosir/workspace</text>
<text text-anchor="start" x="733" y="-385.5" font-family="Helvetica,sans-Serif" font-size="10.00">/CompilerProject/Software</text>
<text text-anchor="start" x="733" y="-374.5" font-family="Helvetica,sans-Serif" font-size="10.00">/pinhao/include/pinhao/Support</text>
<text text-anchor="middle" x="800" y="-363.5" font-family="Helvetica,sans-Serif" font-size="10.00">/Iterator.h</text>
</a>
</g>
</g>
<!-- Node13&#45;&gt;Node33 -->
<g id="edge29" class="edge"><title>Node13&#45;&gt;Node33</title>
<path fill="none" stroke="midnightblue" d="M1160.55,-453.517C1077.46,-437.381 953.828,-413.373 875.085,-398.081"/>
<polygon fill="midnightblue" stroke="midnightblue" points="1159.99,-456.974 1170.48,-455.445 1161.33,-450.103 1159.99,-456.974"/>
</g>
<!-- Node34 -->
<g id="node23" class="node"><title>Node34</title>
<g id="a_node23"><a xlink:href="Features_8cpp.html" target="_top" xlink:title="This file implements the functions of the basic implementations of the feature classes. Such as the StringFeature , the VectorFeature and the MapVectorFeature. ">
<polygon fill="white" stroke="black" points="1314,-362 1314,-403 1476,-403 1476,-362 1314,-362"/>
<text text-anchor="start" x="1322" y="-391" font-family="Helvetica,sans-Serif" font-size="10.00">/home/yukiosir/workspace</text>
<text text-anchor="start" x="1322" y="-380" font-family="Helvetica,sans-Serif" font-size="10.00">/CompilerProject/Software</text>
<text text-anchor="middle" x="1395" y="-369" font-family="Helvetica,sans-Serif" font-size="10.00">/pinhao/lib/Features/Features.cpp</text>
</a>
</g>
</g>
<!-- Node13&#45;&gt;Node34 -->
<g id="edge32" class="edge"><title>Node13&#45;&gt;Node34</title>
<path fill="none" stroke="midnightblue" d="M1299.24,-440.171C1320.03,-427.868 1343.44,-414.013 1361.91,-403.082"/>
<polygon fill="midnightblue" stroke="midnightblue" points="1297.34,-437.231 1290.52,-445.336 1300.91,-443.255 1297.34,-437.231"/>
</g>
<!-- Node35 -->
<g id="node24" class="node"><title>Node35</title>
<g id="a_node24"><a xlink:href="CFGStaticFeaturesDiffPass_8cpp.html" target="_top" xlink:title="This file implements the CFGStaticFeaturesDiffPass class. ">
<polygon fill="white" stroke="black" points="1494.5,-356.5 1494.5,-408.5 1655.5,-408.5 1655.5,-356.5 1494.5,-356.5"/>
<text text-anchor="start" x="1502.5" y="-396.5" font-family="Helvetica,sans-Serif" font-size="10.00">/home/yukiosir/workspace</text>
<text text-anchor="start" x="1502.5" y="-385.5" font-family="Helvetica,sans-Serif" font-size="10.00">/CompilerProject/Software</text>
<text text-anchor="start" x="1502.5" y="-374.5" font-family="Helvetica,sans-Serif" font-size="10.00">/pinhao/tools/OptLibraries</text>
<text text-anchor="middle" x="1575" y="-363.5" font-family="Helvetica,sans-Serif" font-size="10.00">/CFGStaticFeaturesDiffPass.cpp</text>
</a>
</g>
</g>
<!-- Node13&#45;&gt;Node35 -->
<g id="edge34" class="edge"><title>Node13&#45;&gt;Node35</title>
<path fill="none" stroke="midnightblue" d="M1335.57,-444.905C1402.91,-427.229 1421.65,-425.569 1485,-409 1487.99,-408.219 1491.02,-407.414 1494.09,-406.592"/>
<polygon fill="midnightblue" stroke="midnightblue" points="1334.51,-441.566 1325.73,-447.508 1336.3,-448.333 1334.51,-441.566"/>
</g>
<!-- Node36 -->
<g id="node25" class="node"><title>Node36</title>
<g id="a_node25"><a xlink:href="CFGStaticFeaturesGenPass_8cpp.html" target="_top" xlink:title="This class generates a cfg (control flow graph) with the static features, based on the cfg...">
<polygon fill="white" stroke="black" points="1674,-356.5 1674,-408.5 1838,-408.5 1838,-356.5 1674,-356.5"/>
<text text-anchor="start" x="1682" y="-396.5" font-family="Helvetica,sans-Serif" font-size="10.00">/home/yukiosir/workspace</text>
<text text-anchor="start" x="1682" y="-385.5" font-family="Helvetica,sans-Serif" font-size="10.00">/CompilerProject/Software</text>
<text text-anchor="start" x="1682" y="-374.5" font-family="Helvetica,sans-Serif" font-size="10.00">/pinhao/tools/OptLibraries</text>
<text text-anchor="middle" x="1756" y="-363.5" font-family="Helvetica,sans-Serif" font-size="10.00">/CFGStaticFeaturesGenPass.cpp</text>
</a>
</g>
</g>
<!-- Node13&#45;&gt;Node36 -->
<g id="edge35" class="edge"><title>Node13&#45;&gt;Node36</title>
<path fill="none" stroke="midnightblue" d="M1335.83,-445.009C1481.56,-417.051 1523.4,-436.37 1665,-409 1667.9,-408.44 1670.84,-407.832 1673.8,-407.186"/>
<polygon fill="midnightblue" stroke="midnightblue" points="1334.76,-441.653 1325.62,-447.013 1336.11,-448.522 1334.76,-441.653"/>
</g>
<!-- Node15 -->
<g id="node4" class="node"><title>Node15</title>
<g id="a_node4"><a xlink:href="Formula_8h.html" target="_top" xlink:title="/home/yukiosir/workspace\l/CompilerProject/Software\l/pinhao/include/pinhao/MachineLearning\l/GrammarEvolution/Formula.h">
<polygon fill="white" stroke="black" points="190,-267.5 190,-319.5 380,-319.5 380,-267.5 190,-267.5"/>
<text text-anchor="start" x="198" y="-307.5" font-family="Helvetica,sans-Serif" font-size="10.00">/home/yukiosir/workspace</text>
<text text-anchor="start" x="198" y="-296.5" font-family="Helvetica,sans-Serif" font-size="10.00">/CompilerProject/Software</text>
<text text-anchor="start" x="198" y="-285.5" font-family="Helvetica,sans-Serif" font-size="10.00">/pinhao/include/pinhao/MachineLearning</text>
<text text-anchor="middle" x="285" y="-274.5" font-family="Helvetica,sans-Serif" font-size="10.00">/GrammarEvolution/Formula.h</text>
</a>
</g>
</g>
<!-- Node14&#45;&gt;Node15 -->
<g id="edge3" class="edge"><title>Node14&#45;&gt;Node15</title>
<path fill="none" stroke="midnightblue" d="M285,-346.191C285,-337.282 285,-327.899 285,-319.607"/>
<polygon fill="midnightblue" stroke="midnightblue" points="281.5,-346.336 285,-356.336 288.5,-346.336 281.5,-346.336"/>
</g>
<!-- Node19 -->
<g id="node8" class="node"><title>Node19</title>
<g id="a_node8"><a xlink:href="FeatureSet_8cpp.html" target="_top" xlink:title="/home/yukiosir/workspace\l/CompilerProject/Software\l/pinhao/lib/Features/FeatureSet.cpp">
<polygon fill="white" stroke="black" points="0,-273 0,-314 172,-314 172,-273 0,-273"/>
<text text-anchor="start" x="8" y="-302" font-family="Helvetica,sans-Serif" font-size="10.00">/home/yukiosir/workspace</text>
<text text-anchor="start" x="8" y="-291" font-family="Helvetica,sans-Serif" font-size="10.00">/CompilerProject/Software</text>
<text text-anchor="middle" x="86" y="-280" font-family="Helvetica,sans-Serif" font-size="10.00">/pinhao/lib/Features/FeatureSet.cpp</text>
</a>
</g>
</g>
<!-- Node14&#45;&gt;Node19 -->
<g id="edge9" class="edge"><title>Node14&#45;&gt;Node19</title>
<path fill="none" stroke="midnightblue" d="M218.518,-352.435C189.718,-339.844 156.755,-325.433 130.91,-314.134"/>
<polygon fill="midnightblue" stroke="midnightblue" points="217.143,-355.654 227.708,-356.453 219.947,-349.24 217.143,-355.654"/>
</g>
<!-- Node16 -->
<g id="node5" class="node"><title>Node16</title>
<g id="a_node5"><a xlink:href="FormulaYAMLWrapper_8h.html" target="_top" xlink:title="/home/yukiosir/workspace\l/CompilerProject/Software\l/pinhao/include/pinhao/Support\l/FormulaYAMLWrapper.h">
<polygon fill="white" stroke="black" points="165,-178.5 165,-230.5 315,-230.5 315,-178.5 165,-178.5"/>
<text text-anchor="start" x="173" y="-218.5" font-family="Helvetica,sans-Serif" font-size="10.00">/home/yukiosir/workspace</text>
<text text-anchor="start" x="173" y="-207.5" font-family="Helvetica,sans-Serif" font-size="10.00">/CompilerProject/Software</text>
<text text-anchor="start" x="173" y="-196.5" font-family="Helvetica,sans-Serif" font-size="10.00">/pinhao/include/pinhao/Support</text>
<text text-anchor="middle" x="240" y="-185.5" font-family="Helvetica,sans-Serif" font-size="10.00">/FormulaYAMLWrapper.h</text>
</a>
</g>
</g>
<!-- Node15&#45;&gt;Node16 -->
<g id="edge4" class="edge"><title>Node15&#45;&gt;Node16</title>
<path fill="none" stroke="midnightblue" d="M267.336,-258.35C262.552,-249.1 257.462,-239.259 252.987,-230.607"/>
<polygon fill="midnightblue" stroke="midnightblue" points="264.281,-260.062 271.984,-267.336 270.499,-256.846 264.281,-260.062"/>
</g>
<!-- Node17 -->
<g id="node6" class="node"><title>Node17</title>
<g id="a_node6"><a xlink:href="Formula_8cpp.html" target="_top" xlink:title="/home/yukiosir/workspace\l/CompilerProject/Software\l/pinhao/lib/MachineLearning\l/GrammarEvolution/Formula.cpp">
<polygon fill="white" stroke="black" points="237,-89.5 237,-141.5 395,-141.5 395,-89.5 237,-89.5"/>
<text text-anchor="start" x="245" y="-129.5" font-family="Helvetica,sans-Serif" font-size="10.00">/home/yukiosir/workspace</text>
<text text-anchor="start" x="245" y="-118.5" font-family="Helvetica,sans-Serif" font-size="10.00">/CompilerProject/Software</text>
<text text-anchor="start" x="245" y="-107.5" font-family="Helvetica,sans-Serif" font-size="10.00">/pinhao/lib/MachineLearning</text>
<text text-anchor="middle" x="316" y="-96.5" font-family="Helvetica,sans-Serif" font-size="10.00">/GrammarEvolution/Formula.cpp</text>
</a>
</g>
</g>
<!-- Node15&#45;&gt;Node17 -->
<g id="edge7" class="edge"><title>Node15&#45;&gt;Node17</title>
<path fill="none" stroke="midnightblue" d="M311.073,-258.846C316.385,-250.22 321.2,-240.642 324,-231 332.668,-201.147 327.801,-165.159 322.676,-141.599"/>
<polygon fill="midnightblue" stroke="midnightblue" points="307.985,-257.173 305.422,-267.453 313.836,-261.015 307.985,-257.173"/>
</g>
<!-- Node18 -->
<g id="node7" class="node"><title>Node18</title>
<g id="a_node7"><a xlink:href="FormulaYAMLWrapper_8cpp.html" target="_top" xlink:title="/home/yukiosir/workspace\l/CompilerProject/Software\l/pinhao/lib/Support/YAMLWrapper\l/FormulaYAMLWrapper.cpp">
<polygon fill="white" stroke="black" points="55,-89.5 55,-141.5 219,-141.5 219,-89.5 55,-89.5"/>
<text text-anchor="start" x="63" y="-129.5" font-family="Helvetica,sans-Serif" font-size="10.00">/home/yukiosir/workspace</text>
<text text-anchor="start" x="63" y="-118.5" font-family="Helvetica,sans-Serif" font-size="10.00">/CompilerProject/Software</text>
<text text-anchor="start" x="63" y="-107.5" font-family="Helvetica,sans-Serif" font-size="10.00">/pinhao/lib/Support/YAMLWrapper</text>
<text text-anchor="middle" x="137" y="-96.5" font-family="Helvetica,sans-Serif" font-size="10.00">/FormulaYAMLWrapper.cpp</text>
</a>
</g>
</g>
<!-- Node15&#45;&gt;Node18 -->
<g id="edge8" class="edge"><title>Node15&#45;&gt;Node18</title>
<path fill="none" stroke="midnightblue" d="M193.197,-262.559C178.958,-254.326 165.761,-243.969 156,-231 136.612,-205.24 134.037,-166.954 134.833,-141.861"/>
<polygon fill="midnightblue" stroke="midnightblue" points="191.715,-265.736 202.176,-267.415 195.045,-259.579 191.715,-265.736"/>
</g>
<!-- Node16&#45;&gt;Node17 -->
<g id="edge5" class="edge"><title>Node16&#45;&gt;Node17</title>
<path fill="none" stroke="midnightblue" d="M268.574,-170.79C277.014,-161.129 286.116,-150.71 294.067,-141.607"/>
<polygon fill="midnightblue" stroke="midnightblue" points="265.925,-168.502 261.982,-178.336 271.197,-173.107 265.925,-168.502"/>
</g>
<!-- Node16&#45;&gt;Node18 -->
<g id="edge6" class="edge"><title>Node16&#45;&gt;Node18</title>
<path fill="none" stroke="midnightblue" d="M202.291,-171.649C190.571,-161.749 177.821,-150.98 166.725,-141.607"/>
<polygon fill="midnightblue" stroke="midnightblue" points="200.31,-174.557 210.208,-178.336 204.827,-169.209 200.31,-174.557"/>
</g>
<!-- Node21 -->
<g id="node10" class="node"><title>Node21</title>
<g id="a_node10"><a xlink:href="FeatureYAMLWrapper_8h.html" target="_top" xlink:title="/home/yukiosir/workspace\l/CompilerProject/Software\l/pinhao/include/pinhao/Support\l/FeatureYAMLWrapper.h">
<polygon fill="white" stroke="black" points="639,-178.5 639,-230.5 789,-230.5 789,-178.5 639,-178.5"/>
<text text-anchor="start" x="647" y="-218.5" font-family="Helvetica,sans-Serif" font-size="10.00">/home/yukiosir/workspace</text>
<text text-anchor="start" x="647" y="-207.5" font-family="Helvetica,sans-Serif" font-size="10.00">/CompilerProject/Software</text>
<text text-anchor="start" x="647" y="-196.5" font-family="Helvetica,sans-Serif" font-size="10.00">/pinhao/include/pinhao/Support</text>
<text text-anchor="middle" x="714" y="-185.5" font-family="Helvetica,sans-Serif" font-size="10.00">/FeatureYAMLWrapper.h</text>
</a>
</g>
</g>
<!-- Node20&#45;&gt;Node21 -->
<g id="edge11" class="edge"><title>Node20&#45;&gt;Node21</title>
<path fill="none" stroke="midnightblue" d="M761.691,-260.363C751.614,-250.542 741.204,-239.89 732.637,-230.607"/>
<polygon fill="midnightblue" stroke="midnightblue" points="759.306,-262.925 768.939,-267.336 764.159,-257.881 759.306,-262.925"/>
</g>
<!-- Node30 -->
<g id="node19" class="node"><title>Node30</title>
<g id="a_node19"><a xlink:href="FunctionsGeneFeature_8cpp.html" target="_top" xlink:title="/home/yukiosir/workspace\l/CompilerProject/Software\l/pinhao/lib/FeaturesImpl\l/FunctionsGeneFeature.cpp">
<polygon fill="white" stroke="black" points="483.5,-178.5 483.5,-230.5 620.5,-230.5 620.5,-178.5 483.5,-178.5"/>
<text text-anchor="start" x="491.5" y="-218.5" font-family="Helvetica,sans-Serif" font-size="10.00">/home/yukiosir/workspace</text>
<text text-anchor="start" x="491.5" y="-207.5" font-family="Helvetica,sans-Serif" font-size="10.00">/CompilerProject/Software</text>
<text text-anchor="start" x="491.5" y="-196.5" font-family="Helvetica,sans-Serif" font-size="10.00">/pinhao/lib/FeaturesImpl</text>
<text text-anchor="middle" x="552" y="-185.5" font-family="Helvetica,sans-Serif" font-size="10.00">/FunctionsGeneFeature.cpp</text>
</a>
</g>
</g>
<!-- Node20&#45;&gt;Node30 -->
<g id="edge24" class="edge"><title>Node20&#45;&gt;Node30</title>
<path fill="none" stroke="midnightblue" d="M718.904,-264.051C687.18,-252.922 651.184,-240.294 620.762,-229.622"/>
<polygon fill="midnightblue" stroke="midnightblue" points="718.006,-267.445 728.601,-267.453 720.323,-260.84 718.006,-267.445"/>
</g>
<!-- Node31 -->
<g id="node20" class="node"><title>Node31</title>
<g id="a_node20"><a xlink:href="FunctionStaticCostFeature_8cpp.html" target="_top" xlink:title="/home/yukiosir/workspace\l/CompilerProject/Software\l/pinhao/lib/FeaturesImpl\l/FunctionStaticCostFeature.cpp">
<polygon fill="white" stroke="black" points="807.5,-178.5 807.5,-230.5 962.5,-230.5 962.5,-178.5 807.5,-178.5"/>
<text text-anchor="start" x="815.5" y="-218.5" font-family="Helvetica,sans-Serif" font-size="10.00">/home/yukiosir/workspace</text>
<text text-anchor="start" x="815.5" y="-207.5" font-family="Helvetica,sans-Serif" font-size="10.00">/CompilerProject/Software</text>
<text text-anchor="start" x="815.5" y="-196.5" font-family="Helvetica,sans-Serif" font-size="10.00">/pinhao/lib/FeaturesImpl</text>
<text text-anchor="middle" x="885" y="-185.5" font-family="Helvetica,sans-Serif" font-size="10.00">/FunctionStaticCostFeature.cpp</text>
</a>
</g>
</g>
<!-- Node20&#45;&gt;Node31 -->
<g id="edge25" class="edge"><title>Node20&#45;&gt;Node31</title>
<path fill="none" stroke="midnightblue" d="M831.678,-260.077C841.195,-250.335 851.489,-239.8 860.47,-230.607"/>
<polygon fill="midnightblue" stroke="midnightblue" points="829.07,-257.737 824.586,-267.336 834.077,-262.629 829.07,-257.737"/>
</g>
<!-- Node32 -->
<g id="node21" class="node"><title>Node32</title>
<g id="a_node21"><a xlink:href="GEOSBasicBlockFreqFeature_8cpp.html" target="_top" xlink:title="/home/yukiosir/workspace\l/CompilerProject/Software\l/pinhao/lib/FeaturesImpl\l/GEOSFeatures/GEOSBasicBlockFreqFeature.cpp">
<polygon fill="white" stroke="black" points="980.5,-178.5 980.5,-230.5 1219.5,-230.5 1219.5,-178.5 980.5,-178.5"/>
<text text-anchor="start" x="988.5" y="-218.5" font-family="Helvetica,sans-Serif" font-size="10.00">/home/yukiosir/workspace</text>
<text text-anchor="start" x="988.5" y="-207.5" font-family="Helvetica,sans-Serif" font-size="10.00">/CompilerProject/Software</text>
<text text-anchor="start" x="988.5" y="-196.5" font-family="Helvetica,sans-Serif" font-size="10.00">/pinhao/lib/FeaturesImpl</text>
<text text-anchor="middle" x="1100" y="-185.5" font-family="Helvetica,sans-Serif" font-size="10.00">/GEOSFeatures/GEOSBasicBlockFreqFeature.cpp</text>
</a>
</g>
</g>
<!-- Node20&#45;&gt;Node32 -->
<g id="edge26" class="edge"><title>Node20&#45;&gt;Node32</title>
<path fill="none" stroke="midnightblue" d="M887.331,-267.174C927.104,-255.64 974.044,-242.027 1013.69,-230.529"/>
<polygon fill="midnightblue" stroke="midnightblue" points="886.277,-263.835 877.648,-269.982 888.227,-270.558 886.277,-263.835"/>
</g>
<!-- Node21&#45;&gt;Node20 -->
<g id="edge12" class="edge"><title>Node21&#45;&gt;Node20</title>
<path fill="none" stroke="midnightblue" d="M752.247,-237.577C762.323,-247.395 772.736,-258.048 781.311,-267.336"/>
<polygon fill="midnightblue" stroke="midnightblue" points="754.635,-235.017 745.001,-230.607 749.782,-240.062 754.635,-235.017"/>
</g>
<!-- Node21&#45;&gt;Node22 -->
<g id="edge13" class="edge"><title>Node21&#45;&gt;Node22</title>
<path fill="none" stroke="midnightblue" d="M634.196,-174.858C606.044,-164.087 574.968,-151.936 548.958,-141.521"/>
<polygon fill="midnightblue" stroke="midnightblue" points="633.029,-178.158 643.62,-178.453 635.524,-171.618 633.029,-178.158"/>
</g>
<!-- Node21&#45;&gt;Node26 -->
<g id="edge18" class="edge"><title>Node21&#45;&gt;Node26</title>
<path fill="none" stroke="midnightblue" d="M730.752,-169.639C736.895,-160.306 743.901,-150.349 750.502,-141.607"/>
<polygon fill="midnightblue" stroke="midnightblue" points="727.626,-168.03 725.168,-178.336 733.516,-171.812 727.626,-168.03"/>
</g>
<!-- Node21&#45;&gt;Node29 -->
<g id="edge23" class="edge"><title>Node21&#45;&gt;Node29</title>
<path fill="none" stroke="midnightblue" d="M799.392,-177.771C896.184,-155.102 997.735,-138.357 1066.86,-128.009"/>
<polygon fill="midnightblue" stroke="midnightblue" points="798.363,-174.418 789.438,-180.128 799.976,-181.23 798.363,-174.418"/>
</g>
<!-- Node22&#45;&gt;Node21 -->
<g id="edge14" class="edge"><title>Node22&#45;&gt;Node21</title>
<path fill="none" stroke="midnightblue" d="M570.733,-145.115C598.88,-155.883 629.958,-168.035 655.977,-178.453"/>
<polygon fill="midnightblue" stroke="midnightblue" points="571.902,-141.815 561.311,-141.521 569.407,-148.356 571.902,-141.815"/>
</g>
<!-- Node23 -->
<g id="node12" class="node"><title>Node23</title>
<g id="a_node12"><a xlink:href="CFGBasicBlockStaticFeatures_8cpp.html" target="_top" xlink:title="This file implements the CFGBasicBlockStaticFeatures class. ">
<polygon fill="white" stroke="black" points="374.5,-0.5 374.5,-52.5 547.5,-52.5 547.5,-0.5 374.5,-0.5"/>
<text text-anchor="start" x="382.5" y="-40.5" font-family="Helvetica,sans-Serif" font-size="10.00">/home/yukiosir/workspace</text>
<text text-anchor="start" x="382.5" y="-29.5" font-family="Helvetica,sans-Serif" font-size="10.00">/CompilerProject/Software</text>
<text text-anchor="start" x="382.5" y="-18.5" font-family="Helvetica,sans-Serif" font-size="10.00">/pinhao/lib/FeaturesImpl</text>
<text text-anchor="middle" x="461" y="-7.5" font-family="Helvetica,sans-Serif" font-size="10.00">/CFGBasicBlockStaticFeatures.cpp</text>
</a>
</g>
</g>
<!-- Node22&#45;&gt;Node23 -->
<g id="edge15" class="edge"><title>Node22&#45;&gt;Node23</title>
<path fill="none" stroke="midnightblue" d="M479.024,-79.771C475.893,-70.6909 472.579,-61.0788 469.658,-52.6075"/>
<polygon fill="midnightblue" stroke="midnightblue" points="475.754,-81.0233 482.323,-89.336 482.372,-78.7413 475.754,-81.0233"/>
</g>
<!-- Node24 -->
<g id="node13" class="node"><title>Node24</title>
<g id="a_node13"><a xlink:href="CFGFunctionStaticFeatures_8cpp.html" target="_top" xlink:title="This file implements the CFGFunctionStaticFeatures class. ">
<polygon fill="white" stroke="black" points="195.5,-0.5 195.5,-52.5 356.5,-52.5 356.5,-0.5 195.5,-0.5"/>
<text text-anchor="start" x="203.5" y="-40.5" font-family="Helvetica,sans-Serif" font-size="10.00">/home/yukiosir/workspace</text>
<text text-anchor="start" x="203.5" y="-29.5" font-family="Helvetica,sans-Serif" font-size="10.00">/CompilerProject/Software</text>
<text text-anchor="start" x="203.5" y="-18.5" font-family="Helvetica,sans-Serif" font-size="10.00">/pinhao/lib/FeaturesImpl</text>
<text text-anchor="middle" x="276" y="-7.5" font-family="Helvetica,sans-Serif" font-size="10.00">/CFGFunctionStaticFeatures.cpp</text>
</a>
</g>
</g>
<!-- Node22&#45;&gt;Node24 -->
<g id="edge16" class="edge"><title>Node22&#45;&gt;Node24</title>
<path fill="none" stroke="midnightblue" d="M419.522,-85.5764C393.079,-74.8763 363.349,-62.8457 337.834,-52.5211"/>
<polygon fill="midnightblue" stroke="midnightblue" points="418.519,-88.9461 429.102,-89.4527 421.145,-82.4572 418.519,-88.9461"/>
</g>
<!-- Node25 -->
<g id="node14" class="node"><title>Node25</title>
<g id="a_node14"><a xlink:href="CFGModuleStaticFeatures_8cpp.html" target="_top" xlink:title="/home/yukiosir/workspace\l/CompilerProject/Software\l/pinhao/lib/FeaturesImpl\l/CFGModuleStaticFeatures.cpp">
<polygon fill="white" stroke="black" points="565.5,-0.5 565.5,-52.5 720.5,-52.5 720.5,-0.5 565.5,-0.5"/>
<text text-anchor="start" x="573.5" y="-40.5" font-family="Helvetica,sans-Serif" font-size="10.00">/home/yukiosir/workspace</text>
<text text-anchor="start" x="573.5" y="-29.5" font-family="Helvetica,sans-Serif" font-size="10.00">/CompilerProject/Software</text>
<text text-anchor="start" x="573.5" y="-18.5" font-family="Helvetica,sans-Serif" font-size="10.00">/pinhao/lib/FeaturesImpl</text>
<text text-anchor="middle" x="643" y="-7.5" font-family="Helvetica,sans-Serif" font-size="10.00">/CFGModuleStaticFeatures.cpp</text>
</a>
</g>
</g>
<!-- Node22&#45;&gt;Node25 -->
<g id="edge17" class="edge"><title>Node22&#45;&gt;Node25</title>
<path fill="none" stroke="midnightblue" d="M543.67,-84.3532C561.765,-73.9962 581.814,-62.5208 599.134,-52.6075"/>
<polygon fill="midnightblue" stroke="midnightblue" points="541.905,-81.3308 534.965,-89.336 545.382,-87.406 541.905,-81.3308"/>
</g>
<!-- Node26&#45;&gt;Node21 -->
<g id="edge19" class="edge"><title>Node26&#45;&gt;Node21</title>
<path fill="none" stroke="midnightblue" d="M757.288,-150.301C751.149,-159.631 744.144,-169.589 737.54,-178.336"/>
<polygon fill="midnightblue" stroke="midnightblue" points="760.411,-151.914 762.867,-141.607 754.52,-148.133 760.411,-151.914"/>
</g>
<!-- Node26&#45;&gt;Node25 -->
<g id="edge20" class="edge"><title>Node26&#45;&gt;Node25</title>
<path fill="none" stroke="midnightblue" d="M727.754,-83.7872C712.384,-73.5794 695.461,-62.3405 680.805,-52.6075"/>
<polygon fill="midnightblue" stroke="midnightblue" points="725.843,-86.7192 736.109,-89.336 729.715,-80.888 725.843,-86.7192"/>
</g>
<!-- Node27 -->
<g id="node16" class="node"><title>Node27</title>
<g id="a_node16"><a xlink:href="GEOSFeatures_8cpp.html" target="_top" xlink:title="/home/yukiosir/workspace\l/CompilerProject/Software\l/pinhao/lib/FeaturesImpl\l/GEOSFeatures/GEOSFeatures.cpp">
<polygon fill="white" stroke="black" points="887.5,-0.5 887.5,-52.5 1062.5,-52.5 1062.5,-0.5 887.5,-0.5"/>
<text text-anchor="start" x="895.5" y="-40.5" font-family="Helvetica,sans-Serif" font-size="10.00">/home/yukiosir/workspace</text>
<text text-anchor="start" x="895.5" y="-29.5" font-family="Helvetica,sans-Serif" font-size="10.00">/CompilerProject/Software</text>
<text text-anchor="start" x="895.5" y="-18.5" font-family="Helvetica,sans-Serif" font-size="10.00">/pinhao/lib/FeaturesImpl</text>
<text text-anchor="middle" x="975" y="-7.5" font-family="Helvetica,sans-Serif" font-size="10.00">/GEOSFeatures/GEOSFeatures.cpp</text>
</a>
</g>
</g>
<!-- Node26&#45;&gt;Node27 -->
<g id="edge21" class="edge"><title>Node26&#45;&gt;Node27</title>
<path fill="none" stroke="midnightblue" d="M841.149,-85.4355C865.788,-74.7708 893.444,-62.8004 917.193,-52.5211"/>
<polygon fill="midnightblue" stroke="midnightblue" points="839.655,-82.2684 831.868,-89.4527 842.435,-88.6925 839.655,-82.2684"/>
</g>
<!-- Node28 -->
<g id="node17" class="node"><title>Node28</title>
<g id="a_node17"><a xlink:href="PAPIMultFeatures_8cpp.html" target="_top" xlink:title="This file implements the features extracted by the PAPI tool by multiplexing. ">
<polygon fill="white" stroke="black" points="738.5,-0.5 738.5,-52.5 869.5,-52.5 869.5,-0.5 738.5,-0.5"/>
<text text-anchor="start" x="746.5" y="-40.5" font-family="Helvetica,sans-Serif" font-size="10.00">/home/yukiosir/workspace</text>
<text text-anchor="start" x="746.5" y="-29.5" font-family="Helvetica,sans-Serif" font-size="10.00">/CompilerProject/Software</text>
<text text-anchor="start" x="746.5" y="-18.5" font-family="Helvetica,sans-Serif" font-size="10.00">/pinhao/lib/FeaturesImpl</text>
<text text-anchor="middle" x="804" y="-7.5" font-family="Helvetica,sans-Serif" font-size="10.00">/PAPIMultFeatures.cpp</text>
</a>
</g>
</g>
<!-- Node26&#45;&gt;Node28 -->
<g id="edge22" class="edge"><title>Node26&#45;&gt;Node28</title>
<path fill="none" stroke="midnightblue" d="M785.976,-79.771C789.107,-70.6909 792.421,-61.0788 795.342,-52.6075"/>
<polygon fill="midnightblue" stroke="midnightblue" points="782.628,-78.7413 782.677,-89.336 789.246,-81.0233 782.628,-78.7413"/>
</g>
<!-- Node33&#45;&gt;Node20 -->
<g id="edge30" class="edge"><title>Node33&#45;&gt;Node20</title>
<path fill="none" stroke="midnightblue" d="M800,-346.191C800,-337.282 800,-327.899 800,-319.607"/>
<polygon fill="midnightblue" stroke="midnightblue" points="796.5,-346.336 800,-356.336 803.5,-346.336 796.5,-346.336"/>
</g>
<!-- Node33&#45;&gt;Node22 -->
<g id="edge31" class="edge"><title>Node33&#45;&gt;Node22</title>
<path fill="none" stroke="midnightblue" d="M714.685,-368.28C637.003,-351.23 526.647,-313.291 474,-231 456.78,-204.084 467.508,-166.433 478.111,-141.766"/>
<polygon fill="midnightblue" stroke="midnightblue" points="714.434,-371.805 724.942,-370.453 715.885,-364.957 714.434,-371.805"/>
</g>
</g>
</svg>
        <g id="navigator" transform="translate(0 0)" fill="#404254">
                <rect fill="#f2f5e9" fill-opacity="0.5" stroke="#606060" stroke-width=".5" x="0" y="0" width="60" height="60"/>
                <use id="zoomplus" xlink:href="#zoomPlus" x="17" y="9" onmousedown="handleZoom(evt,'in')"/>
                <use id="zoomminus" xlink:href="#zoomMin" x="42" y="9" onmousedown="handleZoom(evt,'out')"/>
                <use id="reset" xlink:href="#resetDef" x="30" y="36" onmousedown="handleReset()"/>
                <g id="arrowUp" xlink:href="#dirArrow" transform="translate(30 24)" onmousedown="handlePan(0,-1)">
                  <use xlink:href="#rim" fill="#404040">
                        <set attributeName="fill" to="#808080" begin="arrowUp.mouseover" end="arrowUp.mouseout"/>
                  </use>
                  <path fill="none" stroke="white" stroke-width="1.5" d="M0,-3.0v7 M-2.5,-0.5L0,-3.0L2.5,-0.5"/>
                </g>
                <g id="arrowRight" xlink:href="#dirArrow" transform="rotate(90) translate(36 -43)" onmousedown="handlePan(1,0)">
                  <use xlink:href="#rim" fill="#404040">
                        <set attributeName="fill" to="#808080" begin="arrowRight.mouseover" end="arrowRight.mouseout"/>
                  </use>
                  <path fill="none" stroke="white" stroke-width="1.5" d="M0,-3.0v7 M-2.5,-0.5L0,-3.0L2.5,-0.5"/>
                </g>
                <g id="arrowDown" xlink:href="#dirArrow" transform="rotate(180) translate(-30 -48)" onmousedown="handlePan(0,1)">
                  <use xlink:href="#rim" fill="#404040">
                        <set attributeName="fill" to="#808080" begin="arrowDown.mouseover" end="arrowDown.mouseout"/>
                  </use>
                  <path fill="none" stroke="white" stroke-width="1.5" d="M0,-3.0v7 M-2.5,-0.5L0,-3.0L2.5,-0.5"/>
                </g>
                <g id="arrowLeft" xlink:href="#dirArrow" transform="rotate(270) translate(-36 17)" onmousedown="handlePan(-1,0)">
                  <use xlink:href="#rim" fill="#404040">
                        <set attributeName="fill" to="#808080" begin="arrowLeft.mouseover" end="arrowLeft.mouseout"/>
                  </use>
                  <path fill="none" stroke="white" stroke-width="1.5" d="M0,-3.0v7 M-2.5,-0.5L0,-3.0L2.5,-0.5"/>
                </g>
        </g>
        <svg viewBox="0 0 15 15" width="100%" height="30px" preserveAspectRatio="xMaxYMin meet">
         <g id="arrow_out" transform="scale(0.3 0.3)">
          <a xlink:href="Feature_8h__dep__incl_org.svg" target="_base">
           <rect id="button" ry="5" rx="5" y="6" x="6" height="38" width="38"
                fill="#f2f5e9" fill-opacity="0.5" stroke="#606060" stroke-width="1.0"/>
           <path id="arrow"
             d="M 11.500037,31.436501 C 11.940474,20.09759 22.043105,11.32322 32.158766,21.979434 L 37.068811,17.246167 C 37.068811,17.246167 37.088388,32 37.088388,32 L 22.160133,31.978069 C 22.160133,31.978069 26.997745,27.140456 26.997745,27.140456 C 18.528582,18.264221 13.291696,25.230495 11.500037,31.436501 z"
             style="fill:#404040;"/>
          </a>
         </g>
        </svg>
</svg>
