<?xml version="1.0" encoding="UTF-8" standalone="no"?>
<!DOCTYPE svg PUBLIC "-//W3C//DTD SVG 1.1//EN"
 "http://www.w3.org/Graphics/SVG/1.1/DTD/svg11.dtd">
<!-- Generated by graphviz version 2.38.0 (20140413.2041)
 -->
<!-- Title: /home/yukiosir/workspace/CompilerProject/Software/pinhao/include/pinhao/Features/FeatureRegistry.h Pages: 1 -->
<svg width="1458pt" height="684pt"
 viewBox="0.00 0.00 1457.50 684.00" xmlns="http://www.w3.org/2000/svg" xmlns:xlink="http://www.w3.org/1999/xlink">
<g id="graph0" class="graph" transform="scale(1 1) rotate(0) translate(4 680)">
<title>/home/yukiosir/workspace/CompilerProject/Software/pinhao/include/pinhao/Features/FeatureRegistry.h</title>
<polygon fill="white" stroke="none" points="-4,4 -4,-680 1453.5,-680 1453.5,4 -4,4"/>
<!-- Node4 -->
<g id="node1" class="node"><title>Node4</title>
<polygon fill="#bfbfbf" stroke="black" points="488,-623.5 488,-675.5 643,-675.5 643,-623.5 488,-623.5"/>
<text text-anchor="start" x="496" y="-663.5" font-family="Helvetica,sans-Serif" font-size="10.00">/home/yukiosir/workspace</text>
<text text-anchor="start" x="496" y="-652.5" font-family="Helvetica,sans-Serif" font-size="10.00">/CompilerProject/Software</text>
<text text-anchor="start" x="496" y="-641.5" font-family="Helvetica,sans-Serif" font-size="10.00">/pinhao/include/pinhao/Features</text>
<text text-anchor="middle" x="565.5" y="-630.5" font-family="Helvetica,sans-Serif" font-size="10.00">/FeatureRegistry.h</text>
</g>
<!-- Node5 -->
<g id="node2" class="node"><title>Node5</title>
<g id="a_node2"><a xlink:href="Feature_8h.html" target="_top" xlink:title="This file defines the base feature class. ">
<polygon fill="white" stroke="black" points="488,-534.5 488,-586.5 643,-586.5 643,-534.5 488,-534.5"/>
<text text-anchor="start" x="496" y="-574.5" font-family="Helvetica,sans-Serif" font-size="10.00">/home/yukiosir/workspace</text>
<text text-anchor="start" x="496" y="-563.5" font-family="Helvetica,sans-Serif" font-size="10.00">/CompilerProject/Software</text>
<text text-anchor="start" x="496" y="-552.5" font-family="Helvetica,sans-Serif" font-size="10.00">/pinhao/include/pinhao/Features</text>
<text text-anchor="middle" x="565.5" y="-541.5" font-family="Helvetica,sans-Serif" font-size="10.00">/Feature.h</text>
</a>
</g>
</g>
<!-- Node4&#45;&gt;Node5 -->
<g id="edge1" class="edge"><title>Node4&#45;&gt;Node5</title>
<path fill="none" stroke="midnightblue" d="M565.5,-613.191C565.5,-604.282 565.5,-594.899 565.5,-586.607"/>
<polygon fill="midnightblue" stroke="midnightblue" points="562,-613.336 565.5,-623.336 569,-613.336 562,-613.336"/>
</g>
<!-- Node18 -->
<g id="node15" class="node"><title>Node18</title>
<g id="a_node15"><a xlink:href="CFGModuleStaticFeatures_8cpp.html" target="_top" xlink:title="/home/yukiosir/workspace\l/CompilerProject/Software\l/pinhao/lib/FeaturesImpl\l/CFGModuleStaticFeatures.cpp">
<polygon fill="white" stroke="black" points="370,-0.5 370,-52.5 525,-52.5 525,-0.5 370,-0.5"/>
<text text-anchor="start" x="378" y="-40.5" font-family="Helvetica,sans-Serif" font-size="10.00">/home/yukiosir/workspace</text>
<text text-anchor="start" x="378" y="-29.5" font-family="Helvetica,sans-Serif" font-size="10.00">/CompilerProject/Software</text>
<text text-anchor="start" x="378" y="-18.5" font-family="Helvetica,sans-Serif" font-size="10.00">/pinhao/lib/FeaturesImpl</text>
<text text-anchor="middle" x="447.5" y="-7.5" font-family="Helvetica,sans-Serif" font-size="10.00">/CFGModuleStaticFeatures.cpp</text>
</a>
</g>
</g>
<!-- Node4&#45;&gt;Node18 -->
<g id="edge42" class="edge"><title>Node4&#45;&gt;Node18</title>
<path fill="none" stroke="midnightblue" d="M477.429,-636.713C331.027,-614.627 53.5,-561.078 53.5,-472.5 53.5,-472.5 53.5,-472.5 53.5,-203.5 53.5,-51.5421 212.905,-89.1503 360.5,-53 363.558,-52.2511 366.668,-51.4636 369.805,-50.6481"/>
<polygon fill="midnightblue" stroke="midnightblue" points="477.332,-640.237 487.738,-638.249 478.363,-633.314 477.332,-640.237"/>
</g>
<!-- Node31 -->
<g id="node28" class="node"><title>Node31</title>
<g id="a_node28"><a xlink:href="FeatureRegistry_8cpp.html" target="_top" xlink:title="This file implements the functions and defines the static members of the FeatureRegistry class...">
<polygon fill="white" stroke="black" points="836.5,-451 836.5,-492 1030.5,-492 1030.5,-451 836.5,-451"/>
<text text-anchor="start" x="844.5" y="-480" font-family="Helvetica,sans-Serif" font-size="10.00">/home/yukiosir/workspace</text>
<text text-anchor="start" x="844.5" y="-469" font-family="Helvetica,sans-Serif" font-size="10.00">/CompilerProject/Software</text>
<text text-anchor="middle" x="933.5" y="-458" font-family="Helvetica,sans-Serif" font-size="10.00">/pinhao/lib/Features/FeatureRegistry.cpp</text>
</a>
</g>
</g>
<!-- Node4&#45;&gt;Node31 -->
<g id="edge41" class="edge"><title>Node4&#45;&gt;Node31</title>
<path fill="none" stroke="midnightblue" d="M627.235,-618.975C702.707,-582.879 828.312,-522.808 892.701,-492.012"/>
<polygon fill="midnightblue" stroke="midnightblue" points="625.346,-615.998 617.835,-623.47 628.366,-622.313 625.346,-615.998"/>
</g>
<!-- Node6 -->
<g id="node3" class="node"><title>Node6</title>
<g id="a_node3"><a xlink:href="Features_8h.html" target="_top" xlink:title="This file implements some basic feature classes that extends the base class Feature. ">
<polygon fill="white" stroke="black" points="488,-445.5 488,-497.5 643,-497.5 643,-445.5 488,-445.5"/>
<text text-anchor="start" x="496" y="-485.5" font-family="Helvetica,sans-Serif" font-size="10.00">/home/yukiosir/workspace</text>
<text text-anchor="start" x="496" y="-474.5" font-family="Helvetica,sans-Serif" font-size="10.00">/CompilerProject/Software</text>
<text text-anchor="start" x="496" y="-463.5" font-family="Helvetica,sans-Serif" font-size="10.00">/pinhao/include/pinhao/Features</text>
<text text-anchor="middle" x="565.5" y="-452.5" font-family="Helvetica,sans-Serif" font-size="10.00">/Features.h</text>
</a>
</g>
</g>
<!-- Node5&#45;&gt;Node6 -->
<g id="edge2" class="edge"><title>Node5&#45;&gt;Node6</title>
<path fill="none" stroke="midnightblue" d="M565.5,-524.191C565.5,-515.282 565.5,-505.899 565.5,-497.607"/>
<polygon fill="midnightblue" stroke="midnightblue" points="562,-524.336 565.5,-534.336 569,-524.336 562,-524.336"/>
</g>
<!-- Node30 -->
<g id="node27" class="node"><title>Node30</title>
<g id="a_node27"><a xlink:href="Feature_8cpp.html" target="_top" xlink:title="/home/yukiosir/workspace\l/CompilerProject/Software\l/pinhao/lib/Features/Feature.cpp">
<polygon fill="white" stroke="black" points="661,-451 661,-492 818,-492 818,-451 661,-451"/>
<text text-anchor="start" x="669" y="-480" font-family="Helvetica,sans-Serif" font-size="10.00">/home/yukiosir/workspace</text>
<text text-anchor="start" x="669" y="-469" font-family="Helvetica,sans-Serif" font-size="10.00">/CompilerProject/Software</text>
<text text-anchor="middle" x="739.5" y="-458" font-family="Helvetica,sans-Serif" font-size="10.00">/pinhao/lib/Features/Feature.cpp</text>
</a>
</g>
</g>
<!-- Node5&#45;&gt;Node30 -->
<g id="edge37" class="edge"><title>Node5&#45;&gt;Node30</title>
<path fill="none" stroke="midnightblue" d="M624.842,-529.829C649.772,-517.364 678.083,-503.208 700.336,-492.082"/>
<polygon fill="midnightblue" stroke="midnightblue" points="623.207,-526.733 615.828,-534.336 626.338,-532.994 623.207,-526.733"/>
</g>
<!-- Node5&#45;&gt;Node31 -->
<g id="edge38" class="edge"><title>Node5&#45;&gt;Node31</title>
<path fill="none" stroke="midnightblue" d="M653.109,-538.915C703.777,-526.995 768.744,-511.687 826.5,-498 834.676,-496.062 843.203,-494.038 851.717,-492.013"/>
<polygon fill="midnightblue" stroke="midnightblue" points="652.105,-535.556 643.172,-541.253 653.708,-542.37 652.105,-535.556"/>
</g>
<!-- Node32 -->
<g id="node29" class="node"><title>Node32</title>
<g id="a_node29"><a xlink:href="CFGStaticFeaturesPass_8cpp.html" target="_top" xlink:title="This file implements the CFGStaticFeaturesPass class. ">
<polygon fill="white" stroke="black" points="145.5,-445.5 145.5,-497.5 291.5,-497.5 291.5,-445.5 145.5,-445.5"/>
<text text-anchor="start" x="153.5" y="-485.5" font-family="Helvetica,sans-Serif" font-size="10.00">/home/yukiosir/workspace</text>
<text text-anchor="start" x="153.5" y="-474.5" font-family="Helvetica,sans-Serif" font-size="10.00">/CompilerProject/Software</text>
<text text-anchor="start" x="153.5" y="-463.5" font-family="Helvetica,sans-Serif" font-size="10.00">/pinhao/tools/OptLibraries</text>
<text text-anchor="middle" x="218.5" y="-452.5" font-family="Helvetica,sans-Serif" font-size="10.00">/CFGStaticFeaturesPass.cpp</text>
</a>
</g>
</g>
<!-- Node5&#45;&gt;Node32 -->
<g id="edge39" class="edge"><title>Node5&#45;&gt;Node32</title>
<path fill="none" stroke="midnightblue" d="M477.896,-540.866C426.071,-529.421 359.276,-513.936 300.5,-498 297.622,-497.22 294.694,-496.406 291.74,-495.568"/>
<polygon fill="midnightblue" stroke="midnightblue" points="477.205,-544.297 487.724,-543.027 478.709,-537.461 477.205,-544.297"/>
</g>
<!-- Node33 -->
<g id="node30" class="node"><title>Node33</title>
<g id="a_node30"><a xlink:href="FunctionsGeneFeaturePass_8cpp.html" target="_top" xlink:title="/home/yukiosir/workspace\l/CompilerProject/Software\l/pinhao/tools/OptLibraries\l/FunctionsGeneFeaturePass.cpp">
<polygon fill="white" stroke="black" points="309.5,-445.5 309.5,-497.5 469.5,-497.5 469.5,-445.5 309.5,-445.5"/>
<text text-anchor="start" x="317.5" y="-485.5" font-family="Helvetica,sans-Serif" font-size="10.00">/home/yukiosir/workspace</text>
<text text-anchor="start" x="317.5" y="-474.5" font-family="Helvetica,sans-Serif" font-size="10.00">/CompilerProject/Software</text>
<text text-anchor="start" x="317.5" y="-463.5" font-family="Helvetica,sans-Serif" font-size="10.00">/pinhao/tools/OptLibraries</text>
<text text-anchor="middle" x="389.5" y="-452.5" font-family="Helvetica,sans-Serif" font-size="10.00">/FunctionsGeneFeaturePass.cpp</text>
</a>
</g>
</g>
<!-- Node5&#45;&gt;Node33 -->
<g id="edge40" class="edge"><title>Node5&#45;&gt;Node33</title>
<path fill="none" stroke="midnightblue" d="M505.369,-529.776C484.195,-519.309 460.62,-507.656 440.292,-497.607"/>
<polygon fill="midnightblue" stroke="midnightblue" points="504.078,-533.042 514.594,-534.336 507.18,-526.767 504.078,-533.042"/>
</g>
<!-- Node7 -->
<g id="node4" class="node"><title>Node7</title>
<g id="a_node4"><a xlink:href="FeatureSet_8h.html" target="_top" xlink:title="This file defines a class which contains the features selected by the user (by some command line)...">
<polygon fill="white" stroke="black" points="995,-356.5 995,-408.5 1150,-408.5 1150,-356.5 995,-356.5"/>
<text text-anchor="start" x="1003" y="-396.5" font-family="Helvetica,sans-Serif" font-size="10.00">/home/yukiosir/workspace</text>
<text text-anchor="start" x="1003" y="-385.5" font-family="Helvetica,sans-Serif" font-size="10.00">/CompilerProject/Software</text>
<text text-anchor="start" x="1003" y="-374.5" font-family="Helvetica,sans-Serif" font-size="10.00">/pinhao/include/pinhao/Features</text>
<text text-anchor="middle" x="1072.5" y="-363.5" font-family="Helvetica,sans-Serif" font-size="10.00">/FeatureSet.h</text>
</a>
</g>
</g>
<!-- Node6&#45;&gt;Node7 -->
<g id="edge3" class="edge"><title>Node6&#45;&gt;Node7</title>
<path fill="none" stroke="midnightblue" d="M653.039,-444.834C794.007,-417.284 834.448,-434.218 972.5,-409 979.814,-407.664 987.385,-406.091 994.937,-404.393"/>
<polygon fill="midnightblue" stroke="midnightblue" points="652.283,-441.416 643.161,-446.804 653.652,-448.28 652.283,-441.416"/>
</g>
<!-- Node13 -->
<g id="node10" class="node"><title>Node13</title>
<g id="a_node10"><a xlink:href="MapFeature_8h.html" target="_top" xlink:title="/home/yukiosir/workspace\l/CompilerProject/Software\l/pinhao/include/pinhao/Features\l/MapFeature.h">
<polygon fill="white" stroke="black" points="313,-267.5 313,-319.5 468,-319.5 468,-267.5 313,-267.5"/>
<text text-anchor="start" x="321" y="-307.5" font-family="Helvetica,sans-Serif" font-size="10.00">/home/yukiosir/workspace</text>
<text text-anchor="start" x="321" y="-296.5" font-family="Helvetica,sans-Serif" font-size="10.00">/CompilerProject/Software</text>
<text text-anchor="start" x="321" y="-285.5" font-family="Helvetica,sans-Serif" font-size="10.00">/pinhao/include/pinhao/Features</text>
<text text-anchor="middle" x="390.5" y="-274.5" font-family="Helvetica,sans-Serif" font-size="10.00">/MapFeature.h</text>
</a>
</g>
</g>
<!-- Node6&#45;&gt;Node13 -->
<g id="edge11" class="edge"><title>Node6&#45;&gt;Node13</title>
<path fill="none" stroke="midnightblue" d="M478.258,-444.765C422.302,-428.21 359.991,-409.659 359.5,-409 339.813,-382.577 356.844,-344.456 372.386,-319.581"/>
<polygon fill="midnightblue" stroke="midnightblue" points="477.31,-448.135 487.892,-447.615 479.296,-441.422 477.31,-448.135"/>
</g>
<!-- Node15 -->
<g id="node12" class="node"><title>Node15</title>
<g id="a_node12"><a xlink:href="MapVectorFeature_8h.html" target="_top" xlink:title="/home/yukiosir/workspace\l/CompilerProject/Software\l/pinhao/include/pinhao/Features\l/MapVectorFeature.h">
<polygon fill="white" stroke="black" points="188,-89.5 188,-141.5 343,-141.5 343,-89.5 188,-89.5"/>
<text text-anchor="start" x="196" y="-129.5" font-family="Helvetica,sans-Serif" font-size="10.00">/home/yukiosir/workspace</text>
<text text-anchor="start" x="196" y="-118.5" font-family="Helvetica,sans-Serif" font-size="10.00">/CompilerProject/Software</text>
<text text-anchor="start" x="196" y="-107.5" font-family="Helvetica,sans-Serif" font-size="10.00">/pinhao/include/pinhao/Features</text>
<text text-anchor="middle" x="265.5" y="-96.5" font-family="Helvetica,sans-Serif" font-size="10.00">/MapVectorFeature.h</text>
</a>
</g>
</g>
<!-- Node6&#45;&gt;Node15 -->
<g id="edge28" class="edge"><title>Node6&#45;&gt;Node15</title>
<path fill="none" stroke="midnightblue" d="M477.89,-445.312C391.675,-432.917 202.913,-458.335 153.5,-409 80.5749,-336.189 78.1166,-264.903 133.5,-178 146,-158.385 166.564,-144.926 187.781,-135.731"/>
<polygon fill="midnightblue" stroke="midnightblue" points="477.433,-448.785 487.879,-447.019 478.612,-441.885 477.433,-448.785"/>
</g>
<!-- Node19 -->
<g id="node16" class="node"><title>Node19</title>
<g id="a_node16"><a xlink:href="VectorFeature_8h.html" target="_top" xlink:title="/home/yukiosir/workspace\l/CompilerProject/Software\l/pinhao/include/pinhao/Features\l/VectorFeature.h">
<polygon fill="white" stroke="black" points="721,-89.5 721,-141.5 876,-141.5 876,-89.5 721,-89.5"/>
<text text-anchor="start" x="729" y="-129.5" font-family="Helvetica,sans-Serif" font-size="10.00">/home/yukiosir/workspace</text>
<text text-anchor="start" x="729" y="-118.5" font-family="Helvetica,sans-Serif" font-size="10.00">/CompilerProject/Software</text>
<text text-anchor="start" x="729" y="-107.5" font-family="Helvetica,sans-Serif" font-size="10.00">/pinhao/include/pinhao/Features</text>
<text text-anchor="middle" x="798.5" y="-96.5" font-family="Helvetica,sans-Serif" font-size="10.00">/VectorFeature.h</text>
</a>
</g>
</g>
<!-- Node6&#45;&gt;Node19 -->
<g id="edge29" class="edge"><title>Node6&#45;&gt;Node19</title>
<path fill="none" stroke="midnightblue" d="M653.09,-445.096C721.509,-434.645 866.543,-449.352 901.5,-409 935.112,-370.201 926.84,-222.643 901.5,-178 892.761,-162.604 878.47,-150.652 863.278,-141.554"/>
<polygon fill="midnightblue" stroke="midnightblue" points="652.387,-441.667 643.184,-446.916 653.652,-448.552 652.387,-441.667"/>
</g>
<!-- Node22 -->
<g id="node19" class="node"><title>Node22</title>
<g id="a_node19"><a xlink:href="FeatureYAMLWrapper_8cpp.html" target="_top" xlink:title="/home/yukiosir/workspace\l/CompilerProject/Software\l/pinhao/lib/Support/YAMLWrapper\l/FeatureYAMLWrapper.cpp">
<polygon fill="white" stroke="black" points="894.5,-89.5 894.5,-141.5 1058.5,-141.5 1058.5,-89.5 894.5,-89.5"/>
<text text-anchor="start" x="902.5" y="-129.5" font-family="Helvetica,sans-Serif" font-size="10.00">/home/yukiosir/workspace</text>
<text text-anchor="start" x="902.5" y="-118.5" font-family="Helvetica,sans-Serif" font-size="10.00">/CompilerProject/Software</text>
<text text-anchor="start" x="902.5" y="-107.5" font-family="Helvetica,sans-Serif" font-size="10.00">/pinhao/lib/Support/YAMLWrapper</text>
<text text-anchor="middle" x="976.5" y="-96.5" font-family="Helvetica,sans-Serif" font-size="10.00">/FeatureYAMLWrapper.cpp</text>
</a>
</g>
</g>
<!-- Node6&#45;&gt;Node22 -->
<g id="edge34" class="edge"><title>Node6&#45;&gt;Node22</title>
<path fill="none" stroke="midnightblue" d="M653.437,-445.027C727.195,-433.902 883.251,-449.512 925.5,-409 963.73,-372.343 973.446,-206.056 975.792,-141.877"/>
<polygon fill="midnightblue" stroke="midnightblue" points="652.397,-441.657 643.175,-446.872 653.636,-448.547 652.397,-441.657"/>
</g>
<!-- Node26 -->
<g id="node23" class="node"><title>Node26</title>
<g id="a_node23"><a xlink:href="Iterator_8h.html" target="_top" xlink:title="/home/yukiosir/workspace\l/CompilerProject/Software\l/pinhao/include/pinhao/Support\l/Iterator.h">
<polygon fill="white" stroke="black" points="162.5,-356.5 162.5,-408.5 312.5,-408.5 312.5,-356.5 162.5,-356.5"/>
<text text-anchor="start" x="170.5" y="-396.5" font-family="Helvetica,sans-Serif" font-size="10.00">/home/yukiosir/workspace</text>
<text text-anchor="start" x="170.5" y="-385.5" font-family="Helvetica,sans-Serif" font-size="10.00">/CompilerProject/Software</text>
<text text-anchor="start" x="170.5" y="-374.5" font-family="Helvetica,sans-Serif" font-size="10.00">/pinhao/include/pinhao/Support</text>
<text text-anchor="middle" x="237.5" y="-363.5" font-family="Helvetica,sans-Serif" font-size="10.00">/Iterator.h</text>
</a>
</g>
</g>
<!-- Node6&#45;&gt;Node26 -->
<g id="edge30" class="edge"><title>Node6&#45;&gt;Node26</title>
<path fill="none" stroke="midnightblue" d="M477.82,-444.881C409.696,-427.137 390.648,-425.777 326.5,-409 321.99,-407.821 317.361,-406.581 312.695,-405.311"/>
<polygon fill="midnightblue" stroke="midnightblue" points="477.207,-448.339 487.769,-447.497 478.987,-441.569 477.207,-448.339"/>
</g>
<!-- Node27 -->
<g id="node24" class="node"><title>Node27</title>
<g id="a_node24"><a xlink:href="Features_8cpp.html" target="_top" xlink:title="This file implements the functions of the basic implementations of the feature classes. Such as the StringFeature , the VectorFeature and the MapVectorFeature. ">
<polygon fill="white" stroke="black" points="368.5,-362 368.5,-403 530.5,-403 530.5,-362 368.5,-362"/>
<text text-anchor="start" x="376.5" y="-391" font-family="Helvetica,sans-Serif" font-size="10.00">/home/yukiosir/workspace</text>
<text text-anchor="start" x="376.5" y="-380" font-family="Helvetica,sans-Serif" font-size="10.00">/CompilerProject/Software</text>
<text text-anchor="middle" x="449.5" y="-369" font-family="Helvetica,sans-Serif" font-size="10.00">/pinhao/lib/Features/Features.cpp</text>
</a>
</g>
</g>
<!-- Node6&#45;&gt;Node27 -->
<g id="edge33" class="edge"><title>Node6&#45;&gt;Node27</title>
<path fill="none" stroke="midnightblue" d="M523.739,-439.179C507.671,-427.128 489.794,-413.72 475.609,-403.082"/>
<polygon fill="midnightblue" stroke="midnightblue" points="521.848,-442.136 531.948,-445.336 526.048,-436.536 521.848,-442.136"/>
</g>
<!-- Node28 -->
<g id="node25" class="node"><title>Node28</title>
<g id="a_node25"><a xlink:href="CFGStaticFeaturesDiffPass_8cpp.html" target="_top" xlink:title="This file implements the CFGStaticFeaturesDiffPass class. ">
<polygon fill="white" stroke="black" points="549,-356.5 549,-408.5 710,-408.5 710,-356.5 549,-356.5"/>
<text text-anchor="start" x="557" y="-396.5" font-family="Helvetica,sans-Serif" font-size="10.00">/home/yukiosir/workspace</text>
<text text-anchor="start" x="557" y="-385.5" font-family="Helvetica,sans-Serif" font-size="10.00">/CompilerProject/Software</text>
<text text-anchor="start" x="557" y="-374.5" font-family="Helvetica,sans-Serif" font-size="10.00">/pinhao/tools/OptLibraries</text>
<text text-anchor="middle" x="629.5" y="-363.5" font-family="Helvetica,sans-Serif" font-size="10.00">/CFGStaticFeaturesDiffPass.cpp</text>
</a>
</g>
</g>
<!-- Node6&#45;&gt;Node28 -->
<g id="edge35" class="edge"><title>Node6&#45;&gt;Node28</title>
<path fill="none" stroke="midnightblue" d="M589.985,-437.215C596.973,-427.717 604.467,-417.529 611.03,-408.607"/>
<polygon fill="midnightblue" stroke="midnightblue" points="587.118,-435.207 584.011,-445.336 592.756,-439.355 587.118,-435.207"/>
</g>
<!-- Node29 -->
<g id="node26" class="node"><title>Node29</title>
<g id="a_node26"><a xlink:href="CFGStaticFeaturesGenPass_8cpp.html" target="_top" xlink:title="This class generates a cfg (control flow graph) with the static features, based on the cfg...">
<polygon fill="white" stroke="black" points="728.5,-356.5 728.5,-408.5 892.5,-408.5 892.5,-356.5 728.5,-356.5"/>
<text text-anchor="start" x="736.5" y="-396.5" font-family="Helvetica,sans-Serif" font-size="10.00">/home/yukiosir/workspace</text>
<text text-anchor="start" x="736.5" y="-385.5" font-family="Helvetica,sans-Serif" font-size="10.00">/CompilerProject/Software</text>
<text text-anchor="start" x="736.5" y="-374.5" font-family="Helvetica,sans-Serif" font-size="10.00">/pinhao/tools/OptLibraries</text>
<text text-anchor="middle" x="810.5" y="-363.5" font-family="Helvetica,sans-Serif" font-size="10.00">/CFGStaticFeaturesGenPass.cpp</text>
</a>
</g>
</g>
<!-- Node6&#45;&gt;Node29 -->
<g id="edge36" class="edge"><title>Node6&#45;&gt;Node29</title>
<path fill="none" stroke="midnightblue" d="M645.764,-441.998C676.192,-431.193 710.581,-418.982 740.038,-408.521"/>
<polygon fill="midnightblue" stroke="midnightblue" points="644.288,-438.808 636.035,-445.453 646.63,-445.405 644.288,-438.808"/>
</g>
<!-- Node8 -->
<g id="node5" class="node"><title>Node8</title>
<g id="a_node5"><a xlink:href="Formula_8h.html" target="_top" xlink:title="/home/yukiosir/workspace\l/CompilerProject/Software\l/pinhao/include/pinhao/MachineLearning\l/GrammarEvolution/Formula.h">
<polygon fill="white" stroke="black" points="1176.5,-267.5 1176.5,-319.5 1366.5,-319.5 1366.5,-267.5 1176.5,-267.5"/>
<text text-anchor="start" x="1184.5" y="-307.5" font-family="Helvetica,sans-Serif" font-size="10.00">/home/yukiosir/workspace</text>
<text text-anchor="start" x="1184.5" y="-296.5" font-family="Helvetica,sans-Serif" font-size="10.00">/CompilerProject/Software</text>
<text text-anchor="start" x="1184.5" y="-285.5" font-family="Helvetica,sans-Serif" font-size="10.00">/pinhao/include/pinhao/MachineLearning</text>
<text text-anchor="middle" x="1271.5" y="-274.5" font-family="Helvetica,sans-Serif" font-size="10.00">/GrammarEvolution/Formula.h</text>
</a>
</g>
</g>
<!-- Node7&#45;&gt;Node8 -->
<g id="edge4" class="edge"><title>Node7&#45;&gt;Node8</title>
<path fill="none" stroke="midnightblue" d="M1138.98,-352.436C1163.37,-341.771 1190.76,-329.8 1214.27,-319.521"/>
<polygon fill="midnightblue" stroke="midnightblue" points="1137.55,-349.24 1129.79,-356.453 1140.36,-355.654 1137.55,-349.24"/>
</g>
<!-- Node12 -->
<g id="node9" class="node"><title>Node12</title>
<g id="a_node9"><a xlink:href="FeatureSet_8cpp.html" target="_top" xlink:title="/home/yukiosir/workspace\l/CompilerProject/Software\l/pinhao/lib/Features/FeatureSet.cpp">
<polygon fill="white" stroke="black" points="986.5,-273 986.5,-314 1158.5,-314 1158.5,-273 986.5,-273"/>
<text text-anchor="start" x="994.5" y="-302" font-family="Helvetica,sans-Serif" font-size="10.00">/home/yukiosir/workspace</text>
<text text-anchor="start" x="994.5" y="-291" font-family="Helvetica,sans-Serif" font-size="10.00">/CompilerProject/Software</text>
<text text-anchor="middle" x="1072.5" y="-280" font-family="Helvetica,sans-Serif" font-size="10.00">/pinhao/lib/Features/FeatureSet.cpp</text>
</a>
</g>
</g>
<!-- Node7&#45;&gt;Node12 -->
<g id="edge10" class="edge"><title>Node7&#45;&gt;Node12</title>
<path fill="none" stroke="midnightblue" d="M1072.5,-346.155C1072.5,-335.21 1072.5,-323.549 1072.5,-314.082"/>
<polygon fill="midnightblue" stroke="midnightblue" points="1069,-346.336 1072.5,-356.336 1076,-346.336 1069,-346.336"/>
</g>
<!-- Node9 -->
<g id="node6" class="node"><title>Node9</title>
<g id="a_node6"><a xlink:href="FormulaYAMLWrapper_8h.html" target="_top" xlink:title="/home/yukiosir/workspace\l/CompilerProject/Software\l/pinhao/include/pinhao/Support\l/FormulaYAMLWrapper.h">
<polygon fill="white" stroke="black" points="1196.5,-178.5 1196.5,-230.5 1346.5,-230.5 1346.5,-178.5 1196.5,-178.5"/>
<text text-anchor="start" x="1204.5" y="-218.5" font-family="Helvetica,sans-Serif" font-size="10.00">/home/yukiosir/workspace</text>
<text text-anchor="start" x="1204.5" y="-207.5" font-family="Helvetica,sans-Serif" font-size="10.00">/CompilerProject/Software</text>
<text text-anchor="start" x="1204.5" y="-196.5" font-family="Helvetica,sans-Serif" font-size="10.00">/pinhao/include/pinhao/Support</text>
<text text-anchor="middle" x="1271.5" y="-185.5" font-family="Helvetica,sans-Serif" font-size="10.00">/FormulaYAMLWrapper.h</text>
</a>
</g>
</g>
<!-- Node8&#45;&gt;Node9 -->
<g id="edge5" class="edge"><title>Node8&#45;&gt;Node9</title>
<path fill="none" stroke="midnightblue" d="M1271.5,-257.191C1271.5,-248.282 1271.5,-238.899 1271.5,-230.607"/>
<polygon fill="midnightblue" stroke="midnightblue" points="1268,-257.336 1271.5,-267.336 1275,-257.336 1268,-257.336"/>
</g>
<!-- Node10 -->
<g id="node7" class="node"><title>Node10</title>
<g id="a_node7"><a xlink:href="Formula_8cpp.html" target="_top" xlink:title="/home/yukiosir/workspace\l/CompilerProject/Software\l/pinhao/lib/MachineLearning\l/GrammarEvolution/Formula.cpp">
<polygon fill="white" stroke="black" points="1096.5,-89.5 1096.5,-141.5 1254.5,-141.5 1254.5,-89.5 1096.5,-89.5"/>
<text text-anchor="start" x="1104.5" y="-129.5" font-family="Helvetica,sans-Serif" font-size="10.00">/home/yukiosir/workspace</text>
<text text-anchor="start" x="1104.5" y="-118.5" font-family="Helvetica,sans-Serif" font-size="10.00">/CompilerProject/Software</text>
<text text-anchor="start" x="1104.5" y="-107.5" font-family="Helvetica,sans-Serif" font-size="10.00">/pinhao/lib/MachineLearning</text>
<text text-anchor="middle" x="1175.5" y="-96.5" font-family="Helvetica,sans-Serif" font-size="10.00">/GrammarEvolution/Formula.cpp</text>
</a>
</g>
</g>
<!-- Node8&#45;&gt;Node10 -->
<g id="edge8" class="edge"><title>Node8&#45;&gt;Node10</title>
<path fill="none" stroke="midnightblue" d="M1214.99,-261.337C1204.24,-252.872 1194.25,-242.738 1187.5,-231 1171.76,-203.62 1170.88,-166.422 1172.51,-141.954"/>
<polygon fill="midnightblue" stroke="midnightblue" points="1213.2,-264.365 1223.33,-267.482 1217.36,-258.731 1213.2,-264.365"/>
</g>
<!-- Node11 -->
<g id="node8" class="node"><title>Node11</title>
<g id="a_node8"><a xlink:href="FormulaYAMLWrapper_8cpp.html" target="_top" xlink:title="/home/yukiosir/workspace\l/CompilerProject/Software\l/pinhao/lib/Support/YAMLWrapper\l/FormulaYAMLWrapper.cpp">
<polygon fill="white" stroke="black" points="1285.5,-89.5 1285.5,-141.5 1449.5,-141.5 1449.5,-89.5 1285.5,-89.5"/>
<text text-anchor="start" x="1293.5" y="-129.5" font-family="Helvetica,sans-Serif" font-size="10.00">/home/yukiosir/workspace</text>
<text text-anchor="start" x="1293.5" y="-118.5" font-family="Helvetica,sans-Serif" font-size="10.00">/CompilerProject/Software</text>
<text text-anchor="start" x="1293.5" y="-107.5" font-family="Helvetica,sans-Serif" font-size="10.00">/pinhao/lib/Support/YAMLWrapper</text>
<text text-anchor="middle" x="1367.5" y="-96.5" font-family="Helvetica,sans-Serif" font-size="10.00">/FormulaYAMLWrapper.cpp</text>
</a>
</g>
</g>
<!-- Node8&#45;&gt;Node11 -->
<g id="edge9" class="edge"><title>Node8&#45;&gt;Node11</title>
<path fill="none" stroke="midnightblue" d="M1328.01,-261.337C1338.76,-252.872 1348.75,-242.738 1355.5,-231 1371.24,-203.62 1372.12,-166.422 1370.49,-141.954"/>
<polygon fill="midnightblue" stroke="midnightblue" points="1325.64,-258.731 1319.67,-267.482 1329.8,-264.365 1325.64,-258.731"/>
</g>
<!-- Node9&#45;&gt;Node10 -->
<g id="edge6" class="edge"><title>Node9&#45;&gt;Node10</title>
<path fill="none" stroke="midnightblue" d="M1236.04,-171.363C1225.2,-161.542 1213.45,-150.89 1203.2,-141.607"/>
<polygon fill="midnightblue" stroke="midnightblue" points="1233.97,-174.214 1243.73,-178.336 1238.67,-169.027 1233.97,-174.214"/>
</g>
<!-- Node9&#45;&gt;Node11 -->
<g id="edge7" class="edge"><title>Node9&#45;&gt;Node11</title>
<path fill="none" stroke="midnightblue" d="M1306.96,-171.363C1317.8,-161.542 1329.55,-150.89 1339.8,-141.607"/>
<polygon fill="midnightblue" stroke="midnightblue" points="1304.33,-169.027 1299.27,-178.336 1309.03,-174.214 1304.33,-169.027"/>
</g>
<!-- Node14 -->
<g id="node11" class="node"><title>Node14</title>
<g id="a_node11"><a xlink:href="FeatureYAMLWrapper_8h.html" target="_top" xlink:title="/home/yukiosir/workspace\l/CompilerProject/Software\l/pinhao/include/pinhao/Support\l/FeatureYAMLWrapper.h">
<polygon fill="white" stroke="black" points="742.5,-178.5 742.5,-230.5 892.5,-230.5 892.5,-178.5 742.5,-178.5"/>
<text text-anchor="start" x="750.5" y="-218.5" font-family="Helvetica,sans-Serif" font-size="10.00">/home/yukiosir/workspace</text>
<text text-anchor="start" x="750.5" y="-207.5" font-family="Helvetica,sans-Serif" font-size="10.00">/CompilerProject/Software</text>
<text text-anchor="start" x="750.5" y="-196.5" font-family="Helvetica,sans-Serif" font-size="10.00">/pinhao/include/pinhao/Support</text>
<text text-anchor="middle" x="817.5" y="-185.5" font-family="Helvetica,sans-Serif" font-size="10.00">/FeatureYAMLWrapper.h</text>
</a>
</g>
</g>
<!-- Node13&#45;&gt;Node14 -->
<g id="edge12" class="edge"><title>Node13&#45;&gt;Node14</title>
<path fill="none" stroke="midnightblue" d="M478.241,-278.499C545.919,-267.584 641.557,-250.953 724.5,-231 730.279,-229.61 736.247,-228.051 742.243,-226.408"/>
<polygon fill="midnightblue" stroke="midnightblue" points="477.365,-275.095 468.045,-280.135 478.473,-282.007 477.365,-275.095"/>
</g>
<!-- Node23 -->
<g id="node20" class="node"><title>Node23</title>
<g id="a_node20"><a xlink:href="FunctionsGeneFeature_8cpp.html" target="_top" xlink:title="/home/yukiosir/workspace\l/CompilerProject/Software\l/pinhao/lib/FeaturesImpl\l/FunctionsGeneFeature.cpp">
<polygon fill="white" stroke="black" points="158,-178.5 158,-230.5 295,-230.5 295,-178.5 158,-178.5"/>
<text text-anchor="start" x="166" y="-218.5" font-family="Helvetica,sans-Serif" font-size="10.00">/home/yukiosir/workspace</text>
<text text-anchor="start" x="166" y="-207.5" font-family="Helvetica,sans-Serif" font-size="10.00">/CompilerProject/Software</text>
<text text-anchor="start" x="166" y="-196.5" font-family="Helvetica,sans-Serif" font-size="10.00">/pinhao/lib/FeaturesImpl</text>
<text text-anchor="middle" x="226.5" y="-185.5" font-family="Helvetica,sans-Serif" font-size="10.00">/FunctionsGeneFeature.cpp</text>
</a>
</g>
</g>
<!-- Node13&#45;&gt;Node23 -->
<g id="edge25" class="edge"><title>Node13&#45;&gt;Node23</title>
<path fill="none" stroke="midnightblue" d="M334.204,-262.635C314.542,-252.205 292.686,-240.611 273.829,-230.607"/>
<polygon fill="midnightblue" stroke="midnightblue" points="332.59,-265.742 343.064,-267.336 335.871,-259.558 332.59,-265.742"/>
</g>
<!-- Node24 -->
<g id="node21" class="node"><title>Node24</title>
<g id="a_node21"><a xlink:href="FunctionStaticCostFeature_8cpp.html" target="_top" xlink:title="/home/yukiosir/workspace\l/CompilerProject/Software\l/pinhao/lib/FeaturesImpl\l/FunctionStaticCostFeature.cpp">
<polygon fill="white" stroke="black" points="313,-178.5 313,-230.5 468,-230.5 468,-178.5 313,-178.5"/>
<text text-anchor="start" x="321" y="-218.5" font-family="Helvetica,sans-Serif" font-size="10.00">/home/yukiosir/workspace</text>
<text text-anchor="start" x="321" y="-207.5" font-family="Helvetica,sans-Serif" font-size="10.00">/CompilerProject/Software</text>
<text text-anchor="start" x="321" y="-196.5" font-family="Helvetica,sans-Serif" font-size="10.00">/pinhao/lib/FeaturesImpl</text>
<text text-anchor="middle" x="390.5" y="-185.5" font-family="Helvetica,sans-Serif" font-size="10.00">/FunctionStaticCostFeature.cpp</text>
</a>
</g>
</g>
<!-- Node13&#45;&gt;Node24 -->
<g id="edge26" class="edge"><title>Node13&#45;&gt;Node24</title>
<path fill="none" stroke="midnightblue" d="M390.5,-257.191C390.5,-248.282 390.5,-238.899 390.5,-230.607"/>
<polygon fill="midnightblue" stroke="midnightblue" points="387,-257.336 390.5,-267.336 394,-257.336 387,-257.336"/>
</g>
<!-- Node25 -->
<g id="node22" class="node"><title>Node25</title>
<g id="a_node22"><a xlink:href="GEOSBasicBlockFreqFeature_8cpp.html" target="_top" xlink:title="/home/yukiosir/workspace\l/CompilerProject/Software\l/pinhao/lib/FeaturesImpl\l/GEOSFeatures/GEOSBasicBlockFreqFeature.cpp">
<polygon fill="white" stroke="black" points="486,-178.5 486,-230.5 725,-230.5 725,-178.5 486,-178.5"/>
<text text-anchor="start" x="494" y="-218.5" font-family="Helvetica,sans-Serif" font-size="10.00">/home/yukiosir/workspace</text>
<text text-anchor="start" x="494" y="-207.5" font-family="Helvetica,sans-Serif" font-size="10.00">/CompilerProject/Software</text>
<text text-anchor="start" x="494" y="-196.5" font-family="Helvetica,sans-Serif" font-size="10.00">/pinhao/lib/FeaturesImpl</text>
<text text-anchor="middle" x="605.5" y="-185.5" font-family="Helvetica,sans-Serif" font-size="10.00">/GEOSFeatures/GEOSBasicBlockFreqFeature.cpp</text>
</a>
</g>
</g>
<!-- Node13&#45;&gt;Node25 -->
<g id="edge27" class="edge"><title>Node13&#45;&gt;Node25</title>
<path fill="none" stroke="midnightblue" d="M461.978,-263.576C488.421,-252.876 518.151,-240.846 543.666,-230.521"/>
<polygon fill="midnightblue" stroke="midnightblue" points="460.355,-260.457 452.398,-267.453 462.981,-266.946 460.355,-260.457"/>
</g>
<!-- Node14&#45;&gt;Node13 -->
<g id="edge13" class="edge"><title>Node14&#45;&gt;Node13</title>
<path fill="none" stroke="midnightblue" d="M734.493,-232.895C641.844,-254.665 537.545,-272.022 468.156,-282.292"/>
<polygon fill="midnightblue" stroke="midnightblue" points="735.365,-236.285 744.284,-230.567 733.745,-229.475 735.365,-236.285"/>
</g>
<!-- Node14&#45;&gt;Node15 -->
<g id="edge14" class="edge"><title>Node14&#45;&gt;Node15</title>
<path fill="none" stroke="midnightblue" d="M732.494,-179.826C729.802,-179.18 727.133,-178.569 724.5,-178 591.931,-149.37 435.173,-132.054 343.339,-123.39"/>
<polygon fill="midnightblue" stroke="midnightblue" points="731.758,-183.25 742.31,-182.3 733.468,-176.462 731.758,-183.25"/>
</g>
<!-- Node14&#45;&gt;Node19 -->
<g id="edge19" class="edge"><title>Node14&#45;&gt;Node19</title>
<path fill="none" stroke="midnightblue" d="M803.218,-168.481C801.006,-159.487 799.082,-149.989 797.801,-141.607"/>
<polygon fill="midnightblue" stroke="midnightblue" points="799.882,-169.56 805.818,-178.336 806.651,-167.774 799.882,-169.56"/>
</g>
<!-- Node14&#45;&gt;Node22 -->
<g id="edge24" class="edge"><title>Node14&#45;&gt;Node22</title>
<path fill="none" stroke="midnightblue" d="M872.338,-173.494C891.334,-163.101 912.414,-151.566 930.614,-141.607"/>
<polygon fill="midnightblue" stroke="midnightblue" points="870.582,-170.465 863.489,-178.336 873.942,-176.606 870.582,-170.465"/>
</g>
<!-- Node15&#45;&gt;Node14 -->
<g id="edge15" class="edge"><title>Node15&#45;&gt;Node14</title>
<path fill="none" stroke="midnightblue" d="M353.293,-123.106C449.706,-131.673 608.467,-149.054 742.5,-178 743.245,-178.161 743.993,-178.325 744.743,-178.493"/>
<polygon fill="midnightblue" stroke="midnightblue" points="353.563,-119.616 343.295,-122.229 352.951,-126.589 353.563,-119.616"/>
</g>
<!-- Node16 -->
<g id="node13" class="node"><title>Node16</title>
<g id="a_node13"><a xlink:href="CFGBasicBlockStaticFeatures_8cpp.html" target="_top" xlink:title="This file implements the CFGBasicBlockStaticFeatures class. ">
<polygon fill="white" stroke="black" points="179,-0.5 179,-52.5 352,-52.5 352,-0.5 179,-0.5"/>
<text text-anchor="start" x="187" y="-40.5" font-family="Helvetica,sans-Serif" font-size="10.00">/home/yukiosir/workspace</text>
<text text-anchor="start" x="187" y="-29.5" font-family="Helvetica,sans-Serif" font-size="10.00">/CompilerProject/Software</text>
<text text-anchor="start" x="187" y="-18.5" font-family="Helvetica,sans-Serif" font-size="10.00">/pinhao/lib/FeaturesImpl</text>
<text text-anchor="middle" x="265.5" y="-7.5" font-family="Helvetica,sans-Serif" font-size="10.00">/CFGBasicBlockStaticFeatures.cpp</text>
</a>
</g>
</g>
<!-- Node15&#45;&gt;Node16 -->
<g id="edge16" class="edge"><title>Node15&#45;&gt;Node16</title>
<path fill="none" stroke="midnightblue" d="M265.5,-79.1908C265.5,-70.2824 265.5,-60.8986 265.5,-52.6075"/>
<polygon fill="midnightblue" stroke="midnightblue" points="262,-79.336 265.5,-89.336 269,-79.336 262,-79.336"/>
</g>
<!-- Node17 -->
<g id="node14" class="node"><title>Node17</title>
<g id="a_node14"><a xlink:href="CFGFunctionStaticFeatures_8cpp.html" target="_top" xlink:title="This file implements the CFGFunctionStaticFeatures class. ">
<polygon fill="white" stroke="black" points="0,-0.5 0,-52.5 161,-52.5 161,-0.5 0,-0.5"/>
<text text-anchor="start" x="8" y="-40.5" font-family="Helvetica,sans-Serif" font-size="10.00">/home/yukiosir/workspace</text>
<text text-anchor="start" x="8" y="-29.5" font-family="Helvetica,sans-Serif" font-size="10.00">/CompilerProject/Software</text>
<text text-anchor="start" x="8" y="-18.5" font-family="Helvetica,sans-Serif" font-size="10.00">/pinhao/lib/FeaturesImpl</text>
<text text-anchor="middle" x="80.5" y="-7.5" font-family="Helvetica,sans-Serif" font-size="10.00">/CFGFunctionStaticFeatures.cpp</text>
</a>
</g>
</g>
<!-- Node15&#45;&gt;Node17 -->
<g id="edge17" class="edge"><title>Node15&#45;&gt;Node17</title>
<path fill="none" stroke="midnightblue" d="M202.893,-85.0576C180.482,-74.5186 155.449,-62.7461 133.889,-52.6075"/>
<polygon fill="midnightblue" stroke="midnightblue" points="201.452,-88.2476 211.99,-89.336 204.431,-81.9131 201.452,-88.2476"/>
</g>
<!-- Node15&#45;&gt;Node18 -->
<g id="edge18" class="edge"><title>Node15&#45;&gt;Node18</title>
<path fill="none" stroke="midnightblue" d="M327.386,-84.917C349.358,-74.414 373.861,-62.701 394.976,-52.6075"/>
<polygon fill="midnightblue" stroke="midnightblue" points="325.655,-81.8654 318.142,-89.336 328.674,-88.1809 325.655,-81.8654"/>
</g>
<!-- Node19&#45;&gt;Node14 -->
<g id="edge20" class="edge"><title>Node19&#45;&gt;Node14</title>
<path fill="none" stroke="midnightblue" d="M812.768,-151.458C814.981,-160.451 816.906,-169.95 818.19,-178.336"/>
<polygon fill="midnightblue" stroke="midnightblue" points="816.103,-150.382 810.166,-141.607 809.335,-152.17 816.103,-150.382"/>
</g>
<!-- Node19&#45;&gt;Node18 -->
<g id="edge21" class="edge"><title>Node19&#45;&gt;Node18</title>
<path fill="none" stroke="midnightblue" d="M710.877,-92.7816C653.842,-78.6446 580.117,-60.3708 525.181,-46.7541"/>
<polygon fill="midnightblue" stroke="midnightblue" points="710.053,-96.1832 720.602,-95.1919 711.738,-89.3888 710.053,-96.1832"/>
</g>
<!-- Node20 -->
<g id="node17" class="node"><title>Node20</title>
<g id="a_node17"><a xlink:href="GEOSFeatures_8cpp.html" target="_top" xlink:title="/home/yukiosir/workspace\l/CompilerProject/Software\l/pinhao/lib/FeaturesImpl\l/GEOSFeatures/GEOSFeatures.cpp">
<polygon fill="white" stroke="black" points="797,-0.5 797,-52.5 972,-52.5 972,-0.5 797,-0.5"/>
<text text-anchor="start" x="805" y="-40.5" font-family="Helvetica,sans-Serif" font-size="10.00">/home/yukiosir/workspace</text>
<text text-anchor="start" x="805" y="-29.5" font-family="Helvetica,sans-Serif" font-size="10.00">/CompilerProject/Software</text>
<text text-anchor="start" x="805" y="-18.5" font-family="Helvetica,sans-Serif" font-size="10.00">/pinhao/lib/FeaturesImpl</text>
<text text-anchor="middle" x="884.5" y="-7.5" font-family="Helvetica,sans-Serif" font-size="10.00">/GEOSFeatures/GEOSFeatures.cpp</text>
</a>
</g>
</g>
<!-- Node19&#45;&gt;Node20 -->
<g id="edge22" class="edge"><title>Node19&#45;&gt;Node20</title>
<path fill="none" stroke="midnightblue" d="M830.551,-82.0768C840.18,-72.3353 850.594,-61.7998 859.681,-52.6075"/>
<polygon fill="midnightblue" stroke="midnightblue" points="827.916,-79.7636 823.375,-89.336 832.894,-84.6847 827.916,-79.7636"/>
</g>
<!-- Node21 -->
<g id="node18" class="node"><title>Node21</title>
<g id="a_node18"><a xlink:href="PAPIMultFeatures_8cpp.html" target="_top" xlink:title="This file implements the features extracted by the PAPI tool by multiplexing. ">
<polygon fill="white" stroke="black" points="648,-0.5 648,-52.5 779,-52.5 779,-0.5 648,-0.5"/>
<text text-anchor="start" x="656" y="-40.5" font-family="Helvetica,sans-Serif" font-size="10.00">/home/yukiosir/workspace</text>
<text text-anchor="start" x="656" y="-29.5" font-family="Helvetica,sans-Serif" font-size="10.00">/CompilerProject/Software</text>
<text text-anchor="start" x="656" y="-18.5" font-family="Helvetica,sans-Serif" font-size="10.00">/pinhao/lib/FeaturesImpl</text>
<text text-anchor="middle" x="713.5" y="-7.5" font-family="Helvetica,sans-Serif" font-size="10.00">/PAPIMultFeatures.cpp</text>
</a>
</g>
</g>
<!-- Node19&#45;&gt;Node21 -->
<g id="edge23" class="edge"><title>Node19&#45;&gt;Node21</title>
<path fill="none" stroke="midnightblue" d="M766.822,-82.0768C757.305,-72.3353 747.011,-61.7998 738.03,-52.6075"/>
<polygon fill="midnightblue" stroke="midnightblue" points="764.423,-84.6291 773.914,-89.336 769.43,-79.7372 764.423,-84.6291"/>
</g>
<!-- Node26&#45;&gt;Node13 -->
<g id="edge31" class="edge"><title>Node26&#45;&gt;Node13</title>
<path fill="none" stroke="midnightblue" d="M290.517,-351.353C308.731,-340.996 328.912,-329.521 346.346,-319.607"/>
<polygon fill="midnightblue" stroke="midnightblue" points="288.717,-348.35 281.754,-356.336 292.177,-354.435 288.717,-348.35"/>
</g>
<!-- Node26&#45;&gt;Node15 -->
<g id="edge32" class="edge"><title>Node26&#45;&gt;Node15</title>
<path fill="none" stroke="midnightblue" d="M204.457,-349.023C166.624,-307.748 114.056,-235.017 148.5,-178 157.933,-162.385 172.791,-150.537 188.794,-141.623"/>
<polygon fill="midnightblue" stroke="midnightblue" points="201.934,-351.449 211.325,-356.353 207.042,-346.663 201.934,-351.449"/>
</g>
</g>
</svg>
