<?xml version="1.0" encoding="UTF-8" standalone="no"?>
<!DOCTYPE svg PUBLIC "-//W3C//DTD SVG 1.1//EN"
 "http://www.w3.org/Graphics/SVG/1.1/DTD/svg11.dtd">
<!-- Generated by graphviz version 2.38.0 (20140413.2041)
 -->
<!-- Title: /home/yukiosir/workspace/CompilerProject/Software/pinhao/lib/Features/FeatureRegistry.cpp Pages: 1 -->
<svg width="705pt" height="274pt"
 viewBox="0.00 0.00 704.50 274.00" xmlns="http://www.w3.org/2000/svg" xmlns:xlink="http://www.w3.org/1999/xlink">
<g id="graph0" class="graph" transform="scale(1 1) rotate(0) translate(4 270)">
<title>/home/yukiosir/workspace/CompilerProject/Software/pinhao/lib/Features/FeatureRegistry.cpp</title>
<polygon fill="white" stroke="none" points="-4,4 -4,-270 700.5,-270 700.5,4 -4,4"/>
<!-- Node0 -->
<g id="node1" class="node"><title>Node0</title>
<polygon fill="#bfbfbf" stroke="black" points="125.5,-224.5 125.5,-265.5 319.5,-265.5 319.5,-224.5 125.5,-224.5"/>
<text text-anchor="start" x="133.5" y="-253.5" font-family="Helvetica,sans-Serif" font-size="10.00">/home/yukiosir/workspace</text>
<text text-anchor="start" x="133.5" y="-242.5" font-family="Helvetica,sans-Serif" font-size="10.00">/CompilerProject/Software</text>
<text text-anchor="middle" x="222.5" y="-231.5" font-family="Helvetica,sans-Serif" font-size="10.00">/pinhao/lib/Features/FeatureRegistry.cpp</text>
</g>
<!-- Node1 -->
<g id="node2" class="node"><title>Node1</title>
<g id="a_node2"><a xlink:href="FeatureRegistry_8h.html" target="_top" xlink:title="This file defines a class that has all the registered features. ">
<polygon fill="white" stroke="black" points="0,-112.5 0,-131.5 167,-131.5 167,-112.5 0,-112.5"/>
<text text-anchor="middle" x="83.5" y="-119.5" font-family="Helvetica,sans-Serif" font-size="10.00">pinhao/Features/FeatureRegistry.h</text>
</a>
</g>
</g>
<!-- Node0&#45;&gt;Node1 -->
<g id="edge1" class="edge"><title>Node0&#45;&gt;Node1</title>
<path fill="none" stroke="midnightblue" d="M199.858,-224.29C172.212,-200.224 126.05,-160.04 100.985,-138.22"/>
<polygon fill="midnightblue" stroke="midnightblue" points="103.191,-135.501 93.3504,-131.575 98.5949,-140.781 103.191,-135.501"/>
</g>
<!-- Node5 -->
<g id="node6" class="node"><title>Node5</title>
<g id="a_node6"><a xlink:href="Feature_8h.html" target="_top" xlink:title="This file defines the base feature class. ">
<polygon fill="white" stroke="black" points="218,-168.5 218,-187.5 349,-187.5 349,-168.5 218,-168.5"/>
<text text-anchor="middle" x="283.5" y="-175.5" font-family="Helvetica,sans-Serif" font-size="10.00">pinhao/Features/Feature.h</text>
</a>
</g>
</g>
<!-- Node0&#45;&gt;Node5 -->
<g id="edge5" class="edge"><title>Node0&#45;&gt;Node5</title>
<path fill="none" stroke="midnightblue" d="M240.802,-224.498C249.615,-215.107 260.055,-203.983 268.405,-195.085"/>
<polygon fill="midnightblue" stroke="midnightblue" points="271.089,-197.34 275.38,-187.652 265.985,-192.549 271.089,-197.34"/>
</g>
<!-- Node2 -->
<g id="node3" class="node"><title>Node2</title>
<polygon fill="white" stroke="#bfbfbf" points="57.5,-56.5 57.5,-75.5 109.5,-75.5 109.5,-56.5 57.5,-56.5"/>
<text text-anchor="middle" x="83.5" y="-63.5" font-family="Helvetica,sans-Serif" font-size="10.00">memory</text>
</g>
<!-- Node1&#45;&gt;Node2 -->
<g id="edge2" class="edge"><title>Node1&#45;&gt;Node2</title>
<path fill="none" stroke="midnightblue" d="M83.5,-112.083C83.5,-105.006 83.5,-94.8611 83.5,-85.9865"/>
<polygon fill="midnightblue" stroke="midnightblue" points="87.0001,-85.751 83.5,-75.7511 80.0001,-85.7511 87.0001,-85.751"/>
</g>
<!-- Node3 -->
<g id="node4" class="node"><title>Node3</title>
<polygon fill="white" stroke="#bfbfbf" points="148,-56.5 148,-75.5 197,-75.5 197,-56.5 148,-56.5"/>
<text text-anchor="middle" x="172.5" y="-63.5" font-family="Helvetica,sans-Serif" font-size="10.00">cassert</text>
</g>
<!-- Node1&#45;&gt;Node3 -->
<g id="edge3" class="edge"><title>Node1&#45;&gt;Node3</title>
<path fill="none" stroke="midnightblue" d="M97.7994,-112.324C111.683,-103.9 132.992,-90.9709 149.304,-81.0741"/>
<polygon fill="midnightblue" stroke="midnightblue" points="151.502,-83.8341 158.236,-75.6545 147.871,-77.8495 151.502,-83.8341"/>
</g>
<!-- Node4 -->
<g id="node5" class="node"><title>Node4</title>
<polygon fill="white" stroke="#bfbfbf" points="215,-56.5 215,-75.5 250,-75.5 250,-56.5 215,-56.5"/>
<text text-anchor="middle" x="232.5" y="-63.5" font-family="Helvetica,sans-Serif" font-size="10.00">map</text>
</g>
<!-- Node1&#45;&gt;Node4 -->
<g id="edge4" class="edge"><title>Node1&#45;&gt;Node4</title>
<path fill="none" stroke="midnightblue" d="M107.109,-112.444C133.712,-102.802 176.897,-87.1514 205,-76.9664"/>
<polygon fill="midnightblue" stroke="midnightblue" points="206.404,-80.1806 214.613,-73.4826 204.019,-73.5994 206.404,-80.1806"/>
</g>
<!-- Node5&#45;&gt;Node1 -->
<g id="edge13" class="edge"><title>Node5&#45;&gt;Node1</title>
<path fill="none" stroke="midnightblue" d="M251.809,-168.444C217.432,-159.162 162.423,-144.309 124.711,-134.127"/>
<polygon fill="midnightblue" stroke="midnightblue" points="125.609,-130.744 115.042,-131.516 123.784,-137.502 125.609,-130.744"/>
</g>
<!-- Node5&#45;&gt;Node3 -->
<g id="edge17" class="edge"><title>Node5&#45;&gt;Node3</title>
<path fill="none" stroke="midnightblue" d="M274.79,-168.368C256.148,-149.894 212.15,-106.293 188.387,-82.7436"/>
<polygon fill="midnightblue" stroke="midnightblue" points="190.736,-80.1444 181.17,-75.5914 185.809,-85.1165 190.736,-80.1444"/>
</g>
<!-- Node5&#45;&gt;Node4 -->
<g id="edge16" class="edge"><title>Node5&#45;&gt;Node4</title>
<path fill="none" stroke="midnightblue" d="M275.926,-168.258C268.747,-159.577 258.105,-145.63 251.5,-132 244.29,-117.122 239.268,-98.9757 236.206,-85.6413"/>
<polygon fill="midnightblue" stroke="midnightblue" points="239.604,-84.7959 234.089,-75.7495 232.759,-86.2605 239.604,-84.7959"/>
</g>
<!-- Node6 -->
<g id="node7" class="node"><title>Node6</title>
<g id="a_node7"><a xlink:href="FeatureInfo_8h.html" target="_top" xlink:title="This file defines a class that holds some informations about a feature. ">
<polygon fill="white" stroke="black" points="261,-112.5 261,-131.5 408,-131.5 408,-112.5 261,-112.5"/>
<text text-anchor="middle" x="334.5" y="-119.5" font-family="Helvetica,sans-Serif" font-size="10.00">pinhao/Features/FeatureInfo.h</text>
</a>
</g>
</g>
<!-- Node5&#45;&gt;Node6 -->
<g id="edge6" class="edge"><title>Node5&#45;&gt;Node6</title>
<path fill="none" stroke="midnightblue" d="M291.922,-168.083C299.348,-160.22 310.352,-148.569 319.312,-139.081"/>
<polygon fill="midnightblue" stroke="midnightblue" points="321.913,-141.424 326.235,-131.751 316.824,-136.618 321.913,-141.424"/>
</g>
<!-- Node10 -->
<g id="node11" class="node"><title>Node10</title>
<polygon fill="white" stroke="#bfbfbf" points="426,-112.5 426,-131.5 517,-131.5 517,-112.5 426,-112.5"/>
<text text-anchor="middle" x="471.5" y="-119.5" font-family="Helvetica,sans-Serif" font-size="10.00">llvm/IR/Module.h</text>
</g>
<!-- Node5&#45;&gt;Node10 -->
<g id="edge14" class="edge"><title>Node5&#45;&gt;Node10</title>
<path fill="none" stroke="midnightblue" d="M313.289,-168.444C345.329,-159.241 396.433,-144.562 431.853,-134.388"/>
<polygon fill="midnightblue" stroke="midnightblue" points="433.205,-137.641 441.85,-131.516 431.273,-130.913 433.205,-137.641"/>
</g>
<!-- Node11 -->
<g id="node12" class="node"><title>Node11</title>
<polygon fill="white" stroke="#bfbfbf" points="535,-112.5 535,-131.5 624,-131.5 624,-112.5 535,-112.5"/>
<text text-anchor="middle" x="579.5" y="-119.5" font-family="Helvetica,sans-Serif" font-size="10.00">yaml&#45;cpp/yaml.h</text>
</g>
<!-- Node5&#45;&gt;Node11 -->
<g id="edge15" class="edge"><title>Node5&#45;&gt;Node11</title>
<path fill="none" stroke="midnightblue" d="M330.402,-168.444C383.194,-158.813 468.859,-143.185 524.692,-132.999"/>
<polygon fill="midnightblue" stroke="midnightblue" points="525.545,-136.401 534.755,-131.163 524.289,-129.515 525.545,-136.401"/>
</g>
<!-- Node12 -->
<g id="node13" class="node"><title>Node12</title>
<polygon fill="white" stroke="#bfbfbf" points="642.5,-112.5 642.5,-131.5 696.5,-131.5 696.5,-112.5 642.5,-112.5"/>
<text text-anchor="middle" x="669.5" y="-119.5" font-family="Helvetica,sans-Serif" font-size="10.00">iostream</text>
</g>
<!-- Node5&#45;&gt;Node12 -->
<g id="edge18" class="edge"><title>Node5&#45;&gt;Node12</title>
<path fill="none" stroke="midnightblue" d="M349.011,-170.892C417.396,-163.995 527.896,-151.385 632.359,-132.019"/>
<polygon fill="midnightblue" stroke="midnightblue" points="633.266,-135.41 642.448,-130.124 631.974,-128.53 633.266,-135.41"/>
</g>
<!-- Node6&#45;&gt;Node3 -->
<g id="edge12" class="edge"><title>Node6&#45;&gt;Node3</title>
<path fill="none" stroke="midnightblue" d="M308.831,-112.444C281.337,-103.279 237.552,-88.6839 207.046,-78.5153"/>
<polygon fill="midnightblue" stroke="midnightblue" points="207.846,-75.0927 197.252,-75.2508 205.632,-81.7335 207.846,-75.0927"/>
</g>
<!-- Node6&#45;&gt;Node4 -->
<g id="edge9" class="edge"><title>Node6&#45;&gt;Node4</title>
<path fill="none" stroke="midnightblue" d="M318.112,-112.324C301.829,-103.703 276.633,-90.3643 257.784,-80.3855"/>
<polygon fill="midnightblue" stroke="midnightblue" points="259.323,-77.2402 248.847,-75.6545 256.048,-83.4267 259.323,-77.2402"/>
</g>
<!-- Node7 -->
<g id="node8" class="node"><title>Node7</title>
<g id="a_node8"><a xlink:href="Types_8h.html" target="_top" xlink:title="pinhao/Support/Types.h">
<polygon fill="white" stroke="black" points="306.5,-56.5 306.5,-75.5 426.5,-75.5 426.5,-56.5 306.5,-56.5"/>
<text text-anchor="middle" x="366.5" y="-63.5" font-family="Helvetica,sans-Serif" font-size="10.00">pinhao/Support/Types.h</text>
</a>
</g>
</g>
<!-- Node6&#45;&gt;Node7 -->
<g id="edge7" class="edge"><title>Node6&#45;&gt;Node7</title>
<path fill="none" stroke="midnightblue" d="M339.784,-112.083C344.211,-104.613 350.663,-93.7244 356.118,-84.5199"/>
<polygon fill="midnightblue" stroke="midnightblue" points="359.227,-86.1383 361.314,-75.7511 353.205,-82.5697 359.227,-86.1383"/>
</g>
<!-- Node8 -->
<g id="node9" class="node"><title>Node8</title>
<polygon fill="white" stroke="#bfbfbf" points="302,-0.5 302,-19.5 343,-19.5 343,-0.5 302,-0.5"/>
<text text-anchor="middle" x="322.5" y="-7.5" font-family="Helvetica,sans-Serif" font-size="10.00">string</text>
</g>
<!-- Node6&#45;&gt;Node8 -->
<g id="edge11" class="edge"><title>Node6&#45;&gt;Node8</title>
<path fill="none" stroke="midnightblue" d="M324.062,-112.245C315.076,-103.969 302.754,-90.663 297.5,-76 291.658,-59.6971 300.18,-41.2892 308.821,-28.2354"/>
<polygon fill="midnightblue" stroke="midnightblue" points="311.908,-29.9381 314.93,-19.7832 306.235,-25.8375 311.908,-29.9381"/>
</g>
<!-- Node9 -->
<g id="node10" class="node"><title>Node9</title>
<polygon fill="white" stroke="#bfbfbf" points="444.5,-56.5 444.5,-75.5 488.5,-75.5 488.5,-56.5 444.5,-56.5"/>
<text text-anchor="middle" x="466.5" y="-63.5" font-family="Helvetica,sans-Serif" font-size="10.00">vector</text>
</g>
<!-- Node6&#45;&gt;Node9 -->
<g id="edge10" class="edge"><title>Node6&#45;&gt;Node9</title>
<path fill="none" stroke="midnightblue" d="M355.416,-112.444C377.236,-103.517 411.65,-89.4387 436.392,-79.3168"/>
<polygon fill="midnightblue" stroke="midnightblue" points="437.752,-82.5422 445.682,-75.5164 435.101,-76.0634 437.752,-82.5422"/>
</g>
<!-- Node7&#45;&gt;Node8 -->
<g id="edge8" class="edge"><title>Node7&#45;&gt;Node8</title>
<path fill="none" stroke="midnightblue" d="M359.234,-56.083C352.955,-48.3768 343.712,-37.0333 336.069,-27.6531"/>
<polygon fill="midnightblue" stroke="midnightblue" points="338.661,-25.2926 329.631,-19.7511 333.234,-29.7143 338.661,-25.2926"/>
</g>
</g>
</svg>
