<?xml version="1.0" encoding="UTF-8" standalone="no"?>
<!DOCTYPE svg PUBLIC "-//W3C//DTD SVG 1.1//EN"
 "http://www.w3.org/Graphics/SVG/1.1/DTD/svg11.dtd">
<!-- Generated by graphviz version 2.38.0 (20140413.2041)
 -->
<!-- Title: /home/yukiosir/workspace/CompilerProject/Software/pinhao/include/pinhao/MachineLearning/GrammarEvolution/FeatureFormula.h Pages: 1 -->
<!--zoomable 475 -->
<svg id="main" version="1.1" xmlns="http://www.w3.org/2000/svg" xmlns:xlink="http://www.w3.org/1999/xlink" xml:space="preserve" onload="init(evt)">
<style type="text/css"><![CDATA[
.edge:hover path { stroke: red; }
.edge:hover polygon { stroke: red; fill: red; }
]]></style>
<script type="text/javascript"><![CDATA[
var edges = document.getElementsByTagName('g');
if (edges && edges.length) {
  for (var i=0;i<edges.length;i++) {
    if (edges[i].id.substr(0,4)=='edge') {
      edges[i].setAttribute('class','edge');
    }
  }
}
]]></script>
        <defs>
                <circle id="rim" cx="0" cy="0" r="7"/>
                <circle id="rim2" cx="0" cy="0" r="3.5"/>
                <g id="zoomPlus">
                        <use xlink:href="#rim" fill="#404040">
                                <set attributeName="fill" to="#808080" begin="zoomplus.mouseover" end="zoomplus.mouseout"/>
                        </use>
                        <path d="M-4,0h8M0,-4v8" fill="none" stroke="white" stroke-width="1.5" pointer-events="none"/>
                </g>
                <g id="zoomMin">
                        <use xlink:href="#rim" fill="#404040">
                                <set attributeName="fill" to="#808080" begin="zoomminus.mouseover" end="zoomminus.mouseout"/>
                        </use>
                        <path d="M-4,0h8" fill="none" stroke="white" stroke-width="1.5" pointer-events="none"/>
                </g>
                <g id="dirArrow">
                        <path fill="none" stroke="white" stroke-width="1.5" d="M0,-3.0v7 M-2.5,-0.5L0,-3.0L2.5,-0.5"/>
                </g>
               <g id="resetDef">
                       <use xlink:href="#rim2" fill="#404040">
                               <set attributeName="fill" to="#808080" begin="reset.mouseover" end="reset.mouseout"/>
                       </use>
               </g>
        </defs>

<script type="text/javascript">
var viewWidth = 1200;
var viewHeight = 475;
var sectionId = 'dynsection-0';
</script>
<script xlink:href="svgpan.js"/>
<svg id="graph" class="graph">
<g id="viewport">
<title>/home/yukiosir/workspace/CompilerProject/Software/pinhao/include/pinhao/MachineLearning/GrammarEvolution/FeatureFormula.h</title>
<polygon fill="white" stroke="none" points="-4,4 -4,-471 1195.5,-471 1195.5,4 -4,4"/>
<!-- Node0 -->
<g id="node1" class="node"><title>Node0</title>
<polygon fill="#bfbfbf" stroke="black" points="118,-414.5 118,-466.5 308,-466.5 308,-414.5 118,-414.5"/>
<text text-anchor="start" x="126" y="-454.5" font-family="Helvetica,sans-Serif" font-size="10.00">/home/yukiosir/workspace</text>
<text text-anchor="start" x="126" y="-443.5" font-family="Helvetica,sans-Serif" font-size="10.00">/CompilerProject/Software</text>
<text text-anchor="start" x="126" y="-432.5" font-family="Helvetica,sans-Serif" font-size="10.00">/pinhao/include/pinhao/MachineLearning</text>
<text text-anchor="middle" x="213" y="-421.5" font-family="Helvetica,sans-Serif" font-size="10.00">/GrammarEvolution/FeatureFormula.h</text>
</g>
<!-- Node1 -->
<g id="node2" class="node"><title>Node1</title>
<g id="a_node2"><a xlink:href="Formula_8h.html" target="_top" xlink:title="pinhao/MachineLearning\l/GrammarEvolution/Formula.h">
<polygon fill="white" stroke="black" points="139.5,-347.5 139.5,-377.5 286.5,-377.5 286.5,-347.5 139.5,-347.5"/>
<text text-anchor="start" x="147.5" y="-365.5" font-family="Helvetica,sans-Serif" font-size="10.00">pinhao/MachineLearning</text>
<text text-anchor="middle" x="213" y="-354.5" font-family="Helvetica,sans-Serif" font-size="10.00">/GrammarEvolution/Formula.h</text>
</a>
</g>
</g>
<!-- Node0&#45;&gt;Node1 -->
<g id="edge1" class="edge"><title>Node0&#45;&gt;Node1</title>
<path fill="none" stroke="midnightblue" d="M213,-414.193C213,-405.786 213,-396.443 213,-388.091"/>
<polygon fill="midnightblue" stroke="midnightblue" points="216.5,-387.845 213,-377.845 209.5,-387.845 216.5,-387.845"/>
</g>
<!-- Node2 -->
<g id="node3" class="node"><title>Node2</title>
<g id="a_node3"><a xlink:href="FeatureSet_8h.html" target="_top" xlink:title="This file defines a class which contains the features selected by the user (by some command line)...">
<polygon fill="white" stroke="black" points="382,-291.5 382,-310.5 528,-310.5 528,-291.5 382,-291.5"/>
<text text-anchor="middle" x="455" y="-298.5" font-family="Helvetica,sans-Serif" font-size="10.00">pinhao/Features/FeatureSet.h</text>
</a>
</g>
</g>
<!-- Node1&#45;&gt;Node2 -->
<g id="edge2" class="edge"><title>Node1&#45;&gt;Node2</title>
<path fill="none" stroke="midnightblue" d="M270.044,-347.475C312.979,-336.918 370.991,-322.655 410.522,-312.936"/>
<polygon fill="midnightblue" stroke="midnightblue" points="411.528,-316.293 420.403,-310.506 409.856,-309.495 411.528,-316.293"/>
</g>
<!-- Node6 -->
<g id="node7" class="node"><title>Node6</title>
<g id="a_node7"><a xlink:href="Types_8h.html" target="_top" xlink:title="pinhao/Support/Types.h">
<polygon fill="white" stroke="black" points="215,-56.5 215,-75.5 335,-75.5 335,-56.5 215,-56.5"/>
<text text-anchor="middle" x="275" y="-63.5" font-family="Helvetica,sans-Serif" font-size="10.00">pinhao/Support/Types.h</text>
</a>
</g>
</g>
<!-- Node1&#45;&gt;Node6 -->
<g id="edge27" class="edge"><title>Node1&#45;&gt;Node6</title>
<path fill="none" stroke="midnightblue" d="M229.111,-347.194C250.059,-326.927 284,-287.662 284,-246 284,-246 284,-246 284,-188 284,-151.795 279.943,-109.663 277.277,-85.8825"/>
<polygon fill="midnightblue" stroke="midnightblue" points="280.735,-85.318 276.104,-75.789 273.782,-86.1263 280.735,-85.318"/>
</g>
<!-- Node7 -->
<g id="node8" class="node"><title>Node7</title>
<polygon fill="white" stroke="#bfbfbf" points="179.5,-0.5 179.5,-19.5 220.5,-19.5 220.5,-0.5 179.5,-0.5"/>
<text text-anchor="middle" x="200" y="-7.5" font-family="Helvetica,sans-Serif" font-size="10.00">string</text>
</g>
<!-- Node1&#45;&gt;Node7 -->
<g id="edge32" class="edge"><title>Node1&#45;&gt;Node7</title>
<path fill="none" stroke="midnightblue" d="M139.399,-352.138C77.8325,-339.698 0,-311.097 0,-246 0,-246 0,-246 0,-126.5 0,-49.2792 113.19,-22.8771 169.265,-14.5353"/>
<polygon fill="midnightblue" stroke="midnightblue" points="169.924,-17.9775 179.35,-13.1387 168.964,-11.0436 169.924,-17.9775"/>
</g>
<!-- Node9 -->
<g id="node10" class="node"><title>Node9</title>
<polygon fill="white" stroke="#bfbfbf" points="153,-56.5 153,-75.5 197,-75.5 197,-56.5 153,-56.5"/>
<text text-anchor="middle" x="175" y="-63.5" font-family="Helvetica,sans-Serif" font-size="10.00">vector</text>
</g>
<!-- Node1&#45;&gt;Node9 -->
<g id="edge33" class="edge"><title>Node1&#45;&gt;Node9</title>
<path fill="none" stroke="midnightblue" d="M150.315,-347.35C100.101,-331.875 38,-301.514 38,-246 38,-246 38,-246 38,-188 38,-153.183 33.8926,-138.044 57,-112 78.9667,-87.2416 116.059,-76.0347 142.8,-71.0063"/>
<polygon fill="midnightblue" stroke="midnightblue" points="143.563,-74.4271 152.842,-69.3132 142.399,-67.5245 143.563,-74.4271"/>
</g>
<!-- Node16 -->
<g id="node17" class="node"><title>Node16</title>
<g id="a_node17"><a xlink:href="Random_8h.html" target="_top" xlink:title="pinhao/Support/Random.h">
<polygon fill="white" stroke="black" points="859,-291.5 859,-310.5 989,-310.5 989,-291.5 859,-291.5"/>
<text text-anchor="middle" x="924" y="-298.5" font-family="Helvetica,sans-Serif" font-size="10.00">pinhao/Support/Random.h</text>
</a>
</g>
</g>
<!-- Node1&#45;&gt;Node16 -->
<g id="edge25" class="edge"><title>Node1&#45;&gt;Node16</title>
<path fill="none" stroke="midnightblue" d="M286.744,-355.329C422.771,-343.945 711.771,-319.76 848.847,-308.289"/>
<polygon fill="midnightblue" stroke="midnightblue" points="849.175,-311.774 858.848,-307.452 848.591,-304.798 849.175,-311.774"/>
</g>
<!-- Node18 -->
<g id="node19" class="node"><title>Node18</title>
<g id="a_node19"><a xlink:href="Evolution_8h.html" target="_top" xlink:title="pinhao/MachineLearning\l/GrammarEvolution/Evolution.h">
<polygon fill="white" stroke="black" points="66,-112.5 66,-142.5 218,-142.5 218,-112.5 66,-112.5"/>
<text text-anchor="start" x="74" y="-130.5" font-family="Helvetica,sans-Serif" font-size="10.00">pinhao/MachineLearning</text>
<text text-anchor="middle" x="142" y="-119.5" font-family="Helvetica,sans-Serif" font-size="10.00">/GrammarEvolution/Evolution.h</text>
</a>
</g>
</g>
<!-- Node1&#45;&gt;Node18 -->
<g id="edge28" class="edge"><title>Node1&#45;&gt;Node18</title>
<path fill="none" stroke="midnightblue" d="M208.666,-347.276C196.829,-308.43 163.862,-200.244 149.195,-152.112"/>
<polygon fill="midnightblue" stroke="midnightblue" points="152.541,-151.084 146.278,-142.538 145.845,-153.124 152.541,-151.084"/>
</g>
<!-- Node3 -->
<g id="node4" class="node"><title>Node3</title>
<g id="a_node4"><a xlink:href="Features_8h.html" target="_top" xlink:title="This file implements some basic feature classes that extends the base class Feature. ">
<polygon fill="white" stroke="black" points="616,-235.5 616,-254.5 752,-254.5 752,-235.5 616,-235.5"/>
<text text-anchor="middle" x="684" y="-242.5" font-family="Helvetica,sans-Serif" font-size="10.00">pinhao/Features/Features.h</text>
</a>
</g>
</g>
<!-- Node2&#45;&gt;Node3 -->
<g id="edge3" class="edge"><title>Node2&#45;&gt;Node3</title>
<path fill="none" stroke="midnightblue" d="M491.286,-291.444C530.983,-282.083 594.707,-267.056 637.912,-256.868"/>
<polygon fill="midnightblue" stroke="midnightblue" points="638.954,-260.218 647.884,-254.516 637.348,-253.405 638.954,-260.218"/>
</g>
<!-- Node8 -->
<g id="node9" class="node"><title>Node8</title>
<polygon fill="white" stroke="#bfbfbf" points="527.5,-56.5 527.5,-75.5 562.5,-75.5 562.5,-56.5 527.5,-56.5"/>
<text text-anchor="middle" x="545" y="-63.5" font-family="Helvetica,sans-Serif" font-size="10.00">map</text>
</g>
<!-- Node2&#45;&gt;Node8 -->
<g id="edge22" class="edge"><title>Node2&#45;&gt;Node8</title>
<path fill="none" stroke="midnightblue" d="M458.31,-291.431C471.373,-257.612 519.527,-132.946 537.855,-85.4984"/>
<polygon fill="midnightblue" stroke="midnightblue" points="541.226,-86.4852 541.564,-75.8958 534.696,-83.9629 541.226,-86.4852"/>
</g>
<!-- Node2&#45;&gt;Node9 -->
<g id="edge23" class="edge"><title>Node2&#45;&gt;Node9</title>
<path fill="none" stroke="midnightblue" d="M441.965,-291.419C428.827,-282.635 408.102,-268.41 391,-255 314.898,-195.33 300.008,-175.419 227,-112 215.593,-102.091 202.755,-90.9809 192.689,-82.2794"/>
<polygon fill="midnightblue" stroke="midnightblue" points="194.833,-79.5061 184.978,-75.6157 190.256,-84.8025 194.833,-79.5061"/>
</g>
<!-- Node10 -->
<g id="node11" class="node"><title>Node10</title>
<polygon fill="white" stroke="#bfbfbf" points="995.5,-56.5 995.5,-75.5 1044.5,-75.5 1044.5,-56.5 995.5,-56.5"/>
<text text-anchor="middle" x="1020" y="-63.5" font-family="Helvetica,sans-Serif" font-size="10.00">cassert</text>
</g>
<!-- Node2&#45;&gt;Node10 -->
<g id="edge21" class="edge"><title>Node2&#45;&gt;Node10</title>
<path fill="none" stroke="midnightblue" d="M528.064,-293.067C677.693,-277.136 1010.22,-232.238 1073,-143 1080.93,-131.731 1078.79,-124.504 1073,-112 1067.08,-99.2072 1055.53,-88.7216 1044.72,-81.1003"/>
<polygon fill="midnightblue" stroke="midnightblue" points="1046.62,-78.1581 1036.33,-75.613 1042.79,-84.0161 1046.62,-78.1581"/>
</g>
<!-- Node12 -->
<g id="node13" class="node"><title>Node12</title>
<polygon fill="white" stroke="#bfbfbf" points="353,-56.5 353,-75.5 405,-75.5 405,-56.5 353,-56.5"/>
<text text-anchor="middle" x="379" y="-63.5" font-family="Helvetica,sans-Serif" font-size="10.00">memory</text>
</g>
<!-- Node2&#45;&gt;Node12 -->
<g id="edge24" class="edge"><title>Node2&#45;&gt;Node12</title>
<path fill="none" stroke="midnightblue" d="M445.427,-291.288C422.014,-269.248 362.225,-208.356 341,-143 336.744,-129.896 336.267,-124.939 341,-112 345.057,-100.908 353.188,-90.6651 360.891,-82.7625"/>
<polygon fill="midnightblue" stroke="midnightblue" points="363.475,-85.1351 368.286,-75.6955 358.638,-80.0747 363.475,-85.1351"/>
</g>
<!-- Node4 -->
<g id="node5" class="node"><title>Node4</title>
<g id="a_node5"><a xlink:href="Feature_8h.html" target="_top" xlink:title="This file defines the base feature class. ">
<polygon fill="white" stroke="black" points="626.5,-179.5 626.5,-198.5 757.5,-198.5 757.5,-179.5 626.5,-179.5"/>
<text text-anchor="middle" x="692" y="-186.5" font-family="Helvetica,sans-Serif" font-size="10.00">pinhao/Features/Feature.h</text>
</a>
</g>
</g>
<!-- Node3&#45;&gt;Node4 -->
<g id="edge4" class="edge"><title>Node3&#45;&gt;Node4</title>
<path fill="none" stroke="midnightblue" d="M685.321,-235.083C686.381,-227.927 687.906,-217.635 689.231,-208.691"/>
<polygon fill="midnightblue" stroke="midnightblue" points="692.7,-209.156 690.704,-198.751 685.776,-208.13 692.7,-209.156"/>
</g>
<!-- Node5 -->
<g id="node6" class="node"><title>Node5</title>
<g id="a_node6"><a xlink:href="FeatureInfo_8h.html" target="_top" xlink:title="This file defines a class that holds some informations about a feature. ">
<polygon fill="white" stroke="black" points="350.5,-118 350.5,-137 497.5,-137 497.5,-118 350.5,-118"/>
<text text-anchor="middle" x="424" y="-125" font-family="Helvetica,sans-Serif" font-size="10.00">pinhao/Features/FeatureInfo.h</text>
</a>
</g>
</g>
<!-- Node4&#45;&gt;Node5 -->
<g id="edge5" class="edge"><title>Node4&#45;&gt;Node5</title>
<path fill="none" stroke="midnightblue" d="M653.602,-179.475C605.84,-168.871 524.264,-150.76 472.305,-139.224"/>
<polygon fill="midnightblue" stroke="midnightblue" points="472.848,-135.76 462.327,-137.009 471.33,-142.593 472.848,-135.76"/>
</g>
<!-- Node4&#45;&gt;Node8 -->
<g id="edge18" class="edge"><title>Node4&#45;&gt;Node8</title>
<path fill="none" stroke="midnightblue" d="M653.72,-179.434C630.932,-172.71 602.711,-161.338 583,-143 566.167,-127.339 555.745,-102.577 550.167,-85.6005"/>
<polygon fill="midnightblue" stroke="midnightblue" points="553.431,-84.2997 547.183,-75.7429 546.731,-86.3281 553.431,-84.2997"/>
</g>
<!-- Node4&#45;&gt;Node10 -->
<g id="edge19" class="edge"><title>Node4&#45;&gt;Node10</title>
<path fill="none" stroke="midnightblue" d="M757.759,-184.545C857.497,-178.623 1037.54,-165.002 1057,-143 1072.79,-125.144 1053.65,-99.3531 1037.55,-82.8835"/>
<polygon fill="midnightblue" stroke="midnightblue" points="1039.67,-80.0671 1030.05,-75.6228 1034.8,-85.0947 1039.67,-80.0671"/>
</g>
<!-- Node11 -->
<g id="node12" class="node"><title>Node11</title>
<g id="a_node12"><a xlink:href="FeatureRegistry_8h.html" target="_top" xlink:title="This file defines a class that has all the registered features. ">
<polygon fill="white" stroke="black" points="881.5,-118 881.5,-137 1048.5,-137 1048.5,-118 881.5,-118"/>
<text text-anchor="middle" x="965" y="-125" font-family="Helvetica,sans-Serif" font-size="10.00">pinhao/Features/FeatureRegistry.h</text>
</a>
</g>
</g>
<!-- Node4&#45;&gt;Node11 -->
<g id="edge12" class="edge"><title>Node4&#45;&gt;Node11</title>
<path fill="none" stroke="midnightblue" d="M731.114,-179.475C779.869,-168.849 863.211,-150.685 916.124,-139.152"/>
<polygon fill="midnightblue" stroke="midnightblue" points="916.933,-142.558 925.958,-137.009 915.442,-135.719 916.933,-142.558"/>
</g>
<!-- Node13 -->
<g id="node14" class="node"><title>Node13</title>
<polygon fill="white" stroke="#bfbfbf" points="592.5,-118 592.5,-137 683.5,-137 683.5,-118 592.5,-118"/>
<text text-anchor="middle" x="638" y="-125" font-family="Helvetica,sans-Serif" font-size="10.00">llvm/IR/Module.h</text>
</g>
<!-- Node4&#45;&gt;Node13 -->
<g id="edge16" class="edge"><title>Node4&#45;&gt;Node13</title>
<path fill="none" stroke="midnightblue" d="M684.263,-179.475C676.003,-170.373 662.723,-155.741 652.506,-144.483"/>
<polygon fill="midnightblue" stroke="midnightblue" points="655.035,-142.062 645.723,-137.009 649.851,-146.766 655.035,-142.062"/>
</g>
<!-- Node14 -->
<g id="node15" class="node"><title>Node14</title>
<polygon fill="white" stroke="#bfbfbf" points="701.5,-118 701.5,-137 790.5,-137 790.5,-118 701.5,-118"/>
<text text-anchor="middle" x="746" y="-125" font-family="Helvetica,sans-Serif" font-size="10.00">yaml&#45;cpp/yaml.h</text>
</g>
<!-- Node4&#45;&gt;Node14 -->
<g id="edge17" class="edge"><title>Node4&#45;&gt;Node14</title>
<path fill="none" stroke="midnightblue" d="M699.737,-179.475C707.997,-170.373 721.277,-155.741 731.494,-144.483"/>
<polygon fill="midnightblue" stroke="midnightblue" points="734.149,-146.766 738.277,-137.009 728.965,-142.062 734.149,-146.766"/>
</g>
<!-- Node15 -->
<g id="node16" class="node"><title>Node15</title>
<polygon fill="white" stroke="#bfbfbf" points="809,-118 809,-137 863,-137 863,-118 809,-118"/>
<text text-anchor="middle" x="836" y="-125" font-family="Helvetica,sans-Serif" font-size="10.00">iostream</text>
</g>
<!-- Node4&#45;&gt;Node15 -->
<g id="edge20" class="edge"><title>Node4&#45;&gt;Node15</title>
<path fill="none" stroke="midnightblue" d="M712.632,-179.475C737.119,-169.357 778.147,-152.405 806.109,-140.851"/>
<polygon fill="midnightblue" stroke="midnightblue" points="807.501,-144.063 815.407,-137.009 804.828,-137.593 807.501,-144.063"/>
</g>
<!-- Node5&#45;&gt;Node6 -->
<g id="edge6" class="edge"><title>Node5&#45;&gt;Node6</title>
<path fill="none" stroke="midnightblue" d="M402.652,-117.975C377.314,-107.857 334.862,-90.9046 305.929,-79.3507"/>
<polygon fill="midnightblue" stroke="midnightblue" points="306.893,-75.9673 296.308,-75.5091 304.297,-82.4681 306.893,-75.9673"/>
</g>
<!-- Node5&#45;&gt;Node7 -->
<g id="edge10" class="edge"><title>Node5&#45;&gt;Node7</title>
<path fill="none" stroke="midnightblue" d="M425.619,-117.812C427.829,-103.036 429.88,-72.9698 414,-56 389.428,-29.7413 284.028,-17.703 230.887,-13.2185"/>
<polygon fill="midnightblue" stroke="midnightblue" points="230.94,-9.71157 220.691,-12.3971 230.378,-16.689 230.94,-9.71157"/>
</g>
<!-- Node5&#45;&gt;Node8 -->
<g id="edge8" class="edge"><title>Node5&#45;&gt;Node8</title>
<path fill="none" stroke="midnightblue" d="M441.336,-117.975C461.553,-108.034 495.187,-91.4947 518.642,-79.961"/>
<polygon fill="midnightblue" stroke="midnightblue" points="520.267,-83.0627 527.696,-75.5091 517.178,-76.781 520.267,-83.0627"/>
</g>
<!-- Node5&#45;&gt;Node9 -->
<g id="edge9" class="edge"><title>Node5&#45;&gt;Node9</title>
<path fill="none" stroke="midnightblue" d="M384.059,-117.938C342.274,-108.828 274.562,-93.6353 207.238,-76.221"/>
<polygon fill="midnightblue" stroke="midnightblue" points="207.87,-72.7689 197.311,-73.636 206.106,-79.543 207.87,-72.7689"/>
</g>
<!-- Node5&#45;&gt;Node10 -->
<g id="edge11" class="edge"><title>Node5&#45;&gt;Node10</title>
<path fill="none" stroke="midnightblue" d="M497.679,-119.144C627.081,-106.226 890.428,-79.9355 985.112,-70.4829"/>
<polygon fill="midnightblue" stroke="midnightblue" points="985.688,-73.9429 995.291,-69.4668 984.993,-66.9775 985.688,-73.9429"/>
</g>
<!-- Node6&#45;&gt;Node7 -->
<g id="edge7" class="edge"><title>Node6&#45;&gt;Node7</title>
<path fill="none" stroke="midnightblue" d="M262.95,-56.324C251.537,-48.1066 234.169,-35.6017 220.565,-25.8069"/>
<polygon fill="midnightblue" stroke="midnightblue" points="222.43,-22.8366 212.269,-19.8339 218.34,-28.5174 222.43,-22.8366"/>
</g>
<!-- Node11&#45;&gt;Node8 -->
<g id="edge15" class="edge"><title>Node11&#45;&gt;Node8</title>
<path fill="none" stroke="midnightblue" d="M911.421,-117.978C898.518,-115.973 884.773,-113.874 872,-112 761.207,-95.7409 629.03,-78.0845 572.666,-70.6371"/>
<polygon fill="midnightblue" stroke="midnightblue" points="573.111,-67.1655 562.739,-69.3275 572.195,-74.1054 573.111,-67.1655"/>
</g>
<!-- Node11&#45;&gt;Node10 -->
<g id="edge14" class="edge"><title>Node11&#45;&gt;Node10</title>
<path fill="none" stroke="midnightblue" d="M972.88,-117.975C981.294,-108.873 994.819,-94.241 1005.23,-82.983"/>
<polygon fill="midnightblue" stroke="midnightblue" points="1007.92,-85.2282 1012.13,-75.5091 1002.78,-80.4766 1007.92,-85.2282"/>
</g>
<!-- Node11&#45;&gt;Node12 -->
<g id="edge13" class="edge"><title>Node11&#45;&gt;Node12</title>
<path fill="none" stroke="midnightblue" d="M913.917,-117.937C900.319,-115.821 885.623,-113.682 872,-112 701.795,-90.9849 497.401,-75.3907 415.525,-69.5344"/>
<polygon fill="midnightblue" stroke="midnightblue" points="415.474,-66.0221 405.251,-68.8049 414.978,-73.0045 415.474,-66.0221"/>
</g>
<!-- Node17 -->
<g id="node18" class="node"><title>Node17</title>
<polygon fill="white" stroke="#bfbfbf" points="1142.5,-235.5 1142.5,-254.5 1191.5,-254.5 1191.5,-235.5 1142.5,-235.5"/>
<text text-anchor="middle" x="1167" y="-242.5" font-family="Helvetica,sans-Serif" font-size="10.00">random</text>
</g>
<!-- Node16&#45;&gt;Node17 -->
<g id="edge26" class="edge"><title>Node16&#45;&gt;Node17</title>
<path fill="none" stroke="midnightblue" d="M963.133,-291.486C1004.22,-282.519 1070.69,-267.934 1128,-255 1129.44,-254.675 1130.91,-254.342 1132.4,-254.004"/>
<polygon fill="midnightblue" stroke="midnightblue" points="1133.28,-257.392 1142.25,-251.749 1131.72,-250.568 1133.28,-257.392"/>
</g>
<!-- Node18&#45;&gt;Node7 -->
<g id="edge30" class="edge"><title>Node18&#45;&gt;Node7</title>
<path fill="none" stroke="midnightblue" d="M139.084,-112.424C136.737,-97.568 135.119,-73.874 144,-56 150.437,-43.0442 162.537,-32.5905 173.848,-25.0314"/>
<polygon fill="midnightblue" stroke="midnightblue" points="175.965,-27.8368 182.625,-19.5971 172.281,-21.8851 175.965,-27.8368"/>
</g>
<!-- Node18&#45;&gt;Node9 -->
<g id="edge29" class="edge"><title>Node18&#45;&gt;Node9</title>
<path fill="none" stroke="midnightblue" d="M149.821,-112.399C154.468,-104.021 160.399,-93.3269 165.337,-84.4229"/>
<polygon fill="midnightblue" stroke="midnightblue" points="168.409,-86.1004 170.198,-75.6578 162.287,-82.7052 168.409,-86.1004"/>
</g>
<!-- Node18&#45;&gt;Node12 -->
<g id="edge31" class="edge"><title>Node18&#45;&gt;Node12</title>
<path fill="none" stroke="midnightblue" d="M198.622,-112.452C236.836,-102.947 288.671,-90.0054 342.85,-76.2807"/>
<polygon fill="midnightblue" stroke="midnightblue" points="343.798,-79.651 352.632,-73.8006 342.078,-72.8657 343.798,-79.651"/>
</g>
</g>
</svg>
        <g id="navigator" transform="translate(0 0)" fill="#404254">
                <rect fill="#f2f5e9" fill-opacity="0.5" stroke="#606060" stroke-width=".5" x="0" y="0" width="60" height="60"/>
                <use id="zoomplus" xlink:href="#zoomPlus" x="17" y="9" onmousedown="handleZoom(evt,'in')"/>
                <use id="zoomminus" xlink:href="#zoomMin" x="42" y="9" onmousedown="handleZoom(evt,'out')"/>
                <use id="reset" xlink:href="#resetDef" x="30" y="36" onmousedown="handleReset()"/>
                <g id="arrowUp" xlink:href="#dirArrow" transform="translate(30 24)" onmousedown="handlePan(0,-1)">
                  <use xlink:href="#rim" fill="#404040">
                        <set attributeName="fill" to="#808080" begin="arrowUp.mouseover" end="arrowUp.mouseout"/>
                  </use>
                  <path fill="none" stroke="white" stroke-width="1.5" d="M0,-3.0v7 M-2.5,-0.5L0,-3.0L2.5,-0.5"/>
                </g>
                <g id="arrowRight" xlink:href="#dirArrow" transform="rotate(90) translate(36 -43)" onmousedown="handlePan(1,0)">
                  <use xlink:href="#rim" fill="#404040">
                        <set attributeName="fill" to="#808080" begin="arrowRight.mouseover" end="arrowRight.mouseout"/>
                  </use>
                  <path fill="none" stroke="white" stroke-width="1.5" d="M0,-3.0v7 M-2.5,-0.5L0,-3.0L2.5,-0.5"/>
                </g>
                <g id="arrowDown" xlink:href="#dirArrow" transform="rotate(180) translate(-30 -48)" onmousedown="handlePan(0,1)">
                  <use xlink:href="#rim" fill="#404040">
                        <set attributeName="fill" to="#808080" begin="arrowDown.mouseover" end="arrowDown.mouseout"/>
                  </use>
                  <path fill="none" stroke="white" stroke-width="1.5" d="M0,-3.0v7 M-2.5,-0.5L0,-3.0L2.5,-0.5"/>
                </g>
                <g id="arrowLeft" xlink:href="#dirArrow" transform="rotate(270) translate(-36 17)" onmousedown="handlePan(-1,0)">
                  <use xlink:href="#rim" fill="#404040">
                        <set attributeName="fill" to="#808080" begin="arrowLeft.mouseover" end="arrowLeft.mouseout"/>
                  </use>
                  <path fill="none" stroke="white" stroke-width="1.5" d="M0,-3.0v7 M-2.5,-0.5L0,-3.0L2.5,-0.5"/>
                </g>
        </g>
        <svg viewBox="0 0 15 15" width="100%" height="30px" preserveAspectRatio="xMaxYMin meet">
         <g id="arrow_out" transform="scale(0.3 0.3)">
          <a xlink:href="FeatureFormula_8h__incl_org.svg" target="_base">
           <rect id="button" ry="5" rx="5" y="6" x="6" height="38" width="38"
                fill="#f2f5e9" fill-opacity="0.5" stroke="#606060" stroke-width="1.0"/>
           <path id="arrow"
             d="M 11.500037,31.436501 C 11.940474,20.09759 22.043105,11.32322 32.158766,21.979434 L 37.068811,17.246167 C 37.068811,17.246167 37.088388,32 37.088388,32 L 22.160133,31.978069 C 22.160133,31.978069 26.997745,27.140456 26.997745,27.140456 C 18.528582,18.264221 13.291696,25.230495 11.500037,31.436501 z"
             style="fill:#404040;"/>
          </a>
         </g>
        </svg>
</svg>
