<?xml version="1.0" encoding="UTF-8" standalone="no"?>
<!DOCTYPE svg PUBLIC "-//W3C//DTD SVG 1.1//EN"
 "http://www.w3.org/Graphics/SVG/1.1/DTD/svg11.dtd">
<!-- Generated by graphviz version 2.38.0 (20140413.2041)
 -->
<!-- Title: /home/yukiosir/workspace/CompilerProject/Software/pinhao/lib/Features/FeatureInfo.cpp Pages: 1 -->
<svg width="350pt" height="218pt"
 viewBox="0.00 0.00 349.50 218.00" xmlns="http://www.w3.org/2000/svg" xmlns:xlink="http://www.w3.org/1999/xlink">
<g id="graph0" class="graph" transform="scale(1 1) rotate(0) translate(4 214)">
<title>/home/yukiosir/workspace/CompilerProject/Software/pinhao/lib/Features/FeatureInfo.cpp</title>
<polygon fill="white" stroke="none" points="-4,4 -4,-214 345.5,-214 345.5,4 -4,4"/>
<!-- Node0 -->
<g id="node1" class="node"><title>Node0</title>
<polygon fill="#bfbfbf" stroke="black" points="107.5,-168.5 107.5,-209.5 280.5,-209.5 280.5,-168.5 107.5,-168.5"/>
<text text-anchor="start" x="115.5" y="-197.5" font-family="Helvetica,sans-Serif" font-size="10.00">/home/yukiosir/workspace</text>
<text text-anchor="start" x="115.5" y="-186.5" font-family="Helvetica,sans-Serif" font-size="10.00">/CompilerProject/Software</text>
<text text-anchor="middle" x="194" y="-175.5" font-family="Helvetica,sans-Serif" font-size="10.00">/pinhao/lib/Features/FeatureInfo.cpp</text>
</g>
<!-- Node1 -->
<g id="node2" class="node"><title>Node1</title>
<g id="a_node2"><a xlink:href="FeatureInfo_8h.html" target="_top" xlink:title="This file defines a class that holds some informations about a feature. ">
<polygon fill="white" stroke="black" points="120.5,-112.5 120.5,-131.5 267.5,-131.5 267.5,-112.5 120.5,-112.5"/>
<text text-anchor="middle" x="194" y="-119.5" font-family="Helvetica,sans-Serif" font-size="10.00">pinhao/Features/FeatureInfo.h</text>
</a>
</g>
</g>
<!-- Node0&#45;&gt;Node1 -->
<g id="edge1" class="edge"><title>Node0&#45;&gt;Node1</title>
<path fill="none" stroke="midnightblue" d="M194,-168.498C194,-160.065 194,-150.235 194,-141.874"/>
<polygon fill="midnightblue" stroke="midnightblue" points="197.5,-141.652 194,-131.652 190.5,-141.653 197.5,-141.652"/>
</g>
<!-- Node2 -->
<g id="node3" class="node"><title>Node2</title>
<g id="a_node3"><a xlink:href="Types_8h.html" target="_top" xlink:title="pinhao/Support/Types.h">
<polygon fill="white" stroke="black" points="0,-56.5 0,-75.5 120,-75.5 120,-56.5 0,-56.5"/>
<text text-anchor="middle" x="60" y="-63.5" font-family="Helvetica,sans-Serif" font-size="10.00">pinhao/Support/Types.h</text>
</a>
</g>
</g>
<!-- Node1&#45;&gt;Node2 -->
<g id="edge2" class="edge"><title>Node1&#45;&gt;Node2</title>
<path fill="none" stroke="midnightblue" d="M172.767,-112.444C150.616,-103.517 115.681,-89.4387 90.564,-79.3168"/>
<polygon fill="midnightblue" stroke="midnightblue" points="91.7168,-76.0079 81.1334,-75.5164 89.1003,-82.5006 91.7168,-76.0079"/>
</g>
<!-- Node3 -->
<g id="node4" class="node"><title>Node3</title>
<polygon fill="white" stroke="#bfbfbf" points="83.5,-0.5 83.5,-19.5 124.5,-19.5 124.5,-0.5 83.5,-0.5"/>
<text text-anchor="middle" x="104" y="-7.5" font-family="Helvetica,sans-Serif" font-size="10.00">string</text>
</g>
<!-- Node1&#45;&gt;Node3 -->
<g id="edge6" class="edge"><title>Node1&#45;&gt;Node3</title>
<path fill="none" stroke="midnightblue" d="M186.938,-112.368C171.954,-94.0547 136.767,-51.0489 117.387,-27.3624"/>
<polygon fill="midnightblue" stroke="midnightblue" points="120.071,-25.1147 111.029,-19.5914 114.653,-29.5474 120.071,-25.1147"/>
</g>
<!-- Node4 -->
<g id="node5" class="node"><title>Node4</title>
<polygon fill="white" stroke="#bfbfbf" points="176.5,-56.5 176.5,-75.5 211.5,-75.5 211.5,-56.5 176.5,-56.5"/>
<text text-anchor="middle" x="194" y="-63.5" font-family="Helvetica,sans-Serif" font-size="10.00">map</text>
</g>
<!-- Node1&#45;&gt;Node4 -->
<g id="edge4" class="edge"><title>Node1&#45;&gt;Node4</title>
<path fill="none" stroke="midnightblue" d="M194,-112.083C194,-105.006 194,-94.8611 194,-85.9865"/>
<polygon fill="midnightblue" stroke="midnightblue" points="197.5,-85.751 194,-75.7511 190.5,-85.7511 197.5,-85.751"/>
</g>
<!-- Node5 -->
<g id="node6" class="node"><title>Node5</title>
<polygon fill="white" stroke="#bfbfbf" points="230,-56.5 230,-75.5 274,-75.5 274,-56.5 230,-56.5"/>
<text text-anchor="middle" x="252" y="-63.5" font-family="Helvetica,sans-Serif" font-size="10.00">vector</text>
</g>
<!-- Node1&#45;&gt;Node5 -->
<g id="edge5" class="edge"><title>Node1&#45;&gt;Node5</title>
<path fill="none" stroke="midnightblue" d="M203.319,-112.324C211.893,-104.341 224.812,-92.3128 235.188,-82.6529"/>
<polygon fill="midnightblue" stroke="midnightblue" points="237.578,-85.2098 242.512,-75.8339 232.808,-80.0865 237.578,-85.2098"/>
</g>
<!-- Node6 -->
<g id="node7" class="node"><title>Node6</title>
<polygon fill="white" stroke="#bfbfbf" points="292.5,-56.5 292.5,-75.5 341.5,-75.5 341.5,-56.5 292.5,-56.5"/>
<text text-anchor="middle" x="317" y="-63.5" font-family="Helvetica,sans-Serif" font-size="10.00">cassert</text>
</g>
<!-- Node1&#45;&gt;Node6 -->
<g id="edge7" class="edge"><title>Node1&#45;&gt;Node6</title>
<path fill="none" stroke="midnightblue" d="M213.49,-112.444C233.642,-103.596 265.323,-89.6875 288.331,-79.5865"/>
<polygon fill="midnightblue" stroke="midnightblue" points="289.852,-82.7411 297.601,-75.5164 287.038,-76.3316 289.852,-82.7411"/>
</g>
<!-- Node2&#45;&gt;Node3 -->
<g id="edge3" class="edge"><title>Node2&#45;&gt;Node3</title>
<path fill="none" stroke="midnightblue" d="M67.2657,-56.083C73.5448,-48.3768 82.7876,-37.0333 90.4308,-27.6531"/>
<polygon fill="midnightblue" stroke="midnightblue" points="93.2661,-29.7143 96.8695,-19.7511 87.8394,-25.2926 93.2661,-29.7143"/>
</g>
</g>
</svg>
