<?xml version="1.0" encoding="UTF-8" standalone="no"?>
<!DOCTYPE svg PUBLIC "-//W3C//DTD SVG 1.1//EN"
 "http://www.w3.org/Graphics/SVG/1.1/DTD/svg11.dtd">
<!-- Generated by graphviz version 2.38.0 (20140413.2041)
 -->
<!-- Title: /home/yukiosir/workspace/CompilerProject/Software/pinhao/lib/Support/YAMLWrapper/FormulaYAMLWrapper.cpp Pages: 1 -->
<svg width="1267pt" height="732pt"
 viewBox="0.00 0.00 1267.00 732.00" xmlns="http://www.w3.org/2000/svg" xmlns:xlink="http://www.w3.org/1999/xlink">
<g id="graph0" class="graph" transform="scale(1 1) rotate(0) translate(4 728)">
<title>/home/yukiosir/workspace/CompilerProject/Software/pinhao/lib/Support/YAMLWrapper/FormulaYAMLWrapper.cpp</title>
<polygon fill="white" stroke="none" points="-4,4 -4,-728 1263,-728 1263,4 -4,4"/>
<!-- Node0 -->
<g id="node1" class="node"><title>Node0</title>
<polygon fill="#bfbfbf" stroke="black" points="609,-671.5 609,-723.5 773,-723.5 773,-671.5 609,-671.5"/>
<text text-anchor="start" x="617" y="-711.5" font-family="Helvetica,sans-Serif" font-size="10.00">/home/yukiosir/workspace</text>
<text text-anchor="start" x="617" y="-700.5" font-family="Helvetica,sans-Serif" font-size="10.00">/CompilerProject/Software</text>
<text text-anchor="start" x="617" y="-689.5" font-family="Helvetica,sans-Serif" font-size="10.00">/pinhao/lib/Support/YAMLWrapper</text>
<text text-anchor="middle" x="691" y="-678.5" font-family="Helvetica,sans-Serif" font-size="10.00">/FormulaYAMLWrapper.cpp</text>
</g>
<!-- Node1 -->
<g id="node2" class="node"><title>Node1</title>
<g id="a_node2"><a xlink:href="FormulaYAMLWrapper_8h.html" target="_top" xlink:title="pinhao/Support/FormulaYAMLWrapper.h">
<polygon fill="white" stroke="black" points="595,-615.5 595,-634.5 787,-634.5 787,-615.5 595,-615.5"/>
<text text-anchor="middle" x="691" y="-622.5" font-family="Helvetica,sans-Serif" font-size="10.00">pinhao/Support/FormulaYAMLWrapper.h</text>
</a>
</g>
</g>
<!-- Node0&#45;&gt;Node1 -->
<g id="edge1" class="edge"><title>Node0&#45;&gt;Node1</title>
<path fill="none" stroke="midnightblue" d="M691,-671.446C691,-662.73 691,-653.104 691,-644.964"/>
<polygon fill="midnightblue" stroke="midnightblue" points="694.5,-644.695 691,-634.695 687.5,-644.696 694.5,-644.695"/>
</g>
<!-- Node7 -->
<g id="node8" class="node"><title>Node7</title>
<g id="a_node8"><a xlink:href="Types_8h.html" target="_top" xlink:title="pinhao/Support/Types.h">
<polygon fill="white" stroke="black" points="1123,-56.5 1123,-75.5 1243,-75.5 1243,-56.5 1123,-56.5"/>
<text text-anchor="middle" x="1183" y="-63.5" font-family="Helvetica,sans-Serif" font-size="10.00">pinhao/Support/Types.h</text>
</a>
</g>
</g>
<!-- Node0&#45;&gt;Node7 -->
<g id="edge52" class="edge"><title>Node0&#45;&gt;Node7</title>
<path fill="none" stroke="midnightblue" d="M773.289,-694.365C930.704,-688.033 1259,-663.018 1259,-564.5 1259,-564.5 1259,-564.5 1259,-188 1259,-144.475 1223.3,-103.775 1200.84,-82.4715"/>
<polygon fill="midnightblue" stroke="midnightblue" points="1202.99,-79.6984 1193.25,-75.5313 1198.27,-84.8634 1202.99,-79.6984"/>
</g>
<!-- Node10 -->
<g id="node11" class="node"><title>Node10</title>
<g id="a_node11"><a xlink:href="Formula_8h.html" target="_top" xlink:title="pinhao/MachineLearning\l/GrammarEvolution/Formula.h">
<polygon fill="white" stroke="black" points="259.5,-347.5 259.5,-377.5 406.5,-377.5 406.5,-347.5 259.5,-347.5"/>
<text text-anchor="start" x="267.5" y="-365.5" font-family="Helvetica,sans-Serif" font-size="10.00">pinhao/MachineLearning</text>
<text text-anchor="middle" x="333" y="-354.5" font-family="Helvetica,sans-Serif" font-size="10.00">/GrammarEvolution/Formula.h</text>
</a>
</g>
</g>
<!-- Node0&#45;&gt;Node10 -->
<g id="edge53" class="edge"><title>Node0&#45;&gt;Node10</title>
<path fill="none" stroke="midnightblue" d="M608.783,-696.664C435.168,-694.79 47,-677.917 47,-564.5 47,-564.5 47,-564.5 47,-495.5 47,-458.306 39.1524,-439.74 66,-414 91.8315,-389.234 180.818,-376.086 249.032,-369.484"/>
<polygon fill="midnightblue" stroke="midnightblue" points="249.731,-372.934 259.362,-368.518 249.08,-365.964 249.731,-372.934"/>
</g>
<!-- Node2 -->
<g id="node3" class="node"><title>Node2</title>
<g id="a_node3"><a xlink:href="YAMLWrapper_8h.html" target="_top" xlink:title="pinhao/Support/YAMLWrapper.h">
<polygon fill="white" stroke="black" points="431.5,-179.5 431.5,-198.5 588.5,-198.5 588.5,-179.5 431.5,-179.5"/>
<text text-anchor="middle" x="510" y="-186.5" font-family="Helvetica,sans-Serif" font-size="10.00">pinhao/Support/YAMLWrapper.h</text>
</a>
</g>
</g>
<!-- Node1&#45;&gt;Node2 -->
<g id="edge2" class="edge"><title>Node1&#45;&gt;Node2</title>
<path fill="none" stroke="midnightblue" d="M686.848,-615.334C677.576,-595.164 656,-543.302 656,-497.5 656,-497.5 656,-497.5 656,-300 656,-269.775 656.892,-256.843 636,-235 620.128,-218.405 597.725,-207.916 576.201,-201.293"/>
<polygon fill="midnightblue" stroke="midnightblue" points="576.976,-197.874 566.401,-198.513 575.066,-204.609 576.976,-197.874"/>
</g>
<!-- Node6 -->
<g id="node7" class="node"><title>Node6</title>
<g id="a_node7"><a xlink:href="YamlOptions_8h.html" target="_top" xlink:title="pinhao/Support/YamlOptions.h">
<polygon fill="white" stroke="black" points="683.5,-420 683.5,-439 832.5,-439 832.5,-420 683.5,-420"/>
<text text-anchor="middle" x="758" y="-427" font-family="Helvetica,sans-Serif" font-size="10.00">pinhao/Support/YamlOptions.h</text>
</a>
</g>
</g>
<!-- Node1&#45;&gt;Node6 -->
<g id="edge6" class="edge"><title>Node1&#45;&gt;Node6</title>
<path fill="none" stroke="midnightblue" d="M693.965,-615.436C704.101,-586.162 737.52,-489.647 751.627,-448.905"/>
<polygon fill="midnightblue" stroke="midnightblue" points="754.951,-450.002 754.916,-439.407 748.337,-447.711 754.951,-450.002"/>
</g>
<!-- Node1&#45;&gt;Node7 -->
<g id="edge8" class="edge"><title>Node1&#45;&gt;Node7</title>
<path fill="none" stroke="midnightblue" d="M787.286,-620.58C940.087,-612.499 1221,-585.654 1221,-497.5 1221,-497.5 1221,-497.5 1221,-188 1221,-149.812 1203.56,-107.83 1192.31,-84.7224"/>
<polygon fill="midnightblue" stroke="midnightblue" points="1195.29,-82.8646 1187.66,-75.5153 1189.04,-86.0195 1195.29,-82.8646"/>
</g>
<!-- Node9 -->
<g id="node10" class="node"><title>Node9</title>
<g id="a_node10"><a xlink:href="Formulas_8h.html" target="_top" xlink:title="pinhao/MachineLearning\l/GrammarEvolution/Formulas.h">
<polygon fill="white" stroke="black" points="327,-548.5 327,-578.5 479,-578.5 479,-548.5 327,-548.5"/>
<text text-anchor="start" x="335" y="-566.5" font-family="Helvetica,sans-Serif" font-size="10.00">pinhao/MachineLearning</text>
<text text-anchor="middle" x="403" y="-555.5" font-family="Helvetica,sans-Serif" font-size="10.00">/GrammarEvolution/Formulas.h</text>
</a>
</g>
</g>
<!-- Node1&#45;&gt;Node9 -->
<g id="edge10" class="edge"><title>Node1&#45;&gt;Node9</title>
<path fill="none" stroke="midnightblue" d="M649.737,-615.475C605.81,-606.4 535.269,-591.826 480.841,-580.582"/>
<polygon fill="midnightblue" stroke="midnightblue" points="481.377,-577.119 470.876,-578.523 479.961,-583.974 481.377,-577.119"/>
</g>
<!-- Node3 -->
<g id="node4" class="node"><title>Node3</title>
<polygon fill="white" stroke="#bfbfbf" points="420.5,-118 420.5,-137 509.5,-137 509.5,-118 420.5,-118"/>
<text text-anchor="middle" x="465" y="-125" font-family="Helvetica,sans-Serif" font-size="10.00">yaml&#45;cpp/yaml.h</text>
</g>
<!-- Node2&#45;&gt;Node3 -->
<g id="edge3" class="edge"><title>Node2&#45;&gt;Node3</title>
<path fill="none" stroke="midnightblue" d="M503.553,-179.475C496.803,-170.55 486.031,-156.307 477.587,-145.143"/>
<polygon fill="midnightblue" stroke="midnightblue" points="480.259,-142.874 471.435,-137.009 474.676,-147.096 480.259,-142.874"/>
</g>
<!-- Node4 -->
<g id="node5" class="node"><title>Node4</title>
<polygon fill="white" stroke="#bfbfbf" points="528,-118 528,-137 582,-137 582,-118 528,-118"/>
<text text-anchor="middle" x="555" y="-125" font-family="Helvetica,sans-Serif" font-size="10.00">iostream</text>
</g>
<!-- Node2&#45;&gt;Node4 -->
<g id="edge4" class="edge"><title>Node2&#45;&gt;Node4</title>
<path fill="none" stroke="midnightblue" d="M516.447,-179.475C523.197,-170.55 533.969,-156.307 542.413,-145.143"/>
<polygon fill="midnightblue" stroke="midnightblue" points="545.324,-147.096 548.565,-137.009 539.741,-142.874 545.324,-147.096"/>
</g>
<!-- Node5 -->
<g id="node6" class="node"><title>Node5</title>
<polygon fill="white" stroke="#bfbfbf" points="350,-118 350,-137 402,-137 402,-118 350,-118"/>
<text text-anchor="middle" x="376" y="-125" font-family="Helvetica,sans-Serif" font-size="10.00">ostream</text>
</g>
<!-- Node2&#45;&gt;Node5 -->
<g id="edge5" class="edge"><title>Node2&#45;&gt;Node5</title>
<path fill="none" stroke="midnightblue" d="M490.801,-179.475C468.213,-169.445 430.501,-152.7 404.499,-141.155"/>
<polygon fill="midnightblue" stroke="midnightblue" points="405.723,-137.869 395.163,-137.009 402.882,-144.266 405.723,-137.869"/>
</g>
<!-- Node6&#45;&gt;Node3 -->
<g id="edge7" class="edge"><title>Node6&#45;&gt;Node3</title>
<path fill="none" stroke="midnightblue" d="M749.894,-419.763C732.673,-400.25 694,-350.979 694,-302 694,-302 694,-302 694,-244 694,-202.282 571.311,-159.755 505.539,-139.954"/>
<polygon fill="midnightblue" stroke="midnightblue" points="506.467,-136.579 495.884,-137.088 504.474,-143.289 506.467,-136.579"/>
</g>
<!-- Node8 -->
<g id="node9" class="node"><title>Node8</title>
<polygon fill="white" stroke="#bfbfbf" points="469.5,-0.5 469.5,-19.5 510.5,-19.5 510.5,-0.5 469.5,-0.5"/>
<text text-anchor="middle" x="490" y="-7.5" font-family="Helvetica,sans-Serif" font-size="10.00">string</text>
</g>
<!-- Node7&#45;&gt;Node8 -->
<g id="edge9" class="edge"><title>Node7&#45;&gt;Node8</title>
<path fill="none" stroke="midnightblue" d="M1122.8,-60.0779C1106.33,-58.7424 1088.48,-57.3051 1072,-56 861.279,-39.3109 607.58,-19.9444 520.821,-13.3423"/>
<polygon fill="midnightblue" stroke="midnightblue" points="520.858,-9.83506 510.621,-12.5664 520.327,-16.8149 520.858,-9.83506"/>
</g>
<!-- Node9&#45;&gt;Node10 -->
<g id="edge11" class="edge"><title>Node9&#45;&gt;Node10</title>
<path fill="none" stroke="midnightblue" d="M479.169,-557.691C546.694,-550.136 630.144,-530.742 599,-481 559.9,-418.551 478.931,-389.118 416.538,-375.352"/>
<polygon fill="midnightblue" stroke="midnightblue" points="417.2,-371.915 406.693,-373.274 415.755,-378.764 417.2,-371.915"/>
</g>
<!-- Node24 -->
<g id="node25" class="node"><title>Node24</title>
<g id="a_node25"><a xlink:href="BinOpFormula_8h.html" target="_top" xlink:title="pinhao/MachineLearning\l/GrammarEvolution/BinOpFormula.h">
<polygon fill="white" stroke="black" points="218,-481.5 218,-511.5 392,-511.5 392,-481.5 218,-481.5"/>
<text text-anchor="start" x="226" y="-499.5" font-family="Helvetica,sans-Serif" font-size="10.00">pinhao/MachineLearning</text>
<text text-anchor="middle" x="305" y="-488.5" font-family="Helvetica,sans-Serif" font-size="10.00">/GrammarEvolution/BinOpFormula.h</text>
</a>
</g>
</g>
<!-- Node9&#45;&gt;Node24 -->
<g id="edge43" class="edge"><title>Node9&#45;&gt;Node24</title>
<path fill="none" stroke="midnightblue" d="M381.735,-548.396C367.994,-539.282 349.914,-527.29 334.756,-517.236"/>
<polygon fill="midnightblue" stroke="midnightblue" points="336.491,-514.187 326.223,-511.577 332.622,-520.021 336.491,-514.187"/>
</g>
<!-- Node25 -->
<g id="node26" class="node"><title>Node25</title>
<g id="a_node26"><a xlink:href="LitFormula_8h.html" target="_top" xlink:title="pinhao/MachineLearning\l/GrammarEvolution/LitFormula.h">
<polygon fill="white" stroke="black" points="247,-414.5 247,-444.5 405,-444.5 405,-414.5 247,-414.5"/>
<text text-anchor="start" x="255" y="-432.5" font-family="Helvetica,sans-Serif" font-size="10.00">pinhao/MachineLearning</text>
<text text-anchor="middle" x="326" y="-421.5" font-family="Helvetica,sans-Serif" font-size="10.00">/GrammarEvolution/LitFormula.h</text>
</a>
</g>
</g>
<!-- Node9&#45;&gt;Node25 -->
<g id="edge51" class="edge"><title>Node9&#45;&gt;Node25</title>
<path fill="none" stroke="midnightblue" d="M326.965,-552.357C279.114,-544.237 223.713,-531.034 209,-512 187.436,-484.105 226.084,-462.022 264.618,-447.918"/>
<polygon fill="midnightblue" stroke="midnightblue" points="266.092,-451.111 274.376,-444.506 263.781,-444.503 266.092,-451.111"/>
</g>
<!-- Node26 -->
<g id="node27" class="node"><title>Node26</title>
<g id="a_node27"><a xlink:href="IfFormula_8h.html" target="_top" xlink:title="pinhao/MachineLearning\l/GrammarEvolution/IfFormula.h">
<polygon fill="white" stroke="black" points="75.5,-414.5 75.5,-444.5 228.5,-444.5 228.5,-414.5 75.5,-414.5"/>
<text text-anchor="start" x="83.5" y="-432.5" font-family="Helvetica,sans-Serif" font-size="10.00">pinhao/MachineLearning</text>
<text text-anchor="middle" x="152" y="-421.5" font-family="Helvetica,sans-Serif" font-size="10.00">/GrammarEvolution/IfFormula.h</text>
</a>
</g>
</g>
<!-- Node9&#45;&gt;Node26 -->
<g id="edge47" class="edge"><title>Node9&#45;&gt;Node26</title>
<path fill="none" stroke="midnightblue" d="M326.533,-557.976C285.327,-552.21 235.585,-539.535 199,-512 179.73,-497.497 167.054,-472.611 159.775,-454.144"/>
<polygon fill="midnightblue" stroke="midnightblue" points="163.02,-452.826 156.279,-444.652 156.451,-455.245 163.02,-452.826"/>
</g>
<!-- Node27 -->
<g id="node28" class="node"><title>Node27</title>
<g id="a_node28"><a xlink:href="FeatureFormula_8h.html" target="_top" xlink:title="pinhao/MachineLearning\l/GrammarEvolution/FeatureFormula.h">
<polygon fill="white" stroke="black" points="410,-481.5 410,-511.5 590,-511.5 590,-481.5 410,-481.5"/>
<text text-anchor="start" x="418" y="-499.5" font-family="Helvetica,sans-Serif" font-size="10.00">pinhao/MachineLearning</text>
<text text-anchor="middle" x="500" y="-488.5" font-family="Helvetica,sans-Serif" font-size="10.00">/GrammarEvolution/FeatureFormula.h</text>
</a>
</g>
</g>
<!-- Node9&#45;&gt;Node27 -->
<g id="edge49" class="edge"><title>Node9&#45;&gt;Node27</title>
<path fill="none" stroke="midnightblue" d="M424.048,-548.396C437.648,-539.282 455.544,-527.29 470.548,-517.236"/>
<polygon fill="midnightblue" stroke="midnightblue" points="472.635,-520.051 478.994,-511.577 468.738,-514.236 472.635,-520.051"/>
</g>
<!-- Node10&#45;&gt;Node7 -->
<g id="edge36" class="edge"><title>Node10&#45;&gt;Node7</title>
<path fill="none" stroke="midnightblue" d="M406.575,-359.186C613.065,-351.721 1183,-324.046 1183,-246 1183,-246 1183,-246 1183,-188 1183,-151.714 1183,-109.307 1183,-85.559"/>
<polygon fill="midnightblue" stroke="midnightblue" points="1186.5,-85.5085 1183,-75.5085 1179.5,-85.5086 1186.5,-85.5085"/>
</g>
<!-- Node10&#45;&gt;Node8 -->
<g id="edge41" class="edge"><title>Node10&#45;&gt;Node8</title>
<path fill="none" stroke="midnightblue" d="M259.097,-351.034C160.992,-335.026 0,-300.46 0,-246 0,-246 0,-246 0,-126.5 0,-31.7557 351.44,-14.6482 459.057,-11.6306"/>
<polygon fill="midnightblue" stroke="midnightblue" points="459.352,-15.1242 469.258,-11.367 459.171,-8.12656 459.352,-15.1242"/>
</g>
<!-- Node11 -->
<g id="node12" class="node"><title>Node11</title>
<g id="a_node12"><a xlink:href="FeatureSet_8h.html" target="_top" xlink:title="This file defines a class which contains the features selected by the user (by some command line)...">
<polygon fill="white" stroke="black" points="274,-291.5 274,-310.5 420,-310.5 420,-291.5 274,-291.5"/>
<text text-anchor="middle" x="347" y="-298.5" font-family="Helvetica,sans-Serif" font-size="10.00">pinhao/Features/FeatureSet.h</text>
</a>
</g>
</g>
<!-- Node10&#45;&gt;Node11 -->
<g id="edge12" class="edge"><title>Node10&#45;&gt;Node11</title>
<path fill="none" stroke="midnightblue" d="M336.318,-347.399C338.205,-339.377 340.592,-329.233 342.631,-320.569"/>
<polygon fill="midnightblue" stroke="midnightblue" points="346.079,-321.194 344.963,-310.658 339.265,-319.59 346.079,-321.194"/>
</g>
<!-- Node16 -->
<g id="node17" class="node"><title>Node16</title>
<polygon fill="white" stroke="#bfbfbf" points="257,-56.5 257,-75.5 301,-75.5 301,-56.5 257,-56.5"/>
<text text-anchor="middle" x="279" y="-63.5" font-family="Helvetica,sans-Serif" font-size="10.00">vector</text>
</g>
<!-- Node10&#45;&gt;Node16 -->
<g id="edge42" class="edge"><title>Node10&#45;&gt;Node16</title>
<path fill="none" stroke="midnightblue" d="M306.393,-347.422C292.225,-338.677 275.587,-326.206 265,-311 247.802,-286.299 246,-276.098 246,-246 246,-246 246,-246 246,-188 246,-150.235 261.147,-108.103 270.917,-84.8547"/>
<polygon fill="midnightblue" stroke="midnightblue" points="274.17,-86.1512 274.954,-75.5854 267.752,-83.3562 274.17,-86.1512"/>
</g>
<!-- Node21 -->
<g id="node22" class="node"><title>Node21</title>
<g id="a_node22"><a xlink:href="Random_8h.html" target="_top" xlink:title="pinhao/Support/Random.h">
<polygon fill="white" stroke="black" points="458,-291.5 458,-310.5 588,-310.5 588,-291.5 458,-291.5"/>
<text text-anchor="middle" x="523" y="-298.5" font-family="Helvetica,sans-Serif" font-size="10.00">pinhao/Support/Random.h</text>
</a>
</g>
</g>
<!-- Node10&#45;&gt;Node21 -->
<g id="edge34" class="edge"><title>Node10&#45;&gt;Node21</title>
<path fill="none" stroke="midnightblue" d="M378.027,-347.399C410.859,-337.118 454.821,-323.351 485.697,-313.682"/>
<polygon fill="midnightblue" stroke="midnightblue" points="487.134,-316.9 495.631,-310.571 485.042,-310.219 487.134,-316.9"/>
</g>
<!-- Node23 -->
<g id="node24" class="node"><title>Node23</title>
<g id="a_node24"><a xlink:href="Evolution_8h.html" target="_top" xlink:title="pinhao/MachineLearning\l/GrammarEvolution/Evolution.h">
<polygon fill="white" stroke="black" points="28,-112.5 28,-142.5 180,-142.5 180,-112.5 28,-112.5"/>
<text text-anchor="start" x="36" y="-130.5" font-family="Helvetica,sans-Serif" font-size="10.00">pinhao/MachineLearning</text>
<text text-anchor="middle" x="104" y="-119.5" font-family="Helvetica,sans-Serif" font-size="10.00">/GrammarEvolution/Evolution.h</text>
</a>
</g>
</g>
<!-- Node10&#45;&gt;Node23 -->
<g id="edge37" class="edge"><title>Node10&#45;&gt;Node23</title>
<path fill="none" stroke="midnightblue" d="M293.843,-347.311C273.904,-338.817 250.116,-326.616 232,-311 177.644,-264.147 134.875,-189.418 115.426,-151.778"/>
<polygon fill="midnightblue" stroke="midnightblue" points="118.426,-149.955 110.779,-142.622 112.184,-153.123 118.426,-149.955"/>
</g>
<!-- Node12 -->
<g id="node13" class="node"><title>Node12</title>
<g id="a_node13"><a xlink:href="Features_8h.html" target="_top" xlink:title="This file implements some basic feature classes that extends the base class Feature. ">
<polygon fill="white" stroke="black" points="358,-235.5 358,-254.5 494,-254.5 494,-235.5 358,-235.5"/>
<text text-anchor="middle" x="426" y="-242.5" font-family="Helvetica,sans-Serif" font-size="10.00">pinhao/Features/Features.h</text>
</a>
</g>
</g>
<!-- Node11&#45;&gt;Node12 -->
<g id="edge13" class="edge"><title>Node11&#45;&gt;Node12</title>
<path fill="none" stroke="midnightblue" d="M359.693,-291.324C371.901,-282.979 390.578,-270.212 405.003,-260.352"/>
<polygon fill="midnightblue" stroke="midnightblue" points="407.058,-263.187 413.339,-254.655 403.108,-257.408 407.058,-263.187"/>
</g>
<!-- Node15 -->
<g id="node16" class="node"><title>Node15</title>
<polygon fill="white" stroke="#bfbfbf" points="1028.5,-56.5 1028.5,-75.5 1063.5,-75.5 1063.5,-56.5 1028.5,-56.5"/>
<text text-anchor="middle" x="1046" y="-63.5" font-family="Helvetica,sans-Serif" font-size="10.00">map</text>
</g>
<!-- Node11&#45;&gt;Node15 -->
<g id="edge31" class="edge"><title>Node11&#45;&gt;Node15</title>
<path fill="none" stroke="midnightblue" d="M376.941,-291.492C408.372,-282.53 459.211,-267.95 503,-255 532.392,-246.308 539.012,-241.337 569,-235 687.028,-210.06 1028.93,-237.428 1104,-143 1112.57,-132.215 1110.06,-124.373 1104,-112 1097.34,-98.4103 1084.38,-87.7463 1072.4,-80.2175"/>
<polygon fill="midnightblue" stroke="midnightblue" points="1073.95,-77.0716 1063.55,-75.0748 1070.44,-83.1244 1073.95,-77.0716"/>
</g>
<!-- Node11&#45;&gt;Node16 -->
<g id="edge32" class="edge"><title>Node11&#45;&gt;Node16</title>
<path fill="none" stroke="midnightblue" d="M336.898,-291.465C327.775,-283.144 314.775,-269.635 308,-255 281.449,-197.649 278.388,-120.987 278.535,-85.9325"/>
<polygon fill="midnightblue" stroke="midnightblue" points="282.037,-85.7758 278.678,-75.7276 275.038,-85.6774 282.037,-85.7758"/>
</g>
<!-- Node17 -->
<g id="node18" class="node"><title>Node17</title>
<polygon fill="white" stroke="#bfbfbf" points="640.5,-56.5 640.5,-75.5 689.5,-75.5 689.5,-56.5 640.5,-56.5"/>
<text text-anchor="middle" x="665" y="-63.5" font-family="Helvetica,sans-Serif" font-size="10.00">cassert</text>
</g>
<!-- Node11&#45;&gt;Node17 -->
<g id="edge30" class="edge"><title>Node11&#45;&gt;Node17</title>
<path fill="none" stroke="midnightblue" d="M343.04,-291.153C330.464,-261.564 294.896,-164.95 341,-112 378.22,-69.2535 554.383,-65.8094 630.183,-66.3662"/>
<polygon fill="midnightblue" stroke="midnightblue" points="630.153,-69.866 640.188,-66.4676 630.224,-62.8663 630.153,-69.866"/>
</g>
<!-- Node19 -->
<g id="node20" class="node"><title>Node19</title>
<polygon fill="white" stroke="#bfbfbf" points="182,-56.5 182,-75.5 234,-75.5 234,-56.5 182,-56.5"/>
<text text-anchor="middle" x="208" y="-63.5" font-family="Helvetica,sans-Serif" font-size="10.00">memory</text>
</g>
<!-- Node11&#45;&gt;Node19 -->
<g id="edge33" class="edge"><title>Node11&#45;&gt;Node19</title>
<path fill="none" stroke="midnightblue" d="M335.329,-291.24C324.538,-282.76 308.483,-269.144 297,-255 260.725,-210.317 255.251,-195.648 232,-143 223.634,-124.055 216.846,-101.285 212.652,-85.6371"/>
<polygon fill="midnightblue" stroke="midnightblue" points="215.963,-84.4633 210.07,-75.6588 209.186,-86.2168 215.963,-84.4633"/>
</g>
<!-- Node13 -->
<g id="node14" class="node"><title>Node13</title>
<g id="a_node14"><a xlink:href="Feature_8h.html" target="_top" xlink:title="This file defines the base feature class. ">
<polygon fill="white" stroke="black" points="722.5,-179.5 722.5,-198.5 853.5,-198.5 853.5,-179.5 722.5,-179.5"/>
<text text-anchor="middle" x="788" y="-186.5" font-family="Helvetica,sans-Serif" font-size="10.00">pinhao/Features/Feature.h</text>
</a>
</g>
</g>
<!-- Node12&#45;&gt;Node13 -->
<g id="edge14" class="edge"><title>Node12&#45;&gt;Node13</title>
<path fill="none" stroke="midnightblue" d="M483.36,-235.444C547.834,-225.826 652.401,-210.228 720.689,-200.041"/>
<polygon fill="midnightblue" stroke="midnightblue" points="721.534,-203.454 730.908,-198.516 720.501,-196.53 721.534,-203.454"/>
</g>
<!-- Node13&#45;&gt;Node3 -->
<g id="edge26" class="edge"><title>Node13&#45;&gt;Node3</title>
<path fill="none" stroke="midnightblue" d="M726.783,-179.481C672.051,-171.456 589.793,-158.388 519,-143 514.325,-141.984 509.449,-140.822 504.623,-139.607"/>
<polygon fill="midnightblue" stroke="midnightblue" points="505.424,-136.199 494.865,-137.071 503.663,-142.974 505.424,-136.199"/>
</g>
<!-- Node13&#45;&gt;Node4 -->
<g id="edge29" class="edge"><title>Node13&#45;&gt;Node4</title>
<path fill="none" stroke="midnightblue" d="M745.705,-179.483C706.569,-171.273 646.925,-157.924 596,-143 593.215,-142.184 590.342,-141.286 587.47,-140.349"/>
<polygon fill="midnightblue" stroke="midnightblue" points="588.435,-136.981 577.841,-137.077 586.183,-143.608 588.435,-136.981"/>
</g>
<!-- Node14 -->
<g id="node15" class="node"><title>Node14</title>
<g id="a_node15"><a xlink:href="FeatureInfo_8h.html" target="_top" xlink:title="This file defines a class that holds some informations about a feature. ">
<polygon fill="white" stroke="black" points="931.5,-118 931.5,-137 1078.5,-137 1078.5,-118 931.5,-118"/>
<text text-anchor="middle" x="1005" y="-125" font-family="Helvetica,sans-Serif" font-size="10.00">pinhao/Features/FeatureInfo.h</text>
</a>
</g>
</g>
<!-- Node13&#45;&gt;Node14 -->
<g id="edge15" class="edge"><title>Node13&#45;&gt;Node14</title>
<path fill="none" stroke="midnightblue" d="M819.091,-179.475C857.281,-169.004 922.169,-151.212 964.299,-139.66"/>
<polygon fill="midnightblue" stroke="midnightblue" points="965.248,-143.029 973.967,-137.009 963.397,-136.278 965.248,-143.029"/>
</g>
<!-- Node13&#45;&gt;Node15 -->
<g id="edge27" class="edge"><title>Node13&#45;&gt;Node15</title>
<path fill="none" stroke="midnightblue" d="M853.594,-187.705C932.336,-185.792 1057.51,-177.265 1087,-143 1102.95,-124.476 1081.95,-98.7224 1064.6,-82.4604"/>
<polygon fill="midnightblue" stroke="midnightblue" points="1066.83,-79.7555 1057.03,-75.7166 1062.17,-84.9821 1066.83,-79.7555"/>
</g>
<!-- Node13&#45;&gt;Node17 -->
<g id="edge28" class="edge"><title>Node13&#45;&gt;Node17</title>
<path fill="none" stroke="midnightblue" d="M731.389,-179.438C690.628,-171.982 640.676,-159.733 628,-143 613.683,-124.101 632.174,-98.7865 647.765,-82.6812"/>
<polygon fill="midnightblue" stroke="midnightblue" points="650.322,-85.0754 655.029,-75.5833 645.43,-80.0687 650.322,-85.0754"/>
</g>
<!-- Node18 -->
<g id="node19" class="node"><title>Node18</title>
<g id="a_node19"><a xlink:href="FeatureRegistry_8h.html" target="_top" xlink:title="This file defines a class that has all the registered features. ">
<polygon fill="white" stroke="black" points="637.5,-118 637.5,-137 804.5,-137 804.5,-118 637.5,-118"/>
<text text-anchor="middle" x="721" y="-125" font-family="Helvetica,sans-Serif" font-size="10.00">pinhao/Features/FeatureRegistry.h</text>
</a>
</g>
</g>
<!-- Node13&#45;&gt;Node18 -->
<g id="edge21" class="edge"><title>Node13&#45;&gt;Node18</title>
<path fill="none" stroke="midnightblue" d="M778.401,-179.475C767.952,-170.197 751.032,-155.171 738.264,-143.831"/>
<polygon fill="midnightblue" stroke="midnightblue" points="740.383,-141.032 730.582,-137.009 735.735,-146.266 740.383,-141.032"/>
</g>
<!-- Node20 -->
<g id="node21" class="node"><title>Node20</title>
<polygon fill="white" stroke="#bfbfbf" points="822.5,-118 822.5,-137 913.5,-137 913.5,-118 822.5,-118"/>
<text text-anchor="middle" x="868" y="-125" font-family="Helvetica,sans-Serif" font-size="10.00">llvm/IR/Module.h</text>
</g>
<!-- Node13&#45;&gt;Node20 -->
<g id="edge25" class="edge"><title>Node13&#45;&gt;Node20</title>
<path fill="none" stroke="midnightblue" d="M799.462,-179.475C812.175,-170.02 832.913,-154.596 848.253,-143.187"/>
<polygon fill="midnightblue" stroke="midnightblue" points="850.624,-145.785 856.559,-137.009 846.446,-140.169 850.624,-145.785"/>
</g>
<!-- Node14&#45;&gt;Node7 -->
<g id="edge16" class="edge"><title>Node14&#45;&gt;Node7</title>
<path fill="none" stroke="midnightblue" d="M1030.5,-117.975C1061.3,-107.68 1113.27,-90.3103 1147.85,-78.7502"/>
<polygon fill="midnightblue" stroke="midnightblue" points="1149.17,-81.9989 1157.54,-75.5091 1146.95,-75.36 1149.17,-81.9989"/>
</g>
<!-- Node14&#45;&gt;Node8 -->
<g id="edge19" class="edge"><title>Node14&#45;&gt;Node8</title>
<path fill="none" stroke="midnightblue" d="M968.645,-117.994C911.212,-104.593 795.943,-77.8398 698,-56 634.971,-41.9455 561.049,-26.1056 520.489,-17.4699"/>
<polygon fill="midnightblue" stroke="midnightblue" points="521.194,-14.0416 510.685,-15.3844 519.738,-20.8884 521.194,-14.0416"/>
</g>
<!-- Node14&#45;&gt;Node15 -->
<g id="edge17" class="edge"><title>Node14&#45;&gt;Node15</title>
<path fill="none" stroke="midnightblue" d="M1010.87,-117.975C1016.96,-109.138 1026.64,-95.0886 1034.3,-83.975"/>
<polygon fill="midnightblue" stroke="midnightblue" points="1037.34,-85.7294 1040.14,-75.5091 1031.58,-81.7575 1037.34,-85.7294"/>
</g>
<!-- Node14&#45;&gt;Node16 -->
<g id="edge18" class="edge"><title>Node14&#45;&gt;Node16</title>
<path fill="none" stroke="midnightblue" d="M961.189,-117.976C948.579,-115.76 934.778,-113.559 922,-112 688.562,-83.5177 405.079,-71.4732 311.024,-68.0724"/>
<polygon fill="midnightblue" stroke="midnightblue" points="311.125,-64.5739 301.007,-67.7173 310.877,-71.5695 311.125,-64.5739"/>
</g>
<!-- Node14&#45;&gt;Node17 -->
<g id="edge20" class="edge"><title>Node14&#45;&gt;Node17</title>
<path fill="none" stroke="midnightblue" d="M956.286,-117.975C886.682,-105.794 760.475,-83.7081 699.633,-73.0608"/>
<polygon fill="midnightblue" stroke="midnightblue" points="700.207,-69.6082 689.754,-71.3319 699.001,-76.5034 700.207,-69.6082"/>
</g>
<!-- Node18&#45;&gt;Node15 -->
<g id="edge24" class="edge"><title>Node18&#45;&gt;Node15</title>
<path fill="none" stroke="midnightblue" d="M767.565,-117.975C836.324,-105.387 962.87,-82.2193 1018.52,-72.0314"/>
<polygon fill="midnightblue" stroke="midnightblue" points="1019.15,-75.4734 1028.36,-70.2297 1017.89,-68.5878 1019.15,-75.4734"/>
</g>
<!-- Node18&#45;&gt;Node17 -->
<g id="edge23" class="edge"><title>Node18&#45;&gt;Node17</title>
<path fill="none" stroke="midnightblue" d="M712.977,-117.975C704.41,-108.873 690.639,-94.241 680.043,-82.983"/>
<polygon fill="midnightblue" stroke="midnightblue" points="682.411,-80.3923 673.009,-75.5091 677.314,-85.1899 682.411,-80.3923"/>
</g>
<!-- Node18&#45;&gt;Node19 -->
<g id="edge22" class="edge"><title>Node18&#45;&gt;Node19</title>
<path fill="none" stroke="midnightblue" d="M645.393,-117.983C627.558,-115.997 608.61,-113.906 591,-112 438.608,-95.5042 399.251,-100.866 248,-76 246.736,-75.7922 245.451,-75.569 244.156,-75.3338"/>
<polygon fill="midnightblue" stroke="midnightblue" points="244.655,-71.8645 234.164,-73.3467 243.29,-78.7301 244.655,-71.8645"/>
</g>
<!-- Node22 -->
<g id="node23" class="node"><title>Node22</title>
<polygon fill="white" stroke="#bfbfbf" points="578.5,-235.5 578.5,-254.5 627.5,-254.5 627.5,-235.5 578.5,-235.5"/>
<text text-anchor="middle" x="603" y="-242.5" font-family="Helvetica,sans-Serif" font-size="10.00">random</text>
</g>
<!-- Node21&#45;&gt;Node22 -->
<g id="edge35" class="edge"><title>Node21&#45;&gt;Node22</title>
<path fill="none" stroke="midnightblue" d="M535.853,-291.324C548.216,-282.979 567.13,-270.212 581.737,-260.352"/>
<polygon fill="midnightblue" stroke="midnightblue" points="583.848,-263.15 590.179,-254.655 579.932,-257.348 583.848,-263.15"/>
</g>
<!-- Node23&#45;&gt;Node8 -->
<g id="edge39" class="edge"><title>Node23&#45;&gt;Node8</title>
<path fill="none" stroke="midnightblue" d="M113.334,-112.429C125.12,-95.9234 147.024,-69.1488 173,-56 222.783,-30.8006 389.439,-17.4499 459.044,-12.8616"/>
<polygon fill="midnightblue" stroke="midnightblue" points="459.593,-16.3336 469.349,-12.2 459.145,-9.34799 459.593,-16.3336"/>
</g>
<!-- Node23&#45;&gt;Node16 -->
<g id="edge38" class="edge"><title>Node23&#45;&gt;Node16</title>
<path fill="none" stroke="midnightblue" d="M145.473,-112.399C176.575,-101.825 218.524,-87.5619 247.047,-77.8641"/>
<polygon fill="midnightblue" stroke="midnightblue" points="248.195,-81.1706 256.536,-74.6378 245.941,-74.5432 248.195,-81.1706"/>
</g>
<!-- Node23&#45;&gt;Node19 -->
<g id="edge40" class="edge"><title>Node23&#45;&gt;Node19</title>
<path fill="none" stroke="midnightblue" d="M128.647,-112.399C145.317,-102.862 167.231,-90.3248 183.805,-80.8422"/>
<polygon fill="midnightblue" stroke="midnightblue" points="185.925,-83.6617 192.867,-75.6578 182.449,-77.5858 185.925,-83.6617"/>
</g>
<!-- Node24&#45;&gt;Node10 -->
<g id="edge44" class="edge"><title>Node24&#45;&gt;Node10</title>
<path fill="none" stroke="midnightblue" d="M365.163,-481.449C384.065,-473.895 402.885,-462.4 414,-445 421.417,-433.389 420.686,-426.047 414,-414 406.552,-400.579 393.889,-390.259 380.761,-382.552"/>
<polygon fill="midnightblue" stroke="midnightblue" points="382.117,-379.307 371.656,-377.629 378.788,-385.464 382.117,-379.307"/>
</g>
<!-- Node24&#45;&gt;Node25 -->
<g id="edge45" class="edge"><title>Node24&#45;&gt;Node25</title>
<path fill="none" stroke="midnightblue" d="M309.557,-481.396C312.116,-473.474 315.378,-463.379 318.32,-454.271"/>
<polygon fill="midnightblue" stroke="midnightblue" points="321.708,-455.168 321.452,-444.577 315.047,-453.016 321.708,-455.168"/>
</g>
<!-- Node25&#45;&gt;Node10 -->
<g id="edge46" class="edge"><title>Node25&#45;&gt;Node10</title>
<path fill="none" stroke="midnightblue" d="M327.519,-414.396C328.363,-406.56 329.436,-396.596 330.408,-387.565"/>
<polygon fill="midnightblue" stroke="midnightblue" points="333.893,-387.894 331.484,-377.577 326.933,-387.144 333.893,-387.894"/>
</g>
<!-- Node26&#45;&gt;Node10 -->
<g id="edge48" class="edge"><title>Node26&#45;&gt;Node10</title>
<path fill="none" stroke="midnightblue" d="M191.274,-414.396C218.551,-404.601 255.084,-391.481 284.227,-381.015"/>
<polygon fill="midnightblue" stroke="midnightblue" points="285.574,-384.25 293.802,-377.577 283.208,-377.662 285.574,-384.25"/>
</g>
<!-- Node27&#45;&gt;Node10 -->
<g id="edge50" class="edge"><title>Node27&#45;&gt;Node10</title>
<path fill="none" stroke="midnightblue" d="M490.648,-481.346C478.524,-463.819 455.954,-433.853 431,-414 414.95,-401.231 395.166,-390.304 377.586,-381.913"/>
<polygon fill="midnightblue" stroke="midnightblue" points="378.629,-378.54 368.084,-377.518 375.69,-384.893 378.629,-378.54"/>
</g>
</g>
</svg>
