<?xml version="1.0" encoding="UTF-8" standalone="no"?>
<!DOCTYPE svg PUBLIC "-//W3C//DTD SVG 1.1//EN"
 "http://www.w3.org/Graphics/SVG/1.1/DTD/svg11.dtd">
<!-- Generated by graphviz version 2.38.0 (20140413.2041)
 -->
<!-- Title: /home/yukiosir/workspace/CompilerProject/Software/pinhao/include/pinhao/MachineLearning/GrammarEvolution/Formula.h Pages: 1 -->
<svg width="361pt" height="239pt"
 viewBox="0.00 0.00 361.00 239.00" xmlns="http://www.w3.org/2000/svg" xmlns:xlink="http://www.w3.org/1999/xlink">
<g id="graph0" class="graph" transform="scale(1 1) rotate(0) translate(4 235)">
<title>/home/yukiosir/workspace/CompilerProject/Software/pinhao/include/pinhao/MachineLearning/GrammarEvolution/Formula.h</title>
<polygon fill="white" stroke="none" points="-4,4 -4,-235 357,-235 357,4 -4,4"/>
<!-- Node17 -->
<g id="node1" class="node"><title>Node17</title>
<polygon fill="#bfbfbf" stroke="black" points="80,-178.5 80,-230.5 270,-230.5 270,-178.5 80,-178.5"/>
<text text-anchor="start" x="88" y="-218.5" font-family="Helvetica,sans-Serif" font-size="10.00">/home/yukiosir/workspace</text>
<text text-anchor="start" x="88" y="-207.5" font-family="Helvetica,sans-Serif" font-size="10.00">/CompilerProject/Software</text>
<text text-anchor="start" x="88" y="-196.5" font-family="Helvetica,sans-Serif" font-size="10.00">/pinhao/include/pinhao/MachineLearning</text>
<text text-anchor="middle" x="175" y="-185.5" font-family="Helvetica,sans-Serif" font-size="10.00">/GrammarEvolution/Formula.h</text>
</g>
<!-- Node18 -->
<g id="node2" class="node"><title>Node18</title>
<g id="a_node2"><a xlink:href="FormulaYAMLWrapper_8h.html" target="_top" xlink:title="/home/yukiosir/workspace\l/CompilerProject/Software\l/pinhao/include/pinhao/Support\l/FormulaYAMLWrapper.h">
<polygon fill="white" stroke="black" points="100,-89.5 100,-141.5 250,-141.5 250,-89.5 100,-89.5"/>
<text text-anchor="start" x="108" y="-129.5" font-family="Helvetica,sans-Serif" font-size="10.00">/home/yukiosir/workspace</text>
<text text-anchor="start" x="108" y="-118.5" font-family="Helvetica,sans-Serif" font-size="10.00">/CompilerProject/Software</text>
<text text-anchor="start" x="108" y="-107.5" font-family="Helvetica,sans-Serif" font-size="10.00">/pinhao/include/pinhao/Support</text>
<text text-anchor="middle" x="175" y="-96.5" font-family="Helvetica,sans-Serif" font-size="10.00">/FormulaYAMLWrapper.h</text>
</a>
</g>
</g>
<!-- Node17&#45;&gt;Node18 -->
<g id="edge1" class="edge"><title>Node17&#45;&gt;Node18</title>
<path fill="none" stroke="midnightblue" d="M175,-168.191C175,-159.282 175,-149.899 175,-141.607"/>
<polygon fill="midnightblue" stroke="midnightblue" points="171.5,-168.336 175,-178.336 178.5,-168.336 171.5,-168.336"/>
</g>
<!-- Node19 -->
<g id="node3" class="node"><title>Node19</title>
<g id="a_node3"><a xlink:href="Formula_8cpp.html" target="_top" xlink:title="/home/yukiosir/workspace\l/CompilerProject/Software\l/pinhao/lib/MachineLearning\l/GrammarEvolution/Formula.cpp">
<polygon fill="white" stroke="black" points="0,-0.5 0,-52.5 158,-52.5 158,-0.5 0,-0.5"/>
<text text-anchor="start" x="8" y="-40.5" font-family="Helvetica,sans-Serif" font-size="10.00">/home/yukiosir/workspace</text>
<text text-anchor="start" x="8" y="-29.5" font-family="Helvetica,sans-Serif" font-size="10.00">/CompilerProject/Software</text>
<text text-anchor="start" x="8" y="-18.5" font-family="Helvetica,sans-Serif" font-size="10.00">/pinhao/lib/MachineLearning</text>
<text text-anchor="middle" x="79" y="-7.5" font-family="Helvetica,sans-Serif" font-size="10.00">/GrammarEvolution/Formula.cpp</text>
</a>
</g>
</g>
<!-- Node17&#45;&gt;Node19 -->
<g id="edge4" class="edge"><title>Node17&#45;&gt;Node19</title>
<path fill="none" stroke="midnightblue" d="M118.494,-172.337C107.736,-163.872 97.7461,-153.738 91,-142 75.2641,-114.62 74.3811,-77.4216 76.0112,-52.9542"/>
<polygon fill="midnightblue" stroke="midnightblue" points="116.704,-175.365 126.83,-178.482 120.858,-169.731 116.704,-175.365"/>
</g>
<!-- Node20 -->
<g id="node4" class="node"><title>Node20</title>
<g id="a_node4"><a xlink:href="FormulaYAMLWrapper_8cpp.html" target="_top" xlink:title="/home/yukiosir/workspace\l/CompilerProject/Software\l/pinhao/lib/Support/YAMLWrapper\l/FormulaYAMLWrapper.cpp">
<polygon fill="white" stroke="black" points="189,-0.5 189,-52.5 353,-52.5 353,-0.5 189,-0.5"/>
<text text-anchor="start" x="197" y="-40.5" font-family="Helvetica,sans-Serif" font-size="10.00">/home/yukiosir/workspace</text>
<text text-anchor="start" x="197" y="-29.5" font-family="Helvetica,sans-Serif" font-size="10.00">/CompilerProject/Software</text>
<text text-anchor="start" x="197" y="-18.5" font-family="Helvetica,sans-Serif" font-size="10.00">/pinhao/lib/Support/YAMLWrapper</text>
<text text-anchor="middle" x="271" y="-7.5" font-family="Helvetica,sans-Serif" font-size="10.00">/FormulaYAMLWrapper.cpp</text>
</a>
</g>
</g>
<!-- Node17&#45;&gt;Node20 -->
<g id="edge5" class="edge"><title>Node17&#45;&gt;Node20</title>
<path fill="none" stroke="midnightblue" d="M231.506,-172.337C242.264,-163.872 252.254,-153.738 259,-142 274.736,-114.62 275.619,-77.4216 273.989,-52.9542"/>
<polygon fill="midnightblue" stroke="midnightblue" points="229.142,-169.731 223.17,-178.482 233.296,-175.365 229.142,-169.731"/>
</g>
<!-- Node18&#45;&gt;Node19 -->
<g id="edge2" class="edge"><title>Node18&#45;&gt;Node19</title>
<path fill="none" stroke="midnightblue" d="M139.539,-82.3631C128.702,-72.542 116.948,-61.8899 106.705,-52.6075"/>
<polygon fill="midnightblue" stroke="midnightblue" points="137.473,-85.2142 147.233,-89.336 142.173,-80.0273 137.473,-85.2142"/>
</g>
<!-- Node18&#45;&gt;Node20 -->
<g id="edge3" class="edge"><title>Node18&#45;&gt;Node20</title>
<path fill="none" stroke="midnightblue" d="M210.461,-82.3631C221.298,-72.542 233.052,-61.8899 243.295,-52.6075"/>
<polygon fill="midnightblue" stroke="midnightblue" points="207.827,-80.0273 202.767,-89.336 212.527,-85.2142 207.827,-80.0273"/>
</g>
</g>
</svg>
