<?xml version="1.0" encoding="UTF-8" standalone="no"?>
<!DOCTYPE svg PUBLIC "-//W3C//DTD SVG 1.1//EN"
 "http://www.w3.org/Graphics/SVG/1.1/DTD/svg11.dtd">
<!-- Generated by graphviz version 2.38.0 (20140413.2041)
 -->
<!-- Title: /home/yukiosir/workspace/CompilerProject/Software/pinhao/include/pinhao/Support/FormulaYAMLWrapper.h Pages: 1 -->
<!--zoomable 676 -->
<svg id="main" version="1.1" xmlns="http://www.w3.org/2000/svg" xmlns:xlink="http://www.w3.org/1999/xlink" xml:space="preserve" onload="init(evt)">
<style type="text/css"><![CDATA[
.edge:hover path { stroke: red; }
.edge:hover polygon { stroke: red; fill: red; }
]]></style>
<script type="text/javascript"><![CDATA[
var edges = document.getElementsByTagName('g');
if (edges && edges.length) {
  for (var i=0;i<edges.length;i++) {
    if (edges[i].id.substr(0,4)=='edge') {
      edges[i].setAttribute('class','edge');
    }
  }
}
]]></script>
        <defs>
                <circle id="rim" cx="0" cy="0" r="7"/>
                <circle id="rim2" cx="0" cy="0" r="3.5"/>
                <g id="zoomPlus">
                        <use xlink:href="#rim" fill="#404040">
                                <set attributeName="fill" to="#808080" begin="zoomplus.mouseover" end="zoomplus.mouseout"/>
                        </use>
                        <path d="M-4,0h8M0,-4v8" fill="none" stroke="white" stroke-width="1.5" pointer-events="none"/>
                </g>
                <g id="zoomMin">
                        <use xlink:href="#rim" fill="#404040">
                                <set attributeName="fill" to="#808080" begin="zoomminus.mouseover" end="zoomminus.mouseout"/>
                        </use>
                        <path d="M-4,0h8" fill="none" stroke="white" stroke-width="1.5" pointer-events="none"/>
                </g>
                <g id="dirArrow">
                        <path fill="none" stroke="white" stroke-width="1.5" d="M0,-3.0v7 M-2.5,-0.5L0,-3.0L2.5,-0.5"/>
                </g>
               <g id="resetDef">
                       <use xlink:href="#rim2" fill="#404040">
                               <set attributeName="fill" to="#808080" begin="reset.mouseover" end="reset.mouseout"/>
                       </use>
               </g>
        </defs>

<script type="text/javascript">
var viewWidth = 1240;
var viewHeight = 676;
var sectionId = 'dynsection-0';
</script>
<script xlink:href="svgpan.js"/>
<svg id="graph" class="graph">
<g id="viewport">
<title>/home/yukiosir/workspace/CompilerProject/Software/pinhao/include/pinhao/Support/FormulaYAMLWrapper.h</title>
<polygon fill="white" stroke="none" points="-4,4 -4,-672 1236,-672 1236,4 -4,4"/>
<!-- Node0 -->
<g id="node1" class="node"><title>Node0</title>
<polygon fill="#bfbfbf" stroke="black" points="253,-615.5 253,-667.5 403,-667.5 403,-615.5 253,-615.5"/>
<text text-anchor="start" x="261" y="-655.5" font-family="Helvetica,sans-Serif" font-size="10.00">/home/yukiosir/workspace</text>
<text text-anchor="start" x="261" y="-644.5" font-family="Helvetica,sans-Serif" font-size="10.00">/CompilerProject/Software</text>
<text text-anchor="start" x="261" y="-633.5" font-family="Helvetica,sans-Serif" font-size="10.00">/pinhao/include/pinhao/Support</text>
<text text-anchor="middle" x="328" y="-622.5" font-family="Helvetica,sans-Serif" font-size="10.00">/FormulaYAMLWrapper.h</text>
</g>
<!-- Node1 -->
<g id="node2" class="node"><title>Node1</title>
<g id="a_node2"><a xlink:href="YAMLWrapper_8h.html" target="_top" xlink:title="pinhao/Support/YAMLWrapper.h">
<polygon fill="white" stroke="black" points="19.5,-179.5 19.5,-198.5 176.5,-198.5 176.5,-179.5 19.5,-179.5"/>
<text text-anchor="middle" x="98" y="-186.5" font-family="Helvetica,sans-Serif" font-size="10.00">pinhao/Support/YAMLWrapper.h</text>
</a>
</g>
</g>
<!-- Node0&#45;&gt;Node1 -->
<g id="edge1" class="edge"><title>Node0&#45;&gt;Node1</title>
<path fill="none" stroke="midnightblue" d="M252.7,-626.151C185.955,-608.554 99,-571.44 99,-497.5 99,-497.5 99,-497.5 99,-300 99,-267.947 98.5702,-230.642 98.2741,-208.748"/>
<polygon fill="midnightblue" stroke="midnightblue" points="101.771,-208.507 98.1307,-198.558 94.7719,-208.606 101.771,-208.507"/>
</g>
<!-- Node5 -->
<g id="node6" class="node"><title>Node5</title>
<g id="a_node6"><a xlink:href="YamlOptions_8h.html" target="_top" xlink:title="pinhao/Support/YamlOptions.h">
<polygon fill="white" stroke="black" points="142.5,-420 142.5,-439 291.5,-439 291.5,-420 142.5,-420"/>
<text text-anchor="middle" x="217" y="-427" font-family="Helvetica,sans-Serif" font-size="10.00">pinhao/Support/YamlOptions.h</text>
</a>
</g>
</g>
<!-- Node0&#45;&gt;Node5 -->
<g id="edge5" class="edge"><title>Node0&#45;&gt;Node5</title>
<path fill="none" stroke="midnightblue" d="M314.611,-615.169C291.842,-572.093 246.134,-485.617 226.413,-448.308"/>
<polygon fill="midnightblue" stroke="midnightblue" points="229.348,-446.37 221.58,-439.165 223.159,-449.642 229.348,-446.37"/>
</g>
<!-- Node6 -->
<g id="node7" class="node"><title>Node6</title>
<g id="a_node7"><a xlink:href="Types_8h.html" target="_top" xlink:title="pinhao/Support/Types.h">
<polygon fill="white" stroke="black" points="1046,-56.5 1046,-75.5 1166,-75.5 1166,-56.5 1046,-56.5"/>
<text text-anchor="middle" x="1106" y="-63.5" font-family="Helvetica,sans-Serif" font-size="10.00">pinhao/Support/Types.h</text>
</a>
</g>
</g>
<!-- Node0&#45;&gt;Node6 -->
<g id="edge7" class="edge"><title>Node0&#45;&gt;Node6</title>
<path fill="none" stroke="midnightblue" d="M403.133,-636.501C620.061,-623.96 1232,-581.169 1232,-497.5 1232,-497.5 1232,-497.5 1232,-188 1232,-135.242 1173.82,-98.3135 1136.53,-80.0618"/>
<polygon fill="midnightblue" stroke="midnightblue" points="1137.63,-76.7104 1127.09,-75.6183 1134.65,-83.0439 1137.63,-76.7104"/>
</g>
<!-- Node8 -->
<g id="node9" class="node"><title>Node8</title>
<g id="a_node9"><a xlink:href="Formulas_8h.html" target="_top" xlink:title="pinhao/MachineLearning\l/GrammarEvolution/Formulas.h">
<polygon fill="white" stroke="black" points="408,-548.5 408,-578.5 560,-578.5 560,-548.5 408,-548.5"/>
<text text-anchor="start" x="416" y="-566.5" font-family="Helvetica,sans-Serif" font-size="10.00">pinhao/MachineLearning</text>
<text text-anchor="middle" x="484" y="-555.5" font-family="Helvetica,sans-Serif" font-size="10.00">/GrammarEvolution/Formulas.h</text>
</a>
</g>
</g>
<!-- Node0&#45;&gt;Node8 -->
<g id="edge9" class="edge"><title>Node0&#45;&gt;Node8</title>
<path fill="none" stroke="midnightblue" d="M379.513,-615.404C401.118,-604.878 425.8,-592.854 445.749,-583.135"/>
<polygon fill="midnightblue" stroke="midnightblue" points="447.382,-586.233 454.839,-578.707 444.316,-579.94 447.382,-586.233"/>
</g>
<!-- Node2 -->
<g id="node3" class="node"><title>Node2</title>
<polygon fill="white" stroke="#bfbfbf" points="142.5,-118 142.5,-137 231.5,-137 231.5,-118 142.5,-118"/>
<text text-anchor="middle" x="187" y="-125" font-family="Helvetica,sans-Serif" font-size="10.00">yaml&#45;cpp/yaml.h</text>
</g>
<!-- Node1&#45;&gt;Node2 -->
<g id="edge2" class="edge"><title>Node1&#45;&gt;Node2</title>
<path fill="none" stroke="midnightblue" d="M110.752,-179.475C125.027,-169.931 148.397,-154.307 165.508,-142.868"/>
<polygon fill="midnightblue" stroke="midnightblue" points="167.904,-145.477 174.272,-137.009 164.014,-139.657 167.904,-145.477"/>
</g>
<!-- Node3 -->
<g id="node4" class="node"><title>Node3</title>
<polygon fill="white" stroke="#bfbfbf" points="70,-118 70,-137 124,-137 124,-118 70,-118"/>
<text text-anchor="middle" x="97" y="-125" font-family="Helvetica,sans-Serif" font-size="10.00">iostream</text>
</g>
<!-- Node1&#45;&gt;Node3 -->
<g id="edge3" class="edge"><title>Node1&#45;&gt;Node3</title>
<path fill="none" stroke="midnightblue" d="M97.8567,-179.475C97.7156,-171.08 97.4955,-157.981 97.3137,-147.163"/>
<polygon fill="midnightblue" stroke="midnightblue" points="100.811,-146.949 97.143,-137.009 93.8116,-147.067 100.811,-146.949"/>
</g>
<!-- Node4 -->
<g id="node5" class="node"><title>Node4</title>
<polygon fill="white" stroke="#bfbfbf" points="0,-118 0,-137 52,-137 52,-118 0,-118"/>
<text text-anchor="middle" x="26" y="-125" font-family="Helvetica,sans-Serif" font-size="10.00">ostream</text>
</g>
<!-- Node1&#45;&gt;Node4 -->
<g id="edge4" class="edge"><title>Node1&#45;&gt;Node4</title>
<path fill="none" stroke="midnightblue" d="M87.6842,-179.475C76.3494,-170.108 57.9267,-154.884 44.161,-143.508"/>
<polygon fill="midnightblue" stroke="midnightblue" points="46.2348,-140.681 36.2967,-137.009 41.7756,-146.077 46.2348,-140.681"/>
</g>
<!-- Node5&#45;&gt;Node2 -->
<g id="edge6" class="edge"><title>Node5&#45;&gt;Node2</title>
<path fill="none" stroke="midnightblue" d="M216.312,-419.917C214.736,-399.498 211,-346.413 211,-302 211,-302 211,-302 211,-244 211,-208.975 200.29,-169.202 193.179,-146.655"/>
<polygon fill="midnightblue" stroke="midnightblue" points="196.477,-145.481 190.04,-137.067 189.825,-147.659 196.477,-145.481"/>
</g>
<!-- Node7 -->
<g id="node8" class="node"><title>Node7</title>
<polygon fill="white" stroke="#bfbfbf" points="1007.5,-0.5 1007.5,-19.5 1048.5,-19.5 1048.5,-0.5 1007.5,-0.5"/>
<text text-anchor="middle" x="1028" y="-7.5" font-family="Helvetica,sans-Serif" font-size="10.00">string</text>
</g>
<!-- Node6&#45;&gt;Node7 -->
<g id="edge8" class="edge"><title>Node6&#45;&gt;Node7</title>
<path fill="none" stroke="midnightblue" d="M1093.47,-56.324C1081.41,-47.979 1062.97,-35.2122 1048.73,-25.3524"/>
<polygon fill="midnightblue" stroke="midnightblue" points="1050.72,-22.469 1040.5,-19.6545 1046.73,-28.2243 1050.72,-22.469"/>
</g>
<!-- Node9 -->
<g id="node10" class="node"><title>Node9</title>
<g id="a_node10"><a xlink:href="Formula_8h.html" target="_top" xlink:title="pinhao/MachineLearning\l/GrammarEvolution/Formula.h">
<polygon fill="white" stroke="black" points="470.5,-347.5 470.5,-377.5 617.5,-377.5 617.5,-347.5 470.5,-347.5"/>
<text text-anchor="start" x="478.5" y="-365.5" font-family="Helvetica,sans-Serif" font-size="10.00">pinhao/MachineLearning</text>
<text text-anchor="middle" x="544" y="-354.5" font-family="Helvetica,sans-Serif" font-size="10.00">/GrammarEvolution/Formula.h</text>
</a>
</g>
</g>
<!-- Node8&#45;&gt;Node9 -->
<g id="edge10" class="edge"><title>Node8&#45;&gt;Node9</title>
<path fill="none" stroke="midnightblue" d="M498.601,-548.422C507.453,-538.983 518.138,-525.793 524,-512 541.491,-470.847 544.51,-418.008 544.606,-387.73"/>
<polygon fill="midnightblue" stroke="midnightblue" points="548.105,-387.632 544.53,-377.659 541.106,-387.685 548.105,-387.632"/>
</g>
<!-- Node23 -->
<g id="node24" class="node"><title>Node23</title>
<g id="a_node24"><a xlink:href="BinOpFormula_8h.html" target="_top" xlink:title="pinhao/MachineLearning\l/GrammarEvolution/BinOpFormula.h">
<polygon fill="white" stroke="black" points="571,-481.5 571,-511.5 745,-511.5 745,-481.5 571,-481.5"/>
<text text-anchor="start" x="579" y="-499.5" font-family="Helvetica,sans-Serif" font-size="10.00">pinhao/MachineLearning</text>
<text text-anchor="middle" x="658" y="-488.5" font-family="Helvetica,sans-Serif" font-size="10.00">/GrammarEvolution/BinOpFormula.h</text>
</a>
</g>
</g>
<!-- Node8&#45;&gt;Node23 -->
<g id="edge42" class="edge"><title>Node8&#45;&gt;Node23</title>
<path fill="none" stroke="midnightblue" d="M521.755,-548.396C547.863,-538.643 582.792,-525.595 610.747,-515.152"/>
<polygon fill="midnightblue" stroke="midnightblue" points="612.175,-518.355 620.318,-511.577 609.726,-511.797 612.175,-518.355"/>
</g>
<!-- Node24 -->
<g id="node25" class="node"><title>Node24</title>
<g id="a_node25"><a xlink:href="LitFormula_8h.html" target="_top" xlink:title="pinhao/MachineLearning\l/GrammarEvolution/LitFormula.h">
<polygon fill="white" stroke="black" points="609,-414.5 609,-444.5 767,-444.5 767,-414.5 609,-414.5"/>
<text text-anchor="start" x="617" y="-432.5" font-family="Helvetica,sans-Serif" font-size="10.00">pinhao/MachineLearning</text>
<text text-anchor="middle" x="688" y="-421.5" font-family="Helvetica,sans-Serif" font-size="10.00">/GrammarEvolution/LitFormula.h</text>
</a>
</g>
</g>
<!-- Node8&#45;&gt;Node24 -->
<g id="edge50" class="edge"><title>Node8&#45;&gt;Node24</title>
<path fill="none" stroke="midnightblue" d="M560.15,-558.831C631.183,-553.624 729.744,-541.214 754,-512 771.375,-491.074 745.997,-466.818 721.847,-450.244"/>
<polygon fill="midnightblue" stroke="midnightblue" points="723.709,-447.28 713.428,-444.72 719.868,-453.132 723.709,-447.28"/>
</g>
<!-- Node25 -->
<g id="node26" class="node"><title>Node25</title>
<g id="a_node26"><a xlink:href="IfFormula_8h.html" target="_top" xlink:title="pinhao/MachineLearning\l/GrammarEvolution/IfFormula.h">
<polygon fill="white" stroke="black" points="317.5,-414.5 317.5,-444.5 470.5,-444.5 470.5,-414.5 317.5,-414.5"/>
<text text-anchor="start" x="325.5" y="-432.5" font-family="Helvetica,sans-Serif" font-size="10.00">pinhao/MachineLearning</text>
<text text-anchor="middle" x="394" y="-421.5" font-family="Helvetica,sans-Serif" font-size="10.00">/GrammarEvolution/IfFormula.h</text>
</a>
</g>
</g>
<!-- Node8&#45;&gt;Node25 -->
<g id="edge46" class="edge"><title>Node8&#45;&gt;Node25</title>
<path fill="none" stroke="midnightblue" d="M407.908,-557.181C377.349,-550.854 344.936,-537.932 326,-512 317.875,-500.873 319.809,-493.309 326,-481 332.371,-468.333 343.589,-458.044 355.1,-450.138"/>
<polygon fill="midnightblue" stroke="midnightblue" points="357.32,-452.875 363.884,-444.558 353.566,-446.966 357.32,-452.875"/>
</g>
<!-- Node26 -->
<g id="node27" class="node"><title>Node26</title>
<g id="a_node27"><a xlink:href="FeatureFormula_8h.html" target="_top" xlink:title="pinhao/MachineLearning\l/GrammarEvolution/FeatureFormula.h">
<polygon fill="white" stroke="black" points="335,-481.5 335,-511.5 515,-511.5 515,-481.5 335,-481.5"/>
<text text-anchor="start" x="343" y="-499.5" font-family="Helvetica,sans-Serif" font-size="10.00">pinhao/MachineLearning</text>
<text text-anchor="middle" x="425" y="-488.5" font-family="Helvetica,sans-Serif" font-size="10.00">/GrammarEvolution/FeatureFormula.h</text>
</a>
</g>
</g>
<!-- Node8&#45;&gt;Node26 -->
<g id="edge48" class="edge"><title>Node8&#45;&gt;Node26</title>
<path fill="none" stroke="midnightblue" d="M471.198,-548.396C463.466,-539.878 453.453,-528.847 444.727,-519.233"/>
<polygon fill="midnightblue" stroke="midnightblue" points="447.09,-516.629 437.777,-511.577 441.907,-521.333 447.09,-516.629"/>
</g>
<!-- Node9&#45;&gt;Node6 -->
<g id="edge35" class="edge"><title>Node9&#45;&gt;Node6</title>
<path fill="none" stroke="midnightblue" d="M617.517,-355.238C780.127,-340.398 1156,-300.232 1156,-246 1156,-246 1156,-246 1156,-188 1156,-148.422 1132.87,-106.704 1118.07,-84.0685"/>
<polygon fill="midnightblue" stroke="midnightblue" points="1120.84,-81.9132 1112.33,-75.5975 1115.04,-85.8395 1120.84,-81.9132"/>
</g>
<!-- Node9&#45;&gt;Node7 -->
<g id="edge40" class="edge"><title>Node9&#45;&gt;Node7</title>
<path fill="none" stroke="midnightblue" d="M617.662,-360.511C714.876,-357.724 890.686,-347.53 1036,-311 1109.64,-292.487 1194,-321.932 1194,-246 1194,-246 1194,-246 1194,-126.5 1194,-94.0487 1197.56,-79.3312 1175,-56 1144.28,-24.2269 1091.8,-14.7297 1058.57,-11.9846"/>
<polygon fill="midnightblue" stroke="midnightblue" points="1058.71,-8.48674 1048.5,-11.3109 1058.25,-15.4711 1058.71,-8.48674"/>
</g>
<!-- Node10 -->
<g id="node11" class="node"><title>Node10</title>
<g id="a_node11"><a xlink:href="FeatureSet_8h.html" target="_top" xlink:title="This file defines a class which contains the features selected by the user (by some command line)...">
<polygon fill="white" stroke="black" points="471,-291.5 471,-310.5 617,-310.5 617,-291.5 471,-291.5"/>
<text text-anchor="middle" x="544" y="-298.5" font-family="Helvetica,sans-Serif" font-size="10.00">pinhao/Features/FeatureSet.h</text>
</a>
</g>
</g>
<!-- Node9&#45;&gt;Node10 -->
<g id="edge11" class="edge"><title>Node9&#45;&gt;Node10</title>
<path fill="none" stroke="midnightblue" d="M544,-347.399C544,-339.466 544,-329.458 544,-320.858"/>
<polygon fill="midnightblue" stroke="midnightblue" points="547.5,-320.658 544,-310.658 540.5,-320.658 547.5,-320.658"/>
</g>
<!-- Node15 -->
<g id="node16" class="node"><title>Node15</title>
<polygon fill="white" stroke="#bfbfbf" points="405,-56.5 405,-75.5 449,-75.5 449,-56.5 405,-56.5"/>
<text text-anchor="middle" x="427" y="-63.5" font-family="Helvetica,sans-Serif" font-size="10.00">vector</text>
</g>
<!-- Node9&#45;&gt;Node15 -->
<g id="edge41" class="edge"><title>Node9&#45;&gt;Node15</title>
<path fill="none" stroke="midnightblue" d="M473.798,-347.469C389.697,-328.602 260,-292.041 260,-246 260,-246 260,-246 260,-188 260,-153.183 255.006,-137.23 279,-112 309.227,-80.2162 361.125,-70.6715 394.739,-67.9262"/>
<polygon fill="midnightblue" stroke="midnightblue" points="395.211,-71.4028 404.96,-67.2542 394.752,-64.4179 395.211,-71.4028"/>
</g>
<!-- Node20 -->
<g id="node21" class="node"><title>Node20</title>
<g id="a_node21"><a xlink:href="Random_8h.html" target="_top" xlink:title="pinhao/Support/Random.h">
<polygon fill="white" stroke="black" points="817,-291.5 817,-310.5 947,-310.5 947,-291.5 817,-291.5"/>
<text text-anchor="middle" x="882" y="-298.5" font-family="Helvetica,sans-Serif" font-size="10.00">pinhao/Support/Random.h</text>
</a>
</g>
</g>
<!-- Node9&#45;&gt;Node20 -->
<g id="edge33" class="edge"><title>Node9&#45;&gt;Node20</title>
<path fill="none" stroke="midnightblue" d="M617.758,-348.516C679.602,-337.629 766.711,-322.295 823.749,-312.254"/>
<polygon fill="midnightblue" stroke="midnightblue" points="824.444,-315.686 833.685,-310.505 823.23,-308.792 824.444,-315.686"/>
</g>
<!-- Node22 -->
<g id="node23" class="node"><title>Node22</title>
<g id="a_node23"><a xlink:href="Evolution_8h.html" target="_top" xlink:title="pinhao/MachineLearning\l/GrammarEvolution/Evolution.h">
<polygon fill="white" stroke="black" points="288,-112.5 288,-142.5 440,-142.5 440,-112.5 288,-112.5"/>
<text text-anchor="start" x="296" y="-130.5" font-family="Helvetica,sans-Serif" font-size="10.00">pinhao/MachineLearning</text>
<text text-anchor="middle" x="364" y="-119.5" font-family="Helvetica,sans-Serif" font-size="10.00">/GrammarEvolution/Evolution.h</text>
</a>
</g>
</g>
<!-- Node9&#45;&gt;Node22 -->
<g id="edge36" class="edge"><title>Node9&#45;&gt;Node22</title>
<path fill="none" stroke="midnightblue" d="M512.819,-347.31C496.22,-338.605 476.334,-326.209 462,-311 416.682,-262.916 385.935,-189.851 372.186,-152.427"/>
<polygon fill="midnightblue" stroke="midnightblue" points="375.429,-151.101 368.761,-142.868 368.839,-153.462 375.429,-151.101"/>
</g>
<!-- Node11 -->
<g id="node12" class="node"><title>Node11</title>
<g id="a_node12"><a xlink:href="Features_8h.html" target="_top" xlink:title="This file implements some basic feature classes that extends the base class Feature. ">
<polygon fill="white" stroke="black" points="579,-235.5 579,-254.5 715,-254.5 715,-235.5 579,-235.5"/>
<text text-anchor="middle" x="647" y="-242.5" font-family="Helvetica,sans-Serif" font-size="10.00">pinhao/Features/Features.h</text>
</a>
</g>
</g>
<!-- Node10&#45;&gt;Node11 -->
<g id="edge12" class="edge"><title>Node10&#45;&gt;Node11</title>
<path fill="none" stroke="midnightblue" d="M560.549,-291.324C576.992,-282.703 602.435,-269.364 621.468,-259.386"/>
<polygon fill="midnightblue" stroke="midnightblue" points="623.261,-262.398 630.492,-254.655 620.011,-256.198 623.261,-262.398"/>
</g>
<!-- Node14 -->
<g id="node15" class="node"><title>Node14</title>
<polygon fill="white" stroke="#bfbfbf" points="747.5,-56.5 747.5,-75.5 782.5,-75.5 782.5,-56.5 747.5,-56.5"/>
<text text-anchor="middle" x="765" y="-63.5" font-family="Helvetica,sans-Serif" font-size="10.00">map</text>
</g>
<!-- Node10&#45;&gt;Node14 -->
<g id="edge30" class="edge"><title>Node10&#45;&gt;Node14</title>
<path fill="none" stroke="midnightblue" d="M541.644,-291.142C534.346,-261.519 515.303,-164.809 562,-112 584.891,-86.1133 687.08,-73.7776 737.157,-69.2027"/>
<polygon fill="midnightblue" stroke="midnightblue" points="737.629,-72.6749 747.286,-68.3187 737.02,-65.7014 737.629,-72.6749"/>
</g>
<!-- Node10&#45;&gt;Node15 -->
<g id="edge31" class="edge"><title>Node10&#45;&gt;Node15</title>
<path fill="none" stroke="midnightblue" d="M539.697,-291.431C522.644,-257.47 459.586,-131.894 435.99,-84.9032"/>
<polygon fill="midnightblue" stroke="midnightblue" points="439.082,-83.2617 431.467,-75.8958 432.827,-86.403 439.082,-83.2617"/>
</g>
<!-- Node16 -->
<g id="node17" class="node"><title>Node16</title>
<polygon fill="white" stroke="#bfbfbf" points="979.5,-56.5 979.5,-75.5 1028.5,-75.5 1028.5,-56.5 979.5,-56.5"/>
<text text-anchor="middle" x="1004" y="-63.5" font-family="Helvetica,sans-Serif" font-size="10.00">cassert</text>
</g>
<!-- Node10&#45;&gt;Node16 -->
<g id="edge29" class="edge"><title>Node10&#45;&gt;Node16</title>
<path fill="none" stroke="midnightblue" d="M604.031,-291.49C731.144,-272.101 1020.46,-220.262 1077,-143 1085.14,-131.882 1083.72,-124.03 1077,-112 1068.61,-96.9644 1052.89,-86.3292 1038.19,-79.1875"/>
<polygon fill="midnightblue" stroke="midnightblue" points="1039.32,-75.8594 1028.76,-74.9877 1036.47,-82.2538 1039.32,-75.8594"/>
</g>
<!-- Node18 -->
<g id="node19" class="node"><title>Node18</title>
<polygon fill="white" stroke="#bfbfbf" points="480,-56.5 480,-75.5 532,-75.5 532,-56.5 480,-56.5"/>
<text text-anchor="middle" x="506" y="-63.5" font-family="Helvetica,sans-Serif" font-size="10.00">memory</text>
</g>
<!-- Node10&#45;&gt;Node18 -->
<g id="edge32" class="edge"><title>Node10&#45;&gt;Node18</title>
<path fill="none" stroke="midnightblue" d="M540.864,-291.493C537.676,-282.532 532.819,-267.951 530,-255 516.73,-194.028 509.95,-120.223 507.327,-86.0573"/>
<polygon fill="midnightblue" stroke="midnightblue" points="510.79,-85.4288 506.569,-75.7115 503.809,-85.9406 510.79,-85.4288"/>
</g>
<!-- Node12 -->
<g id="node13" class="node"><title>Node12</title>
<g id="a_node13"><a xlink:href="Feature_8h.html" target="_top" xlink:title="This file defines the base feature class. ">
<polygon fill="white" stroke="black" points="662.5,-179.5 662.5,-198.5 793.5,-198.5 793.5,-179.5 662.5,-179.5"/>
<text text-anchor="middle" x="728" y="-186.5" font-family="Helvetica,sans-Serif" font-size="10.00">pinhao/Features/Feature.h</text>
</a>
</g>
</g>
<!-- Node11&#45;&gt;Node12 -->
<g id="edge13" class="edge"><title>Node11&#45;&gt;Node12</title>
<path fill="none" stroke="midnightblue" d="M660.014,-235.324C672.532,-226.979 691.682,-214.212 706.471,-204.352"/>
<polygon fill="midnightblue" stroke="midnightblue" points="708.639,-207.114 715.018,-198.655 704.756,-201.289 708.639,-207.114"/>
</g>
<!-- Node12&#45;&gt;Node2 -->
<g id="edge25" class="edge"><title>Node12&#45;&gt;Node2</title>
<path fill="none" stroke="midnightblue" d="M662.432,-182.596C574.865,-175.112 414.975,-160.515 279,-143 266.972,-141.451 254.096,-139.565 241.9,-137.672"/>
<polygon fill="midnightblue" stroke="midnightblue" points="242.272,-134.188 231.849,-136.088 241.182,-141.102 242.272,-134.188"/>
</g>
<!-- Node12&#45;&gt;Node3 -->
<g id="edge28" class="edge"><title>Node12&#45;&gt;Node3</title>
<path fill="none" stroke="midnightblue" d="M662.325,-185.575C529.256,-180.244 232.056,-166.109 133,-143 130.324,-142.376 127.587,-141.582 124.876,-140.69"/>
<polygon fill="midnightblue" stroke="midnightblue" points="125.924,-137.345 115.331,-137.146 123.487,-143.907 125.924,-137.345"/>
</g>
<!-- Node13 -->
<g id="node14" class="node"><title>Node13</title>
<g id="a_node14"><a xlink:href="FeatureInfo_8h.html" target="_top" xlink:title="This file defines a class that holds some informations about a feature. ">
<polygon fill="white" stroke="black" points="904.5,-118 904.5,-137 1051.5,-137 1051.5,-118 904.5,-118"/>
<text text-anchor="middle" x="978" y="-125" font-family="Helvetica,sans-Serif" font-size="10.00">pinhao/Features/FeatureInfo.h</text>
</a>
</g>
</g>
<!-- Node12&#45;&gt;Node13 -->
<g id="edge14" class="edge"><title>Node12&#45;&gt;Node13</title>
<path fill="none" stroke="midnightblue" d="M763.819,-179.475C808.188,-168.915 883.836,-150.911 932.332,-139.369"/>
<polygon fill="midnightblue" stroke="midnightblue" points="933.33,-142.729 942.248,-137.009 931.709,-135.92 933.33,-142.729"/>
</g>
<!-- Node12&#45;&gt;Node14 -->
<g id="edge26" class="edge"><title>Node12&#45;&gt;Node14</title>
<path fill="none" stroke="midnightblue" d="M793.806,-180.654C817.37,-174.485 841.634,-163.278 856,-143 863.965,-131.758 863.269,-123.704 856,-112 842.255,-89.8694 814.045,-78.2927 792.656,-72.4604"/>
<polygon fill="midnightblue" stroke="midnightblue" points="793.343,-69.0253 782.797,-70.0376 791.673,-75.823 793.343,-69.0253"/>
</g>
<!-- Node12&#45;&gt;Node16 -->
<g id="edge27" class="edge"><title>Node12&#45;&gt;Node16</title>
<path fill="none" stroke="midnightblue" d="M793.66,-188.864C880.388,-188.439 1026.13,-181.767 1060,-143 1069.06,-132.624 1065.95,-124.424 1060,-112 1053.75,-98.9542 1041.66,-88.4921 1030.32,-80.9506"/>
<polygon fill="midnightblue" stroke="midnightblue" points="1031.85,-77.7869 1021.5,-75.5351 1028.19,-83.7515 1031.85,-77.7869"/>
</g>
<!-- Node17 -->
<g id="node18" class="node"><title>Node17</title>
<g id="a_node18"><a xlink:href="FeatureRegistry_8h.html" target="_top" xlink:title="This file defines a class that has all the registered features. ">
<polygon fill="white" stroke="black" points="571.5,-118 571.5,-137 738.5,-137 738.5,-118 571.5,-118"/>
<text text-anchor="middle" x="655" y="-125" font-family="Helvetica,sans-Serif" font-size="10.00">pinhao/Features/FeatureRegistry.h</text>
</a>
</g>
</g>
<!-- Node12&#45;&gt;Node17 -->
<g id="edge20" class="edge"><title>Node12&#45;&gt;Node17</title>
<path fill="none" stroke="midnightblue" d="M717.541,-179.475C706.049,-170.108 687.37,-154.884 673.413,-143.508"/>
<polygon fill="midnightblue" stroke="midnightblue" points="675.402,-140.614 665.44,-137.009 670.98,-146.04 675.402,-140.614"/>
</g>
<!-- Node19 -->
<g id="node20" class="node"><title>Node19</title>
<polygon fill="white" stroke="#bfbfbf" points="756.5,-118 756.5,-137 847.5,-137 847.5,-118 756.5,-118"/>
<text text-anchor="middle" x="802" y="-125" font-family="Helvetica,sans-Serif" font-size="10.00">llvm/IR/Module.h</text>
</g>
<!-- Node12&#45;&gt;Node19 -->
<g id="edge24" class="edge"><title>Node12&#45;&gt;Node19</title>
<path fill="none" stroke="midnightblue" d="M738.602,-179.475C750.252,-170.108 769.186,-154.884 783.335,-143.508"/>
<polygon fill="midnightblue" stroke="midnightblue" points="785.817,-146.003 791.417,-137.009 781.431,-140.548 785.817,-146.003"/>
</g>
<!-- Node13&#45;&gt;Node6 -->
<g id="edge15" class="edge"><title>Node13&#45;&gt;Node6</title>
<path fill="none" stroke="midnightblue" d="M996.339,-117.975C1017.82,-107.99 1053.62,-91.3476 1078.45,-79.8075"/>
<polygon fill="midnightblue" stroke="midnightblue" points="1080.1,-82.8983 1087.69,-75.5091 1077.15,-76.5506 1080.1,-82.8983"/>
</g>
<!-- Node13&#45;&gt;Node7 -->
<g id="edge18" class="edge"><title>Node13&#45;&gt;Node7</title>
<path fill="none" stroke="midnightblue" d="M974.092,-117.737C968.525,-103.87 960.03,-76.3547 970,-56 976.523,-42.6839 989.096,-32.177 1000.87,-24.6761"/>
<polygon fill="midnightblue" stroke="midnightblue" points="1002.77,-27.6205 1009.61,-19.5294 999.218,-21.5891 1002.77,-27.6205"/>
</g>
<!-- Node13&#45;&gt;Node14 -->
<g id="edge16" class="edge"><title>Node13&#45;&gt;Node14</title>
<path fill="none" stroke="midnightblue" d="M947.482,-117.975C905.983,-106.383 832.367,-85.8185 792.497,-74.6812"/>
<polygon fill="midnightblue" stroke="midnightblue" points="793.237,-71.254 782.664,-71.9344 791.354,-77.9959 793.237,-71.254"/>
</g>
<!-- Node13&#45;&gt;Node15 -->
<g id="edge17" class="edge"><title>Node13&#45;&gt;Node15</title>
<path fill="none" stroke="midnightblue" d="M908.998,-117.993C891.703,-115.945 873.18,-113.824 856,-112 685.103,-93.8571 640.991,-101.257 471,-76 467.231,-75.4399 463.297,-74.7657 459.398,-74.0413"/>
<polygon fill="midnightblue" stroke="midnightblue" points="459.789,-70.5509 449.301,-72.0504 458.435,-77.4187 459.789,-70.5509"/>
</g>
<!-- Node13&#45;&gt;Node16 -->
<g id="edge19" class="edge"><title>Node13&#45;&gt;Node16</title>
<path fill="none" stroke="midnightblue" d="M981.725,-117.975C985.471,-109.404 991.36,-95.9269 996.142,-84.983"/>
<polygon fill="midnightblue" stroke="midnightblue" points="999.485,-86.0739 1000.28,-75.5091 993.07,-83.271 999.485,-86.0739"/>
</g>
<!-- Node17&#45;&gt;Node14 -->
<g id="edge23" class="edge"><title>Node17&#45;&gt;Node14</title>
<path fill="none" stroke="midnightblue" d="M670.76,-117.975C688.976,-108.122 719.173,-91.7883 740.468,-80.2697"/>
<polygon fill="midnightblue" stroke="midnightblue" points="742.138,-83.3453 749.269,-75.5091 738.808,-77.1883 742.138,-83.3453"/>
</g>
<!-- Node17&#45;&gt;Node16 -->
<g id="edge22" class="edge"><title>Node17&#45;&gt;Node16</title>
<path fill="none" stroke="midnightblue" d="M705.003,-117.975C776.807,-105.734 907.291,-83.4876 969.38,-72.9023"/>
<polygon fill="midnightblue" stroke="midnightblue" points="970.174,-76.3174 979.444,-71.1865 968.998,-69.417 970.174,-76.3174"/>
</g>
<!-- Node17&#45;&gt;Node18 -->
<g id="edge21" class="edge"><title>Node17&#45;&gt;Node18</title>
<path fill="none" stroke="midnightblue" d="M633.652,-117.975C608.314,-107.857 565.862,-90.9046 536.929,-79.3507"/>
<polygon fill="midnightblue" stroke="midnightblue" points="537.893,-75.9673 527.308,-75.5091 535.297,-82.4681 537.893,-75.9673"/>
</g>
<!-- Node21 -->
<g id="node22" class="node"><title>Node21</title>
<polygon fill="white" stroke="#bfbfbf" points="1078.5,-235.5 1078.5,-254.5 1127.5,-254.5 1127.5,-235.5 1078.5,-235.5"/>
<text text-anchor="middle" x="1103" y="-242.5" font-family="Helvetica,sans-Serif" font-size="10.00">random</text>
</g>
<!-- Node20&#45;&gt;Node21 -->
<g id="edge34" class="edge"><title>Node20&#45;&gt;Node21</title>
<path fill="none" stroke="midnightblue" d="M917.018,-291.444C958.533,-281.3 1027.28,-264.503 1068.54,-254.419"/>
<polygon fill="midnightblue" stroke="midnightblue" points="1069.53,-257.782 1078.41,-252.008 1067.86,-250.982 1069.53,-257.782"/>
</g>
<!-- Node22&#45;&gt;Node7 -->
<g id="edge38" class="edge"><title>Node22&#45;&gt;Node7</title>
<path fill="none" stroke="midnightblue" d="M366.057,-112.395C369.286,-95.8575 377.243,-69.0508 396,-56 445.691,-21.426 877.217,-13.0383 997.177,-11.3665"/>
<polygon fill="midnightblue" stroke="midnightblue" points="997.527,-14.8623 1007.48,-11.229 997.434,-7.86288 997.527,-14.8623"/>
</g>
<!-- Node22&#45;&gt;Node15 -->
<g id="edge37" class="edge"><title>Node22&#45;&gt;Node15</title>
<path fill="none" stroke="midnightblue" d="M378.93,-112.399C388.368,-103.486 400.58,-91.9523 410.333,-82.7408"/>
<polygon fill="midnightblue" stroke="midnightblue" points="412.966,-85.0686 417.833,-75.6578 408.16,-79.9795 412.966,-85.0686"/>
</g>
<!-- Node22&#45;&gt;Node18 -->
<g id="edge39" class="edge"><title>Node22&#45;&gt;Node18</title>
<path fill="none" stroke="midnightblue" d="M397.652,-112.399C421.477,-102.416 453.146,-89.1465 476.088,-79.5335"/>
<polygon fill="midnightblue" stroke="midnightblue" points="477.467,-82.7505 485.338,-75.6578 474.762,-76.2944 477.467,-82.7505"/>
</g>
<!-- Node23&#45;&gt;Node9 -->
<g id="edge43" class="edge"><title>Node23&#45;&gt;Node9</title>
<path fill="none" stroke="midnightblue" d="M639.416,-481.335C627.469,-471.761 611.996,-458.453 600,-445 583.611,-426.621 568.007,-403.252 557.454,-386.254"/>
<polygon fill="midnightblue" stroke="midnightblue" points="560.333,-384.253 552.137,-377.538 554.357,-387.898 560.333,-384.253"/>
</g>
<!-- Node23&#45;&gt;Node24 -->
<g id="edge44" class="edge"><title>Node23&#45;&gt;Node24</title>
<path fill="none" stroke="midnightblue" d="M664.51,-481.396C668.244,-473.304 673.026,-462.944 677.299,-453.685"/>
<polygon fill="midnightblue" stroke="midnightblue" points="680.49,-455.123 681.503,-444.577 674.135,-452.189 680.49,-455.123"/>
</g>
<!-- Node24&#45;&gt;Node9 -->
<g id="edge45" class="edge"><title>Node24&#45;&gt;Node9</title>
<path fill="none" stroke="midnightblue" d="M656.754,-414.396C635.525,-404.814 607.249,-392.05 584.323,-381.702"/>
<polygon fill="midnightblue" stroke="midnightblue" points="585.739,-378.501 575.185,-377.577 582.859,-384.881 585.739,-378.501"/>
</g>
<!-- Node25&#45;&gt;Node9 -->
<g id="edge47" class="edge"><title>Node25&#45;&gt;Node9</title>
<path fill="none" stroke="midnightblue" d="M426.548,-414.396C448.759,-404.771 478.378,-391.936 502.314,-381.564"/>
<polygon fill="midnightblue" stroke="midnightblue" points="503.732,-384.764 511.516,-377.577 500.949,-378.341 503.732,-384.764"/>
</g>
<!-- Node26&#45;&gt;Node9 -->
<g id="edge49" class="edge"><title>Node26&#45;&gt;Node9</title>
<path fill="none" stroke="midnightblue" d="M441.179,-481.494C452.225,-471.667 466.977,-458.008 479,-445 496.679,-425.873 515.023,-402.494 527.697,-385.689"/>
<polygon fill="midnightblue" stroke="midnightblue" points="530.591,-387.663 533.774,-377.558 524.984,-383.473 530.591,-387.663"/>
</g>
</g>
</svg>
        <g id="navigator" transform="translate(0 0)" fill="#404254">
                <rect fill="#f2f5e9" fill-opacity="0.5" stroke="#606060" stroke-width=".5" x="0" y="0" width="60" height="60"/>
                <use id="zoomplus" xlink:href="#zoomPlus" x="17" y="9" onmousedown="handleZoom(evt,'in')"/>
                <use id="zoomminus" xlink:href="#zoomMin" x="42" y="9" onmousedown="handleZoom(evt,'out')"/>
                <use id="reset" xlink:href="#resetDef" x="30" y="36" onmousedown="handleReset()"/>
                <g id="arrowUp" xlink:href="#dirArrow" transform="translate(30 24)" onmousedown="handlePan(0,-1)">
                  <use xlink:href="#rim" fill="#404040">
                        <set attributeName="fill" to="#808080" begin="arrowUp.mouseover" end="arrowUp.mouseout"/>
                  </use>
                  <path fill="none" stroke="white" stroke-width="1.5" d="M0,-3.0v7 M-2.5,-0.5L0,-3.0L2.5,-0.5"/>
                </g>
                <g id="arrowRight" xlink:href="#dirArrow" transform="rotate(90) translate(36 -43)" onmousedown="handlePan(1,0)">
                  <use xlink:href="#rim" fill="#404040">
                        <set attributeName="fill" to="#808080" begin="arrowRight.mouseover" end="arrowRight.mouseout"/>
                  </use>
                  <path fill="none" stroke="white" stroke-width="1.5" d="M0,-3.0v7 M-2.5,-0.5L0,-3.0L2.5,-0.5"/>
                </g>
                <g id="arrowDown" xlink:href="#dirArrow" transform="rotate(180) translate(-30 -48)" onmousedown="handlePan(0,1)">
                  <use xlink:href="#rim" fill="#404040">
                        <set attributeName="fill" to="#808080" begin="arrowDown.mouseover" end="arrowDown.mouseout"/>
                  </use>
                  <path fill="none" stroke="white" stroke-width="1.5" d="M0,-3.0v7 M-2.5,-0.5L0,-3.0L2.5,-0.5"/>
                </g>
                <g id="arrowLeft" xlink:href="#dirArrow" transform="rotate(270) translate(-36 17)" onmousedown="handlePan(-1,0)">
                  <use xlink:href="#rim" fill="#404040">
                        <set attributeName="fill" to="#808080" begin="arrowLeft.mouseover" end="arrowLeft.mouseout"/>
                  </use>
                  <path fill="none" stroke="white" stroke-width="1.5" d="M0,-3.0v7 M-2.5,-0.5L0,-3.0L2.5,-0.5"/>
                </g>
        </g>
        <svg viewBox="0 0 15 15" width="100%" height="30px" preserveAspectRatio="xMaxYMin meet">
         <g id="arrow_out" transform="scale(0.3 0.3)">
          <a xlink:href="FormulaYAMLWrapper_8h__incl_org.svg" target="_base">
           <rect id="button" ry="5" rx="5" y="6" x="6" height="38" width="38"
                fill="#f2f5e9" fill-opacity="0.5" stroke="#606060" stroke-width="1.0"/>
           <path id="arrow"
             d="M 11.500037,31.436501 C 11.940474,20.09759 22.043105,11.32322 32.158766,21.979434 L 37.068811,17.246167 C 37.068811,17.246167 37.088388,32 37.088388,32 L 22.160133,31.978069 C 22.160133,31.978069 26.997745,27.140456 26.997745,27.140456 C 18.528582,18.264221 13.291696,25.230495 11.500037,31.436501 z"
             style="fill:#404040;"/>
          </a>
         </g>
        </svg>
</svg>
