<?xml version="1.0" encoding="UTF-8" standalone="no"?>
<!DOCTYPE svg PUBLIC "-//W3C//DTD SVG 1.1//EN"
 "http://www.w3.org/Graphics/SVG/1.1/DTD/svg11.dtd">
<!-- Generated by graphviz version 2.38.0 (20140413.2041)
 -->
<!-- Title: /home/yukiosir/workspace/CompilerProject/Software/pinhao/lib/Support/YAMLWrapper/FormulaYAMLWrapper.cpp Pages: 1 -->
<svg width="1135pt" height="520pt"
 viewBox="0.00 0.00 1134.50 520.00" xmlns="http://www.w3.org/2000/svg" xmlns:xlink="http://www.w3.org/1999/xlink">
<g id="graph0" class="graph" transform="scale(1 1) rotate(0) translate(4 516)">
<title>/home/yukiosir/workspace/CompilerProject/Software/pinhao/lib/Support/YAMLWrapper/FormulaYAMLWrapper.cpp</title>
<polygon fill="white" stroke="none" points="-4,4 -4,-516 1130.5,-516 1130.5,4 -4,4"/>
<!-- Node0 -->
<g id="node1" class="node"><title>Node0</title>
<polygon fill="#bfbfbf" stroke="black" points="242.5,-459.5 242.5,-511.5 406.5,-511.5 406.5,-459.5 242.5,-459.5"/>
<text text-anchor="start" x="250.5" y="-499.5" font-family="Helvetica,sans-Serif" font-size="10.00">/home/yukiosir/workspace</text>
<text text-anchor="start" x="250.5" y="-488.5" font-family="Helvetica,sans-Serif" font-size="10.00">/CompilerProject/Software</text>
<text text-anchor="start" x="250.5" y="-477.5" font-family="Helvetica,sans-Serif" font-size="10.00">/pinhao/lib/Support/YAMLWrapper</text>
<text text-anchor="middle" x="324.5" y="-466.5" font-family="Helvetica,sans-Serif" font-size="10.00">/FormulaYAMLWrapper.cpp</text>
</g>
<!-- Node1 -->
<g id="node2" class="node"><title>Node1</title>
<g id="a_node2"><a xlink:href="FormulaYAMLWrapper_8h.html" target="_top" xlink:title="pinhao/Support/FormulaYAMLWrapper.h">
<polygon fill="white" stroke="black" points="104.5,-403.5 104.5,-422.5 296.5,-422.5 296.5,-403.5 104.5,-403.5"/>
<text text-anchor="middle" x="200.5" y="-410.5" font-family="Helvetica,sans-Serif" font-size="10.00">pinhao/Support/FormulaYAMLWrapper.h</text>
</a>
</g>
</g>
<!-- Node0&#45;&gt;Node1 -->
<g id="edge1" class="edge"><title>Node0&#45;&gt;Node1</title>
<path fill="none" stroke="midnightblue" d="M280.433,-459.446C261.64,-448.761 240.442,-436.709 224.6,-427.702"/>
<polygon fill="midnightblue" stroke="midnightblue" points="225.921,-424.427 215.498,-422.527 222.461,-430.512 225.921,-424.427"/>
</g>
<!-- Node7 -->
<g id="node8" class="node"><title>Node7</title>
<g id="a_node8"><a xlink:href="Types_8h.html" target="_top" xlink:title="pinhao/Support/Types.h">
<polygon fill="white" stroke="black" points="302.5,-56.5 302.5,-75.5 422.5,-75.5 422.5,-56.5 302.5,-56.5"/>
<text text-anchor="middle" x="362.5" y="-63.5" font-family="Helvetica,sans-Serif" font-size="10.00">pinhao/Support/Types.h</text>
</a>
</g>
</g>
<!-- Node0&#45;&gt;Node7 -->
<g id="edge38" class="edge"><title>Node0&#45;&gt;Node7</title>
<path fill="none" stroke="midnightblue" d="M324.5,-459.195C324.5,-432.623 324.5,-389.625 324.5,-352.5 324.5,-352.5 324.5,-352.5 324.5,-177 324.5,-142.813 341.1,-105.764 352.357,-84.5707"/>
<polygon fill="midnightblue" stroke="midnightblue" points="355.447,-86.2151 357.216,-75.769 349.319,-82.832 355.447,-86.2151"/>
</g>
<!-- Node9 -->
<g id="node10" class="node"><title>Node9</title>
<g id="a_node10"><a xlink:href="Formula_8h.html" target="_top" xlink:title="pinhao/MachineLearning\l/GrammarEvolution/Formula.h">
<polygon fill="white" stroke="black" points="382,-336.5 382,-366.5 529,-366.5 529,-336.5 382,-336.5"/>
<text text-anchor="start" x="390" y="-354.5" font-family="Helvetica,sans-Serif" font-size="10.00">pinhao/MachineLearning</text>
<text text-anchor="middle" x="455.5" y="-343.5" font-family="Helvetica,sans-Serif" font-size="10.00">/GrammarEvolution/Formula.h</text>
</a>
</g>
</g>
<!-- Node0&#45;&gt;Node9 -->
<g id="edge39" class="edge"><title>Node0&#45;&gt;Node9</title>
<path fill="none" stroke="midnightblue" d="M349.448,-459.361C373.992,-434.63 411.061,-397.278 434.244,-373.919"/>
<polygon fill="midnightblue" stroke="midnightblue" points="436.975,-376.135 441.535,-366.572 432.007,-371.204 436.975,-376.135"/>
</g>
<!-- Node2 -->
<g id="node3" class="node"><title>Node2</title>
<g id="a_node3"><a xlink:href="YAMLWrapper_8h.html" target="_top" xlink:title="pinhao/Support/YAMLWrapper.h">
<polygon fill="white" stroke="black" points="101,-168.5 101,-187.5 258,-187.5 258,-168.5 101,-168.5"/>
<text text-anchor="middle" x="179.5" y="-175.5" font-family="Helvetica,sans-Serif" font-size="10.00">pinhao/Support/YAMLWrapper.h</text>
</a>
</g>
</g>
<!-- Node1&#45;&gt;Node2 -->
<g id="edge2" class="edge"><title>Node1&#45;&gt;Node2</title>
<path fill="none" stroke="midnightblue" d="M199.728,-403.431C196.692,-369.754 185.538,-245.994 181.222,-198.102"/>
<polygon fill="midnightblue" stroke="midnightblue" points="184.685,-197.541 180.302,-187.896 177.714,-198.17 184.685,-197.541"/>
</g>
<!-- Node6 -->
<g id="node7" class="node"><title>Node6</title>
<g id="a_node7"><a xlink:href="YamlOptions_8h.html" target="_top" xlink:title="pinhao/Support/YamlOptions.h">
<polygon fill="white" stroke="black" points="0,-342 0,-361 149,-361 149,-342 0,-342"/>
<text text-anchor="middle" x="74.5" y="-349" font-family="Helvetica,sans-Serif" font-size="10.00">pinhao/Support/YamlOptions.h</text>
</a>
</g>
</g>
<!-- Node1&#45;&gt;Node6 -->
<g id="edge6" class="edge"><title>Node1&#45;&gt;Node6</title>
<path fill="none" stroke="midnightblue" d="M182.447,-403.475C161.302,-393.49 126.06,-376.848 101.622,-365.307"/>
<polygon fill="midnightblue" stroke="midnightblue" points="103.056,-362.114 92.5192,-361.009 100.067,-368.444 103.056,-362.114"/>
</g>
<!-- Node1&#45;&gt;Node7 -->
<g id="edge8" class="edge"><title>Node1&#45;&gt;Node7</title>
<path fill="none" stroke="midnightblue" d="M212.458,-403.5C236.088,-385.606 286.5,-341.514 286.5,-291 286.5,-291 286.5,-291 286.5,-177 286.5,-146.205 292.97,-137.319 310.5,-112 318.676,-100.19 330.653,-89.5418 341.052,-81.5714"/>
<polygon fill="midnightblue" stroke="midnightblue" points="343.293,-84.2685 349.297,-75.5395 339.16,-78.6188 343.293,-84.2685"/>
</g>
<!-- Node1&#45;&gt;Node9 -->
<g id="edge10" class="edge"><title>Node1&#45;&gt;Node9</title>
<path fill="none" stroke="midnightblue" d="M237.035,-403.475C275.606,-394.475 337.351,-380.068 385.375,-368.862"/>
<polygon fill="midnightblue" stroke="midnightblue" points="386.458,-372.204 395.402,-366.523 384.868,-365.387 386.458,-372.204"/>
</g>
<!-- Node3 -->
<g id="node4" class="node"><title>Node3</title>
<polygon fill="white" stroke="#bfbfbf" points="27,-112.5 27,-131.5 116,-131.5 116,-112.5 27,-112.5"/>
<text text-anchor="middle" x="71.5" y="-119.5" font-family="Helvetica,sans-Serif" font-size="10.00">yaml&#45;cpp/yaml.h</text>
</g>
<!-- Node2&#45;&gt;Node3 -->
<g id="edge3" class="edge"><title>Node2&#45;&gt;Node3</title>
<path fill="none" stroke="midnightblue" d="M162.148,-168.324C144.828,-159.664 117.985,-146.242 97.9981,-136.249"/>
<polygon fill="midnightblue" stroke="midnightblue" points="99.3186,-132.996 88.809,-131.655 96.188,-139.257 99.3186,-132.996"/>
</g>
<!-- Node4 -->
<g id="node5" class="node"><title>Node4</title>
<polygon fill="white" stroke="#bfbfbf" points="204.5,-112.5 204.5,-131.5 258.5,-131.5 258.5,-112.5 204.5,-112.5"/>
<text text-anchor="middle" x="231.5" y="-119.5" font-family="Helvetica,sans-Serif" font-size="10.00">iostream</text>
</g>
<!-- Node2&#45;&gt;Node4 -->
<g id="edge4" class="edge"><title>Node2&#45;&gt;Node4</title>
<path fill="none" stroke="midnightblue" d="M188.087,-168.083C195.659,-160.22 206.878,-148.569 216.014,-139.081"/>
<polygon fill="midnightblue" stroke="midnightblue" points="218.658,-141.382 223.073,-131.751 213.615,-136.527 218.658,-141.382"/>
</g>
<!-- Node5 -->
<g id="node6" class="node"><title>Node5</title>
<polygon fill="white" stroke="#bfbfbf" points="134.5,-112.5 134.5,-131.5 186.5,-131.5 186.5,-112.5 134.5,-112.5"/>
<text text-anchor="middle" x="160.5" y="-119.5" font-family="Helvetica,sans-Serif" font-size="10.00">ostream</text>
</g>
<!-- Node2&#45;&gt;Node5 -->
<g id="edge5" class="edge"><title>Node2&#45;&gt;Node5</title>
<path fill="none" stroke="midnightblue" d="M176.363,-168.083C173.817,-160.849 170.144,-150.409 166.973,-141.397"/>
<polygon fill="midnightblue" stroke="midnightblue" points="170.2,-140.023 163.579,-131.751 163.597,-142.346 170.2,-140.023"/>
</g>
<!-- Node6&#45;&gt;Node3 -->
<g id="edge7" class="edge"><title>Node6&#45;&gt;Node3</title>
<path fill="none" stroke="midnightblue" d="M74.3861,-341.86C73.948,-308.638 72.3658,-188.66 71.7488,-141.871"/>
<polygon fill="midnightblue" stroke="midnightblue" points="75.2457,-141.602 71.6141,-131.649 68.2463,-141.694 75.2457,-141.602"/>
</g>
<!-- Node8 -->
<g id="node9" class="node"><title>Node8</title>
<polygon fill="white" stroke="#bfbfbf" points="520,-0.5 520,-19.5 561,-19.5 561,-0.5 520,-0.5"/>
<text text-anchor="middle" x="540.5" y="-7.5" font-family="Helvetica,sans-Serif" font-size="10.00">string</text>
</g>
<!-- Node7&#45;&gt;Node8 -->
<g id="edge9" class="edge"><title>Node7&#45;&gt;Node8</title>
<path fill="none" stroke="midnightblue" d="M390.705,-56.4435C423.309,-46.5524 476.764,-30.3357 510.222,-20.1854"/>
<polygon fill="midnightblue" stroke="midnightblue" points="511.366,-23.4961 519.919,-17.2437 509.333,-16.7976 511.366,-23.4961"/>
</g>
<!-- Node9&#45;&gt;Node7 -->
<g id="edge35" class="edge"><title>Node9&#45;&gt;Node7</title>
<path fill="none" stroke="midnightblue" d="M425.437,-336.305C410.265,-327.742 392.743,-315.479 381.5,-300 363.813,-275.648 362.5,-265.098 362.5,-235 362.5,-235 362.5,-235 362.5,-177 362.5,-144.948 362.5,-107.643 362.5,-85.7489"/>
<polygon fill="midnightblue" stroke="midnightblue" points="366,-85.5577 362.5,-75.5578 359,-85.5578 366,-85.5577"/>
</g>
<!-- Node9&#45;&gt;Node8 -->
<g id="edge36" class="edge"><title>Node9&#45;&gt;Node8</title>
<path fill="none" stroke="midnightblue" d="M529.315,-350.166C630.551,-348.161 817.464,-338.892 971.5,-300 1043.93,-281.713 1126.5,-309.701 1126.5,-235 1126.5,-235 1126.5,-235 1126.5,-121 1126.5,-85.8636 1111.92,-73.5841 1081.5,-56 1037.27,-30.4353 679.938,-15.8965 571.553,-12.0438"/>
<polygon fill="midnightblue" stroke="midnightblue" points="571.406,-8.53659 561.29,-11.6846 571.161,-15.5323 571.406,-8.53659"/>
</g>
<!-- Node10 -->
<g id="node11" class="node"><title>Node10</title>
<g id="a_node11"><a xlink:href="FeatureSet_8h.html" target="_top" xlink:title="This file defines a class which contains the features selected by the user (by some command line)...">
<polygon fill="white" stroke="black" points="696.5,-280.5 696.5,-299.5 842.5,-299.5 842.5,-280.5 696.5,-280.5"/>
<text text-anchor="middle" x="769.5" y="-287.5" font-family="Helvetica,sans-Serif" font-size="10.00">pinhao/Features/FeatureSet.h</text>
</a>
</g>
</g>
<!-- Node9&#45;&gt;Node10 -->
<g id="edge11" class="edge"><title>Node9&#45;&gt;Node10</title>
<path fill="none" stroke="midnightblue" d="M529.119,-336.55C585.878,-325.795 663.12,-311.158 714.562,-301.41"/>
<polygon fill="midnightblue" stroke="midnightblue" points="715.32,-304.829 724.493,-299.528 714.016,-297.951 715.32,-304.829"/>
</g>
<!-- Node15 -->
<g id="node16" class="node"><title>Node15</title>
<polygon fill="white" stroke="#bfbfbf" points="1028.5,-56.5 1028.5,-75.5 1072.5,-75.5 1072.5,-56.5 1028.5,-56.5"/>
<text text-anchor="middle" x="1050.5" y="-63.5" font-family="Helvetica,sans-Serif" font-size="10.00">vector</text>
</g>
<!-- Node9&#45;&gt;Node15 -->
<g id="edge37" class="edge"><title>Node9&#45;&gt;Node15</title>
<path fill="none" stroke="midnightblue" d="M529.042,-344.702C695.844,-330.566 1088.5,-291.309 1088.5,-235 1088.5,-235 1088.5,-235 1088.5,-177 1088.5,-142.813 1071.9,-105.764 1060.64,-84.5707"/>
<polygon fill="midnightblue" stroke="midnightblue" points="1063.68,-82.832 1055.78,-75.769 1057.55,-86.2151 1063.68,-82.832"/>
</g>
<!-- Node20 -->
<g id="node21" class="node"><title>Node20</title>
<g id="a_node21"><a xlink:href="Random_8h.html" target="_top" xlink:title="pinhao/Support/Random.h">
<polygon fill="white" stroke="black" points="390.5,-280.5 390.5,-299.5 520.5,-299.5 520.5,-280.5 390.5,-280.5"/>
<text text-anchor="middle" x="455.5" y="-287.5" font-family="Helvetica,sans-Serif" font-size="10.00">pinhao/Support/Random.h</text>
</a>
</g>
</g>
<!-- Node9&#45;&gt;Node20 -->
<g id="edge33" class="edge"><title>Node9&#45;&gt;Node20</title>
<path fill="none" stroke="midnightblue" d="M455.5,-336.399C455.5,-328.466 455.5,-318.458 455.5,-309.858"/>
<polygon fill="midnightblue" stroke="midnightblue" points="459,-309.658 455.5,-299.658 452,-309.658 459,-309.658"/>
</g>
<!-- Node11 -->
<g id="node12" class="node"><title>Node11</title>
<g id="a_node12"><a xlink:href="Features_8h.html" target="_top" xlink:title="This file implements some basic feature classes that extends the base class Feature. ">
<polygon fill="white" stroke="black" points="653.5,-224.5 653.5,-243.5 789.5,-243.5 789.5,-224.5 653.5,-224.5"/>
<text text-anchor="middle" x="721.5" y="-231.5" font-family="Helvetica,sans-Serif" font-size="10.00">pinhao/Features/Features.h</text>
</a>
</g>
</g>
<!-- Node10&#45;&gt;Node11 -->
<g id="edge12" class="edge"><title>Node10&#45;&gt;Node11</title>
<path fill="none" stroke="midnightblue" d="M761.574,-280.083C754.654,-272.298 744.435,-260.801 736.048,-251.367"/>
<polygon fill="midnightblue" stroke="midnightblue" points="738.538,-248.9 729.279,-243.751 733.306,-253.55 738.538,-248.9"/>
</g>
<!-- Node14 -->
<g id="node15" class="node"><title>Node14</title>
<polygon fill="white" stroke="#bfbfbf" points="704,-56.5 704,-75.5 739,-75.5 739,-56.5 704,-56.5"/>
<text text-anchor="middle" x="721.5" y="-63.5" font-family="Helvetica,sans-Serif" font-size="10.00">map</text>
</g>
<!-- Node10&#45;&gt;Node14 -->
<g id="edge30" class="edge"><title>Node10&#45;&gt;Node14</title>
<path fill="none" stroke="midnightblue" d="M792.448,-280.381C854.085,-256.001 1014.69,-183.657 955.5,-112 929.627,-80.6778 805.719,-70.9295 749.432,-68.0883"/>
<polygon fill="midnightblue" stroke="midnightblue" points="749.277,-64.5774 739.125,-67.6078 748.951,-71.5698 749.277,-64.5774"/>
</g>
<!-- Node10&#45;&gt;Node15 -->
<g id="edge31" class="edge"><title>Node10&#45;&gt;Node15</title>
<path fill="none" stroke="midnightblue" d="M840.003,-280.45C872.493,-274.091 910.423,-263.064 940.5,-244 1000.32,-206.084 1032.97,-122.663 1045.03,-85.497"/>
<polygon fill="midnightblue" stroke="midnightblue" points="1048.5,-86.1372 1048.12,-75.5492 1041.81,-84.062 1048.5,-86.1372"/>
</g>
<!-- Node16 -->
<g id="node17" class="node"><title>Node16</title>
<polygon fill="white" stroke="#bfbfbf" points="451,-56.5 451,-75.5 500,-75.5 500,-56.5 451,-56.5"/>
<text text-anchor="middle" x="475.5" y="-63.5" font-family="Helvetica,sans-Serif" font-size="10.00">cassert</text>
</g>
<!-- Node10&#45;&gt;Node16 -->
<g id="edge29" class="edge"><title>Node10&#45;&gt;Node16</title>
<path fill="none" stroke="midnightblue" d="M738.278,-280.396C688.82,-265.942 590.491,-233.804 516.5,-188 483.502,-167.572 465.935,-167.157 449.5,-132 441.972,-115.897 451.531,-96.9791 461.111,-83.7178"/>
<polygon fill="midnightblue" stroke="midnightblue" points="464.107,-85.5693 467.536,-75.5447 458.604,-81.2429 464.107,-85.5693"/>
</g>
<!-- Node18 -->
<g id="node19" class="node"><title>Node18</title>
<polygon fill="white" stroke="#bfbfbf" points="897.5,-56.5 897.5,-75.5 949.5,-75.5 949.5,-56.5 897.5,-56.5"/>
<text text-anchor="middle" x="923.5" y="-63.5" font-family="Helvetica,sans-Serif" font-size="10.00">memory</text>
</g>
<!-- Node10&#45;&gt;Node18 -->
<g id="edge32" class="edge"><title>Node10&#45;&gt;Node18</title>
<path fill="none" stroke="midnightblue" d="M820.24,-280.462C869.454,-269.057 940.774,-243.431 969.5,-188 985.075,-157.945 988.424,-142.855 974.5,-112 968.884,-99.5553 957.937,-89.1723 947.621,-81.5273"/>
<polygon fill="midnightblue" stroke="midnightblue" points="949.458,-78.5431 939.234,-75.7643 945.494,-84.3123 949.458,-78.5431"/>
</g>
<!-- Node12 -->
<g id="node13" class="node"><title>Node12</title>
<g id="a_node13"><a xlink:href="Feature_8h.html" target="_top" xlink:title="This file defines the base feature class. ">
<polygon fill="white" stroke="black" points="526,-168.5 526,-187.5 657,-187.5 657,-168.5 526,-168.5"/>
<text text-anchor="middle" x="591.5" y="-175.5" font-family="Helvetica,sans-Serif" font-size="10.00">pinhao/Features/Feature.h</text>
</a>
</g>
</g>
<!-- Node11&#45;&gt;Node12 -->
<g id="edge13" class="edge"><title>Node11&#45;&gt;Node12</title>
<path fill="none" stroke="midnightblue" d="M700.901,-224.444C679.507,-215.557 645.819,-201.563 621.476,-191.451"/>
<polygon fill="midnightblue" stroke="midnightblue" points="622.58,-188.12 612.003,-187.516 619.895,-194.585 622.58,-188.12"/>
</g>
<!-- Node12&#45;&gt;Node3 -->
<g id="edge25" class="edge"><title>Node12&#45;&gt;Node3</title>
<path fill="none" stroke="midnightblue" d="M525.741,-172.086C437.382,-165.163 275.225,-151.337 126.484,-132.041"/>
<polygon fill="midnightblue" stroke="midnightblue" points="126.623,-128.53 116.254,-130.703 125.715,-135.471 126.623,-128.53"/>
</g>
<!-- Node12&#45;&gt;Node4 -->
<g id="edge28" class="edge"><title>Node12&#45;&gt;Node4</title>
<path fill="none" stroke="midnightblue" d="M534.457,-168.444C460.051,-157.283 331.953,-138.068 268.85,-128.602"/>
<polygon fill="midnightblue" stroke="midnightblue" points="268.982,-125.083 258.573,-127.061 267.944,-132.006 268.982,-125.083"/>
</g>
<!-- Node13 -->
<g id="node14" class="node"><title>Node13</title>
<g id="a_node14"><a xlink:href="FeatureInfo_8h.html" target="_top" xlink:title="This file defines a class that holds some informations about a feature. ">
<polygon fill="white" stroke="black" points="467,-112.5 467,-131.5 614,-131.5 614,-112.5 467,-112.5"/>
<text text-anchor="middle" x="540.5" y="-119.5" font-family="Helvetica,sans-Serif" font-size="10.00">pinhao/Features/FeatureInfo.h</text>
</a>
</g>
</g>
<!-- Node12&#45;&gt;Node13 -->
<g id="edge14" class="edge"><title>Node12&#45;&gt;Node13</title>
<path fill="none" stroke="midnightblue" d="M583.078,-168.083C575.652,-160.22 564.648,-148.569 555.688,-139.081"/>
<polygon fill="midnightblue" stroke="midnightblue" points="558.176,-136.618 548.765,-131.751 553.087,-141.424 558.176,-136.618"/>
</g>
<!-- Node12&#45;&gt;Node14 -->
<g id="edge26" class="edge"><title>Node12&#45;&gt;Node14</title>
<path fill="none" stroke="midnightblue" d="M600.288,-168.275C613.29,-155.498 638.59,-131.138 661.5,-112 674.241,-101.357 689.174,-90.1528 700.955,-81.5868"/>
<polygon fill="midnightblue" stroke="midnightblue" points="703.192,-84.2884 709.261,-75.6036 699.101,-78.6086 703.192,-84.2884"/>
</g>
<!-- Node12&#45;&gt;Node16 -->
<g id="edge27" class="edge"><title>Node12&#45;&gt;Node16</title>
<path fill="none" stroke="midnightblue" d="M525.838,-171.171C500.216,-165.307 473.26,-153.917 457.5,-132 447.391,-117.942 454.967,-98.4365 463.169,-84.4677"/>
<polygon fill="midnightblue" stroke="midnightblue" points="466.269,-86.1194 468.739,-75.8165 460.383,-82.3303 466.269,-86.1194"/>
</g>
<!-- Node17 -->
<g id="node18" class="node"><title>Node17</title>
<g id="a_node18"><a xlink:href="FeatureRegistry_8h.html" target="_top" xlink:title="This file defines a class that has all the registered features. ">
<polygon fill="white" stroke="black" points="780,-112.5 780,-131.5 947,-131.5 947,-112.5 780,-112.5"/>
<text text-anchor="middle" x="863.5" y="-119.5" font-family="Helvetica,sans-Serif" font-size="10.00">pinhao/Features/FeatureRegistry.h</text>
</a>
</g>
</g>
<!-- Node12&#45;&gt;Node17 -->
<g id="edge20" class="edge"><title>Node12&#45;&gt;Node17</title>
<path fill="none" stroke="midnightblue" d="M634.599,-168.444C682.347,-158.964 759.361,-143.675 810.694,-133.483"/>
<polygon fill="midnightblue" stroke="midnightblue" points="811.475,-136.897 820.602,-131.516 810.112,-130.031 811.475,-136.897"/>
</g>
<!-- Node19 -->
<g id="node20" class="node"><title>Node19</title>
<polygon fill="white" stroke="#bfbfbf" points="671,-112.5 671,-131.5 762,-131.5 762,-112.5 671,-112.5"/>
<text text-anchor="middle" x="716.5" y="-119.5" font-family="Helvetica,sans-Serif" font-size="10.00">llvm/IR/Module.h</text>
</g>
<!-- Node12&#45;&gt;Node19 -->
<g id="edge24" class="edge"><title>Node12&#45;&gt;Node19</title>
<path fill="none" stroke="midnightblue" d="M611.307,-168.444C631.787,-159.596 663.983,-145.687 687.365,-135.586"/>
<polygon fill="midnightblue" stroke="midnightblue" points="688.994,-138.695 696.786,-131.516 686.218,-132.269 688.994,-138.695"/>
</g>
<!-- Node13&#45;&gt;Node7 -->
<g id="edge15" class="edge"><title>Node13&#45;&gt;Node7</title>
<path fill="none" stroke="midnightblue" d="M512.295,-112.444C482.09,-103.28 433.989,-88.6876 400.471,-78.5192"/>
<polygon fill="midnightblue" stroke="midnightblue" points="401.158,-75.0703 390.573,-75.5164 399.126,-81.7688 401.158,-75.0703"/>
</g>
<!-- Node13&#45;&gt;Node8 -->
<g id="edge18" class="edge"><title>Node13&#45;&gt;Node8</title>
<path fill="none" stroke="midnightblue" d="M540.5,-112.368C540.5,-94.617 540.5,-53.6664 540.5,-29.5974"/>
<polygon fill="midnightblue" stroke="midnightblue" points="544,-29.5914 540.5,-19.5914 537,-29.5915 544,-29.5914"/>
</g>
<!-- Node13&#45;&gt;Node14 -->
<g id="edge16" class="edge"><title>Node13&#45;&gt;Node14</title>
<path fill="none" stroke="midnightblue" d="M569.18,-112.444C603.508,-102.202 660.567,-85.1789 694.249,-75.1301"/>
<polygon fill="midnightblue" stroke="midnightblue" points="695.319,-78.4635 703.901,-72.2506 693.317,-71.7557 695.319,-78.4635"/>
</g>
<!-- Node13&#45;&gt;Node15 -->
<g id="edge17" class="edge"><title>Node13&#45;&gt;Node15</title>
<path fill="none" stroke="midnightblue" d="M614.114,-113.206C726.972,-101.256 938.112,-78.8999 1018.4,-70.399"/>
<polygon fill="midnightblue" stroke="midnightblue" points="1018.82,-73.8735 1028.4,-69.3399 1018.09,-66.9124 1018.82,-73.8735"/>
</g>
<!-- Node13&#45;&gt;Node16 -->
<g id="edge19" class="edge"><title>Node13&#45;&gt;Node16</title>
<path fill="none" stroke="midnightblue" d="M530.057,-112.324C520.354,-104.263 505.685,-92.0765 494,-82.3695"/>
<polygon fill="midnightblue" stroke="midnightblue" points="496.062,-79.532 486.133,-75.8339 491.589,-84.9163 496.062,-79.532"/>
</g>
<!-- Node17&#45;&gt;Node14 -->
<g id="edge23" class="edge"><title>Node17&#45;&gt;Node14</title>
<path fill="none" stroke="midnightblue" d="M841,-112.444C816.036,-102.95 775.749,-87.6297 748.95,-77.4385"/>
<polygon fill="midnightblue" stroke="midnightblue" points="749.99,-74.0898 739.399,-73.8067 747.502,-80.6326 749.99,-74.0898"/>
</g>
<!-- Node17&#45;&gt;Node16 -->
<g id="edge22" class="edge"><title>Node17&#45;&gt;Node16</title>
<path fill="none" stroke="midnightblue" d="M802.02,-112.444C719.638,-100.978 576.183,-81.0125 510.342,-71.8492"/>
<polygon fill="midnightblue" stroke="midnightblue" points="510.479,-68.3346 500.092,-70.4226 509.514,-75.2677 510.479,-68.3346"/>
</g>
<!-- Node17&#45;&gt;Node18 -->
<g id="edge21" class="edge"><title>Node17&#45;&gt;Node18</title>
<path fill="none" stroke="midnightblue" d="M873.14,-112.324C882.01,-104.341 895.375,-92.3128 906.108,-82.6529"/>
<polygon fill="midnightblue" stroke="midnightblue" points="908.593,-85.1251 913.685,-75.8339 903.91,-79.922 908.593,-85.1251"/>
</g>
<!-- Node21 -->
<g id="node22" class="node"><title>Node21</title>
<polygon fill="white" stroke="#bfbfbf" points="391,-224.5 391,-243.5 440,-243.5 440,-224.5 391,-224.5"/>
<text text-anchor="middle" x="415.5" y="-231.5" font-family="Helvetica,sans-Serif" font-size="10.00">random</text>
</g>
<!-- Node20&#45;&gt;Node21 -->
<g id="edge34" class="edge"><title>Node20&#45;&gt;Node21</title>
<path fill="none" stroke="midnightblue" d="M448.895,-280.083C443.245,-272.455 434.955,-261.264 428.049,-251.941"/>
<polygon fill="midnightblue" stroke="midnightblue" points="430.747,-249.703 421.982,-243.751 425.122,-253.87 430.747,-249.703"/>
</g>
</g>
</svg>
