<?xml version="1.0" encoding="UTF-8" standalone="no"?>
<!DOCTYPE svg PUBLIC "-//W3C//DTD SVG 1.1//EN"
 "http://www.w3.org/Graphics/SVG/1.1/DTD/svg11.dtd">
<!-- Generated by graphviz version 2.38.0 (20140413.2041)
 -->
<!-- Title: /home/yukiosir/workspace/CompilerProject/Software/pinhao/include/pinhao/MachineLearning/GrammarEvolution/Formula.h Pages: 1 -->
<!--zoomable 397 -->
<svg id="main" version="1.1" xmlns="http://www.w3.org/2000/svg" xmlns:xlink="http://www.w3.org/1999/xlink" xml:space="preserve" onload="init(evt)">
<style type="text/css"><![CDATA[
.edge:hover path { stroke: red; }
.edge:hover polygon { stroke: red; fill: red; }
]]></style>
<script type="text/javascript"><![CDATA[
var edges = document.getElementsByTagName('g');
if (edges && edges.length) {
  for (var i=0;i<edges.length;i++) {
    if (edges[i].id.substr(0,4)=='edge') {
      edges[i].setAttribute('class','edge');
    }
  }
}
]]></script>
        <defs>
                <circle id="rim" cx="0" cy="0" r="7"/>
                <circle id="rim2" cx="0" cy="0" r="3.5"/>
                <g id="zoomPlus">
                        <use xlink:href="#rim" fill="#404040">
                                <set attributeName="fill" to="#808080" begin="zoomplus.mouseover" end="zoomplus.mouseout"/>
                        </use>
                        <path d="M-4,0h8M0,-4v8" fill="none" stroke="white" stroke-width="1.5" pointer-events="none"/>
                </g>
                <g id="zoomMin">
                        <use xlink:href="#rim" fill="#404040">
                                <set attributeName="fill" to="#808080" begin="zoomminus.mouseover" end="zoomminus.mouseout"/>
                        </use>
                        <path d="M-4,0h8" fill="none" stroke="white" stroke-width="1.5" pointer-events="none"/>
                </g>
                <g id="dirArrow">
                        <path fill="none" stroke="white" stroke-width="1.5" d="M0,-3.0v7 M-2.5,-0.5L0,-3.0L2.5,-0.5"/>
                </g>
               <g id="resetDef">
                       <use xlink:href="#rim2" fill="#404040">
                               <set attributeName="fill" to="#808080" begin="reset.mouseover" end="reset.mouseout"/>
                       </use>
               </g>
        </defs>

<script type="text/javascript">
var viewWidth = 1052;
var viewHeight = 397;
var sectionId = 'dynsection-0';
</script>
<script xlink:href="svgpan.js"/>
<svg id="graph" class="graph">
<g id="viewport">
<title>/home/yukiosir/workspace/CompilerProject/Software/pinhao/include/pinhao/MachineLearning/GrammarEvolution/Formula.h</title>
<polygon fill="white" stroke="none" points="-4,4 -4,-393 1047.5,-393 1047.5,4 -4,4"/>
<!-- Node0 -->
<g id="node1" class="node"><title>Node0</title>
<polygon fill="#bfbfbf" stroke="black" points="3,-336.5 3,-388.5 193,-388.5 193,-336.5 3,-336.5"/>
<text text-anchor="start" x="11" y="-376.5" font-family="Helvetica,sans-Serif" font-size="10.00">/home/yukiosir/workspace</text>
<text text-anchor="start" x="11" y="-365.5" font-family="Helvetica,sans-Serif" font-size="10.00">/CompilerProject/Software</text>
<text text-anchor="start" x="11" y="-354.5" font-family="Helvetica,sans-Serif" font-size="10.00">/pinhao/include/pinhao/MachineLearning</text>
<text text-anchor="middle" x="98" y="-343.5" font-family="Helvetica,sans-Serif" font-size="10.00">/GrammarEvolution/Formula.h</text>
</g>
<!-- Node1 -->
<g id="node2" class="node"><title>Node1</title>
<g id="a_node2"><a xlink:href="FeatureSet_8h.html" target="_top" xlink:title="This file defines a class which contains the features selected by the user (by some command line)...">
<polygon fill="white" stroke="black" points="286,-280.5 286,-299.5 432,-299.5 432,-280.5 286,-280.5"/>
<text text-anchor="middle" x="359" y="-287.5" font-family="Helvetica,sans-Serif" font-size="10.00">pinhao/Features/FeatureSet.h</text>
</a>
</g>
</g>
<!-- Node0&#45;&gt;Node1 -->
<g id="edge1" class="edge"><title>Node0&#45;&gt;Node1</title>
<path fill="none" stroke="midnightblue" d="M190.754,-336.446C234.042,-324.753 283.392,-311.423 317.396,-302.238"/>
<polygon fill="midnightblue" stroke="midnightblue" points="318.691,-305.514 327.432,-299.527 316.865,-298.756 318.691,-305.514"/>
</g>
<!-- Node5 -->
<g id="node6" class="node"><title>Node5</title>
<g id="a_node6"><a xlink:href="Types_8h.html" target="_top" xlink:title="pinhao/Support/Types.h">
<polygon fill="white" stroke="black" points="28,-56.5 28,-75.5 148,-75.5 148,-56.5 28,-56.5"/>
<text text-anchor="middle" x="88" y="-63.5" font-family="Helvetica,sans-Serif" font-size="10.00">pinhao/Support/Types.h</text>
</a>
</g>
</g>
<!-- Node0&#45;&gt;Node5 -->
<g id="edge26" class="edge"><title>Node0&#45;&gt;Node5</title>
<path fill="none" stroke="midnightblue" d="M85.7674,-336.482C74.6588,-311.429 60,-271.461 60,-235 60,-235 60,-235 60,-177 60,-143.79 72.1344,-106.634 80.4268,-85.1196"/>
<polygon fill="midnightblue" stroke="midnightblue" points="83.7511,-86.2333 84.2238,-75.649 77.2538,-83.6284 83.7511,-86.2333"/>
</g>
<!-- Node6 -->
<g id="node7" class="node"><title>Node6</title>
<polygon fill="white" stroke="#bfbfbf" points="67.5,-0.5 67.5,-19.5 108.5,-19.5 108.5,-0.5 67.5,-0.5"/>
<text text-anchor="middle" x="88" y="-7.5" font-family="Helvetica,sans-Serif" font-size="10.00">string</text>
</g>
<!-- Node0&#45;&gt;Node6 -->
<g id="edge27" class="edge"><title>Node0&#45;&gt;Node6</title>
<path fill="none" stroke="midnightblue" d="M62.0649,-336.286C34.0957,-313.423 0,-276.95 0,-235 0,-235 0,-235 0,-121 0,-90.9022 1.0586,-80.1657 19,-56 29.0438,-42.4718 44.4566,-31.8646 58.1696,-24.355"/>
<polygon fill="midnightblue" stroke="midnightblue" points="60.0151,-27.3415 67.3047,-19.6531 56.8116,-21.1176 60.0151,-27.3415"/>
</g>
<!-- Node8 -->
<g id="node9" class="node"><title>Node8</title>
<polygon fill="white" stroke="#bfbfbf" points="166,-56.5 166,-75.5 210,-75.5 210,-56.5 166,-56.5"/>
<text text-anchor="middle" x="188" y="-63.5" font-family="Helvetica,sans-Serif" font-size="10.00">vector</text>
</g>
<!-- Node0&#45;&gt;Node8 -->
<g id="edge28" class="edge"><title>Node0&#45;&gt;Node8</title>
<path fill="none" stroke="midnightblue" d="M98,-336.299C98,-310.768 98,-270.139 98,-235 98,-235 98,-235 98,-177 98,-134.658 138.439,-99.6551 165.104,-81.1778"/>
<polygon fill="midnightblue" stroke="midnightblue" points="167.158,-84.0152 173.54,-75.5584 163.277,-78.1893 167.158,-84.0152"/>
</g>
<!-- Node15 -->
<g id="node16" class="node"><title>Node15</title>
<g id="a_node16"><a xlink:href="Random_8h.html" target="_top" xlink:title="pinhao/Support/Random.h">
<polygon fill="white" stroke="black" points="711,-280.5 711,-299.5 841,-299.5 841,-280.5 711,-280.5"/>
<text text-anchor="middle" x="776" y="-287.5" font-family="Helvetica,sans-Serif" font-size="10.00">pinhao/Support/Random.h</text>
</a>
</g>
</g>
<!-- Node0&#45;&gt;Node15 -->
<g id="edge24" class="edge"><title>Node0&#45;&gt;Node15</title>
<path fill="none" stroke="midnightblue" d="M193.345,-351.586C329.395,-337.439 576.467,-311.748 700.58,-298.842"/>
<polygon fill="midnightblue" stroke="midnightblue" points="701.167,-302.3 710.751,-297.785 700.443,-295.338 701.167,-302.3"/>
</g>
<!-- Node2 -->
<g id="node3" class="node"><title>Node2</title>
<g id="a_node3"><a xlink:href="Features_8h.html" target="_top" xlink:title="This file implements some basic feature classes that extends the base class Feature. ">
<polygon fill="white" stroke="black" points="468,-224.5 468,-243.5 604,-243.5 604,-224.5 468,-224.5"/>
<text text-anchor="middle" x="536" y="-231.5" font-family="Helvetica,sans-Serif" font-size="10.00">pinhao/Features/Features.h</text>
</a>
</g>
</g>
<!-- Node1&#45;&gt;Node2 -->
<g id="edge2" class="edge"><title>Node1&#45;&gt;Node2</title>
<path fill="none" stroke="midnightblue" d="M387.046,-280.444C417.082,-271.28 464.913,-256.688 498.243,-246.519"/>
<polygon fill="midnightblue" stroke="midnightblue" points="499.542,-249.782 508.085,-243.516 497.499,-243.087 499.542,-249.782"/>
</g>
<!-- Node7 -->
<g id="node8" class="node"><title>Node7</title>
<polygon fill="white" stroke="#bfbfbf" points="360.5,-56.5 360.5,-75.5 395.5,-75.5 395.5,-56.5 360.5,-56.5"/>
<text text-anchor="middle" x="378" y="-63.5" font-family="Helvetica,sans-Serif" font-size="10.00">map</text>
</g>
<!-- Node1&#45;&gt;Node7 -->
<g id="edge21" class="edge"><title>Node1&#45;&gt;Node7</title>
<path fill="none" stroke="midnightblue" d="M358.422,-280.446C356.859,-254.737 353.35,-175.984 364,-112 365.494,-103.021 368.334,-93.3479 371.067,-85.2794"/>
<polygon fill="midnightblue" stroke="midnightblue" points="374.389,-86.3849 374.477,-75.7905 367.801,-84.0177 374.389,-86.3849"/>
</g>
<!-- Node1&#45;&gt;Node8 -->
<g id="edge22" class="edge"><title>Node1&#45;&gt;Node8</title>
<path fill="none" stroke="midnightblue" d="M337.684,-280.413C293.727,-261.381 193.883,-210.99 155,-132 146.761,-115.263 158.951,-96.2493 170.776,-83.1303"/>
<polygon fill="midnightblue" stroke="midnightblue" points="173.444,-85.4066 177.905,-75.7967 168.425,-80.5273 173.444,-85.4066"/>
</g>
<!-- Node9 -->
<g id="node10" class="node"><title>Node9</title>
<polygon fill="white" stroke="#bfbfbf" points="623.5,-56.5 623.5,-75.5 672.5,-75.5 672.5,-56.5 623.5,-56.5"/>
<text text-anchor="middle" x="648" y="-63.5" font-family="Helvetica,sans-Serif" font-size="10.00">cassert</text>
</g>
<!-- Node1&#45;&gt;Node9 -->
<g id="edge20" class="edge"><title>Node1&#45;&gt;Node9</title>
<path fill="none" stroke="midnightblue" d="M359.945,-280.342C363.584,-251.446 379.397,-157.585 435,-112 461.922,-89.9285 560.396,-76.3201 613.502,-70.424"/>
<polygon fill="midnightblue" stroke="midnightblue" points="613.917,-73.8996 623.484,-69.3473 613.166,-66.94 613.917,-73.8996"/>
</g>
<!-- Node11 -->
<g id="node12" class="node"><title>Node11</title>
<polygon fill="white" stroke="#bfbfbf" points="865,-56.5 865,-75.5 917,-75.5 917,-56.5 865,-56.5"/>
<text text-anchor="middle" x="891" y="-63.5" font-family="Helvetica,sans-Serif" font-size="10.00">memory</text>
</g>
<!-- Node1&#45;&gt;Node11 -->
<g id="edge23" class="edge"><title>Node1&#45;&gt;Node11</title>
<path fill="none" stroke="midnightblue" d="M424.654,-280.487C476.336,-273.04 549.921,-260.78 613,-244 755.379,-206.125 840.228,-252.499 925,-132 936.026,-116.327 922.344,-96.6227 909.191,-83.0404"/>
<polygon fill="midnightblue" stroke="midnightblue" points="911.33,-80.2412 901.698,-75.8276 906.475,-85.2843 911.33,-80.2412"/>
</g>
<!-- Node3 -->
<g id="node4" class="node"><title>Node3</title>
<g id="a_node4"><a xlink:href="Feature_8h.html" target="_top" xlink:title="This file defines the base feature class. ">
<polygon fill="white" stroke="black" points="478.5,-168.5 478.5,-187.5 609.5,-187.5 609.5,-168.5 478.5,-168.5"/>
<text text-anchor="middle" x="544" y="-175.5" font-family="Helvetica,sans-Serif" font-size="10.00">pinhao/Features/Feature.h</text>
</a>
</g>
</g>
<!-- Node2&#45;&gt;Node3 -->
<g id="edge3" class="edge"><title>Node2&#45;&gt;Node3</title>
<path fill="none" stroke="midnightblue" d="M537.321,-224.083C538.381,-216.927 539.906,-206.635 541.231,-197.691"/>
<polygon fill="midnightblue" stroke="midnightblue" points="544.7,-198.156 542.704,-187.751 537.776,-197.13 544.7,-198.156"/>
</g>
<!-- Node4 -->
<g id="node5" class="node"><title>Node4</title>
<g id="a_node5"><a xlink:href="FeatureInfo_8h.html" target="_top" xlink:title="This file defines a class that holds some informations about a feature. ">
<polygon fill="white" stroke="black" points="164.5,-112.5 164.5,-131.5 311.5,-131.5 311.5,-112.5 164.5,-112.5"/>
<text text-anchor="middle" x="238" y="-119.5" font-family="Helvetica,sans-Serif" font-size="10.00">pinhao/Features/FeatureInfo.h</text>
</a>
</g>
</g>
<!-- Node3&#45;&gt;Node4 -->
<g id="edge4" class="edge"><title>Node3&#45;&gt;Node4</title>
<path fill="none" stroke="midnightblue" d="M495.513,-168.444C441.461,-158.905 354.072,-143.483 296.327,-133.293"/>
<polygon fill="midnightblue" stroke="midnightblue" points="296.716,-129.808 286.26,-131.516 295.499,-136.701 296.716,-129.808"/>
</g>
<!-- Node3&#45;&gt;Node7 -->
<g id="edge17" class="edge"><title>Node3&#45;&gt;Node7</title>
<path fill="none" stroke="midnightblue" d="M512.952,-168.397C490.028,-161.084 458.807,-149.039 435,-132 416.578,-118.815 400.064,-98.5818 389.613,-84.1953"/>
<polygon fill="midnightblue" stroke="midnightblue" points="392.272,-81.8913 383.661,-75.7184 386.543,-85.9137 392.272,-81.8913"/>
</g>
<!-- Node3&#45;&gt;Node9 -->
<g id="edge18" class="edge"><title>Node3&#45;&gt;Node9</title>
<path fill="none" stroke="midnightblue" d="M609.759,-173.545C709.497,-167.623 889.544,-154.002 909,-132 914.888,-125.341 914.727,-118.798 909,-112 880.448,-78.1042 746.905,-69.7401 682.678,-67.6761"/>
<polygon fill="midnightblue" stroke="midnightblue" points="682.722,-64.1761 672.625,-67.3867 682.521,-71.1732 682.722,-64.1761"/>
</g>
<!-- Node10 -->
<g id="node11" class="node"><title>Node10</title>
<g id="a_node11"><a xlink:href="FeatureRegistry_8h.html" target="_top" xlink:title="This file defines a class that has all the registered features. ">
<polygon fill="white" stroke="black" points="733.5,-112.5 733.5,-131.5 900.5,-131.5 900.5,-112.5 733.5,-112.5"/>
<text text-anchor="middle" x="817" y="-119.5" font-family="Helvetica,sans-Serif" font-size="10.00">pinhao/Features/FeatureRegistry.h</text>
</a>
</g>
</g>
<!-- Node3&#45;&gt;Node10 -->
<g id="edge11" class="edge"><title>Node3&#45;&gt;Node10</title>
<path fill="none" stroke="midnightblue" d="M587.258,-168.444C635.181,-158.964 712.478,-143.675 764,-133.483"/>
<polygon fill="midnightblue" stroke="midnightblue" points="764.814,-136.89 773.945,-131.516 763.456,-130.023 764.814,-136.89"/>
</g>
<!-- Node12 -->
<g id="node13" class="node"><title>Node12</title>
<polygon fill="white" stroke="#bfbfbf" points="444.5,-112.5 444.5,-131.5 535.5,-131.5 535.5,-112.5 444.5,-112.5"/>
<text text-anchor="middle" x="490" y="-119.5" font-family="Helvetica,sans-Serif" font-size="10.00">llvm/IR/Module.h</text>
</g>
<!-- Node3&#45;&gt;Node12 -->
<g id="edge15" class="edge"><title>Node3&#45;&gt;Node12</title>
<path fill="none" stroke="midnightblue" d="M535.083,-168.083C527.22,-160.22 515.569,-148.569 506.081,-139.081"/>
<polygon fill="midnightblue" stroke="midnightblue" points="508.297,-136.347 498.751,-131.751 503.347,-141.297 508.297,-136.347"/>
</g>
<!-- Node13 -->
<g id="node14" class="node"><title>Node13</title>
<polygon fill="white" stroke="#bfbfbf" points="553.5,-112.5 553.5,-131.5 642.5,-131.5 642.5,-112.5 553.5,-112.5"/>
<text text-anchor="middle" x="598" y="-119.5" font-family="Helvetica,sans-Serif" font-size="10.00">yaml&#45;cpp/yaml.h</text>
</g>
<!-- Node3&#45;&gt;Node13 -->
<g id="edge16" class="edge"><title>Node3&#45;&gt;Node13</title>
<path fill="none" stroke="midnightblue" d="M552.917,-168.083C560.78,-160.22 572.431,-148.569 581.919,-139.081"/>
<polygon fill="midnightblue" stroke="midnightblue" points="584.653,-141.297 589.249,-131.751 579.703,-136.347 584.653,-141.297"/>
</g>
<!-- Node14 -->
<g id="node15" class="node"><title>Node14</title>
<polygon fill="white" stroke="#bfbfbf" points="661,-112.5 661,-131.5 715,-131.5 715,-112.5 661,-112.5"/>
<text text-anchor="middle" x="688" y="-119.5" font-family="Helvetica,sans-Serif" font-size="10.00">iostream</text>
</g>
<!-- Node3&#45;&gt;Node14 -->
<g id="edge19" class="edge"><title>Node3&#45;&gt;Node14</title>
<path fill="none" stroke="midnightblue" d="M566.817,-168.444C590.832,-159.438 628.829,-145.189 655.869,-135.049"/>
<polygon fill="midnightblue" stroke="midnightblue" points="657.155,-138.305 665.29,-131.516 654.697,-131.751 657.155,-138.305"/>
</g>
<!-- Node4&#45;&gt;Node5 -->
<g id="edge5" class="edge"><title>Node4&#45;&gt;Node5</title>
<path fill="none" stroke="midnightblue" d="M214.232,-112.444C189.107,-103.399 149.289,-89.064 121.1,-78.9158"/>
<polygon fill="midnightblue" stroke="midnightblue" points="122.251,-75.6106 111.657,-75.5164 119.88,-82.1968 122.251,-75.6106"/>
</g>
<!-- Node4&#45;&gt;Node6 -->
<g id="edge9" class="edge"><title>Node4&#45;&gt;Node6</title>
<path fill="none" stroke="midnightblue" d="M237.881,-112.181C237.217,-98.3812 233.937,-71.6482 219,-56 192.677,-28.4237 148.719,-17.7445 119.062,-13.61"/>
<polygon fill="midnightblue" stroke="midnightblue" points="119.192,-10.1 108.842,-12.3637 118.345,-17.0485 119.192,-10.1"/>
</g>
<!-- Node4&#45;&gt;Node7 -->
<g id="edge7" class="edge"><title>Node4&#45;&gt;Node7</title>
<path fill="none" stroke="midnightblue" d="M260.183,-112.444C284.796,-102.95 324.515,-87.6297 350.937,-77.4385"/>
<polygon fill="midnightblue" stroke="midnightblue" points="352.283,-80.6709 360.353,-73.8067 349.764,-74.1399 352.283,-80.6709"/>
</g>
<!-- Node4&#45;&gt;Node8 -->
<g id="edge8" class="edge"><title>Node4&#45;&gt;Node8</title>
<path fill="none" stroke="midnightblue" d="M229.744,-112.083C222.535,-104.298 211.89,-92.8015 203.154,-83.3665"/>
<polygon fill="midnightblue" stroke="midnightblue" points="205.465,-80.7108 196.103,-75.7511 200.329,-85.4666 205.465,-80.7108"/>
</g>
<!-- Node4&#45;&gt;Node9 -->
<g id="edge10" class="edge"><title>Node4&#45;&gt;Node9</title>
<path fill="none" stroke="midnightblue" d="M302.966,-112.444C390.842,-100.87 544.479,-80.6345 613.132,-71.5924"/>
<polygon fill="midnightblue" stroke="midnightblue" points="613.94,-75.0162 623.398,-70.2403 613.026,-68.0762 613.94,-75.0162"/>
</g>
<!-- Node5&#45;&gt;Node6 -->
<g id="edge6" class="edge"><title>Node5&#45;&gt;Node6</title>
<path fill="none" stroke="midnightblue" d="M88,-56.083C88,-49.0059 88,-38.8611 88,-29.9865"/>
<polygon fill="midnightblue" stroke="midnightblue" points="91.5001,-29.751 88,-19.7511 84.5001,-29.7511 91.5001,-29.751"/>
</g>
<!-- Node10&#45;&gt;Node7 -->
<g id="edge14" class="edge"><title>Node10&#45;&gt;Node7</title>
<path fill="none" stroke="midnightblue" d="M747.439,-112.444C649.189,-100.358 474.168,-78.8293 406.137,-70.461"/>
<polygon fill="midnightblue" stroke="midnightblue" points="406.154,-66.9368 395.801,-69.1897 405.299,-73.8844 406.154,-66.9368"/>
</g>
<!-- Node10&#45;&gt;Node9 -->
<g id="edge13" class="edge"><title>Node10&#45;&gt;Node9</title>
<path fill="none" stroke="midnightblue" d="M790.221,-112.444C761.079,-103.132 714.391,-88.2137 682.516,-78.0289"/>
<polygon fill="midnightblue" stroke="midnightblue" points="683.32,-74.6113 672.729,-74.9015 681.189,-81.2792 683.32,-74.6113"/>
</g>
<!-- Node10&#45;&gt;Node11 -->
<g id="edge12" class="edge"><title>Node10&#45;&gt;Node11</title>
<path fill="none" stroke="midnightblue" d="M828.889,-112.324C840.15,-104.107 857.287,-91.6017 870.709,-81.8069"/>
<polygon fill="midnightblue" stroke="midnightblue" points="872.88,-84.5559 878.894,-75.8339 868.753,-78.9014 872.88,-84.5559"/>
</g>
<!-- Node16 -->
<g id="node17" class="node"><title>Node16</title>
<polygon fill="white" stroke="#bfbfbf" points="994.5,-224.5 994.5,-243.5 1043.5,-243.5 1043.5,-224.5 994.5,-224.5"/>
<text text-anchor="middle" x="1019" y="-231.5" font-family="Helvetica,sans-Serif" font-size="10.00">random</text>
</g>
<!-- Node15&#45;&gt;Node16 -->
<g id="edge25" class="edge"><title>Node15&#45;&gt;Node16</title>
<path fill="none" stroke="midnightblue" d="M815.133,-280.486C856.219,-271.519 922.687,-256.934 980,-244 981.44,-243.675 982.91,-243.342 984.395,-243.004"/>
<polygon fill="midnightblue" stroke="midnightblue" points="985.283,-246.392 994.251,-240.749 983.722,-239.568 985.283,-246.392"/>
</g>
</g>
</svg>
        <g id="navigator" transform="translate(0 0)" fill="#404254">
                <rect fill="#f2f5e9" fill-opacity="0.5" stroke="#606060" stroke-width=".5" x="0" y="0" width="60" height="60"/>
                <use id="zoomplus" xlink:href="#zoomPlus" x="17" y="9" onmousedown="handleZoom(evt,'in')"/>
                <use id="zoomminus" xlink:href="#zoomMin" x="42" y="9" onmousedown="handleZoom(evt,'out')"/>
                <use id="reset" xlink:href="#resetDef" x="30" y="36" onmousedown="handleReset()"/>
                <g id="arrowUp" xlink:href="#dirArrow" transform="translate(30 24)" onmousedown="handlePan(0,-1)">
                  <use xlink:href="#rim" fill="#404040">
                        <set attributeName="fill" to="#808080" begin="arrowUp.mouseover" end="arrowUp.mouseout"/>
                  </use>
                  <path fill="none" stroke="white" stroke-width="1.5" d="M0,-3.0v7 M-2.5,-0.5L0,-3.0L2.5,-0.5"/>
                </g>
                <g id="arrowRight" xlink:href="#dirArrow" transform="rotate(90) translate(36 -43)" onmousedown="handlePan(1,0)">
                  <use xlink:href="#rim" fill="#404040">
                        <set attributeName="fill" to="#808080" begin="arrowRight.mouseover" end="arrowRight.mouseout"/>
                  </use>
                  <path fill="none" stroke="white" stroke-width="1.5" d="M0,-3.0v7 M-2.5,-0.5L0,-3.0L2.5,-0.5"/>
                </g>
                <g id="arrowDown" xlink:href="#dirArrow" transform="rotate(180) translate(-30 -48)" onmousedown="handlePan(0,1)">
                  <use xlink:href="#rim" fill="#404040">
                        <set attributeName="fill" to="#808080" begin="arrowDown.mouseover" end="arrowDown.mouseout"/>
                  </use>
                  <path fill="none" stroke="white" stroke-width="1.5" d="M0,-3.0v7 M-2.5,-0.5L0,-3.0L2.5,-0.5"/>
                </g>
                <g id="arrowLeft" xlink:href="#dirArrow" transform="rotate(270) translate(-36 17)" onmousedown="handlePan(-1,0)">
                  <use xlink:href="#rim" fill="#404040">
                        <set attributeName="fill" to="#808080" begin="arrowLeft.mouseover" end="arrowLeft.mouseout"/>
                  </use>
                  <path fill="none" stroke="white" stroke-width="1.5" d="M0,-3.0v7 M-2.5,-0.5L0,-3.0L2.5,-0.5"/>
                </g>
        </g>
        <svg viewBox="0 0 15 15" width="100%" height="30px" preserveAspectRatio="xMaxYMin meet">
         <g id="arrow_out" transform="scale(0.3 0.3)">
          <a xlink:href="Formula_8h__incl_org.svg" target="_base">
           <rect id="button" ry="5" rx="5" y="6" x="6" height="38" width="38"
                fill="#f2f5e9" fill-opacity="0.5" stroke="#606060" stroke-width="1.0"/>
           <path id="arrow"
             d="M 11.500037,31.436501 C 11.940474,20.09759 22.043105,11.32322 32.158766,21.979434 L 37.068811,17.246167 C 37.068811,17.246167 37.088388,32 37.088388,32 L 22.160133,31.978069 C 22.160133,31.978069 26.997745,27.140456 26.997745,27.140456 C 18.528582,18.264221 13.291696,25.230495 11.500037,31.436501 z"
             style="fill:#404040;"/>
          </a>
         </g>
        </svg>
</svg>
