<?xml version="1.0" encoding="UTF-8" standalone="no"?>
<!DOCTYPE svg PUBLIC "-//W3C//DTD SVG 1.1//EN"
 "http://www.w3.org/Graphics/SVG/1.1/DTD/svg11.dtd">
<!-- Generated by graphviz version 2.38.0 (20140413.2041)
 -->
<!-- Title: /home/yukiosir/workspace/CompilerProject/Software/pinhao/include/pinhao/Support/FormulaYAMLWrapper.h Pages: 1 -->
<!--zoomable 464 -->
<svg id="main" version="1.1" xmlns="http://www.w3.org/2000/svg" xmlns:xlink="http://www.w3.org/1999/xlink" xml:space="preserve" onload="init(evt)">
<style type="text/css"><![CDATA[
.edge:hover path { stroke: red; }
.edge:hover polygon { stroke: red; fill: red; }
]]></style>
<script type="text/javascript"><![CDATA[
var edges = document.getElementsByTagName('g');
if (edges && edges.length) {
  for (var i=0;i<edges.length;i++) {
    if (edges[i].id.substr(0,4)=='edge') {
      edges[i].setAttribute('class','edge');
    }
  }
}
]]></script>
        <defs>
                <circle id="rim" cx="0" cy="0" r="7"/>
                <circle id="rim2" cx="0" cy="0" r="3.5"/>
                <g id="zoomPlus">
                        <use xlink:href="#rim" fill="#404040">
                                <set attributeName="fill" to="#808080" begin="zoomplus.mouseover" end="zoomplus.mouseout"/>
                        </use>
                        <path d="M-4,0h8M0,-4v8" fill="none" stroke="white" stroke-width="1.5" pointer-events="none"/>
                </g>
                <g id="zoomMin">
                        <use xlink:href="#rim" fill="#404040">
                                <set attributeName="fill" to="#808080" begin="zoomminus.mouseover" end="zoomminus.mouseout"/>
                        </use>
                        <path d="M-4,0h8" fill="none" stroke="white" stroke-width="1.5" pointer-events="none"/>
                </g>
                <g id="dirArrow">
                        <path fill="none" stroke="white" stroke-width="1.5" d="M0,-3.0v7 M-2.5,-0.5L0,-3.0L2.5,-0.5"/>
                </g>
               <g id="resetDef">
                       <use xlink:href="#rim2" fill="#404040">
                               <set attributeName="fill" to="#808080" begin="reset.mouseover" end="reset.mouseout"/>
                       </use>
               </g>
        </defs>

<script type="text/javascript">
var viewWidth = 1229;
var viewHeight = 464;
var sectionId = 'dynsection-0';
</script>
<script xlink:href="svgpan.js"/>
<svg id="graph" class="graph">
<g id="viewport">
<title>/home/yukiosir/workspace/CompilerProject/Software/pinhao/include/pinhao/Support/FormulaYAMLWrapper.h</title>
<polygon fill="white" stroke="none" points="-4,4 -4,-460 1225.07,-460 1225.07,4 -4,4"/>
<!-- Node0 -->
<g id="node1" class="node"><title>Node0</title>
<polygon fill="#bfbfbf" stroke="black" points="491.5,-403.5 491.5,-455.5 641.5,-455.5 641.5,-403.5 491.5,-403.5"/>
<text text-anchor="start" x="499.5" y="-443.5" font-family="Helvetica,sans-Serif" font-size="10.00">/home/yukiosir/workspace</text>
<text text-anchor="start" x="499.5" y="-432.5" font-family="Helvetica,sans-Serif" font-size="10.00">/CompilerProject/Software</text>
<text text-anchor="start" x="499.5" y="-421.5" font-family="Helvetica,sans-Serif" font-size="10.00">/pinhao/include/pinhao/Support</text>
<text text-anchor="middle" x="566.5" y="-410.5" font-family="Helvetica,sans-Serif" font-size="10.00">/FormulaYAMLWrapper.h</text>
</g>
<!-- Node1 -->
<g id="node2" class="node"><title>Node1</title>
<g id="a_node2"><a xlink:href="YAMLWrapper_8h.html" target="_top" xlink:title="pinhao/Support/YAMLWrapper.h">
<polygon fill="white" stroke="black" points="66,-168.5 66,-187.5 223,-187.5 223,-168.5 66,-168.5"/>
<text text-anchor="middle" x="144.5" y="-175.5" font-family="Helvetica,sans-Serif" font-size="10.00">pinhao/Support/YAMLWrapper.h</text>
</a>
</g>
</g>
<!-- Node0&#45;&gt;Node1 -->
<g id="edge1" class="edge"><title>Node0&#45;&gt;Node1</title>
<path fill="none" stroke="midnightblue" d="M524.105,-403.435C436.072,-351.387 235.987,-233.09 167.781,-192.764"/>
<polygon fill="midnightblue" stroke="midnightblue" points="169.447,-189.683 159.057,-187.607 165.884,-195.709 169.447,-189.683"/>
</g>
<!-- Node5 -->
<g id="node6" class="node"><title>Node5</title>
<g id="a_node6"><a xlink:href="YamlOptions_8h.html" target="_top" xlink:title="pinhao/Support/YamlOptions.h">
<polygon fill="white" stroke="black" points="0,-342 0,-361 149,-361 149,-342 0,-342"/>
<text text-anchor="middle" x="74.5" y="-349" font-family="Helvetica,sans-Serif" font-size="10.00">pinhao/Support/YamlOptions.h</text>
</a>
</g>
</g>
<!-- Node0&#45;&gt;Node5 -->
<g id="edge5" class="edge"><title>Node0&#45;&gt;Node5</title>
<path fill="none" stroke="midnightblue" d="M491.271,-417.173C410.483,-404.967 278.365,-384.882 164.5,-367 155.544,-365.594 146.09,-364.091 136.809,-362.605"/>
<polygon fill="midnightblue" stroke="midnightblue" points="137.267,-359.133 126.838,-361.004 136.157,-366.045 137.267,-359.133"/>
</g>
<!-- Node6 -->
<g id="node7" class="node"><title>Node6</title>
<g id="a_node7"><a xlink:href="Types_8h.html" target="_top" xlink:title="pinhao/Support/Types.h">
<polygon fill="white" stroke="black" points="856.5,-56.5 856.5,-75.5 976.5,-75.5 976.5,-56.5 856.5,-56.5"/>
<text text-anchor="middle" x="916.5" y="-63.5" font-family="Helvetica,sans-Serif" font-size="10.00">pinhao/Support/Types.h</text>
</a>
</g>
</g>
<!-- Node0&#45;&gt;Node6 -->
<g id="edge7" class="edge"><title>Node0&#45;&gt;Node6</title>
<path fill="none" stroke="midnightblue" d="M641.574,-415.029C745.488,-394.21 920.5,-350.338 920.5,-291 920.5,-291 920.5,-291 920.5,-177 920.5,-144.927 918.781,-107.628 917.596,-85.7413"/>
<polygon fill="midnightblue" stroke="midnightblue" points="921.08,-85.3413 917.023,-75.5539 914.091,-85.7349 921.08,-85.3413"/>
</g>
<!-- Node8 -->
<g id="node9" class="node"><title>Node8</title>
<g id="a_node9"><a xlink:href="Formula_8h.html" target="_top" xlink:title="pinhao/MachineLearning\l/GrammarEvolution/Formula.h">
<polygon fill="white" stroke="black" points="955,-336.5 955,-366.5 1102,-366.5 1102,-336.5 955,-336.5"/>
<text text-anchor="start" x="963" y="-354.5" font-family="Helvetica,sans-Serif" font-size="10.00">pinhao/MachineLearning</text>
<text text-anchor="middle" x="1028.5" y="-343.5" font-family="Helvetica,sans-Serif" font-size="10.00">/GrammarEvolution/Formula.h</text>
</a>
</g>
</g>
<!-- Node0&#45;&gt;Node8 -->
<g id="edge9" class="edge"><title>Node0&#45;&gt;Node8</title>
<path fill="none" stroke="midnightblue" d="M641.757,-416.12C724.888,-402.445 858.392,-380.483 944.771,-366.274"/>
<polygon fill="midnightblue" stroke="midnightblue" points="945.505,-369.7 954.804,-364.623 944.368,-362.793 945.505,-369.7"/>
</g>
<!-- Node2 -->
<g id="node3" class="node"><title>Node2</title>
<polygon fill="white" stroke="#bfbfbf" points="11,-112.5 11,-131.5 100,-131.5 100,-112.5 11,-112.5"/>
<text text-anchor="middle" x="55.5" y="-119.5" font-family="Helvetica,sans-Serif" font-size="10.00">yaml&#45;cpp/yaml.h</text>
</g>
<!-- Node1&#45;&gt;Node2 -->
<g id="edge2" class="edge"><title>Node1&#45;&gt;Node2</title>
<path fill="none" stroke="midnightblue" d="M130.201,-168.324C116.317,-159.9 95.0076,-146.971 78.6963,-137.074"/>
<polygon fill="midnightblue" stroke="midnightblue" points="80.1289,-133.85 69.7639,-131.655 76.4978,-139.834 80.1289,-133.85"/>
</g>
<!-- Node3 -->
<g id="node4" class="node"><title>Node3</title>
<polygon fill="white" stroke="#bfbfbf" points="226.5,-112.5 226.5,-131.5 280.5,-131.5 280.5,-112.5 226.5,-112.5"/>
<text text-anchor="middle" x="253.5" y="-119.5" font-family="Helvetica,sans-Serif" font-size="10.00">iostream</text>
</g>
<!-- Node1&#45;&gt;Node3 -->
<g id="edge3" class="edge"><title>Node1&#45;&gt;Node3</title>
<path fill="none" stroke="midnightblue" d="M162.013,-168.324C179.572,-159.625 206.831,-146.12 227.031,-136.113"/>
<polygon fill="midnightblue" stroke="midnightblue" points="228.624,-139.23 236.031,-131.655 225.516,-132.958 228.624,-139.23"/>
</g>
<!-- Node4 -->
<g id="node5" class="node"><title>Node4</title>
<polygon fill="white" stroke="#bfbfbf" points="118.5,-112.5 118.5,-131.5 170.5,-131.5 170.5,-112.5 118.5,-112.5"/>
<text text-anchor="middle" x="144.5" y="-119.5" font-family="Helvetica,sans-Serif" font-size="10.00">ostream</text>
</g>
<!-- Node1&#45;&gt;Node4 -->
<g id="edge4" class="edge"><title>Node1&#45;&gt;Node4</title>
<path fill="none" stroke="midnightblue" d="M144.5,-168.083C144.5,-161.006 144.5,-150.861 144.5,-141.986"/>
<polygon fill="midnightblue" stroke="midnightblue" points="148,-141.751 144.5,-131.751 141,-141.751 148,-141.751"/>
</g>
<!-- Node5&#45;&gt;Node2 -->
<g id="edge6" class="edge"><title>Node5&#45;&gt;Node2</title>
<path fill="none" stroke="midnightblue" d="M73.23,-341.718C69.7734,-317.371 60.2083,-246.923 56.5,-188 55.5241,-172.493 55.3086,-154.866 55.3179,-141.884"/>
<polygon fill="midnightblue" stroke="midnightblue" points="58.818,-141.86 55.3705,-131.842 51.8181,-141.823 58.818,-141.86"/>
</g>
<!-- Node7 -->
<g id="node8" class="node"><title>Node7</title>
<polygon fill="white" stroke="#bfbfbf" points="896,-0.5 896,-19.5 937,-19.5 937,-0.5 896,-0.5"/>
<text text-anchor="middle" x="916.5" y="-7.5" font-family="Helvetica,sans-Serif" font-size="10.00">string</text>
</g>
<!-- Node6&#45;&gt;Node7 -->
<g id="edge8" class="edge"><title>Node6&#45;&gt;Node7</title>
<path fill="none" stroke="midnightblue" d="M916.5,-56.083C916.5,-49.0059 916.5,-38.8611 916.5,-29.9865"/>
<polygon fill="midnightblue" stroke="midnightblue" points="920,-29.751 916.5,-19.7511 913,-29.7511 920,-29.751"/>
</g>
<!-- Node8&#45;&gt;Node6 -->
<g id="edge34" class="edge"><title>Node8&#45;&gt;Node6</title>
<path fill="none" stroke="midnightblue" d="M1021.87,-336.266C1012.5,-314.805 996.5,-272.661 996.5,-235 996.5,-235 996.5,-235 996.5,-177 996.5,-136.621 960.805,-101.106 937.102,-81.9729"/>
<polygon fill="midnightblue" stroke="midnightblue" points="939.046,-79.0515 929,-75.6866 934.755,-84.582 939.046,-79.0515"/>
</g>
<!-- Node8&#45;&gt;Node7 -->
<g id="edge35" class="edge"><title>Node8&#45;&gt;Node7</title>
<path fill="none" stroke="midnightblue" d="M1102.35,-345.052C1136.59,-338.87 1175.39,-326.102 1201.5,-300 1222.79,-278.722 1220.5,-265.098 1220.5,-235 1220.5,-235 1220.5,-235 1220.5,-121 1220.5,-63.3743 1024.91,-27.4207 947.501,-15.4479"/>
<polygon fill="midnightblue" stroke="midnightblue" points="947.806,-11.9544 937.395,-13.9179 946.759,-18.8755 947.806,-11.9544"/>
</g>
<!-- Node9 -->
<g id="node10" class="node"><title>Node9</title>
<g id="a_node10"><a xlink:href="FeatureSet_8h.html" target="_top" xlink:title="This file defines a class which contains the features selected by the user (by some command line)...">
<polygon fill="white" stroke="black" points="587.5,-280.5 587.5,-299.5 733.5,-299.5 733.5,-280.5 587.5,-280.5"/>
<text text-anchor="middle" x="660.5" y="-287.5" font-family="Helvetica,sans-Serif" font-size="10.00">pinhao/Features/FeatureSet.h</text>
</a>
</g>
</g>
<!-- Node8&#45;&gt;Node9 -->
<g id="edge10" class="edge"><title>Node8&#45;&gt;Node9</title>
<path fill="none" stroke="midnightblue" d="M954.914,-338.602C887.022,-327.625 787.303,-311.502 723.134,-301.127"/>
<polygon fill="midnightblue" stroke="midnightblue" points="723.581,-297.654 713.151,-299.513 722.464,-304.564 723.581,-297.654"/>
</g>
<!-- Node14 -->
<g id="node15" class="node"><title>Node14</title>
<polygon fill="white" stroke="#bfbfbf" points="994.5,-56.5 994.5,-75.5 1038.5,-75.5 1038.5,-56.5 994.5,-56.5"/>
<text text-anchor="middle" x="1016.5" y="-63.5" font-family="Helvetica,sans-Serif" font-size="10.00">vector</text>
</g>
<!-- Node8&#45;&gt;Node14 -->
<g id="edge36" class="edge"><title>Node8&#45;&gt;Node14</title>
<path fill="none" stroke="midnightblue" d="M1029.71,-336.287C1031.47,-314.504 1034.5,-271.544 1034.5,-235 1034.5,-235 1034.5,-235 1034.5,-177 1034.5,-144.537 1026.77,-107.384 1021.44,-85.6276"/>
<polygon fill="midnightblue" stroke="midnightblue" points="1024.79,-84.5867 1018.93,-75.7605 1018.01,-86.3151 1024.79,-84.5867"/>
</g>
<!-- Node19 -->
<g id="node20" class="node"><title>Node19</title>
<g id="a_node20"><a xlink:href="Random_8h.html" target="_top" xlink:title="pinhao/Support/Random.h">
<polygon fill="white" stroke="black" points="1062.5,-280.5 1062.5,-299.5 1192.5,-299.5 1192.5,-280.5 1062.5,-280.5"/>
<text text-anchor="middle" x="1127.5" y="-287.5" font-family="Helvetica,sans-Serif" font-size="10.00">pinhao/Support/Random.h</text>
</a>
</g>
</g>
<!-- Node8&#45;&gt;Node19 -->
<g id="edge32" class="edge"><title>Node8&#45;&gt;Node19</title>
<path fill="none" stroke="midnightblue" d="M1051.96,-336.399C1067.83,-326.862 1088.69,-314.325 1104.47,-304.842"/>
<polygon fill="midnightblue" stroke="midnightblue" points="1106.33,-307.809 1113.09,-299.658 1102.72,-301.809 1106.33,-307.809"/>
</g>
<!-- Node10 -->
<g id="node11" class="node"><title>Node10</title>
<g id="a_node11"><a xlink:href="Features_8h.html" target="_top" xlink:title="This file implements some basic feature classes that extends the base class Feature. ">
<polygon fill="white" stroke="black" points="507.5,-224.5 507.5,-243.5 643.5,-243.5 643.5,-224.5 507.5,-224.5"/>
<text text-anchor="middle" x="575.5" y="-231.5" font-family="Helvetica,sans-Serif" font-size="10.00">pinhao/Features/Features.h</text>
</a>
</g>
</g>
<!-- Node9&#45;&gt;Node10 -->
<g id="edge11" class="edge"><title>Node9&#45;&gt;Node10</title>
<path fill="none" stroke="midnightblue" d="M646.843,-280.324C633.584,-271.9 613.232,-258.971 597.654,-249.074"/>
<polygon fill="midnightblue" stroke="midnightblue" points="599.44,-246.063 589.123,-243.655 595.687,-251.971 599.44,-246.063"/>
</g>
<!-- Node13 -->
<g id="node14" class="node"><title>Node13</title>
<polygon fill="white" stroke="#bfbfbf" points="680,-56.5 680,-75.5 715,-75.5 715,-56.5 680,-56.5"/>
<text text-anchor="middle" x="697.5" y="-63.5" font-family="Helvetica,sans-Serif" font-size="10.00">map</text>
</g>
<!-- Node9&#45;&gt;Node13 -->
<g id="edge29" class="edge"><title>Node9&#45;&gt;Node13</title>
<path fill="none" stroke="midnightblue" d="M661.95,-280.297C667.395,-247.633 686.689,-131.866 694.34,-85.9573"/>
<polygon fill="midnightblue" stroke="midnightblue" points="697.828,-86.3231 696.019,-75.8837 690.923,-85.1723 697.828,-86.3231"/>
</g>
<!-- Node9&#45;&gt;Node14 -->
<g id="edge30" class="edge"><title>Node9&#45;&gt;Node14</title>
<path fill="none" stroke="midnightblue" d="M677.39,-280.457C721.135,-258.094 841.215,-195.177 934.5,-132 957.812,-116.212 982.952,-95.7168 999.162,-82.0003"/>
<polygon fill="midnightblue" stroke="midnightblue" points="1001.44,-84.6614 1006.77,-75.5063 996.89,-79.3378 1001.44,-84.6614"/>
</g>
<!-- Node15 -->
<g id="node16" class="node"><title>Node15</title>
<polygon fill="white" stroke="#bfbfbf" points="450,-56.5 450,-75.5 499,-75.5 499,-56.5 450,-56.5"/>
<text text-anchor="middle" x="474.5" y="-63.5" font-family="Helvetica,sans-Serif" font-size="10.00">cassert</text>
</g>
<!-- Node9&#45;&gt;Node15 -->
<g id="edge28" class="edge"><title>Node9&#45;&gt;Node15</title>
<path fill="none" stroke="midnightblue" d="M592.115,-280.488C510.587,-266.123 378.797,-228.46 326.5,-132 301.911,-86.6465 388.957,-72.9113 439.987,-68.7715"/>
<polygon fill="midnightblue" stroke="midnightblue" points="440.252,-72.2615 449.972,-68.0453 439.745,-65.28 440.252,-72.2615"/>
</g>
<!-- Node17 -->
<g id="node18" class="node"><title>Node17</title>
<polygon fill="white" stroke="#bfbfbf" points="303.5,-56.5 303.5,-75.5 355.5,-75.5 355.5,-56.5 303.5,-56.5"/>
<text text-anchor="middle" x="329.5" y="-63.5" font-family="Helvetica,sans-Serif" font-size="10.00">memory</text>
</g>
<!-- Node9&#45;&gt;Node17 -->
<g id="edge31" class="edge"><title>Node9&#45;&gt;Node17</title>
<path fill="none" stroke="midnightblue" d="M587.136,-289.202C481.818,-284.905 292.244,-258.907 217.5,-132 198.136,-99.1214 253.678,-81.268 293.315,-72.9687"/>
<polygon fill="midnightblue" stroke="midnightblue" points="294.108,-76.3798 303.244,-71.015 292.756,-69.5115 294.108,-76.3798"/>
</g>
<!-- Node11 -->
<g id="node12" class="node"><title>Node11</title>
<g id="a_node12"><a xlink:href="Feature_8h.html" target="_top" xlink:title="This file defines the base feature class. ">
<polygon fill="white" stroke="black" points="502,-168.5 502,-187.5 633,-187.5 633,-168.5 502,-168.5"/>
<text text-anchor="middle" x="567.5" y="-175.5" font-family="Helvetica,sans-Serif" font-size="10.00">pinhao/Features/Feature.h</text>
</a>
</g>
</g>
<!-- Node10&#45;&gt;Node11 -->
<g id="edge12" class="edge"><title>Node10&#45;&gt;Node11</title>
<path fill="none" stroke="midnightblue" d="M574.179,-224.083C573.119,-216.927 571.594,-206.635 570.269,-197.691"/>
<polygon fill="midnightblue" stroke="midnightblue" points="573.724,-197.13 568.796,-187.751 566.8,-198.156 573.724,-197.13"/>
</g>
<!-- Node11&#45;&gt;Node2 -->
<g id="edge24" class="edge"><title>Node11&#45;&gt;Node2</title>
<path fill="none" stroke="midnightblue" d="M501.736,-171.936C414.639,-164.918 256.032,-151.058 110.28,-132.018"/>
<polygon fill="midnightblue" stroke="midnightblue" points="110.626,-128.533 100.254,-130.697 109.712,-135.473 110.626,-128.533"/>
</g>
<!-- Node11&#45;&gt;Node3 -->
<g id="edge27" class="edge"><title>Node11&#45;&gt;Node3</title>
<path fill="none" stroke="midnightblue" d="M517.746,-168.444C454.581,-157.581 347.052,-139.089 290.607,-129.381"/>
<polygon fill="midnightblue" stroke="midnightblue" points="291.132,-125.921 280.684,-127.675 289.946,-132.819 291.132,-125.921"/>
</g>
<!-- Node12 -->
<g id="node13" class="node"><title>Node12</title>
<g id="a_node13"><a xlink:href="FeatureInfo_8h.html" target="_top" xlink:title="This file defines a class that holds some informations about a feature. ">
<polygon fill="white" stroke="black" points="745,-112.5 745,-131.5 892,-131.5 892,-112.5 745,-112.5"/>
<text text-anchor="middle" x="818.5" y="-119.5" font-family="Helvetica,sans-Serif" font-size="10.00">pinhao/Features/FeatureInfo.h</text>
</a>
</g>
</g>
<!-- Node11&#45;&gt;Node12 -->
<g id="edge13" class="edge"><title>Node11&#45;&gt;Node12</title>
<path fill="none" stroke="midnightblue" d="M607.272,-168.444C651.058,-159.023 721.514,-143.866 768.88,-133.675"/>
<polygon fill="midnightblue" stroke="midnightblue" points="769.874,-137.041 778.914,-131.516 768.402,-130.198 769.874,-137.041"/>
</g>
<!-- Node11&#45;&gt;Node13 -->
<g id="edge25" class="edge"><title>Node11&#45;&gt;Node13</title>
<path fill="none" stroke="midnightblue" d="M594.207,-168.423C613.747,-161.123 639.97,-149.084 658.5,-132 672.826,-118.792 683.626,-99.1192 690.187,-84.8777"/>
<polygon fill="midnightblue" stroke="midnightblue" points="693.427,-86.2039 694.205,-75.6377 687.008,-83.4125 693.427,-86.2039"/>
</g>
<!-- Node11&#45;&gt;Node15 -->
<g id="edge26" class="edge"><title>Node11&#45;&gt;Node15</title>
<path fill="none" stroke="midnightblue" d="M560.202,-168.368C544.719,-150.055 508.36,-107.049 488.334,-83.3624"/>
<polygon fill="midnightblue" stroke="midnightblue" points="490.893,-80.9682 481.764,-75.5914 485.547,-85.4877 490.893,-80.9682"/>
</g>
<!-- Node16 -->
<g id="node17" class="node"><title>Node16</title>
<g id="a_node17"><a xlink:href="FeatureRegistry_8h.html" target="_top" xlink:title="This file defines a class that has all the registered features. ">
<polygon fill="white" stroke="black" points="336,-112.5 336,-131.5 503,-131.5 503,-112.5 336,-112.5"/>
<text text-anchor="middle" x="419.5" y="-119.5" font-family="Helvetica,sans-Serif" font-size="10.00">pinhao/Features/FeatureRegistry.h</text>
</a>
</g>
</g>
<!-- Node11&#45;&gt;Node16 -->
<g id="edge19" class="edge"><title>Node11&#45;&gt;Node16</title>
<path fill="none" stroke="midnightblue" d="M544.049,-168.444C519.367,-159.438 480.315,-145.189 452.523,-135.049"/>
<polygon fill="midnightblue" stroke="midnightblue" points="453.435,-131.656 442.841,-131.516 451.036,-138.232 453.435,-131.656"/>
</g>
<!-- Node18 -->
<g id="node19" class="node"><title>Node18</title>
<polygon fill="white" stroke="#bfbfbf" points="559,-112.5 559,-131.5 650,-131.5 650,-112.5 559,-112.5"/>
<text text-anchor="middle" x="604.5" y="-119.5" font-family="Helvetica,sans-Serif" font-size="10.00">llvm/IR/Module.h</text>
</g>
<!-- Node11&#45;&gt;Node18 -->
<g id="edge23" class="edge"><title>Node11&#45;&gt;Node18</title>
<path fill="none" stroke="midnightblue" d="M573.61,-168.083C578.782,-160.534 586.346,-149.495 592.694,-140.23"/>
<polygon fill="midnightblue" stroke="midnightblue" points="595.739,-141.979 598.504,-131.751 589.964,-138.022 595.739,-141.979"/>
</g>
<!-- Node12&#45;&gt;Node6 -->
<g id="edge14" class="edge"><title>Node12&#45;&gt;Node6</title>
<path fill="none" stroke="midnightblue" d="M834.245,-112.324C849.819,-103.743 873.877,-90.486 891.959,-80.5224"/>
<polygon fill="midnightblue" stroke="midnightblue" points="893.724,-83.546 900.794,-75.6545 890.346,-77.4152 893.724,-83.546"/>
</g>
<!-- Node12&#45;&gt;Node7 -->
<g id="edge17" class="edge"><title>Node12&#45;&gt;Node7</title>
<path fill="none" stroke="midnightblue" d="M820.71,-112.135C824.404,-98.7447 832.904,-73.1098 847.5,-56 858.737,-42.8278 874.777,-32.0504 888.564,-24.3484"/>
<polygon fill="midnightblue" stroke="midnightblue" points="890.472,-27.2978 897.662,-19.516 887.189,-21.1157 890.472,-27.2978"/>
</g>
<!-- Node12&#45;&gt;Node13 -->
<g id="edge15" class="edge"><title>Node12&#45;&gt;Node13</title>
<path fill="none" stroke="midnightblue" d="M799.327,-112.444C779.126,-103.428 747.151,-89.1583 724.425,-79.0161"/>
<polygon fill="midnightblue" stroke="midnightblue" points="725.57,-75.6944 715.012,-74.8151 722.717,-82.0867 725.57,-75.6944"/>
</g>
<!-- Node12&#45;&gt;Node14 -->
<g id="edge16" class="edge"><title>Node12&#45;&gt;Node14</title>
<path fill="none" stroke="midnightblue" d="M850.878,-112.474C882.586,-104.081 932.515,-90.7483 984.728,-76.1782"/>
<polygon fill="midnightblue" stroke="midnightblue" points="985.812,-79.5092 994.5,-73.4442 983.926,-72.768 985.812,-79.5092"/>
</g>
<!-- Node12&#45;&gt;Node15 -->
<g id="edge18" class="edge"><title>Node12&#45;&gt;Node15</title>
<path fill="none" stroke="midnightblue" d="M763.992,-112.444C692.504,-101.222 569.146,-81.8573 509.205,-72.4479"/>
<polygon fill="midnightblue" stroke="midnightblue" points="509.541,-68.9578 499.119,-70.8646 508.455,-75.8731 509.541,-68.9578"/>
</g>
<!-- Node16&#45;&gt;Node13 -->
<g id="edge22" class="edge"><title>Node16&#45;&gt;Node13</title>
<path fill="none" stroke="midnightblue" d="M463.55,-112.444C521.481,-101.191 621.562,-81.7506 669.853,-72.3704"/>
<polygon fill="midnightblue" stroke="midnightblue" points="670.731,-75.7653 679.88,-70.4226 669.396,-68.8937 670.731,-75.7653"/>
</g>
<!-- Node16&#45;&gt;Node15 -->
<g id="edge21" class="edge"><title>Node16&#45;&gt;Node15</title>
<path fill="none" stroke="midnightblue" d="M428.582,-112.083C436.671,-104.141 448.695,-92.3354 458.41,-82.7973"/>
<polygon fill="midnightblue" stroke="midnightblue" points="460.903,-85.2545 465.587,-75.7511 455.999,-80.2595 460.903,-85.2545"/>
</g>
<!-- Node16&#45;&gt;Node17 -->
<g id="edge20" class="edge"><title>Node16&#45;&gt;Node17</title>
<path fill="none" stroke="midnightblue" d="M405.04,-112.324C391,-103.9 369.452,-90.9709 352.957,-81.0741"/>
<polygon fill="midnightblue" stroke="midnightblue" points="354.3,-77.7983 343.924,-75.6545 350.698,-83.8007 354.3,-77.7983"/>
</g>
<!-- Node20 -->
<g id="node21" class="node"><title>Node20</title>
<polygon fill="white" stroke="#bfbfbf" points="1103,-224.5 1103,-243.5 1152,-243.5 1152,-224.5 1103,-224.5"/>
<text text-anchor="middle" x="1127.5" y="-231.5" font-family="Helvetica,sans-Serif" font-size="10.00">random</text>
</g>
<!-- Node19&#45;&gt;Node20 -->
<g id="edge33" class="edge"><title>Node19&#45;&gt;Node20</title>
<path fill="none" stroke="midnightblue" d="M1127.5,-280.083C1127.5,-273.006 1127.5,-262.861 1127.5,-253.986"/>
<polygon fill="midnightblue" stroke="midnightblue" points="1131,-253.751 1127.5,-243.751 1124,-253.751 1131,-253.751"/>
</g>
</g>
</svg>
        <g id="navigator" transform="translate(0 0)" fill="#404254">
                <rect fill="#f2f5e9" fill-opacity="0.5" stroke="#606060" stroke-width=".5" x="0" y="0" width="60" height="60"/>
                <use id="zoomplus" xlink:href="#zoomPlus" x="17" y="9" onmousedown="handleZoom(evt,'in')"/>
                <use id="zoomminus" xlink:href="#zoomMin" x="42" y="9" onmousedown="handleZoom(evt,'out')"/>
                <use id="reset" xlink:href="#resetDef" x="30" y="36" onmousedown="handleReset()"/>
                <g id="arrowUp" xlink:href="#dirArrow" transform="translate(30 24)" onmousedown="handlePan(0,-1)">
                  <use xlink:href="#rim" fill="#404040">
                        <set attributeName="fill" to="#808080" begin="arrowUp.mouseover" end="arrowUp.mouseout"/>
                  </use>
                  <path fill="none" stroke="white" stroke-width="1.5" d="M0,-3.0v7 M-2.5,-0.5L0,-3.0L2.5,-0.5"/>
                </g>
                <g id="arrowRight" xlink:href="#dirArrow" transform="rotate(90) translate(36 -43)" onmousedown="handlePan(1,0)">
                  <use xlink:href="#rim" fill="#404040">
                        <set attributeName="fill" to="#808080" begin="arrowRight.mouseover" end="arrowRight.mouseout"/>
                  </use>
                  <path fill="none" stroke="white" stroke-width="1.5" d="M0,-3.0v7 M-2.5,-0.5L0,-3.0L2.5,-0.5"/>
                </g>
                <g id="arrowDown" xlink:href="#dirArrow" transform="rotate(180) translate(-30 -48)" onmousedown="handlePan(0,1)">
                  <use xlink:href="#rim" fill="#404040">
                        <set attributeName="fill" to="#808080" begin="arrowDown.mouseover" end="arrowDown.mouseout"/>
                  </use>
                  <path fill="none" stroke="white" stroke-width="1.5" d="M0,-3.0v7 M-2.5,-0.5L0,-3.0L2.5,-0.5"/>
                </g>
                <g id="arrowLeft" xlink:href="#dirArrow" transform="rotate(270) translate(-36 17)" onmousedown="handlePan(-1,0)">
                  <use xlink:href="#rim" fill="#404040">
                        <set attributeName="fill" to="#808080" begin="arrowLeft.mouseover" end="arrowLeft.mouseout"/>
                  </use>
                  <path fill="none" stroke="white" stroke-width="1.5" d="M0,-3.0v7 M-2.5,-0.5L0,-3.0L2.5,-0.5"/>
                </g>
        </g>
        <svg viewBox="0 0 15 15" width="100%" height="30px" preserveAspectRatio="xMaxYMin meet">
         <g id="arrow_out" transform="scale(0.3 0.3)">
          <a xlink:href="FormulaYAMLWrapper_8h__incl_org.svg" target="_base">
           <rect id="button" ry="5" rx="5" y="6" x="6" height="38" width="38"
                fill="#f2f5e9" fill-opacity="0.5" stroke="#606060" stroke-width="1.0"/>
           <path id="arrow"
             d="M 11.500037,31.436501 C 11.940474,20.09759 22.043105,11.32322 32.158766,21.979434 L 37.068811,17.246167 C 37.068811,17.246167 37.088388,32 37.088388,32 L 22.160133,31.978069 C 22.160133,31.978069 26.997745,27.140456 26.997745,27.140456 C 18.528582,18.264221 13.291696,25.230495 11.500037,31.436501 z"
             style="fill:#404040;"/>
          </a>
         </g>
        </svg>
</svg>
