<?xml version="1.0" encoding="UTF-8" standalone="no"?>
<!DOCTYPE svg PUBLIC "-//W3C//DTD SVG 1.1//EN"
 "http://www.w3.org/Graphics/SVG/1.1/DTD/svg11.dtd">
<!-- Generated by graphviz version 2.38.0 (20140413.2041)
 -->
<!-- Title: /home/yukiosir/workspace/CompilerProject/Software/pinhao/lib/MachineLearning/GrammarEvolution/Formula.cpp Pages: 1 -->
<!--zoomable 520 -->
<svg id="main" version="1.1" xmlns="http://www.w3.org/2000/svg" xmlns:xlink="http://www.w3.org/1999/xlink" xml:space="preserve" onload="init(evt)">
<style type="text/css"><![CDATA[
.edge:hover path { stroke: red; }
.edge:hover polygon { stroke: red; fill: red; }
]]></style>
<script type="text/javascript"><![CDATA[
var edges = document.getElementsByTagName('g');
if (edges && edges.length) {
  for (var i=0;i<edges.length;i++) {
    if (edges[i].id.substr(0,4)=='edge') {
      edges[i].setAttribute('class','edge');
    }
  }
}
]]></script>
        <defs>
                <circle id="rim" cx="0" cy="0" r="7"/>
                <circle id="rim2" cx="0" cy="0" r="3.5"/>
                <g id="zoomPlus">
                        <use xlink:href="#rim" fill="#404040">
                                <set attributeName="fill" to="#808080" begin="zoomplus.mouseover" end="zoomplus.mouseout"/>
                        </use>
                        <path d="M-4,0h8M0,-4v8" fill="none" stroke="white" stroke-width="1.5" pointer-events="none"/>
                </g>
                <g id="zoomMin">
                        <use xlink:href="#rim" fill="#404040">
                                <set attributeName="fill" to="#808080" begin="zoomminus.mouseover" end="zoomminus.mouseout"/>
                        </use>
                        <path d="M-4,0h8" fill="none" stroke="white" stroke-width="1.5" pointer-events="none"/>
                </g>
                <g id="dirArrow">
                        <path fill="none" stroke="white" stroke-width="1.5" d="M0,-3.0v7 M-2.5,-0.5L0,-3.0L2.5,-0.5"/>
                </g>
               <g id="resetDef">
                       <use xlink:href="#rim2" fill="#404040">
                               <set attributeName="fill" to="#808080" begin="reset.mouseover" end="reset.mouseout"/>
                       </use>
               </g>
        </defs>

<script type="text/javascript">
var viewWidth = 1093;
var viewHeight = 520;
var sectionId = 'dynsection-0';
</script>
<script xlink:href="svgpan.js"/>
<svg id="graph" class="graph">
<g id="viewport">
<title>/home/yukiosir/workspace/CompilerProject/Software/pinhao/lib/MachineLearning/GrammarEvolution/Formula.cpp</title>
<polygon fill="white" stroke="none" points="-4,4 -4,-516 1089.42,-516 1089.42,4 -4,4"/>
<!-- Node0 -->
<g id="node1" class="node"><title>Node0</title>
<polygon fill="#bfbfbf" stroke="black" points="735,-459.5 735,-511.5 893,-511.5 893,-459.5 735,-459.5"/>
<text text-anchor="start" x="743" y="-499.5" font-family="Helvetica,sans-Serif" font-size="10.00">/home/yukiosir/workspace</text>
<text text-anchor="start" x="743" y="-488.5" font-family="Helvetica,sans-Serif" font-size="10.00">/CompilerProject/Software</text>
<text text-anchor="start" x="743" y="-477.5" font-family="Helvetica,sans-Serif" font-size="10.00">/pinhao/lib/MachineLearning</text>
<text text-anchor="middle" x="814" y="-466.5" font-family="Helvetica,sans-Serif" font-size="10.00">/GrammarEvolution/Formula.cpp</text>
</g>
<!-- Node1 -->
<g id="node2" class="node"><title>Node1</title>
<g id="a_node2"><a xlink:href="Formula_8h.html" target="_top" xlink:title="pinhao/MachineLearning\l/GrammarEvolution/Formula.h">
<polygon fill="white" stroke="black" points="665.5,-336.5 665.5,-366.5 812.5,-366.5 812.5,-336.5 665.5,-336.5"/>
<text text-anchor="start" x="673.5" y="-354.5" font-family="Helvetica,sans-Serif" font-size="10.00">pinhao/MachineLearning</text>
<text text-anchor="middle" x="739" y="-343.5" font-family="Helvetica,sans-Serif" font-size="10.00">/GrammarEvolution/Formula.h</text>
</a>
</g>
</g>
<!-- Node0&#45;&gt;Node1 -->
<g id="edge1" class="edge"><title>Node0&#45;&gt;Node1</title>
<path fill="none" stroke="midnightblue" d="M797.333,-459.391C790.212,-448.369 781.956,-435.188 775,-423 766.229,-407.633 757.175,-389.891 750.34,-376.049"/>
<polygon fill="midnightblue" stroke="midnightblue" points="753.33,-374.195 745.792,-366.75 747.042,-377.271 753.33,-374.195"/>
</g>
<!-- Node18 -->
<g id="node19" class="node"><title>Node18</title>
<g id="a_node19"><a xlink:href="FormulaYAMLWrapper_8h.html" target="_top" xlink:title="pinhao/Support/FormulaYAMLWrapper.h">
<polygon fill="white" stroke="black" points="784,-403.5 784,-422.5 976,-422.5 976,-403.5 784,-403.5"/>
<text text-anchor="middle" x="880" y="-410.5" font-family="Helvetica,sans-Serif" font-size="10.00">pinhao/Support/FormulaYAMLWrapper.h</text>
</a>
</g>
</g>
<!-- Node0&#45;&gt;Node18 -->
<g id="edge30" class="edge"><title>Node0&#45;&gt;Node18</title>
<path fill="none" stroke="midnightblue" d="M837.455,-459.446C846.552,-449.728 856.708,-438.88 864.816,-430.22"/>
<polygon fill="midnightblue" stroke="midnightblue" points="867.58,-432.388 871.86,-422.695 862.47,-427.604 867.58,-432.388"/>
</g>
<!-- Node2 -->
<g id="node3" class="node"><title>Node2</title>
<g id="a_node3"><a xlink:href="FeatureSet_8h.html" target="_top" xlink:title="This file defines a class which contains the features selected by the user (by some command line)...">
<polygon fill="white" stroke="black" points="405,-280.5 405,-299.5 551,-299.5 551,-280.5 405,-280.5"/>
<text text-anchor="middle" x="478" y="-287.5" font-family="Helvetica,sans-Serif" font-size="10.00">pinhao/Features/FeatureSet.h</text>
</a>
</g>
</g>
<!-- Node1&#45;&gt;Node2 -->
<g id="edge2" class="edge"><title>Node1&#45;&gt;Node2</title>
<path fill="none" stroke="midnightblue" d="M677.477,-336.475C630.876,-325.851 567.807,-311.473 525.158,-301.751"/>
<polygon fill="midnightblue" stroke="midnightblue" points="525.841,-298.317 515.314,-299.506 524.286,-305.142 525.841,-298.317"/>
</g>
<!-- Node6 -->
<g id="node7" class="node"><title>Node6</title>
<g id="a_node7"><a xlink:href="Types_8h.html" target="_top" xlink:title="pinhao/Support/Types.h">
<polygon fill="white" stroke="black" points="709,-56.5 709,-75.5 829,-75.5 829,-56.5 709,-56.5"/>
<text text-anchor="middle" x="769" y="-63.5" font-family="Helvetica,sans-Serif" font-size="10.00">pinhao/Support/Types.h</text>
</a>
</g>
</g>
<!-- Node1&#45;&gt;Node6 -->
<g id="edge27" class="edge"><title>Node1&#45;&gt;Node6</title>
<path fill="none" stroke="midnightblue" d="M772.686,-336.354C787.828,-328.114 804.235,-316.125 813,-300 852.912,-226.572 850.223,-188.687 817,-112 811.732,-99.8399 801.38,-89.4594 791.635,-81.7429"/>
<polygon fill="midnightblue" stroke="midnightblue" points="793.501,-78.7707 783.37,-75.6698 789.356,-84.4116 793.501,-78.7707"/>
</g>
<!-- Node7 -->
<g id="node8" class="node"><title>Node7</title>
<polygon fill="white" stroke="#bfbfbf" points="233.5,-0.5 233.5,-19.5 274.5,-19.5 274.5,-0.5 233.5,-0.5"/>
<text text-anchor="middle" x="254" y="-7.5" font-family="Helvetica,sans-Serif" font-size="10.00">string</text>
</g>
<!-- Node1&#45;&gt;Node7 -->
<g id="edge28" class="edge"><title>Node1&#45;&gt;Node7</title>
<path fill="none" stroke="midnightblue" d="M665.433,-348.254C524.411,-343.331 221.142,-329.583 121,-300 62.4551,-282.705 0,-296.046 0,-235 0,-235 0,-235 0,-121 0,-24.7533 155.472,-11.7762 223.144,-10.6864"/>
<polygon fill="midnightblue" stroke="midnightblue" points="223.244,-14.1858 233.214,-10.6027 223.185,-7.18607 223.244,-14.1858"/>
</g>
<!-- Node9 -->
<g id="node10" class="node"><title>Node9</title>
<polygon fill="white" stroke="#bfbfbf" points="54,-56.5 54,-75.5 98,-75.5 98,-56.5 54,-56.5"/>
<text text-anchor="middle" x="76" y="-63.5" font-family="Helvetica,sans-Serif" font-size="10.00">vector</text>
</g>
<!-- Node1&#45;&gt;Node9 -->
<g id="edge29" class="edge"><title>Node1&#45;&gt;Node9</title>
<path fill="none" stroke="midnightblue" d="M665.306,-346.014C485.327,-334.075 38,-298.059 38,-235 38,-235 38,-235 38,-177 38,-142.813 54.6005,-105.764 65.8573,-84.5707"/>
<polygon fill="midnightblue" stroke="midnightblue" points="68.9473,-86.2151 70.7163,-75.769 62.8191,-82.832 68.9473,-86.2151"/>
</g>
<!-- Node16 -->
<g id="node17" class="node"><title>Node16</title>
<g id="a_node17"><a xlink:href="Random_8h.html" target="_top" xlink:title="pinhao/Support/Random.h">
<polygon fill="white" stroke="black" points="674,-280.5 674,-299.5 804,-299.5 804,-280.5 674,-280.5"/>
<text text-anchor="middle" x="739" y="-287.5" font-family="Helvetica,sans-Serif" font-size="10.00">pinhao/Support/Random.h</text>
</a>
</g>
</g>
<!-- Node1&#45;&gt;Node16 -->
<g id="edge25" class="edge"><title>Node1&#45;&gt;Node16</title>
<path fill="none" stroke="midnightblue" d="M739,-336.399C739,-328.466 739,-318.458 739,-309.858"/>
<polygon fill="midnightblue" stroke="midnightblue" points="742.5,-309.658 739,-299.658 735.5,-309.658 742.5,-309.658"/>
</g>
<!-- Node3 -->
<g id="node4" class="node"><title>Node3</title>
<g id="a_node4"><a xlink:href="Features_8h.html" target="_top" xlink:title="This file implements some basic feature classes that extends the base class Feature. ">
<polygon fill="white" stroke="black" points="465,-224.5 465,-243.5 601,-243.5 601,-224.5 465,-224.5"/>
<text text-anchor="middle" x="533" y="-231.5" font-family="Helvetica,sans-Serif" font-size="10.00">pinhao/Features/Features.h</text>
</a>
</g>
</g>
<!-- Node2&#45;&gt;Node3 -->
<g id="edge3" class="edge"><title>Node2&#45;&gt;Node3</title>
<path fill="none" stroke="midnightblue" d="M487.082,-280.083C495.171,-272.141 507.195,-260.335 516.91,-250.797"/>
<polygon fill="midnightblue" stroke="midnightblue" points="519.403,-253.254 524.087,-243.751 514.499,-248.26 519.403,-253.254"/>
</g>
<!-- Node8 -->
<g id="node9" class="node"><title>Node8</title>
<polygon fill="white" stroke="#bfbfbf" points="162.5,-56.5 162.5,-75.5 197.5,-75.5 197.5,-56.5 162.5,-56.5"/>
<text text-anchor="middle" x="180" y="-63.5" font-family="Helvetica,sans-Serif" font-size="10.00">map</text>
</g>
<!-- Node2&#45;&gt;Node8 -->
<g id="edge22" class="edge"><title>Node2&#45;&gt;Node8</title>
<path fill="none" stroke="midnightblue" d="M425.878,-280.476C351.964,-265.277 219.215,-225.796 161,-132 151.832,-117.228 159.595,-97.8338 167.788,-84.0858"/>
<polygon fill="midnightblue" stroke="midnightblue" points="170.794,-85.8841 173.327,-75.5964 164.931,-82.0594 170.794,-85.8841"/>
</g>
<!-- Node2&#45;&gt;Node9 -->
<g id="edge23" class="edge"><title>Node2&#45;&gt;Node9</title>
<path fill="none" stroke="midnightblue" d="M404.915,-281.597C362.148,-275.359 307.905,-264.09 263,-244 181.748,-207.649 113.757,-120.759 87.5574,-83.9448"/>
<polygon fill="midnightblue" stroke="midnightblue" points="90.4109,-81.9179 81.8142,-75.7254 84.6729,-85.9273 90.4109,-81.9179"/>
</g>
<!-- Node10 -->
<g id="node11" class="node"><title>Node10</title>
<polygon fill="white" stroke="#bfbfbf" points="385.5,-56.5 385.5,-75.5 434.5,-75.5 434.5,-56.5 385.5,-56.5"/>
<text text-anchor="middle" x="410" y="-63.5" font-family="Helvetica,sans-Serif" font-size="10.00">cassert</text>
</g>
<!-- Node2&#45;&gt;Node10 -->
<g id="edge21" class="edge"><title>Node2&#45;&gt;Node10</title>
<path fill="none" stroke="midnightblue" d="M469.563,-280.431C448.391,-258.247 393.328,-196.177 374,-132 371.437,-123.489 371.058,-120.388 374,-112 377.785,-101.209 385.367,-91.084 392.6,-83.1808"/>
<polygon fill="midnightblue" stroke="midnightblue" points="395.326,-85.4005 399.838,-75.8145 390.333,-80.4943 395.326,-85.4005"/>
</g>
<!-- Node12 -->
<g id="node13" class="node"><title>Node12</title>
<polygon fill="white" stroke="#bfbfbf" points="507,-56.5 507,-75.5 559,-75.5 559,-56.5 507,-56.5"/>
<text text-anchor="middle" x="533" y="-63.5" font-family="Helvetica,sans-Serif" font-size="10.00">memory</text>
</g>
<!-- Node2&#45;&gt;Node12 -->
<g id="edge24" class="edge"><title>Node2&#45;&gt;Node12</title>
<path fill="none" stroke="midnightblue" d="M526.149,-280.441C552.873,-273.868 585.551,-262.647 610,-244 657.832,-207.519 668.332,-189.503 686,-132 701.273,-82.2921 619.251,-70.3566 569.329,-67.6469"/>
<polygon fill="midnightblue" stroke="midnightblue" points="569.355,-64.1447 559.21,-67.1985 569.045,-71.1379 569.355,-64.1447"/>
</g>
<!-- Node4 -->
<g id="node5" class="node"><title>Node4</title>
<g id="a_node5"><a xlink:href="Feature_8h.html" target="_top" xlink:title="This file defines the base feature class. ">
<polygon fill="white" stroke="black" points="474.5,-168.5 474.5,-187.5 605.5,-187.5 605.5,-168.5 474.5,-168.5"/>
<text text-anchor="middle" x="540" y="-175.5" font-family="Helvetica,sans-Serif" font-size="10.00">pinhao/Features/Feature.h</text>
</a>
</g>
</g>
<!-- Node3&#45;&gt;Node4 -->
<g id="edge4" class="edge"><title>Node3&#45;&gt;Node4</title>
<path fill="none" stroke="midnightblue" d="M534.156,-224.083C535.084,-216.927 536.418,-206.635 537.577,-197.691"/>
<polygon fill="midnightblue" stroke="midnightblue" points="541.051,-198.118 538.866,-187.751 534.109,-197.218 541.051,-198.118"/>
</g>
<!-- Node5 -->
<g id="node6" class="node"><title>Node5</title>
<g id="a_node6"><a xlink:href="FeatureInfo_8h.html" target="_top" xlink:title="This file defines a class that holds some informations about a feature. ">
<polygon fill="white" stroke="black" points="180.5,-112.5 180.5,-131.5 327.5,-131.5 327.5,-112.5 180.5,-112.5"/>
<text text-anchor="middle" x="254" y="-119.5" font-family="Helvetica,sans-Serif" font-size="10.00">pinhao/Features/FeatureInfo.h</text>
</a>
</g>
</g>
<!-- Node4&#45;&gt;Node5 -->
<g id="edge5" class="edge"><title>Node4&#45;&gt;Node5</title>
<path fill="none" stroke="midnightblue" d="M494.682,-168.444C444.372,-158.944 363.162,-143.611 309.187,-133.42"/>
<polygon fill="midnightblue" stroke="midnightblue" points="309.581,-129.933 299.106,-131.516 308.283,-136.811 309.581,-129.933"/>
</g>
<!-- Node4&#45;&gt;Node8 -->
<g id="edge18" class="edge"><title>Node4&#45;&gt;Node8</title>
<path fill="none" stroke="midnightblue" d="M474.343,-173.645C373.687,-167.823 190.734,-154.287 171,-132 159.818,-119.371 164.581,-99.6075 170.586,-85.1865"/>
<polygon fill="midnightblue" stroke="midnightblue" points="173.905,-86.3499 174.967,-75.8084 167.563,-83.3869 173.905,-86.3499"/>
</g>
<!-- Node4&#45;&gt;Node10 -->
<g id="edge19" class="edge"><title>Node4&#45;&gt;Node10</title>
<path fill="none" stroke="midnightblue" d="M595.659,-168.439C640.691,-159.161 692.859,-141.57 668,-112 653.767,-95.0691 512.105,-77.8771 444.959,-70.6033"/>
<polygon fill="midnightblue" stroke="midnightblue" points="445.169,-67.1058 434.853,-69.5226 444.425,-74.0662 445.169,-67.1058"/>
</g>
<!-- Node11 -->
<g id="node12" class="node"><title>Node11</title>
<g id="a_node12"><a xlink:href="FeatureRegistry_8h.html" target="_top" xlink:title="This file defines a class that has all the registered features. ">
<polygon fill="white" stroke="black" points="383.5,-112.5 383.5,-131.5 550.5,-131.5 550.5,-112.5 383.5,-112.5"/>
<text text-anchor="middle" x="467" y="-119.5" font-family="Helvetica,sans-Serif" font-size="10.00">pinhao/Features/FeatureRegistry.h</text>
</a>
</g>
</g>
<!-- Node4&#45;&gt;Node11 -->
<g id="edge12" class="edge"><title>Node4&#45;&gt;Node11</title>
<path fill="none" stroke="midnightblue" d="M528.271,-168.324C517.163,-160.107 500.258,-147.602 487.017,-137.807"/>
<polygon fill="midnightblue" stroke="midnightblue" points="489.063,-134.967 478.942,-131.834 484.9,-140.595 489.063,-134.967"/>
</g>
<!-- Node13 -->
<g id="node14" class="node"><title>Node13</title>
<polygon fill="white" stroke="#bfbfbf" points="568.5,-112.5 568.5,-131.5 659.5,-131.5 659.5,-112.5 568.5,-112.5"/>
<text text-anchor="middle" x="614" y="-119.5" font-family="Helvetica,sans-Serif" font-size="10.00">llvm/IR/Module.h</text>
</g>
<!-- Node4&#45;&gt;Node13 -->
<g id="edge16" class="edge"><title>Node4&#45;&gt;Node13</title>
<path fill="none" stroke="midnightblue" d="M551.889,-168.324C563.15,-160.107 580.287,-147.602 593.709,-137.807"/>
<polygon fill="midnightblue" stroke="midnightblue" points="595.88,-140.556 601.894,-131.834 591.753,-134.901 595.88,-140.556"/>
</g>
<!-- Node14 -->
<g id="node15" class="node"><title>Node14</title>
<polygon fill="white" stroke="#bfbfbf" points="879.5,-112.5 879.5,-131.5 968.5,-131.5 968.5,-112.5 879.5,-112.5"/>
<text text-anchor="middle" x="924" y="-119.5" font-family="Helvetica,sans-Serif" font-size="10.00">yaml&#45;cpp/yaml.h</text>
</g>
<!-- Node4&#45;&gt;Node14 -->
<g id="edge17" class="edge"><title>Node4&#45;&gt;Node14</title>
<path fill="none" stroke="midnightblue" d="M600.846,-168.444C674.72,-158.055 798.215,-140.689 869.233,-130.702"/>
<polygon fill="midnightblue" stroke="midnightblue" points="869.904,-134.142 879.319,-129.283 868.929,-127.21 869.904,-134.142"/>
</g>
<!-- Node15 -->
<g id="node16" class="node"><title>Node15</title>
<polygon fill="white" stroke="#bfbfbf" points="754,-112.5 754,-131.5 808,-131.5 808,-112.5 754,-112.5"/>
<text text-anchor="middle" x="781" y="-119.5" font-family="Helvetica,sans-Serif" font-size="10.00">iostream</text>
</g>
<!-- Node4&#45;&gt;Node15 -->
<g id="edge20" class="edge"><title>Node4&#45;&gt;Node15</title>
<path fill="none" stroke="midnightblue" d="M578.187,-168.444C623.624,-158.263 698.969,-141.38 743.915,-131.309"/>
<polygon fill="midnightblue" stroke="midnightblue" points="744.844,-134.688 753.836,-129.086 743.313,-127.858 744.844,-134.688"/>
</g>
<!-- Node5&#45;&gt;Node6 -->
<g id="edge6" class="edge"><title>Node5&#45;&gt;Node6</title>
<path fill="none" stroke="midnightblue" d="M327.513,-113.292C426.559,-102.906 601.625,-84.55 698.892,-74.3511"/>
<polygon fill="midnightblue" stroke="midnightblue" points="699.339,-77.8235 708.919,-73.2997 698.609,-70.8617 699.339,-77.8235"/>
</g>
<!-- Node5&#45;&gt;Node7 -->
<g id="edge10" class="edge"><title>Node5&#45;&gt;Node7</title>
<path fill="none" stroke="midnightblue" d="M254,-112.368C254,-94.617 254,-53.6664 254,-29.5974"/>
<polygon fill="midnightblue" stroke="midnightblue" points="257.5,-29.5914 254,-19.5914 250.5,-29.5915 257.5,-29.5914"/>
</g>
<!-- Node5&#45;&gt;Node8 -->
<g id="edge8" class="edge"><title>Node5&#45;&gt;Node8</title>
<path fill="none" stroke="midnightblue" d="M242.111,-112.324C230.85,-104.107 213.713,-91.6017 200.291,-81.8069"/>
<polygon fill="midnightblue" stroke="midnightblue" points="202.247,-78.9014 192.106,-75.8339 198.12,-84.5559 202.247,-78.9014"/>
</g>
<!-- Node5&#45;&gt;Node9 -->
<g id="edge9" class="edge"><title>Node5&#45;&gt;Node9</title>
<path fill="none" stroke="midnightblue" d="M225.795,-112.444C193.724,-102.714 141.478,-86.8642 107.935,-76.688"/>
<polygon fill="midnightblue" stroke="midnightblue" points="108.753,-73.2789 98.1678,-73.7251 106.721,-79.9775 108.753,-73.2789"/>
</g>
<!-- Node5&#45;&gt;Node10 -->
<g id="edge11" class="edge"><title>Node5&#45;&gt;Node10</title>
<path fill="none" stroke="midnightblue" d="M278.719,-112.444C304.848,-103.399 346.259,-89.064 375.576,-78.9158"/>
<polygon fill="midnightblue" stroke="midnightblue" points="377.092,-82.0951 385.397,-75.5164 374.802,-75.4801 377.092,-82.0951"/>
</g>
<!-- Node6&#45;&gt;Node7 -->
<g id="edge7" class="edge"><title>Node6&#45;&gt;Node7</title>
<path fill="none" stroke="midnightblue" d="M708.915,-58.6998C598.723,-47.1457 367.99,-22.9524 284.762,-14.2255"/>
<polygon fill="midnightblue" stroke="midnightblue" points="285.001,-10.7315 274.691,-13.1695 284.271,-17.6933 285.001,-10.7315"/>
</g>
<!-- Node11&#45;&gt;Node8 -->
<g id="edge15" class="edge"><title>Node11&#45;&gt;Node8</title>
<path fill="none" stroke="midnightblue" d="M421.524,-112.444C361.297,-101.112 256.943,-81.477 207.5,-72.1742"/>
<polygon fill="midnightblue" stroke="midnightblue" points="208.017,-68.7101 197.542,-70.3006 206.722,-75.5894 208.017,-68.7101"/>
</g>
<!-- Node11&#45;&gt;Node10 -->
<g id="edge14" class="edge"><title>Node11&#45;&gt;Node10</title>
<path fill="none" stroke="midnightblue" d="M457.842,-112.324C449.499,-104.42 436.968,-92.5482 426.823,-82.9377"/>
<polygon fill="midnightblue" stroke="midnightblue" points="428.991,-80.1705 419.325,-75.8339 424.177,-85.2522 428.991,-80.1705"/>
</g>
<!-- Node11&#45;&gt;Node12 -->
<g id="edge13" class="edge"><title>Node11&#45;&gt;Node12</title>
<path fill="none" stroke="midnightblue" d="M477.604,-112.324C487.456,-104.263 502.351,-92.0765 514.215,-82.3695"/>
<polygon fill="midnightblue" stroke="midnightblue" points="516.68,-84.8752 522.203,-75.8339 512.247,-79.4575 516.68,-84.8752"/>
</g>
<!-- Node17 -->
<g id="node18" class="node"><title>Node17</title>
<polygon fill="white" stroke="#bfbfbf" points="754.5,-224.5 754.5,-243.5 803.5,-243.5 803.5,-224.5 754.5,-224.5"/>
<text text-anchor="middle" x="779" y="-231.5" font-family="Helvetica,sans-Serif" font-size="10.00">random</text>
</g>
<!-- Node16&#45;&gt;Node17 -->
<g id="edge26" class="edge"><title>Node16&#45;&gt;Node17</title>
<path fill="none" stroke="midnightblue" d="M745.605,-280.083C751.255,-272.455 759.545,-261.264 766.451,-251.941"/>
<polygon fill="midnightblue" stroke="midnightblue" points="769.378,-253.87 772.518,-243.751 763.753,-249.703 769.378,-253.87"/>
</g>
<!-- Node18&#45;&gt;Node1 -->
<g id="edge38" class="edge"><title>Node18&#45;&gt;Node1</title>
<path fill="none" stroke="midnightblue" d="M859.798,-403.475C839.452,-394.889 807.445,-381.383 781.488,-370.429"/>
<polygon fill="midnightblue" stroke="midnightblue" points="782.805,-367.186 772.231,-366.523 780.083,-373.636 782.805,-367.186"/>
</g>
<!-- Node18&#45;&gt;Node6 -->
<g id="edge37" class="edge"><title>Node18&#45;&gt;Node6</title>
<path fill="none" stroke="midnightblue" d="M944.593,-403.483C990.907,-396.085 1048,-383.891 1065,-367 1089.7,-342.459 1084,-325.817 1084,-291 1084,-291 1084,-291 1084,-177 1084,-143.976 1075.02,-130.985 1048,-112 1015.24,-88.981 910.834,-77.0219 839.463,-71.3771"/>
<polygon fill="midnightblue" stroke="midnightblue" points="839.423,-67.8639 829.185,-70.5895 838.888,-74.8434 839.423,-67.8639"/>
</g>
<!-- Node19 -->
<g id="node20" class="node"><title>Node19</title>
<g id="a_node20"><a xlink:href="YAMLWrapper_8h.html" target="_top" xlink:title="pinhao/Support/YAMLWrapper.h">
<polygon fill="white" stroke="black" points="860.5,-168.5 860.5,-187.5 1017.5,-187.5 1017.5,-168.5 860.5,-168.5"/>
<text text-anchor="middle" x="939" y="-175.5" font-family="Helvetica,sans-Serif" font-size="10.00">pinhao/Support/YAMLWrapper.h</text>
</a>
</g>
</g>
<!-- Node18&#45;&gt;Node19 -->
<g id="edge31" class="edge"><title>Node18&#45;&gt;Node19</title>
<path fill="none" stroke="midnightblue" d="M882.04,-403.092C885.311,-388.88 891.973,-360.21 898,-336 910.492,-285.823 926.148,-226.889 934.009,-197.55"/>
<polygon fill="midnightblue" stroke="midnightblue" points="937.404,-198.4 936.617,-187.834 930.644,-196.585 937.404,-198.4"/>
</g>
<!-- Node21 -->
<g id="node22" class="node"><title>Node21</title>
<g id="a_node22"><a xlink:href="YamlOptions_8h.html" target="_top" xlink:title="pinhao/Support/YamlOptions.h">
<polygon fill="white" stroke="black" points="907.5,-342 907.5,-361 1056.5,-361 1056.5,-342 907.5,-342"/>
<text text-anchor="middle" x="982" y="-349" font-family="Helvetica,sans-Serif" font-size="10.00">pinhao/Support/YamlOptions.h</text>
</a>
</g>
</g>
<!-- Node18&#45;&gt;Node21 -->
<g id="edge35" class="edge"><title>Node18&#45;&gt;Node21</title>
<path fill="none" stroke="midnightblue" d="M894.614,-403.475C911.353,-393.711 939.004,-377.581 958.719,-366.081"/>
<polygon fill="midnightblue" stroke="midnightblue" points="960.539,-369.071 967.413,-361.009 957.012,-363.025 960.539,-369.071"/>
</g>
<!-- Node19&#45;&gt;Node14 -->
<g id="edge32" class="edge"><title>Node19&#45;&gt;Node14</title>
<path fill="none" stroke="midnightblue" d="M936.523,-168.083C934.514,-160.849 931.614,-150.409 929.11,-141.397"/>
<polygon fill="midnightblue" stroke="midnightblue" points="932.48,-140.449 926.431,-131.751 925.735,-142.323 932.48,-140.449"/>
</g>
<!-- Node19&#45;&gt;Node15 -->
<g id="edge33" class="edge"><title>Node19&#45;&gt;Node15</title>
<path fill="none" stroke="midnightblue" d="M913.964,-168.444C887.384,-159.359 845.191,-144.939 815.477,-134.783"/>
<polygon fill="midnightblue" stroke="midnightblue" points="816.513,-131.439 805.918,-131.516 814.249,-138.062 816.513,-131.439"/>
</g>
<!-- Node20 -->
<g id="node21" class="node"><title>Node20</title>
<polygon fill="white" stroke="#bfbfbf" points="987,-112.5 987,-131.5 1039,-131.5 1039,-112.5 987,-112.5"/>
<text text-anchor="middle" x="1013" y="-119.5" font-family="Helvetica,sans-Serif" font-size="10.00">ostream</text>
</g>
<!-- Node19&#45;&gt;Node20 -->
<g id="edge34" class="edge"><title>Node19&#45;&gt;Node20</title>
<path fill="none" stroke="midnightblue" d="M950.889,-168.324C962.15,-160.107 979.287,-147.602 992.709,-137.807"/>
<polygon fill="midnightblue" stroke="midnightblue" points="994.88,-140.556 1000.89,-131.834 990.753,-134.901 994.88,-140.556"/>
</g>
<!-- Node21&#45;&gt;Node14 -->
<g id="edge36" class="edge"><title>Node21&#45;&gt;Node14</title>
<path fill="none" stroke="midnightblue" d="M988.516,-341.705C1008.27,-313.877 1063.91,-226.157 1026,-168 1015.11,-151.293 996.462,-140.744 978.065,-134.104"/>
<polygon fill="midnightblue" stroke="midnightblue" points="979.103,-130.761 968.51,-130.976 976.925,-137.413 979.103,-130.761"/>
</g>
</g>
</svg>
        <g id="navigator" transform="translate(0 0)" fill="#404254">
                <rect fill="#f2f5e9" fill-opacity="0.5" stroke="#606060" stroke-width=".5" x="0" y="0" width="60" height="60"/>
                <use id="zoomplus" xlink:href="#zoomPlus" x="17" y="9" onmousedown="handleZoom(evt,'in')"/>
                <use id="zoomminus" xlink:href="#zoomMin" x="42" y="9" onmousedown="handleZoom(evt,'out')"/>
                <use id="reset" xlink:href="#resetDef" x="30" y="36" onmousedown="handleReset()"/>
                <g id="arrowUp" xlink:href="#dirArrow" transform="translate(30 24)" onmousedown="handlePan(0,-1)">
                  <use xlink:href="#rim" fill="#404040">
                        <set attributeName="fill" to="#808080" begin="arrowUp.mouseover" end="arrowUp.mouseout"/>
                  </use>
                  <path fill="none" stroke="white" stroke-width="1.5" d="M0,-3.0v7 M-2.5,-0.5L0,-3.0L2.5,-0.5"/>
                </g>
                <g id="arrowRight" xlink:href="#dirArrow" transform="rotate(90) translate(36 -43)" onmousedown="handlePan(1,0)">
                  <use xlink:href="#rim" fill="#404040">
                        <set attributeName="fill" to="#808080" begin="arrowRight.mouseover" end="arrowRight.mouseout"/>
                  </use>
                  <path fill="none" stroke="white" stroke-width="1.5" d="M0,-3.0v7 M-2.5,-0.5L0,-3.0L2.5,-0.5"/>
                </g>
                <g id="arrowDown" xlink:href="#dirArrow" transform="rotate(180) translate(-30 -48)" onmousedown="handlePan(0,1)">
                  <use xlink:href="#rim" fill="#404040">
                        <set attributeName="fill" to="#808080" begin="arrowDown.mouseover" end="arrowDown.mouseout"/>
                  </use>
                  <path fill="none" stroke="white" stroke-width="1.5" d="M0,-3.0v7 M-2.5,-0.5L0,-3.0L2.5,-0.5"/>
                </g>
                <g id="arrowLeft" xlink:href="#dirArrow" transform="rotate(270) translate(-36 17)" onmousedown="handlePan(-1,0)">
                  <use xlink:href="#rim" fill="#404040">
                        <set attributeName="fill" to="#808080" begin="arrowLeft.mouseover" end="arrowLeft.mouseout"/>
                  </use>
                  <path fill="none" stroke="white" stroke-width="1.5" d="M0,-3.0v7 M-2.5,-0.5L0,-3.0L2.5,-0.5"/>
                </g>
        </g>
        <svg viewBox="0 0 15 15" width="100%" height="30px" preserveAspectRatio="xMaxYMin meet">
         <g id="arrow_out" transform="scale(0.3 0.3)">
          <a xlink:href="Formula_8cpp__incl_org.svg" target="_base">
           <rect id="button" ry="5" rx="5" y="6" x="6" height="38" width="38"
                fill="#f2f5e9" fill-opacity="0.5" stroke="#606060" stroke-width="1.0"/>
           <path id="arrow"
             d="M 11.500037,31.436501 C 11.940474,20.09759 22.043105,11.32322 32.158766,21.979434 L 37.068811,17.246167 C 37.068811,17.246167 37.088388,32 37.088388,32 L 22.160133,31.978069 C 22.160133,31.978069 26.997745,27.140456 26.997745,27.140456 C 18.528582,18.264221 13.291696,25.230495 11.500037,31.436501 z"
             style="fill:#404040;"/>
          </a>
         </g>
        </svg>
</svg>
