<?xml version="1.0" encoding="UTF-8" standalone="no"?>
<!DOCTYPE svg PUBLIC "-//W3C//DTD SVG 1.1//EN"
 "http://www.w3.org/Graphics/SVG/1.1/DTD/svg11.dtd">
<!-- Generated by graphviz version 2.38.0 (20140413.2041)
 -->
<!-- Title: /home/yukiosir/workspace/CompilerProject/Software/pinhao/lib/MachineLearning/GrammarEvolution/Formula.cpp Pages: 1 -->
<!--zoomable 732 -->
<svg id="main" version="1.1" xmlns="http://www.w3.org/2000/svg" xmlns:xlink="http://www.w3.org/1999/xlink" xml:space="preserve" onload="init(evt)">
<style type="text/css"><![CDATA[
.edge:hover path { stroke: red; }
.edge:hover polygon { stroke: red; fill: red; }
]]></style>
<script type="text/javascript"><![CDATA[
var edges = document.getElementsByTagName('g');
if (edges && edges.length) {
  for (var i=0;i<edges.length;i++) {
    if (edges[i].id.substr(0,4)=='edge') {
      edges[i].setAttribute('class','edge');
    }
  }
}
]]></script>
        <defs>
                <circle id="rim" cx="0" cy="0" r="7"/>
                <circle id="rim2" cx="0" cy="0" r="3.5"/>
                <g id="zoomPlus">
                        <use xlink:href="#rim" fill="#404040">
                                <set attributeName="fill" to="#808080" begin="zoomplus.mouseover" end="zoomplus.mouseout"/>
                        </use>
                        <path d="M-4,0h8M0,-4v8" fill="none" stroke="white" stroke-width="1.5" pointer-events="none"/>
                </g>
                <g id="zoomMin">
                        <use xlink:href="#rim" fill="#404040">
                                <set attributeName="fill" to="#808080" begin="zoomminus.mouseover" end="zoomminus.mouseout"/>
                        </use>
                        <path d="M-4,0h8" fill="none" stroke="white" stroke-width="1.5" pointer-events="none"/>
                </g>
                <g id="dirArrow">
                        <path fill="none" stroke="white" stroke-width="1.5" d="M0,-3.0v7 M-2.5,-0.5L0,-3.0L2.5,-0.5"/>
                </g>
               <g id="resetDef">
                       <use xlink:href="#rim2" fill="#404040">
                               <set attributeName="fill" to="#808080" begin="reset.mouseover" end="reset.mouseout"/>
                       </use>
               </g>
        </defs>

<script type="text/javascript">
var viewWidth = 1334;
var viewHeight = 732;
var sectionId = 'dynsection-0';
</script>
<script xlink:href="svgpan.js"/>
<svg id="graph" class="graph">
<g id="viewport">
<title>/home/yukiosir/workspace/CompilerProject/Software/pinhao/lib/MachineLearning/GrammarEvolution/Formula.cpp</title>
<polygon fill="white" stroke="none" points="-4,4 -4,-728 1329.9,-728 1329.9,4 -4,4"/>
<!-- Node0 -->
<g id="node1" class="node"><title>Node0</title>
<polygon fill="#bfbfbf" stroke="black" points="851.902,-671.5 851.902,-723.5 1009.9,-723.5 1009.9,-671.5 851.902,-671.5"/>
<text text-anchor="start" x="859.902" y="-711.5" font-family="Helvetica,sans-Serif" font-size="10.00">/home/yukiosir/workspace</text>
<text text-anchor="start" x="859.902" y="-700.5" font-family="Helvetica,sans-Serif" font-size="10.00">/CompilerProject/Software</text>
<text text-anchor="start" x="859.902" y="-689.5" font-family="Helvetica,sans-Serif" font-size="10.00">/pinhao/lib/MachineLearning</text>
<text text-anchor="middle" x="930.902" y="-678.5" font-family="Helvetica,sans-Serif" font-size="10.00">/GrammarEvolution/Formula.cpp</text>
</g>
<!-- Node1 -->
<g id="node2" class="node"><title>Node1</title>
<g id="a_node2"><a xlink:href="Formulas_8h.html" target="_top" xlink:title="pinhao/MachineLearning\l/GrammarEvolution/Formulas.h">
<polygon fill="white" stroke="black" points="575.902,-548.5 575.902,-578.5 727.902,-578.5 727.902,-548.5 575.902,-548.5"/>
<text text-anchor="start" x="583.902" y="-566.5" font-family="Helvetica,sans-Serif" font-size="10.00">pinhao/MachineLearning</text>
<text text-anchor="middle" x="651.902" y="-555.5" font-family="Helvetica,sans-Serif" font-size="10.00">/GrammarEvolution/Formulas.h</text>
</a>
</g>
</g>
<!-- Node0&#45;&gt;Node1 -->
<g id="edge1" class="edge"><title>Node0&#45;&gt;Node1</title>
<path fill="none" stroke="midnightblue" d="M877.768,-671.361C823.222,-645.554 739.632,-606.007 690.906,-582.953"/>
<polygon fill="midnightblue" stroke="midnightblue" points="692.18,-579.685 681.644,-578.572 689.187,-586.012 692.18,-579.685"/>
</g>
<!-- Node24 -->
<g id="node25" class="node"><title>Node24</title>
<g id="a_node25"><a xlink:href="FormulaYAMLWrapper_8h.html" target="_top" xlink:title="pinhao/Support/FormulaYAMLWrapper.h">
<polygon fill="white" stroke="black" points="969.902,-615.5 969.902,-634.5 1161.9,-634.5 1161.9,-615.5 969.902,-615.5"/>
<text text-anchor="middle" x="1065.9" y="-622.5" font-family="Helvetica,sans-Serif" font-size="10.00">pinhao/Support/FormulaYAMLWrapper.h</text>
</a>
</g>
</g>
<!-- Node0&#45;&gt;Node24 -->
<g id="edge44" class="edge"><title>Node0&#45;&gt;Node24</title>
<path fill="none" stroke="midnightblue" d="M978.878,-671.446C999.724,-660.56 1023.29,-648.254 1040.63,-639.196"/>
<polygon fill="midnightblue" stroke="midnightblue" points="1042.33,-642.258 1049.57,-634.527 1039.09,-636.054 1042.33,-642.258"/>
</g>
<!-- Node2 -->
<g id="node3" class="node"><title>Node2</title>
<g id="a_node3"><a xlink:href="Formula_8h.html" target="_top" xlink:title="pinhao/MachineLearning\l/GrammarEvolution/Formula.h">
<polygon fill="white" stroke="black" points="268.402,-347.5 268.402,-377.5 415.402,-377.5 415.402,-347.5 268.402,-347.5"/>
<text text-anchor="start" x="276.402" y="-365.5" font-family="Helvetica,sans-Serif" font-size="10.00">pinhao/MachineLearning</text>
<text text-anchor="middle" x="341.902" y="-354.5" font-family="Helvetica,sans-Serif" font-size="10.00">/GrammarEvolution/Formula.h</text>
</a>
</g>
</g>
<!-- Node1&#45;&gt;Node2 -->
<g id="edge2" class="edge"><title>Node1&#45;&gt;Node2</title>
<path fill="none" stroke="midnightblue" d="M654.594,-548.467C659.516,-518.029 665.994,-446.103 624.902,-414 594.477,-390.23 497.454,-376.746 425.448,-369.797"/>
<polygon fill="midnightblue" stroke="midnightblue" points="425.747,-366.31 415.464,-368.86 425.093,-373.279 425.747,-366.31"/>
</g>
<!-- Node20 -->
<g id="node21" class="node"><title>Node20</title>
<g id="a_node21"><a xlink:href="BinOpFormula_8h.html" target="_top" xlink:title="pinhao/MachineLearning\l/GrammarEvolution/BinOpFormula.h">
<polygon fill="white" stroke="black" points="449.902,-481.5 449.902,-511.5 623.902,-511.5 623.902,-481.5 449.902,-481.5"/>
<text text-anchor="start" x="457.902" y="-499.5" font-family="Helvetica,sans-Serif" font-size="10.00">pinhao/MachineLearning</text>
<text text-anchor="middle" x="536.902" y="-488.5" font-family="Helvetica,sans-Serif" font-size="10.00">/GrammarEvolution/BinOpFormula.h</text>
</a>
</g>
</g>
<!-- Node1&#45;&gt;Node20 -->
<g id="edge35" class="edge"><title>Node1&#45;&gt;Node20</title>
<path fill="none" stroke="midnightblue" d="M626.949,-548.396C610.523,-539.112 588.813,-526.841 570.826,-516.674"/>
<polygon fill="midnightblue" stroke="midnightblue" points="572.234,-513.45 561.807,-511.577 568.79,-519.544 572.234,-513.45"/>
</g>
<!-- Node21 -->
<g id="node22" class="node"><title>Node21</title>
<g id="a_node22"><a xlink:href="LitFormula_8h.html" target="_top" xlink:title="pinhao/MachineLearning\l/GrammarEvolution/LitFormula.h">
<polygon fill="white" stroke="black" points="457.902,-414.5 457.902,-444.5 615.902,-444.5 615.902,-414.5 457.902,-414.5"/>
<text text-anchor="start" x="465.902" y="-432.5" font-family="Helvetica,sans-Serif" font-size="10.00">pinhao/MachineLearning</text>
<text text-anchor="middle" x="536.902" y="-421.5" font-family="Helvetica,sans-Serif" font-size="10.00">/GrammarEvolution/LitFormula.h</text>
</a>
</g>
</g>
<!-- Node1&#45;&gt;Node21 -->
<g id="edge43" class="edge"><title>Node1&#45;&gt;Node21</title>
<path fill="none" stroke="midnightblue" d="M652.042,-548.321C651.505,-530.768 648.18,-500.775 632.902,-481 622.123,-467.047 606.388,-456.546 590.763,-448.837"/>
<polygon fill="midnightblue" stroke="midnightblue" points="592.162,-445.628 581.615,-444.616 589.229,-451.984 592.162,-445.628"/>
</g>
<!-- Node22 -->
<g id="node23" class="node"><title>Node22</title>
<g id="a_node23"><a xlink:href="IfFormula_8h.html" target="_top" xlink:title="pinhao/MachineLearning\l/GrammarEvolution/IfFormula.h">
<polygon fill="white" stroke="black" points="154.402,-414.5 154.402,-444.5 307.402,-444.5 307.402,-414.5 154.402,-414.5"/>
<text text-anchor="start" x="162.402" y="-432.5" font-family="Helvetica,sans-Serif" font-size="10.00">pinhao/MachineLearning</text>
<text text-anchor="middle" x="230.902" y="-421.5" font-family="Helvetica,sans-Serif" font-size="10.00">/GrammarEvolution/IfFormula.h</text>
</a>
</g>
</g>
<!-- Node1&#45;&gt;Node22 -->
<g id="edge39" class="edge"><title>Node1&#45;&gt;Node22</title>
<path fill="none" stroke="midnightblue" d="M575.892,-558.043C464.169,-550.763 266.252,-534.811 242.902,-512 227.936,-497.38 226.156,-472.855 227.379,-454.52"/>
<polygon fill="midnightblue" stroke="midnightblue" points="230.862,-454.859 228.369,-444.561 223.897,-454.166 230.862,-454.859"/>
</g>
<!-- Node23 -->
<g id="node24" class="node"><title>Node23</title>
<g id="a_node24"><a xlink:href="FeatureFormula_8h.html" target="_top" xlink:title="pinhao/MachineLearning\l/GrammarEvolution/FeatureFormula.h">
<polygon fill="white" stroke="black" points="251.902,-481.5 251.902,-511.5 431.902,-511.5 431.902,-481.5 251.902,-481.5"/>
<text text-anchor="start" x="259.902" y="-499.5" font-family="Helvetica,sans-Serif" font-size="10.00">pinhao/MachineLearning</text>
<text text-anchor="middle" x="341.902" y="-488.5" font-family="Helvetica,sans-Serif" font-size="10.00">/GrammarEvolution/FeatureFormula.h</text>
</a>
</g>
</g>
<!-- Node1&#45;&gt;Node23 -->
<g id="edge41" class="edge"><title>Node1&#45;&gt;Node23</title>
<path fill="none" stroke="midnightblue" d="M585.018,-548.476C536.21,-538.242 469.945,-524.348 418.924,-513.65"/>
<polygon fill="midnightblue" stroke="midnightblue" points="419.438,-510.182 408.933,-511.555 418.002,-517.033 419.438,-510.182"/>
</g>
<!-- Node3 -->
<g id="node4" class="node"><title>Node3</title>
<g id="a_node4"><a xlink:href="FeatureSet_8h.html" target="_top" xlink:title="This file defines a class which contains the features selected by the user (by some command line)...">
<polygon fill="white" stroke="black" points="330.902,-291.5 330.902,-310.5 476.902,-310.5 476.902,-291.5 330.902,-291.5"/>
<text text-anchor="middle" x="403.902" y="-298.5" font-family="Helvetica,sans-Serif" font-size="10.00">pinhao/Features/FeatureSet.h</text>
</a>
</g>
</g>
<!-- Node2&#45;&gt;Node3 -->
<g id="edge3" class="edge"><title>Node2&#45;&gt;Node3</title>
<path fill="none" stroke="midnightblue" d="M356.595,-347.399C365.883,-338.486 377.901,-326.952 387.5,-317.741"/>
<polygon fill="midnightblue" stroke="midnightblue" points="390.089,-320.107 394.88,-310.658 385.242,-315.057 390.089,-320.107"/>
</g>
<!-- Node7 -->
<g id="node8" class="node"><title>Node7</title>
<g id="a_node8"><a xlink:href="Types_8h.html" target="_top" xlink:title="pinhao/Support/Types.h">
<polygon fill="white" stroke="black" points="948.902,-56.5 948.902,-75.5 1068.9,-75.5 1068.9,-56.5 948.902,-56.5"/>
<text text-anchor="middle" x="1008.9" y="-63.5" font-family="Helvetica,sans-Serif" font-size="10.00">pinhao/Support/Types.h</text>
</a>
</g>
</g>
<!-- Node2&#45;&gt;Node7 -->
<g id="edge28" class="edge"><title>Node2&#45;&gt;Node7</title>
<path fill="none" stroke="midnightblue" d="M415.642,-356.741C592.819,-344.321 1027.9,-307.557 1027.9,-246 1027.9,-246 1027.9,-246 1027.9,-188 1027.9,-151.286 1019.26,-109.056 1013.63,-85.4499"/>
<polygon fill="midnightblue" stroke="midnightblue" points="1017.03,-84.6007 1011.23,-75.7318 1010.23,-86.2793 1017.03,-84.6007"/>
</g>
<!-- Node8 -->
<g id="node9" class="node"><title>Node8</title>
<polygon fill="white" stroke="#bfbfbf" points="479.402,-0.5 479.402,-19.5 520.402,-19.5 520.402,-0.5 479.402,-0.5"/>
<text text-anchor="middle" x="499.902" y="-7.5" font-family="Helvetica,sans-Serif" font-size="10.00">string</text>
</g>
<!-- Node2&#45;&gt;Node8 -->
<g id="edge33" class="edge"><title>Node2&#45;&gt;Node8</title>
<path fill="none" stroke="midnightblue" d="M268.056,-358.903C184.644,-354.462 55.8186,-342.564 19.902,-311 -2.70605,-291.132 0.902015,-276.098 0.902015,-246 0.902015,-246 0.902015,-246 0.902015,-126.5 0.902015,-29.9014 360.321,-14.0756 469.087,-11.498"/>
<polygon fill="midnightblue" stroke="midnightblue" points="469.174,-14.997 479.096,-11.2821 469.023,-7.99866 469.174,-14.997"/>
</g>
<!-- Node10 -->
<g id="node11" class="node"><title>Node10</title>
<polygon fill="white" stroke="#bfbfbf" points="276.902,-56.5 276.902,-75.5 320.902,-75.5 320.902,-56.5 276.902,-56.5"/>
<text text-anchor="middle" x="298.902" y="-63.5" font-family="Helvetica,sans-Serif" font-size="10.00">vector</text>
</g>
<!-- Node2&#45;&gt;Node10 -->
<g id="edge34" class="edge"><title>Node2&#45;&gt;Node10</title>
<path fill="none" stroke="midnightblue" d="M322.332,-347.317C281.048,-316.027 185.968,-236.395 150.902,-143 146.059,-130.101 142.698,-123.069 150.902,-112 177.422,-76.2175 231.694,-67.9111 266.631,-66.4985"/>
<polygon fill="midnightblue" stroke="midnightblue" points="266.886,-69.9936 276.801,-66.2587 266.721,-62.9956 266.886,-69.9936"/>
</g>
<!-- Node17 -->
<g id="node18" class="node"><title>Node17</title>
<g id="a_node18"><a xlink:href="Random_8h.html" target="_top" xlink:title="pinhao/Support/Random.h">
<polygon fill="white" stroke="black" points="28.902,-291.5 28.902,-310.5 158.902,-310.5 158.902,-291.5 28.902,-291.5"/>
<text text-anchor="middle" x="93.902" y="-298.5" font-family="Helvetica,sans-Serif" font-size="10.00">pinhao/Support/Random.h</text>
</a>
</g>
</g>
<!-- Node2&#45;&gt;Node17 -->
<g id="edge26" class="edge"><title>Node2&#45;&gt;Node17</title>
<path fill="none" stroke="midnightblue" d="M283.444,-347.475C239.351,-336.896 179.742,-322.595 139.225,-312.874"/>
<polygon fill="midnightblue" stroke="midnightblue" points="139.898,-309.436 129.357,-310.506 138.265,-316.243 139.898,-309.436"/>
</g>
<!-- Node19 -->
<g id="node20" class="node"><title>Node19</title>
<g id="a_node20"><a xlink:href="Evolution_8h.html" target="_top" xlink:title="pinhao/MachineLearning\l/GrammarEvolution/Evolution.h">
<polygon fill="white" stroke="black" points="159.902,-112.5 159.902,-142.5 311.902,-142.5 311.902,-112.5 159.902,-112.5"/>
<text text-anchor="start" x="167.902" y="-130.5" font-family="Helvetica,sans-Serif" font-size="10.00">pinhao/MachineLearning</text>
<text text-anchor="middle" x="235.902" y="-119.5" font-family="Helvetica,sans-Serif" font-size="10.00">/GrammarEvolution/Evolution.h</text>
</a>
</g>
</g>
<!-- Node2&#45;&gt;Node19 -->
<g id="edge29" class="edge"><title>Node2&#45;&gt;Node19</title>
<path fill="none" stroke="midnightblue" d="M335.431,-347.276C317.722,-308.349 268.335,-199.791 246.507,-151.81"/>
<polygon fill="midnightblue" stroke="midnightblue" points="249.615,-150.191 242.289,-142.538 243.244,-153.09 249.615,-150.191"/>
</g>
<!-- Node4 -->
<g id="node5" class="node"><title>Node4</title>
<g id="a_node5"><a xlink:href="Features_8h.html" target="_top" xlink:title="This file implements some basic feature classes that extends the base class Feature. ">
<polygon fill="white" stroke="black" points="612.902,-235.5 612.902,-254.5 748.902,-254.5 748.902,-235.5 612.902,-235.5"/>
<text text-anchor="middle" x="680.902" y="-242.5" font-family="Helvetica,sans-Serif" font-size="10.00">pinhao/Features/Features.h</text>
</a>
</g>
</g>
<!-- Node3&#45;&gt;Node4 -->
<g id="edge4" class="edge"><title>Node3&#45;&gt;Node4</title>
<path fill="none" stroke="midnightblue" d="M447.793,-291.444C496.419,-281.964 574.848,-266.675 627.126,-256.483"/>
<polygon fill="midnightblue" stroke="midnightblue" points="628.07,-259.865 637.216,-254.516 626.731,-252.995 628.07,-259.865"/>
</g>
<!-- Node9 -->
<g id="node10" class="node"><title>Node9</title>
<polygon fill="white" stroke="#bfbfbf" points="657.402,-56.5 657.402,-75.5 692.402,-75.5 692.402,-56.5 657.402,-56.5"/>
<text text-anchor="middle" x="674.902" y="-63.5" font-family="Helvetica,sans-Serif" font-size="10.00">map</text>
</g>
<!-- Node3&#45;&gt;Node9 -->
<g id="edge23" class="edge"><title>Node3&#45;&gt;Node9</title>
<path fill="none" stroke="midnightblue" d="M404.059,-291.435C404.851,-258.158 409.456,-138.01 434.902,-112 464.076,-82.1795 590.248,-71.6135 647.028,-68.3219"/>
<polygon fill="midnightblue" stroke="midnightblue" points="647.303,-71.8122 657.097,-67.7729 646.921,-64.8226 647.303,-71.8122"/>
</g>
<!-- Node3&#45;&gt;Node10 -->
<g id="edge24" class="edge"><title>Node3&#45;&gt;Node10</title>
<path fill="none" stroke="midnightblue" d="M400.215,-291.326C388.785,-264.505 352.793,-180.586 320.902,-112 316.679,-102.918 311.803,-92.9 307.716,-84.6261"/>
<polygon fill="midnightblue" stroke="midnightblue" points="310.805,-82.9761 303.22,-75.579 304.536,-86.0917 310.805,-82.9761"/>
</g>
<!-- Node11 -->
<g id="node12" class="node"><title>Node11</title>
<polygon fill="white" stroke="#bfbfbf" points="844.402,-56.5 844.402,-75.5 893.402,-75.5 893.402,-56.5 844.402,-56.5"/>
<text text-anchor="middle" x="868.902" y="-63.5" font-family="Helvetica,sans-Serif" font-size="10.00">cassert</text>
</g>
<!-- Node3&#45;&gt;Node11 -->
<g id="edge22" class="edge"><title>Node3&#45;&gt;Node11</title>
<path fill="none" stroke="midnightblue" d="M477.2,-297.638C549.808,-293.691 663.504,-283.149 757.902,-255 852.206,-226.879 904.52,-230.831 948.902,-143 955.116,-130.703 955.858,-123.893 948.902,-112 939.016,-95.0968 920.188,-84.0525 903.28,-77.1372"/>
<polygon fill="midnightblue" stroke="midnightblue" points="904.222,-73.7527 893.629,-73.5296 901.771,-80.3095 904.222,-73.7527"/>
</g>
<!-- Node13 -->
<g id="node14" class="node"><title>Node13</title>
<polygon fill="white" stroke="#bfbfbf" points="351.902,-56.5 351.902,-75.5 403.902,-75.5 403.902,-56.5 351.902,-56.5"/>
<text text-anchor="middle" x="377.902" y="-63.5" font-family="Helvetica,sans-Serif" font-size="10.00">memory</text>
</g>
<!-- Node3&#45;&gt;Node13 -->
<g id="edge25" class="edge"><title>Node3&#45;&gt;Node13</title>
<path fill="none" stroke="midnightblue" d="M402.946,-291.431C399.188,-257.754 385.378,-133.994 380.034,-86.1018"/>
<polygon fill="midnightblue" stroke="midnightblue" points="383.482,-85.4459 378.895,-75.8958 376.525,-86.2223 383.482,-85.4459"/>
</g>
<!-- Node5 -->
<g id="node6" class="node"><title>Node5</title>
<g id="a_node6"><a xlink:href="Feature_8h.html" target="_top" xlink:title="This file defines the base feature class. ">
<polygon fill="white" stroke="black" points="733.402,-179.5 733.402,-198.5 864.402,-198.5 864.402,-179.5 733.402,-179.5"/>
<text text-anchor="middle" x="798.902" y="-186.5" font-family="Helvetica,sans-Serif" font-size="10.00">pinhao/Features/Feature.h</text>
</a>
</g>
</g>
<!-- Node4&#45;&gt;Node5 -->
<g id="edge5" class="edge"><title>Node4&#45;&gt;Node5</title>
<path fill="none" stroke="midnightblue" d="M699.599,-235.444C718.846,-226.636 749.055,-212.812 771.102,-202.722"/>
<polygon fill="midnightblue" stroke="midnightblue" points="772.655,-205.86 780.292,-198.516 769.742,-199.495 772.655,-205.86"/>
</g>
<!-- Node6 -->
<g id="node7" class="node"><title>Node6</title>
<g id="a_node7"><a xlink:href="FeatureInfo_8h.html" target="_top" xlink:title="This file defines a class that holds some informations about a feature. ">
<polygon fill="white" stroke="black" points="776.402,-118 776.402,-137 923.402,-137 923.402,-118 776.402,-118"/>
<text text-anchor="middle" x="849.902" y="-125" font-family="Helvetica,sans-Serif" font-size="10.00">pinhao/Features/FeatureInfo.h</text>
</a>
</g>
</g>
<!-- Node5&#45;&gt;Node6 -->
<g id="edge6" class="edge"><title>Node5&#45;&gt;Node6</title>
<path fill="none" stroke="midnightblue" d="M806.209,-179.475C813.935,-170.462 826.31,-156.025 835.92,-144.812"/>
<polygon fill="midnightblue" stroke="midnightblue" points="838.758,-146.879 842.609,-137.009 833.443,-142.324 838.758,-146.879"/>
</g>
<!-- Node5&#45;&gt;Node9 -->
<g id="edge19" class="edge"><title>Node5&#45;&gt;Node9</title>
<path fill="none" stroke="midnightblue" d="M791.484,-179.22C779.073,-164.698 753.072,-135.001 728.902,-112 717.741,-101.379 704.455,-90.2894 693.854,-81.7764"/>
<polygon fill="midnightblue" stroke="midnightblue" points="696.03,-79.0344 686.021,-75.5598 691.678,-84.5176 696.03,-79.0344"/>
</g>
<!-- Node5&#45;&gt;Node11 -->
<g id="edge20" class="edge"><title>Node5&#45;&gt;Node11</title>
<path fill="none" stroke="midnightblue" d="M864.564,-182.171C890.186,-176.307 917.142,-164.917 932.902,-143 940.946,-131.814 939.252,-124.227 932.902,-112 925.749,-98.2262 912.231,-87.783 899.455,-80.4413"/>
<polygon fill="midnightblue" stroke="midnightblue" points="900.86,-77.2252 890.385,-75.6403 897.585,-83.412 900.86,-77.2252"/>
</g>
<!-- Node12 -->
<g id="node13" class="node"><title>Node12</title>
<g id="a_node13"><a xlink:href="FeatureRegistry_8h.html" target="_top" xlink:title="This file defines a class that has all the registered features. ">
<polygon fill="white" stroke="black" points="553.402,-118 553.402,-137 720.402,-137 720.402,-118 553.402,-118"/>
<text text-anchor="middle" x="636.902" y="-125" font-family="Helvetica,sans-Serif" font-size="10.00">pinhao/Features/FeatureRegistry.h</text>
</a>
</g>
</g>
<!-- Node5&#45;&gt;Node12 -->
<g id="edge13" class="edge"><title>Node5&#45;&gt;Node12</title>
<path fill="none" stroke="midnightblue" d="M775.691,-179.475C747.903,-169.269 701.179,-152.108 669.708,-140.549"/>
<polygon fill="midnightblue" stroke="midnightblue" points="670.663,-137.171 660.07,-137.009 668.25,-143.742 670.663,-137.171"/>
</g>
<!-- Node14 -->
<g id="node15" class="node"><title>Node14</title>
<polygon fill="white" stroke="#bfbfbf" points="444.402,-118 444.402,-137 535.402,-137 535.402,-118 444.402,-118"/>
<text text-anchor="middle" x="489.902" y="-125" font-family="Helvetica,sans-Serif" font-size="10.00">llvm/IR/Module.h</text>
</g>
<!-- Node5&#45;&gt;Node14 -->
<g id="edge17" class="edge"><title>Node5&#45;&gt;Node14</title>
<path fill="none" stroke="midnightblue" d="M742.407,-179.488C690.547,-171.329 611.706,-158.056 543.902,-143 539.232,-141.963 534.359,-140.788 529.534,-139.566"/>
<polygon fill="midnightblue" stroke="midnightblue" points="530.337,-136.159 519.778,-137.023 528.571,-142.933 530.337,-136.159"/>
</g>
<!-- Node15 -->
<g id="node16" class="node"><title>Node15</title>
<polygon fill="white" stroke="#bfbfbf" points="1166.4,-118 1166.4,-137 1255.4,-137 1255.4,-118 1166.4,-118"/>
<text text-anchor="middle" x="1210.9" y="-125" font-family="Helvetica,sans-Serif" font-size="10.00">yaml&#45;cpp/yaml.h</text>
</g>
<!-- Node5&#45;&gt;Node15 -->
<g id="edge18" class="edge"><title>Node5&#45;&gt;Node15</title>
<path fill="none" stroke="midnightblue" d="M864.659,-182.465C936.797,-175.759 1055.78,-162.834 1156.9,-143 1161.89,-142.021 1167.11,-140.835 1172.24,-139.568"/>
<polygon fill="midnightblue" stroke="midnightblue" points="1173.12,-142.955 1181.93,-137.065 1171.37,-136.177 1173.12,-142.955"/>
</g>
<!-- Node16 -->
<g id="node17" class="node"><title>Node16</title>
<polygon fill="white" stroke="#bfbfbf" points="1093.9,-118 1093.9,-137 1147.9,-137 1147.9,-118 1093.9,-118"/>
<text text-anchor="middle" x="1120.9" y="-125" font-family="Helvetica,sans-Serif" font-size="10.00">iostream</text>
</g>
<!-- Node5&#45;&gt;Node16 -->
<g id="edge21" class="edge"><title>Node5&#45;&gt;Node16</title>
<path fill="none" stroke="midnightblue" d="M845.037,-179.475C909.344,-167.592 1024.67,-146.283 1083.76,-135.362"/>
<polygon fill="midnightblue" stroke="midnightblue" points="1084.58,-138.771 1093.78,-133.512 1083.31,-131.887 1084.58,-138.771"/>
</g>
<!-- Node6&#45;&gt;Node7 -->
<g id="edge7" class="edge"><title>Node6&#45;&gt;Node7</title>
<path fill="none" stroke="midnightblue" d="M872.683,-117.975C899.957,-107.769 945.815,-90.608 976.703,-79.0492"/>
<polygon fill="midnightblue" stroke="midnightblue" points="978.024,-82.2919 986.163,-75.5091 975.571,-75.7359 978.024,-82.2919"/>
</g>
<!-- Node6&#45;&gt;Node8 -->
<g id="edge11" class="edge"><title>Node6&#45;&gt;Node8</title>
<path fill="none" stroke="midnightblue" d="M834.718,-117.922C808.288,-103.312 751.781,-73.4896 700.902,-56 642.075,-35.7782 570.386,-22.2602 530.478,-15.6725"/>
<polygon fill="midnightblue" stroke="midnightblue" points="531.002,-12.2119 520.572,-14.0726 529.886,-19.1224 531.002,-12.2119"/>
</g>
<!-- Node6&#45;&gt;Node9 -->
<g id="edge9" class="edge"><title>Node6&#45;&gt;Node9</title>
<path fill="none" stroke="midnightblue" d="M824.829,-117.975C792.282,-106.909 735.691,-87.6681 702.124,-76.2555"/>
<polygon fill="midnightblue" stroke="midnightblue" points="703.093,-72.8881 692.498,-72.9827 700.839,-79.5155 703.093,-72.8881"/>
</g>
<!-- Node6&#45;&gt;Node10 -->
<g id="edge10" class="edge"><title>Node6&#45;&gt;Node10</title>
<path fill="none" stroke="midnightblue" d="M781.467,-117.981C764.314,-115.934 745.943,-113.815 728.902,-112 557.571,-93.748 513.334,-101.302 342.902,-76 339.133,-75.4404 335.199,-74.7664 331.3,-74.0422"/>
<polygon fill="midnightblue" stroke="midnightblue" points="331.691,-70.5518 321.203,-72.0515 330.337,-77.4196 331.691,-70.5518"/>
</g>
<!-- Node6&#45;&gt;Node11 -->
<g id="edge12" class="edge"><title>Node6&#45;&gt;Node11</title>
<path fill="none" stroke="midnightblue" d="M852.624,-117.975C855.333,-109.492 859.576,-96.2043 863.051,-85.3222"/>
<polygon fill="midnightblue" stroke="midnightblue" points="866.477,-86.0999 866.185,-75.5091 859.809,-83.9705 866.477,-86.0999"/>
</g>
<!-- Node7&#45;&gt;Node8 -->
<g id="edge8" class="edge"><title>Node7&#45;&gt;Node8</title>
<path fill="none" stroke="midnightblue" d="M948.766,-58.6201C839.641,-47.0431 612.702,-22.967 530.483,-14.2444"/>
<polygon fill="midnightblue" stroke="midnightblue" points="530.841,-10.7628 520.528,-13.1882 530.103,-17.7237 530.841,-10.7628"/>
</g>
<!-- Node12&#45;&gt;Node9 -->
<g id="edge16" class="edge"><title>Node12&#45;&gt;Node9</title>
<path fill="none" stroke="midnightblue" d="M642.346,-117.975C647.99,-109.138 656.963,-95.0886 664.061,-83.975"/>
<polygon fill="midnightblue" stroke="midnightblue" points="667.035,-85.8208 669.468,-75.5091 661.135,-82.0531 667.035,-85.8208"/>
</g>
<!-- Node12&#45;&gt;Node11 -->
<g id="edge15" class="edge"><title>Node12&#45;&gt;Node11</title>
<path fill="none" stroke="midnightblue" d="M670.142,-117.975C713.848,-106.766 790.259,-87.1691 834.524,-75.8167"/>
<polygon fill="midnightblue" stroke="midnightblue" points="835.435,-79.1964 844.252,-73.3218 833.696,-72.4158 835.435,-79.1964"/>
</g>
<!-- Node12&#45;&gt;Node13 -->
<g id="edge14" class="edge"><title>Node12&#45;&gt;Node13</title>
<path fill="none" stroke="midnightblue" d="M599.794,-117.975C550.171,-106.575 462.783,-86.4996 413.789,-75.2443"/>
<polygon fill="midnightblue" stroke="midnightblue" points="414.474,-71.8106 403.944,-72.9827 412.907,-78.6329 414.474,-71.8106"/>
</g>
<!-- Node18 -->
<g id="node19" class="node"><title>Node18</title>
<polygon fill="white" stroke="#bfbfbf" points="69.402,-235.5 69.402,-254.5 118.402,-254.5 118.402,-235.5 69.402,-235.5"/>
<text text-anchor="middle" x="93.902" y="-242.5" font-family="Helvetica,sans-Serif" font-size="10.00">random</text>
</g>
<!-- Node17&#45;&gt;Node18 -->
<g id="edge27" class="edge"><title>Node17&#45;&gt;Node18</title>
<path fill="none" stroke="midnightblue" d="M93.902,-291.083C93.902,-284.006 93.902,-273.861 93.902,-264.986"/>
<polygon fill="midnightblue" stroke="midnightblue" points="97.4021,-264.751 93.902,-254.751 90.4021,-264.751 97.4021,-264.751"/>
</g>
<!-- Node19&#45;&gt;Node8 -->
<g id="edge31" class="edge"><title>Node19&#45;&gt;Node8</title>
<path fill="none" stroke="midnightblue" d="M238.299,-112.483C241.836,-96.2898 250.071,-70.0733 267.902,-56 298.763,-31.643 413.44,-18.5347 469.143,-13.4837"/>
<polygon fill="midnightblue" stroke="midnightblue" points="469.484,-16.9673 479.14,-12.6066 468.872,-9.99405 469.484,-16.9673"/>
</g>
<!-- Node19&#45;&gt;Node10 -->
<g id="edge30" class="edge"><title>Node19&#45;&gt;Node10</title>
<path fill="none" stroke="midnightblue" d="M250.832,-112.399C260.27,-103.486 272.482,-91.9523 282.235,-82.7408"/>
<polygon fill="midnightblue" stroke="midnightblue" points="284.868,-85.0686 289.735,-75.6578 280.062,-79.9795 284.868,-85.0686"/>
</g>
<!-- Node19&#45;&gt;Node13 -->
<g id="edge32" class="edge"><title>Node19&#45;&gt;Node13</title>
<path fill="none" stroke="midnightblue" d="M269.554,-112.399C293.379,-102.416 325.048,-89.1465 347.99,-79.5335"/>
<polygon fill="midnightblue" stroke="midnightblue" points="349.369,-82.7505 357.24,-75.6578 346.664,-76.2944 349.369,-82.7505"/>
</g>
<!-- Node20&#45;&gt;Node2 -->
<g id="edge36" class="edge"><title>Node20&#45;&gt;Node2</title>
<path fill="none" stroke="midnightblue" d="M510.179,-481.347C492.45,-471.672 468.862,-458.248 448.902,-445 419.875,-425.734 388.339,-401.243 367.077,-384.161"/>
<polygon fill="midnightblue" stroke="midnightblue" points="369.161,-381.344 359.184,-377.779 364.76,-386.788 369.161,-381.344"/>
</g>
<!-- Node20&#45;&gt;Node21 -->
<g id="edge37" class="edge"><title>Node20&#45;&gt;Node21</title>
<path fill="none" stroke="midnightblue" d="M536.902,-481.396C536.902,-473.645 536.902,-463.812 536.902,-454.86"/>
<polygon fill="midnightblue" stroke="midnightblue" points="540.402,-454.576 536.902,-444.577 533.402,-454.577 540.402,-454.576"/>
</g>
<!-- Node21&#45;&gt;Node2 -->
<g id="edge38" class="edge"><title>Node21&#45;&gt;Node2</title>
<path fill="none" stroke="midnightblue" d="M494.59,-414.396C464.948,-404.515 425.159,-391.252 393.631,-380.743"/>
<polygon fill="midnightblue" stroke="midnightblue" points="394.725,-377.418 384.132,-377.577 392.512,-384.059 394.725,-377.418"/>
</g>
<!-- Node22&#45;&gt;Node2 -->
<g id="edge40" class="edge"><title>Node22&#45;&gt;Node2</title>
<path fill="none" stroke="midnightblue" d="M254.987,-414.396C270.842,-405.112 291.797,-392.841 309.158,-382.674"/>
<polygon fill="midnightblue" stroke="midnightblue" points="311.003,-385.65 317.864,-377.577 307.466,-379.609 311.003,-385.65"/>
</g>
<!-- Node23&#45;&gt;Node2 -->
<g id="edge42" class="edge"><title>Node23&#45;&gt;Node2</title>
<path fill="none" stroke="midnightblue" d="M341.902,-481.374C341.902,-459.044 341.902,-415.313 341.902,-387.851"/>
<polygon fill="midnightblue" stroke="midnightblue" points="345.402,-387.525 341.902,-377.525 338.402,-387.525 345.402,-387.525"/>
</g>
<!-- Node24&#45;&gt;Node1 -->
<g id="edge52" class="edge"><title>Node24&#45;&gt;Node1</title>
<path fill="none" stroke="midnightblue" d="M1006.59,-615.475C936.258,-605.368 818.476,-588.44 738.089,-576.887"/>
<polygon fill="midnightblue" stroke="midnightblue" points="738.383,-573.393 727.987,-575.435 737.387,-580.322 738.383,-573.393"/>
</g>
<!-- Node24&#45;&gt;Node7 -->
<g id="edge51" class="edge"><title>Node24&#45;&gt;Node7</title>
<path fill="none" stroke="midnightblue" d="M1065.9,-615.411C1065.9,-594.977 1065.9,-541.863 1065.9,-497.5 1065.9,-497.5 1065.9,-497.5 1065.9,-188 1065.9,-147.59 1039.56,-106.206 1022.69,-83.8451"/>
<polygon fill="midnightblue" stroke="midnightblue" points="1025.27,-81.4597 1016.35,-75.7384 1019.76,-85.7719 1025.27,-81.4597"/>
</g>
<!-- Node25 -->
<g id="node26" class="node"><title>Node25</title>
<g id="a_node26"><a xlink:href="YAMLWrapper_8h.html" target="_top" xlink:title="pinhao/Support/YAMLWrapper.h">
<polygon fill="white" stroke="black" points="1094.4,-179.5 1094.4,-198.5 1251.4,-198.5 1251.4,-179.5 1094.4,-179.5"/>
<text text-anchor="middle" x="1172.9" y="-186.5" font-family="Helvetica,sans-Serif" font-size="10.00">pinhao/Support/YAMLWrapper.h</text>
</a>
</g>
</g>
<!-- Node24&#45;&gt;Node25 -->
<g id="edge45" class="edge"><title>Node24&#45;&gt;Node25</title>
<path fill="none" stroke="midnightblue" d="M1072.77,-615.384C1087.72,-595.725 1121.9,-545.535 1121.9,-497.5 1121.9,-497.5 1121.9,-497.5 1121.9,-300 1121.9,-264.244 1144.36,-227.508 1159.47,-206.836"/>
<polygon fill="midnightblue" stroke="midnightblue" points="1162.33,-208.849 1165.59,-198.769 1156.76,-204.614 1162.33,-208.849"/>
</g>
<!-- Node27 -->
<g id="node28" class="node"><title>Node27</title>
<g id="a_node28"><a xlink:href="YamlOptions_8h.html" target="_top" xlink:title="pinhao/Support/YamlOptions.h">
<polygon fill="white" stroke="black" points="1168.4,-420 1168.4,-439 1317.4,-439 1317.4,-420 1168.4,-420"/>
<text text-anchor="middle" x="1242.9" y="-427" font-family="Helvetica,sans-Serif" font-size="10.00">pinhao/Support/YamlOptions.h</text>
</a>
</g>
</g>
<!-- Node24&#45;&gt;Node27 -->
<g id="edge49" class="edge"><title>Node24&#45;&gt;Node27</title>
<path fill="none" stroke="midnightblue" d="M1082.99,-615.395C1097.99,-607.313 1119.86,-594.21 1135.9,-579 1179.01,-538.12 1216.22,-477.749 1233.16,-448.158"/>
<polygon fill="midnightblue" stroke="midnightblue" points="1236.43,-449.489 1238.28,-439.057 1230.32,-446.055 1236.43,-449.489"/>
</g>
<!-- Node25&#45;&gt;Node15 -->
<g id="edge46" class="edge"><title>Node25&#45;&gt;Node15</title>
<path fill="none" stroke="midnightblue" d="M1178.35,-179.475C1183.99,-170.638 1192.96,-156.589 1200.06,-145.475"/>
<polygon fill="midnightblue" stroke="midnightblue" points="1203.03,-147.321 1205.47,-137.009 1197.14,-143.553 1203.03,-147.321"/>
</g>
<!-- Node25&#45;&gt;Node16 -->
<g id="edge47" class="edge"><title>Node25&#45;&gt;Node16</title>
<path fill="none" stroke="midnightblue" d="M1165.45,-179.475C1157.57,-170.462 1144.96,-156.025 1135.16,-144.812"/>
<polygon fill="midnightblue" stroke="midnightblue" points="1137.55,-142.236 1128.34,-137.009 1132.28,-146.842 1137.55,-142.236"/>
</g>
<!-- Node26 -->
<g id="node27" class="node"><title>Node26</title>
<polygon fill="white" stroke="#bfbfbf" points="1273.9,-118 1273.9,-137 1325.9,-137 1325.9,-118 1273.9,-118"/>
<text text-anchor="middle" x="1299.9" y="-125" font-family="Helvetica,sans-Serif" font-size="10.00">ostream</text>
</g>
<!-- Node25&#45;&gt;Node26 -->
<g id="edge48" class="edge"><title>Node25&#45;&gt;Node26</title>
<path fill="none" stroke="midnightblue" d="M1191.1,-179.475C1212.41,-169.49 1247.93,-152.848 1272.57,-141.307"/>
<polygon fill="midnightblue" stroke="midnightblue" points="1274.17,-144.421 1281.74,-137.009 1271.2,-138.082 1274.17,-144.421"/>
</g>
<!-- Node27&#45;&gt;Node15 -->
<g id="edge50" class="edge"><title>Node27&#45;&gt;Node15</title>
<path fill="none" stroke="midnightblue" d="M1247.29,-419.861C1257.09,-399.746 1279.9,-347.993 1279.9,-302 1279.9,-302 1279.9,-302 1279.9,-244 1279.9,-213.902 1276.18,-204.932 1260.9,-179 1253,-165.58 1240.73,-153.114 1230.32,-143.925"/>
<polygon fill="midnightblue" stroke="midnightblue" points="1232.39,-141.091 1222.5,-137.303 1227.87,-146.434 1232.39,-141.091"/>
</g>
</g>
</svg>
        <g id="navigator" transform="translate(0 0)" fill="#404254">
                <rect fill="#f2f5e9" fill-opacity="0.5" stroke="#606060" stroke-width=".5" x="0" y="0" width="60" height="60"/>
                <use id="zoomplus" xlink:href="#zoomPlus" x="17" y="9" onmousedown="handleZoom(evt,'in')"/>
                <use id="zoomminus" xlink:href="#zoomMin" x="42" y="9" onmousedown="handleZoom(evt,'out')"/>
                <use id="reset" xlink:href="#resetDef" x="30" y="36" onmousedown="handleReset()"/>
                <g id="arrowUp" xlink:href="#dirArrow" transform="translate(30 24)" onmousedown="handlePan(0,-1)">
                  <use xlink:href="#rim" fill="#404040">
                        <set attributeName="fill" to="#808080" begin="arrowUp.mouseover" end="arrowUp.mouseout"/>
                  </use>
                  <path fill="none" stroke="white" stroke-width="1.5" d="M0,-3.0v7 M-2.5,-0.5L0,-3.0L2.5,-0.5"/>
                </g>
                <g id="arrowRight" xlink:href="#dirArrow" transform="rotate(90) translate(36 -43)" onmousedown="handlePan(1,0)">
                  <use xlink:href="#rim" fill="#404040">
                        <set attributeName="fill" to="#808080" begin="arrowRight.mouseover" end="arrowRight.mouseout"/>
                  </use>
                  <path fill="none" stroke="white" stroke-width="1.5" d="M0,-3.0v7 M-2.5,-0.5L0,-3.0L2.5,-0.5"/>
                </g>
                <g id="arrowDown" xlink:href="#dirArrow" transform="rotate(180) translate(-30 -48)" onmousedown="handlePan(0,1)">
                  <use xlink:href="#rim" fill="#404040">
                        <set attributeName="fill" to="#808080" begin="arrowDown.mouseover" end="arrowDown.mouseout"/>
                  </use>
                  <path fill="none" stroke="white" stroke-width="1.5" d="M0,-3.0v7 M-2.5,-0.5L0,-3.0L2.5,-0.5"/>
                </g>
                <g id="arrowLeft" xlink:href="#dirArrow" transform="rotate(270) translate(-36 17)" onmousedown="handlePan(-1,0)">
                  <use xlink:href="#rim" fill="#404040">
                        <set attributeName="fill" to="#808080" begin="arrowLeft.mouseover" end="arrowLeft.mouseout"/>
                  </use>
                  <path fill="none" stroke="white" stroke-width="1.5" d="M0,-3.0v7 M-2.5,-0.5L0,-3.0L2.5,-0.5"/>
                </g>
        </g>
        <svg viewBox="0 0 15 15" width="100%" height="30px" preserveAspectRatio="xMaxYMin meet">
         <g id="arrow_out" transform="scale(0.3 0.3)">
          <a xlink:href="Formula_8cpp__incl_org.svg" target="_base">
           <rect id="button" ry="5" rx="5" y="6" x="6" height="38" width="38"
                fill="#f2f5e9" fill-opacity="0.5" stroke="#606060" stroke-width="1.0"/>
           <path id="arrow"
             d="M 11.500037,31.436501 C 11.940474,20.09759 22.043105,11.32322 32.158766,21.979434 L 37.068811,17.246167 C 37.068811,17.246167 37.088388,32 37.088388,32 L 22.160133,31.978069 C 22.160133,31.978069 26.997745,27.140456 26.997745,27.140456 C 18.528582,18.264221 13.291696,25.230495 11.500037,31.436501 z"
             style="fill:#404040;"/>
          </a>
         </g>
        </svg>
</svg>
