<?xml version="1.0" encoding="UTF-8" standalone="no"?>
<!DOCTYPE svg PUBLIC "-//W3C//DTD SVG 1.1//EN"
 "http://www.w3.org/Graphics/SVG/1.1/DTD/svg11.dtd">
<!-- Generated by graphviz version 2.38.0 (20140413.2041)
 -->
<!-- Title: /home/yukiosir/workspace/CompilerProject/Software/pinhao/tools/OptLibraries/FunctionsGeneFeaturePass.cpp Pages: 1 -->
<svg width="848pt" height="285pt"
 viewBox="0.00 0.00 847.50 285.00" xmlns="http://www.w3.org/2000/svg" xmlns:xlink="http://www.w3.org/1999/xlink">
<g id="graph0" class="graph" transform="scale(1 1) rotate(0) translate(4 281)">
<title>/home/yukiosir/workspace/CompilerProject/Software/pinhao/tools/OptLibraries/FunctionsGeneFeaturePass.cpp</title>
<polygon fill="white" stroke="none" points="-4,4 -4,-281 843.5,-281 843.5,4 -4,4"/>
<!-- Node0 -->
<g id="node1" class="node"><title>Node0</title>
<polygon fill="#bfbfbf" stroke="black" points="663.5,-224.5 663.5,-276.5 823.5,-276.5 823.5,-224.5 663.5,-224.5"/>
<text text-anchor="start" x="671.5" y="-264.5" font-family="Helvetica,sans-Serif" font-size="10.00">/home/yukiosir/workspace</text>
<text text-anchor="start" x="671.5" y="-253.5" font-family="Helvetica,sans-Serif" font-size="10.00">/CompilerProject/Software</text>
<text text-anchor="start" x="671.5" y="-242.5" font-family="Helvetica,sans-Serif" font-size="10.00">/pinhao/tools/OptLibraries</text>
<text text-anchor="middle" x="743.5" y="-231.5" font-family="Helvetica,sans-Serif" font-size="10.00">/FunctionsGeneFeaturePass.cpp</text>
</g>
<!-- Node1 -->
<g id="node2" class="node"><title>Node1</title>
<g id="a_node2"><a xlink:href="Feature_8h.html" target="_top" xlink:title="This file defines the base feature class. ">
<polygon fill="white" stroke="black" points="391,-168.5 391,-187.5 522,-187.5 522,-168.5 391,-168.5"/>
<text text-anchor="middle" x="456.5" y="-175.5" font-family="Helvetica,sans-Serif" font-size="10.00">pinhao/Features/Feature.h</text>
</a>
</g>
</g>
<!-- Node0&#45;&gt;Node1 -->
<g id="edge1" class="edge"><title>Node0&#45;&gt;Node1</title>
<path fill="none" stroke="midnightblue" d="M663.173,-229.768C610.822,-216.908 544.456,-200.606 501.261,-189.995"/>
<polygon fill="midnightblue" stroke="midnightblue" points="501.885,-186.545 491.338,-187.558 500.215,-193.342 501.885,-186.545"/>
</g>
<!-- Node6 -->
<g id="node7" class="node"><title>Node6</title>
<polygon fill="white" stroke="#bfbfbf" points="730.5,-56.5 730.5,-75.5 774.5,-75.5 774.5,-56.5 730.5,-56.5"/>
<text text-anchor="middle" x="752.5" y="-63.5" font-family="Helvetica,sans-Serif" font-size="10.00">vector</text>
</g>
<!-- Node0&#45;&gt;Node6 -->
<g id="edge19" class="edge"><title>Node0&#45;&gt;Node6</title>
<path fill="none" stroke="midnightblue" d="M744.751,-224.124C746.583,-186.977 749.953,-118.642 751.577,-85.7114"/>
<polygon fill="midnightblue" stroke="midnightblue" points="755.077,-85.8093 752.073,-75.649 748.085,-85.4644 755.077,-85.8093"/>
</g>
<!-- Node13 -->
<g id="node14" class="node"><title>Node13</title>
<polygon fill="white" stroke="#bfbfbf" points="771.5,-168.5 771.5,-187.5 839.5,-187.5 839.5,-168.5 771.5,-168.5"/>
<text text-anchor="middle" x="805.5" y="-175.5" font-family="Helvetica,sans-Serif" font-size="10.00">llvm/Pass.h</text>
</g>
<!-- Node0&#45;&gt;Node13 -->
<g id="edge18" class="edge"><title>Node0&#45;&gt;Node13</title>
<path fill="none" stroke="midnightblue" d="M765.533,-224.446C774.079,-214.728 783.62,-203.88 791.236,-195.22"/>
<polygon fill="midnightblue" stroke="midnightblue" points="793.877,-197.516 797.853,-187.695 788.621,-192.893 793.877,-197.516"/>
</g>
<!-- Node2 -->
<g id="node3" class="node"><title>Node2</title>
<g id="a_node3"><a xlink:href="FeatureInfo_8h.html" target="_top" xlink:title="This file defines a class that holds some informations about a feature. ">
<polygon fill="white" stroke="black" points="550,-112.5 550,-131.5 697,-131.5 697,-112.5 550,-112.5"/>
<text text-anchor="middle" x="623.5" y="-119.5" font-family="Helvetica,sans-Serif" font-size="10.00">pinhao/Features/FeatureInfo.h</text>
</a>
</g>
</g>
<!-- Node1&#45;&gt;Node2 -->
<g id="edge2" class="edge"><title>Node1&#45;&gt;Node2</title>
<path fill="none" stroke="midnightblue" d="M482.962,-168.444C511.178,-159.32 556.04,-144.813 587.468,-134.651"/>
<polygon fill="midnightblue" stroke="midnightblue" points="588.724,-137.923 597.162,-131.516 586.57,-131.263 588.724,-137.923"/>
</g>
<!-- Node5 -->
<g id="node6" class="node"><title>Node5</title>
<polygon fill="white" stroke="#bfbfbf" points="434,-56.5 434,-75.5 469,-75.5 469,-56.5 434,-56.5"/>
<text text-anchor="middle" x="451.5" y="-63.5" font-family="Helvetica,sans-Serif" font-size="10.00">map</text>
</g>
<!-- Node1&#45;&gt;Node5 -->
<g id="edge15" class="edge"><title>Node1&#45;&gt;Node5</title>
<path fill="none" stroke="midnightblue" d="M459.065,-168.155C462.361,-155.636 467.336,-132.039 464.5,-112 463.232,-103.042 460.611,-93.372 458.052,-85.2998"/>
<polygon fill="midnightblue" stroke="midnightblue" points="461.361,-84.1569 454.844,-75.8034 454.729,-86.3976 461.361,-84.1569"/>
</g>
<!-- Node7 -->
<g id="node8" class="node"><title>Node7</title>
<polygon fill="white" stroke="#bfbfbf" points="487,-56.5 487,-75.5 536,-75.5 536,-56.5 487,-56.5"/>
<text text-anchor="middle" x="511.5" y="-63.5" font-family="Helvetica,sans-Serif" font-size="10.00">cassert</text>
</g>
<!-- Node1&#45;&gt;Node7 -->
<g id="edge16" class="edge"><title>Node1&#45;&gt;Node7</title>
<path fill="none" stroke="midnightblue" d="M460.948,-168.393C465.609,-159.35 473.126,-144.704 479.5,-132 487.422,-116.209 496.283,-98.1798 502.669,-85.1214"/>
<polygon fill="midnightblue" stroke="midnightblue" points="505.952,-86.374 507.194,-75.8522 499.662,-83.3031 505.952,-86.374"/>
</g>
<!-- Node8 -->
<g id="node9" class="node"><title>Node8</title>
<g id="a_node9"><a xlink:href="FeatureRegistry_8h.html" target="_top" xlink:title="This file defines a class that has all the registered features. ">
<polygon fill="white" stroke="black" points="0,-112.5 0,-131.5 167,-131.5 167,-112.5 0,-112.5"/>
<text text-anchor="middle" x="83.5" y="-119.5" font-family="Helvetica,sans-Serif" font-size="10.00">pinhao/Features/FeatureRegistry.h</text>
</a>
</g>
</g>
<!-- Node1&#45;&gt;Node8 -->
<g id="edge9" class="edge"><title>Node1&#45;&gt;Node8</title>
<path fill="none" stroke="midnightblue" d="M397.397,-168.444C330.828,-158.806 222.777,-143.163 152.424,-132.978"/>
<polygon fill="midnightblue" stroke="midnightblue" points="152.725,-129.485 142.326,-131.516 151.722,-136.413 152.725,-129.485"/>
</g>
<!-- Node10 -->
<g id="node11" class="node"><title>Node10</title>
<polygon fill="white" stroke="#bfbfbf" points="185,-112.5 185,-131.5 276,-131.5 276,-112.5 185,-112.5"/>
<text text-anchor="middle" x="230.5" y="-119.5" font-family="Helvetica,sans-Serif" font-size="10.00">llvm/IR/Module.h</text>
</g>
<!-- Node1&#45;&gt;Node10 -->
<g id="edge13" class="edge"><title>Node1&#45;&gt;Node10</title>
<path fill="none" stroke="midnightblue" d="M420.69,-168.444C381.512,-159.083 318.623,-144.056 275.985,-133.868"/>
<polygon fill="midnightblue" stroke="midnightblue" points="276.682,-130.436 266.143,-131.516 275.056,-137.245 276.682,-130.436"/>
</g>
<!-- Node11 -->
<g id="node12" class="node"><title>Node11</title>
<polygon fill="white" stroke="#bfbfbf" points="294,-112.5 294,-131.5 383,-131.5 383,-112.5 294,-112.5"/>
<text text-anchor="middle" x="338.5" y="-119.5" font-family="Helvetica,sans-Serif" font-size="10.00">yaml&#45;cpp/yaml.h</text>
</g>
<!-- Node1&#45;&gt;Node11 -->
<g id="edge14" class="edge"><title>Node1&#45;&gt;Node11</title>
<path fill="none" stroke="midnightblue" d="M437.803,-168.444C418.556,-159.636 388.348,-145.812 366.3,-135.722"/>
<polygon fill="midnightblue" stroke="midnightblue" points="367.66,-132.495 357.11,-131.516 364.747,-138.86 367.66,-132.495"/>
</g>
<!-- Node12 -->
<g id="node13" class="node"><title>Node12</title>
<polygon fill="white" stroke="#bfbfbf" points="401.5,-112.5 401.5,-131.5 455.5,-131.5 455.5,-112.5 401.5,-112.5"/>
<text text-anchor="middle" x="428.5" y="-119.5" font-family="Helvetica,sans-Serif" font-size="10.00">iostream</text>
</g>
<!-- Node1&#45;&gt;Node12 -->
<g id="edge17" class="edge"><title>Node1&#45;&gt;Node12</title>
<path fill="none" stroke="midnightblue" d="M451.876,-168.083C448.044,-160.691 442.476,-149.953 437.735,-140.811"/>
<polygon fill="midnightblue" stroke="midnightblue" points="440.748,-139.018 433.038,-131.751 434.534,-142.24 440.748,-139.018"/>
</g>
<!-- Node3 -->
<g id="node4" class="node"><title>Node3</title>
<g id="a_node4"><a xlink:href="Types_8h.html" target="_top" xlink:title="pinhao/Support/Types.h">
<polygon fill="white" stroke="black" points="592.5,-56.5 592.5,-75.5 712.5,-75.5 712.5,-56.5 592.5,-56.5"/>
<text text-anchor="middle" x="652.5" y="-63.5" font-family="Helvetica,sans-Serif" font-size="10.00">pinhao/Support/Types.h</text>
</a>
</g>
</g>
<!-- Node2&#45;&gt;Node3 -->
<g id="edge3" class="edge"><title>Node2&#45;&gt;Node3</title>
<path fill="none" stroke="midnightblue" d="M628.289,-112.083C632.258,-104.691 638.025,-93.9533 642.935,-84.8111"/>
<polygon fill="midnightblue" stroke="midnightblue" points="646.153,-86.217 647.8,-75.7511 639.986,-82.9051 646.153,-86.217"/>
</g>
<!-- Node4 -->
<g id="node5" class="node"><title>Node4</title>
<polygon fill="white" stroke="#bfbfbf" points="588,-0.5 588,-19.5 629,-19.5 629,-0.5 588,-0.5"/>
<text text-anchor="middle" x="608.5" y="-7.5" font-family="Helvetica,sans-Serif" font-size="10.00">string</text>
</g>
<!-- Node2&#45;&gt;Node4 -->
<g id="edge7" class="edge"><title>Node2&#45;&gt;Node4</title>
<path fill="none" stroke="midnightblue" d="M612.234,-112.427C602.534,-104.275 589.221,-91.0465 583.5,-76 577.286,-59.6554 586.072,-41.033 594.893,-27.9229"/>
<polygon fill="midnightblue" stroke="midnightblue" points="597.74,-29.9598 600.822,-19.8231 592.091,-25.8253 597.74,-29.9598"/>
</g>
<!-- Node2&#45;&gt;Node5 -->
<g id="edge5" class="edge"><title>Node2&#45;&gt;Node5</title>
<path fill="none" stroke="midnightblue" d="M594.873,-112.493C567.329,-104.238 524.289,-91.1603 478.828,-76.3641"/>
<polygon fill="midnightblue" stroke="midnightblue" points="479.687,-72.9629 469.095,-73.1818 477.512,-79.6163 479.687,-72.9629"/>
</g>
<!-- Node2&#45;&gt;Node6 -->
<g id="edge6" class="edge"><title>Node2&#45;&gt;Node6</title>
<path fill="none" stroke="midnightblue" d="M643.94,-112.444C665.17,-103.557 698.599,-89.5632 722.755,-79.4514"/>
<polygon fill="midnightblue" stroke="midnightblue" points="724.282,-82.6064 732.155,-75.5164 721.579,-76.1493 724.282,-82.6064"/>
</g>
<!-- Node2&#45;&gt;Node7 -->
<g id="edge8" class="edge"><title>Node2&#45;&gt;Node7</title>
<path fill="none" stroke="midnightblue" d="M605.505,-112.324C587.462,-103.625 559.453,-90.1202 538.697,-80.113"/>
<polygon fill="midnightblue" stroke="midnightblue" points="539.978,-76.8449 529.45,-75.6545 536.938,-83.1502 539.978,-76.8449"/>
</g>
<!-- Node3&#45;&gt;Node4 -->
<g id="edge4" class="edge"><title>Node3&#45;&gt;Node4</title>
<path fill="none" stroke="midnightblue" d="M645.234,-56.083C638.955,-48.3768 629.712,-37.0333 622.069,-27.6531"/>
<polygon fill="midnightblue" stroke="midnightblue" points="624.661,-25.2926 615.631,-19.7511 619.234,-29.7143 624.661,-25.2926"/>
</g>
<!-- Node8&#45;&gt;Node5 -->
<g id="edge12" class="edge"><title>Node8&#45;&gt;Node5</title>
<path fill="none" stroke="midnightblue" d="M141.811,-112.444C222.135,-100.657 363.672,-79.8878 423.523,-71.1053"/>
<polygon fill="midnightblue" stroke="midnightblue" points="424.329,-74.5246 433.715,-69.6098 423.312,-67.5988 424.329,-74.5246"/>
</g>
<!-- Node8&#45;&gt;Node7 -->
<g id="edge11" class="edge"><title>Node8&#45;&gt;Node7</title>
<path fill="none" stroke="midnightblue" d="M163.452,-112.497C262.412,-101.882 423.503,-84.2782 476.791,-75.7341"/>
<polygon fill="midnightblue" stroke="midnightblue" points="477.461,-79.17 486.713,-74.0059 476.26,-72.2738 477.461,-79.17"/>
</g>
<!-- Node9 -->
<g id="node10" class="node"><title>Node9</title>
<polygon fill="white" stroke="#bfbfbf" points="57.5,-56.5 57.5,-75.5 109.5,-75.5 109.5,-56.5 57.5,-56.5"/>
<text text-anchor="middle" x="83.5" y="-63.5" font-family="Helvetica,sans-Serif" font-size="10.00">memory</text>
</g>
<!-- Node8&#45;&gt;Node9 -->
<g id="edge10" class="edge"><title>Node8&#45;&gt;Node9</title>
<path fill="none" stroke="midnightblue" d="M83.5,-112.083C83.5,-105.006 83.5,-94.8611 83.5,-85.9865"/>
<polygon fill="midnightblue" stroke="midnightblue" points="87.0001,-85.751 83.5,-75.7511 80.0001,-85.7511 87.0001,-85.751"/>
</g>
</g>
</svg>
