<?xml version="1.0" encoding="UTF-8" standalone="no"?>
<!DOCTYPE svg PUBLIC "-//W3C//DTD SVG 1.1//EN"
 "http://www.w3.org/Graphics/SVG/1.1/DTD/svg11.dtd">
<!-- Generated by graphviz version 2.38.0 (20140413.2041)
 -->
<!-- Title: /home/yukiosir/workspace/CompilerProject/Software/pinhao/lib/FeaturesImpl/FunctionStaticCostFeature.cpp Pages: 1 -->
<!--zoomable 587 -->
<svg id="main" version="1.1" xmlns="http://www.w3.org/2000/svg" xmlns:xlink="http://www.w3.org/1999/xlink" xml:space="preserve" onload="init(evt)">
<style type="text/css"><![CDATA[
.edge:hover path { stroke: red; }
.edge:hover polygon { stroke: red; fill: red; }
]]></style>
<script type="text/javascript"><![CDATA[
var edges = document.getElementsByTagName('g');
if (edges && edges.length) {
  for (var i=0;i<edges.length;i++) {
    if (edges[i].id.substr(0,4)=='edge') {
      edges[i].setAttribute('class','edge');
    }
  }
}
]]></script>
        <defs>
                <circle id="rim" cx="0" cy="0" r="7"/>
                <circle id="rim2" cx="0" cy="0" r="3.5"/>
                <g id="zoomPlus">
                        <use xlink:href="#rim" fill="#404040">
                                <set attributeName="fill" to="#808080" begin="zoomplus.mouseover" end="zoomplus.mouseout"/>
                        </use>
                        <path d="M-4,0h8M0,-4v8" fill="none" stroke="white" stroke-width="1.5" pointer-events="none"/>
                </g>
                <g id="zoomMin">
                        <use xlink:href="#rim" fill="#404040">
                                <set attributeName="fill" to="#808080" begin="zoomminus.mouseover" end="zoomminus.mouseout"/>
                        </use>
                        <path d="M-4,0h8" fill="none" stroke="white" stroke-width="1.5" pointer-events="none"/>
                </g>
                <g id="dirArrow">
                        <path fill="none" stroke="white" stroke-width="1.5" d="M0,-3.0v7 M-2.5,-0.5L0,-3.0L2.5,-0.5"/>
                </g>
               <g id="resetDef">
                       <use xlink:href="#rim2" fill="#404040">
                               <set attributeName="fill" to="#808080" begin="reset.mouseover" end="reset.mouseout"/>
                       </use>
               </g>
        </defs>

<script type="text/javascript">
var viewWidth = 1089;
var viewHeight = 587;
var sectionId = 'dynsection-0';
</script>
<script xlink:href="svgpan.js"/>
<svg id="graph" class="graph">
<g id="viewport">
<title>/home/yukiosir/workspace/CompilerProject/Software/pinhao/lib/FeaturesImpl/FunctionStaticCostFeature.cpp</title>
<polygon fill="white" stroke="none" points="-4,4 -4,-583 1085.01,-583 1085.01,4 -4,4"/>
<!-- Node0 -->
<g id="node1" class="node"><title>Node0</title>
<polygon fill="#bfbfbf" stroke="black" points="677.883,-526.5 677.883,-578.5 832.883,-578.5 832.883,-526.5 677.883,-526.5"/>
<text text-anchor="start" x="685.883" y="-566.5" font-family="Helvetica,sans-Serif" font-size="10.00">/home/yukiosir/workspace</text>
<text text-anchor="start" x="685.883" y="-555.5" font-family="Helvetica,sans-Serif" font-size="10.00">/CompilerProject/Software</text>
<text text-anchor="start" x="685.883" y="-544.5" font-family="Helvetica,sans-Serif" font-size="10.00">/pinhao/lib/FeaturesImpl</text>
<text text-anchor="middle" x="755.383" y="-533.5" font-family="Helvetica,sans-Serif" font-size="10.00">/FunctionStaticCostFeature.cpp</text>
</g>
<!-- Node1 -->
<g id="node2" class="node"><title>Node1</title>
<g id="a_node2"><a xlink:href="MapFeature_8h.html" target="_top" xlink:title="pinhao/Features/MapFeature.h">
<polygon fill="white" stroke="black" points="462.883,-465 462.883,-484 611.883,-484 611.883,-465 462.883,-465"/>
<text text-anchor="middle" x="537.383" y="-472" font-family="Helvetica,sans-Serif" font-size="10.00">pinhao/Features/MapFeature.h</text>
</a>
</g>
</g>
<!-- Node0&#45;&gt;Node1 -->
<g id="edge1" class="edge"><title>Node0&#45;&gt;Node1</title>
<path fill="none" stroke="midnightblue" d="M683.398,-526.404C645.736,-513.274 601.385,-497.812 571.528,-487.404"/>
<polygon fill="midnightblue" stroke="midnightblue" points="572.583,-484.065 561.989,-484.078 570.279,-490.675 572.583,-484.065"/>
</g>
<!-- Node23 -->
<g id="node24" class="node"><title>Node23</title>
<g id="a_node24"><a xlink:href="SProfWrapper_8h.html" target="_top" xlink:title="pinhao/PerformanceAnalyser\l/SProfWrapper.h">
<polygon fill="white" stroke="black" points="866.383,-459.5 866.383,-489.5 1008.38,-489.5 1008.38,-459.5 866.383,-459.5"/>
<text text-anchor="start" x="874.383" y="-477.5" font-family="Helvetica,sans-Serif" font-size="10.00">pinhao/PerformanceAnalyser</text>
<text text-anchor="middle" x="937.383" y="-466.5" font-family="Helvetica,sans-Serif" font-size="10.00">/SProfWrapper.h</text>
</a>
</g>
</g>
<!-- Node0&#45;&gt;Node23 -->
<g id="edge39" class="edge"><title>Node0&#45;&gt;Node23</title>
<path fill="none" stroke="midnightblue" d="M815.481,-526.404C841.235,-515.65 870.736,-503.331 894.265,-493.506"/>
<polygon fill="midnightblue" stroke="midnightblue" points="895.746,-496.68 903.625,-489.597 893.048,-490.221 895.746,-496.68"/>
</g>
<!-- Node24 -->
<g id="node25" class="node"><title>Node24</title>
<polygon fill="white" stroke="#bfbfbf" points="748.883,-403.5 748.883,-422.5 899.883,-422.5 899.883,-403.5 748.883,-403.5"/>
<text text-anchor="middle" x="824.383" y="-410.5" font-family="Helvetica,sans-Serif" font-size="10.00">llvm/IR/LegacyPassManager.h</text>
</g>
<!-- Node0&#45;&gt;Node24 -->
<g id="edge45" class="edge"><title>Node0&#45;&gt;Node24</title>
<path fill="none" stroke="midnightblue" d="M768.039,-526.28C781.792,-498.874 803.413,-455.789 815.482,-431.739"/>
<polygon fill="midnightblue" stroke="midnightblue" points="818.661,-433.207 820.018,-422.699 812.405,-430.067 818.661,-433.207"/>
</g>
<!-- Node26 -->
<g id="node27" class="node"><title>Node26</title>
<g id="a_node27"><a xlink:href="InitializationRoutines_8h.html" target="_top" xlink:title="pinhao/InitializationRoutines.h">
<polygon fill="white" stroke="black" points="768.883,-342 768.883,-361 915.883,-361 915.883,-342 768.883,-342"/>
<text text-anchor="middle" x="842.383" y="-349" font-family="Helvetica,sans-Serif" font-size="10.00">pinhao/InitializationRoutines.h</text>
</a>
</g>
</g>
<!-- Node0&#45;&gt;Node26 -->
<g id="edge43" class="edge"><title>Node0&#45;&gt;Node26</title>
<path fill="none" stroke="midnightblue" d="M743.725,-526.252C731.122,-494.873 715.788,-440.848 739.383,-403 751.299,-383.888 772.787,-371.806 793.065,-364.274"/>
<polygon fill="midnightblue" stroke="midnightblue" points="794.235,-367.573 802.566,-361.027 791.971,-360.949 794.235,-367.573"/>
</g>
<!-- Node2 -->
<g id="node3" class="node"><title>Node2</title>
<g id="a_node3"><a xlink:href="Features_8h.html" target="_top" xlink:title="This file implements some basic feature classes that extends the base class Feature. ">
<polygon fill="white" stroke="black" points="474.383,-224.5 474.383,-243.5 610.383,-243.5 610.383,-224.5 474.383,-224.5"/>
<text text-anchor="middle" x="542.383" y="-231.5" font-family="Helvetica,sans-Serif" font-size="10.00">pinhao/Features/Features.h</text>
</a>
</g>
</g>
<!-- Node1&#45;&gt;Node2 -->
<g id="edge2" class="edge"><title>Node1&#45;&gt;Node2</title>
<path fill="none" stroke="midnightblue" d="M577.839,-464.996C600.73,-457.891 627.484,-445.201 641.383,-423 679.964,-361.378 600.457,-283.206 561.825,-250.493"/>
<polygon fill="midnightblue" stroke="midnightblue" points="563.765,-247.556 553.83,-243.878 559.303,-252.949 563.765,-247.556"/>
</g>
<!-- Node15 -->
<g id="node16" class="node"><title>Node15</title>
<g id="a_node16"><a xlink:href="FeatureYAMLWrapper_8h.html" target="_top" xlink:title="pinhao/Support/FeatureYAMLWrapper.h">
<polygon fill="white" stroke="black" points="442.383,-403.5 442.383,-422.5 632.383,-422.5 632.383,-403.5 442.383,-403.5"/>
<text text-anchor="middle" x="537.383" y="-410.5" font-family="Helvetica,sans-Serif" font-size="10.00">pinhao/Support/FeatureYAMLWrapper.h</text>
</a>
</g>
</g>
<!-- Node1&#45;&gt;Node15 -->
<g id="edge20" class="edge"><title>Node1&#45;&gt;Node15</title>
<path fill="none" stroke="midnightblue" d="M532.483,-464.975C530.652,-456.58 530.18,-443.481 531.069,-432.663"/>
<polygon fill="midnightblue" stroke="midnightblue" points="534.57,-432.897 532.486,-422.509 527.637,-431.929 534.57,-432.897"/>
</g>
<!-- Node21 -->
<g id="node22" class="node"><title>Node21</title>
<g id="a_node22"><a xlink:href="Iterator_8h.html" target="_top" xlink:title="pinhao/Support/Iterator.h">
<polygon fill="white" stroke="black" points="318.383,-280.5 318.383,-299.5 442.383,-299.5 442.383,-280.5 318.383,-280.5"/>
<text text-anchor="middle" x="380.383" y="-287.5" font-family="Helvetica,sans-Serif" font-size="10.00">pinhao/Support/Iterator.h</text>
</a>
</g>
</g>
<!-- Node1&#45;&gt;Node21 -->
<g id="edge38" class="edge"><title>Node1&#45;&gt;Node21</title>
<path fill="none" stroke="midnightblue" d="M472.296,-464.95C414.318,-453.509 332.749,-427.134 293.383,-367 285.837,-355.473 286.221,-347.769 293.383,-336 302.843,-320.457 319.594,-310.045 335.888,-303.191"/>
<polygon fill="midnightblue" stroke="midnightblue" points="337.287,-306.403 345.371,-299.555 334.78,-299.868 337.287,-306.403"/>
</g>
<!-- Node3 -->
<g id="node4" class="node"><title>Node3</title>
<g id="a_node4"><a xlink:href="Feature_8h.html" target="_top" xlink:title="This file defines the base feature class. ">
<polygon fill="white" stroke="black" points="411.883,-168.5 411.883,-187.5 542.883,-187.5 542.883,-168.5 411.883,-168.5"/>
<text text-anchor="middle" x="477.383" y="-175.5" font-family="Helvetica,sans-Serif" font-size="10.00">pinhao/Features/Feature.h</text>
</a>
</g>
</g>
<!-- Node2&#45;&gt;Node3 -->
<g id="edge3" class="edge"><title>Node2&#45;&gt;Node3</title>
<path fill="none" stroke="midnightblue" d="M531.94,-224.324C522.237,-216.263 507.568,-204.077 495.884,-194.369"/>
<polygon fill="midnightblue" stroke="midnightblue" points="497.945,-191.532 488.017,-187.834 493.472,-196.916 497.945,-191.532"/>
</g>
<!-- Node4 -->
<g id="node5" class="node"><title>Node4</title>
<g id="a_node5"><a xlink:href="FeatureInfo_8h.html" target="_top" xlink:title="This file defines a class that holds some informations about a feature. ">
<polygon fill="white" stroke="black" points="41.8835,-112.5 41.8835,-131.5 188.883,-131.5 188.883,-112.5 41.8835,-112.5"/>
<text text-anchor="middle" x="115.383" y="-119.5" font-family="Helvetica,sans-Serif" font-size="10.00">pinhao/Features/FeatureInfo.h</text>
</a>
</g>
</g>
<!-- Node3&#45;&gt;Node4 -->
<g id="edge4" class="edge"><title>Node3&#45;&gt;Node4</title>
<path fill="none" stroke="midnightblue" d="M420.024,-168.444C355.55,-158.826 250.983,-143.228 182.695,-133.041"/>
<polygon fill="midnightblue" stroke="midnightblue" points="182.882,-129.53 172.475,-131.516 181.849,-136.454 182.882,-129.53"/>
</g>
<!-- Node7 -->
<g id="node8" class="node"><title>Node7</title>
<polygon fill="white" stroke="#bfbfbf" points="421.883,-56.5 421.883,-75.5 456.883,-75.5 456.883,-56.5 421.883,-56.5"/>
<text text-anchor="middle" x="439.383" y="-63.5" font-family="Helvetica,sans-Serif" font-size="10.00">map</text>
</g>
<!-- Node3&#45;&gt;Node7 -->
<g id="edge17" class="edge"><title>Node3&#45;&gt;Node7</title>
<path fill="none" stroke="midnightblue" d="M474.402,-168.368C468.242,-150.537 453.995,-109.295 445.696,-85.2717"/>
<polygon fill="midnightblue" stroke="midnightblue" points="448.925,-83.9005 442.351,-75.5914 442.309,-86.1862 448.925,-83.9005"/>
</g>
<!-- Node9 -->
<g id="node10" class="node"><title>Node9</title>
<polygon fill="white" stroke="#bfbfbf" points="213.883,-56.5 213.883,-75.5 262.883,-75.5 262.883,-56.5 213.883,-56.5"/>
<text text-anchor="middle" x="238.383" y="-63.5" font-family="Helvetica,sans-Serif" font-size="10.00">cassert</text>
</g>
<!-- Node3&#45;&gt;Node9 -->
<g id="edge18" class="edge"><title>Node3&#45;&gt;Node9</title>
<path fill="none" stroke="midnightblue" d="M411.818,-173.98C347.98,-169.501 257.441,-158.538 235.383,-132 224.796,-119.262 227.32,-99.7923 231.411,-85.4809"/>
<polygon fill="midnightblue" stroke="midnightblue" points="234.816,-86.3329 234.652,-75.7393 228.174,-84.1227 234.816,-86.3329"/>
</g>
<!-- Node10 -->
<g id="node11" class="node"><title>Node10</title>
<g id="a_node11"><a xlink:href="FeatureRegistry_8h.html" target="_top" xlink:title="This file defines a class that has all the registered features. ">
<polygon fill="white" stroke="black" points="244.883,-112.5 244.883,-131.5 411.883,-131.5 411.883,-112.5 244.883,-112.5"/>
<text text-anchor="middle" x="328.383" y="-119.5" font-family="Helvetica,sans-Serif" font-size="10.00">pinhao/Features/FeatureRegistry.h</text>
</a>
</g>
</g>
<!-- Node3&#45;&gt;Node10 -->
<g id="edge11" class="edge"><title>Node3&#45;&gt;Node10</title>
<path fill="none" stroke="midnightblue" d="M453.774,-168.444C428.926,-159.438 389.609,-145.189 361.63,-135.049"/>
<polygon fill="midnightblue" stroke="midnightblue" points="362.477,-131.633 351.883,-131.516 360.092,-138.214 362.477,-131.633"/>
</g>
<!-- Node12 -->
<g id="node13" class="node"><title>Node12</title>
<polygon fill="white" stroke="#bfbfbf" points="779.883,-112.5 779.883,-131.5 870.883,-131.5 870.883,-112.5 779.883,-112.5"/>
<text text-anchor="middle" x="825.383" y="-119.5" font-family="Helvetica,sans-Serif" font-size="10.00">llvm/IR/Module.h</text>
</g>
<!-- Node3&#45;&gt;Node12 -->
<g id="edge15" class="edge"><title>Node3&#45;&gt;Node12</title>
<path fill="none" stroke="midnightblue" d="M532.525,-168.444C597.38,-158.38 704.435,-141.768 769.577,-131.66"/>
<polygon fill="midnightblue" stroke="midnightblue" points="770.314,-135.087 779.659,-130.095 769.24,-128.17 770.314,-135.087"/>
</g>
<!-- Node13 -->
<g id="node14" class="node"><title>Node13</title>
<polygon fill="white" stroke="#bfbfbf" points="589.883,-112.5 589.883,-131.5 678.883,-131.5 678.883,-112.5 589.883,-112.5"/>
<text text-anchor="middle" x="634.383" y="-119.5" font-family="Helvetica,sans-Serif" font-size="10.00">yaml&#45;cpp/yaml.h</text>
</g>
<!-- Node3&#45;&gt;Node13 -->
<g id="edge16" class="edge"><title>Node3&#45;&gt;Node13</title>
<path fill="none" stroke="midnightblue" d="M502.261,-168.444C528.673,-159.359 570.599,-144.939 600.125,-134.783"/>
<polygon fill="midnightblue" stroke="midnightblue" points="601.305,-138.079 609.623,-131.516 599.028,-131.459 601.305,-138.079"/>
</g>
<!-- Node14 -->
<g id="node15" class="node"><title>Node14</title>
<polygon fill="white" stroke="#bfbfbf" points="513.383,-112.5 513.383,-131.5 567.383,-131.5 567.383,-112.5 513.383,-112.5"/>
<text text-anchor="middle" x="540.383" y="-119.5" font-family="Helvetica,sans-Serif" font-size="10.00">iostream</text>
</g>
<!-- Node3&#45;&gt;Node14 -->
<g id="edge19" class="edge"><title>Node3&#45;&gt;Node14</title>
<path fill="none" stroke="midnightblue" d="M487.506,-168.324C496.91,-160.263 511.128,-148.077 522.452,-138.369"/>
<polygon fill="midnightblue" stroke="midnightblue" points="524.762,-140.999 530.077,-131.834 520.207,-135.684 524.762,-140.999"/>
</g>
<!-- Node5 -->
<g id="node6" class="node"><title>Node5</title>
<g id="a_node6"><a xlink:href="Types_8h.html" target="_top" xlink:title="pinhao/Support/Types.h">
<polygon fill="white" stroke="black" points="13.3835,-56.5 13.3835,-75.5 133.383,-75.5 133.383,-56.5 13.3835,-56.5"/>
<text text-anchor="middle" x="73.3835" y="-63.5" font-family="Helvetica,sans-Serif" font-size="10.00">pinhao/Support/Types.h</text>
</a>
</g>
</g>
<!-- Node4&#45;&gt;Node5 -->
<g id="edge5" class="edge"><title>Node4&#45;&gt;Node5</title>
<path fill="none" stroke="midnightblue" d="M108.448,-112.083C102.454,-104.377 93.6316,-93.0333 86.3359,-83.6531"/>
<polygon fill="midnightblue" stroke="midnightblue" points="89.0921,-81.4958 80.1899,-75.7511 83.5666,-85.7934 89.0921,-81.4958"/>
</g>
<!-- Node6 -->
<g id="node7" class="node"><title>Node6</title>
<polygon fill="white" stroke="#bfbfbf" points="8.88349,-0.5 8.88349,-19.5 49.8835,-19.5 49.8835,-0.5 8.88349,-0.5"/>
<text text-anchor="middle" x="29.3835" y="-7.5" font-family="Helvetica,sans-Serif" font-size="10.00">string</text>
</g>
<!-- Node4&#45;&gt;Node6 -->
<g id="edge9" class="edge"><title>Node4&#45;&gt;Node6</title>
<path fill="none" stroke="midnightblue" d="M61.3033,-112.468C39.8603,-106.146 17.2792,-95.1432 4.38349,-76 -5.70158,-61.0291 4.47918,-41.4128 14.7181,-27.6611"/>
<polygon fill="midnightblue" stroke="midnightblue" points="17.6845,-29.5585 21.2426,-19.5789 12.2378,-25.1615 17.6845,-29.5585"/>
</g>
<!-- Node4&#45;&gt;Node7 -->
<g id="edge7" class="edge"><title>Node4&#45;&gt;Node7</title>
<path fill="none" stroke="midnightblue" d="M166.722,-112.444C236.145,-100.873 357.503,-80.6467 411.78,-71.6006"/>
<polygon fill="midnightblue" stroke="midnightblue" points="412.417,-75.0427 421.706,-69.9463 411.266,-68.138 412.417,-75.0427"/>
</g>
<!-- Node8 -->
<g id="node9" class="node"><title>Node8</title>
<polygon fill="white" stroke="#bfbfbf" points="151.383,-56.5 151.383,-75.5 195.383,-75.5 195.383,-56.5 151.383,-56.5"/>
<text text-anchor="middle" x="173.383" y="-63.5" font-family="Helvetica,sans-Serif" font-size="10.00">vector</text>
</g>
<!-- Node4&#45;&gt;Node8 -->
<g id="edge8" class="edge"><title>Node4&#45;&gt;Node8</title>
<path fill="none" stroke="midnightblue" d="M124.702,-112.324C133.276,-104.341 146.196,-92.3128 156.571,-82.6529"/>
<polygon fill="midnightblue" stroke="midnightblue" points="158.961,-85.2098 163.895,-75.8339 154.191,-80.0865 158.961,-85.2098"/>
</g>
<!-- Node4&#45;&gt;Node9 -->
<g id="edge10" class="edge"><title>Node4&#45;&gt;Node9</title>
<path fill="none" stroke="midnightblue" d="M134.873,-112.444C155.026,-103.596 186.706,-89.6875 209.714,-79.5865"/>
<polygon fill="midnightblue" stroke="midnightblue" points="211.235,-82.7411 218.985,-75.5164 208.422,-76.3316 211.235,-82.7411"/>
</g>
<!-- Node5&#45;&gt;Node6 -->
<g id="edge6" class="edge"><title>Node5&#45;&gt;Node6</title>
<path fill="none" stroke="midnightblue" d="M66.1178,-56.083C59.8387,-48.3768 50.5958,-37.0333 42.9526,-27.6531"/>
<polygon fill="midnightblue" stroke="midnightblue" points="45.5441,-25.2926 36.514,-19.7511 40.1174,-29.7143 45.5441,-25.2926"/>
</g>
<!-- Node10&#45;&gt;Node7 -->
<g id="edge14" class="edge"><title>Node10&#45;&gt;Node7</title>
<path fill="none" stroke="midnightblue" d="M346.218,-112.324C364.099,-103.625 391.859,-90.1202 412.429,-80.113"/>
<polygon fill="midnightblue" stroke="midnightblue" points="414.132,-83.1765 421.594,-75.6545 411.07,-76.8819 414.132,-83.1765"/>
</g>
<!-- Node10&#45;&gt;Node9 -->
<g id="edge13" class="edge"><title>Node10&#45;&gt;Node9</title>
<path fill="none" stroke="midnightblue" d="M313.923,-112.324C299.884,-103.9 278.335,-90.9709 261.84,-81.0741"/>
<polygon fill="midnightblue" stroke="midnightblue" points="263.183,-77.7983 252.808,-75.6545 259.582,-83.8007 263.183,-77.7983"/>
</g>
<!-- Node11 -->
<g id="node12" class="node"><title>Node11</title>
<polygon fill="white" stroke="#bfbfbf" points="302.383,-56.5 302.383,-75.5 354.383,-75.5 354.383,-56.5 302.383,-56.5"/>
<text text-anchor="middle" x="328.383" y="-63.5" font-family="Helvetica,sans-Serif" font-size="10.00">memory</text>
</g>
<!-- Node10&#45;&gt;Node11 -->
<g id="edge12" class="edge"><title>Node10&#45;&gt;Node11</title>
<path fill="none" stroke="midnightblue" d="M328.383,-112.083C328.383,-105.006 328.383,-94.8611 328.383,-85.9865"/>
<polygon fill="midnightblue" stroke="midnightblue" points="331.884,-85.751 328.383,-75.7511 324.884,-85.7511 331.884,-85.751"/>
</g>
<!-- Node15&#45;&gt;Node1 -->
<g id="edge30" class="edge"><title>Node15&#45;&gt;Node1</title>
<path fill="none" stroke="midnightblue" d="M542.281,-422.509C544.113,-430.898 544.586,-443.996 543.7,-454.817"/>
<polygon fill="midnightblue" stroke="midnightblue" points="540.198,-454.588 542.284,-464.975 547.131,-455.554 540.198,-454.588"/>
</g>
<!-- Node16 -->
<g id="node17" class="node"><title>Node16</title>
<g id="a_node17"><a xlink:href="YAMLWrapper_8h.html" target="_top" xlink:title="pinhao/Support/YAMLWrapper.h">
<polygon fill="white" stroke="black" points="560.883,-168.5 560.883,-187.5 717.883,-187.5 717.883,-168.5 560.883,-168.5"/>
<text text-anchor="middle" x="639.383" y="-175.5" font-family="Helvetica,sans-Serif" font-size="10.00">pinhao/Support/YAMLWrapper.h</text>
</a>
</g>
</g>
<!-- Node15&#45;&gt;Node16 -->
<g id="edge21" class="edge"><title>Node15&#45;&gt;Node16</title>
<path fill="none" stroke="midnightblue" d="M571.827,-403.378C590.888,-396.722 613.138,-385.44 625.383,-367 660.347,-314.351 650.53,-234.162 643.595,-197.935"/>
<polygon fill="midnightblue" stroke="midnightblue" points="646.954,-196.895 641.505,-187.809 640.099,-198.31 646.954,-196.895"/>
</g>
<!-- Node18 -->
<g id="node19" class="node"><title>Node18</title>
<g id="a_node19"><a xlink:href="YamlOptions_8h.html" target="_top" xlink:title="pinhao/Support/YamlOptions.h">
<polygon fill="white" stroke="black" points="671.883,-280.5 671.883,-299.5 820.883,-299.5 820.883,-280.5 671.883,-280.5"/>
<text text-anchor="middle" x="746.383" y="-287.5" font-family="Helvetica,sans-Serif" font-size="10.00">pinhao/Support/YamlOptions.h</text>
</a>
</g>
</g>
<!-- Node15&#45;&gt;Node18 -->
<g id="edge25" class="edge"><title>Node15&#45;&gt;Node18</title>
<path fill="none" stroke="midnightblue" d="M569.606,-403.443C594.825,-395.954 630.22,-383.661 658.383,-367 686.752,-350.218 714.732,-323.926 731.279,-307.082"/>
<polygon fill="midnightblue" stroke="midnightblue" points="734.016,-309.285 738.435,-299.656 728.975,-304.428 734.016,-309.285"/>
</g>
<!-- Node19 -->
<g id="node20" class="node"><title>Node19</title>
<g id="a_node20"><a xlink:href="VectorFeature_8h.html" target="_top" xlink:title="pinhao/Features/VectorFeature.h">
<polygon fill="white" stroke="black" points="457.883,-342 457.883,-361 616.883,-361 616.883,-342 457.883,-342"/>
<text text-anchor="middle" x="537.383" y="-349" font-family="Helvetica,sans-Serif" font-size="10.00">pinhao/Features/VectorFeature.h</text>
</a>
</g>
</g>
<!-- Node15&#45;&gt;Node19 -->
<g id="edge27" class="edge"><title>Node15&#45;&gt;Node19</title>
<path fill="none" stroke="midnightblue" d="M532.483,-403.475C530.652,-395.08 530.18,-381.981 531.069,-371.163"/>
<polygon fill="midnightblue" stroke="midnightblue" points="534.57,-371.397 532.486,-361.009 527.637,-370.429 534.57,-371.397"/>
</g>
<!-- Node20 -->
<g id="node21" class="node"><title>Node20</title>
<g id="a_node21"><a xlink:href="MapVectorFeature_8h.html" target="_top" xlink:title="pinhao/Features/MapVector\lFeature.h">
<polygon fill="white" stroke="black" points="302.883,-336.5 302.883,-366.5 439.883,-366.5 439.883,-336.5 302.883,-336.5"/>
<text text-anchor="start" x="310.883" y="-354.5" font-family="Helvetica,sans-Serif" font-size="10.00">pinhao/Features/MapVector</text>
<text text-anchor="middle" x="371.383" y="-343.5" font-family="Helvetica,sans-Serif" font-size="10.00">Feature.h</text>
</a>
</g>
</g>
<!-- Node15&#45;&gt;Node20 -->
<g id="edge31" class="edge"><title>Node15&#45;&gt;Node20</title>
<path fill="none" stroke="midnightblue" d="M508.699,-403.475C482.647,-394.814 444.07,-381.145 414.375,-370.141"/>
<polygon fill="midnightblue" stroke="midnightblue" points="415.269,-366.739 404.676,-366.523 412.822,-373.298 415.269,-366.739"/>
</g>
<!-- Node16&#45;&gt;Node13 -->
<g id="edge22" class="edge"><title>Node16&#45;&gt;Node13</title>
<path fill="none" stroke="midnightblue" d="M638.558,-168.083C637.903,-161.006 636.963,-150.861 636.141,-141.986"/>
<polygon fill="midnightblue" stroke="midnightblue" points="639.601,-141.386 635.194,-131.751 632.631,-142.031 639.601,-141.386"/>
</g>
<!-- Node16&#45;&gt;Node14 -->
<g id="edge23" class="edge"><title>Node16&#45;&gt;Node14</title>
<path fill="none" stroke="midnightblue" d="M623.477,-168.324C607.745,-159.743 583.441,-146.486 565.175,-136.522"/>
<polygon fill="midnightblue" stroke="midnightblue" points="566.705,-133.37 556.25,-131.655 563.353,-139.516 566.705,-133.37"/>
</g>
<!-- Node17 -->
<g id="node18" class="node"><title>Node17</title>
<polygon fill="white" stroke="#bfbfbf" points="697.383,-112.5 697.383,-131.5 749.383,-131.5 749.383,-112.5 697.383,-112.5"/>
<text text-anchor="middle" x="723.383" y="-119.5" font-family="Helvetica,sans-Serif" font-size="10.00">ostream</text>
</g>
<!-- Node16&#45;&gt;Node17 -->
<g id="edge24" class="edge"><title>Node16&#45;&gt;Node17</title>
<path fill="none" stroke="midnightblue" d="M652.88,-168.324C665.983,-159.9 686.095,-146.971 701.49,-137.074"/>
<polygon fill="midnightblue" stroke="midnightblue" points="703.402,-140.006 709.921,-131.655 699.616,-134.118 703.402,-140.006"/>
</g>
<!-- Node18&#45;&gt;Node13 -->
<g id="edge26" class="edge"><title>Node18&#45;&gt;Node13</title>
<path fill="none" stroke="midnightblue" d="M747.453,-280.364C749.619,-258.991 752.318,-202.844 726.383,-168 714.828,-152.475 696.468,-142.017 679.178,-135.124"/>
<polygon fill="midnightblue" stroke="midnightblue" points="680.327,-131.817 669.733,-131.651 677.911,-138.387 680.327,-131.817"/>
</g>
<!-- Node19&#45;&gt;Node2 -->
<g id="edge28" class="edge"><title>Node19&#45;&gt;Node2</title>
<path fill="none" stroke="midnightblue" d="M537.759,-341.819C538.563,-323.257 540.464,-279.339 541.562,-253.973"/>
<polygon fill="midnightblue" stroke="midnightblue" points="545.067,-253.924 542.003,-243.782 538.074,-253.621 545.067,-253.924"/>
</g>
<!-- Node19&#45;&gt;Node15 -->
<g id="edge29" class="edge"><title>Node19&#45;&gt;Node15</title>
<path fill="none" stroke="midnightblue" d="M542.281,-361.009C544.113,-369.398 544.586,-382.496 543.7,-393.317"/>
<polygon fill="midnightblue" stroke="midnightblue" points="540.198,-393.088 542.284,-403.475 547.131,-394.054 540.198,-393.088"/>
</g>
<!-- Node20&#45;&gt;Node2 -->
<g id="edge32" class="edge"><title>Node20&#45;&gt;Node2</title>
<path fill="none" stroke="midnightblue" d="M394.366,-336.476C410.477,-326.527 432.434,-312.733 451.383,-300 476.311,-283.25 504.339,-263.009 522.62,-249.613"/>
<polygon fill="midnightblue" stroke="midnightblue" points="524.771,-252.375 530.754,-243.631 520.624,-246.736 524.771,-252.375"/>
</g>
<!-- Node20&#45;&gt;Node15 -->
<g id="edge33" class="edge"><title>Node20&#45;&gt;Node15</title>
<path fill="none" stroke="midnightblue" d="M416.336,-366.523C445.891,-376.647 483.564,-390.182 509.045,-399.847"/>
<polygon fill="midnightblue" stroke="midnightblue" points="507.91,-403.161 518.5,-403.475 510.418,-396.625 507.91,-403.161"/>
</g>
<!-- Node20&#45;&gt;Node21 -->
<g id="edge34" class="edge"><title>Node20&#45;&gt;Node21</title>
<path fill="none" stroke="midnightblue" d="M373.516,-336.399C374.73,-328.377 376.264,-318.233 377.575,-309.569"/>
<polygon fill="midnightblue" stroke="midnightblue" points="381.039,-310.069 379.074,-299.658 374.118,-309.022 381.039,-310.069"/>
</g>
<!-- Node21&#45;&gt;Node2 -->
<g id="edge35" class="edge"><title>Node21&#45;&gt;Node2</title>
<path fill="none" stroke="midnightblue" d="M406.053,-280.444C433.306,-271.359 476.567,-256.939 507.034,-246.783"/>
<polygon fill="midnightblue" stroke="midnightblue" points="508.454,-249.999 516.834,-243.516 506.241,-243.358 508.454,-249.999"/>
</g>
<!-- Node21&#45;&gt;Node7 -->
<g id="edge37" class="edge"><title>Node21&#45;&gt;Node7</title>
<path fill="none" stroke="midnightblue" d="M381.114,-280.282C382.99,-260.087 388.812,-208.714 402.383,-168 408.04,-151.029 413.848,-148.652 420.383,-132 426.424,-116.61 431.561,-98.5141 434.965,-85.3293"/>
<polygon fill="midnightblue" stroke="midnightblue" points="438.374,-86.1261 437.398,-75.5762 431.582,-84.4316 438.374,-86.1261"/>
</g>
<!-- Node22 -->
<g id="node23" class="node"><title>Node22</title>
<polygon fill="white" stroke="#bfbfbf" points="408.883,-224.5 408.883,-243.5 455.883,-243.5 455.883,-224.5 408.883,-224.5"/>
<text text-anchor="middle" x="432.383" y="-231.5" font-family="Helvetica,sans-Serif" font-size="10.00">iterator</text>
</g>
<!-- Node21&#45;&gt;Node22 -->
<g id="edge36" class="edge"><title>Node21&#45;&gt;Node22</title>
<path fill="none" stroke="midnightblue" d="M388.97,-280.083C396.542,-272.22 407.762,-260.569 416.898,-251.081"/>
<polygon fill="midnightblue" stroke="midnightblue" points="419.541,-253.382 423.957,-243.751 414.499,-248.527 419.541,-253.382"/>
</g>
<!-- Node23&#45;&gt;Node7 -->
<g id="edge42" class="edge"><title>Node23&#45;&gt;Node7</title>
<path fill="none" stroke="midnightblue" d="M1002.58,-459.389C1023.93,-451.82 1046.07,-440.332 1061.38,-423 1082.87,-398.681 1080.38,-384.951 1080.38,-352.5 1080.38,-352.5 1080.38,-352.5 1080.38,-177 1080.38,-113.841 590.726,-77.0568 467.343,-68.7906"/>
<polygon fill="midnightblue" stroke="midnightblue" points="467.406,-65.2871 457.197,-68.1201 466.944,-72.2719 467.406,-65.2871"/>
</g>
<!-- Node23&#45;&gt;Node24 -->
<g id="edge40" class="edge"><title>Node23&#45;&gt;Node24</title>
<path fill="none" stroke="midnightblue" d="M910.604,-459.399C892.322,-449.773 868.235,-437.09 850.169,-427.577"/>
<polygon fill="midnightblue" stroke="midnightblue" points="851.305,-424.22 840.826,-422.658 848.044,-430.414 851.305,-424.22"/>
</g>
<!-- Node25 -->
<g id="node26" class="node"><title>Node25</title>
<polygon fill="white" stroke="#bfbfbf" points="918.383,-403.5 918.383,-422.5 1052.38,-422.5 1052.38,-403.5 918.383,-403.5"/>
<text text-anchor="middle" x="985.383" y="-410.5" font-family="Helvetica,sans-Serif" font-size="10.00">sprof/StaticFunctionCost.h</text>
</g>
<!-- Node23&#45;&gt;Node25 -->
<g id="edge41" class="edge"><title>Node23&#45;&gt;Node25</title>
<path fill="none" stroke="midnightblue" d="M948.759,-459.399C955.734,-450.753 964.698,-439.642 972.011,-430.576"/>
<polygon fill="midnightblue" stroke="midnightblue" points="974.844,-432.638 978.399,-422.658 969.396,-428.243 974.844,-432.638"/>
</g>
<!-- Node26&#45;&gt;Node12 -->
<g id="edge44" class="edge"><title>Node26&#45;&gt;Node12</title>
<path fill="none" stroke="midnightblue" d="M841.738,-341.86C839.255,-308.638 830.29,-188.66 826.794,-141.871"/>
<polygon fill="midnightblue" stroke="midnightblue" points="830.265,-141.36 826.03,-131.649 823.285,-141.882 830.265,-141.36"/>
</g>
</g>
</svg>
        <g id="navigator" transform="translate(0 0)" fill="#404254">
                <rect fill="#f2f5e9" fill-opacity="0.5" stroke="#606060" stroke-width=".5" x="0" y="0" width="60" height="60"/>
                <use id="zoomplus" xlink:href="#zoomPlus" x="17" y="9" onmousedown="handleZoom(evt,'in')"/>
                <use id="zoomminus" xlink:href="#zoomMin" x="42" y="9" onmousedown="handleZoom(evt,'out')"/>
                <use id="reset" xlink:href="#resetDef" x="30" y="36" onmousedown="handleReset()"/>
                <g id="arrowUp" xlink:href="#dirArrow" transform="translate(30 24)" onmousedown="handlePan(0,-1)">
                  <use xlink:href="#rim" fill="#404040">
                        <set attributeName="fill" to="#808080" begin="arrowUp.mouseover" end="arrowUp.mouseout"/>
                  </use>
                  <path fill="none" stroke="white" stroke-width="1.5" d="M0,-3.0v7 M-2.5,-0.5L0,-3.0L2.5,-0.5"/>
                </g>
                <g id="arrowRight" xlink:href="#dirArrow" transform="rotate(90) translate(36 -43)" onmousedown="handlePan(1,0)">
                  <use xlink:href="#rim" fill="#404040">
                        <set attributeName="fill" to="#808080" begin="arrowRight.mouseover" end="arrowRight.mouseout"/>
                  </use>
                  <path fill="none" stroke="white" stroke-width="1.5" d="M0,-3.0v7 M-2.5,-0.5L0,-3.0L2.5,-0.5"/>
                </g>
                <g id="arrowDown" xlink:href="#dirArrow" transform="rotate(180) translate(-30 -48)" onmousedown="handlePan(0,1)">
                  <use xlink:href="#rim" fill="#404040">
                        <set attributeName="fill" to="#808080" begin="arrowDown.mouseover" end="arrowDown.mouseout"/>
                  </use>
                  <path fill="none" stroke="white" stroke-width="1.5" d="M0,-3.0v7 M-2.5,-0.5L0,-3.0L2.5,-0.5"/>
                </g>
                <g id="arrowLeft" xlink:href="#dirArrow" transform="rotate(270) translate(-36 17)" onmousedown="handlePan(-1,0)">
                  <use xlink:href="#rim" fill="#404040">
                        <set attributeName="fill" to="#808080" begin="arrowLeft.mouseover" end="arrowLeft.mouseout"/>
                  </use>
                  <path fill="none" stroke="white" stroke-width="1.5" d="M0,-3.0v7 M-2.5,-0.5L0,-3.0L2.5,-0.5"/>
                </g>
        </g>
        <svg viewBox="0 0 15 15" width="100%" height="30px" preserveAspectRatio="xMaxYMin meet">
         <g id="arrow_out" transform="scale(0.3 0.3)">
          <a xlink:href="FunctionStaticCostFeature_8cpp__incl_org.svg" target="_base">
           <rect id="button" ry="5" rx="5" y="6" x="6" height="38" width="38"
                fill="#f2f5e9" fill-opacity="0.5" stroke="#606060" stroke-width="1.0"/>
           <path id="arrow"
             d="M 11.500037,31.436501 C 11.940474,20.09759 22.043105,11.32322 32.158766,21.979434 L 37.068811,17.246167 C 37.068811,17.246167 37.088388,32 37.088388,32 L 22.160133,31.978069 C 22.160133,31.978069 26.997745,27.140456 26.997745,27.140456 C 18.528582,18.264221 13.291696,25.230495 11.500037,31.436501 z"
             style="fill:#404040;"/>
          </a>
         </g>
        </svg>
</svg>
