<?xml version="1.0" encoding="UTF-8" standalone="no"?>
<!DOCTYPE svg PUBLIC "-//W3C//DTD SVG 1.1//EN"
 "http://www.w3.org/Graphics/SVG/1.1/DTD/svg11.dtd">
<!-- Generated by graphviz version 2.38.0 (20140413.2041)
 -->
<!-- Title: /home/yukiosir/workspace/CompilerProject/Software/pinhao/lib/FeaturesImpl/FunctionStaticCostFeature.cpp Pages: 1 -->
<!--zoomable 587 -->
<svg id="main" version="1.1" xmlns="http://www.w3.org/2000/svg" xmlns:xlink="http://www.w3.org/1999/xlink" xml:space="preserve" onload="init(evt)">
<style type="text/css"><![CDATA[
.edge:hover path { stroke: red; }
.edge:hover polygon { stroke: red; fill: red; }
]]></style>
<script type="text/javascript"><![CDATA[
var edges = document.getElementsByTagName('g');
if (edges && edges.length) {
  for (var i=0;i<edges.length;i++) {
    if (edges[i].id.substr(0,4)=='edge') {
      edges[i].setAttribute('class','edge');
    }
  }
}
]]></script>
        <defs>
                <circle id="rim" cx="0" cy="0" r="7"/>
                <circle id="rim2" cx="0" cy="0" r="3.5"/>
                <g id="zoomPlus">
                        <use xlink:href="#rim" fill="#404040">
                                <set attributeName="fill" to="#808080" begin="zoomplus.mouseover" end="zoomplus.mouseout"/>
                        </use>
                        <path d="M-4,0h8M0,-4v8" fill="none" stroke="white" stroke-width="1.5" pointer-events="none"/>
                </g>
                <g id="zoomMin">
                        <use xlink:href="#rim" fill="#404040">
                                <set attributeName="fill" to="#808080" begin="zoomminus.mouseover" end="zoomminus.mouseout"/>
                        </use>
                        <path d="M-4,0h8" fill="none" stroke="white" stroke-width="1.5" pointer-events="none"/>
                </g>
                <g id="dirArrow">
                        <path fill="none" stroke="white" stroke-width="1.5" d="M0,-3.0v7 M-2.5,-0.5L0,-3.0L2.5,-0.5"/>
                </g>
               <g id="resetDef">
                       <use xlink:href="#rim2" fill="#404040">
                               <set attributeName="fill" to="#808080" begin="reset.mouseover" end="reset.mouseout"/>
                       </use>
               </g>
        </defs>

<script type="text/javascript">
var viewWidth = 1189;
var viewHeight = 587;
var sectionId = 'dynsection-0';
</script>
<script xlink:href="svgpan.js"/>
<svg id="graph" class="graph">
<g id="viewport">
<title>/home/yukiosir/workspace/CompilerProject/Software/pinhao/lib/FeaturesImpl/FunctionStaticCostFeature.cpp</title>
<polygon fill="white" stroke="none" points="-4,4 -4,-583 1184.5,-583 1184.5,4 -4,4"/>
<!-- Node0 -->
<g id="node1" class="node"><title>Node0</title>
<polygon fill="#bfbfbf" stroke="black" points="866.5,-526.5 866.5,-578.5 1021.5,-578.5 1021.5,-526.5 866.5,-526.5"/>
<text text-anchor="start" x="874.5" y="-566.5" font-family="Helvetica,sans-Serif" font-size="10.00">/home/yukiosir/workspace</text>
<text text-anchor="start" x="874.5" y="-555.5" font-family="Helvetica,sans-Serif" font-size="10.00">/CompilerProject/Software</text>
<text text-anchor="start" x="874.5" y="-544.5" font-family="Helvetica,sans-Serif" font-size="10.00">/pinhao/lib/FeaturesImpl</text>
<text text-anchor="middle" x="944" y="-533.5" font-family="Helvetica,sans-Serif" font-size="10.00">/FunctionStaticCostFeature.cpp</text>
</g>
<!-- Node1 -->
<g id="node2" class="node"><title>Node1</title>
<g id="a_node2"><a xlink:href="MapFeature_8h.html" target="_top" xlink:title="pinhao/Features/MapFeature.h">
<polygon fill="white" stroke="black" points="574.5,-465 574.5,-484 723.5,-484 723.5,-465 574.5,-465"/>
<text text-anchor="middle" x="649" y="-472" font-family="Helvetica,sans-Serif" font-size="10.00">pinhao/Features/MapFeature.h</text>
</a>
</g>
</g>
<!-- Node0&#45;&gt;Node1 -->
<g id="edge1" class="edge"><title>Node0&#45;&gt;Node1</title>
<path fill="none" stroke="midnightblue" d="M866.492,-531.532C810.786,-517.18 737.741,-498.362 692.087,-486.6"/>
<polygon fill="midnightblue" stroke="midnightblue" points="692.775,-483.163 682.218,-484.058 691.028,-489.942 692.775,-483.163"/>
</g>
<!-- Node23 -->
<g id="node24" class="node"><title>Node23</title>
<g id="a_node24"><a xlink:href="SProfWrapper_8h.html" target="_top" xlink:title="pinhao/PerformanceAnalyser\l/SProfWrapper.h">
<polygon fill="white" stroke="black" points="873,-459.5 873,-489.5 1015,-489.5 1015,-459.5 873,-459.5"/>
<text text-anchor="start" x="881" y="-477.5" font-family="Helvetica,sans-Serif" font-size="10.00">pinhao/PerformanceAnalyser</text>
<text text-anchor="middle" x="944" y="-466.5" font-family="Helvetica,sans-Serif" font-size="10.00">/SProfWrapper.h</text>
</a>
</g>
</g>
<!-- Node0&#45;&gt;Node23 -->
<g id="edge39" class="edge"><title>Node0&#45;&gt;Node23</title>
<path fill="none" stroke="midnightblue" d="M944,-526.193C944,-517.786 944,-508.443 944,-500.091"/>
<polygon fill="midnightblue" stroke="midnightblue" points="947.5,-499.845 944,-489.845 940.5,-499.845 947.5,-499.845"/>
</g>
<!-- Node24 -->
<g id="node25" class="node"><title>Node24</title>
<polygon fill="white" stroke="#bfbfbf" points="1029.5,-403.5 1029.5,-422.5 1180.5,-422.5 1180.5,-403.5 1029.5,-403.5"/>
<text text-anchor="middle" x="1105" y="-410.5" font-family="Helvetica,sans-Serif" font-size="10.00">llvm/IR/LegacyPassManager.h</text>
</g>
<!-- Node0&#45;&gt;Node24 -->
<g id="edge43" class="edge"><title>Node0&#45;&gt;Node24</title>
<path fill="none" stroke="midnightblue" d="M978.055,-526.484C992.482,-515.59 1009.32,-502.48 1024,-490 1047.27,-470.219 1072.75,-445.822 1088.8,-430.094"/>
<polygon fill="midnightblue" stroke="midnightblue" points="1091.61,-432.242 1096.27,-422.729 1086.69,-427.257 1091.61,-432.242"/>
</g>
<!-- Node2 -->
<g id="node3" class="node"><title>Node2</title>
<g id="a_node3"><a xlink:href="Features_8h.html" target="_top" xlink:title="This file implements some basic feature classes that extends the base class Feature. ">
<polygon fill="white" stroke="black" points="484,-224.5 484,-243.5 620,-243.5 620,-224.5 484,-224.5"/>
<text text-anchor="middle" x="552" y="-231.5" font-family="Helvetica,sans-Serif" font-size="10.00">pinhao/Features/Features.h</text>
</a>
</g>
</g>
<!-- Node1&#45;&gt;Node2 -->
<g id="edge2" class="edge"><title>Node1&#45;&gt;Node2</title>
<path fill="none" stroke="midnightblue" d="M649.216,-464.731C649.46,-442.336 648.162,-381.588 629,-336 614.785,-302.181 586.523,-269.659 568.477,-251.034"/>
<polygon fill="midnightblue" stroke="midnightblue" points="570.744,-248.35 561.215,-243.719 565.776,-253.281 570.744,-248.35"/>
</g>
<!-- Node15 -->
<g id="node16" class="node"><title>Node15</title>
<g id="a_node16"><a xlink:href="FeatureYAMLWrapper_8h.html" target="_top" xlink:title="pinhao/Support/FeatureYAMLWrapper.h">
<polygon fill="white" stroke="black" points="361,-403.5 361,-422.5 551,-422.5 551,-403.5 361,-403.5"/>
<text text-anchor="middle" x="456" y="-410.5" font-family="Helvetica,sans-Serif" font-size="10.00">pinhao/Support/FeatureYAMLWrapper.h</text>
</a>
</g>
</g>
<!-- Node1&#45;&gt;Node15 -->
<g id="edge20" class="edge"><title>Node1&#45;&gt;Node15</title>
<path fill="none" stroke="midnightblue" d="M616.447,-464.975C580.809,-454.68 524.265,-437.31 488.611,-425.75"/>
<polygon fill="midnightblue" stroke="midnightblue" points="489.296,-422.292 478.704,-422.509 487.12,-428.945 489.296,-422.292"/>
</g>
<!-- Node21 -->
<g id="node22" class="node"><title>Node21</title>
<g id="a_node22"><a xlink:href="Iterator_8h.html" target="_top" xlink:title="pinhao/Support/Iterator.h">
<polygon fill="white" stroke="black" points="677,-280.5 677,-299.5 801,-299.5 801,-280.5 677,-280.5"/>
<text text-anchor="middle" x="739" y="-287.5" font-family="Helvetica,sans-Serif" font-size="10.00">pinhao/Support/Iterator.h</text>
</a>
</g>
</g>
<!-- Node1&#45;&gt;Node21 -->
<g id="edge38" class="edge"><title>Node1&#45;&gt;Node21</title>
<path fill="none" stroke="midnightblue" d="M653.341,-464.698C667.27,-436.452 711.038,-347.7 730.044,-309.161"/>
<polygon fill="midnightblue" stroke="midnightblue" points="733.419,-310.231 734.703,-299.714 727.141,-307.135 733.419,-310.231"/>
</g>
<!-- Node3 -->
<g id="node4" class="node"><title>Node3</title>
<g id="a_node4"><a xlink:href="Feature_8h.html" target="_top" xlink:title="This file defines the base feature class. ">
<polygon fill="white" stroke="black" points="418.5,-168.5 418.5,-187.5 549.5,-187.5 549.5,-168.5 418.5,-168.5"/>
<text text-anchor="middle" x="484" y="-175.5" font-family="Helvetica,sans-Serif" font-size="10.00">pinhao/Features/Feature.h</text>
</a>
</g>
</g>
<!-- Node2&#45;&gt;Node3 -->
<g id="edge3" class="edge"><title>Node2&#45;&gt;Node3</title>
<path fill="none" stroke="midnightblue" d="M541.075,-224.324C530.825,-216.185 515.279,-203.839 502.999,-194.087"/>
<polygon fill="midnightblue" stroke="midnightblue" points="505.132,-191.312 495.124,-187.834 500.779,-196.794 505.132,-191.312"/>
</g>
<!-- Node4 -->
<g id="node5" class="node"><title>Node4</title>
<g id="a_node5"><a xlink:href="FeatureInfo_8h.html" target="_top" xlink:title="This file defines a class that holds some informations about a feature. ">
<polygon fill="white" stroke="black" points="359.5,-112.5 359.5,-131.5 506.5,-131.5 506.5,-112.5 359.5,-112.5"/>
<text text-anchor="middle" x="433" y="-119.5" font-family="Helvetica,sans-Serif" font-size="10.00">pinhao/Features/FeatureInfo.h</text>
</a>
</g>
</g>
<!-- Node3&#45;&gt;Node4 -->
<g id="edge4" class="edge"><title>Node3&#45;&gt;Node4</title>
<path fill="none" stroke="midnightblue" d="M475.578,-168.083C468.152,-160.22 457.148,-148.569 448.188,-139.081"/>
<polygon fill="midnightblue" stroke="midnightblue" points="450.676,-136.618 441.265,-131.751 445.587,-141.424 450.676,-136.618"/>
</g>
<!-- Node7 -->
<g id="node8" class="node"><title>Node7</title>
<polygon fill="white" stroke="#bfbfbf" points="739.5,-56.5 739.5,-75.5 774.5,-75.5 774.5,-56.5 739.5,-56.5"/>
<text text-anchor="middle" x="757" y="-63.5" font-family="Helvetica,sans-Serif" font-size="10.00">map</text>
</g>
<!-- Node3&#45;&gt;Node7 -->
<g id="edge17" class="edge"><title>Node3&#45;&gt;Node7</title>
<path fill="none" stroke="midnightblue" d="M549.752,-173.121C615.573,-167.91 710.865,-156.327 738,-132 750.975,-120.368 755.295,-100.416 756.632,-85.6778"/>
<polygon fill="midnightblue" stroke="midnightblue" points="760.129,-85.8201 757.167,-75.6478 753.139,-85.447 760.129,-85.8201"/>
</g>
<!-- Node9 -->
<g id="node10" class="node"><title>Node9</title>
<polygon fill="white" stroke="#bfbfbf" points="517.5,-56.5 517.5,-75.5 566.5,-75.5 566.5,-56.5 517.5,-56.5"/>
<text text-anchor="middle" x="542" y="-63.5" font-family="Helvetica,sans-Serif" font-size="10.00">cassert</text>
</g>
<!-- Node3&#45;&gt;Node9 -->
<g id="edge18" class="edge"><title>Node3&#45;&gt;Node9</title>
<path fill="none" stroke="midnightblue" d="M490.747,-168.386C497.448,-159.577 507.743,-145.332 515,-132 523.297,-116.756 530.699,-98.4194 535.644,-85.1138"/>
<polygon fill="midnightblue" stroke="midnightblue" points="538.948,-86.2712 539.054,-75.6769 532.364,-83.8923 538.948,-86.2712"/>
</g>
<!-- Node10 -->
<g id="node11" class="node"><title>Node10</title>
<g id="a_node11"><a xlink:href="FeatureRegistry_8h.html" target="_top" xlink:title="This file defines a class that has all the registered features. ">
<polygon fill="white" stroke="black" points="562.5,-112.5 562.5,-131.5 729.5,-131.5 729.5,-112.5 562.5,-112.5"/>
<text text-anchor="middle" x="646" y="-119.5" font-family="Helvetica,sans-Serif" font-size="10.00">pinhao/Features/FeatureRegistry.h</text>
</a>
</g>
</g>
<!-- Node3&#45;&gt;Node10 -->
<g id="edge11" class="edge"><title>Node3&#45;&gt;Node10</title>
<path fill="none" stroke="midnightblue" d="M509.669,-168.444C536.923,-159.359 580.184,-144.939 610.651,-134.783"/>
<polygon fill="midnightblue" stroke="midnightblue" points="612.071,-137.999 620.451,-131.516 609.857,-131.358 612.071,-137.999"/>
</g>
<!-- Node12 -->
<g id="node13" class="node"><title>Node12</title>
<polygon fill="white" stroke="#bfbfbf" points="250.5,-112.5 250.5,-131.5 341.5,-131.5 341.5,-112.5 250.5,-112.5"/>
<text text-anchor="middle" x="296" y="-119.5" font-family="Helvetica,sans-Serif" font-size="10.00">llvm/IR/Module.h</text>
</g>
<!-- Node3&#45;&gt;Node12 -->
<g id="edge15" class="edge"><title>Node3&#45;&gt;Node12</title>
<path fill="none" stroke="midnightblue" d="M454.211,-168.444C422.171,-159.241 371.067,-144.562 335.647,-134.388"/>
<polygon fill="midnightblue" stroke="midnightblue" points="336.227,-130.913 325.65,-131.516 334.295,-137.641 336.227,-130.913"/>
</g>
<!-- Node13 -->
<g id="node14" class="node"><title>Node13</title>
<polygon fill="white" stroke="#bfbfbf" points="70.5,-112.5 70.5,-131.5 159.5,-131.5 159.5,-112.5 70.5,-112.5"/>
<text text-anchor="middle" x="115" y="-119.5" font-family="Helvetica,sans-Serif" font-size="10.00">yaml&#45;cpp/yaml.h</text>
</g>
<!-- Node3&#45;&gt;Node13 -->
<g id="edge16" class="edge"><title>Node3&#45;&gt;Node13</title>
<path fill="none" stroke="midnightblue" d="M421.182,-168.464C359.733,-160.014 263.223,-146.481 169.693,-132.077"/>
<polygon fill="midnightblue" stroke="midnightblue" points="170.193,-128.613 159.776,-130.545 169.124,-135.531 170.193,-128.613"/>
</g>
<!-- Node14 -->
<g id="node15" class="node"><title>Node14</title>
<polygon fill="white" stroke="#bfbfbf" points="178,-112.5 178,-131.5 232,-131.5 232,-112.5 178,-112.5"/>
<text text-anchor="middle" x="205" y="-119.5" font-family="Helvetica,sans-Serif" font-size="10.00">iostream</text>
</g>
<!-- Node3&#45;&gt;Node14 -->
<g id="edge19" class="edge"><title>Node3&#45;&gt;Node14</title>
<path fill="none" stroke="midnightblue" d="M432.616,-168.435C385.521,-160.371 313.64,-147.527 242.165,-132.148"/>
<polygon fill="midnightblue" stroke="midnightblue" points="242.599,-128.661 232.085,-129.962 241.115,-135.502 242.599,-128.661"/>
</g>
<!-- Node5 -->
<g id="node6" class="node"><title>Node5</title>
<g id="a_node6"><a xlink:href="Types_8h.html" target="_top" xlink:title="pinhao/Support/Types.h">
<polygon fill="white" stroke="black" points="279,-56.5 279,-75.5 399,-75.5 399,-56.5 279,-56.5"/>
<text text-anchor="middle" x="339" y="-63.5" font-family="Helvetica,sans-Serif" font-size="10.00">pinhao/Support/Types.h</text>
</a>
</g>
</g>
<!-- Node4&#45;&gt;Node5 -->
<g id="edge5" class="edge"><title>Node4&#45;&gt;Node5</title>
<path fill="none" stroke="midnightblue" d="M417.897,-112.324C403.097,-103.822 380.306,-90.7288 363.018,-80.7975"/>
<polygon fill="midnightblue" stroke="midnightblue" points="364.48,-77.6009 354.065,-75.6545 360.993,-83.6707 364.48,-77.6009"/>
</g>
<!-- Node6 -->
<g id="node7" class="node"><title>Node6</title>
<polygon fill="white" stroke="#bfbfbf" points="362.5,-0.5 362.5,-19.5 403.5,-19.5 403.5,-0.5 362.5,-0.5"/>
<text text-anchor="middle" x="383" y="-7.5" font-family="Helvetica,sans-Serif" font-size="10.00">string</text>
</g>
<!-- Node4&#45;&gt;Node6 -->
<g id="edge9" class="edge"><title>Node4&#45;&gt;Node6</title>
<path fill="none" stroke="midnightblue" d="M430.134,-112.428C425.83,-99.8418 417.213,-75.7167 408,-56 403.649,-46.6887 398.162,-36.6621 393.438,-28.4419"/>
<polygon fill="midnightblue" stroke="midnightblue" points="396.433,-26.63 388.356,-19.7729 390.394,-30.17 396.433,-26.63"/>
</g>
<!-- Node4&#45;&gt;Node7 -->
<g id="edge7" class="edge"><title>Node4&#45;&gt;Node7</title>
<path fill="none" stroke="midnightblue" d="M484.339,-112.444C553.762,-100.873 675.12,-80.6467 729.397,-71.6006"/>
<polygon fill="midnightblue" stroke="midnightblue" points="730.034,-75.0427 739.322,-69.9463 728.883,-68.138 730.034,-75.0427"/>
</g>
<!-- Node8 -->
<g id="node9" class="node"><title>Node8</title>
<polygon fill="white" stroke="#bfbfbf" points="455,-56.5 455,-75.5 499,-75.5 499,-56.5 455,-56.5"/>
<text text-anchor="middle" x="477" y="-63.5" font-family="Helvetica,sans-Serif" font-size="10.00">vector</text>
</g>
<!-- Node4&#45;&gt;Node8 -->
<g id="edge8" class="edge"><title>Node4&#45;&gt;Node8</title>
<path fill="none" stroke="midnightblue" d="M440.266,-112.083C446.545,-104.377 455.788,-93.0333 463.431,-83.6531"/>
<polygon fill="midnightblue" stroke="midnightblue" points="466.266,-85.7143 469.869,-75.7511 460.839,-81.2926 466.266,-85.7143"/>
</g>
<!-- Node4&#45;&gt;Node9 -->
<g id="edge10" class="edge"><title>Node4&#45;&gt;Node9</title>
<path fill="none" stroke="midnightblue" d="M450.513,-112.324C468.072,-103.625 495.331,-90.1202 515.531,-80.113"/>
<polygon fill="midnightblue" stroke="midnightblue" points="517.124,-83.23 524.531,-75.6545 514.016,-76.9575 517.124,-83.23"/>
</g>
<!-- Node5&#45;&gt;Node6 -->
<g id="edge6" class="edge"><title>Node5&#45;&gt;Node6</title>
<path fill="none" stroke="midnightblue" d="M346.266,-56.083C352.545,-48.3768 361.788,-37.0333 369.431,-27.6531"/>
<polygon fill="midnightblue" stroke="midnightblue" points="372.266,-29.7143 375.869,-19.7511 366.839,-25.2926 372.266,-29.7143"/>
</g>
<!-- Node10&#45;&gt;Node7 -->
<g id="edge14" class="edge"><title>Node10&#45;&gt;Node7</title>
<path fill="none" stroke="midnightblue" d="M663.834,-112.324C681.716,-103.625 709.475,-90.1202 730.046,-80.113"/>
<polygon fill="midnightblue" stroke="midnightblue" points="731.749,-83.1765 739.21,-75.6545 728.687,-76.8819 731.749,-83.1765"/>
</g>
<!-- Node10&#45;&gt;Node9 -->
<g id="edge13" class="edge"><title>Node10&#45;&gt;Node9</title>
<path fill="none" stroke="midnightblue" d="M629.291,-112.324C612.688,-103.703 586.998,-90.3643 567.78,-80.3855"/>
<polygon fill="midnightblue" stroke="midnightblue" points="569.156,-77.1565 558.668,-75.6545 565.93,-83.3689 569.156,-77.1565"/>
</g>
<!-- Node11 -->
<g id="node12" class="node"><title>Node11</title>
<polygon fill="white" stroke="#bfbfbf" points="620,-56.5 620,-75.5 672,-75.5 672,-56.5 620,-56.5"/>
<text text-anchor="middle" x="646" y="-63.5" font-family="Helvetica,sans-Serif" font-size="10.00">memory</text>
</g>
<!-- Node10&#45;&gt;Node11 -->
<g id="edge12" class="edge"><title>Node10&#45;&gt;Node11</title>
<path fill="none" stroke="midnightblue" d="M646,-112.083C646,-105.006 646,-94.8611 646,-85.9865"/>
<polygon fill="midnightblue" stroke="midnightblue" points="649.5,-85.751 646,-75.7511 642.5,-85.7511 649.5,-85.751"/>
</g>
<!-- Node15&#45;&gt;Node1 -->
<g id="edge30" class="edge"><title>Node15&#45;&gt;Node1</title>
<path fill="none" stroke="midnightblue" d="M488.498,-422.509C524.115,-432.797 580.659,-450.166 616.334,-461.732"/>
<polygon fill="midnightblue" stroke="midnightblue" points="615.656,-465.193 626.248,-464.975 617.832,-458.54 615.656,-465.193"/>
</g>
<!-- Node16 -->
<g id="node17" class="node"><title>Node16</title>
<g id="a_node17"><a xlink:href="YAMLWrapper_8h.html" target="_top" xlink:title="pinhao/Support/YAMLWrapper.h">
<polygon fill="white" stroke="black" points="37.5,-168.5 37.5,-187.5 194.5,-187.5 194.5,-168.5 37.5,-168.5"/>
<text text-anchor="middle" x="116" y="-175.5" font-family="Helvetica,sans-Serif" font-size="10.00">pinhao/Support/YAMLWrapper.h</text>
</a>
</g>
</g>
<!-- Node15&#45;&gt;Node16 -->
<g id="edge21" class="edge"><title>Node15&#45;&gt;Node16</title>
<path fill="none" stroke="midnightblue" d="M365.219,-403.467C296.092,-391.871 204.487,-364.517 154,-300 129.995,-269.324 121.02,-223.263 117.766,-197.729"/>
<polygon fill="midnightblue" stroke="midnightblue" points="121.221,-197.124 116.64,-187.571 114.263,-197.895 121.221,-197.124"/>
</g>
<!-- Node18 -->
<g id="node19" class="node"><title>Node18</title>
<g id="a_node19"><a xlink:href="YamlOptions_8h.html" target="_top" xlink:title="pinhao/Support/YamlOptions.h">
<polygon fill="white" stroke="black" points="163.5,-280.5 163.5,-299.5 312.5,-299.5 312.5,-280.5 163.5,-280.5"/>
<text text-anchor="middle" x="238" y="-287.5" font-family="Helvetica,sans-Serif" font-size="10.00">pinhao/Support/YamlOptions.h</text>
</a>
</g>
</g>
<!-- Node15&#45;&gt;Node18 -->
<g id="edge25" class="edge"><title>Node15&#45;&gt;Node18</title>
<path fill="none" stroke="midnightblue" d="M392.06,-403.448C361.348,-397.058 325.187,-386.005 297,-367 274.771,-352.012 257.224,-325.944 247.226,-308.581"/>
<polygon fill="midnightblue" stroke="midnightblue" points="250.122,-306.585 242.233,-299.513 243.99,-309.961 250.122,-306.585"/>
</g>
<!-- Node19 -->
<g id="node20" class="node"><title>Node19</title>
<g id="a_node20"><a xlink:href="VectorFeature_8h.html" target="_top" xlink:title="pinhao/Features/VectorFeature.h">
<polygon fill="white" stroke="black" points="306.5,-342 306.5,-361 465.5,-361 465.5,-342 306.5,-342"/>
<text text-anchor="middle" x="386" y="-349" font-family="Helvetica,sans-Serif" font-size="10.00">pinhao/Features/VectorFeature.h</text>
</a>
</g>
</g>
<!-- Node15&#45;&gt;Node19 -->
<g id="edge27" class="edge"><title>Node15&#45;&gt;Node19</title>
<path fill="none" stroke="midnightblue" d="M441.07,-403.475C428.254,-394.285 410.433,-379.456 398.393,-368.156"/>
<polygon fill="midnightblue" stroke="midnightblue" points="400.701,-365.517 391.114,-361.009 395.797,-370.512 400.701,-365.517"/>
</g>
<!-- Node20 -->
<g id="node21" class="node"><title>Node20</title>
<g id="a_node21"><a xlink:href="MapVectorFeature_8h.html" target="_top" xlink:title="pinhao/Features/MapVector\lFeature.h">
<polygon fill="white" stroke="black" points="483.5,-336.5 483.5,-366.5 620.5,-366.5 620.5,-336.5 483.5,-336.5"/>
<text text-anchor="start" x="491.5" y="-354.5" font-family="Helvetica,sans-Serif" font-size="10.00">pinhao/Features/MapVector</text>
<text text-anchor="middle" x="552" y="-343.5" font-family="Helvetica,sans-Serif" font-size="10.00">Feature.h</text>
</a>
</g>
</g>
<!-- Node15&#45;&gt;Node20 -->
<g id="edge31" class="edge"><title>Node15&#45;&gt;Node20</title>
<path fill="none" stroke="midnightblue" d="M464.854,-403.475C476.413,-395.191 496.689,-382.325 514.848,-371.591"/>
<polygon fill="midnightblue" stroke="midnightblue" points="516.667,-374.582 523.545,-366.523 513.143,-368.534 516.667,-374.582"/>
</g>
<!-- Node16&#45;&gt;Node13 -->
<g id="edge22" class="edge"><title>Node16&#45;&gt;Node13</title>
<path fill="none" stroke="midnightblue" d="M115.835,-168.083C115.704,-161.006 115.516,-150.861 115.352,-141.986"/>
<polygon fill="midnightblue" stroke="midnightblue" points="118.847,-141.685 115.162,-131.751 111.848,-141.814 118.847,-141.685"/>
</g>
<!-- Node16&#45;&gt;Node14 -->
<g id="edge23" class="edge"><title>Node16&#45;&gt;Node14</title>
<path fill="none" stroke="midnightblue" d="M130.299,-168.324C144.183,-159.9 165.492,-146.971 181.804,-137.074"/>
<polygon fill="midnightblue" stroke="midnightblue" points="184.002,-139.834 190.736,-131.655 180.371,-133.85 184.002,-139.834"/>
</g>
<!-- Node17 -->
<g id="node18" class="node"><title>Node17</title>
<polygon fill="white" stroke="#bfbfbf" points="0,-112.5 0,-131.5 52,-131.5 52,-112.5 0,-112.5"/>
<text text-anchor="middle" x="26" y="-119.5" font-family="Helvetica,sans-Serif" font-size="10.00">ostream</text>
</g>
<!-- Node16&#45;&gt;Node17 -->
<g id="edge24" class="edge"><title>Node16&#45;&gt;Node17</title>
<path fill="none" stroke="midnightblue" d="M101.54,-168.324C87.5004,-159.9 65.9515,-146.971 49.4569,-137.074"/>
<polygon fill="midnightblue" stroke="midnightblue" points="50.7999,-133.798 40.4242,-131.655 47.1984,-139.801 50.7999,-133.798"/>
</g>
<!-- Node18&#45;&gt;Node13 -->
<g id="edge26" class="edge"><title>Node18&#45;&gt;Node13</title>
<path fill="none" stroke="midnightblue" d="M237.769,-280.31C236.759,-258.816 231.391,-202.411 203,-168 190.585,-152.952 171.841,-142.395 154.839,-135.307"/>
<polygon fill="midnightblue" stroke="midnightblue" points="155.679,-131.879 145.09,-131.528 153.149,-138.406 155.679,-131.879"/>
</g>
<!-- Node19&#45;&gt;Node2 -->
<g id="edge28" class="edge"><title>Node19&#45;&gt;Node2</title>
<path fill="none" stroke="midnightblue" d="M398.477,-341.819C426.717,-322.17 495.792,-274.109 530.848,-249.717"/>
<polygon fill="midnightblue" stroke="midnightblue" points="533.169,-252.366 539.378,-243.782 529.171,-246.62 533.169,-252.366"/>
</g>
<!-- Node19&#45;&gt;Node15 -->
<g id="edge29" class="edge"><title>Node19&#45;&gt;Node15</title>
<path fill="none" stroke="midnightblue" d="M400.908,-361.009C413.718,-370.193 431.539,-385.02 443.586,-396.325"/>
<polygon fill="midnightblue" stroke="midnightblue" points="441.283,-398.968 450.871,-403.475 446.186,-393.972 441.283,-398.968"/>
</g>
<!-- Node20&#45;&gt;Node2 -->
<g id="edge32" class="edge"><title>Node20&#45;&gt;Node2</title>
<path fill="none" stroke="midnightblue" d="M552,-336.337C552,-315.622 552,-277.016 552,-253.899"/>
<polygon fill="midnightblue" stroke="midnightblue" points="555.5,-253.669 552,-243.669 548.5,-253.669 555.5,-253.669"/>
</g>
<!-- Node20&#45;&gt;Node15 -->
<g id="edge33" class="edge"><title>Node20&#45;&gt;Node15</title>
<path fill="none" stroke="midnightblue" d="M535.205,-366.523C520.844,-376.199 500.181,-388.991 483.468,-398.542"/>
<polygon fill="midnightblue" stroke="midnightblue" points="481.672,-395.537 474.655,-403.475 485.091,-401.645 481.672,-395.537"/>
</g>
<!-- Node20&#45;&gt;Node21 -->
<g id="edge34" class="edge"><title>Node20&#45;&gt;Node21</title>
<path fill="none" stroke="midnightblue" d="M596.316,-336.399C628.629,-326.118 671.898,-312.351 702.286,-302.682"/>
<polygon fill="midnightblue" stroke="midnightblue" points="703.595,-305.938 712.063,-299.571 701.472,-299.268 703.595,-305.938"/>
</g>
<!-- Node21&#45;&gt;Node2 -->
<g id="edge35" class="edge"><title>Node21&#45;&gt;Node2</title>
<path fill="none" stroke="midnightblue" d="M709.369,-280.444C677.5,-271.241 626.667,-256.562 591.436,-246.388"/>
<polygon fill="midnightblue" stroke="midnightblue" points="592.071,-242.928 581.492,-243.516 590.128,-249.653 592.071,-242.928"/>
</g>
<!-- Node21&#45;&gt;Node7 -->
<g id="edge37" class="edge"><title>Node21&#45;&gt;Node7</title>
<path fill="none" stroke="midnightblue" d="M740.522,-280.185C744.545,-256.38 755.399,-188.764 759,-132 759.563,-123.129 759.197,-120.887 759,-112 758.809,-103.391 758.412,-93.8632 758.022,-85.799"/>
<polygon fill="midnightblue" stroke="midnightblue" points="761.508,-85.4294 757.497,-75.623 754.517,-85.79 761.508,-85.4294"/>
</g>
<!-- Node22 -->
<g id="node23" class="node"><title>Node22</title>
<polygon fill="white" stroke="#bfbfbf" points="773.5,-224.5 773.5,-243.5 820.5,-243.5 820.5,-224.5 773.5,-224.5"/>
<text text-anchor="middle" x="797" y="-231.5" font-family="Helvetica,sans-Serif" font-size="10.00">iterator</text>
</g>
<!-- Node21&#45;&gt;Node22 -->
<g id="edge36" class="edge"><title>Node21&#45;&gt;Node22</title>
<path fill="none" stroke="midnightblue" d="M748.319,-280.324C756.893,-272.341 769.812,-260.313 780.188,-250.653"/>
<polygon fill="midnightblue" stroke="midnightblue" points="782.578,-253.21 787.512,-243.834 777.808,-248.086 782.578,-253.21"/>
</g>
<!-- Node23&#45;&gt;Node7 -->
<g id="edge42" class="edge"><title>Node23&#45;&gt;Node7</title>
<path fill="none" stroke="midnightblue" d="M912.609,-459.37C897.079,-450.892 879.289,-438.687 868,-423 849.045,-396.66 849,-384.951 849,-352.5 849,-352.5 849,-352.5 849,-177 849,-134.502 808.094,-99.77 780.834,-81.3436"/>
<polygon fill="midnightblue" stroke="midnightblue" points="782.485,-78.2424 772.192,-75.732 778.673,-84.1133 782.485,-78.2424"/>
</g>
<!-- Node23&#45;&gt;Node24 -->
<g id="edge40" class="edge"><title>Node23&#45;&gt;Node24</title>
<path fill="none" stroke="midnightblue" d="M982.155,-459.399C1009.53,-449.283 1046.04,-435.791 1072.13,-426.149"/>
<polygon fill="midnightblue" stroke="midnightblue" points="1073.41,-429.407 1081.57,-422.658 1070.98,-422.841 1073.41,-429.407"/>
</g>
<!-- Node25 -->
<g id="node26" class="node"><title>Node25</title>
<polygon fill="white" stroke="#bfbfbf" points="877,-403.5 877,-422.5 1011,-422.5 1011,-403.5 877,-403.5"/>
<text text-anchor="middle" x="944" y="-410.5" font-family="Helvetica,sans-Serif" font-size="10.00">sprof/StaticFunctionCost.h</text>
</g>
<!-- Node23&#45;&gt;Node25 -->
<g id="edge41" class="edge"><title>Node23&#45;&gt;Node25</title>
<path fill="none" stroke="midnightblue" d="M944,-459.399C944,-451.466 944,-441.458 944,-432.858"/>
<polygon fill="midnightblue" stroke="midnightblue" points="947.5,-432.658 944,-422.658 940.5,-432.658 947.5,-432.658"/>
</g>
</g>
</svg>
        <g id="navigator" transform="translate(0 0)" fill="#404254">
                <rect fill="#f2f5e9" fill-opacity="0.5" stroke="#606060" stroke-width=".5" x="0" y="0" width="60" height="60"/>
                <use id="zoomplus" xlink:href="#zoomPlus" x="17" y="9" onmousedown="handleZoom(evt,'in')"/>
                <use id="zoomminus" xlink:href="#zoomMin" x="42" y="9" onmousedown="handleZoom(evt,'out')"/>
                <use id="reset" xlink:href="#resetDef" x="30" y="36" onmousedown="handleReset()"/>
                <g id="arrowUp" xlink:href="#dirArrow" transform="translate(30 24)" onmousedown="handlePan(0,-1)">
                  <use xlink:href="#rim" fill="#404040">
                        <set attributeName="fill" to="#808080" begin="arrowUp.mouseover" end="arrowUp.mouseout"/>
                  </use>
                  <path fill="none" stroke="white" stroke-width="1.5" d="M0,-3.0v7 M-2.5,-0.5L0,-3.0L2.5,-0.5"/>
                </g>
                <g id="arrowRight" xlink:href="#dirArrow" transform="rotate(90) translate(36 -43)" onmousedown="handlePan(1,0)">
                  <use xlink:href="#rim" fill="#404040">
                        <set attributeName="fill" to="#808080" begin="arrowRight.mouseover" end="arrowRight.mouseout"/>
                  </use>
                  <path fill="none" stroke="white" stroke-width="1.5" d="M0,-3.0v7 M-2.5,-0.5L0,-3.0L2.5,-0.5"/>
                </g>
                <g id="arrowDown" xlink:href="#dirArrow" transform="rotate(180) translate(-30 -48)" onmousedown="handlePan(0,1)">
                  <use xlink:href="#rim" fill="#404040">
                        <set attributeName="fill" to="#808080" begin="arrowDown.mouseover" end="arrowDown.mouseout"/>
                  </use>
                  <path fill="none" stroke="white" stroke-width="1.5" d="M0,-3.0v7 M-2.5,-0.5L0,-3.0L2.5,-0.5"/>
                </g>
                <g id="arrowLeft" xlink:href="#dirArrow" transform="rotate(270) translate(-36 17)" onmousedown="handlePan(-1,0)">
                  <use xlink:href="#rim" fill="#404040">
                        <set attributeName="fill" to="#808080" begin="arrowLeft.mouseover" end="arrowLeft.mouseout"/>
                  </use>
                  <path fill="none" stroke="white" stroke-width="1.5" d="M0,-3.0v7 M-2.5,-0.5L0,-3.0L2.5,-0.5"/>
                </g>
        </g>
        <svg viewBox="0 0 15 15" width="100%" height="30px" preserveAspectRatio="xMaxYMin meet">
         <g id="arrow_out" transform="scale(0.3 0.3)">
          <a xlink:href="FunctionStaticCostFeature_8cpp__incl_org.svg" target="_base">
           <rect id="button" ry="5" rx="5" y="6" x="6" height="38" width="38"
                fill="#f2f5e9" fill-opacity="0.5" stroke="#606060" stroke-width="1.0"/>
           <path id="arrow"
             d="M 11.500037,31.436501 C 11.940474,20.09759 22.043105,11.32322 32.158766,21.979434 L 37.068811,17.246167 C 37.068811,17.246167 37.088388,32 37.088388,32 L 22.160133,31.978069 C 22.160133,31.978069 26.997745,27.140456 26.997745,27.140456 C 18.528582,18.264221 13.291696,25.230495 11.500037,31.436501 z"
             style="fill:#404040;"/>
          </a>
         </g>
        </svg>
</svg>
