<?xml version="1.0" encoding="UTF-8" standalone="no"?>
<!DOCTYPE svg PUBLIC "-//W3C//DTD SVG 1.1//EN"
 "http://www.w3.org/Graphics/SVG/1.1/DTD/svg11.dtd">
<!-- Generated by graphviz version 2.38.0 (20140413.2041)
 -->
<!-- Title: /home/yukiosir/workspace/CompilerProject/Software/pinhao/lib/FeaturesImpl/FunctionsGeneFeature.cpp Pages: 1 -->
<!--zoomable 576 -->
<svg id="main" version="1.1" xmlns="http://www.w3.org/2000/svg" xmlns:xlink="http://www.w3.org/1999/xlink" xml:space="preserve" onload="init(evt)">
<style type="text/css"><![CDATA[
.edge:hover path { stroke: red; }
.edge:hover polygon { stroke: red; fill: red; }
]]></style>
<script type="text/javascript"><![CDATA[
var edges = document.getElementsByTagName('g');
if (edges && edges.length) {
  for (var i=0;i<edges.length;i++) {
    if (edges[i].id.substr(0,4)=='edge') {
      edges[i].setAttribute('class','edge');
    }
  }
}
]]></script>
        <defs>
                <circle id="rim" cx="0" cy="0" r="7"/>
                <circle id="rim2" cx="0" cy="0" r="3.5"/>
                <g id="zoomPlus">
                        <use xlink:href="#rim" fill="#404040">
                                <set attributeName="fill" to="#808080" begin="zoomplus.mouseover" end="zoomplus.mouseout"/>
                        </use>
                        <path d="M-4,0h8M0,-4v8" fill="none" stroke="white" stroke-width="1.5" pointer-events="none"/>
                </g>
                <g id="zoomMin">
                        <use xlink:href="#rim" fill="#404040">
                                <set attributeName="fill" to="#808080" begin="zoomminus.mouseover" end="zoomminus.mouseout"/>
                        </use>
                        <path d="M-4,0h8" fill="none" stroke="white" stroke-width="1.5" pointer-events="none"/>
                </g>
                <g id="dirArrow">
                        <path fill="none" stroke="white" stroke-width="1.5" d="M0,-3.0v7 M-2.5,-0.5L0,-3.0L2.5,-0.5"/>
                </g>
               <g id="resetDef">
                       <use xlink:href="#rim2" fill="#404040">
                               <set attributeName="fill" to="#808080" begin="reset.mouseover" end="reset.mouseout"/>
                       </use>
               </g>
        </defs>

<script type="text/javascript">
var viewWidth = 885;
var viewHeight = 576;
var sectionId = 'dynsection-0';
</script>
<script xlink:href="svgpan.js"/>
<svg id="graph" class="graph">
<g id="viewport">
<title>/home/yukiosir/workspace/CompilerProject/Software/pinhao/lib/FeaturesImpl/FunctionsGeneFeature.cpp</title>
<polygon fill="white" stroke="none" points="-4,4 -4,-572 881,-572 881,4 -4,4"/>
<!-- Node0 -->
<g id="node1" class="node"><title>Node0</title>
<polygon fill="#bfbfbf" stroke="black" points="464,-515.5 464,-567.5 601,-567.5 601,-515.5 464,-515.5"/>
<text text-anchor="start" x="472" y="-555.5" font-family="Helvetica,sans-Serif" font-size="10.00">/home/yukiosir/workspace</text>
<text text-anchor="start" x="472" y="-544.5" font-family="Helvetica,sans-Serif" font-size="10.00">/CompilerProject/Software</text>
<text text-anchor="start" x="472" y="-533.5" font-family="Helvetica,sans-Serif" font-size="10.00">/pinhao/lib/FeaturesImpl</text>
<text text-anchor="middle" x="532.5" y="-522.5" font-family="Helvetica,sans-Serif" font-size="10.00">/FunctionsGeneFeature.cpp</text>
</g>
<!-- Node1 -->
<g id="node2" class="node"><title>Node1</title>
<g id="a_node2"><a xlink:href="MapFeature_8h.html" target="_top" xlink:title="pinhao/Features/MapFeature.h">
<polygon fill="white" stroke="black" points="220,-459.5 220,-478.5 369,-478.5 369,-459.5 220,-459.5"/>
<text text-anchor="middle" x="294.5" y="-466.5" font-family="Helvetica,sans-Serif" font-size="10.00">pinhao/Features/MapFeature.h</text>
</a>
</g>
</g>
<!-- Node0&#45;&gt;Node1 -->
<g id="edge1" class="edge"><title>Node0&#45;&gt;Node1</title>
<path fill="none" stroke="midnightblue" d="M463.98,-520.203C421.484,-507.615 368.447,-491.904 333.133,-481.444"/>
<polygon fill="midnightblue" stroke="midnightblue" points="333.804,-477.992 323.221,-478.508 331.815,-484.704 333.804,-477.992"/>
</g>
<!-- Node23 -->
<g id="node24" class="node"><title>Node23</title>
<g id="a_node24"><a xlink:href="InitializationRoutines_8h.html" target="_top" xlink:title="pinhao/InitializationRoutines.h">
<polygon fill="white" stroke="black" points="631,-403.5 631,-422.5 778,-422.5 778,-403.5 631,-403.5"/>
<text text-anchor="middle" x="704.5" y="-410.5" font-family="Helvetica,sans-Serif" font-size="10.00">pinhao/InitializationRoutines.h</text>
</a>
</g>
</g>
<!-- Node0&#45;&gt;Node23 -->
<g id="edge39" class="edge"><title>Node0&#45;&gt;Node23</title>
<path fill="none" stroke="midnightblue" d="M532.02,-515.331C533.037,-497.433 537.334,-473.998 551.5,-459 569.627,-439.809 595.474,-428.671 620.776,-422.249"/>
<polygon fill="midnightblue" stroke="midnightblue" points="621.848,-425.594 630.804,-419.934 620.273,-418.774 621.848,-425.594"/>
</g>
<!-- Node24 -->
<g id="node25" class="node"><title>Node24</title>
<polygon fill="white" stroke="#bfbfbf" points="561,-459.5 561,-478.5 666,-478.5 666,-459.5 561,-459.5"/>
<text text-anchor="middle" x="613.5" y="-466.5" font-family="Helvetica,sans-Serif" font-size="10.00">llvm/IR/Instruction.h</text>
</g>
<!-- Node0&#45;&gt;Node24 -->
<g id="edge41" class="edge"><title>Node0&#45;&gt;Node24</title>
<path fill="none" stroke="midnightblue" d="M561.286,-515.446C572.796,-505.428 585.687,-494.208 595.781,-485.422"/>
<polygon fill="midnightblue" stroke="midnightblue" points="598.264,-487.901 603.509,-478.695 593.669,-482.621 598.264,-487.901"/>
</g>
<!-- Node2 -->
<g id="node3" class="node"><title>Node2</title>
<g id="a_node3"><a xlink:href="Features_8h.html" target="_top" xlink:title="This file implements some basic feature classes that extends the base class Feature. ">
<polygon fill="white" stroke="black" points="392.5,-224.5 392.5,-243.5 528.5,-243.5 528.5,-224.5 392.5,-224.5"/>
<text text-anchor="middle" x="460.5" y="-231.5" font-family="Helvetica,sans-Serif" font-size="10.00">pinhao/Features/Features.h</text>
</a>
</g>
</g>
<!-- Node1&#45;&gt;Node2 -->
<g id="edge2" class="edge"><title>Node1&#45;&gt;Node2</title>
<path fill="none" stroke="midnightblue" d="M369.121,-460.585C428.733,-450.291 508.666,-425.708 548.5,-367 577.317,-324.529 517.553,-273.946 482.898,-249.565"/>
<polygon fill="midnightblue" stroke="midnightblue" points="484.521,-246.435 474.29,-243.681 480.571,-252.214 484.521,-246.435"/>
</g>
<!-- Node15 -->
<g id="node16" class="node"><title>Node15</title>
<g id="a_node16"><a xlink:href="FeatureYAMLWrapper_8h.html" target="_top" xlink:title="pinhao/Support/FeatureYAMLWrapper.h">
<polygon fill="white" stroke="black" points="199.5,-403.5 199.5,-422.5 389.5,-422.5 389.5,-403.5 199.5,-403.5"/>
<text text-anchor="middle" x="294.5" y="-410.5" font-family="Helvetica,sans-Serif" font-size="10.00">pinhao/Support/FeatureYAMLWrapper.h</text>
</a>
</g>
</g>
<!-- Node1&#45;&gt;Node15 -->
<g id="edge20" class="edge"><title>Node1&#45;&gt;Node15</title>
<path fill="none" stroke="midnightblue" d="M289.334,-459.083C287.824,-451.927 287.394,-441.635 288.042,-432.691"/>
<polygon fill="midnightblue" stroke="midnightblue" points="291.515,-433.126 289.369,-422.751 284.577,-432.2 291.515,-433.126"/>
</g>
<!-- Node21 -->
<g id="node22" class="node"><title>Node21</title>
<g id="a_node22"><a xlink:href="Iterator_8h.html" target="_top" xlink:title="pinhao/Support/Iterator.h">
<polygon fill="white" stroke="black" points="232.5,-280.5 232.5,-299.5 356.5,-299.5 356.5,-280.5 232.5,-280.5"/>
<text text-anchor="middle" x="294.5" y="-287.5" font-family="Helvetica,sans-Serif" font-size="10.00">pinhao/Support/Iterator.h</text>
</a>
</g>
</g>
<!-- Node1&#45;&gt;Node21 -->
<g id="edge38" class="edge"><title>Node1&#45;&gt;Node21</title>
<path fill="none" stroke="midnightblue" d="M246.451,-459.458C225.558,-453.101 203.03,-442.074 190.5,-423 174.232,-398.236 195.925,-359.993 216.5,-336 228.552,-321.946 246.144,-311.265 261.573,-303.844"/>
<polygon fill="midnightblue" stroke="midnightblue" points="263.17,-306.962 270.831,-299.643 260.278,-300.588 263.17,-306.962"/>
</g>
<!-- Node3 -->
<g id="node4" class="node"><title>Node3</title>
<g id="a_node4"><a xlink:href="Feature_8h.html" target="_top" xlink:title="This file defines the base feature class. ">
<polygon fill="white" stroke="black" points="402,-168.5 402,-187.5 533,-187.5 533,-168.5 402,-168.5"/>
<text text-anchor="middle" x="467.5" y="-175.5" font-family="Helvetica,sans-Serif" font-size="10.00">pinhao/Features/Feature.h</text>
</a>
</g>
</g>
<!-- Node2&#45;&gt;Node3 -->
<g id="edge3" class="edge"><title>Node2&#45;&gt;Node3</title>
<path fill="none" stroke="midnightblue" d="M461.656,-224.083C462.584,-216.927 463.918,-206.635 465.077,-197.691"/>
<polygon fill="midnightblue" stroke="midnightblue" points="468.551,-198.118 466.366,-187.751 461.609,-197.218 468.551,-198.118"/>
</g>
<!-- Node4 -->
<g id="node5" class="node"><title>Node4</title>
<g id="a_node5"><a xlink:href="FeatureInfo_8h.html" target="_top" xlink:title="This file defines a class that holds some informations about a feature. ">
<polygon fill="white" stroke="black" points="621,-112.5 621,-131.5 768,-131.5 768,-112.5 621,-112.5"/>
<text text-anchor="middle" x="694.5" y="-119.5" font-family="Helvetica,sans-Serif" font-size="10.00">pinhao/Features/FeatureInfo.h</text>
</a>
</g>
</g>
<!-- Node3&#45;&gt;Node4 -->
<g id="edge4" class="edge"><title>Node3&#45;&gt;Node4</title>
<path fill="none" stroke="midnightblue" d="M503.469,-168.444C542.819,-159.083 605.987,-144.056 648.814,-133.868"/>
<polygon fill="midnightblue" stroke="midnightblue" points="649.781,-137.236 658.699,-131.516 648.161,-130.426 649.781,-137.236"/>
</g>
<!-- Node7 -->
<g id="node8" class="node"><title>Node7</title>
<polygon fill="white" stroke="#bfbfbf" points="377,-56.5 377,-75.5 412,-75.5 412,-56.5 377,-56.5"/>
<text text-anchor="middle" x="394.5" y="-63.5" font-family="Helvetica,sans-Serif" font-size="10.00">map</text>
</g>
<!-- Node3&#45;&gt;Node7 -->
<g id="edge17" class="edge"><title>Node3&#45;&gt;Node7</title>
<path fill="none" stroke="midnightblue" d="M437.619,-168.387C419.96,-161.587 399.049,-150.15 388.5,-132 380.322,-117.929 383.207,-99.1902 387.317,-85.4484"/>
<polygon fill="midnightblue" stroke="midnightblue" points="390.733,-86.2785 390.688,-75.6837 384.116,-83.9944 390.733,-86.2785"/>
</g>
<!-- Node9 -->
<g id="node10" class="node"><title>Node9</title>
<polygon fill="white" stroke="#bfbfbf" points="547,-56.5 547,-75.5 596,-75.5 596,-56.5 547,-56.5"/>
<text text-anchor="middle" x="571.5" y="-63.5" font-family="Helvetica,sans-Serif" font-size="10.00">cassert</text>
</g>
<!-- Node3&#45;&gt;Node9 -->
<g id="edge18" class="edge"><title>Node3&#45;&gt;Node9</title>
<path fill="none" stroke="midnightblue" d="M517.274,-168.45C538.328,-162.104 560.866,-151.089 573.5,-132 582.449,-118.48 580.728,-99.6733 577.492,-85.7665"/>
<polygon fill="midnightblue" stroke="midnightblue" points="580.79,-84.5611 574.748,-75.8585 574.044,-86.43 580.79,-84.5611"/>
</g>
<!-- Node10 -->
<g id="node11" class="node"><title>Node10</title>
<g id="a_node11"><a xlink:href="FeatureRegistry_8h.html" target="_top" xlink:title="This file defines a class that has all the registered features. ">
<polygon fill="white" stroke="black" points="398,-112.5 398,-131.5 565,-131.5 565,-112.5 398,-112.5"/>
<text text-anchor="middle" x="481.5" y="-119.5" font-family="Helvetica,sans-Serif" font-size="10.00">pinhao/Features/FeatureRegistry.h</text>
</a>
</g>
</g>
<!-- Node3&#45;&gt;Node10 -->
<g id="edge11" class="edge"><title>Node3&#45;&gt;Node10</title>
<path fill="none" stroke="midnightblue" d="M469.812,-168.083C471.667,-160.927 474.335,-150.635 476.654,-141.691"/>
<polygon fill="midnightblue" stroke="midnightblue" points="480.109,-142.309 479.231,-131.751 473.334,-140.553 480.109,-142.309"/>
</g>
<!-- Node12 -->
<g id="node13" class="node"><title>Node12</title>
<polygon fill="white" stroke="#bfbfbf" points="786,-112.5 786,-131.5 877,-131.5 877,-112.5 786,-112.5"/>
<text text-anchor="middle" x="831.5" y="-119.5" font-family="Helvetica,sans-Serif" font-size="10.00">llvm/IR/Module.h</text>
</g>
<!-- Node3&#45;&gt;Node12 -->
<g id="edge15" class="edge"><title>Node3&#45;&gt;Node12</title>
<path fill="none" stroke="midnightblue" d="M528.231,-168.477C588.384,-159.963 683.407,-146.318 775.804,-132.085"/>
<polygon fill="midnightblue" stroke="midnightblue" points="776.543,-135.512 785.891,-130.527 775.474,-128.594 776.543,-135.512"/>
</g>
<!-- Node13 -->
<g id="node14" class="node"><title>Node13</title>
<polygon fill="white" stroke="#bfbfbf" points="50,-112.5 50,-131.5 139,-131.5 139,-112.5 50,-112.5"/>
<text text-anchor="middle" x="94.5" y="-119.5" font-family="Helvetica,sans-Serif" font-size="10.00">yaml&#45;cpp/yaml.h</text>
</g>
<!-- Node3&#45;&gt;Node13 -->
<g id="edge16" class="edge"><title>Node3&#45;&gt;Node13</title>
<path fill="none" stroke="midnightblue" d="M403.578,-168.461C341.328,-160.037 243.76,-146.547 149.291,-132.089"/>
<polygon fill="midnightblue" stroke="midnightblue" points="149.691,-128.61 139.275,-130.551 148.628,-135.529 149.691,-128.61"/>
</g>
<!-- Node14 -->
<g id="node15" class="node"><title>Node14</title>
<polygon fill="white" stroke="#bfbfbf" points="288.5,-112.5 288.5,-131.5 342.5,-131.5 342.5,-112.5 288.5,-112.5"/>
<text text-anchor="middle" x="315.5" y="-119.5" font-family="Helvetica,sans-Serif" font-size="10.00">iostream</text>
</g>
<!-- Node3&#45;&gt;Node14 -->
<g id="edge19" class="edge"><title>Node3&#45;&gt;Node14</title>
<path fill="none" stroke="midnightblue" d="M443.415,-168.444C417.955,-159.399 377.606,-145.064 349.041,-134.916"/>
<polygon fill="midnightblue" stroke="midnightblue" points="350.067,-131.566 339.472,-131.516 347.723,-138.162 350.067,-131.566"/>
</g>
<!-- Node5 -->
<g id="node6" class="node"><title>Node5</title>
<g id="a_node6"><a xlink:href="Types_8h.html" target="_top" xlink:title="pinhao/Support/Types.h">
<polygon fill="white" stroke="black" points="613.5,-56.5 613.5,-75.5 733.5,-75.5 733.5,-56.5 613.5,-56.5"/>
<text text-anchor="middle" x="673.5" y="-63.5" font-family="Helvetica,sans-Serif" font-size="10.00">pinhao/Support/Types.h</text>
</a>
</g>
</g>
<!-- Node4&#45;&gt;Node5 -->
<g id="edge5" class="edge"><title>Node4&#45;&gt;Node5</title>
<path fill="none" stroke="midnightblue" d="M691.032,-112.083C688.188,-104.77 684.071,-94.1814 680.54,-85.1034"/>
<polygon fill="midnightblue" stroke="midnightblue" points="683.79,-83.8025 676.903,-75.7511 677.266,-86.3397 683.79,-83.8025"/>
</g>
<!-- Node6 -->
<g id="node7" class="node"><title>Node6</title>
<polygon fill="white" stroke="#bfbfbf" points="697,-0.5 697,-19.5 738,-19.5 738,-0.5 697,-0.5"/>
<text text-anchor="middle" x="717.5" y="-7.5" font-family="Helvetica,sans-Serif" font-size="10.00">string</text>
</g>
<!-- Node4&#45;&gt;Node6 -->
<g id="edge9" class="edge"><title>Node4&#45;&gt;Node6</title>
<path fill="none" stroke="midnightblue" d="M708.87,-112.33C720.38,-104.469 735.689,-91.7221 742.5,-76 749.529,-59.7747 740.368,-40.8739 731.221,-27.6501"/>
<polygon fill="midnightblue" stroke="midnightblue" points="733.9,-25.3894 725.089,-19.5048 728.307,-29.5992 733.9,-25.3894"/>
</g>
<!-- Node4&#45;&gt;Node7 -->
<g id="edge7" class="edge"><title>Node4&#45;&gt;Node7</title>
<path fill="none" stroke="midnightblue" d="M646.964,-112.444C583.569,-101.032 473.399,-81.2019 422.169,-71.9804"/>
<polygon fill="midnightblue" stroke="midnightblue" points="422.632,-68.5075 412.17,-70.1805 421.391,-75.3968 422.632,-68.5075"/>
</g>
<!-- Node8 -->
<g id="node9" class="node"><title>Node8</title>
<polygon fill="white" stroke="#bfbfbf" points="789.5,-56.5 789.5,-75.5 833.5,-75.5 833.5,-56.5 789.5,-56.5"/>
<text text-anchor="middle" x="811.5" y="-63.5" font-family="Helvetica,sans-Serif" font-size="10.00">vector</text>
</g>
<!-- Node4&#45;&gt;Node8 -->
<g id="edge8" class="edge"><title>Node4&#45;&gt;Node8</title>
<path fill="none" stroke="midnightblue" d="M713.039,-112.444C732.123,-103.636 762.075,-89.8116 783.936,-79.722"/>
<polygon fill="midnightblue" stroke="midnightblue" points="785.435,-82.8849 793.048,-75.5164 782.501,-76.5292 785.435,-82.8849"/>
</g>
<!-- Node4&#45;&gt;Node9 -->
<g id="edge10" class="edge"><title>Node4&#45;&gt;Node9</title>
<path fill="none" stroke="midnightblue" d="M675.01,-112.444C654.858,-103.596 623.177,-89.6875 600.169,-79.5865"/>
<polygon fill="midnightblue" stroke="midnightblue" points="601.462,-76.3316 590.899,-75.5164 598.648,-82.7411 601.462,-76.3316"/>
</g>
<!-- Node5&#45;&gt;Node6 -->
<g id="edge6" class="edge"><title>Node5&#45;&gt;Node6</title>
<path fill="none" stroke="midnightblue" d="M680.766,-56.083C687.045,-48.3768 696.288,-37.0333 703.931,-27.6531"/>
<polygon fill="midnightblue" stroke="midnightblue" points="706.766,-29.7143 710.369,-19.7511 701.339,-25.2926 706.766,-29.7143"/>
</g>
<!-- Node10&#45;&gt;Node7 -->
<g id="edge14" class="edge"><title>Node10&#45;&gt;Node7</title>
<path fill="none" stroke="midnightblue" d="M467.522,-112.324C453.95,-103.9 433.12,-90.9709 417.175,-81.0741"/>
<polygon fill="midnightblue" stroke="midnightblue" points="418.786,-77.9544 408.443,-75.6545 415.094,-83.9019 418.786,-77.9544"/>
</g>
<!-- Node10&#45;&gt;Node9 -->
<g id="edge13" class="edge"><title>Node10&#45;&gt;Node9</title>
<path fill="none" stroke="midnightblue" d="M495.96,-112.324C510,-103.9 531.548,-90.9709 548.043,-81.0741"/>
<polygon fill="midnightblue" stroke="midnightblue" points="550.302,-83.8007 557.076,-75.6545 546.7,-77.7983 550.302,-83.8007"/>
</g>
<!-- Node11 -->
<g id="node12" class="node"><title>Node11</title>
<polygon fill="white" stroke="#bfbfbf" points="455.5,-56.5 455.5,-75.5 507.5,-75.5 507.5,-56.5 455.5,-56.5"/>
<text text-anchor="middle" x="481.5" y="-63.5" font-family="Helvetica,sans-Serif" font-size="10.00">memory</text>
</g>
<!-- Node10&#45;&gt;Node11 -->
<g id="edge12" class="edge"><title>Node10&#45;&gt;Node11</title>
<path fill="none" stroke="midnightblue" d="M481.5,-112.083C481.5,-105.006 481.5,-94.8611 481.5,-85.9865"/>
<polygon fill="midnightblue" stroke="midnightblue" points="485,-85.751 481.5,-75.7511 478,-85.7511 485,-85.751"/>
</g>
<!-- Node15&#45;&gt;Node1 -->
<g id="edge30" class="edge"><title>Node15&#45;&gt;Node1</title>
<path fill="none" stroke="midnightblue" d="M299.631,-422.751C301.157,-429.858 301.604,-440.136 300.972,-449.101"/>
<polygon fill="midnightblue" stroke="midnightblue" points="297.493,-448.713 299.666,-459.083 304.434,-449.622 297.493,-448.713"/>
</g>
<!-- Node16 -->
<g id="node17" class="node"><title>Node16</title>
<g id="a_node17"><a xlink:href="YAMLWrapper_8h.html" target="_top" xlink:title="pinhao/Support/YAMLWrapper.h">
<polygon fill="white" stroke="black" points="82,-168.5 82,-187.5 239,-187.5 239,-168.5 82,-168.5"/>
<text text-anchor="middle" x="160.5" y="-175.5" font-family="Helvetica,sans-Serif" font-size="10.00">pinhao/Support/YAMLWrapper.h</text>
</a>
</g>
</g>
<!-- Node15&#45;&gt;Node16 -->
<g id="edge21" class="edge"><title>Node15&#45;&gt;Node16</title>
<path fill="none" stroke="midnightblue" d="M269.692,-403.388C252.437,-396.193 230.163,-384.299 216.5,-367 175.549,-315.152 164.504,-233.919 161.557,-197.615"/>
<polygon fill="midnightblue" stroke="midnightblue" points="165.039,-197.235 160.857,-187.5 158.056,-197.718 165.039,-197.235"/>
</g>
<!-- Node18 -->
<g id="node19" class="node"><title>Node18</title>
<g id="a_node19"><a xlink:href="YamlOptions_8h.html" target="_top" xlink:title="pinhao/Support/YamlOptions.h">
<polygon fill="white" stroke="black" points="0,-280.5 0,-299.5 149,-299.5 149,-280.5 0,-280.5"/>
<text text-anchor="middle" x="74.5" y="-287.5" font-family="Helvetica,sans-Serif" font-size="10.00">pinhao/Support/YamlOptions.h</text>
</a>
</g>
</g>
<!-- Node15&#45;&gt;Node18 -->
<g id="edge25" class="edge"><title>Node15&#45;&gt;Node18</title>
<path fill="none" stroke="midnightblue" d="M268.634,-403.375C245.652,-395.281 211.466,-382.17 183.5,-367 149.965,-348.809 114.27,-322.405 93.2003,-305.991"/>
<polygon fill="midnightblue" stroke="midnightblue" points="95.1359,-303.06 85.1148,-299.62 90.8038,-308.558 95.1359,-303.06"/>
</g>
<!-- Node19 -->
<g id="node20" class="node"><title>Node19</title>
<g id="a_node20"><a xlink:href="VectorFeature_8h.html" target="_top" xlink:title="pinhao/Features/VectorFeature.h">
<polygon fill="white" stroke="black" points="381,-342 381,-361 540,-361 540,-342 381,-342"/>
<text text-anchor="middle" x="460.5" y="-349" font-family="Helvetica,sans-Serif" font-size="10.00">pinhao/Features/VectorFeature.h</text>
</a>
</g>
</g>
<!-- Node15&#45;&gt;Node19 -->
<g id="edge27" class="edge"><title>Node15&#45;&gt;Node19</title>
<path fill="none" stroke="midnightblue" d="M313.383,-403.475C339.859,-393.18 388.119,-375.81 422.215,-364.25"/>
<polygon fill="midnightblue" stroke="midnightblue" points="423.498,-367.511 431.863,-361.009 421.269,-360.876 423.498,-367.511"/>
</g>
<!-- Node20 -->
<g id="node21" class="node"><title>Node20</title>
<g id="a_node21"><a xlink:href="MapVectorFeature_8h.html" target="_top" xlink:title="pinhao/Features/MapVector\lFeature.h">
<polygon fill="white" stroke="black" points="226,-336.5 226,-366.5 363,-366.5 363,-336.5 226,-336.5"/>
<text text-anchor="start" x="234" y="-354.5" font-family="Helvetica,sans-Serif" font-size="10.00">pinhao/Features/MapVector</text>
<text text-anchor="middle" x="294.5" y="-343.5" font-family="Helvetica,sans-Serif" font-size="10.00">Feature.h</text>
</a>
</g>
</g>
<!-- Node15&#45;&gt;Node20 -->
<g id="edge31" class="edge"><title>Node15&#45;&gt;Node20</title>
<path fill="none" stroke="midnightblue" d="M289.599,-403.475C288.072,-396.471 287.491,-386.192 287.856,-376.696"/>
<polygon fill="midnightblue" stroke="midnightblue" points="291.361,-376.77 288.67,-366.523 284.383,-376.212 291.361,-376.77"/>
</g>
<!-- Node16&#45;&gt;Node13 -->
<g id="edge22" class="edge"><title>Node16&#45;&gt;Node13</title>
<path fill="none" stroke="midnightblue" d="M149.896,-168.324C140.044,-160.263 125.149,-148.077 113.285,-138.369"/>
<polygon fill="midnightblue" stroke="midnightblue" points="115.253,-135.457 105.297,-131.834 110.82,-140.875 115.253,-135.457"/>
</g>
<!-- Node16&#45;&gt;Node14 -->
<g id="edge23" class="edge"><title>Node16&#45;&gt;Node14</title>
<path fill="none" stroke="midnightblue" d="M185.06,-168.444C211.023,-159.399 252.168,-145.064 281.297,-134.916"/>
<polygon fill="midnightblue" stroke="midnightblue" points="282.763,-138.112 291.055,-131.516 280.46,-131.501 282.763,-138.112"/>
</g>
<!-- Node17 -->
<g id="node18" class="node"><title>Node17</title>
<polygon fill="white" stroke="#bfbfbf" points="157.5,-112.5 157.5,-131.5 209.5,-131.5 209.5,-112.5 157.5,-112.5"/>
<text text-anchor="middle" x="183.5" y="-119.5" font-family="Helvetica,sans-Serif" font-size="10.00">ostream</text>
</g>
<!-- Node16&#45;&gt;Node17 -->
<g id="edge24" class="edge"><title>Node16&#45;&gt;Node17</title>
<path fill="none" stroke="midnightblue" d="M164.298,-168.083C167.413,-160.77 171.923,-150.181 175.789,-141.103"/>
<polygon fill="midnightblue" stroke="midnightblue" points="179.074,-142.323 179.773,-131.751 172.634,-139.58 179.074,-142.323"/>
</g>
<!-- Node18&#45;&gt;Node13 -->
<g id="edge26" class="edge"><title>Node18&#45;&gt;Node13</title>
<path fill="none" stroke="midnightblue" d="M72.9446,-280.342C69.6428,-260.272 62.9812,-209.143 72.5,-168 74.7297,-158.363 79.3215,-148.405 83.736,-140.315"/>
<polygon fill="midnightblue" stroke="midnightblue" points="86.8506,-141.922 88.8622,-131.519 80.8028,-138.397 86.8506,-141.922"/>
</g>
<!-- Node19&#45;&gt;Node2 -->
<g id="edge28" class="edge"><title>Node19&#45;&gt;Node2</title>
<path fill="none" stroke="midnightblue" d="M460.5,-341.819C460.5,-323.257 460.5,-279.339 460.5,-253.973"/>
<polygon fill="midnightblue" stroke="midnightblue" points="464,-253.782 460.5,-243.782 457,-253.782 464,-253.782"/>
</g>
<!-- Node19&#45;&gt;Node15 -->
<g id="edge29" class="edge"><title>Node19&#45;&gt;Node15</title>
<path fill="none" stroke="midnightblue" d="M441.658,-361.009C415.204,-371.297 366.947,-388.666 332.837,-400.232"/>
<polygon fill="midnightblue" stroke="midnightblue" points="331.549,-396.973 323.184,-403.475 333.778,-403.608 331.549,-396.973"/>
</g>
<!-- Node20&#45;&gt;Node2 -->
<g id="edge32" class="edge"><title>Node20&#45;&gt;Node2</title>
<path fill="none" stroke="midnightblue" d="M314.855,-336.337C346.531,-314.297 407.312,-272.007 439.424,-249.664"/>
<polygon fill="midnightblue" stroke="midnightblue" points="441.83,-252.254 448.04,-243.669 437.832,-246.508 441.83,-252.254"/>
</g>
<!-- Node20&#45;&gt;Node15 -->
<g id="edge33" class="edge"><title>Node20&#45;&gt;Node15</title>
<path fill="none" stroke="midnightblue" d="M300.33,-366.523C301.373,-374.586 301.529,-384.813 300.799,-393.526"/>
<polygon fill="midnightblue" stroke="midnightblue" points="297.327,-393.085 299.401,-403.475 304.259,-394.06 297.327,-393.085"/>
</g>
<!-- Node20&#45;&gt;Node21 -->
<g id="edge34" class="edge"><title>Node20&#45;&gt;Node21</title>
<path fill="none" stroke="midnightblue" d="M294.5,-336.399C294.5,-328.466 294.5,-318.458 294.5,-309.858"/>
<polygon fill="midnightblue" stroke="midnightblue" points="298,-309.658 294.5,-299.658 291,-309.658 298,-309.658"/>
</g>
<!-- Node21&#45;&gt;Node2 -->
<g id="edge35" class="edge"><title>Node21&#45;&gt;Node2</title>
<path fill="none" stroke="midnightblue" d="M320.803,-280.444C348.851,-271.32 393.444,-256.813 424.684,-246.651"/>
<polygon fill="midnightblue" stroke="midnightblue" points="425.893,-249.938 434.32,-243.516 423.728,-243.282 425.893,-249.938"/>
</g>
<!-- Node21&#45;&gt;Node7 -->
<g id="edge37" class="edge"><title>Node21&#45;&gt;Node7</title>
<path fill="none" stroke="midnightblue" d="M290.238,-280.288C277.444,-252.759 242.469,-166.255 279.5,-112 298.919,-83.5483 339.262,-73.0845 366.615,-69.2368"/>
<polygon fill="midnightblue" stroke="midnightblue" points="367.228,-72.6886 376.742,-68.0277 366.398,-65.738 367.228,-72.6886"/>
</g>
<!-- Node22 -->
<g id="node23" class="node"><title>Node22</title>
<polygon fill="white" stroke="#bfbfbf" points="296,-224.5 296,-243.5 343,-243.5 343,-224.5 296,-224.5"/>
<text text-anchor="middle" x="319.5" y="-231.5" font-family="Helvetica,sans-Serif" font-size="10.00">iterator</text>
</g>
<!-- Node21&#45;&gt;Node22 -->
<g id="edge36" class="edge"><title>Node21&#45;&gt;Node22</title>
<path fill="none" stroke="midnightblue" d="M298.628,-280.083C302.014,-272.77 306.916,-262.181 311.119,-253.103"/>
<polygon fill="midnightblue" stroke="midnightblue" points="314.423,-254.296 315.449,-243.751 308.071,-251.355 314.423,-254.296"/>
</g>
<!-- Node23&#45;&gt;Node12 -->
<g id="edge40" class="edge"><title>Node23&#45;&gt;Node12</title>
<path fill="none" stroke="midnightblue" d="M713.941,-403.3C733.048,-384.691 774.5,-338.81 774.5,-291 774.5,-291 774.5,-291 774.5,-233 774.5,-196.3 799.821,-159.657 816.71,-139.297"/>
<polygon fill="midnightblue" stroke="midnightblue" points="819.454,-141.475 823.333,-131.616 814.152,-136.904 819.454,-141.475"/>
</g>
</g>
</svg>
        <g id="navigator" transform="translate(0 0)" fill="#404254">
                <rect fill="#f2f5e9" fill-opacity="0.5" stroke="#606060" stroke-width=".5" x="0" y="0" width="60" height="60"/>
                <use id="zoomplus" xlink:href="#zoomPlus" x="17" y="9" onmousedown="handleZoom(evt,'in')"/>
                <use id="zoomminus" xlink:href="#zoomMin" x="42" y="9" onmousedown="handleZoom(evt,'out')"/>
                <use id="reset" xlink:href="#resetDef" x="30" y="36" onmousedown="handleReset()"/>
                <g id="arrowUp" xlink:href="#dirArrow" transform="translate(30 24)" onmousedown="handlePan(0,-1)">
                  <use xlink:href="#rim" fill="#404040">
                        <set attributeName="fill" to="#808080" begin="arrowUp.mouseover" end="arrowUp.mouseout"/>
                  </use>
                  <path fill="none" stroke="white" stroke-width="1.5" d="M0,-3.0v7 M-2.5,-0.5L0,-3.0L2.5,-0.5"/>
                </g>
                <g id="arrowRight" xlink:href="#dirArrow" transform="rotate(90) translate(36 -43)" onmousedown="handlePan(1,0)">
                  <use xlink:href="#rim" fill="#404040">
                        <set attributeName="fill" to="#808080" begin="arrowRight.mouseover" end="arrowRight.mouseout"/>
                  </use>
                  <path fill="none" stroke="white" stroke-width="1.5" d="M0,-3.0v7 M-2.5,-0.5L0,-3.0L2.5,-0.5"/>
                </g>
                <g id="arrowDown" xlink:href="#dirArrow" transform="rotate(180) translate(-30 -48)" onmousedown="handlePan(0,1)">
                  <use xlink:href="#rim" fill="#404040">
                        <set attributeName="fill" to="#808080" begin="arrowDown.mouseover" end="arrowDown.mouseout"/>
                  </use>
                  <path fill="none" stroke="white" stroke-width="1.5" d="M0,-3.0v7 M-2.5,-0.5L0,-3.0L2.5,-0.5"/>
                </g>
                <g id="arrowLeft" xlink:href="#dirArrow" transform="rotate(270) translate(-36 17)" onmousedown="handlePan(-1,0)">
                  <use xlink:href="#rim" fill="#404040">
                        <set attributeName="fill" to="#808080" begin="arrowLeft.mouseover" end="arrowLeft.mouseout"/>
                  </use>
                  <path fill="none" stroke="white" stroke-width="1.5" d="M0,-3.0v7 M-2.5,-0.5L0,-3.0L2.5,-0.5"/>
                </g>
        </g>
        <svg viewBox="0 0 15 15" width="100%" height="30px" preserveAspectRatio="xMaxYMin meet">
         <g id="arrow_out" transform="scale(0.3 0.3)">
          <a xlink:href="FunctionsGeneFeature_8cpp__incl_org.svg" target="_base">
           <rect id="button" ry="5" rx="5" y="6" x="6" height="38" width="38"
                fill="#f2f5e9" fill-opacity="0.5" stroke="#606060" stroke-width="1.0"/>
           <path id="arrow"
             d="M 11.500037,31.436501 C 11.940474,20.09759 22.043105,11.32322 32.158766,21.979434 L 37.068811,17.246167 C 37.068811,17.246167 37.088388,32 37.088388,32 L 22.160133,31.978069 C 22.160133,31.978069 26.997745,27.140456 26.997745,27.140456 C 18.528582,18.264221 13.291696,25.230495 11.500037,31.436501 z"
             style="fill:#404040;"/>
          </a>
         </g>
        </svg>
</svg>
