<?xml version="1.0" encoding="UTF-8" standalone="no"?>
<!DOCTYPE svg PUBLIC "-//W3C//DTD SVG 1.1//EN"
 "http://www.w3.org/Graphics/SVG/1.1/DTD/svg11.dtd">
<!-- Generated by graphviz version 2.38.0 (20140413.2041)
 -->
<!-- Title: /home/yukiosir/workspace/CompilerProject/Software/pinhao/lib/FeaturesImpl/GEOSFeatures/GEOSBasicBlockFreqFeature.cpp Pages: 1 -->
<svg width="1012pt" height="598pt"
 viewBox="0.00 0.00 1011.50 598.00" xmlns="http://www.w3.org/2000/svg" xmlns:xlink="http://www.w3.org/1999/xlink">
<g id="graph0" class="graph" transform="scale(1 1) rotate(0) translate(4 594)">
<title>/home/yukiosir/workspace/CompilerProject/Software/pinhao/lib/FeaturesImpl/GEOSFeatures/GEOSBasicBlockFreqFeature.cpp</title>
<polygon fill="white" stroke="none" points="-4,4 -4,-594 1007.5,-594 1007.5,4 -4,4"/>
<!-- Node0 -->
<g id="node1" class="node"><title>Node0</title>
<polygon fill="#bfbfbf" stroke="black" points="699,-537.5 699,-589.5 938,-589.5 938,-537.5 699,-537.5"/>
<text text-anchor="start" x="707" y="-577.5" font-family="Helvetica,sans-Serif" font-size="10.00">/home/yukiosir/workspace</text>
<text text-anchor="start" x="707" y="-566.5" font-family="Helvetica,sans-Serif" font-size="10.00">/CompilerProject/Software</text>
<text text-anchor="start" x="707" y="-555.5" font-family="Helvetica,sans-Serif" font-size="10.00">/pinhao/lib/FeaturesImpl</text>
<text text-anchor="middle" x="818.5" y="-544.5" font-family="Helvetica,sans-Serif" font-size="10.00">/GEOSFeatures/GEOSBasicBlockFreqFeature.cpp</text>
</g>
<!-- Node1 -->
<g id="node2" class="node"><title>Node1</title>
<g id="a_node2"><a xlink:href="Initialization_8h.html" target="_top" xlink:title="pinhao/Initialization.h">
<polygon fill="white" stroke="black" points="709.5,-425.5 709.5,-444.5 817.5,-444.5 817.5,-425.5 709.5,-425.5"/>
<text text-anchor="middle" x="763.5" y="-432.5" font-family="Helvetica,sans-Serif" font-size="10.00">pinhao/Initialization.h</text>
</a>
</g>
</g>
<!-- Node0&#45;&gt;Node1 -->
<g id="edge1" class="edge"><title>Node0&#45;&gt;Node1</title>
<path fill="none" stroke="midnightblue" d="M807.502,-537.205C796.78,-512.544 780.747,-475.667 771.283,-453.901"/>
<polygon fill="midnightblue" stroke="midnightblue" points="774.414,-452.325 767.217,-444.55 767.995,-455.116 774.414,-452.325"/>
</g>
<!-- Node3 -->
<g id="node4" class="node"><title>Node3</title>
<g id="a_node4"><a xlink:href="MapFeature_8h.html" target="_top" xlink:title="pinhao/Features/MapFeature.h">
<polygon fill="white" stroke="black" points="479,-481.5 479,-500.5 628,-500.5 628,-481.5 479,-481.5"/>
<text text-anchor="middle" x="553.5" y="-488.5" font-family="Helvetica,sans-Serif" font-size="10.00">pinhao/Features/MapFeature.h</text>
</a>
</g>
</g>
<!-- Node0&#45;&gt;Node3 -->
<g id="edge3" class="edge"><title>Node0&#45;&gt;Node3</title>
<path fill="none" stroke="midnightblue" d="M724.325,-537.446C680.184,-525.703 629.834,-512.308 595.296,-503.119"/>
<polygon fill="midnightblue" stroke="midnightblue" points="596.115,-499.716 585.552,-500.527 594.316,-506.48 596.115,-499.716"/>
</g>
<!-- Node24 -->
<g id="node25" class="node"><title>Node24</title>
<g id="a_node25"><a xlink:href="GEOSWrapper_8h.html" target="_top" xlink:title="pinhao/PerformanceAnalyser\l/GEOSWrapper.h">
<polygon fill="white" stroke="black" points="787.5,-179.5 787.5,-209.5 929.5,-209.5 929.5,-179.5 787.5,-179.5"/>
<text text-anchor="start" x="795.5" y="-197.5" font-family="Helvetica,sans-Serif" font-size="10.00">pinhao/PerformanceAnalyser</text>
<text text-anchor="middle" x="858.5" y="-186.5" font-family="Helvetica,sans-Serif" font-size="10.00">/GEOSWrapper.h</text>
</a>
</g>
</g>
<!-- Node0&#45;&gt;Node24 -->
<g id="edge41" class="edge"><title>Node0&#45;&gt;Node24</title>
<path fill="none" stroke="midnightblue" d="M828.801,-537.292C838.156,-512.094 850.5,-472.019 850.5,-436 850.5,-436 850.5,-436 850.5,-311 850.5,-279.419 853.513,-243.097 855.841,-219.749"/>
<polygon fill="midnightblue" stroke="midnightblue" points="859.333,-220.01 856.881,-209.703 852.37,-219.29 859.333,-220.01"/>
</g>
<!-- Node25 -->
<g id="node26" class="node"><title>Node25</title>
<polygon fill="white" stroke="#bfbfbf" points="903.5,-112.5 903.5,-142.5 1003.5,-142.5 1003.5,-112.5 903.5,-112.5"/>
<text text-anchor="start" x="911.5" y="-130.5" font-family="Helvetica,sans-Serif" font-size="10.00">geos/ProfileModule</text>
<text text-anchor="middle" x="953.5" y="-119.5" font-family="Helvetica,sans-Serif" font-size="10.00">/ProfileModule.h</text>
</g>
<!-- Node0&#45;&gt;Node25 -->
<g id="edge46" class="edge"><title>Node0&#45;&gt;Node25</title>
<path fill="none" stroke="midnightblue" d="M876.241,-537.371C914.431,-516.425 957.5,-482.497 957.5,-436 957.5,-436 957.5,-436 957.5,-255 957.5,-219.399 955.898,-178.19 954.721,-152.733"/>
<polygon fill="midnightblue" stroke="midnightblue" points="958.207,-152.356 954.234,-142.535 951.215,-152.691 958.207,-152.356"/>
</g>
<!-- Node2 -->
<g id="node3" class="node"><title>Node2</title>
<polygon fill="white" stroke="#bfbfbf" points="714,-118 714,-137 805,-137 805,-118 714,-118"/>
<text text-anchor="middle" x="759.5" y="-125" font-family="Helvetica,sans-Serif" font-size="10.00">llvm/IR/Module.h</text>
</g>
<!-- Node1&#45;&gt;Node2 -->
<g id="edge2" class="edge"><title>Node1&#45;&gt;Node2</title>
<path fill="none" stroke="midnightblue" d="M763.025,-425.495C761.966,-405.746 759.5,-355.247 759.5,-313 759.5,-313 759.5,-313 759.5,-255 759.5,-216.702 759.5,-171.883 759.5,-147.197"/>
<polygon fill="midnightblue" stroke="midnightblue" points="763,-147.089 759.5,-137.089 756,-147.089 763,-147.089"/>
</g>
<!-- Node4 -->
<g id="node5" class="node"><title>Node4</title>
<g id="a_node5"><a xlink:href="Features_8h.html" target="_top" xlink:title="This file implements some basic feature classes that extends the base class Feature. ">
<polygon fill="white" stroke="black" points="388.5,-246.5 388.5,-265.5 524.5,-265.5 524.5,-246.5 388.5,-246.5"/>
<text text-anchor="middle" x="456.5" y="-253.5" font-family="Helvetica,sans-Serif" font-size="10.00">pinhao/Features/Features.h</text>
</a>
</g>
</g>
<!-- Node3&#45;&gt;Node4 -->
<g id="edge4" class="edge"><title>Node3&#45;&gt;Node4</title>
<path fill="none" stroke="midnightblue" d="M553.644,-481.262C553.696,-459.507 551.951,-401.535 533.5,-358 519.185,-324.223 490.953,-291.689 472.94,-273.049"/>
<polygon fill="midnightblue" stroke="midnightblue" points="475.215,-270.373 465.693,-265.728 470.241,-275.297 475.215,-270.373"/>
</g>
<!-- Node16 -->
<g id="node17" class="node"><title>Node16</title>
<g id="a_node17"><a xlink:href="FeatureYAMLWrapper_8h.html" target="_top" xlink:title="pinhao/Support/FeatureYAMLWrapper.h">
<polygon fill="white" stroke="black" points="265.5,-425.5 265.5,-444.5 455.5,-444.5 455.5,-425.5 265.5,-425.5"/>
<text text-anchor="middle" x="360.5" y="-432.5" font-family="Helvetica,sans-Serif" font-size="10.00">pinhao/Support/FeatureYAMLWrapper.h</text>
</a>
</g>
</g>
<!-- Node3&#45;&gt;Node16 -->
<g id="edge22" class="edge"><title>Node3&#45;&gt;Node16</title>
<path fill="none" stroke="midnightblue" d="M517.83,-481.444C482.919,-472.241 430.277,-457.562 395.576,-447.388"/>
<polygon fill="midnightblue" stroke="midnightblue" points="396.44,-443.994 385.858,-444.516 394.457,-450.707 396.44,-443.994"/>
</g>
<!-- Node22 -->
<g id="node23" class="node"><title>Node22</title>
<g id="a_node23"><a xlink:href="Iterator_8h.html" target="_top" xlink:title="pinhao/Support/Iterator.h">
<polygon fill="white" stroke="black" points="581.5,-302.5 581.5,-321.5 705.5,-321.5 705.5,-302.5 581.5,-302.5"/>
<text text-anchor="middle" x="643.5" y="-309.5" font-family="Helvetica,sans-Serif" font-size="10.00">pinhao/Support/Iterator.h</text>
</a>
</g>
</g>
<!-- Node3&#45;&gt;Node22 -->
<g id="edge40" class="edge"><title>Node3&#45;&gt;Node22</title>
<path fill="none" stroke="midnightblue" d="M557.841,-481.463C571.706,-454.195 615.136,-368.783 634.28,-331.133"/>
<polygon fill="midnightblue" stroke="midnightblue" points="637.578,-332.369 638.991,-321.868 631.338,-329.196 637.578,-332.369"/>
</g>
<!-- Node5 -->
<g id="node6" class="node"><title>Node5</title>
<g id="a_node6"><a xlink:href="Feature_8h.html" target="_top" xlink:title="This file defines the base feature class. ">
<polygon fill="white" stroke="black" points="343,-185 343,-204 474,-204 474,-185 343,-185"/>
<text text-anchor="middle" x="408.5" y="-192" font-family="Helvetica,sans-Serif" font-size="10.00">pinhao/Features/Feature.h</text>
</a>
</g>
</g>
<!-- Node4&#45;&gt;Node5 -->
<g id="edge5" class="edge"><title>Node4&#45;&gt;Node5</title>
<path fill="none" stroke="midnightblue" d="M449.623,-246.475C442.351,-237.462 430.705,-223.025 421.659,-211.812"/>
<polygon fill="midnightblue" stroke="midnightblue" points="424.367,-209.595 415.364,-204.009 418.919,-213.99 424.367,-209.595"/>
</g>
<!-- Node5&#45;&gt;Node2 -->
<g id="edge17" class="edge"><title>Node5&#45;&gt;Node2</title>
<path fill="none" stroke="midnightblue" d="M454.748,-184.936C518.934,-173.049 634.88,-151.578 703.762,-138.822"/>
<polygon fill="midnightblue" stroke="midnightblue" points="704.79,-142.191 713.985,-136.929 703.515,-135.308 704.79,-142.191"/>
</g>
<!-- Node6 -->
<g id="node7" class="node"><title>Node6</title>
<g id="a_node7"><a xlink:href="FeatureInfo_8h.html" target="_top" xlink:title="This file defines a class that holds some informations about a feature. ">
<polygon fill="white" stroke="black" points="288,-118 288,-137 435,-137 435,-118 288,-118"/>
<text text-anchor="middle" x="361.5" y="-125" font-family="Helvetica,sans-Serif" font-size="10.00">pinhao/Features/FeatureInfo.h</text>
</a>
</g>
</g>
<!-- Node5&#45;&gt;Node6 -->
<g id="edge6" class="edge"><title>Node5&#45;&gt;Node6</title>
<path fill="none" stroke="midnightblue" d="M402.161,-184.734C394.903,-174.695 382.841,-158.014 373.735,-145.421"/>
<polygon fill="midnightblue" stroke="midnightblue" points="376.434,-143.18 367.738,-137.127 370.761,-147.282 376.434,-143.18"/>
</g>
<!-- Node9 -->
<g id="node10" class="node"><title>Node9</title>
<polygon fill="white" stroke="#bfbfbf" points="545,-56.5 545,-75.5 580,-75.5 580,-56.5 545,-56.5"/>
<text text-anchor="middle" x="562.5" y="-63.5" font-family="Helvetica,sans-Serif" font-size="10.00">map</text>
</g>
<!-- Node5&#45;&gt;Node9 -->
<g id="edge19" class="edge"><title>Node5&#45;&gt;Node9</title>
<path fill="none" stroke="midnightblue" d="M474.265,-187.348C531.928,-180.432 609.457,-166.91 628.5,-143 637.084,-132.223 634.938,-124.181 628.5,-112 620.208,-96.3095 603.714,-85.0612 589.29,-77.7346"/>
<polygon fill="midnightblue" stroke="midnightblue" points="590.757,-74.557 580.217,-73.4791 587.784,-80.8945 590.757,-74.557"/>
</g>
<!-- Node11 -->
<g id="node12" class="node"><title>Node11</title>
<polygon fill="white" stroke="#bfbfbf" points="235,-56.5 235,-75.5 284,-75.5 284,-56.5 235,-56.5"/>
<text text-anchor="middle" x="259.5" y="-63.5" font-family="Helvetica,sans-Serif" font-size="10.00">cassert</text>
</g>
<!-- Node5&#45;&gt;Node11 -->
<g id="edge20" class="edge"><title>Node5&#45;&gt;Node11</title>
<path fill="none" stroke="midnightblue" d="M355.967,-184.944C329.227,-177.97 298.276,-165.429 278.5,-143 264.614,-127.252 260.566,-102.86 259.541,-85.9759"/>
<polygon fill="midnightblue" stroke="midnightblue" points="263.03,-85.5746 259.23,-75.6849 256.033,-85.7861 263.03,-85.5746"/>
</g>
<!-- Node12 -->
<g id="node13" class="node"><title>Node12</title>
<g id="a_node13"><a xlink:href="FeatureRegistry_8h.html" target="_top" xlink:title="This file defines a class that has all the registered features. ">
<polygon fill="white" stroke="black" points="453,-118 453,-137 620,-137 620,-118 453,-118"/>
<text text-anchor="middle" x="536.5" y="-125" font-family="Helvetica,sans-Serif" font-size="10.00">pinhao/Features/FeatureRegistry.h</text>
</a>
</g>
</g>
<!-- Node5&#45;&gt;Node12 -->
<g id="edge13" class="edge"><title>Node5&#45;&gt;Node12</title>
<path fill="none" stroke="midnightblue" d="M425.497,-184.869C447.206,-173.845 484.994,-154.655 510.373,-141.768"/>
<polygon fill="midnightblue" stroke="midnightblue" points="512.101,-144.816 519.432,-137.167 508.931,-138.574 512.101,-144.816"/>
</g>
<!-- Node14 -->
<g id="node15" class="node"><title>Node14</title>
<polygon fill="white" stroke="#bfbfbf" points="0,-118 0,-137 89,-137 89,-118 0,-118"/>
<text text-anchor="middle" x="44.5" y="-125" font-family="Helvetica,sans-Serif" font-size="10.00">yaml&#45;cpp/yaml.h</text>
</g>
<!-- Node5&#45;&gt;Node14 -->
<g id="edge18" class="edge"><title>Node5&#45;&gt;Node14</title>
<path fill="none" stroke="midnightblue" d="M344.323,-184.973C281.384,-176.158 182.862,-161.149 98.5,-143 93.7669,-141.982 88.8284,-140.81 83.9441,-139.583"/>
<polygon fill="midnightblue" stroke="midnightblue" points="84.6369,-136.147 74.078,-137.019 82.876,-142.922 84.6369,-136.147"/>
</g>
<!-- Node15 -->
<g id="node16" class="node"><title>Node15</title>
<polygon fill="white" stroke="#bfbfbf" points="177.5,-118 177.5,-137 231.5,-137 231.5,-118 177.5,-118"/>
<text text-anchor="middle" x="204.5" y="-125" font-family="Helvetica,sans-Serif" font-size="10.00">iostream</text>
</g>
<!-- Node5&#45;&gt;Node15 -->
<g id="edge21" class="edge"><title>Node5&#45;&gt;Node15</title>
<path fill="none" stroke="midnightblue" d="M379.83,-184.991C347.188,-175.217 292.32,-158.525 245.5,-143 243.054,-142.189 240.532,-141.337 237.998,-140.468"/>
<polygon fill="midnightblue" stroke="midnightblue" points="238.888,-137.073 228.293,-137.094 236.589,-143.684 238.888,-137.073"/>
</g>
<!-- Node7 -->
<g id="node8" class="node"><title>Node7</title>
<g id="a_node8"><a xlink:href="Types_8h.html" target="_top" xlink:title="pinhao/Support/Types.h">
<polygon fill="white" stroke="black" points="301.5,-56.5 301.5,-75.5 421.5,-75.5 421.5,-56.5 301.5,-56.5"/>
<text text-anchor="middle" x="361.5" y="-63.5" font-family="Helvetica,sans-Serif" font-size="10.00">pinhao/Support/Types.h</text>
</a>
</g>
</g>
<!-- Node6&#45;&gt;Node7 -->
<g id="edge7" class="edge"><title>Node6&#45;&gt;Node7</title>
<path fill="none" stroke="midnightblue" d="M361.5,-117.975C361.5,-109.58 361.5,-96.4806 361.5,-85.6631"/>
<polygon fill="midnightblue" stroke="midnightblue" points="365,-85.5091 361.5,-75.5091 358,-85.5091 365,-85.5091"/>
</g>
<!-- Node8 -->
<g id="node9" class="node"><title>Node8</title>
<polygon fill="white" stroke="#bfbfbf" points="385,-0.5 385,-19.5 426,-19.5 426,-0.5 385,-0.5"/>
<text text-anchor="middle" x="405.5" y="-7.5" font-family="Helvetica,sans-Serif" font-size="10.00">string</text>
</g>
<!-- Node6&#45;&gt;Node8 -->
<g id="edge11" class="edge"><title>Node6&#45;&gt;Node8</title>
<path fill="none" stroke="midnightblue" d="M382.011,-117.909C398.468,-109.783 420.426,-95.8578 430.5,-76 438.5,-60.2308 429.2,-41.265 419.756,-27.9016"/>
<polygon fill="midnightblue" stroke="midnightblue" points="422.279,-25.4416 413.405,-19.6532 416.733,-29.712 422.279,-25.4416"/>
</g>
<!-- Node6&#45;&gt;Node9 -->
<g id="edge9" class="edge"><title>Node6&#45;&gt;Node9</title>
<path fill="none" stroke="midnightblue" d="M390.298,-117.975C428.896,-106.549 496.935,-86.4085 534.908,-75.1678"/>
<polygon fill="midnightblue" stroke="midnightblue" points="536.176,-78.4426 544.771,-72.248 534.189,-71.7305 536.176,-78.4426"/>
</g>
<!-- Node10 -->
<g id="node11" class="node"><title>Node10</title>
<polygon fill="white" stroke="#bfbfbf" points="703.5,-56.5 703.5,-75.5 747.5,-75.5 747.5,-56.5 703.5,-56.5"/>
<text text-anchor="middle" x="725.5" y="-63.5" font-family="Helvetica,sans-Serif" font-size="10.00">vector</text>
</g>
<!-- Node6&#45;&gt;Node10 -->
<g id="edge10" class="edge"><title>Node6&#45;&gt;Node10</title>
<path fill="none" stroke="midnightblue" d="M409.173,-117.931C420.423,-115.947 432.38,-113.87 443.5,-112 533.836,-96.8064 640.675,-80.1029 693.135,-71.984"/>
<polygon fill="midnightblue" stroke="midnightblue" points="693.831,-75.4179 703.179,-70.4315 692.762,-68.5 693.831,-75.4179"/>
</g>
<!-- Node6&#45;&gt;Node11 -->
<g id="edge12" class="edge"><title>Node6&#45;&gt;Node11</title>
<path fill="none" stroke="midnightblue" d="M346.886,-117.975C330.147,-108.211 302.496,-92.0807 282.781,-80.5808"/>
<polygon fill="midnightblue" stroke="midnightblue" points="284.488,-77.5246 274.087,-75.5091 280.961,-83.5711 284.488,-77.5246"/>
</g>
<!-- Node7&#45;&gt;Node8 -->
<g id="edge8" class="edge"><title>Node7&#45;&gt;Node8</title>
<path fill="none" stroke="midnightblue" d="M368.766,-56.083C375.045,-48.3768 384.288,-37.0333 391.931,-27.6531"/>
<polygon fill="midnightblue" stroke="midnightblue" points="394.766,-29.7143 398.369,-19.7511 389.339,-25.2926 394.766,-29.7143"/>
</g>
<!-- Node12&#45;&gt;Node9 -->
<g id="edge16" class="edge"><title>Node12&#45;&gt;Node9</title>
<path fill="none" stroke="midnightblue" d="M540.225,-117.975C543.971,-109.404 549.86,-95.9269 554.642,-84.983"/>
<polygon fill="midnightblue" stroke="midnightblue" points="557.985,-86.0739 558.782,-75.5091 551.57,-83.271 557.985,-86.0739"/>
</g>
<!-- Node12&#45;&gt;Node11 -->
<g id="edge15" class="edge"><title>Node12&#45;&gt;Node11</title>
<path fill="none" stroke="midnightblue" d="M490.892,-117.94C443.846,-108.914 368.138,-93.8455 294.261,-76.3225"/>
<polygon fill="midnightblue" stroke="midnightblue" points="294.863,-72.868 284.324,-73.9477 293.236,-79.6763 294.863,-72.868"/>
</g>
<!-- Node13 -->
<g id="node14" class="node"><title>Node13</title>
<polygon fill="white" stroke="#bfbfbf" points="818.5,-56.5 818.5,-75.5 870.5,-75.5 870.5,-56.5 818.5,-56.5"/>
<text text-anchor="middle" x="844.5" y="-63.5" font-family="Helvetica,sans-Serif" font-size="10.00">memory</text>
</g>
<!-- Node12&#45;&gt;Node13 -->
<g id="edge14" class="edge"><title>Node12&#45;&gt;Node13</title>
<path fill="none" stroke="midnightblue" d="M580.629,-117.975C641.856,-106.147 751.43,-84.9793 808.191,-74.0143"/>
<polygon fill="midnightblue" stroke="midnightblue" points="808.996,-77.4235 818.151,-72.0902 807.668,-70.5506 808.996,-77.4235"/>
</g>
<!-- Node16&#45;&gt;Node3 -->
<g id="edge32" class="edge"><title>Node16&#45;&gt;Node3</title>
<path fill="none" stroke="midnightblue" d="M396.018,-444.516C430.877,-453.703 483.52,-468.381 518.273,-478.568"/>
<polygon fill="midnightblue" stroke="midnightblue" points="517.425,-481.967 528.007,-481.444 519.409,-475.254 517.425,-481.967"/>
</g>
<!-- Node17 -->
<g id="node18" class="node"><title>Node17</title>
<g id="a_node18"><a xlink:href="YAMLWrapper_8h.html" target="_top" xlink:title="pinhao/Support/YAMLWrapper.h">
<polygon fill="white" stroke="black" points="95,-185 95,-204 252,-204 252,-185 95,-185"/>
<text text-anchor="middle" x="173.5" y="-192" font-family="Helvetica,sans-Serif" font-size="10.00">pinhao/Support/YAMLWrapper.h</text>
</a>
</g>
</g>
<!-- Node16&#45;&gt;Node17 -->
<g id="edge23" class="edge"><title>Node16&#45;&gt;Node17</title>
<path fill="none" stroke="midnightblue" d="M265.196,-425.491C241.305,-418.857 217.851,-407.667 201.5,-389 157.72,-339.018 164.521,-252.336 170.148,-214.304"/>
<polygon fill="midnightblue" stroke="midnightblue" points="173.647,-214.589 171.799,-204.157 166.738,-213.465 173.647,-214.589"/>
</g>
<!-- Node19 -->
<g id="node20" class="node"><title>Node19</title>
<g id="a_node20"><a xlink:href="YamlOptions_8h.html" target="_top" xlink:title="pinhao/Support/YamlOptions.h">
<polygon fill="white" stroke="black" points="0,-302.5 0,-321.5 149,-321.5 149,-302.5 0,-302.5"/>
<text text-anchor="middle" x="74.5" y="-309.5" font-family="Helvetica,sans-Serif" font-size="10.00">pinhao/Support/YamlOptions.h</text>
</a>
</g>
</g>
<!-- Node16&#45;&gt;Node19 -->
<g id="edge27" class="edge"><title>Node16&#45;&gt;Node19</title>
<path fill="none" stroke="midnightblue" d="M288.688,-425.445C250.896,-418.973 204.622,-407.849 166.5,-389 135.857,-373.849 106.496,-346.657 89.4944,-329.239"/>
<polygon fill="midnightblue" stroke="midnightblue" points="91.6206,-326.397 82.1894,-321.569 86.5518,-331.224 91.6206,-326.397"/>
</g>
<!-- Node20 -->
<g id="node21" class="node"><title>Node20</title>
<g id="a_node21"><a xlink:href="VectorFeature_8h.html" target="_top" xlink:title="pinhao/Features/VectorFeature.h">
<polygon fill="white" stroke="black" points="211,-364 211,-383 370,-383 370,-364 211,-364"/>
<text text-anchor="middle" x="290.5" y="-371" font-family="Helvetica,sans-Serif" font-size="10.00">pinhao/Features/VectorFeature.h</text>
</a>
</g>
</g>
<!-- Node16&#45;&gt;Node20 -->
<g id="edge29" class="edge"><title>Node16&#45;&gt;Node20</title>
<path fill="none" stroke="midnightblue" d="M345.57,-425.475C332.754,-416.285 314.933,-401.456 302.893,-390.156"/>
<polygon fill="midnightblue" stroke="midnightblue" points="305.201,-387.517 295.614,-383.009 300.297,-392.512 305.201,-387.517"/>
</g>
<!-- Node21 -->
<g id="node22" class="node"><title>Node21</title>
<g id="a_node22"><a xlink:href="MapVectorFeature_8h.html" target="_top" xlink:title="pinhao/Features/MapVector\lFeature.h">
<polygon fill="white" stroke="black" points="388,-358.5 388,-388.5 525,-388.5 525,-358.5 388,-358.5"/>
<text text-anchor="start" x="396" y="-376.5" font-family="Helvetica,sans-Serif" font-size="10.00">pinhao/Features/MapVector</text>
<text text-anchor="middle" x="456.5" y="-365.5" font-family="Helvetica,sans-Serif" font-size="10.00">Feature.h</text>
</a>
</g>
</g>
<!-- Node16&#45;&gt;Node21 -->
<g id="edge33" class="edge"><title>Node16&#45;&gt;Node21</title>
<path fill="none" stroke="midnightblue" d="M369.354,-425.475C380.913,-417.191 401.189,-404.325 419.348,-393.591"/>
<polygon fill="midnightblue" stroke="midnightblue" points="421.167,-396.582 428.045,-388.523 417.643,-390.534 421.167,-396.582"/>
</g>
<!-- Node17&#45;&gt;Node14 -->
<g id="edge24" class="edge"><title>Node17&#45;&gt;Node14</title>
<path fill="none" stroke="midnightblue" d="M156.37,-184.869C134.492,-173.845 96.4085,-154.655 70.8315,-141.768"/>
<polygon fill="midnightblue" stroke="midnightblue" points="72.2064,-138.541 61.7011,-137.167 69.0565,-144.793 72.2064,-138.541"/>
</g>
<!-- Node17&#45;&gt;Node15 -->
<g id="edge25" class="edge"><title>Node17&#45;&gt;Node15</title>
<path fill="none" stroke="midnightblue" d="M177.681,-184.734C182.375,-174.89 190.116,-158.66 196.078,-146.159"/>
<polygon fill="midnightblue" stroke="midnightblue" points="199.24,-147.66 200.385,-137.127 192.922,-144.647 199.24,-147.66"/>
</g>
<!-- Node18 -->
<g id="node19" class="node"><title>Node18</title>
<polygon fill="white" stroke="#bfbfbf" points="107.5,-118 107.5,-137 159.5,-137 159.5,-118 107.5,-118"/>
<text text-anchor="middle" x="133.5" y="-125" font-family="Helvetica,sans-Serif" font-size="10.00">ostream</text>
</g>
<!-- Node17&#45;&gt;Node18 -->
<g id="edge26" class="edge"><title>Node17&#45;&gt;Node18</title>
<path fill="none" stroke="midnightblue" d="M168.105,-184.734C161.988,-174.793 151.862,-158.338 144.14,-145.789"/>
<polygon fill="midnightblue" stroke="midnightblue" points="147.031,-143.81 138.809,-137.127 141.069,-147.478 147.031,-143.81"/>
</g>
<!-- Node19&#45;&gt;Node14 -->
<g id="edge28" class="edge"><title>Node19&#45;&gt;Node14</title>
<path fill="none" stroke="midnightblue" d="M73.053,-302.198C68.4297,-274.073 53.9451,-185.958 47.567,-147.157"/>
<polygon fill="midnightblue" stroke="midnightblue" points="51.0082,-146.514 45.9324,-137.214 44.1009,-147.649 51.0082,-146.514"/>
</g>
<!-- Node20&#45;&gt;Node4 -->
<g id="edge30" class="edge"><title>Node20&#45;&gt;Node4</title>
<path fill="none" stroke="midnightblue" d="M302.977,-363.819C331.217,-344.17 400.292,-296.109 435.348,-271.717"/>
<polygon fill="midnightblue" stroke="midnightblue" points="437.669,-274.366 443.878,-265.782 433.671,-268.62 437.669,-274.366"/>
</g>
<!-- Node20&#45;&gt;Node16 -->
<g id="edge31" class="edge"><title>Node20&#45;&gt;Node16</title>
<path fill="none" stroke="midnightblue" d="M305.408,-383.009C318.218,-392.193 336.039,-407.02 348.086,-418.325"/>
<polygon fill="midnightblue" stroke="midnightblue" points="345.783,-420.968 355.371,-425.475 350.686,-415.972 345.783,-420.968"/>
</g>
<!-- Node21&#45;&gt;Node4 -->
<g id="edge34" class="edge"><title>Node21&#45;&gt;Node4</title>
<path fill="none" stroke="midnightblue" d="M456.5,-358.337C456.5,-337.622 456.5,-299.016 456.5,-275.899"/>
<polygon fill="midnightblue" stroke="midnightblue" points="460,-275.669 456.5,-265.669 453,-275.669 460,-275.669"/>
</g>
<!-- Node21&#45;&gt;Node16 -->
<g id="edge35" class="edge"><title>Node21&#45;&gt;Node16</title>
<path fill="none" stroke="midnightblue" d="M439.705,-388.523C425.344,-398.199 404.681,-410.991 387.968,-420.542"/>
<polygon fill="midnightblue" stroke="midnightblue" points="386.172,-417.537 379.155,-425.475 389.591,-423.645 386.172,-417.537"/>
</g>
<!-- Node21&#45;&gt;Node22 -->
<g id="edge36" class="edge"><title>Node21&#45;&gt;Node22</title>
<path fill="none" stroke="midnightblue" d="M500.816,-358.399C533.129,-348.118 576.398,-334.351 606.786,-324.682"/>
<polygon fill="midnightblue" stroke="midnightblue" points="608.095,-327.938 616.563,-321.571 605.972,-321.268 608.095,-327.938"/>
</g>
<!-- Node22&#45;&gt;Node4 -->
<g id="edge37" class="edge"><title>Node22&#45;&gt;Node4</title>
<path fill="none" stroke="midnightblue" d="M613.869,-302.444C582,-293.241 531.167,-278.562 495.936,-268.388"/>
<polygon fill="midnightblue" stroke="midnightblue" points="496.571,-264.928 485.992,-265.516 494.628,-271.653 496.571,-264.928"/>
</g>
<!-- Node22&#45;&gt;Node9 -->
<g id="edge39" class="edge"><title>Node22&#45;&gt;Node9</title>
<path fill="none" stroke="midnightblue" d="M646.562,-302.233C656.261,-272.807 683.5,-175.828 645.5,-112 633.559,-91.9431 609.219,-80.2757 589.97,-73.8704"/>
<polygon fill="midnightblue" stroke="midnightblue" points="590.772,-70.4562 580.186,-70.9086 588.743,-77.1559 590.772,-70.4562"/>
</g>
<!-- Node23 -->
<g id="node24" class="node"><title>Node23</title>
<polygon fill="white" stroke="#bfbfbf" points="684,-246.5 684,-265.5 731,-265.5 731,-246.5 684,-246.5"/>
<text text-anchor="middle" x="707.5" y="-253.5" font-family="Helvetica,sans-Serif" font-size="10.00">iterator</text>
</g>
<!-- Node22&#45;&gt;Node23 -->
<g id="edge38" class="edge"><title>Node22&#45;&gt;Node23</title>
<path fill="none" stroke="midnightblue" d="M653.783,-302.324C663.336,-294.263 677.78,-282.077 689.284,-272.369"/>
<polygon fill="midnightblue" stroke="midnightblue" points="691.644,-274.958 697.03,-265.834 687.13,-269.608 691.644,-274.958"/>
</g>
<!-- Node24&#45;&gt;Node2 -->
<g id="edge42" class="edge"><title>Node24&#45;&gt;Node2</title>
<path fill="none" stroke="midnightblue" d="M837.018,-179.396C820.416,-168.496 797.544,-153.479 780.95,-142.584"/>
<polygon fill="midnightblue" stroke="midnightblue" points="782.737,-139.57 772.457,-137.007 778.895,-145.421 782.737,-139.57"/>
</g>
<!-- Node24&#45;&gt;Node10 -->
<g id="edge44" class="edge"><title>Node24&#45;&gt;Node10</title>
<path fill="none" stroke="midnightblue" d="M853.71,-179.489C847.074,-161.835 833.584,-131.455 813.5,-112 797.516,-96.516 775.142,-85.1713 756.954,-77.7459"/>
<polygon fill="midnightblue" stroke="midnightblue" points="758.204,-74.4767 747.616,-74.1209 755.671,-81.0024 758.204,-74.4767"/>
</g>
<!-- Node24&#45;&gt;Node13 -->
<g id="edge45" class="edge"><title>Node24&#45;&gt;Node13</title>
<path fill="none" stroke="midnightblue" d="M856.948,-179.479C854.429,-156.719 849.447,-111.702 846.609,-86.0582"/>
<polygon fill="midnightblue" stroke="midnightblue" points="850.051,-85.3428 845.473,-75.7885 843.094,-86.1129 850.051,-85.3428"/>
</g>
<!-- Node24&#45;&gt;Node25 -->
<g id="edge43" class="edge"><title>Node24&#45;&gt;Node25</title>
<path fill="none" stroke="midnightblue" d="M879.114,-179.396C892.434,-170.282 909.961,-158.29 924.655,-148.236"/>
<polygon fill="midnightblue" stroke="midnightblue" points="926.65,-151.112 932.927,-142.577 922.697,-145.335 926.65,-151.112"/>
</g>
</g>
</svg>
