<?xml version="1.0" encoding="UTF-8" standalone="no"?>
<!DOCTYPE svg PUBLIC "-//W3C//DTD SVG 1.1//EN"
 "http://www.w3.org/Graphics/SVG/1.1/DTD/svg11.dtd">
<!-- Generated by graphviz version 2.38.0 (20140413.2041)
 -->
<!-- Title: /home/yukiosir/workspace/CompilerProject/Software/pinhao/lib/PerformanceAnalyser/GEOSWrapper.cpp Pages: 1 -->
<!--zoomable 195 -->
<svg id="main" version="1.1" xmlns="http://www.w3.org/2000/svg" xmlns:xlink="http://www.w3.org/1999/xlink" xml:space="preserve" onload="init(evt)">
<style type="text/css"><![CDATA[
.edge:hover path { stroke: red; }
.edge:hover polygon { stroke: red; fill: red; }
]]></style>
<script type="text/javascript"><![CDATA[
var edges = document.getElementsByTagName('g');
if (edges && edges.length) {
  for (var i=0;i<edges.length;i++) {
    if (edges[i].id.substr(0,4)=='edge') {
      edges[i].setAttribute('class','edge');
    }
  }
}
]]></script>
        <defs>
                <circle id="rim" cx="0" cy="0" r="7"/>
                <circle id="rim2" cx="0" cy="0" r="3.5"/>
                <g id="zoomPlus">
                        <use xlink:href="#rim" fill="#404040">
                                <set attributeName="fill" to="#808080" begin="zoomplus.mouseover" end="zoomplus.mouseout"/>
                        </use>
                        <path d="M-4,0h8M0,-4v8" fill="none" stroke="white" stroke-width="1.5" pointer-events="none"/>
                </g>
                <g id="zoomMin">
                        <use xlink:href="#rim" fill="#404040">
                                <set attributeName="fill" to="#808080" begin="zoomminus.mouseover" end="zoomminus.mouseout"/>
                        </use>
                        <path d="M-4,0h8" fill="none" stroke="white" stroke-width="1.5" pointer-events="none"/>
                </g>
                <g id="dirArrow">
                        <path fill="none" stroke="white" stroke-width="1.5" d="M0,-3.0v7 M-2.5,-0.5L0,-3.0L2.5,-0.5"/>
                </g>
               <g id="resetDef">
                       <use xlink:href="#rim2" fill="#404040">
                               <set attributeName="fill" to="#808080" begin="reset.mouseover" end="reset.mouseout"/>
                       </use>
               </g>
        </defs>

<script type="text/javascript">
var viewWidth = 1506;
var viewHeight = 195;
var sectionId = 'dynsection-0';
</script>
<script xlink:href="svgpan.js"/>
<svg id="graph" class="graph">
<g id="viewport">
<title>/home/yukiosir/workspace/CompilerProject/Software/pinhao/lib/PerformanceAnalyser/GEOSWrapper.cpp</title>
<polygon fill="white" stroke="none" points="-4,4 -4,-191 1502,-191 1502,4 -4,4"/>
<!-- Node0 -->
<g id="node1" class="node"><title>Node0</title>
<polygon fill="#bfbfbf" stroke="black" points="774.5,-134.5 774.5,-186.5 932.5,-186.5 932.5,-134.5 774.5,-134.5"/>
<text text-anchor="start" x="782.5" y="-174.5" font-family="Helvetica,sans-Serif" font-size="10.00">/home/yukiosir/workspace</text>
<text text-anchor="start" x="782.5" y="-163.5" font-family="Helvetica,sans-Serif" font-size="10.00">/CompilerProject/Software</text>
<text text-anchor="start" x="782.5" y="-152.5" font-family="Helvetica,sans-Serif" font-size="10.00">/pinhao/lib/PerformanceAnalyser</text>
<text text-anchor="middle" x="853.5" y="-141.5" font-family="Helvetica,sans-Serif" font-size="10.00">/GEOSWrapper.cpp</text>
</g>
<!-- Node1 -->
<g id="node2" class="node"><title>Node1</title>
<g id="a_node2"><a xlink:href="GEOSWrapper_8h.html" target="_top" xlink:title="pinhao/PerformanceAnalyser\l/GEOSWrapper.h">
<polygon fill="white" stroke="black" points="173.5,-67.5 173.5,-97.5 315.5,-97.5 315.5,-67.5 173.5,-67.5"/>
<text text-anchor="start" x="181.5" y="-85.5" font-family="Helvetica,sans-Serif" font-size="10.00">pinhao/PerformanceAnalyser</text>
<text text-anchor="middle" x="244.5" y="-74.5" font-family="Helvetica,sans-Serif" font-size="10.00">/GEOSWrapper.h</text>
</a>
</g>
</g>
<!-- Node0&#45;&gt;Node1 -->
<g id="edge1" class="edge"><title>Node0&#45;&gt;Node1</title>
<path fill="none" stroke="midnightblue" d="M774.136,-151.785C670.654,-141.375 484.129,-121.414 325.5,-98 325.398,-97.985 325.297,-97.97 325.195,-97.9549"/>
<polygon fill="midnightblue" stroke="midnightblue" points="325.993,-94.5366 315.578,-96.4775 324.93,-101.455 325.993,-94.5366"/>
</g>
<!-- Node6 -->
<g id="node7" class="node"><title>Node6</title>
<g id="a_node7"><a xlink:href="YamlOptions_8h.html" target="_top" xlink:title="pinhao/Support/YamlOptions.h">
<polygon fill="white" stroke="black" points="334,-73 334,-92 483,-92 483,-73 334,-73"/>
<text text-anchor="middle" x="408.5" y="-80" font-family="Helvetica,sans-Serif" font-size="10.00">pinhao/Support/YamlOptions.h</text>
</a>
</g>
</g>
<!-- Node0&#45;&gt;Node6 -->
<g id="edge6" class="edge"><title>Node0&#45;&gt;Node6</title>
<path fill="none" stroke="midnightblue" d="M774.264,-146.053C701.117,-133.627 589.469,-114.629 492.5,-98 484.515,-96.6307 476.104,-95.184 467.815,-93.7556"/>
<polygon fill="midnightblue" stroke="midnightblue" points="468.249,-90.279 457.8,-92.0287 467.06,-97.1772 468.249,-90.279"/>
</g>
<!-- Node8 -->
<g id="node9" class="node"><title>Node8</title>
<polygon fill="white" stroke="#bfbfbf" points="501,-73 501,-92 620,-92 620,-73 501,-73"/>
<text text-anchor="middle" x="560.5" y="-80" font-family="Helvetica,sans-Serif" font-size="10.00">llvm/IR/LLVMContext.h</text>
</g>
<!-- Node0&#45;&gt;Node8 -->
<g id="edge8" class="edge"><title>Node0&#45;&gt;Node8</title>
<path fill="none" stroke="midnightblue" d="M774.21,-138.933C719.179,-124.659 647.994,-106.195 603.278,-94.5961"/>
<polygon fill="midnightblue" stroke="midnightblue" points="603.889,-91.1388 593.331,-92.0159 602.132,-97.9146 603.889,-91.1388"/>
</g>
<!-- Node9 -->
<g id="node10" class="node"><title>Node9</title>
<polygon fill="white" stroke="#bfbfbf" points="638.5,-73 638.5,-92 768.5,-92 768.5,-73 638.5,-73"/>
<text text-anchor="middle" x="703.5" y="-80" font-family="Helvetica,sans-Serif" font-size="10.00">llvm/Support/SourceMgr.h</text>
</g>
<!-- Node0&#45;&gt;Node9 -->
<g id="edge9" class="edge"><title>Node0&#45;&gt;Node9</title>
<path fill="none" stroke="midnightblue" d="M803.969,-134.404C779.069,-121.788 749.919,-107.019 729.45,-96.6482"/>
<polygon fill="midnightblue" stroke="midnightblue" points="730.932,-93.4755 720.43,-92.0779 727.769,-99.7197 730.932,-93.4755"/>
</g>
<!-- Node10 -->
<g id="node11" class="node"><title>Node10</title>
<polygon fill="white" stroke="#bfbfbf" points="787,-73 787,-92 920,-92 920,-73 787,-73"/>
<text text-anchor="middle" x="853.5" y="-80" font-family="Helvetica,sans-Serif" font-size="10.00">llvm/IRReader/IRReader.h</text>
</g>
<!-- Node0&#45;&gt;Node10 -->
<g id="edge10" class="edge"><title>Node0&#45;&gt;Node10</title>
<path fill="none" stroke="midnightblue" d="M853.5,-134.193C853.5,-123.765 853.5,-111.896 853.5,-102.266"/>
<polygon fill="midnightblue" stroke="midnightblue" points="857,-102.209 853.5,-92.2089 850,-102.209 857,-102.209"/>
</g>
<!-- Node11 -->
<g id="node12" class="node"><title>Node11</title>
<polygon fill="white" stroke="#bfbfbf" points="938,-73 938,-92 1015,-92 1015,-73 938,-73"/>
<text text-anchor="middle" x="976.5" y="-80" font-family="Helvetica,sans-Serif" font-size="10.00">geos/GEOS.h</text>
</g>
<!-- Node0&#45;&gt;Node11 -->
<g id="edge11" class="edge"><title>Node0&#45;&gt;Node11</title>
<path fill="none" stroke="midnightblue" d="M894.116,-134.404C914.072,-122.074 937.357,-107.686 954.071,-97.3588"/>
<polygon fill="midnightblue" stroke="midnightblue" points="955.95,-100.312 962.617,-92.0779 952.27,-94.3569 955.95,-100.312"/>
</g>
<!-- Node12 -->
<g id="node13" class="node"><title>Node12</title>
<polygon fill="white" stroke="#bfbfbf" points="1033,-67.5 1033,-97.5 1158,-97.5 1158,-67.5 1033,-67.5"/>
<text text-anchor="start" x="1041" y="-85.5" font-family="Helvetica,sans-Serif" font-size="10.00">geos/CostEstimator</text>
<text text-anchor="middle" x="1095.5" y="-74.5" font-family="Helvetica,sans-Serif" font-size="10.00">/CostEstimatorOptions.h</text>
</g>
<!-- Node0&#45;&gt;Node12 -->
<g id="edge12" class="edge"><title>Node0&#45;&gt;Node12</title>
<path fill="none" stroke="midnightblue" d="M932.74,-134.615C968.218,-123.473 1009.16,-110.616 1041.1,-100.585"/>
<polygon fill="midnightblue" stroke="midnightblue" points="1042.22,-103.902 1050.71,-97.567 1040.12,-97.224 1042.22,-103.902"/>
</g>
<!-- Node13 -->
<g id="node14" class="node"><title>Node13</title>
<polygon fill="white" stroke="#bfbfbf" points="1176.5,-73 1176.5,-92 1322.5,-92 1322.5,-73 1176.5,-73"/>
<text text-anchor="middle" x="1249.5" y="-80" font-family="Helvetica,sans-Serif" font-size="10.00">geos/Profiling/GEOSProfiler.h</text>
</g>
<!-- Node0&#45;&gt;Node13 -->
<g id="edge13" class="edge"><title>Node0&#45;&gt;Node13</title>
<path fill="none" stroke="midnightblue" d="M932.685,-144.303C1010.51,-129.367 1127.2,-106.973 1195.11,-93.9392"/>
<polygon fill="midnightblue" stroke="midnightblue" points="1196.01,-97.3304 1205.17,-92.0083 1194.69,-90.4559 1196.01,-97.3304"/>
</g>
<!-- Node14 -->
<g id="node15" class="node"><title>Node14</title>
<polygon fill="white" stroke="#bfbfbf" points="1341,-73 1341,-92 1498,-92 1498,-73 1341,-73"/>
<text text-anchor="middle" x="1419.5" y="-80" font-family="Helvetica,sans-Serif" font-size="10.00">geos/Profiling/CallCostReader.h</text>
</g>
<!-- Node0&#45;&gt;Node14 -->
<g id="edge14" class="edge"><title>Node0&#45;&gt;Node14</title>
<path fill="none" stroke="midnightblue" d="M932.699,-150.179C1027.61,-138.809 1191.39,-118.55 1331.5,-98 1340.61,-96.6634 1350.24,-95.1651 1359.66,-93.6523"/>
<polygon fill="midnightblue" stroke="midnightblue" points="1360.44,-97.0706 1369.75,-92.0122 1359.32,-90.1612 1360.44,-97.0706"/>
</g>
<!-- Node2 -->
<g id="node3" class="node"><title>Node2</title>
<polygon fill="white" stroke="#bfbfbf" points="0,-6 0,-25 91,-25 91,-6 0,-6"/>
<text text-anchor="middle" x="45.5" y="-13" font-family="Helvetica,sans-Serif" font-size="10.00">llvm/IR/Module.h</text>
</g>
<!-- Node1&#45;&gt;Node2 -->
<g id="edge2" class="edge"><title>Node1&#45;&gt;Node2</title>
<path fill="none" stroke="midnightblue" d="M201.32,-67.396C165.476,-55.6882 115.093,-39.2314 81.4227,-28.2336"/>
<polygon fill="midnightblue" stroke="midnightblue" points="82.137,-24.7849 71.5445,-25.007 79.9635,-31.439 82.137,-24.7849"/>
</g>
<!-- Node3 -->
<g id="node4" class="node"><title>Node3</title>
<polygon fill="white" stroke="#bfbfbf" points="109.5,-0.5 109.5,-30.5 209.5,-30.5 209.5,-0.5 109.5,-0.5"/>
<text text-anchor="start" x="117.5" y="-18.5" font-family="Helvetica,sans-Serif" font-size="10.00">geos/ProfileModule</text>
<text text-anchor="middle" x="159.5" y="-7.5" font-family="Helvetica,sans-Serif" font-size="10.00">/ProfileModule.h</text>
</g>
<!-- Node1&#45;&gt;Node3 -->
<g id="edge3" class="edge"><title>Node1&#45;&gt;Node3</title>
<path fill="none" stroke="midnightblue" d="M226.056,-67.396C214.361,-58.4524 199.041,-46.7375 186.048,-36.8018"/>
<polygon fill="midnightblue" stroke="midnightblue" points="187.977,-33.8708 177.908,-30.5765 183.725,-39.4313 187.977,-33.8708"/>
</g>
<!-- Node4 -->
<g id="node5" class="node"><title>Node4</title>
<polygon fill="white" stroke="#bfbfbf" points="227.5,-6 227.5,-25 271.5,-25 271.5,-6 227.5,-6"/>
<text text-anchor="middle" x="249.5" y="-13" font-family="Helvetica,sans-Serif" font-size="10.00">vector</text>
</g>
<!-- Node1&#45;&gt;Node4 -->
<g id="edge4" class="edge"><title>Node1&#45;&gt;Node4</title>
<path fill="none" stroke="midnightblue" d="M245.585,-67.396C246.311,-57.9635 247.273,-45.4484 248.062,-35.1891"/>
<polygon fill="midnightblue" stroke="midnightblue" points="251.554,-35.4335 248.831,-25.1945 244.574,-34.8966 251.554,-35.4335"/>
</g>
<!-- Node5 -->
<g id="node6" class="node"><title>Node5</title>
<polygon fill="white" stroke="#bfbfbf" points="289.5,-6 289.5,-25 341.5,-25 341.5,-6 289.5,-6"/>
<text text-anchor="middle" x="315.5" y="-13" font-family="Helvetica,sans-Serif" font-size="10.00">memory</text>
</g>
<!-- Node1&#45;&gt;Node5 -->
<g id="edge5" class="edge"><title>Node1&#45;&gt;Node5</title>
<path fill="none" stroke="midnightblue" d="M259.906,-67.396C271.305,-56.96 286.826,-42.7507 298.572,-31.9978"/>
<polygon fill="midnightblue" stroke="midnightblue" points="300.99,-34.5287 306.003,-25.1945 296.264,-29.3655 300.99,-34.5287"/>
</g>
<!-- Node7 -->
<g id="node8" class="node"><title>Node7</title>
<polygon fill="white" stroke="#bfbfbf" points="364,-6 364,-25 453,-25 453,-6 364,-6"/>
<text text-anchor="middle" x="408.5" y="-13" font-family="Helvetica,sans-Serif" font-size="10.00">yaml&#45;cpp/yaml.h</text>
</g>
<!-- Node6&#45;&gt;Node7 -->
<g id="edge7" class="edge"><title>Node6&#45;&gt;Node7</title>
<path fill="none" stroke="midnightblue" d="M408.5,-72.7338C408.5,-63.1826 408.5,-47.6183 408.5,-35.2829"/>
<polygon fill="midnightblue" stroke="midnightblue" points="412,-35.1273 408.5,-25.1273 405,-35.1273 412,-35.1273"/>
</g>
</g>
</svg>
        <g id="navigator" transform="translate(0 0)" fill="#404254">
                <rect fill="#f2f5e9" fill-opacity="0.5" stroke="#606060" stroke-width=".5" x="0" y="0" width="60" height="60"/>
                <use id="zoomplus" xlink:href="#zoomPlus" x="17" y="9" onmousedown="handleZoom(evt,'in')"/>
                <use id="zoomminus" xlink:href="#zoomMin" x="42" y="9" onmousedown="handleZoom(evt,'out')"/>
                <use id="reset" xlink:href="#resetDef" x="30" y="36" onmousedown="handleReset()"/>
                <g id="arrowUp" xlink:href="#dirArrow" transform="translate(30 24)" onmousedown="handlePan(0,-1)">
                  <use xlink:href="#rim" fill="#404040">
                        <set attributeName="fill" to="#808080" begin="arrowUp.mouseover" end="arrowUp.mouseout"/>
                  </use>
                  <path fill="none" stroke="white" stroke-width="1.5" d="M0,-3.0v7 M-2.5,-0.5L0,-3.0L2.5,-0.5"/>
                </g>
                <g id="arrowRight" xlink:href="#dirArrow" transform="rotate(90) translate(36 -43)" onmousedown="handlePan(1,0)">
                  <use xlink:href="#rim" fill="#404040">
                        <set attributeName="fill" to="#808080" begin="arrowRight.mouseover" end="arrowRight.mouseout"/>
                  </use>
                  <path fill="none" stroke="white" stroke-width="1.5" d="M0,-3.0v7 M-2.5,-0.5L0,-3.0L2.5,-0.5"/>
                </g>
                <g id="arrowDown" xlink:href="#dirArrow" transform="rotate(180) translate(-30 -48)" onmousedown="handlePan(0,1)">
                  <use xlink:href="#rim" fill="#404040">
                        <set attributeName="fill" to="#808080" begin="arrowDown.mouseover" end="arrowDown.mouseout"/>
                  </use>
                  <path fill="none" stroke="white" stroke-width="1.5" d="M0,-3.0v7 M-2.5,-0.5L0,-3.0L2.5,-0.5"/>
                </g>
                <g id="arrowLeft" xlink:href="#dirArrow" transform="rotate(270) translate(-36 17)" onmousedown="handlePan(-1,0)">
                  <use xlink:href="#rim" fill="#404040">
                        <set attributeName="fill" to="#808080" begin="arrowLeft.mouseover" end="arrowLeft.mouseout"/>
                  </use>
                  <path fill="none" stroke="white" stroke-width="1.5" d="M0,-3.0v7 M-2.5,-0.5L0,-3.0L2.5,-0.5"/>
                </g>
        </g>
        <svg viewBox="0 0 15 15" width="100%" height="30px" preserveAspectRatio="xMaxYMin meet">
         <g id="arrow_out" transform="scale(0.3 0.3)">
          <a xlink:href="GEOSWrapper_8cpp__incl_org.svg" target="_base">
           <rect id="button" ry="5" rx="5" y="6" x="6" height="38" width="38"
                fill="#f2f5e9" fill-opacity="0.5" stroke="#606060" stroke-width="1.0"/>
           <path id="arrow"
             d="M 11.500037,31.436501 C 11.940474,20.09759 22.043105,11.32322 32.158766,21.979434 L 37.068811,17.246167 C 37.068811,17.246167 37.088388,32 37.088388,32 L 22.160133,31.978069 C 22.160133,31.978069 26.997745,27.140456 26.997745,27.140456 C 18.528582,18.264221 13.291696,25.230495 11.500037,31.436501 z"
             style="fill:#404040;"/>
          </a>
         </g>
        </svg>
</svg>
