<?xml version="1.0" encoding="UTF-8" standalone="no"?>
<!DOCTYPE svg PUBLIC "-//W3C//DTD SVG 1.1//EN"
 "http://www.w3.org/Graphics/SVG/1.1/DTD/svg11.dtd">
<!-- Generated by graphviz version 2.38.0 (20140413.2041)
 -->
<!-- Title: /home/yukiosir/workspace/CompilerProject/Software/pinhao/include/pinhao/PerformanceAnalyser/GEOSWrapper.h Pages: 1 -->
<svg width="350pt" height="128pt"
 viewBox="0.00 0.00 349.50 128.00" xmlns="http://www.w3.org/2000/svg" xmlns:xlink="http://www.w3.org/1999/xlink">
<g id="graph0" class="graph" transform="scale(1 1) rotate(0) translate(4 124)">
<title>/home/yukiosir/workspace/CompilerProject/Software/pinhao/include/pinhao/PerformanceAnalyser/GEOSWrapper.h</title>
<polygon fill="white" stroke="none" points="-4,4 -4,-124 345.5,-124 345.5,4 -4,4"/>
<!-- Node0 -->
<g id="node1" class="node"><title>Node0</title>
<polygon fill="#bfbfbf" stroke="black" points="118.5,-67.5 118.5,-119.5 290.5,-119.5 290.5,-67.5 118.5,-67.5"/>
<text text-anchor="start" x="126.5" y="-107.5" font-family="Helvetica,sans-Serif" font-size="10.00">/home/yukiosir/workspace</text>
<text text-anchor="start" x="126.5" y="-96.5" font-family="Helvetica,sans-Serif" font-size="10.00">/CompilerProject/Software</text>
<text text-anchor="start" x="126.5" y="-85.5" font-family="Helvetica,sans-Serif" font-size="10.00">/pinhao/include/pinhao/Performance</text>
<text text-anchor="middle" x="204.5" y="-74.5" font-family="Helvetica,sans-Serif" font-size="10.00">Analyser/GEOSWrapper.h</text>
</g>
<!-- Node1 -->
<g id="node2" class="node"><title>Node1</title>
<polygon fill="white" stroke="#bfbfbf" points="0,-6 0,-25 91,-25 91,-6 0,-6"/>
<text text-anchor="middle" x="45.5" y="-13" font-family="Helvetica,sans-Serif" font-size="10.00">llvm/IR/Module.h</text>
</g>
<!-- Node0&#45;&gt;Node1 -->
<g id="edge1" class="edge"><title>Node0&#45;&gt;Node1</title>
<path fill="none" stroke="midnightblue" d="M151.997,-67.4041C125.483,-54.7311 94.4243,-39.8852 72.7134,-29.5077"/>
<polygon fill="midnightblue" stroke="midnightblue" points="73.9776,-26.2327 63.4459,-25.0779 70.9588,-32.5483 73.9776,-26.2327"/>
</g>
<!-- Node2 -->
<g id="node3" class="node"><title>Node2</title>
<polygon fill="white" stroke="#bfbfbf" points="109.5,-0.5 109.5,-30.5 209.5,-30.5 209.5,-0.5 109.5,-0.5"/>
<text text-anchor="start" x="117.5" y="-18.5" font-family="Helvetica,sans-Serif" font-size="10.00">geos/ProfileModule</text>
<text text-anchor="middle" x="159.5" y="-7.5" font-family="Helvetica,sans-Serif" font-size="10.00">/ProfileModule.h</text>
</g>
<!-- Node0&#45;&gt;Node2 -->
<g id="edge2" class="edge"><title>Node0&#45;&gt;Node2</title>
<path fill="none" stroke="midnightblue" d="M189.516,-67.1931C184.258,-58.3141 178.383,-48.3905 173.233,-39.6935"/>
<polygon fill="midnightblue" stroke="midnightblue" points="176.101,-37.6668 167.994,-30.8453 170.077,-41.2333 176.101,-37.6668"/>
</g>
<!-- Node3 -->
<g id="node4" class="node"><title>Node3</title>
<polygon fill="white" stroke="#bfbfbf" points="227.5,-6 227.5,-25 271.5,-25 271.5,-6 227.5,-6"/>
<text text-anchor="middle" x="249.5" y="-13" font-family="Helvetica,sans-Serif" font-size="10.00">vector</text>
</g>
<!-- Node0&#45;&gt;Node3 -->
<g id="edge3" class="edge"><title>Node0&#45;&gt;Node3</title>
<path fill="none" stroke="midnightblue" d="M219.484,-67.1931C225.927,-56.3116 233.299,-43.8612 239.125,-34.0224"/>
<polygon fill="midnightblue" stroke="midnightblue" points="242.26,-35.5969 244.343,-25.2089 236.237,-32.0304 242.26,-35.5969"/>
</g>
<!-- Node4 -->
<g id="node5" class="node"><title>Node4</title>
<polygon fill="white" stroke="#bfbfbf" points="289.5,-6 289.5,-25 341.5,-25 341.5,-6 289.5,-6"/>
<text text-anchor="middle" x="315.5" y="-13" font-family="Helvetica,sans-Serif" font-size="10.00">memory</text>
</g>
<!-- Node0&#45;&gt;Node4 -->
<g id="edge4" class="edge"><title>Node0&#45;&gt;Node4</title>
<path fill="none" stroke="midnightblue" d="M241.153,-67.4041C258.829,-55.3019 279.398,-41.2183 294.415,-30.9366"/>
<polygon fill="midnightblue" stroke="midnightblue" points="296.698,-33.6154 302.972,-25.0779 292.743,-27.8395 296.698,-33.6154"/>
</g>
</g>
</svg>
