<?xml version="1.0" encoding="UTF-8" standalone="no"?>
<!DOCTYPE svg PUBLIC "-//W3C//DTD SVG 1.1//EN"
 "http://www.w3.org/Graphics/SVG/1.1/DTD/svg11.dtd">
<!-- Generated by graphviz version 2.38.0 (20140413.2041)
 -->
<!-- Title: /home/yukiosir/workspace/CompilerProject/Software/pinhao/lib/FeaturesImpl/GEOSFeatures/GEOSFeatures.cpp Pages: 1 -->
<!--zoomable 598 -->
<svg id="main" version="1.1" xmlns="http://www.w3.org/2000/svg" xmlns:xlink="http://www.w3.org/1999/xlink" xml:space="preserve" onload="init(evt)">
<style type="text/css"><![CDATA[
.edge:hover path { stroke: red; }
.edge:hover polygon { stroke: red; fill: red; }
]]></style>
<script type="text/javascript"><![CDATA[
var edges = document.getElementsByTagName('g');
if (edges && edges.length) {
  for (var i=0;i<edges.length;i++) {
    if (edges[i].id.substr(0,4)=='edge') {
      edges[i].setAttribute('class','edge');
    }
  }
}
]]></script>
        <defs>
                <circle id="rim" cx="0" cy="0" r="7"/>
                <circle id="rim2" cx="0" cy="0" r="3.5"/>
                <g id="zoomPlus">
                        <use xlink:href="#rim" fill="#404040">
                                <set attributeName="fill" to="#808080" begin="zoomplus.mouseover" end="zoomplus.mouseout"/>
                        </use>
                        <path d="M-4,0h8M0,-4v8" fill="none" stroke="white" stroke-width="1.5" pointer-events="none"/>
                </g>
                <g id="zoomMin">
                        <use xlink:href="#rim" fill="#404040">
                                <set attributeName="fill" to="#808080" begin="zoomminus.mouseover" end="zoomminus.mouseout"/>
                        </use>
                        <path d="M-4,0h8" fill="none" stroke="white" stroke-width="1.5" pointer-events="none"/>
                </g>
                <g id="dirArrow">
                        <path fill="none" stroke="white" stroke-width="1.5" d="M0,-3.0v7 M-2.5,-0.5L0,-3.0L2.5,-0.5"/>
                </g>
               <g id="resetDef">
                       <use xlink:href="#rim2" fill="#404040">
                               <set attributeName="fill" to="#808080" begin="reset.mouseover" end="reset.mouseout"/>
                       </use>
               </g>
        </defs>

<script type="text/javascript">
var viewWidth = 1062;
var viewHeight = 598;
var sectionId = 'dynsection-0';
</script>
<script xlink:href="svgpan.js"/>
<svg id="graph" class="graph">
<g id="viewport">
<title>/home/yukiosir/workspace/CompilerProject/Software/pinhao/lib/FeaturesImpl/GEOSFeatures/GEOSFeatures.cpp</title>
<polygon fill="white" stroke="none" points="-4,4 -4,-594 1057.5,-594 1057.5,4 -4,4"/>
<!-- Node0 -->
<g id="node1" class="node"><title>Node0</title>
<polygon fill="#bfbfbf" stroke="black" points="771,-537.5 771,-589.5 946,-589.5 946,-537.5 771,-537.5"/>
<text text-anchor="start" x="779" y="-577.5" font-family="Helvetica,sans-Serif" font-size="10.00">/home/yukiosir/workspace</text>
<text text-anchor="start" x="779" y="-566.5" font-family="Helvetica,sans-Serif" font-size="10.00">/CompilerProject/Software</text>
<text text-anchor="start" x="779" y="-555.5" font-family="Helvetica,sans-Serif" font-size="10.00">/pinhao/lib/FeaturesImpl</text>
<text text-anchor="middle" x="858.5" y="-544.5" font-family="Helvetica,sans-Serif" font-size="10.00">/GEOSFeatures/GEOSFeatures.cpp</text>
</g>
<!-- Node1 -->
<g id="node2" class="node"><title>Node1</title>
<g id="a_node2"><a xlink:href="InitializationRoutines_8h.html" target="_top" xlink:title="pinhao/InitializationRoutines.h">
<polygon fill="white" stroke="black" points="716,-425.5 716,-444.5 863,-444.5 863,-425.5 716,-425.5"/>
<text text-anchor="middle" x="789.5" y="-432.5" font-family="Helvetica,sans-Serif" font-size="10.00">pinhao/InitializationRoutines.h</text>
</a>
</g>
</g>
<!-- Node0&#45;&gt;Node1 -->
<g id="edge1" class="edge"><title>Node0&#45;&gt;Node1</title>
<path fill="none" stroke="midnightblue" d="M844.703,-537.205C831.19,-512.432 810.954,-475.332 799.103,-453.605"/>
<polygon fill="midnightblue" stroke="midnightblue" points="802.025,-451.653 794.163,-444.55 795.879,-455.005 802.025,-451.653"/>
</g>
<!-- Node3 -->
<g id="node4" class="node"><title>Node3</title>
<g id="a_node4"><a xlink:href="VectorFeature_8h.html" target="_top" xlink:title="pinhao/Features/VectorFeature.h">
<polygon fill="white" stroke="black" points="380,-481.5 380,-500.5 539,-500.5 539,-481.5 380,-481.5"/>
<text text-anchor="middle" x="459.5" y="-488.5" font-family="Helvetica,sans-Serif" font-size="10.00">pinhao/Features/VectorFeature.h</text>
</a>
</g>
</g>
<!-- Node0&#45;&gt;Node3 -->
<g id="edge3" class="edge"><title>Node0&#45;&gt;Node3</title>
<path fill="none" stroke="midnightblue" d="M770.938,-547.028C694.023,-533.438 584.288,-514.049 517.702,-502.284"/>
<polygon fill="midnightblue" stroke="midnightblue" points="518.255,-498.827 507.799,-500.534 517.037,-505.721 518.255,-498.827"/>
</g>
<!-- Node13 -->
<g id="node14" class="node"><title>Node13</title>
<polygon fill="white" stroke="#bfbfbf" points="989.5,-56.5 989.5,-75.5 1041.5,-75.5 1041.5,-56.5 989.5,-56.5"/>
<text text-anchor="middle" x="1015.5" y="-63.5" font-family="Helvetica,sans-Serif" font-size="10.00">memory</text>
</g>
<!-- Node0&#45;&gt;Node13 -->
<g id="edge46" class="edge"><title>Node0&#45;&gt;Node13</title>
<path fill="none" stroke="midnightblue" d="M946.018,-541.648C997.857,-523.508 1053.5,-491.184 1053.5,-436 1053.5,-436 1053.5,-436 1053.5,-193.5 1053.5,-153.35 1035.72,-108.946 1024.49,-84.8892"/>
<polygon fill="midnightblue" stroke="midnightblue" points="1027.51,-83.1043 1020.01,-75.6255 1021.21,-86.1518 1027.51,-83.1043"/>
</g>
<!-- Node24 -->
<g id="node25" class="node"><title>Node24</title>
<g id="a_node25"><a xlink:href="GEOSWrapper_8h.html" target="_top" xlink:title="pinhao/PerformanceAnalyser\l/GEOSWrapper.h">
<polygon fill="white" stroke="black" points="828.5,-179.5 828.5,-209.5 970.5,-209.5 970.5,-179.5 828.5,-179.5"/>
<text text-anchor="start" x="836.5" y="-197.5" font-family="Helvetica,sans-Serif" font-size="10.00">pinhao/PerformanceAnalyser</text>
<text text-anchor="middle" x="899.5" y="-186.5" font-family="Helvetica,sans-Serif" font-size="10.00">/GEOSWrapper.h</text>
</a>
</g>
</g>
<!-- Node0&#45;&gt;Node24 -->
<g id="edge41" class="edge"><title>Node0&#45;&gt;Node24</title>
<path fill="none" stroke="midnightblue" d="M869.767,-537.383C879.998,-512.255 893.5,-472.231 893.5,-436 893.5,-436 893.5,-436 893.5,-311 893.5,-279.452 895.76,-243.123 897.506,-219.764"/>
<polygon fill="midnightblue" stroke="midnightblue" points="901.002,-219.953 898.286,-209.713 894.023,-219.412 901.002,-219.953"/>
</g>
<!-- Node2 -->
<g id="node3" class="node"><title>Node2</title>
<polygon fill="white" stroke="#bfbfbf" points="740,-118 740,-137 831,-137 831,-118 740,-118"/>
<text text-anchor="middle" x="785.5" y="-125" font-family="Helvetica,sans-Serif" font-size="10.00">llvm/IR/Module.h</text>
</g>
<!-- Node1&#45;&gt;Node2 -->
<g id="edge2" class="edge"><title>Node1&#45;&gt;Node2</title>
<path fill="none" stroke="midnightblue" d="M789.144,-425.493C788.349,-405.742 786.5,-355.237 786.5,-313 786.5,-313 786.5,-313 786.5,-255 786.5,-216.701 786.036,-171.882 785.74,-147.197"/>
<polygon fill="midnightblue" stroke="midnightblue" points="789.239,-147.045 785.615,-137.089 782.239,-147.132 789.239,-147.045"/>
</g>
<!-- Node4 -->
<g id="node5" class="node"><title>Node4</title>
<g id="a_node5"><a xlink:href="Features_8h.html" target="_top" xlink:title="This file implements some basic feature classes that extends the base class Feature. ">
<polygon fill="white" stroke="black" points="379.5,-246.5 379.5,-265.5 515.5,-265.5 515.5,-246.5 379.5,-246.5"/>
<text text-anchor="middle" x="447.5" y="-253.5" font-family="Helvetica,sans-Serif" font-size="10.00">pinhao/Features/Features.h</text>
</a>
</g>
</g>
<!-- Node3&#45;&gt;Node4 -->
<g id="edge4" class="edge"><title>Node3&#45;&gt;Node4</title>
<path fill="none" stroke="midnightblue" d="M471.245,-481.247C497.129,-460.81 555.344,-407.886 536.5,-358 522.721,-321.521 489.096,-289.689 467.349,-271.942"/>
<polygon fill="midnightblue" stroke="midnightblue" points="469.403,-269.105 459.39,-265.642 465.058,-274.593 469.403,-269.105"/>
</g>
<!-- Node16 -->
<g id="node17" class="node"><title>Node16</title>
<g id="a_node17"><a xlink:href="FeatureYAMLWrapper_8h.html" target="_top" xlink:title="pinhao/Support/FeatureYAMLWrapper.h">
<polygon fill="white" stroke="black" points="267.5,-425.5 267.5,-444.5 457.5,-444.5 457.5,-425.5 267.5,-425.5"/>
<text text-anchor="middle" x="362.5" y="-432.5" font-family="Helvetica,sans-Serif" font-size="10.00">pinhao/Support/FeatureYAMLWrapper.h</text>
</a>
</g>
</g>
<!-- Node3&#45;&gt;Node16 -->
<g id="edge22" class="edge"><title>Node3&#45;&gt;Node16</title>
<path fill="none" stroke="midnightblue" d="M438.8,-481.324C421.845,-472.9 398.322,-459.971 381.772,-450.074"/>
<polygon fill="midnightblue" stroke="midnightblue" points="383.29,-446.899 372.936,-444.655 379.63,-452.866 383.29,-446.899"/>
</g>
<!-- Node5 -->
<g id="node6" class="node"><title>Node5</title>
<g id="a_node6"><a xlink:href="Feature_8h.html" target="_top" xlink:title="This file defines the base feature class. ">
<polygon fill="white" stroke="black" points="371,-185 371,-204 502,-204 502,-185 371,-185"/>
<text text-anchor="middle" x="436.5" y="-192" font-family="Helvetica,sans-Serif" font-size="10.00">pinhao/Features/Feature.h</text>
</a>
</g>
</g>
<!-- Node4&#45;&gt;Node5 -->
<g id="edge5" class="edge"><title>Node4&#45;&gt;Node5</title>
<path fill="none" stroke="midnightblue" d="M445.924,-246.475C444.372,-238.08 441.95,-224.981 439.95,-214.163"/>
<polygon fill="midnightblue" stroke="midnightblue" points="443.333,-213.206 438.073,-204.009 436.449,-214.479 443.333,-213.206"/>
</g>
<!-- Node5&#45;&gt;Node2 -->
<g id="edge17" class="edge"><title>Node5&#45;&gt;Node2</title>
<path fill="none" stroke="midnightblue" d="M491.296,-184.999C549.57,-175.707 644.342,-159.879 725.5,-143 730.877,-141.882 736.506,-140.63 742.07,-139.343"/>
<polygon fill="midnightblue" stroke="midnightblue" points="743.02,-142.715 751.948,-137.01 741.411,-135.903 743.02,-142.715"/>
</g>
<!-- Node6 -->
<g id="node7" class="node"><title>Node6</title>
<g id="a_node7"><a xlink:href="FeatureInfo_8h.html" target="_top" xlink:title="This file defines a class that holds some informations about a feature. ">
<polygon fill="white" stroke="black" points="352,-118 352,-137 499,-137 499,-118 352,-118"/>
<text text-anchor="middle" x="425.5" y="-125" font-family="Helvetica,sans-Serif" font-size="10.00">pinhao/Features/FeatureInfo.h</text>
</a>
</g>
</g>
<!-- Node5&#45;&gt;Node6 -->
<g id="edge6" class="edge"><title>Node5&#45;&gt;Node6</title>
<path fill="none" stroke="midnightblue" d="M435.016,-184.734C433.4,-175.183 430.766,-159.618 428.679,-147.283"/>
<polygon fill="midnightblue" stroke="midnightblue" points="432.08,-146.403 426.96,-137.127 425.178,-147.571 432.08,-146.403"/>
</g>
<!-- Node9 -->
<g id="node10" class="node"><title>Node9</title>
<polygon fill="white" stroke="#bfbfbf" points="307,-56.5 307,-75.5 342,-75.5 342,-56.5 307,-56.5"/>
<text text-anchor="middle" x="324.5" y="-63.5" font-family="Helvetica,sans-Serif" font-size="10.00">map</text>
</g>
<!-- Node5&#45;&gt;Node9 -->
<g id="edge19" class="edge"><title>Node5&#45;&gt;Node9</title>
<path fill="none" stroke="midnightblue" d="M407.159,-184.947C386.08,-177.302 358.641,-164.006 342.5,-143 329.88,-126.577 325.912,-102.694 324.764,-86.1012"/>
<polygon fill="midnightblue" stroke="midnightblue" points="328.255,-85.8078 324.348,-75.9596 321.261,-86.0947 328.255,-85.8078"/>
</g>
<!-- Node11 -->
<g id="node12" class="node"><title>Node11</title>
<polygon fill="white" stroke="#bfbfbf" points="576,-56.5 576,-75.5 625,-75.5 625,-56.5 576,-56.5"/>
<text text-anchor="middle" x="600.5" y="-63.5" font-family="Helvetica,sans-Serif" font-size="10.00">cassert</text>
</g>
<!-- Node5&#45;&gt;Node11 -->
<g id="edge20" class="edge"><title>Node5&#45;&gt;Node11</title>
<path fill="none" stroke="midnightblue" d="M502.166,-189.789C569.882,-184.428 668.84,-171.784 692.5,-143 701.249,-132.357 699.795,-123.688 692.5,-112 679.961,-91.9076 655.562,-80.5411 635.041,-74.2597"/>
<polygon fill="midnightblue" stroke="midnightblue" points="635.919,-70.8712 625.348,-71.5687 634.047,-77.6161 635.919,-70.8712"/>
</g>
<!-- Node12 -->
<g id="node13" class="node"><title>Node12</title>
<g id="a_node13"><a xlink:href="FeatureRegistry_8h.html" target="_top" xlink:title="This file defines a class that has all the registered features. ">
<polygon fill="white" stroke="black" points="517,-118 517,-137 684,-137 684,-118 517,-118"/>
<text text-anchor="middle" x="600.5" y="-125" font-family="Helvetica,sans-Serif" font-size="10.00">pinhao/Features/FeatureRegistry.h</text>
</a>
</g>
</g>
<!-- Node5&#45;&gt;Node12 -->
<g id="edge13" class="edge"><title>Node5&#45;&gt;Node12</title>
<path fill="none" stroke="midnightblue" d="M458.278,-184.869C486.783,-173.571 536.928,-153.696 569.42,-140.818"/>
<polygon fill="midnightblue" stroke="midnightblue" points="570.886,-144.002 578.893,-137.064 568.307,-137.495 570.886,-144.002"/>
</g>
<!-- Node14 -->
<g id="node15" class="node"><title>Node14</title>
<polygon fill="white" stroke="#bfbfbf" points="96,-118 96,-137 185,-137 185,-118 96,-118"/>
<text text-anchor="middle" x="140.5" y="-125" font-family="Helvetica,sans-Serif" font-size="10.00">yaml&#45;cpp/yaml.h</text>
</g>
<!-- Node5&#45;&gt;Node14 -->
<g id="edge18" class="edge"><title>Node5&#45;&gt;Node14</title>
<path fill="none" stroke="midnightblue" d="M391.729,-184.946C343.028,-175.457 262.968,-159.323 194.5,-143 190.078,-141.946 185.467,-140.792 180.884,-139.611"/>
<polygon fill="midnightblue" stroke="midnightblue" points="181.542,-136.165 170.98,-137.008 179.762,-142.935 181.542,-136.165"/>
</g>
<!-- Node15 -->
<g id="node16" class="node"><title>Node15</title>
<polygon fill="white" stroke="#bfbfbf" points="203.5,-118 203.5,-137 257.5,-137 257.5,-118 203.5,-118"/>
<text text-anchor="middle" x="230.5" y="-125" font-family="Helvetica,sans-Serif" font-size="10.00">iostream</text>
</g>
<!-- Node5&#45;&gt;Node15 -->
<g id="edge21" class="edge"><title>Node5&#45;&gt;Node15</title>
<path fill="none" stroke="midnightblue" d="M409.145,-184.869C372.645,-173.351 307.899,-152.922 267.19,-140.077"/>
<polygon fill="midnightblue" stroke="midnightblue" points="268.23,-136.735 257.64,-137.064 266.124,-143.411 268.23,-136.735"/>
</g>
<!-- Node7 -->
<g id="node8" class="node"><title>Node7</title>
<g id="a_node8"><a xlink:href="Types_8h.html" target="_top" xlink:title="pinhao/Support/Types.h">
<polygon fill="white" stroke="black" points="362.5,-56.5 362.5,-75.5 482.5,-75.5 482.5,-56.5 362.5,-56.5"/>
<text text-anchor="middle" x="422.5" y="-63.5" font-family="Helvetica,sans-Serif" font-size="10.00">pinhao/Support/Types.h</text>
</a>
</g>
</g>
<!-- Node6&#45;&gt;Node7 -->
<g id="edge7" class="edge"><title>Node6&#45;&gt;Node7</title>
<path fill="none" stroke="midnightblue" d="M425.07,-117.975C424.647,-109.58 423.986,-96.4806 423.441,-85.6631"/>
<polygon fill="midnightblue" stroke="midnightblue" points="426.928,-85.3201 422.929,-75.5091 419.937,-85.6727 426.928,-85.3201"/>
</g>
<!-- Node8 -->
<g id="node9" class="node"><title>Node8</title>
<polygon fill="white" stroke="#bfbfbf" points="446,-0.5 446,-19.5 487,-19.5 487,-0.5 446,-0.5"/>
<text text-anchor="middle" x="466.5" y="-7.5" font-family="Helvetica,sans-Serif" font-size="10.00">string</text>
</g>
<!-- Node6&#45;&gt;Node8 -->
<g id="edge11" class="edge"><title>Node6&#45;&gt;Node8</title>
<path fill="none" stroke="midnightblue" d="M444.831,-117.84C460.622,-109.593 481.851,-95.5326 491.5,-76 499.332,-60.1464 490.056,-41.1926 480.663,-27.8551"/>
<polygon fill="midnightblue" stroke="midnightblue" points="483.214,-25.43 474.35,-19.6257 477.66,-29.6905 483.214,-25.43"/>
</g>
<!-- Node6&#45;&gt;Node9 -->
<g id="edge9" class="edge"><title>Node6&#45;&gt;Node9</title>
<path fill="none" stroke="midnightblue" d="M411.029,-117.975C394.529,-108.255 367.322,-92.2266 347.819,-80.7372"/>
<polygon fill="midnightblue" stroke="midnightblue" points="349.337,-77.5693 338.944,-75.5091 345.784,-83.6005 349.337,-77.5693"/>
</g>
<!-- Node10 -->
<g id="node11" class="node"><title>Node10</title>
<polygon fill="white" stroke="#bfbfbf" points="785.5,-56.5 785.5,-75.5 829.5,-75.5 829.5,-56.5 785.5,-56.5"/>
<text text-anchor="middle" x="807.5" y="-63.5" font-family="Helvetica,sans-Serif" font-size="10.00">vector</text>
</g>
<!-- Node6&#45;&gt;Node10 -->
<g id="edge10" class="edge"><title>Node6&#45;&gt;Node10</title>
<path fill="none" stroke="midnightblue" d="M472.728,-117.931C484.105,-115.927 496.228,-113.842 507.5,-112 604.713,-96.1168 720.009,-79.4225 775.077,-71.5801"/>
<polygon fill="midnightblue" stroke="midnightblue" points="775.856,-75.0047 785.264,-70.1326 774.871,-68.0743 775.856,-75.0047"/>
</g>
<!-- Node6&#45;&gt;Node11 -->
<g id="edge12" class="edge"><title>Node6&#45;&gt;Node11</title>
<path fill="none" stroke="midnightblue" d="M450.573,-117.975C480.938,-107.651 532.231,-90.2115 566.23,-78.6518"/>
<polygon fill="midnightblue" stroke="midnightblue" points="567.415,-81.9458 575.756,-75.413 565.162,-75.3183 567.415,-81.9458"/>
</g>
<!-- Node7&#45;&gt;Node8 -->
<g id="edge8" class="edge"><title>Node7&#45;&gt;Node8</title>
<path fill="none" stroke="midnightblue" d="M429.766,-56.083C436.045,-48.3768 445.288,-37.0333 452.931,-27.6531"/>
<polygon fill="midnightblue" stroke="midnightblue" points="455.766,-29.7143 459.369,-19.7511 450.339,-25.2926 455.766,-29.7143"/>
</g>
<!-- Node12&#45;&gt;Node9 -->
<g id="edge16" class="edge"><title>Node12&#45;&gt;Node9</title>
<path fill="none" stroke="midnightblue" d="M551.433,-117.953C501.355,-108.883 421.543,-93.4682 353.5,-76 353.04,-75.882 352.577,-75.7612 352.112,-75.6379"/>
<polygon fill="midnightblue" stroke="midnightblue" points="352.788,-72.191 342.211,-72.802 350.861,-78.9204 352.788,-72.191"/>
</g>
<!-- Node12&#45;&gt;Node11 -->
<g id="edge15" class="edge"><title>Node12&#45;&gt;Node11</title>
<path fill="none" stroke="midnightblue" d="M600.5,-117.975C600.5,-109.58 600.5,-96.4806 600.5,-85.6631"/>
<polygon fill="midnightblue" stroke="midnightblue" points="604,-85.5091 600.5,-75.5091 597,-85.5091 604,-85.5091"/>
</g>
<!-- Node12&#45;&gt;Node13 -->
<g id="edge14" class="edge"><title>Node12&#45;&gt;Node13</title>
<path fill="none" stroke="midnightblue" d="M659.959,-117.975C747.15,-105.474 907.106,-82.5408 978.912,-72.2457"/>
<polygon fill="midnightblue" stroke="midnightblue" points="979.85,-75.6471 989.252,-70.7632 978.857,-68.718 979.85,-75.6471"/>
</g>
<!-- Node16&#45;&gt;Node3 -->
<g id="edge29" class="edge"><title>Node16&#45;&gt;Node3</title>
<path fill="none" stroke="midnightblue" d="M383.156,-444.655C400.1,-453.071 423.624,-465.999 440.186,-475.901"/>
<polygon fill="midnightblue" stroke="midnightblue" points="438.676,-479.08 449.03,-481.324 442.335,-473.113 438.676,-479.08"/>
</g>
<!-- Node17 -->
<g id="node18" class="node"><title>Node17</title>
<g id="a_node18"><a xlink:href="YAMLWrapper_8h.html" target="_top" xlink:title="pinhao/Support/YAMLWrapper.h">
<polygon fill="white" stroke="black" points="0,-185 0,-204 157,-204 157,-185 0,-185"/>
<text text-anchor="middle" x="78.5" y="-192" font-family="Helvetica,sans-Serif" font-size="10.00">pinhao/Support/YAMLWrapper.h</text>
</a>
</g>
</g>
<!-- Node16&#45;&gt;Node17 -->
<g id="edge23" class="edge"><title>Node16&#45;&gt;Node17</title>
<path fill="none" stroke="midnightblue" d="M287.784,-425.464C224.968,-413.822 139.247,-386.405 99.5,-322 78.7233,-288.334 76.6722,-240.453 77.361,-214.314"/>
<polygon fill="midnightblue" stroke="midnightblue" points="80.8607,-214.396 77.7951,-204.254 73.8672,-214.094 80.8607,-214.396"/>
</g>
<!-- Node19 -->
<g id="node20" class="node"><title>Node19</title>
<g id="a_node20"><a xlink:href="YamlOptions_8h.html" target="_top" xlink:title="pinhao/Support/YamlOptions.h">
<polygon fill="white" stroke="black" points="109,-302.5 109,-321.5 258,-321.5 258,-302.5 109,-302.5"/>
<text text-anchor="middle" x="183.5" y="-309.5" font-family="Helvetica,sans-Serif" font-size="10.00">pinhao/Support/YamlOptions.h</text>
</a>
</g>
</g>
<!-- Node16&#45;&gt;Node19 -->
<g id="edge27" class="edge"><title>Node16&#45;&gt;Node19</title>
<path fill="none" stroke="midnightblue" d="M290.896,-425.423C264.251,-419.089 235.436,-408.091 214.5,-389 198.003,-373.956 190.087,-348.859 186.428,-331.649"/>
<polygon fill="midnightblue" stroke="midnightblue" points="189.843,-330.865 184.591,-321.664 182.958,-332.132 189.843,-330.865"/>
</g>
<!-- Node20 -->
<g id="node21" class="node"><title>Node20</title>
<g id="a_node21"><a xlink:href="MapFeature_8h.html" target="_top" xlink:title="pinhao/Features/MapFeature.h">
<polygon fill="white" stroke="black" points="379,-364 379,-383 528,-383 528,-364 379,-364"/>
<text text-anchor="middle" x="453.5" y="-371" font-family="Helvetica,sans-Serif" font-size="10.00">pinhao/Features/MapFeature.h</text>
</a>
</g>
</g>
<!-- Node16&#45;&gt;Node20 -->
<g id="edge30" class="edge"><title>Node16&#45;&gt;Node20</title>
<path fill="none" stroke="midnightblue" d="M370.637,-425.475C383.442,-415.711 407.821,-399.581 426.958,-388.081"/>
<polygon fill="midnightblue" stroke="midnightblue" points="428.74,-391.093 435.589,-383.009 425.194,-385.058 428.74,-391.093"/>
</g>
<!-- Node23 -->
<g id="node24" class="node"><title>Node23</title>
<g id="a_node24"><a xlink:href="MapVectorFeature_8h.html" target="_top" xlink:title="pinhao/Features/MapVector\lFeature.h">
<polygon fill="white" stroke="black" points="224,-358.5 224,-388.5 361,-388.5 361,-358.5 224,-358.5"/>
<text text-anchor="start" x="232" y="-376.5" font-family="Helvetica,sans-Serif" font-size="10.00">pinhao/Features/MapVector</text>
<text text-anchor="middle" x="292.5" y="-365.5" font-family="Helvetica,sans-Serif" font-size="10.00">Feature.h</text>
</a>
</g>
</g>
<!-- Node16&#45;&gt;Node23 -->
<g id="edge37" class="edge"><title>Node16&#45;&gt;Node23</title>
<path fill="none" stroke="midnightblue" d="M347.57,-425.475C336.647,-417.643 322.089,-405.714 310.573,-395.366"/>
<polygon fill="midnightblue" stroke="midnightblue" points="312.888,-392.739 303.168,-388.523 308.137,-397.88 312.888,-392.739"/>
</g>
<!-- Node17&#45;&gt;Node14 -->
<g id="edge24" class="edge"><title>Node17&#45;&gt;Node14</title>
<path fill="none" stroke="midnightblue" d="M86.8616,-184.734C96.6227,-174.5 112.968,-157.364 125.055,-144.692"/>
<polygon fill="midnightblue" stroke="midnightblue" points="127.901,-146.779 132.271,-137.127 122.836,-141.948 127.901,-146.779"/>
</g>
<!-- Node17&#45;&gt;Node15 -->
<g id="edge25" class="edge"><title>Node17&#45;&gt;Node15</title>
<path fill="none" stroke="midnightblue" d="M98.6844,-184.869C124.804,-173.699 170.526,-154.147 200.661,-141.26"/>
<polygon fill="midnightblue" stroke="midnightblue" points="202.414,-144.317 210.232,-137.167 199.661,-137.881 202.414,-144.317"/>
</g>
<!-- Node18 -->
<g id="node19" class="node"><title>Node18</title>
<polygon fill="white" stroke="#bfbfbf" points="25.5,-118 25.5,-137 77.5,-137 77.5,-118 25.5,-118"/>
<text text-anchor="middle" x="51.5" y="-125" font-family="Helvetica,sans-Serif" font-size="10.00">ostream</text>
</g>
<!-- Node17&#45;&gt;Node18 -->
<g id="edge26" class="edge"><title>Node17&#45;&gt;Node18</title>
<path fill="none" stroke="midnightblue" d="M74.8587,-184.734C70.8103,-174.988 64.1611,-158.981 58.9901,-146.532"/>
<polygon fill="midnightblue" stroke="midnightblue" points="62.152,-145.02 55.0836,-137.127 55.6875,-147.705 62.152,-145.02"/>
</g>
<!-- Node19&#45;&gt;Node14 -->
<g id="edge28" class="edge"><title>Node19&#45;&gt;Node14</title>
<path fill="none" stroke="midnightblue" d="M183.286,-302.457C182.551,-281.147 179.335,-224.109 165.5,-179 161.966,-167.477 156.043,-155.349 150.849,-145.867"/>
<polygon fill="midnightblue" stroke="midnightblue" points="153.83,-144.028 145.831,-137.079 147.751,-147.499 153.83,-144.028"/>
</g>
<!-- Node20&#45;&gt;Node4 -->
<g id="edge31" class="edge"><title>Node20&#45;&gt;Node4</title>
<path fill="none" stroke="midnightblue" d="M453.049,-363.819C452.085,-345.257 449.803,-301.339 448.486,-275.973"/>
<polygon fill="midnightblue" stroke="midnightblue" points="451.97,-275.587 447.956,-265.782 444.98,-275.95 451.97,-275.587"/>
</g>
<!-- Node20&#45;&gt;Node16 -->
<g id="edge32" class="edge"><title>Node20&#45;&gt;Node16</title>
<path fill="none" stroke="midnightblue" d="M445.383,-383.009C432.592,-392.767 408.216,-408.896 389.073,-420.401"/>
<polygon fill="midnightblue" stroke="midnightblue" points="387.287,-417.391 380.439,-425.475 390.833,-423.426 387.287,-417.391"/>
</g>
<!-- Node21 -->
<g id="node22" class="node"><title>Node21</title>
<g id="a_node22"><a xlink:href="Iterator_8h.html" target="_top" xlink:title="pinhao/Support/Iterator.h">
<polygon fill="white" stroke="black" points="275.5,-302.5 275.5,-321.5 399.5,-321.5 399.5,-302.5 275.5,-302.5"/>
<text text-anchor="middle" x="337.5" y="-309.5" font-family="Helvetica,sans-Serif" font-size="10.00">pinhao/Support/Iterator.h</text>
</a>
</g>
</g>
<!-- Node20&#45;&gt;Node21 -->
<g id="edge33" class="edge"><title>Node20&#45;&gt;Node21</title>
<path fill="none" stroke="midnightblue" d="M436.88,-363.975C417.585,-354.078 385.541,-337.642 363.069,-326.115"/>
<polygon fill="midnightblue" stroke="midnightblue" points="364.584,-322.959 354.089,-321.509 361.39,-329.187 364.584,-322.959"/>
</g>
<!-- Node21&#45;&gt;Node4 -->
<g id="edge34" class="edge"><title>Node21&#45;&gt;Node4</title>
<path fill="none" stroke="midnightblue" d="M355.173,-302.324C372.894,-293.625 400.403,-280.12 420.788,-270.113"/>
<polygon fill="midnightblue" stroke="midnightblue" points="422.436,-273.203 429.87,-265.655 419.351,-266.919 422.436,-273.203"/>
</g>
<!-- Node21&#45;&gt;Node9 -->
<g id="edge36" class="edge"><title>Node21&#45;&gt;Node9</title>
<path fill="none" stroke="midnightblue" d="M328.48,-302.34C320.428,-293.932 309.202,-280.363 304.5,-266 283.549,-202.002 305.82,-120.762 317.849,-85.1325"/>
<polygon fill="midnightblue" stroke="midnightblue" points="321.183,-86.204 321.195,-75.6092 314.578,-83.884 321.183,-86.204"/>
</g>
<!-- Node22 -->
<g id="node23" class="node"><title>Node22</title>
<polygon fill="white" stroke="#bfbfbf" points="314,-246.5 314,-265.5 361,-265.5 361,-246.5 314,-246.5"/>
<text text-anchor="middle" x="337.5" y="-253.5" font-family="Helvetica,sans-Serif" font-size="10.00">iterator</text>
</g>
<!-- Node21&#45;&gt;Node22 -->
<g id="edge35" class="edge"><title>Node21&#45;&gt;Node22</title>
<path fill="none" stroke="midnightblue" d="M337.5,-302.083C337.5,-295.006 337.5,-284.861 337.5,-275.986"/>
<polygon fill="midnightblue" stroke="midnightblue" points="341,-275.751 337.5,-265.751 334,-275.751 341,-275.751"/>
</g>
<!-- Node23&#45;&gt;Node4 -->
<g id="edge38" class="edge"><title>Node23&#45;&gt;Node4</title>
<path fill="none" stroke="midnightblue" d="M342.32,-358.478C364.402,-350.445 389.601,-338.592 408.5,-322 423.143,-309.145 433.894,-289.416 440.356,-275.066"/>
<polygon fill="midnightblue" stroke="midnightblue" points="443.628,-276.315 444.299,-265.742 437.181,-273.589 443.628,-276.315"/>
</g>
<!-- Node23&#45;&gt;Node16 -->
<g id="edge39" class="edge"><title>Node23&#45;&gt;Node16</title>
<path fill="none" stroke="midnightblue" d="M314.828,-388.523C326.527,-397.482 340.274,-409.113 350.134,-418.369"/>
<polygon fill="midnightblue" stroke="midnightblue" points="347.784,-420.967 357.371,-425.475 352.688,-415.972 347.784,-420.967"/>
</g>
<!-- Node23&#45;&gt;Node21 -->
<g id="edge40" class="edge"><title>Node23&#45;&gt;Node21</title>
<path fill="none" stroke="midnightblue" d="M303.164,-358.399C309.636,-349.842 317.934,-338.871 324.751,-329.857"/>
<polygon fill="midnightblue" stroke="midnightblue" points="327.711,-331.745 330.952,-321.658 322.128,-327.522 327.711,-331.745"/>
</g>
<!-- Node24&#45;&gt;Node2 -->
<g id="edge42" class="edge"><title>Node24&#45;&gt;Node2</title>
<path fill="none" stroke="midnightblue" d="M874.764,-179.396C855.292,-168.294 828.331,-152.921 809.146,-141.983"/>
<polygon fill="midnightblue" stroke="midnightblue" points="810.841,-138.92 800.42,-137.007 807.373,-145.001 810.841,-138.92"/>
</g>
<!-- Node24&#45;&gt;Node10 -->
<g id="edge44" class="edge"><title>Node24&#45;&gt;Node10</title>
<path fill="none" stroke="midnightblue" d="M922.256,-179.278C945.515,-162.944 975.935,-135.388 958.5,-112 931.312,-75.5286 875.728,-67.4517 840.113,-66.2694"/>
<polygon fill="midnightblue" stroke="midnightblue" points="839.81,-62.7641 829.754,-66.1 839.696,-69.7631 839.81,-62.7641"/>
</g>
<!-- Node24&#45;&gt;Node13 -->
<g id="edge45" class="edge"><title>Node24&#45;&gt;Node13</title>
<path fill="none" stroke="midnightblue" d="M926.878,-179.414C942.254,-170.511 961.004,-157.886 974.5,-143 990.029,-125.871 1001.73,-101.799 1008.57,-85.365"/>
<polygon fill="midnightblue" stroke="midnightblue" points="1011.93,-86.4041 1012.37,-75.8183 1005.42,-83.8208 1011.93,-86.4041"/>
</g>
<!-- Node25 -->
<g id="node26" class="node"><title>Node25</title>
<polygon fill="white" stroke="#bfbfbf" points="849.5,-112.5 849.5,-142.5 949.5,-142.5 949.5,-112.5 849.5,-112.5"/>
<text text-anchor="start" x="857.5" y="-130.5" font-family="Helvetica,sans-Serif" font-size="10.00">geos/ProfileModule</text>
<text text-anchor="middle" x="899.5" y="-119.5" font-family="Helvetica,sans-Serif" font-size="10.00">/ProfileModule.h</text>
</g>
<!-- Node24&#45;&gt;Node25 -->
<g id="edge43" class="edge"><title>Node24&#45;&gt;Node25</title>
<path fill="none" stroke="midnightblue" d="M899.5,-179.396C899.5,-171.645 899.5,-161.812 899.5,-152.86"/>
<polygon fill="midnightblue" stroke="midnightblue" points="903,-152.576 899.5,-142.577 896,-152.577 903,-152.576"/>
</g>
</g>
</svg>
        <g id="navigator" transform="translate(0 0)" fill="#404254">
                <rect fill="#f2f5e9" fill-opacity="0.5" stroke="#606060" stroke-width=".5" x="0" y="0" width="60" height="60"/>
                <use id="zoomplus" xlink:href="#zoomPlus" x="17" y="9" onmousedown="handleZoom(evt,'in')"/>
                <use id="zoomminus" xlink:href="#zoomMin" x="42" y="9" onmousedown="handleZoom(evt,'out')"/>
                <use id="reset" xlink:href="#resetDef" x="30" y="36" onmousedown="handleReset()"/>
                <g id="arrowUp" xlink:href="#dirArrow" transform="translate(30 24)" onmousedown="handlePan(0,-1)">
                  <use xlink:href="#rim" fill="#404040">
                        <set attributeName="fill" to="#808080" begin="arrowUp.mouseover" end="arrowUp.mouseout"/>
                  </use>
                  <path fill="none" stroke="white" stroke-width="1.5" d="M0,-3.0v7 M-2.5,-0.5L0,-3.0L2.5,-0.5"/>
                </g>
                <g id="arrowRight" xlink:href="#dirArrow" transform="rotate(90) translate(36 -43)" onmousedown="handlePan(1,0)">
                  <use xlink:href="#rim" fill="#404040">
                        <set attributeName="fill" to="#808080" begin="arrowRight.mouseover" end="arrowRight.mouseout"/>
                  </use>
                  <path fill="none" stroke="white" stroke-width="1.5" d="M0,-3.0v7 M-2.5,-0.5L0,-3.0L2.5,-0.5"/>
                </g>
                <g id="arrowDown" xlink:href="#dirArrow" transform="rotate(180) translate(-30 -48)" onmousedown="handlePan(0,1)">
                  <use xlink:href="#rim" fill="#404040">
                        <set attributeName="fill" to="#808080" begin="arrowDown.mouseover" end="arrowDown.mouseout"/>
                  </use>
                  <path fill="none" stroke="white" stroke-width="1.5" d="M0,-3.0v7 M-2.5,-0.5L0,-3.0L2.5,-0.5"/>
                </g>
                <g id="arrowLeft" xlink:href="#dirArrow" transform="rotate(270) translate(-36 17)" onmousedown="handlePan(-1,0)">
                  <use xlink:href="#rim" fill="#404040">
                        <set attributeName="fill" to="#808080" begin="arrowLeft.mouseover" end="arrowLeft.mouseout"/>
                  </use>
                  <path fill="none" stroke="white" stroke-width="1.5" d="M0,-3.0v7 M-2.5,-0.5L0,-3.0L2.5,-0.5"/>
                </g>
        </g>
        <svg viewBox="0 0 15 15" width="100%" height="30px" preserveAspectRatio="xMaxYMin meet">
         <g id="arrow_out" transform="scale(0.3 0.3)">
          <a xlink:href="GEOSFeatures_8cpp__incl_org.svg" target="_base">
           <rect id="button" ry="5" rx="5" y="6" x="6" height="38" width="38"
                fill="#f2f5e9" fill-opacity="0.5" stroke="#606060" stroke-width="1.0"/>
           <path id="arrow"
             d="M 11.500037,31.436501 C 11.940474,20.09759 22.043105,11.32322 32.158766,21.979434 L 37.068811,17.246167 C 37.068811,17.246167 37.088388,32 37.088388,32 L 22.160133,31.978069 C 22.160133,31.978069 26.997745,27.140456 26.997745,27.140456 C 18.528582,18.264221 13.291696,25.230495 11.500037,31.436501 z"
             style="fill:#404040;"/>
          </a>
         </g>
        </svg>
</svg>
