<?xml version="1.0" encoding="UTF-8" standalone="no"?>
<!DOCTYPE svg PUBLIC "-//W3C//DTD SVG 1.1//EN"
 "http://www.w3.org/Graphics/SVG/1.1/DTD/svg11.dtd">
<!-- Generated by graphviz version 2.38.0 (20140413.2041)
 -->
<!-- Title: /home/yukiosir/workspace/CompilerProject/Software/pinhao/lib/FeaturesImpl/GEOSFeatures/GEOSFeatures.cpp Pages: 1 -->
<svg width="1062pt" height="598pt"
 viewBox="0.00 0.00 1061.50 598.00" xmlns="http://www.w3.org/2000/svg" xmlns:xlink="http://www.w3.org/1999/xlink">
<g id="graph0" class="graph" transform="scale(1 1) rotate(0) translate(4 594)">
<title>/home/yukiosir/workspace/CompilerProject/Software/pinhao/lib/FeaturesImpl/GEOSFeatures/GEOSFeatures.cpp</title>
<polygon fill="white" stroke="none" points="-4,4 -4,-594 1057.5,-594 1057.5,4 -4,4"/>
<!-- Node0 -->
<g id="node1" class="node"><title>Node0</title>
<polygon fill="#bfbfbf" stroke="black" points="768,-537.5 768,-589.5 943,-589.5 943,-537.5 768,-537.5"/>
<text text-anchor="start" x="776" y="-577.5" font-family="Helvetica,sans-Serif" font-size="10.00">/home/yukiosir/workspace</text>
<text text-anchor="start" x="776" y="-566.5" font-family="Helvetica,sans-Serif" font-size="10.00">/CompilerProject/Software</text>
<text text-anchor="start" x="776" y="-555.5" font-family="Helvetica,sans-Serif" font-size="10.00">/pinhao/lib/FeaturesImpl</text>
<text text-anchor="middle" x="855.5" y="-544.5" font-family="Helvetica,sans-Serif" font-size="10.00">/GEOSFeatures/GEOSFeatures.cpp</text>
</g>
<!-- Node1 -->
<g id="node2" class="node"><title>Node1</title>
<g id="a_node2"><a xlink:href="Initialization_8h.html" target="_top" xlink:title="pinhao/Initialization.h">
<polygon fill="white" stroke="black" points="743.5,-425.5 743.5,-444.5 851.5,-444.5 851.5,-425.5 743.5,-425.5"/>
<text text-anchor="middle" x="797.5" y="-432.5" font-family="Helvetica,sans-Serif" font-size="10.00">pinhao/Initialization.h</text>
</a>
</g>
</g>
<!-- Node0&#45;&gt;Node1 -->
<g id="edge1" class="edge"><title>Node0&#45;&gt;Node1</title>
<path fill="none" stroke="midnightblue" d="M843.902,-537.205C832.595,-512.544 815.687,-475.667 805.708,-453.901"/>
<polygon fill="midnightblue" stroke="midnightblue" points="808.769,-452.181 801.42,-444.55 802.406,-455.099 808.769,-452.181"/>
</g>
<!-- Node3 -->
<g id="node4" class="node"><title>Node3</title>
<g id="a_node4"><a xlink:href="VectorFeature_8h.html" target="_top" xlink:title="pinhao/Features/VectorFeature.h">
<polygon fill="white" stroke="black" points="380,-481.5 380,-500.5 539,-500.5 539,-481.5 380,-481.5"/>
<text text-anchor="middle" x="459.5" y="-488.5" font-family="Helvetica,sans-Serif" font-size="10.00">pinhao/Features/VectorFeature.h</text>
</a>
</g>
</g>
<!-- Node0&#45;&gt;Node3 -->
<g id="edge3" class="edge"><title>Node0&#45;&gt;Node3</title>
<path fill="none" stroke="midnightblue" d="M767.615,-546.854C691.481,-533.3 583.498,-514.075 517.658,-502.354"/>
<polygon fill="midnightblue" stroke="midnightblue" points="517.923,-498.846 507.464,-500.539 516.696,-505.738 517.923,-498.846"/>
</g>
<!-- Node13 -->
<g id="node14" class="node"><title>Node13</title>
<polygon fill="white" stroke="#bfbfbf" points="989.5,-56.5 989.5,-75.5 1041.5,-75.5 1041.5,-56.5 989.5,-56.5"/>
<text text-anchor="middle" x="1015.5" y="-63.5" font-family="Helvetica,sans-Serif" font-size="10.00">memory</text>
</g>
<!-- Node0&#45;&gt;Node13 -->
<g id="edge46" class="edge"><title>Node0&#45;&gt;Node13</title>
<path fill="none" stroke="midnightblue" d="M943.21,-542.43C996.172,-524.537 1053.5,-492.191 1053.5,-436 1053.5,-436 1053.5,-436 1053.5,-193.5 1053.5,-153.35 1035.72,-108.946 1024.49,-84.8892"/>
<polygon fill="midnightblue" stroke="midnightblue" points="1027.51,-83.1043 1020.01,-75.6255 1021.21,-86.1518 1027.51,-83.1043"/>
</g>
<!-- Node24 -->
<g id="node25" class="node"><title>Node24</title>
<g id="a_node25"><a xlink:href="GEOSWrapper_8h.html" target="_top" xlink:title="pinhao/PerformanceAnalyser\l/GEOSWrapper.h">
<polygon fill="white" stroke="black" points="828.5,-179.5 828.5,-209.5 970.5,-209.5 970.5,-179.5 828.5,-179.5"/>
<text text-anchor="start" x="836.5" y="-197.5" font-family="Helvetica,sans-Serif" font-size="10.00">pinhao/PerformanceAnalyser</text>
<text text-anchor="middle" x="899.5" y="-186.5" font-family="Helvetica,sans-Serif" font-size="10.00">/GEOSWrapper.h</text>
</a>
</g>
</g>
<!-- Node0&#45;&gt;Node24 -->
<g id="edge41" class="edge"><title>Node0&#45;&gt;Node24</title>
<path fill="none" stroke="midnightblue" d="M864.514,-537.182C872.699,-511.901 883.5,-471.764 883.5,-436 883.5,-436 883.5,-436 883.5,-311 883.5,-279.194 889.527,-242.923 894.183,-219.648"/>
<polygon fill="midnightblue" stroke="midnightblue" points="897.655,-220.14 896.262,-209.638 890.801,-218.717 897.655,-220.14"/>
</g>
<!-- Node2 -->
<g id="node3" class="node"><title>Node2</title>
<polygon fill="white" stroke="#bfbfbf" points="740,-118 740,-137 831,-137 831,-118 740,-118"/>
<text text-anchor="middle" x="785.5" y="-125" font-family="Helvetica,sans-Serif" font-size="10.00">llvm/IR/Module.h</text>
</g>
<!-- Node1&#45;&gt;Node2 -->
<g id="edge2" class="edge"><title>Node1&#45;&gt;Node2</title>
<path fill="none" stroke="midnightblue" d="M796.519,-425.207C794.383,-405.274 789.5,-355.106 789.5,-313 789.5,-313 789.5,-313 789.5,-255 789.5,-216.683 787.644,-171.871 786.46,-147.191"/>
<polygon fill="midnightblue" stroke="midnightblue" points="789.95,-146.901 785.959,-137.086 782.959,-147.248 789.95,-146.901"/>
</g>
<!-- Node4 -->
<g id="node5" class="node"><title>Node4</title>
<g id="a_node5"><a xlink:href="Features_8h.html" target="_top" xlink:title="This file implements some basic feature classes that extends the base class Feature. ">
<polygon fill="white" stroke="black" points="379.5,-246.5 379.5,-265.5 515.5,-265.5 515.5,-246.5 379.5,-246.5"/>
<text text-anchor="middle" x="447.5" y="-253.5" font-family="Helvetica,sans-Serif" font-size="10.00">pinhao/Features/Features.h</text>
</a>
</g>
</g>
<!-- Node3&#45;&gt;Node4 -->
<g id="edge4" class="edge"><title>Node3&#45;&gt;Node4</title>
<path fill="none" stroke="midnightblue" d="M471.245,-481.247C497.129,-460.81 555.344,-407.886 536.5,-358 522.721,-321.521 489.096,-289.689 467.349,-271.942"/>
<polygon fill="midnightblue" stroke="midnightblue" points="469.403,-269.105 459.39,-265.642 465.058,-274.593 469.403,-269.105"/>
</g>
<!-- Node16 -->
<g id="node17" class="node"><title>Node16</title>
<g id="a_node17"><a xlink:href="FeatureYAMLWrapper_8h.html" target="_top" xlink:title="pinhao/Support/FeatureYAMLWrapper.h">
<polygon fill="white" stroke="black" points="267.5,-425.5 267.5,-444.5 457.5,-444.5 457.5,-425.5 267.5,-425.5"/>
<text text-anchor="middle" x="362.5" y="-432.5" font-family="Helvetica,sans-Serif" font-size="10.00">pinhao/Support/FeatureYAMLWrapper.h</text>
</a>
</g>
</g>
<!-- Node3&#45;&gt;Node16 -->
<g id="edge22" class="edge"><title>Node3&#45;&gt;Node16</title>
<path fill="none" stroke="midnightblue" d="M438.8,-481.324C421.845,-472.9 398.322,-459.971 381.772,-450.074"/>
<polygon fill="midnightblue" stroke="midnightblue" points="383.29,-446.899 372.936,-444.655 379.63,-452.866 383.29,-446.899"/>
</g>
<!-- Node5 -->
<g id="node6" class="node"><title>Node5</title>
<g id="a_node6"><a xlink:href="Feature_8h.html" target="_top" xlink:title="This file defines the base feature class. ">
<polygon fill="white" stroke="black" points="371,-185 371,-204 502,-204 502,-185 371,-185"/>
<text text-anchor="middle" x="436.5" y="-192" font-family="Helvetica,sans-Serif" font-size="10.00">pinhao/Features/Feature.h</text>
</a>
</g>
</g>
<!-- Node4&#45;&gt;Node5 -->
<g id="edge5" class="edge"><title>Node4&#45;&gt;Node5</title>
<path fill="none" stroke="midnightblue" d="M445.924,-246.475C444.372,-238.08 441.95,-224.981 439.95,-214.163"/>
<polygon fill="midnightblue" stroke="midnightblue" points="443.333,-213.206 438.073,-204.009 436.449,-214.479 443.333,-213.206"/>
</g>
<!-- Node5&#45;&gt;Node2 -->
<g id="edge17" class="edge"><title>Node5&#45;&gt;Node2</title>
<path fill="none" stroke="midnightblue" d="M491.296,-184.999C549.57,-175.707 644.342,-159.879 725.5,-143 730.877,-141.882 736.506,-140.63 742.07,-139.343"/>
<polygon fill="midnightblue" stroke="midnightblue" points="743.02,-142.715 751.948,-137.01 741.411,-135.903 743.02,-142.715"/>
</g>
<!-- Node6 -->
<g id="node7" class="node"><title>Node6</title>
<g id="a_node7"><a xlink:href="FeatureInfo_8h.html" target="_top" xlink:title="This file defines a class that holds some informations about a feature. ">
<polygon fill="white" stroke="black" points="352,-118 352,-137 499,-137 499,-118 352,-118"/>
<text text-anchor="middle" x="425.5" y="-125" font-family="Helvetica,sans-Serif" font-size="10.00">pinhao/Features/FeatureInfo.h</text>
</a>
</g>
</g>
<!-- Node5&#45;&gt;Node6 -->
<g id="edge6" class="edge"><title>Node5&#45;&gt;Node6</title>
<path fill="none" stroke="midnightblue" d="M435.016,-184.734C433.4,-175.183 430.766,-159.618 428.679,-147.283"/>
<polygon fill="midnightblue" stroke="midnightblue" points="432.08,-146.403 426.96,-137.127 425.178,-147.571 432.08,-146.403"/>
</g>
<!-- Node9 -->
<g id="node10" class="node"><title>Node9</title>
<polygon fill="white" stroke="#bfbfbf" points="307,-56.5 307,-75.5 342,-75.5 342,-56.5 307,-56.5"/>
<text text-anchor="middle" x="324.5" y="-63.5" font-family="Helvetica,sans-Serif" font-size="10.00">map</text>
</g>
<!-- Node5&#45;&gt;Node9 -->
<g id="edge19" class="edge"><title>Node5&#45;&gt;Node9</title>
<path fill="none" stroke="midnightblue" d="M407.159,-184.947C386.08,-177.302 358.641,-164.006 342.5,-143 329.88,-126.577 325.912,-102.694 324.764,-86.1012"/>
<polygon fill="midnightblue" stroke="midnightblue" points="328.255,-85.8078 324.348,-75.9596 321.261,-86.0947 328.255,-85.8078"/>
</g>
<!-- Node11 -->
<g id="node12" class="node"><title>Node11</title>
<polygon fill="white" stroke="#bfbfbf" points="576,-56.5 576,-75.5 625,-75.5 625,-56.5 576,-56.5"/>
<text text-anchor="middle" x="600.5" y="-63.5" font-family="Helvetica,sans-Serif" font-size="10.00">cassert</text>
</g>
<!-- Node5&#45;&gt;Node11 -->
<g id="edge20" class="edge"><title>Node5&#45;&gt;Node11</title>
<path fill="none" stroke="midnightblue" d="M502.166,-189.789C569.882,-184.428 668.84,-171.784 692.5,-143 701.249,-132.357 699.795,-123.688 692.5,-112 679.961,-91.9076 655.562,-80.5411 635.041,-74.2597"/>
<polygon fill="midnightblue" stroke="midnightblue" points="635.919,-70.8712 625.348,-71.5687 634.047,-77.6161 635.919,-70.8712"/>
</g>
<!-- Node12 -->
<g id="node13" class="node"><title>Node12</title>
<g id="a_node13"><a xlink:href="FeatureRegistry_8h.html" target="_top" xlink:title="This file defines a class that has all the registered features. ">
<polygon fill="white" stroke="black" points="517,-118 517,-137 684,-137 684,-118 517,-118"/>
<text text-anchor="middle" x="600.5" y="-125" font-family="Helvetica,sans-Serif" font-size="10.00">pinhao/Features/FeatureRegistry.h</text>
</a>
</g>
</g>
<!-- Node5&#45;&gt;Node12 -->
<g id="edge13" class="edge"><title>Node5&#45;&gt;Node12</title>
<path fill="none" stroke="midnightblue" d="M458.278,-184.869C486.783,-173.571 536.928,-153.696 569.42,-140.818"/>
<polygon fill="midnightblue" stroke="midnightblue" points="570.886,-144.002 578.893,-137.064 568.307,-137.495 570.886,-144.002"/>
</g>
<!-- Node14 -->
<g id="node15" class="node"><title>Node14</title>
<polygon fill="white" stroke="#bfbfbf" points="96,-118 96,-137 185,-137 185,-118 96,-118"/>
<text text-anchor="middle" x="140.5" y="-125" font-family="Helvetica,sans-Serif" font-size="10.00">yaml&#45;cpp/yaml.h</text>
</g>
<!-- Node5&#45;&gt;Node14 -->
<g id="edge18" class="edge"><title>Node5&#45;&gt;Node14</title>
<path fill="none" stroke="midnightblue" d="M391.729,-184.946C343.028,-175.457 262.968,-159.323 194.5,-143 190.078,-141.946 185.467,-140.792 180.884,-139.611"/>
<polygon fill="midnightblue" stroke="midnightblue" points="181.542,-136.165 170.98,-137.008 179.762,-142.935 181.542,-136.165"/>
</g>
<!-- Node15 -->
<g id="node16" class="node"><title>Node15</title>
<polygon fill="white" stroke="#bfbfbf" points="203.5,-118 203.5,-137 257.5,-137 257.5,-118 203.5,-118"/>
<text text-anchor="middle" x="230.5" y="-125" font-family="Helvetica,sans-Serif" font-size="10.00">iostream</text>
</g>
<!-- Node5&#45;&gt;Node15 -->
<g id="edge21" class="edge"><title>Node5&#45;&gt;Node15</title>
<path fill="none" stroke="midnightblue" d="M409.145,-184.869C372.645,-173.351 307.899,-152.922 267.19,-140.077"/>
<polygon fill="midnightblue" stroke="midnightblue" points="268.23,-136.735 257.64,-137.064 266.124,-143.411 268.23,-136.735"/>
</g>
<!-- Node7 -->
<g id="node8" class="node"><title>Node7</title>
<g id="a_node8"><a xlink:href="Types_8h.html" target="_top" xlink:title="pinhao/Support/Types.h">
<polygon fill="white" stroke="black" points="362.5,-56.5 362.5,-75.5 482.5,-75.5 482.5,-56.5 362.5,-56.5"/>
<text text-anchor="middle" x="422.5" y="-63.5" font-family="Helvetica,sans-Serif" font-size="10.00">pinhao/Support/Types.h</text>
</a>
</g>
</g>
<!-- Node6&#45;&gt;Node7 -->
<g id="edge7" class="edge"><title>Node6&#45;&gt;Node7</title>
<path fill="none" stroke="midnightblue" d="M425.07,-117.975C424.647,-109.58 423.986,-96.4806 423.441,-85.6631"/>
<polygon fill="midnightblue" stroke="midnightblue" points="426.928,-85.3201 422.929,-75.5091 419.937,-85.6727 426.928,-85.3201"/>
</g>
<!-- Node8 -->
<g id="node9" class="node"><title>Node8</title>
<polygon fill="white" stroke="#bfbfbf" points="446,-0.5 446,-19.5 487,-19.5 487,-0.5 446,-0.5"/>
<text text-anchor="middle" x="466.5" y="-7.5" font-family="Helvetica,sans-Serif" font-size="10.00">string</text>
</g>
<!-- Node6&#45;&gt;Node8 -->
<g id="edge11" class="edge"><title>Node6&#45;&gt;Node8</title>
<path fill="none" stroke="midnightblue" d="M444.831,-117.84C460.622,-109.593 481.851,-95.5326 491.5,-76 499.332,-60.1464 490.056,-41.1926 480.663,-27.8551"/>
<polygon fill="midnightblue" stroke="midnightblue" points="483.214,-25.43 474.35,-19.6257 477.66,-29.6905 483.214,-25.43"/>
</g>
<!-- Node6&#45;&gt;Node9 -->
<g id="edge9" class="edge"><title>Node6&#45;&gt;Node9</title>
<path fill="none" stroke="midnightblue" d="M411.029,-117.975C394.529,-108.255 367.322,-92.2266 347.819,-80.7372"/>
<polygon fill="midnightblue" stroke="midnightblue" points="349.337,-77.5693 338.944,-75.5091 345.784,-83.6005 349.337,-77.5693"/>
</g>
<!-- Node10 -->
<g id="node11" class="node"><title>Node10</title>
<polygon fill="white" stroke="#bfbfbf" points="785.5,-56.5 785.5,-75.5 829.5,-75.5 829.5,-56.5 785.5,-56.5"/>
<text text-anchor="middle" x="807.5" y="-63.5" font-family="Helvetica,sans-Serif" font-size="10.00">vector</text>
</g>
<!-- Node6&#45;&gt;Node10 -->
<g id="edge10" class="edge"><title>Node6&#45;&gt;Node10</title>
<path fill="none" stroke="midnightblue" d="M472.728,-117.931C484.105,-115.927 496.228,-113.842 507.5,-112 604.713,-96.1168 720.009,-79.4225 775.077,-71.5801"/>
<polygon fill="midnightblue" stroke="midnightblue" points="775.856,-75.0047 785.264,-70.1326 774.871,-68.0743 775.856,-75.0047"/>
</g>
<!-- Node6&#45;&gt;Node11 -->
<g id="edge12" class="edge"><title>Node6&#45;&gt;Node11</title>
<path fill="none" stroke="midnightblue" d="M450.573,-117.975C480.938,-107.651 532.231,-90.2115 566.23,-78.6518"/>
<polygon fill="midnightblue" stroke="midnightblue" points="567.415,-81.9458 575.756,-75.413 565.162,-75.3183 567.415,-81.9458"/>
</g>
<!-- Node7&#45;&gt;Node8 -->
<g id="edge8" class="edge"><title>Node7&#45;&gt;Node8</title>
<path fill="none" stroke="midnightblue" d="M429.766,-56.083C436.045,-48.3768 445.288,-37.0333 452.931,-27.6531"/>
<polygon fill="midnightblue" stroke="midnightblue" points="455.766,-29.7143 459.369,-19.7511 450.339,-25.2926 455.766,-29.7143"/>
</g>
<!-- Node12&#45;&gt;Node9 -->
<g id="edge16" class="edge"><title>Node12&#45;&gt;Node9</title>
<path fill="none" stroke="midnightblue" d="M551.433,-117.953C501.355,-108.883 421.543,-93.4682 353.5,-76 353.04,-75.882 352.577,-75.7612 352.112,-75.6379"/>
<polygon fill="midnightblue" stroke="midnightblue" points="352.788,-72.191 342.211,-72.802 350.861,-78.9204 352.788,-72.191"/>
</g>
<!-- Node12&#45;&gt;Node11 -->
<g id="edge15" class="edge"><title>Node12&#45;&gt;Node11</title>
<path fill="none" stroke="midnightblue" d="M600.5,-117.975C600.5,-109.58 600.5,-96.4806 600.5,-85.6631"/>
<polygon fill="midnightblue" stroke="midnightblue" points="604,-85.5091 600.5,-75.5091 597,-85.5091 604,-85.5091"/>
</g>
<!-- Node12&#45;&gt;Node13 -->
<g id="edge14" class="edge"><title>Node12&#45;&gt;Node13</title>
<path fill="none" stroke="midnightblue" d="M659.959,-117.975C747.15,-105.474 907.106,-82.5408 978.912,-72.2457"/>
<polygon fill="midnightblue" stroke="midnightblue" points="979.85,-75.6471 989.252,-70.7632 978.857,-68.718 979.85,-75.6471"/>
</g>
<!-- Node16&#45;&gt;Node3 -->
<g id="edge29" class="edge"><title>Node16&#45;&gt;Node3</title>
<path fill="none" stroke="midnightblue" d="M383.156,-444.655C400.1,-453.071 423.624,-465.999 440.186,-475.901"/>
<polygon fill="midnightblue" stroke="midnightblue" points="438.676,-479.08 449.03,-481.324 442.335,-473.113 438.676,-479.08"/>
</g>
<!-- Node17 -->
<g id="node18" class="node"><title>Node17</title>
<g id="a_node18"><a xlink:href="YAMLWrapper_8h.html" target="_top" xlink:title="pinhao/Support/YAMLWrapper.h">
<polygon fill="white" stroke="black" points="0,-185 0,-204 157,-204 157,-185 0,-185"/>
<text text-anchor="middle" x="78.5" y="-192" font-family="Helvetica,sans-Serif" font-size="10.00">pinhao/Support/YAMLWrapper.h</text>
</a>
</g>
</g>
<!-- Node16&#45;&gt;Node17 -->
<g id="edge23" class="edge"><title>Node16&#45;&gt;Node17</title>
<path fill="none" stroke="midnightblue" d="M287.784,-425.464C224.968,-413.822 139.247,-386.405 99.5,-322 78.7233,-288.334 76.6722,-240.453 77.361,-214.314"/>
<polygon fill="midnightblue" stroke="midnightblue" points="80.8607,-214.396 77.7951,-204.254 73.8672,-214.094 80.8607,-214.396"/>
</g>
<!-- Node19 -->
<g id="node20" class="node"><title>Node19</title>
<g id="a_node20"><a xlink:href="YamlOptions_8h.html" target="_top" xlink:title="pinhao/Support/YamlOptions.h">
<polygon fill="white" stroke="black" points="109,-302.5 109,-321.5 258,-321.5 258,-302.5 109,-302.5"/>
<text text-anchor="middle" x="183.5" y="-309.5" font-family="Helvetica,sans-Serif" font-size="10.00">pinhao/Support/YamlOptions.h</text>
</a>
</g>
</g>
<!-- Node16&#45;&gt;Node19 -->
<g id="edge27" class="edge"><title>Node16&#45;&gt;Node19</title>
<path fill="none" stroke="midnightblue" d="M290.896,-425.423C264.251,-419.089 235.436,-408.091 214.5,-389 198.003,-373.956 190.087,-348.859 186.428,-331.649"/>
<polygon fill="midnightblue" stroke="midnightblue" points="189.843,-330.865 184.591,-321.664 182.958,-332.132 189.843,-330.865"/>
</g>
<!-- Node20 -->
<g id="node21" class="node"><title>Node20</title>
<g id="a_node21"><a xlink:href="MapFeature_8h.html" target="_top" xlink:title="pinhao/Features/MapFeature.h">
<polygon fill="white" stroke="black" points="379,-364 379,-383 528,-383 528,-364 379,-364"/>
<text text-anchor="middle" x="453.5" y="-371" font-family="Helvetica,sans-Serif" font-size="10.00">pinhao/Features/MapFeature.h</text>
</a>
</g>
</g>
<!-- Node16&#45;&gt;Node20 -->
<g id="edge30" class="edge"><title>Node16&#45;&gt;Node20</title>
<path fill="none" stroke="midnightblue" d="M370.637,-425.475C383.442,-415.711 407.821,-399.581 426.958,-388.081"/>
<polygon fill="midnightblue" stroke="midnightblue" points="428.74,-391.093 435.589,-383.009 425.194,-385.058 428.74,-391.093"/>
</g>
<!-- Node23 -->
<g id="node24" class="node"><title>Node23</title>
<g id="a_node24"><a xlink:href="MapVectorFeature_8h.html" target="_top" xlink:title="pinhao/Features/MapVector\lFeature.h">
<polygon fill="white" stroke="black" points="224,-358.5 224,-388.5 361,-388.5 361,-358.5 224,-358.5"/>
<text text-anchor="start" x="232" y="-376.5" font-family="Helvetica,sans-Serif" font-size="10.00">pinhao/Features/MapVector</text>
<text text-anchor="middle" x="292.5" y="-365.5" font-family="Helvetica,sans-Serif" font-size="10.00">Feature.h</text>
</a>
</g>
</g>
<!-- Node16&#45;&gt;Node23 -->
<g id="edge37" class="edge"><title>Node16&#45;&gt;Node23</title>
<path fill="none" stroke="midnightblue" d="M347.57,-425.475C336.647,-417.643 322.089,-405.714 310.573,-395.366"/>
<polygon fill="midnightblue" stroke="midnightblue" points="312.888,-392.739 303.168,-388.523 308.137,-397.88 312.888,-392.739"/>
</g>
<!-- Node17&#45;&gt;Node14 -->
<g id="edge24" class="edge"><title>Node17&#45;&gt;Node14</title>
<path fill="none" stroke="midnightblue" d="M86.8616,-184.734C96.6227,-174.5 112.968,-157.364 125.055,-144.692"/>
<polygon fill="midnightblue" stroke="midnightblue" points="127.901,-146.779 132.271,-137.127 122.836,-141.948 127.901,-146.779"/>
</g>
<!-- Node17&#45;&gt;Node15 -->
<g id="edge25" class="edge"><title>Node17&#45;&gt;Node15</title>
<path fill="none" stroke="midnightblue" d="M98.6844,-184.869C124.804,-173.699 170.526,-154.147 200.661,-141.26"/>
<polygon fill="midnightblue" stroke="midnightblue" points="202.414,-144.317 210.232,-137.167 199.661,-137.881 202.414,-144.317"/>
</g>
<!-- Node18 -->
<g id="node19" class="node"><title>Node18</title>
<polygon fill="white" stroke="#bfbfbf" points="25.5,-118 25.5,-137 77.5,-137 77.5,-118 25.5,-118"/>
<text text-anchor="middle" x="51.5" y="-125" font-family="Helvetica,sans-Serif" font-size="10.00">ostream</text>
</g>
<!-- Node17&#45;&gt;Node18 -->
<g id="edge26" class="edge"><title>Node17&#45;&gt;Node18</title>
<path fill="none" stroke="midnightblue" d="M74.8587,-184.734C70.8103,-174.988 64.1611,-158.981 58.9901,-146.532"/>
<polygon fill="midnightblue" stroke="midnightblue" points="62.152,-145.02 55.0836,-137.127 55.6875,-147.705 62.152,-145.02"/>
</g>
<!-- Node19&#45;&gt;Node14 -->
<g id="edge28" class="edge"><title>Node19&#45;&gt;Node14</title>
<path fill="none" stroke="midnightblue" d="M183.286,-302.457C182.551,-281.147 179.335,-224.109 165.5,-179 161.966,-167.477 156.043,-155.349 150.849,-145.867"/>
<polygon fill="midnightblue" stroke="midnightblue" points="153.83,-144.028 145.831,-137.079 147.751,-147.499 153.83,-144.028"/>
</g>
<!-- Node20&#45;&gt;Node4 -->
<g id="edge31" class="edge"><title>Node20&#45;&gt;Node4</title>
<path fill="none" stroke="midnightblue" d="M453.049,-363.819C452.085,-345.257 449.803,-301.339 448.486,-275.973"/>
<polygon fill="midnightblue" stroke="midnightblue" points="451.97,-275.587 447.956,-265.782 444.98,-275.95 451.97,-275.587"/>
</g>
<!-- Node20&#45;&gt;Node16 -->
<g id="edge32" class="edge"><title>Node20&#45;&gt;Node16</title>
<path fill="none" stroke="midnightblue" d="M445.383,-383.009C432.592,-392.767 408.216,-408.896 389.073,-420.401"/>
<polygon fill="midnightblue" stroke="midnightblue" points="387.287,-417.391 380.439,-425.475 390.833,-423.426 387.287,-417.391"/>
</g>
<!-- Node21 -->
<g id="node22" class="node"><title>Node21</title>
<g id="a_node22"><a xlink:href="Iterator_8h.html" target="_top" xlink:title="pinhao/Support/Iterator.h">
<polygon fill="white" stroke="black" points="275.5,-302.5 275.5,-321.5 399.5,-321.5 399.5,-302.5 275.5,-302.5"/>
<text text-anchor="middle" x="337.5" y="-309.5" font-family="Helvetica,sans-Serif" font-size="10.00">pinhao/Support/Iterator.h</text>
</a>
</g>
</g>
<!-- Node20&#45;&gt;Node21 -->
<g id="edge33" class="edge"><title>Node20&#45;&gt;Node21</title>
<path fill="none" stroke="midnightblue" d="M436.88,-363.975C417.585,-354.078 385.541,-337.642 363.069,-326.115"/>
<polygon fill="midnightblue" stroke="midnightblue" points="364.584,-322.959 354.089,-321.509 361.39,-329.187 364.584,-322.959"/>
</g>
<!-- Node21&#45;&gt;Node4 -->
<g id="edge34" class="edge"><title>Node21&#45;&gt;Node4</title>
<path fill="none" stroke="midnightblue" d="M355.173,-302.324C372.894,-293.625 400.403,-280.12 420.788,-270.113"/>
<polygon fill="midnightblue" stroke="midnightblue" points="422.436,-273.203 429.87,-265.655 419.351,-266.919 422.436,-273.203"/>
</g>
<!-- Node21&#45;&gt;Node9 -->
<g id="edge36" class="edge"><title>Node21&#45;&gt;Node9</title>
<path fill="none" stroke="midnightblue" d="M328.48,-302.34C320.428,-293.932 309.202,-280.363 304.5,-266 283.549,-202.002 305.82,-120.762 317.849,-85.1325"/>
<polygon fill="midnightblue" stroke="midnightblue" points="321.183,-86.204 321.195,-75.6092 314.578,-83.884 321.183,-86.204"/>
</g>
<!-- Node22 -->
<g id="node23" class="node"><title>Node22</title>
<polygon fill="white" stroke="#bfbfbf" points="314,-246.5 314,-265.5 361,-265.5 361,-246.5 314,-246.5"/>
<text text-anchor="middle" x="337.5" y="-253.5" font-family="Helvetica,sans-Serif" font-size="10.00">iterator</text>
</g>
<!-- Node21&#45;&gt;Node22 -->
<g id="edge35" class="edge"><title>Node21&#45;&gt;Node22</title>
<path fill="none" stroke="midnightblue" d="M337.5,-302.083C337.5,-295.006 337.5,-284.861 337.5,-275.986"/>
<polygon fill="midnightblue" stroke="midnightblue" points="341,-275.751 337.5,-265.751 334,-275.751 341,-275.751"/>
</g>
<!-- Node23&#45;&gt;Node4 -->
<g id="edge38" class="edge"><title>Node23&#45;&gt;Node4</title>
<path fill="none" stroke="midnightblue" d="M342.32,-358.478C364.402,-350.445 389.601,-338.592 408.5,-322 423.143,-309.145 433.894,-289.416 440.356,-275.066"/>
<polygon fill="midnightblue" stroke="midnightblue" points="443.628,-276.315 444.299,-265.742 437.181,-273.589 443.628,-276.315"/>
</g>
<!-- Node23&#45;&gt;Node16 -->
<g id="edge39" class="edge"><title>Node23&#45;&gt;Node16</title>
<path fill="none" stroke="midnightblue" d="M314.828,-388.523C326.527,-397.482 340.274,-409.113 350.134,-418.369"/>
<polygon fill="midnightblue" stroke="midnightblue" points="347.784,-420.967 357.371,-425.475 352.688,-415.972 347.784,-420.967"/>
</g>
<!-- Node23&#45;&gt;Node21 -->
<g id="edge40" class="edge"><title>Node23&#45;&gt;Node21</title>
<path fill="none" stroke="midnightblue" d="M303.164,-358.399C309.636,-349.842 317.934,-338.871 324.751,-329.857"/>
<polygon fill="midnightblue" stroke="midnightblue" points="327.711,-331.745 330.952,-321.658 322.128,-327.522 327.711,-331.745"/>
</g>
<!-- Node24&#45;&gt;Node2 -->
<g id="edge42" class="edge"><title>Node24&#45;&gt;Node2</title>
<path fill="none" stroke="midnightblue" d="M874.764,-179.396C855.292,-168.294 828.331,-152.921 809.146,-141.983"/>
<polygon fill="midnightblue" stroke="midnightblue" points="810.841,-138.92 800.42,-137.007 807.373,-145.001 810.841,-138.92"/>
</g>
<!-- Node24&#45;&gt;Node10 -->
<g id="edge44" class="edge"><title>Node24&#45;&gt;Node10</title>
<path fill="none" stroke="midnightblue" d="M922.256,-179.278C945.515,-162.944 975.935,-135.388 958.5,-112 931.312,-75.5286 875.728,-67.4517 840.113,-66.2694"/>
<polygon fill="midnightblue" stroke="midnightblue" points="839.81,-62.7641 829.754,-66.1 839.696,-69.7631 839.81,-62.7641"/>
</g>
<!-- Node24&#45;&gt;Node13 -->
<g id="edge45" class="edge"><title>Node24&#45;&gt;Node13</title>
<path fill="none" stroke="midnightblue" d="M926.878,-179.414C942.254,-170.511 961.004,-157.886 974.5,-143 990.029,-125.871 1001.73,-101.799 1008.57,-85.365"/>
<polygon fill="midnightblue" stroke="midnightblue" points="1011.93,-86.4041 1012.37,-75.8183 1005.42,-83.8208 1011.93,-86.4041"/>
</g>
<!-- Node25 -->
<g id="node26" class="node"><title>Node25</title>
<polygon fill="white" stroke="#bfbfbf" points="849.5,-112.5 849.5,-142.5 949.5,-142.5 949.5,-112.5 849.5,-112.5"/>
<text text-anchor="start" x="857.5" y="-130.5" font-family="Helvetica,sans-Serif" font-size="10.00">geos/ProfileModule</text>
<text text-anchor="middle" x="899.5" y="-119.5" font-family="Helvetica,sans-Serif" font-size="10.00">/ProfileModule.h</text>
</g>
<!-- Node24&#45;&gt;Node25 -->
<g id="edge43" class="edge"><title>Node24&#45;&gt;Node25</title>
<path fill="none" stroke="midnightblue" d="M899.5,-179.396C899.5,-171.645 899.5,-161.812 899.5,-152.86"/>
<polygon fill="midnightblue" stroke="midnightblue" points="903,-152.576 899.5,-142.577 896,-152.577 903,-152.576"/>
</g>
</g>
</svg>
