<?xml version="1.0" encoding="UTF-8" standalone="no"?>
<!DOCTYPE svg PUBLIC "-//W3C//DTD SVG 1.1//EN"
 "http://www.w3.org/Graphics/SVG/1.1/DTD/svg11.dtd">
<!-- Generated by graphviz version 2.38.0 (20140413.2041)
 -->
<!-- Title: /home/yukiosir/workspace/CompilerProject/Software/pinhao/include/pinhao/PerformanceAnalyser/GEOSWrapper.h Pages: 1 -->
<svg width="617pt" height="150pt"
 viewBox="0.00 0.00 616.50 150.00" xmlns="http://www.w3.org/2000/svg" xmlns:xlink="http://www.w3.org/1999/xlink">
<g id="graph0" class="graph" transform="scale(1 1) rotate(0) translate(4 146)">
<title>/home/yukiosir/workspace/CompilerProject/Software/pinhao/include/pinhao/PerformanceAnalyser/GEOSWrapper.h</title>
<polygon fill="white" stroke="none" points="-4,4 -4,-146 612.5,-146 612.5,4 -4,4"/>
<!-- Node5 -->
<g id="node1" class="node"><title>Node5</title>
<polygon fill="#bfbfbf" stroke="black" points="258.5,-89.5 258.5,-141.5 430.5,-141.5 430.5,-89.5 258.5,-89.5"/>
<text text-anchor="start" x="266.5" y="-129.5" font-family="Helvetica,sans-Serif" font-size="10.00">/home/yukiosir/workspace</text>
<text text-anchor="start" x="266.5" y="-118.5" font-family="Helvetica,sans-Serif" font-size="10.00">/CompilerProject/Software</text>
<text text-anchor="start" x="266.5" y="-107.5" font-family="Helvetica,sans-Serif" font-size="10.00">/pinhao/include/pinhao/Performance</text>
<text text-anchor="middle" x="344.5" y="-96.5" font-family="Helvetica,sans-Serif" font-size="10.00">Analyser/GEOSWrapper.h</text>
</g>
<!-- Node6 -->
<g id="node2" class="node"><title>Node6</title>
<g id="a_node2"><a xlink:href="GEOSBasicBlockFreqFeature_8cpp.html" target="_top" xlink:title="/home/yukiosir/workspace\l/CompilerProject/Software\l/pinhao/lib/FeaturesImpl\l/GEOSFeatures/GEOSBasicBlockFreqFeature.cpp">
<polygon fill="white" stroke="black" points="0,-0.5 0,-52.5 239,-52.5 239,-0.5 0,-0.5"/>
<text text-anchor="start" x="8" y="-40.5" font-family="Helvetica,sans-Serif" font-size="10.00">/home/yukiosir/workspace</text>
<text text-anchor="start" x="8" y="-29.5" font-family="Helvetica,sans-Serif" font-size="10.00">/CompilerProject/Software</text>
<text text-anchor="start" x="8" y="-18.5" font-family="Helvetica,sans-Serif" font-size="10.00">/pinhao/lib/FeaturesImpl</text>
<text text-anchor="middle" x="119.5" y="-7.5" font-family="Helvetica,sans-Serif" font-size="10.00">/GEOSFeatures/GEOSBasicBlockFreqFeature.cpp</text>
</a>
</g>
</g>
<!-- Node5&#45;&gt;Node6 -->
<g id="edge1" class="edge"><title>Node5&#45;&gt;Node6</title>
<path fill="none" stroke="midnightblue" d="M270.061,-85.7171C242.298,-74.9819 211.028,-62.891 184.21,-52.5211"/>
<polygon fill="midnightblue" stroke="midnightblue" points="269.133,-89.1107 279.723,-89.4527 271.658,-82.5817 269.133,-89.1107"/>
</g>
<!-- Node7 -->
<g id="node3" class="node"><title>Node7</title>
<g id="a_node3"><a xlink:href="GEOSFeatures_8cpp.html" target="_top" xlink:title="/home/yukiosir/workspace\l/CompilerProject/Software\l/pinhao/lib/FeaturesImpl\l/GEOSFeatures/GEOSFeatures.cpp">
<polygon fill="white" stroke="black" points="257,-0.5 257,-52.5 432,-52.5 432,-0.5 257,-0.5"/>
<text text-anchor="start" x="265" y="-40.5" font-family="Helvetica,sans-Serif" font-size="10.00">/home/yukiosir/workspace</text>
<text text-anchor="start" x="265" y="-29.5" font-family="Helvetica,sans-Serif" font-size="10.00">/CompilerProject/Software</text>
<text text-anchor="start" x="265" y="-18.5" font-family="Helvetica,sans-Serif" font-size="10.00">/pinhao/lib/FeaturesImpl</text>
<text text-anchor="middle" x="344.5" y="-7.5" font-family="Helvetica,sans-Serif" font-size="10.00">/GEOSFeatures/GEOSFeatures.cpp</text>
</a>
</g>
</g>
<!-- Node5&#45;&gt;Node7 -->
<g id="edge2" class="edge"><title>Node5&#45;&gt;Node7</title>
<path fill="none" stroke="midnightblue" d="M344.5,-79.1908C344.5,-70.2824 344.5,-60.8986 344.5,-52.6075"/>
<polygon fill="midnightblue" stroke="midnightblue" points="341,-79.336 344.5,-89.336 348,-79.336 341,-79.336"/>
</g>
<!-- Node8 -->
<g id="node4" class="node"><title>Node8</title>
<g id="a_node4"><a xlink:href="GEOSWrapper_8cpp.html" target="_top" xlink:title="/home/yukiosir/workspace\l/CompilerProject/Software\l/pinhao/lib/PerformanceAnalyser\l/GEOSWrapper.cpp">
<polygon fill="white" stroke="black" points="450.5,-0.5 450.5,-52.5 608.5,-52.5 608.5,-0.5 450.5,-0.5"/>
<text text-anchor="start" x="458.5" y="-40.5" font-family="Helvetica,sans-Serif" font-size="10.00">/home/yukiosir/workspace</text>
<text text-anchor="start" x="458.5" y="-29.5" font-family="Helvetica,sans-Serif" font-size="10.00">/CompilerProject/Software</text>
<text text-anchor="start" x="458.5" y="-18.5" font-family="Helvetica,sans-Serif" font-size="10.00">/pinhao/lib/PerformanceAnalyser</text>
<text text-anchor="middle" x="529.5" y="-7.5" font-family="Helvetica,sans-Serif" font-size="10.00">/GEOSWrapper.cpp</text>
</a>
</g>
</g>
<!-- Node5&#45;&gt;Node8 -->
<g id="edge3" class="edge"><title>Node5&#45;&gt;Node8</title>
<path fill="none" stroke="midnightblue" d="M407.107,-85.0576C429.518,-74.5186 454.551,-62.7461 476.111,-52.6075"/>
<polygon fill="midnightblue" stroke="midnightblue" points="405.569,-81.9131 398.01,-89.336 408.548,-88.2476 405.569,-81.9131"/>
</g>
</g>
</svg>
