<?xml version="1.0" encoding="UTF-8" standalone="no"?>
<!DOCTYPE svg PUBLIC "-//W3C//DTD SVG 1.1//EN"
 "http://www.w3.org/Graphics/SVG/1.1/DTD/svg11.dtd">
<!-- Generated by graphviz version 2.38.0 (20140413.2041)
 -->
<!-- Title: /home/yukiosir/workspace/CompilerProject/Software/pinhao/lib/FeaturesImpl/GEOSFeatures/GEOSBasicBlockFreqFeature.cpp Pages: 1 -->
<svg width="1012pt" height="598pt"
 viewBox="0.00 0.00 1011.50 598.00" xmlns="http://www.w3.org/2000/svg" xmlns:xlink="http://www.w3.org/1999/xlink">
<g id="graph0" class="graph" transform="scale(1 1) rotate(0) translate(4 594)">
<title>/home/yukiosir/workspace/CompilerProject/Software/pinhao/lib/FeaturesImpl/GEOSFeatures/GEOSBasicBlockFreqFeature.cpp</title>
<polygon fill="white" stroke="none" points="-4,4 -4,-594 1007.5,-594 1007.5,4 -4,4"/>
<!-- Node0 -->
<g id="node1" class="node"><title>Node0</title>
<polygon fill="#bfbfbf" stroke="black" points="704,-537.5 704,-589.5 943,-589.5 943,-537.5 704,-537.5"/>
<text text-anchor="start" x="712" y="-577.5" font-family="Helvetica,sans-Serif" font-size="10.00">/home/yukiosir/workspace</text>
<text text-anchor="start" x="712" y="-566.5" font-family="Helvetica,sans-Serif" font-size="10.00">/CompilerProject/Software</text>
<text text-anchor="start" x="712" y="-555.5" font-family="Helvetica,sans-Serif" font-size="10.00">/pinhao/lib/FeaturesImpl</text>
<text text-anchor="middle" x="823.5" y="-544.5" font-family="Helvetica,sans-Serif" font-size="10.00">/GEOSFeatures/GEOSBasicBlockFreqFeature.cpp</text>
</g>
<!-- Node1 -->
<g id="node2" class="node"><title>Node1</title>
<g id="a_node2"><a xlink:href="InitializationRoutines_8h.html" target="_top" xlink:title="pinhao/InitializationRoutines.h">
<polygon fill="white" stroke="black" points="683,-425.5 683,-444.5 830,-444.5 830,-425.5 683,-425.5"/>
<text text-anchor="middle" x="756.5" y="-432.5" font-family="Helvetica,sans-Serif" font-size="10.00">pinhao/InitializationRoutines.h</text>
</a>
</g>
</g>
<!-- Node0&#45;&gt;Node1 -->
<g id="edge1" class="edge"><title>Node0&#45;&gt;Node1</title>
<path fill="none" stroke="midnightblue" d="M810.103,-537.205C796.982,-512.432 777.332,-475.332 765.825,-453.605"/>
<polygon fill="midnightblue" stroke="midnightblue" points="768.802,-451.749 761.028,-444.55 762.616,-455.025 768.802,-451.749"/>
</g>
<!-- Node3 -->
<g id="node4" class="node"><title>Node3</title>
<g id="a_node4"><a xlink:href="MapFeature_8h.html" target="_top" xlink:title="pinhao/Features/MapFeature.h">
<polygon fill="white" stroke="black" points="491,-481.5 491,-500.5 640,-500.5 640,-481.5 491,-481.5"/>
<text text-anchor="middle" x="565.5" y="-488.5" font-family="Helvetica,sans-Serif" font-size="10.00">pinhao/Features/MapFeature.h</text>
</a>
</g>
</g>
<!-- Node0&#45;&gt;Node3 -->
<g id="edge3" class="edge"><title>Node0&#45;&gt;Node3</title>
<path fill="none" stroke="midnightblue" d="M731.812,-537.446C689.022,-525.753 640.239,-512.423 606.626,-503.238"/>
<polygon fill="midnightblue" stroke="midnightblue" points="607.274,-499.787 596.705,-500.527 605.429,-506.539 607.274,-499.787"/>
</g>
<!-- Node24 -->
<g id="node25" class="node"><title>Node24</title>
<g id="a_node25"><a xlink:href="GEOSWrapper_8h.html" target="_top" xlink:title="pinhao/PerformanceAnalyser\l/GEOSWrapper.h">
<polygon fill="white" stroke="black" points="787.5,-179.5 787.5,-209.5 929.5,-209.5 929.5,-179.5 787.5,-179.5"/>
<text text-anchor="start" x="795.5" y="-197.5" font-family="Helvetica,sans-Serif" font-size="10.00">pinhao/PerformanceAnalyser</text>
<text text-anchor="middle" x="858.5" y="-186.5" font-family="Helvetica,sans-Serif" font-size="10.00">/GEOSWrapper.h</text>
</a>
</g>
</g>
<!-- Node0&#45;&gt;Node24 -->
<g id="edge41" class="edge"><title>Node0&#45;&gt;Node24</title>
<path fill="none" stroke="midnightblue" d="M834.767,-537.383C844.998,-512.255 858.5,-472.231 858.5,-436 858.5,-436 858.5,-436 858.5,-311 858.5,-279.495 858.5,-243.155 858.5,-219.783"/>
<polygon fill="midnightblue" stroke="midnightblue" points="862,-219.725 858.5,-209.725 855,-219.725 862,-219.725"/>
</g>
<!-- Node25 -->
<g id="node26" class="node"><title>Node25</title>
<polygon fill="white" stroke="#bfbfbf" points="903.5,-112.5 903.5,-142.5 1003.5,-142.5 1003.5,-112.5 903.5,-112.5"/>
<text text-anchor="start" x="911.5" y="-130.5" font-family="Helvetica,sans-Serif" font-size="10.00">geos/ProfileModule</text>
<text text-anchor="middle" x="953.5" y="-119.5" font-family="Helvetica,sans-Serif" font-size="10.00">/ProfileModule.h</text>
</g>
<!-- Node0&#45;&gt;Node25 -->
<g id="edge46" class="edge"><title>Node0&#45;&gt;Node25</title>
<path fill="none" stroke="midnightblue" d="M878.39,-537.281C915.395,-516.098 957.5,-481.909 957.5,-436 957.5,-436 957.5,-436 957.5,-255 957.5,-219.399 955.898,-178.19 954.721,-152.733"/>
<polygon fill="midnightblue" stroke="midnightblue" points="958.207,-152.356 954.234,-142.535 951.215,-152.691 958.207,-152.356"/>
</g>
<!-- Node2 -->
<g id="node3" class="node"><title>Node2</title>
<polygon fill="white" stroke="#bfbfbf" points="714,-118 714,-137 805,-137 805,-118 714,-118"/>
<text text-anchor="middle" x="759.5" y="-125" font-family="Helvetica,sans-Serif" font-size="10.00">llvm/IR/Module.h</text>
</g>
<!-- Node1&#45;&gt;Node2 -->
<g id="edge2" class="edge"><title>Node1&#45;&gt;Node2</title>
<path fill="none" stroke="midnightblue" d="M756.856,-425.493C757.651,-405.742 759.5,-355.237 759.5,-313 759.5,-313 759.5,-313 759.5,-255 759.5,-216.702 759.5,-171.883 759.5,-147.197"/>
<polygon fill="midnightblue" stroke="midnightblue" points="763,-147.089 759.5,-137.089 756,-147.089 763,-147.089"/>
</g>
<!-- Node4 -->
<g id="node5" class="node"><title>Node4</title>
<g id="a_node5"><a xlink:href="Features_8h.html" target="_top" xlink:title="This file implements some basic feature classes that extends the base class Feature. ">
<polygon fill="white" stroke="black" points="400.5,-246.5 400.5,-265.5 536.5,-265.5 536.5,-246.5 400.5,-246.5"/>
<text text-anchor="middle" x="468.5" y="-253.5" font-family="Helvetica,sans-Serif" font-size="10.00">pinhao/Features/Features.h</text>
</a>
</g>
</g>
<!-- Node3&#45;&gt;Node4 -->
<g id="edge4" class="edge"><title>Node3&#45;&gt;Node4</title>
<path fill="none" stroke="midnightblue" d="M565.644,-481.262C565.696,-459.507 563.951,-401.535 545.5,-358 531.185,-324.223 502.953,-291.689 484.94,-273.049"/>
<polygon fill="midnightblue" stroke="midnightblue" points="487.215,-270.373 477.693,-265.728 482.241,-275.297 487.215,-270.373"/>
</g>
<!-- Node16 -->
<g id="node17" class="node"><title>Node16</title>
<g id="a_node17"><a xlink:href="FeatureYAMLWrapper_8h.html" target="_top" xlink:title="pinhao/Support/FeatureYAMLWrapper.h">
<polygon fill="white" stroke="black" points="277.5,-425.5 277.5,-444.5 467.5,-444.5 467.5,-425.5 277.5,-425.5"/>
<text text-anchor="middle" x="372.5" y="-432.5" font-family="Helvetica,sans-Serif" font-size="10.00">pinhao/Support/FeatureYAMLWrapper.h</text>
</a>
</g>
</g>
<!-- Node3&#45;&gt;Node16 -->
<g id="edge22" class="edge"><title>Node3&#45;&gt;Node16</title>
<path fill="none" stroke="midnightblue" d="M529.83,-481.444C494.919,-472.241 442.277,-457.562 407.576,-447.388"/>
<polygon fill="midnightblue" stroke="midnightblue" points="408.44,-443.994 397.858,-444.516 406.457,-450.707 408.44,-443.994"/>
</g>
<!-- Node22 -->
<g id="node23" class="node"><title>Node22</title>
<g id="a_node23"><a xlink:href="Iterator_8h.html" target="_top" xlink:title="pinhao/Support/Iterator.h">
<polygon fill="white" stroke="black" points="593.5,-302.5 593.5,-321.5 717.5,-321.5 717.5,-302.5 593.5,-302.5"/>
<text text-anchor="middle" x="655.5" y="-309.5" font-family="Helvetica,sans-Serif" font-size="10.00">pinhao/Support/Iterator.h</text>
</a>
</g>
</g>
<!-- Node3&#45;&gt;Node22 -->
<g id="edge40" class="edge"><title>Node3&#45;&gt;Node22</title>
<path fill="none" stroke="midnightblue" d="M569.841,-481.463C583.706,-454.195 627.136,-368.783 646.28,-331.133"/>
<polygon fill="midnightblue" stroke="midnightblue" points="649.578,-332.369 650.991,-321.868 643.338,-329.196 649.578,-332.369"/>
</g>
<!-- Node5 -->
<g id="node6" class="node"><title>Node5</title>
<g id="a_node6"><a xlink:href="Feature_8h.html" target="_top" xlink:title="This file defines the base feature class. ">
<polygon fill="white" stroke="black" points="349,-185 349,-204 480,-204 480,-185 349,-185"/>
<text text-anchor="middle" x="414.5" y="-192" font-family="Helvetica,sans-Serif" font-size="10.00">pinhao/Features/Feature.h</text>
</a>
</g>
</g>
<!-- Node4&#45;&gt;Node5 -->
<g id="edge5" class="edge"><title>Node4&#45;&gt;Node5</title>
<path fill="none" stroke="midnightblue" d="M460.763,-246.475C452.503,-237.373 439.223,-222.741 429.006,-211.483"/>
<polygon fill="midnightblue" stroke="midnightblue" points="431.535,-209.062 422.223,-204.009 426.351,-213.766 431.535,-209.062"/>
</g>
<!-- Node5&#45;&gt;Node2 -->
<g id="edge17" class="edge"><title>Node5&#45;&gt;Node2</title>
<path fill="none" stroke="midnightblue" d="M459.957,-184.936C522.873,-173.082 636.382,-151.696 704.154,-138.928"/>
<polygon fill="midnightblue" stroke="midnightblue" points="705.037,-142.323 714.216,-137.032 703.741,-135.444 705.037,-142.323"/>
</g>
<!-- Node6 -->
<g id="node7" class="node"><title>Node6</title>
<g id="a_node7"><a xlink:href="FeatureInfo_8h.html" target="_top" xlink:title="This file defines a class that holds some informations about a feature. ">
<polygon fill="white" stroke="black" points="288,-118 288,-137 435,-137 435,-118 288,-118"/>
<text text-anchor="middle" x="361.5" y="-125" font-family="Helvetica,sans-Serif" font-size="10.00">pinhao/Features/FeatureInfo.h</text>
</a>
</g>
</g>
<!-- Node5&#45;&gt;Node6 -->
<g id="edge6" class="edge"><title>Node5&#45;&gt;Node6</title>
<path fill="none" stroke="midnightblue" d="M407.352,-184.734C399.087,-174.598 385.301,-157.69 374.999,-145.056"/>
<polygon fill="midnightblue" stroke="midnightblue" points="377.567,-142.666 368.535,-137.127 372.141,-147.089 377.567,-142.666"/>
</g>
<!-- Node9 -->
<g id="node10" class="node"><title>Node9</title>
<polygon fill="white" stroke="#bfbfbf" points="545,-56.5 545,-75.5 580,-75.5 580,-56.5 545,-56.5"/>
<text text-anchor="middle" x="562.5" y="-63.5" font-family="Helvetica,sans-Serif" font-size="10.00">map</text>
</g>
<!-- Node5&#45;&gt;Node9 -->
<g id="edge19" class="edge"><title>Node5&#45;&gt;Node9</title>
<path fill="none" stroke="midnightblue" d="M480.115,-186.884C536.042,-179.729 610.199,-166.123 628.5,-143 637.051,-132.197 634.938,-124.181 628.5,-112 620.208,-96.3095 603.714,-85.0612 589.29,-77.7346"/>
<polygon fill="midnightblue" stroke="midnightblue" points="590.757,-74.557 580.217,-73.4791 587.784,-80.8945 590.757,-74.557"/>
</g>
<!-- Node11 -->
<g id="node12" class="node"><title>Node11</title>
<polygon fill="white" stroke="#bfbfbf" points="235,-56.5 235,-75.5 284,-75.5 284,-56.5 235,-56.5"/>
<text text-anchor="middle" x="259.5" y="-63.5" font-family="Helvetica,sans-Serif" font-size="10.00">cassert</text>
</g>
<!-- Node5&#45;&gt;Node11 -->
<g id="edge20" class="edge"><title>Node5&#45;&gt;Node11</title>
<path fill="none" stroke="midnightblue" d="M357.201,-184.953C329.8,-178.023 298.658,-165.52 278.5,-143 264.497,-127.356 260.473,-102.943 259.485,-86.0253"/>
<polygon fill="midnightblue" stroke="midnightblue" points="262.975,-85.6103 259.201,-75.7106 255.978,-85.8032 262.975,-85.6103"/>
</g>
<!-- Node12 -->
<g id="node13" class="node"><title>Node12</title>
<g id="a_node13"><a xlink:href="FeatureRegistry_8h.html" target="_top" xlink:title="This file defines a class that has all the registered features. ">
<polygon fill="white" stroke="black" points="453,-118 453,-137 620,-137 620,-118 453,-118"/>
<text text-anchor="middle" x="536.5" y="-125" font-family="Helvetica,sans-Serif" font-size="10.00">pinhao/Features/FeatureRegistry.h</text>
</a>
</g>
</g>
<!-- Node5&#45;&gt;Node12 -->
<g id="edge13" class="edge"><title>Node5&#45;&gt;Node12</title>
<path fill="none" stroke="midnightblue" d="M430.701,-184.869C451.3,-173.893 487.091,-154.824 511.277,-141.938"/>
<polygon fill="midnightblue" stroke="midnightblue" points="513.053,-144.958 520.232,-137.167 509.761,-138.78 513.053,-144.958"/>
</g>
<!-- Node14 -->
<g id="node15" class="node"><title>Node14</title>
<polygon fill="white" stroke="#bfbfbf" points="0,-118 0,-137 89,-137 89,-118 0,-118"/>
<text text-anchor="middle" x="44.5" y="-125" font-family="Helvetica,sans-Serif" font-size="10.00">yaml&#45;cpp/yaml.h</text>
</g>
<!-- Node5&#45;&gt;Node14 -->
<g id="edge18" class="edge"><title>Node5&#45;&gt;Node14</title>
<path fill="none" stroke="midnightblue" d="M348.77,-185.024C284.596,-176.273 184.345,-161.333 98.5,-143 93.7654,-141.989 88.8259,-140.821 83.9412,-139.597"/>
<polygon fill="midnightblue" stroke="midnightblue" points="84.6332,-136.16 74.0745,-137.035 82.8739,-142.936 84.6332,-136.16"/>
</g>
<!-- Node15 -->
<g id="node16" class="node"><title>Node15</title>
<polygon fill="white" stroke="#bfbfbf" points="177.5,-118 177.5,-137 231.5,-137 231.5,-118 177.5,-118"/>
<text text-anchor="middle" x="204.5" y="-125" font-family="Helvetica,sans-Serif" font-size="10.00">iostream</text>
</g>
<!-- Node5&#45;&gt;Node15 -->
<g id="edge21" class="edge"><title>Node5&#45;&gt;Node15</title>
<path fill="none" stroke="midnightblue" d="M384.136,-184.918C350.2,-175.213 293.684,-158.709 245.5,-143 243.05,-142.201 240.525,-141.358 237.989,-140.496"/>
<polygon fill="midnightblue" stroke="midnightblue" points="238.875,-137.099 228.28,-137.134 236.584,-143.714 238.875,-137.099"/>
</g>
<!-- Node7 -->
<g id="node8" class="node"><title>Node7</title>
<g id="a_node8"><a xlink:href="Types_8h.html" target="_top" xlink:title="pinhao/Support/Types.h">
<polygon fill="white" stroke="black" points="301.5,-56.5 301.5,-75.5 421.5,-75.5 421.5,-56.5 301.5,-56.5"/>
<text text-anchor="middle" x="361.5" y="-63.5" font-family="Helvetica,sans-Serif" font-size="10.00">pinhao/Support/Types.h</text>
</a>
</g>
</g>
<!-- Node6&#45;&gt;Node7 -->
<g id="edge7" class="edge"><title>Node6&#45;&gt;Node7</title>
<path fill="none" stroke="midnightblue" d="M361.5,-117.975C361.5,-109.58 361.5,-96.4806 361.5,-85.6631"/>
<polygon fill="midnightblue" stroke="midnightblue" points="365,-85.5091 361.5,-75.5091 358,-85.5091 365,-85.5091"/>
</g>
<!-- Node8 -->
<g id="node9" class="node"><title>Node8</title>
<polygon fill="white" stroke="#bfbfbf" points="385,-0.5 385,-19.5 426,-19.5 426,-0.5 385,-0.5"/>
<text text-anchor="middle" x="405.5" y="-7.5" font-family="Helvetica,sans-Serif" font-size="10.00">string</text>
</g>
<!-- Node6&#45;&gt;Node8 -->
<g id="edge11" class="edge"><title>Node6&#45;&gt;Node8</title>
<path fill="none" stroke="midnightblue" d="M382.011,-117.909C398.468,-109.783 420.426,-95.8578 430.5,-76 438.5,-60.2308 429.2,-41.265 419.756,-27.9016"/>
<polygon fill="midnightblue" stroke="midnightblue" points="422.279,-25.4416 413.405,-19.6532 416.733,-29.712 422.279,-25.4416"/>
</g>
<!-- Node6&#45;&gt;Node9 -->
<g id="edge9" class="edge"><title>Node6&#45;&gt;Node9</title>
<path fill="none" stroke="midnightblue" d="M390.298,-117.975C428.896,-106.549 496.935,-86.4085 534.908,-75.1678"/>
<polygon fill="midnightblue" stroke="midnightblue" points="536.176,-78.4426 544.771,-72.248 534.189,-71.7305 536.176,-78.4426"/>
</g>
<!-- Node10 -->
<g id="node11" class="node"><title>Node10</title>
<polygon fill="white" stroke="#bfbfbf" points="703.5,-56.5 703.5,-75.5 747.5,-75.5 747.5,-56.5 703.5,-56.5"/>
<text text-anchor="middle" x="725.5" y="-63.5" font-family="Helvetica,sans-Serif" font-size="10.00">vector</text>
</g>
<!-- Node6&#45;&gt;Node10 -->
<g id="edge10" class="edge"><title>Node6&#45;&gt;Node10</title>
<path fill="none" stroke="midnightblue" d="M409.173,-117.931C420.423,-115.947 432.38,-113.87 443.5,-112 533.836,-96.8064 640.675,-80.1029 693.135,-71.984"/>
<polygon fill="midnightblue" stroke="midnightblue" points="693.831,-75.4179 703.179,-70.4315 692.762,-68.5 693.831,-75.4179"/>
</g>
<!-- Node6&#45;&gt;Node11 -->
<g id="edge12" class="edge"><title>Node6&#45;&gt;Node11</title>
<path fill="none" stroke="midnightblue" d="M346.886,-117.975C330.147,-108.211 302.496,-92.0807 282.781,-80.5808"/>
<polygon fill="midnightblue" stroke="midnightblue" points="284.488,-77.5246 274.087,-75.5091 280.961,-83.5711 284.488,-77.5246"/>
</g>
<!-- Node7&#45;&gt;Node8 -->
<g id="edge8" class="edge"><title>Node7&#45;&gt;Node8</title>
<path fill="none" stroke="midnightblue" d="M368.766,-56.083C375.045,-48.3768 384.288,-37.0333 391.931,-27.6531"/>
<polygon fill="midnightblue" stroke="midnightblue" points="394.766,-29.7143 398.369,-19.7511 389.339,-25.2926 394.766,-29.7143"/>
</g>
<!-- Node12&#45;&gt;Node9 -->
<g id="edge16" class="edge"><title>Node12&#45;&gt;Node9</title>
<path fill="none" stroke="midnightblue" d="M540.225,-117.975C543.971,-109.404 549.86,-95.9269 554.642,-84.983"/>
<polygon fill="midnightblue" stroke="midnightblue" points="557.985,-86.0739 558.782,-75.5091 551.57,-83.271 557.985,-86.0739"/>
</g>
<!-- Node12&#45;&gt;Node11 -->
<g id="edge15" class="edge"><title>Node12&#45;&gt;Node11</title>
<path fill="none" stroke="midnightblue" d="M490.892,-117.94C443.846,-108.914 368.138,-93.8455 294.261,-76.3225"/>
<polygon fill="midnightblue" stroke="midnightblue" points="294.863,-72.868 284.324,-73.9477 293.236,-79.6763 294.863,-72.868"/>
</g>
<!-- Node13 -->
<g id="node14" class="node"><title>Node13</title>
<polygon fill="white" stroke="#bfbfbf" points="818.5,-56.5 818.5,-75.5 870.5,-75.5 870.5,-56.5 818.5,-56.5"/>
<text text-anchor="middle" x="844.5" y="-63.5" font-family="Helvetica,sans-Serif" font-size="10.00">memory</text>
</g>
<!-- Node12&#45;&gt;Node13 -->
<g id="edge14" class="edge"><title>Node12&#45;&gt;Node13</title>
<path fill="none" stroke="midnightblue" d="M580.629,-117.975C641.856,-106.147 751.43,-84.9793 808.191,-74.0143"/>
<polygon fill="midnightblue" stroke="midnightblue" points="808.996,-77.4235 818.151,-72.0902 807.668,-70.5506 808.996,-77.4235"/>
</g>
<!-- Node16&#45;&gt;Node3 -->
<g id="edge32" class="edge"><title>Node16&#45;&gt;Node3</title>
<path fill="none" stroke="midnightblue" d="M408.018,-444.516C442.877,-453.703 495.52,-468.381 530.273,-478.568"/>
<polygon fill="midnightblue" stroke="midnightblue" points="529.425,-481.967 540.007,-481.444 531.409,-475.254 529.425,-481.967"/>
</g>
<!-- Node17 -->
<g id="node18" class="node"><title>Node17</title>
<g id="a_node18"><a xlink:href="YAMLWrapper_8h.html" target="_top" xlink:title="pinhao/Support/YAMLWrapper.h">
<polygon fill="white" stroke="black" points="106,-185 106,-204 263,-204 263,-185 106,-185"/>
<text text-anchor="middle" x="184.5" y="-192" font-family="Helvetica,sans-Serif" font-size="10.00">pinhao/Support/YAMLWrapper.h</text>
</a>
</g>
</g>
<!-- Node16&#45;&gt;Node17 -->
<g id="edge23" class="edge"><title>Node16&#45;&gt;Node17</title>
<path fill="none" stroke="midnightblue" d="M277.258,-425.437C253.367,-418.802 229.898,-407.626 213.5,-389 169.561,-339.092 175.862,-252.371 181.261,-214.316"/>
<polygon fill="midnightblue" stroke="midnightblue" points="184.762,-214.584 182.852,-204.163 177.846,-213.501 184.762,-214.584"/>
</g>
<!-- Node19 -->
<g id="node20" class="node"><title>Node19</title>
<g id="a_node20"><a xlink:href="YamlOptions_8h.html" target="_top" xlink:title="pinhao/Support/YamlOptions.h">
<polygon fill="white" stroke="black" points="5,-302.5 5,-321.5 154,-321.5 154,-302.5 5,-302.5"/>
<text text-anchor="middle" x="79.5" y="-309.5" font-family="Helvetica,sans-Serif" font-size="10.00">pinhao/Support/YamlOptions.h</text>
</a>
</g>
</g>
<!-- Node16&#45;&gt;Node19 -->
<g id="edge27" class="edge"><title>Node16&#45;&gt;Node19</title>
<path fill="none" stroke="midnightblue" d="M301.998,-425.471C263.542,-418.961 215.889,-407.791 176.5,-389 144.351,-373.662 112.989,-346.127 94.9896,-328.748"/>
<polygon fill="midnightblue" stroke="midnightblue" points="97.2809,-326.092 87.7051,-321.559 92.3637,-331.074 97.2809,-326.092"/>
</g>
<!-- Node20 -->
<g id="node21" class="node"><title>Node20</title>
<g id="a_node21"><a xlink:href="VectorFeature_8h.html" target="_top" xlink:title="pinhao/Features/VectorFeature.h">
<polygon fill="white" stroke="black" points="223,-364 223,-383 382,-383 382,-364 223,-364"/>
<text text-anchor="middle" x="302.5" y="-371" font-family="Helvetica,sans-Serif" font-size="10.00">pinhao/Features/VectorFeature.h</text>
</a>
</g>
</g>
<!-- Node16&#45;&gt;Node20 -->
<g id="edge29" class="edge"><title>Node16&#45;&gt;Node20</title>
<path fill="none" stroke="midnightblue" d="M357.57,-425.475C344.754,-416.285 326.933,-401.456 314.893,-390.156"/>
<polygon fill="midnightblue" stroke="midnightblue" points="317.201,-387.517 307.614,-383.009 312.297,-392.512 317.201,-387.517"/>
</g>
<!-- Node21 -->
<g id="node22" class="node"><title>Node21</title>
<g id="a_node22"><a xlink:href="MapVectorFeature_8h.html" target="_top" xlink:title="pinhao/Features/MapVector\lFeature.h">
<polygon fill="white" stroke="black" points="400,-358.5 400,-388.5 537,-388.5 537,-358.5 400,-358.5"/>
<text text-anchor="start" x="408" y="-376.5" font-family="Helvetica,sans-Serif" font-size="10.00">pinhao/Features/MapVector</text>
<text text-anchor="middle" x="468.5" y="-365.5" font-family="Helvetica,sans-Serif" font-size="10.00">Feature.h</text>
</a>
</g>
</g>
<!-- Node16&#45;&gt;Node21 -->
<g id="edge33" class="edge"><title>Node16&#45;&gt;Node21</title>
<path fill="none" stroke="midnightblue" d="M381.354,-425.475C392.913,-417.191 413.189,-404.325 431.348,-393.591"/>
<polygon fill="midnightblue" stroke="midnightblue" points="433.167,-396.582 440.045,-388.523 429.643,-390.534 433.167,-396.582"/>
</g>
<!-- Node17&#45;&gt;Node14 -->
<g id="edge24" class="edge"><title>Node17&#45;&gt;Node14</title>
<path fill="none" stroke="midnightblue" d="M165.909,-184.869C141.956,-173.748 100.105,-154.317 72.3463,-141.429"/>
<polygon fill="midnightblue" stroke="midnightblue" points="73.7118,-138.204 63.1678,-137.167 70.764,-144.553 73.7118,-138.204"/>
</g>
<!-- Node17&#45;&gt;Node15 -->
<g id="edge25" class="edge"><title>Node17&#45;&gt;Node15</title>
<path fill="none" stroke="midnightblue" d="M187.197,-184.734C190.166,-175.085 195.023,-159.3 198.837,-146.906"/>
<polygon fill="midnightblue" stroke="midnightblue" points="202.25,-147.714 201.845,-137.127 195.559,-145.656 202.25,-147.714"/>
</g>
<!-- Node18 -->
<g id="node19" class="node"><title>Node18</title>
<polygon fill="white" stroke="#bfbfbf" points="107.5,-118 107.5,-137 159.5,-137 159.5,-118 107.5,-118"/>
<text text-anchor="middle" x="133.5" y="-125" font-family="Helvetica,sans-Serif" font-size="10.00">ostream</text>
</g>
<!-- Node17&#45;&gt;Node18 -->
<g id="edge26" class="edge"><title>Node17&#45;&gt;Node18</title>
<path fill="none" stroke="midnightblue" d="M177.622,-184.734C169.669,-174.598 156.403,-157.69 146.49,-145.056"/>
<polygon fill="midnightblue" stroke="midnightblue" points="149.196,-142.834 140.269,-137.127 143.688,-147.155 149.196,-142.834"/>
</g>
<!-- Node19&#45;&gt;Node14 -->
<g id="edge28" class="edge"><title>Node19&#45;&gt;Node14</title>
<path fill="none" stroke="midnightblue" d="M77.8119,-302.198C72.418,-274.073 55.5193,-185.958 48.0781,-147.157"/>
<polygon fill="midnightblue" stroke="midnightblue" points="51.4921,-146.376 46.1712,-137.214 44.6174,-147.694 51.4921,-146.376"/>
</g>
<!-- Node20&#45;&gt;Node4 -->
<g id="edge30" class="edge"><title>Node20&#45;&gt;Node4</title>
<path fill="none" stroke="midnightblue" d="M314.977,-363.819C343.217,-344.17 412.292,-296.109 447.348,-271.717"/>
<polygon fill="midnightblue" stroke="midnightblue" points="449.669,-274.366 455.878,-265.782 445.671,-268.62 449.669,-274.366"/>
</g>
<!-- Node20&#45;&gt;Node16 -->
<g id="edge31" class="edge"><title>Node20&#45;&gt;Node16</title>
<path fill="none" stroke="midnightblue" d="M317.408,-383.009C330.218,-392.193 348.039,-407.02 360.086,-418.325"/>
<polygon fill="midnightblue" stroke="midnightblue" points="357.783,-420.968 367.371,-425.475 362.686,-415.972 357.783,-420.968"/>
</g>
<!-- Node21&#45;&gt;Node4 -->
<g id="edge34" class="edge"><title>Node21&#45;&gt;Node4</title>
<path fill="none" stroke="midnightblue" d="M468.5,-358.337C468.5,-337.622 468.5,-299.016 468.5,-275.899"/>
<polygon fill="midnightblue" stroke="midnightblue" points="472,-275.669 468.5,-265.669 465,-275.669 472,-275.669"/>
</g>
<!-- Node21&#45;&gt;Node16 -->
<g id="edge35" class="edge"><title>Node21&#45;&gt;Node16</title>
<path fill="none" stroke="midnightblue" d="M451.705,-388.523C437.344,-398.199 416.681,-410.991 399.968,-420.542"/>
<polygon fill="midnightblue" stroke="midnightblue" points="398.172,-417.537 391.155,-425.475 401.591,-423.645 398.172,-417.537"/>
</g>
<!-- Node21&#45;&gt;Node22 -->
<g id="edge36" class="edge"><title>Node21&#45;&gt;Node22</title>
<path fill="none" stroke="midnightblue" d="M512.816,-358.399C545.129,-348.118 588.398,-334.351 618.786,-324.682"/>
<polygon fill="midnightblue" stroke="midnightblue" points="620.095,-327.938 628.563,-321.571 617.972,-321.268 620.095,-327.938"/>
</g>
<!-- Node22&#45;&gt;Node4 -->
<g id="edge37" class="edge"><title>Node22&#45;&gt;Node4</title>
<path fill="none" stroke="midnightblue" d="M625.869,-302.444C594,-293.241 543.167,-278.562 507.936,-268.388"/>
<polygon fill="midnightblue" stroke="midnightblue" points="508.571,-264.928 497.992,-265.516 506.628,-271.653 508.571,-264.928"/>
</g>
<!-- Node22&#45;&gt;Node9 -->
<g id="edge39" class="edge"><title>Node22&#45;&gt;Node9</title>
<path fill="none" stroke="midnightblue" d="M657.863,-302.164C665.25,-272.519 685.138,-174.93 645.5,-112 633.134,-92.3668 609.065,-80.6869 590.017,-74.1677"/>
<polygon fill="midnightblue" stroke="midnightblue" points="590.919,-70.7828 580.33,-71.1367 588.829,-77.4634 590.919,-70.7828"/>
</g>
<!-- Node23 -->
<g id="node24" class="node"><title>Node23</title>
<polygon fill="white" stroke="#bfbfbf" points="684,-246.5 684,-265.5 731,-265.5 731,-246.5 684,-246.5"/>
<text text-anchor="middle" x="707.5" y="-253.5" font-family="Helvetica,sans-Serif" font-size="10.00">iterator</text>
</g>
<!-- Node22&#45;&gt;Node23 -->
<g id="edge38" class="edge"><title>Node22&#45;&gt;Node23</title>
<path fill="none" stroke="midnightblue" d="M664.087,-302.083C671.659,-294.22 682.878,-282.569 692.014,-273.081"/>
<polygon fill="midnightblue" stroke="midnightblue" points="694.658,-275.382 699.073,-265.751 689.615,-270.527 694.658,-275.382"/>
</g>
<!-- Node24&#45;&gt;Node2 -->
<g id="edge42" class="edge"><title>Node24&#45;&gt;Node2</title>
<path fill="none" stroke="midnightblue" d="M837.018,-179.396C820.416,-168.496 797.544,-153.479 780.95,-142.584"/>
<polygon fill="midnightblue" stroke="midnightblue" points="782.737,-139.57 772.457,-137.007 778.895,-145.421 782.737,-139.57"/>
</g>
<!-- Node24&#45;&gt;Node10 -->
<g id="edge44" class="edge"><title>Node24&#45;&gt;Node10</title>
<path fill="none" stroke="midnightblue" d="M853.71,-179.489C847.074,-161.835 833.584,-131.455 813.5,-112 797.516,-96.516 775.142,-85.1713 756.954,-77.7459"/>
<polygon fill="midnightblue" stroke="midnightblue" points="758.204,-74.4767 747.616,-74.1209 755.671,-81.0024 758.204,-74.4767"/>
</g>
<!-- Node24&#45;&gt;Node13 -->
<g id="edge45" class="edge"><title>Node24&#45;&gt;Node13</title>
<path fill="none" stroke="midnightblue" d="M856.948,-179.479C854.429,-156.719 849.447,-111.702 846.609,-86.0582"/>
<polygon fill="midnightblue" stroke="midnightblue" points="850.051,-85.3428 845.473,-75.7885 843.094,-86.1129 850.051,-85.3428"/>
</g>
<!-- Node24&#45;&gt;Node25 -->
<g id="edge43" class="edge"><title>Node24&#45;&gt;Node25</title>
<path fill="none" stroke="midnightblue" d="M879.114,-179.396C892.434,-170.282 909.961,-158.29 924.655,-148.236"/>
<polygon fill="midnightblue" stroke="midnightblue" points="926.65,-151.112 932.927,-142.577 922.697,-145.335 926.65,-151.112"/>
</g>
</g>
</svg>
