<?xml version="1.0" encoding="UTF-8" standalone="no"?>
<!DOCTYPE svg PUBLIC "-//W3C//DTD SVG 1.1//EN"
 "http://www.w3.org/Graphics/SVG/1.1/DTD/svg11.dtd">
<!-- Generated by graphviz version 2.38.0 (20140413.2041)
 -->
<!-- Title: /home/yukiosir/workspace/CompilerProject/Software/pinhao/include/pinhao/MachineLearning/GrammarEvolution/GrammarEvolution.h Pages: 1 -->
<svg width="782pt" height="239pt"
 viewBox="0.00 0.00 781.50 239.00" xmlns="http://www.w3.org/2000/svg" xmlns:xlink="http://www.w3.org/1999/xlink">
<g id="graph0" class="graph" transform="scale(1 1) rotate(0) translate(4 235)">
<title>/home/yukiosir/workspace/CompilerProject/Software/pinhao/include/pinhao/MachineLearning/GrammarEvolution/GrammarEvolution.h</title>
<polygon fill="white" stroke="none" points="-4,4 -4,-235 777.5,-235 777.5,4 -4,4"/>
<!-- Node18 -->
<g id="node1" class="node"><title>Node18</title>
<polygon fill="#bfbfbf" stroke="black" points="346,-178.5 346,-230.5 539,-230.5 539,-178.5 346,-178.5"/>
<text text-anchor="start" x="354" y="-218.5" font-family="Helvetica,sans-Serif" font-size="10.00">/home/yukiosir/workspace</text>
<text text-anchor="start" x="354" y="-207.5" font-family="Helvetica,sans-Serif" font-size="10.00">/CompilerProject/Software</text>
<text text-anchor="start" x="354" y="-196.5" font-family="Helvetica,sans-Serif" font-size="10.00">/pinhao/include/pinhao/MachineLearning</text>
<text text-anchor="middle" x="442.5" y="-185.5" font-family="Helvetica,sans-Serif" font-size="10.00">/GrammarEvolution/GrammarEvolution.h</text>
</g>
<!-- Node19 -->
<g id="node2" class="node"><title>Node19</title>
<g id="a_node2"><a xlink:href="SimpleGrammarEvolution_8h.html" target="_top" xlink:title="/home/yukiosir/workspace\l/CompilerProject/Software\l/pinhao/include/pinhao/MachineLearning\l/GrammarEvolution/SimpleGrammarEvolution.h">
<polygon fill="white" stroke="black" points="118,-89.5 118,-141.5 341,-141.5 341,-89.5 118,-89.5"/>
<text text-anchor="start" x="126" y="-129.5" font-family="Helvetica,sans-Serif" font-size="10.00">/home/yukiosir/workspace</text>
<text text-anchor="start" x="126" y="-118.5" font-family="Helvetica,sans-Serif" font-size="10.00">/CompilerProject/Software</text>
<text text-anchor="start" x="126" y="-107.5" font-family="Helvetica,sans-Serif" font-size="10.00">/pinhao/include/pinhao/MachineLearning</text>
<text text-anchor="middle" x="229.5" y="-96.5" font-family="Helvetica,sans-Serif" font-size="10.00">/GrammarEvolution/SimpleGrammarEvolution.h</text>
</a>
</g>
</g>
<!-- Node18&#45;&gt;Node19 -->
<g id="edge1" class="edge"><title>Node18&#45;&gt;Node19</title>
<path fill="none" stroke="midnightblue" d="M371.687,-174.576C345.49,-163.876 316.036,-151.846 290.759,-141.521"/>
<polygon fill="midnightblue" stroke="midnightblue" points="370.596,-177.912 381.177,-178.453 373.243,-171.431 370.596,-177.912"/>
</g>
<!-- Node22 -->
<g id="node5" class="node"><title>Node22</title>
<g id="a_node5"><a xlink:href="Candidate_8cpp.html" target="_top" xlink:title="/home/yukiosir/workspace\l/CompilerProject/Software\l/pinhao/lib/MachineLearning\l/GrammarEvolution/Candidate.cpp">
<polygon fill="white" stroke="black" points="359,-89.5 359,-141.5 526,-141.5 526,-89.5 359,-89.5"/>
<text text-anchor="start" x="367" y="-129.5" font-family="Helvetica,sans-Serif" font-size="10.00">/home/yukiosir/workspace</text>
<text text-anchor="start" x="367" y="-118.5" font-family="Helvetica,sans-Serif" font-size="10.00">/CompilerProject/Software</text>
<text text-anchor="start" x="367" y="-107.5" font-family="Helvetica,sans-Serif" font-size="10.00">/pinhao/lib/MachineLearning</text>
<text text-anchor="middle" x="442.5" y="-96.5" font-family="Helvetica,sans-Serif" font-size="10.00">/GrammarEvolution/Candidate.cpp</text>
</a>
</g>
</g>
<!-- Node18&#45;&gt;Node22 -->
<g id="edge4" class="edge"><title>Node18&#45;&gt;Node22</title>
<path fill="none" stroke="midnightblue" d="M442.5,-168.191C442.5,-159.282 442.5,-149.899 442.5,-141.607"/>
<polygon fill="midnightblue" stroke="midnightblue" points="439,-168.336 442.5,-178.336 446,-168.336 439,-168.336"/>
</g>
<!-- Node23 -->
<g id="node6" class="node"><title>Node23</title>
<g id="a_node6"><a xlink:href="CandidateYAMLWrapper_8cpp.html" target="_top" xlink:title="/home/yukiosir/workspace\l/CompilerProject/Software\l/pinhao/lib/MachineLearning\l/GrammarEvolution/CandidateYAMLWrapper.cpp">
<polygon fill="white" stroke="black" points="543.5,-89.5 543.5,-141.5 773.5,-141.5 773.5,-89.5 543.5,-89.5"/>
<text text-anchor="start" x="551.5" y="-129.5" font-family="Helvetica,sans-Serif" font-size="10.00">/home/yukiosir/workspace</text>
<text text-anchor="start" x="551.5" y="-118.5" font-family="Helvetica,sans-Serif" font-size="10.00">/CompilerProject/Software</text>
<text text-anchor="start" x="551.5" y="-107.5" font-family="Helvetica,sans-Serif" font-size="10.00">/pinhao/lib/MachineLearning</text>
<text text-anchor="middle" x="658.5" y="-96.5" font-family="Helvetica,sans-Serif" font-size="10.00">/GrammarEvolution/CandidateYAMLWrapper.cpp</text>
</a>
</g>
</g>
<!-- Node18&#45;&gt;Node23 -->
<g id="edge5" class="edge"><title>Node18&#45;&gt;Node23</title>
<path fill="none" stroke="midnightblue" d="M514.31,-174.576C540.876,-163.876 570.745,-151.846 596.379,-141.521"/>
<polygon fill="midnightblue" stroke="midnightblue" points="512.655,-171.47 504.686,-178.453 515.27,-177.963 512.655,-171.47"/>
</g>
<!-- Node20 -->
<g id="node3" class="node"><title>Node20</title>
<g id="a_node3"><a xlink:href="SimpleGrammarEvolution_8cpp.html" target="_top" xlink:title="/home/yukiosir/workspace\l/CompilerProject/Software\l/pinhao/lib/MachineLearning\l/GrammarEvolution/SimpleGrammarEvolution.cpp">
<polygon fill="white" stroke="black" points="0,-0.5 0,-52.5 233,-52.5 233,-0.5 0,-0.5"/>
<text text-anchor="start" x="8" y="-40.5" font-family="Helvetica,sans-Serif" font-size="10.00">/home/yukiosir/workspace</text>
<text text-anchor="start" x="8" y="-29.5" font-family="Helvetica,sans-Serif" font-size="10.00">/CompilerProject/Software</text>
<text text-anchor="start" x="8" y="-18.5" font-family="Helvetica,sans-Serif" font-size="10.00">/pinhao/lib/MachineLearning</text>
<text text-anchor="middle" x="116.5" y="-7.5" font-family="Helvetica,sans-Serif" font-size="10.00">/GrammarEvolution/SimpleGrammarEvolution.cpp</text>
</a>
</g>
</g>
<!-- Node19&#45;&gt;Node20 -->
<g id="edge2" class="edge"><title>Node19&#45;&gt;Node20</title>
<path fill="none" stroke="midnightblue" d="M188.871,-83.219C175.81,-73.1637 161.519,-62.1603 149.111,-52.6075"/>
<polygon fill="midnightblue" stroke="midnightblue" points="186.757,-86.0087 196.816,-89.336 191.027,-80.4622 186.757,-86.0087"/>
</g>
<!-- Node21 -->
<g id="node4" class="node"><title>Node21</title>
<g id="a_node4"><a xlink:href="Main_8cpp.html" target="_top" xlink:title="/home/yukiosir/workspace\l/CompilerProject/Software\l/pinhao/tools/SimpleGrammarEvolution\l/Main.cpp">
<polygon fill="white" stroke="black" points="250.5,-0.5 250.5,-52.5 436.5,-52.5 436.5,-0.5 250.5,-0.5"/>
<text text-anchor="start" x="258.5" y="-40.5" font-family="Helvetica,sans-Serif" font-size="10.00">/home/yukiosir/workspace</text>
<text text-anchor="start" x="258.5" y="-29.5" font-family="Helvetica,sans-Serif" font-size="10.00">/CompilerProject/Software</text>
<text text-anchor="start" x="258.5" y="-18.5" font-family="Helvetica,sans-Serif" font-size="10.00">/pinhao/tools/SimpleGrammarEvolution</text>
<text text-anchor="middle" x="343.5" y="-7.5" font-family="Helvetica,sans-Serif" font-size="10.00">/Main.cpp</text>
</a>
</g>
</g>
<!-- Node19&#45;&gt;Node21 -->
<g id="edge3" class="edge"><title>Node19&#45;&gt;Node21</title>
<path fill="none" stroke="midnightblue" d="M270.489,-83.219C283.665,-73.1637 298.083,-62.1603 310.601,-52.6075"/>
<polygon fill="midnightblue" stroke="midnightblue" points="268.3,-80.4869 262.474,-89.336 272.546,-86.0516 268.3,-80.4869"/>
</g>
</g>
</svg>
