<?xml version="1.0" encoding="UTF-8" standalone="no"?>
<!DOCTYPE svg PUBLIC "-//W3C//DTD SVG 1.1//EN"
 "http://www.w3.org/Graphics/SVG/1.1/DTD/svg11.dtd">
<!-- Generated by graphviz version 2.38.0 (20140413.2041)
 -->
<!-- Title: /home/yukiosir/workspace/CompilerProject/Software/pinhao/include/pinhao/MachineLearning/GrammarEvolution/GrammarEvolution.h Pages: 1 -->
<svg width="935pt" height="251pt"
 viewBox="0.00 0.00 934.54 251.00" xmlns="http://www.w3.org/2000/svg" xmlns:xlink="http://www.w3.org/1999/xlink">
<g id="graph0" class="graph" transform="scale(1 1) rotate(0) translate(4 247)">
<title>/home/yukiosir/workspace/CompilerProject/Software/pinhao/include/pinhao/MachineLearning/GrammarEvolution/GrammarEvolution.h</title>
<polygon fill="white" stroke="none" points="-4,4 -4,-247 930.536,-247 930.536,4 -4,4"/>
<!-- Node0 -->
<g id="node1" class="node"><title>Node0</title>
<polygon fill="#bfbfbf" stroke="black" points="228.036,-190.5 228.036,-242.5 421.036,-242.5 421.036,-190.5 228.036,-190.5"/>
<text text-anchor="start" x="236.036" y="-230.5" font-family="Helvetica,sans-Serif" font-size="10.00">/home/yukiosir/workspace</text>
<text text-anchor="start" x="236.036" y="-219.5" font-family="Helvetica,sans-Serif" font-size="10.00">/CompilerProject/Software</text>
<text text-anchor="start" x="236.036" y="-208.5" font-family="Helvetica,sans-Serif" font-size="10.00">/pinhao/include/pinhao/MachineLearning</text>
<text text-anchor="middle" x="324.536" y="-197.5" font-family="Helvetica,sans-Serif" font-size="10.00">/GrammarEvolution/GrammarEvolution.h</text>
</g>
<!-- Node1 -->
<g id="node2" class="node"><title>Node1</title>
<g id="a_node2"><a xlink:href="Evolution_8h.html" target="_top" xlink:title="pinhao/MachineLearning\l/GrammarEvolution/Evolution.h">
<polygon fill="white" stroke="black" points="15.5355,-123.5 15.5355,-153.5 167.536,-153.5 167.536,-123.5 15.5355,-123.5"/>
<text text-anchor="start" x="23.5355" y="-141.5" font-family="Helvetica,sans-Serif" font-size="10.00">pinhao/MachineLearning</text>
<text text-anchor="middle" x="91.5355" y="-130.5" font-family="Helvetica,sans-Serif" font-size="10.00">/GrammarEvolution/Evolution.h</text>
</a>
</g>
</g>
<!-- Node0&#45;&gt;Node1 -->
<g id="edge1" class="edge"><title>Node0&#45;&gt;Node1</title>
<path fill="none" stroke="midnightblue" d="M247.597,-190.404C213.747,-179.363 174.842,-166.673 144.344,-156.725"/>
<polygon fill="midnightblue" stroke="midnightblue" points="145.347,-153.371 134.754,-153.597 143.176,-160.026 145.347,-153.371"/>
</g>
<!-- Node2 -->
<g id="node3" class="node"><title>Node2</title>
<polygon fill="white" stroke="#bfbfbf" points="16.5355,-62 16.5355,-81 60.5355,-81 60.5355,-62 16.5355,-62"/>
<text text-anchor="middle" x="38.5355" y="-69" font-family="Helvetica,sans-Serif" font-size="10.00">vector</text>
</g>
<!-- Node0&#45;&gt;Node2 -->
<g id="edge22" class="edge"><title>Node0&#45;&gt;Node2</title>
<path fill="none" stroke="midnightblue" d="M227.648,-209.998C144.64,-203.019 34.2266,-187.559 6.53555,-154 -9.4274,-134.654 8.48035,-106.389 23.2287,-88.7396"/>
<polygon fill="midnightblue" stroke="midnightblue" points="26.0561,-90.8256 30.0527,-81.0134 20.8095,-86.1916 26.0561,-90.8256"/>
</g>
<!-- Node5 -->
<g id="node6" class="node"><title>Node5</title>
<g id="a_node6"><a xlink:href="Optimizations_8h.html" target="_top" xlink:title="pinhao/Optimizer/Optimizations.h">
<polygon fill="white" stroke="black" points="324.036,-129 324.036,-148 485.036,-148 485.036,-129 324.036,-129"/>
<text text-anchor="middle" x="404.536" y="-136" font-family="Helvetica,sans-Serif" font-size="10.00">pinhao/Optimizer/Optimizations.h</text>
</a>
</g>
</g>
<!-- Node0&#45;&gt;Node5 -->
<g id="edge5" class="edge"><title>Node0&#45;&gt;Node5</title>
<path fill="none" stroke="midnightblue" d="M351.174,-190.193C363.344,-178.632 377.379,-165.299 387.999,-155.209"/>
<polygon fill="midnightblue" stroke="midnightblue" points="390.529,-157.634 395.368,-148.209 385.708,-152.559 390.529,-157.634"/>
</g>
<!-- Node9 -->
<g id="node10" class="node"><title>Node9</title>
<g id="a_node10"><a xlink:href="SerialSet_8h.html" target="_top" xlink:title="pinhao/Support/SerialSet.h">
<polygon fill="white" stroke="black" points="682.036,-129 682.036,-148 815.036,-148 815.036,-129 682.036,-129"/>
<text text-anchor="middle" x="748.536" y="-136" font-family="Helvetica,sans-Serif" font-size="10.00">pinhao/Support/SerialSet.h</text>
</a>
</g>
</g>
<!-- Node0&#45;&gt;Node9 -->
<g id="edge11" class="edge"><title>Node0&#45;&gt;Node9</title>
<path fill="none" stroke="midnightblue" d="M421.278,-198.159C504.56,-183.231 621.936,-162.192 691.14,-149.788"/>
<polygon fill="midnightblue" stroke="midnightblue" points="691.766,-153.232 700.991,-148.022 690.53,-146.341 691.766,-153.232"/>
</g>
<!-- Node10 -->
<g id="node11" class="node"><title>Node10</title>
<g id="a_node11"><a xlink:href="YAMLWrapper_8h.html" target="_top" xlink:title="pinhao/Support/YAMLWrapper.h">
<polygon fill="white" stroke="black" points="511.036,-62 511.036,-81 668.036,-81 668.036,-62 511.036,-62"/>
<text text-anchor="middle" x="589.536" y="-69" font-family="Helvetica,sans-Serif" font-size="10.00">pinhao/Support/YAMLWrapper.h</text>
</a>
</g>
</g>
<!-- Node0&#45;&gt;Node10 -->
<g id="edge19" class="edge"><title>Node0&#45;&gt;Node10</title>
<path fill="none" stroke="midnightblue" d="M411.861,-190.35C438.948,-180.826 468.295,-168.669 493.536,-154 525.008,-135.709 556.151,-106.736 574.079,-88.7124"/>
<polygon fill="midnightblue" stroke="midnightblue" points="576.856,-90.8786 581.34,-81.2797 571.849,-85.9869 576.856,-90.8786"/>
</g>
<!-- Node17 -->
<g id="node18" class="node"><title>Node17</title>
<g id="a_node18"><a xlink:href="Types_8h.html" target="_top" xlink:title="pinhao/Support/Types.h">
<polygon fill="white" stroke="black" points="185.536,-129 185.536,-148 305.536,-148 305.536,-129 185.536,-129"/>
<text text-anchor="middle" x="245.536" y="-136" font-family="Helvetica,sans-Serif" font-size="10.00">pinhao/Support/Types.h</text>
</a>
</g>
</g>
<!-- Node0&#45;&gt;Node17 -->
<g id="edge20" class="edge"><title>Node0&#45;&gt;Node17</title>
<path fill="none" stroke="midnightblue" d="M298.23,-190.193C286.212,-178.632 272.353,-165.299 261.865,-155.209"/>
<polygon fill="midnightblue" stroke="midnightblue" points="264.221,-152.62 254.588,-148.209 259.368,-157.664 264.221,-152.62"/>
</g>
<!-- Node1&#45;&gt;Node2 -->
<g id="edge2" class="edge"><title>Node1&#45;&gt;Node2</title>
<path fill="none" stroke="midnightblue" d="M80.0353,-123.396C71.8533,-113.361 60.8267,-99.8382 52.1961,-89.2535"/>
<polygon fill="midnightblue" stroke="midnightblue" points="54.6569,-86.7329 45.6249,-81.1945 49.2318,-91.1565 54.6569,-86.7329"/>
</g>
<!-- Node3 -->
<g id="node4" class="node"><title>Node3</title>
<polygon fill="white" stroke="#bfbfbf" points="175.036,-62 175.036,-81 216.036,-81 216.036,-62 175.036,-62"/>
<text text-anchor="middle" x="195.536" y="-69" font-family="Helvetica,sans-Serif" font-size="10.00">string</text>
</g>
<!-- Node1&#45;&gt;Node3 -->
<g id="edge3" class="edge"><title>Node1&#45;&gt;Node3</title>
<path fill="none" stroke="midnightblue" d="M114.102,-123.396C131.543,-112.496 155.57,-97.4787 173.002,-86.5835"/>
<polygon fill="midnightblue" stroke="midnightblue" points="175.299,-89.275 181.924,-81.007 171.589,-83.339 175.299,-89.275"/>
</g>
<!-- Node4 -->
<g id="node5" class="node"><title>Node4</title>
<polygon fill="white" stroke="#bfbfbf" points="78.5355,-62 78.5355,-81 130.536,-81 130.536,-62 78.5355,-62"/>
<text text-anchor="middle" x="104.536" y="-69" font-family="Helvetica,sans-Serif" font-size="10.00">memory</text>
</g>
<!-- Node1&#45;&gt;Node4 -->
<g id="edge4" class="edge"><title>Node1&#45;&gt;Node4</title>
<path fill="none" stroke="midnightblue" d="M94.3564,-123.396C96.2429,-113.963 98.7459,-101.448 100.798,-91.1891"/>
<polygon fill="midnightblue" stroke="midnightblue" points="104.267,-91.6868 102.797,-81.1945 97.4034,-90.3139 104.267,-91.6868"/>
</g>
<!-- Node5&#45;&gt;Node2 -->
<g id="edge9" class="edge"><title>Node5&#45;&gt;Node2</title>
<path fill="none" stroke="midnightblue" d="M352.205,-128.943C339.857,-126.959 326.736,-124.879 314.536,-123 205.76,-106.247 174.944,-118.651 69.5355,-87 67.6577,-86.4361 65.7488,-85.7767 63.8481,-85.0557"/>
<polygon fill="midnightblue" stroke="midnightblue" points="65.1653,-81.8124 54.5947,-81.0951 62.4108,-88.2477 65.1653,-81.8124"/>
</g>
<!-- Node5&#45;&gt;Node3 -->
<g id="edge8" class="edge"><title>Node5&#45;&gt;Node3</title>
<path fill="none" stroke="midnightblue" d="M365.925,-128.921C329.001,-120.194 272.07,-105.36 224.536,-87 223.157,-86.4676 221.757,-85.892 220.353,-85.2875"/>
<polygon fill="midnightblue" stroke="midnightblue" points="221.786,-82.094 211.244,-81.0339 218.824,-88.4365 221.786,-82.094"/>
</g>
<!-- Node6 -->
<g id="node7" class="node"><title>Node6</title>
<polygon fill="white" stroke="#bfbfbf" points="234.036,-62 234.036,-81 325.036,-81 325.036,-62 234.036,-62"/>
<text text-anchor="middle" x="279.536" y="-69" font-family="Helvetica,sans-Serif" font-size="10.00">llvm/IR/Module.h</text>
</g>
<!-- Node5&#45;&gt;Node6 -->
<g id="edge6" class="edge"><title>Node5&#45;&gt;Node6</title>
<path fill="none" stroke="midnightblue" d="M387.937,-128.869C366.83,-117.893 330.159,-98.8243 305.379,-85.9385"/>
<polygon fill="midnightblue" stroke="midnightblue" points="306.69,-82.6755 296.203,-81.1672 303.461,-88.886 306.69,-82.6755"/>
</g>
<!-- Node7 -->
<g id="node8" class="node"><title>Node7</title>
<polygon fill="white" stroke="#bfbfbf" points="343.036,-62 343.036,-81 440.036,-81 440.036,-62 343.036,-62"/>
<text text-anchor="middle" x="391.536" y="-69" font-family="Helvetica,sans-Serif" font-size="10.00">llvm/IR/Function.h</text>
</g>
<!-- Node5&#45;&gt;Node7 -->
<g id="edge7" class="edge"><title>Node5&#45;&gt;Node7</title>
<path fill="none" stroke="midnightblue" d="M402.782,-128.734C400.872,-119.183 397.759,-103.618 395.292,-91.2829"/>
<polygon fill="midnightblue" stroke="midnightblue" points="398.654,-90.2467 393.261,-81.1273 391.79,-91.6195 398.654,-90.2467"/>
</g>
<!-- Node8 -->
<g id="node9" class="node"><title>Node8</title>
<polygon fill="white" stroke="#bfbfbf" points="458.036,-62 458.036,-81 493.036,-81 493.036,-62 458.036,-62"/>
<text text-anchor="middle" x="475.536" y="-69" font-family="Helvetica,sans-Serif" font-size="10.00">map</text>
</g>
<!-- Node5&#45;&gt;Node8 -->
<g id="edge10" class="edge"><title>Node5&#45;&gt;Node8</title>
<path fill="none" stroke="midnightblue" d="M414.111,-128.734C425.502,-118.305 444.723,-100.709 458.634,-87.9732"/>
<polygon fill="midnightblue" stroke="midnightblue" points="461.099,-90.4614 466.112,-81.1273 456.373,-85.2983 461.099,-90.4614"/>
</g>
<!-- Node9&#45;&gt;Node10 -->
<g id="edge12" class="edge"><title>Node9&#45;&gt;Node10</title>
<path fill="none" stroke="midnightblue" d="M727.422,-128.869C699.904,-117.619 651.588,-97.8673 620.076,-84.9853"/>
<polygon fill="midnightblue" stroke="midnightblue" points="621.064,-81.6081 610.484,-81.0637 618.416,-88.0875 621.064,-81.6081"/>
</g>
<!-- Node14 -->
<g id="node15" class="node"><title>Node14</title>
<g id="a_node15"><a xlink:href="SerialSetYAMLWrapper_8h.html" target="_top" xlink:title="pinhao/Support/SerialSet\lYAMLWrapper.h">
<polygon fill="white" stroke="black" points="686.036,-56.5 686.036,-86.5 811.036,-86.5 811.036,-56.5 686.036,-56.5"/>
<text text-anchor="start" x="694.036" y="-74.5" font-family="Helvetica,sans-Serif" font-size="10.00">pinhao/Support/SerialSet</text>
<text text-anchor="middle" x="748.536" y="-63.5" font-family="Helvetica,sans-Serif" font-size="10.00">YAMLWrapper.h</text>
</a>
</g>
</g>
<!-- Node9&#45;&gt;Node14 -->
<g id="edge16" class="edge"><title>Node9&#45;&gt;Node14</title>
<path fill="none" stroke="midnightblue" d="M748.536,-128.734C748.536,-120.541 748.536,-107.923 748.536,-96.7136"/>
<polygon fill="midnightblue" stroke="midnightblue" points="752.036,-96.589 748.536,-86.589 745.036,-96.5891 752.036,-96.589"/>
</g>
<!-- Node15 -->
<g id="node16" class="node"><title>Node15</title>
<polygon fill="white" stroke="#bfbfbf" points="828.536,-62 828.536,-81 858.536,-81 858.536,-62 828.536,-62"/>
<text text-anchor="middle" x="843.536" y="-69" font-family="Helvetica,sans-Serif" font-size="10.00">set</text>
</g>
<!-- Node9&#45;&gt;Node15 -->
<g id="edge17" class="edge"><title>Node9&#45;&gt;Node15</title>
<path fill="none" stroke="midnightblue" d="M761.348,-128.734C777.016,-118.013 803.758,-99.7165 822.469,-86.9137"/>
<polygon fill="midnightblue" stroke="midnightblue" points="824.65,-89.6628 830.926,-81.1273 820.697,-83.8856 824.65,-89.6628"/>
</g>
<!-- Node16 -->
<g id="node17" class="node"><title>Node16</title>
<polygon fill="white" stroke="#bfbfbf" points="876.536,-62 876.536,-81 926.536,-81 926.536,-62 876.536,-62"/>
<text text-anchor="middle" x="901.536" y="-69" font-family="Helvetica,sans-Serif" font-size="10.00">fstream</text>
</g>
<!-- Node9&#45;&gt;Node16 -->
<g id="edge18" class="edge"><title>Node9&#45;&gt;Node16</title>
<path fill="none" stroke="midnightblue" d="M768.754,-128.933C792.434,-118.896 832.84,-101.76 867.536,-87 868.938,-86.4034 870.373,-85.7926 871.822,-85.1756"/>
<polygon fill="midnightblue" stroke="midnightblue" points="873.575,-88.2333 881.402,-81.0933 870.831,-81.7936 873.575,-88.2333"/>
</g>
<!-- Node11 -->
<g id="node12" class="node"><title>Node11</title>
<polygon fill="white" stroke="#bfbfbf" points="455.036,-0.5 455.036,-19.5 544.036,-19.5 544.036,-0.5 455.036,-0.5"/>
<text text-anchor="middle" x="499.536" y="-7.5" font-family="Helvetica,sans-Serif" font-size="10.00">yaml&#45;cpp/yaml.h</text>
</g>
<!-- Node10&#45;&gt;Node11 -->
<g id="edge13" class="edge"><title>Node10&#45;&gt;Node11</title>
<path fill="none" stroke="midnightblue" d="M576.641,-61.9751C562.071,-52.3431 538.133,-36.5175 520.79,-25.0517"/>
<polygon fill="midnightblue" stroke="midnightblue" points="522.679,-22.1044 512.406,-19.5091 518.818,-27.9437 522.679,-22.1044"/>
</g>
<!-- Node12 -->
<g id="node13" class="node"><title>Node12</title>
<polygon fill="white" stroke="#bfbfbf" points="562.536,-0.5 562.536,-19.5 616.536,-19.5 616.536,-0.5 562.536,-0.5"/>
<text text-anchor="middle" x="589.536" y="-7.5" font-family="Helvetica,sans-Serif" font-size="10.00">iostream</text>
</g>
<!-- Node10&#45;&gt;Node12 -->
<g id="edge14" class="edge"><title>Node10&#45;&gt;Node12</title>
<path fill="none" stroke="midnightblue" d="M589.536,-61.9751C589.536,-53.5803 589.536,-40.4806 589.536,-29.6631"/>
<polygon fill="midnightblue" stroke="midnightblue" points="593.036,-29.5091 589.536,-19.5091 586.036,-29.5091 593.036,-29.5091"/>
</g>
<!-- Node13 -->
<g id="node14" class="node"><title>Node13</title>
<polygon fill="white" stroke="#bfbfbf" points="634.536,-0.5 634.536,-19.5 686.536,-19.5 686.536,-0.5 634.536,-0.5"/>
<text text-anchor="middle" x="660.536" y="-7.5" font-family="Helvetica,sans-Serif" font-size="10.00">ostream</text>
</g>
<!-- Node10&#45;&gt;Node13 -->
<g id="edge15" class="edge"><title>Node10&#45;&gt;Node13</title>
<path fill="none" stroke="midnightblue" d="M599.708,-61.9751C610.885,-52.6082 629.052,-37.3839 642.627,-26.0081"/>
<polygon fill="midnightblue" stroke="midnightblue" points="644.965,-28.6148 650.382,-19.5091 640.469,-23.2496 644.965,-28.6148"/>
</g>
<!-- Node17&#45;&gt;Node3 -->
<g id="edge21" class="edge"><title>Node17&#45;&gt;Node3</title>
<path fill="none" stroke="midnightblue" d="M238.792,-128.734C230.995,-118.598 217.989,-101.69 208.271,-89.0556"/>
<polygon fill="midnightblue" stroke="midnightblue" points="211.043,-86.9196 202.172,-81.1273 205.495,-91.1876 211.043,-86.9196"/>
</g>
</g>
</svg>
