<?xml version="1.0" encoding="UTF-8" standalone="no"?>
<!DOCTYPE svg PUBLIC "-//W3C//DTD SVG 1.1//EN"
 "http://www.w3.org/Graphics/SVG/1.1/DTD/svg11.dtd">
<!-- Generated by graphviz version 2.38.0 (20140413.2041)
 -->
<!-- Title: Graphical Class Hierarchy Pages: 1 -->
<svg width="421pt" height="235pt"
 viewBox="0.00 0.00 421.00 235.00" xmlns="http://www.w3.org/2000/svg" xmlns:xlink="http://www.w3.org/1999/xlink">
<g id="graph0" class="graph" transform="scale(1 1) rotate(0) translate(4 231)">
<title>Graphical Class Hierarchy</title>
<polygon fill="white" stroke="none" points="-4,4 -4,-231 417,-231 417,4 -4,4"/>
<!-- Node0 -->
<g id="node1" class="node"><title>Node0</title>
<g id="a_node1"><a xlink:href="classpinhao_1_1Feature.html" target="_top" xlink:title="This is the base class for features. ">
<polygon fill="white" stroke="black" points="0,-104 0,-123 84,-123 84,-104 0,-104"/>
<text text-anchor="middle" x="42" y="-111" font-family="Helvetica,sans-Serif" font-size="10.00">pinhao::Feature</text>
</a>
</g>
</g>
<!-- Node1 -->
<g id="node2" class="node"><title>Node1</title>
<g id="a_node2"><a xlink:href="classpinhao_1_1LinearFeature.html" target="_top" xlink:title="pinhao::LinearFeature\l\&lt; ElemType \&gt;">
<polygon fill="white" stroke="black" points="128,-196.5 128,-226.5 238,-226.5 238,-196.5 128,-196.5"/>
<text text-anchor="start" x="136" y="-214.5" font-family="Helvetica,sans-Serif" font-size="10.00">pinhao::LinearFeature</text>
<text text-anchor="middle" x="183" y="-203.5" font-family="Helvetica,sans-Serif" font-size="10.00">&lt; ElemType &gt;</text>
</a>
</g>
</g>
<!-- Node0&#45;&gt;Node1 -->
<g id="edge1" class="edge"><title>Node0&#45;&gt;Node1</title>
<path fill="none" stroke="midnightblue" d="M57.713,-131.22C72.1468,-147.664 95.5019,-171.886 120,-187.5 125.159,-190.788 130.839,-193.743 136.603,-196.362"/>
<polygon fill="midnightblue" stroke="midnightblue" points="60.1868,-128.728 51.0195,-123.417 54.8738,-133.286 60.1868,-128.728"/>
</g>
<!-- Node3 -->
<g id="node4" class="node"><title>Node3</title>
<g id="a_node4"><a xlink:href="classpinhao_1_1LinearFeature.html" target="_top" xlink:title="pinhao::LinearFeature\l\&lt; std::string \&gt;">
<polygon fill="white" stroke="black" points="128,-147.5 128,-177.5 238,-177.5 238,-147.5 128,-147.5"/>
<text text-anchor="start" x="136" y="-165.5" font-family="Helvetica,sans-Serif" font-size="10.00">pinhao::LinearFeature</text>
<text text-anchor="middle" x="183" y="-154.5" font-family="Helvetica,sans-Serif" font-size="10.00">&lt; std::string &gt;</text>
</a>
</g>
</g>
<!-- Node0&#45;&gt;Node3 -->
<g id="edge3" class="edge"><title>Node0&#45;&gt;Node3</title>
<path fill="none" stroke="midnightblue" d="M79.5899,-126.399C97.9255,-132.862 120.234,-140.727 139.344,-147.463"/>
<polygon fill="midnightblue" stroke="midnightblue" points="80.7254,-123.088 70.1306,-123.064 78.3981,-129.69 80.7254,-123.088"/>
</g>
<!-- Node5 -->
<g id="node6" class="node"><title>Node5</title>
<g id="a_node6"><a xlink:href="classpinhao_1_1MappedFeature.html" target="_top" xlink:title="pinhao::MappedFeature\l\&lt; KeyType, ElemType \&gt;">
<polygon fill="white" stroke="black" points="121,-98.5 121,-128.5 245,-128.5 245,-98.5 121,-98.5"/>
<text text-anchor="start" x="129" y="-116.5" font-family="Helvetica,sans-Serif" font-size="10.00">pinhao::MappedFeature</text>
<text text-anchor="middle" x="183" y="-105.5" font-family="Helvetica,sans-Serif" font-size="10.00">&lt; KeyType, ElemType &gt;</text>
</a>
</g>
</g>
<!-- Node0&#45;&gt;Node5 -->
<g id="edge5" class="edge"><title>Node0&#45;&gt;Node5</title>
<path fill="none" stroke="midnightblue" d="M94.5215,-113.5C103.068,-113.5 112.003,-113.5 120.762,-113.5"/>
<polygon fill="midnightblue" stroke="midnightblue" points="94.3283,-110 84.3282,-113.5 94.3282,-117 94.3283,-110"/>
</g>
<!-- Node8 -->
<g id="node9" class="node"><title>Node8</title>
<g id="a_node9"><a xlink:href="classpinhao_1_1LinearFeature.html" target="_top" xlink:title="Abstract class of linear features. ">
<polygon fill="white" stroke="black" points="128,-49.5 128,-79.5 238,-79.5 238,-49.5 128,-49.5"/>
<text text-anchor="start" x="136" y="-67.5" font-family="Helvetica,sans-Serif" font-size="10.00">pinhao::LinearFeature</text>
<text text-anchor="middle" x="183" y="-56.5" font-family="Helvetica,sans-Serif" font-size="10.00">&lt; ValueType &gt;</text>
</a>
</g>
</g>
<!-- Node0&#45;&gt;Node8 -->
<g id="edge8" class="edge"><title>Node0&#45;&gt;Node8</title>
<path fill="none" stroke="midnightblue" d="M79.5899,-100.601C97.9255,-94.1378 120.234,-86.2735 139.344,-79.537"/>
<polygon fill="midnightblue" stroke="midnightblue" points="78.3981,-97.3104 70.1306,-103.936 80.7254,-103.912 78.3981,-97.3104"/>
</g>
<!-- Node9 -->
<g id="node10" class="node"><title>Node9</title>
<g id="a_node10"><a xlink:href="classpinhao_1_1MappedFeature.html" target="_top" xlink:title="Abstract class of mapped features. ">
<polygon fill="white" stroke="black" points="120,-0.5 120,-30.5 246,-30.5 246,-0.5 120,-0.5"/>
<text text-anchor="start" x="128" y="-18.5" font-family="Helvetica,sans-Serif" font-size="10.00">pinhao::MappedFeature</text>
<text text-anchor="middle" x="183" y="-7.5" font-family="Helvetica,sans-Serif" font-size="10.00">&lt; KeyType, ValueType &gt;</text>
</a>
</g>
</g>
<!-- Node0&#45;&gt;Node9 -->
<g id="edge9" class="edge"><title>Node0&#45;&gt;Node9</title>
<path fill="none" stroke="midnightblue" d="M57.8097,-96.1084C72.3129,-79.9508 95.7159,-56.1 120,-40.5 125.761,-36.799 132.16,-33.4761 138.597,-30.5535"/>
<polygon fill="midnightblue" stroke="midnightblue" points="55.0482,-93.9488 51.0791,-103.772 60.3078,-98.568 55.0482,-93.9488"/>
</g>
<!-- Node2 -->
<g id="node3" class="node"><title>Node2</title>
<g id="a_node3"><a xlink:href="classpinhao_1_1VectorFeature.html" target="_top" xlink:title="Implements a template vector feature class. ">
<polygon fill="white" stroke="black" points="291,-196.5 291,-226.5 404,-226.5 404,-196.5 291,-196.5"/>
<text text-anchor="start" x="299" y="-214.5" font-family="Helvetica,sans-Serif" font-size="10.00">pinhao::VectorFeature</text>
<text text-anchor="middle" x="347.5" y="-203.5" font-family="Helvetica,sans-Serif" font-size="10.00">&lt; ElemType &gt;</text>
</a>
</g>
</g>
<!-- Node1&#45;&gt;Node2 -->
<g id="edge2" class="edge"><title>Node1&#45;&gt;Node2</title>
<path fill="none" stroke="midnightblue" d="M248.243,-211.5C262.368,-211.5 277.212,-211.5 290.96,-211.5"/>
<polygon fill="midnightblue" stroke="midnightblue" points="248.11,-208 238.11,-211.5 248.11,-215 248.11,-208"/>
</g>
<!-- Node4 -->
<g id="node5" class="node"><title>Node4</title>
<g id="a_node5"><a xlink:href="classpinhao_1_1StringFeature.html" target="_top" xlink:title="Implements a string version of a linear feature. ">
<polygon fill="white" stroke="black" points="292.5,-153 292.5,-172 402.5,-172 402.5,-153 292.5,-153"/>
<text text-anchor="middle" x="347.5" y="-160" font-family="Helvetica,sans-Serif" font-size="10.00">pinhao::StringFeature</text>
</a>
</g>
</g>
<!-- Node3&#45;&gt;Node4 -->
<g id="edge4" class="edge"><title>Node3&#45;&gt;Node4</title>
<path fill="none" stroke="midnightblue" d="M248.522,-162.5C263.041,-162.5 278.305,-162.5 292.349,-162.5"/>
<polygon fill="midnightblue" stroke="midnightblue" points="248.11,-159 238.11,-162.5 248.11,-166 248.11,-159"/>
</g>
<!-- Node6 -->
<g id="node7" class="node"><title>Node6</title>
<g id="a_node7"><a xlink:href="classpinhao_1_1MapFeature.html" target="_top" xlink:title="This class maps a KeyType to a ElemType feature. ">
<polygon fill="white" stroke="black" points="285.5,-100.5 285.5,-130.5 409.5,-130.5 409.5,-100.5 285.5,-100.5"/>
<text text-anchor="start" x="293.5" y="-118.5" font-family="Helvetica,sans-Serif" font-size="10.00">pinhao::MapFeature</text>
<text text-anchor="middle" x="347.5" y="-107.5" font-family="Helvetica,sans-Serif" font-size="10.00">&lt; KeyType, ElemType &gt;</text>
</a>
</g>
</g>
<!-- Node5&#45;&gt;Node6 -->
<g id="edge6" class="edge"><title>Node5&#45;&gt;Node6</title>
<path fill="none" stroke="midnightblue" d="M255.633,-114.382C265.511,-114.503 275.581,-114.627 285.248,-114.746"/>
<polygon fill="midnightblue" stroke="midnightblue" points="255.477,-110.88 245.434,-114.256 255.39,-117.879 255.477,-110.88"/>
</g>
<!-- Node7 -->
<g id="node8" class="node"><title>Node7</title>
<g id="a_node8"><a xlink:href="classpinhao_1_1MapVectorFeature.html" target="_top" xlink:title="This class maps a KeyType to a vector of ElemType features. ">
<polygon fill="white" stroke="black" points="282,-51.5 282,-81.5 413,-81.5 413,-51.5 282,-51.5"/>
<text text-anchor="start" x="290" y="-69.5" font-family="Helvetica,sans-Serif" font-size="10.00">pinhao::MapVectorFeature</text>
<text text-anchor="middle" x="347.5" y="-58.5" font-family="Helvetica,sans-Serif" font-size="10.00">&lt; KeyType, ElemType &gt;</text>
</a>
</g>
</g>
<!-- Node5&#45;&gt;Node7 -->
<g id="edge7" class="edge"><title>Node5&#45;&gt;Node7</title>
<path fill="none" stroke="midnightblue" d="M245.727,-95.6467C261.834,-90.9879 279.03,-86.0144 294.573,-81.519"/>
<polygon fill="midnightblue" stroke="midnightblue" points="244.497,-92.359 235.863,-98.4997 246.442,-99.0834 244.497,-92.359"/>
</g>
</g>
</svg>
