<?xml version="1.0" encoding="UTF-8" standalone="no"?>
<!DOCTYPE svg PUBLIC "-//W3C//DTD SVG 1.1//EN"
 "http://www.w3.org/Graphics/SVG/1.1/DTD/svg11.dtd">
<!-- Generated by graphviz version 2.38.0 (20140413.2041)
 -->
<!-- Title: Graphical Class Hierarchy Pages: 1 -->
<svg width="189pt" height="127pt"
 viewBox="0.00 0.00 189.00 126.50" xmlns="http://www.w3.org/2000/svg" xmlns:xlink="http://www.w3.org/1999/xlink">
<g id="graph0" class="graph" transform="scale(1 1) rotate(0) translate(4 122.5)">
<title>Graphical Class Hierarchy</title>
<polygon fill="white" stroke="none" points="-4,4 -4,-122.5 185,-122.5 185,4 -4,4"/>
<!-- Node7 -->
<g id="node1" class="node"><title>Node7</title>
<polygon fill="white" stroke="#bfbfbf" points="0,-44.5 0,-63.5 30,-63.5 30,-44.5 0,-44.5"/>
<text text-anchor="middle" x="15" y="-51.5" font-family="Helvetica,sans-Serif" font-size="10.00">set</text>
</g>
<!-- Node0 -->
<g id="node2" class="node"><title>Node0</title>
<g id="a_node2"><a xlink:href="classpinhao_1_1SerialSet.html" target="_top" xlink:title="This class is a wrapper of the &#39;std::set&#39; class, that can be serialized. ">
<polygon fill="white" stroke="black" points="72.5,-88 72.5,-118 174.5,-118 174.5,-88 72.5,-88"/>
<text text-anchor="start" x="80.5" y="-106" font-family="Helvetica,sans-Serif" font-size="10.00">pinhao::SerialSet&lt;</text>
<text text-anchor="middle" x="123.5" y="-95" font-family="Helvetica,sans-Serif" font-size="10.00"> T, CompareType &gt;</text>
</a>
</g>
</g>
<!-- Node7&#45;&gt;Node0 -->
<g id="edge1" class="edge"><title>Node7&#45;&gt;Node0</title>
<path fill="none" stroke="midnightblue" d="M39.4613,-66.1059C47.7876,-70.3023 57.2607,-74.9638 66,-79 72.4824,-81.9939 79.4418,-85.0646 86.1844,-87.9668"/>
<polygon fill="midnightblue" stroke="midnightblue" points="40.8262,-62.8735 30.3263,-61.4588 37.6523,-69.1126 40.8262,-62.8735"/>
</g>
<!-- Node9 -->
<g id="node3" class="node"><title>Node9</title>
<g id="a_node3"><a xlink:href="classpinhao_1_1SerialSet.html" target="_top" xlink:title="pinhao::SerialSet\&lt;\l Candidate \&gt;">
<polygon fill="white" stroke="black" points="75,-39 75,-69 172,-69 172,-39 75,-39"/>
<text text-anchor="start" x="83" y="-57" font-family="Helvetica,sans-Serif" font-size="10.00">pinhao::SerialSet&lt;</text>
<text text-anchor="middle" x="123.5" y="-46" font-family="Helvetica,sans-Serif" font-size="10.00"> Candidate &gt;</text>
</a>
</g>
</g>
<!-- Node7&#45;&gt;Node9 -->
<g id="edge2" class="edge"><title>Node7&#45;&gt;Node9</title>
<path fill="none" stroke="midnightblue" d="M40.5108,-54C50.689,-54 62.8673,-54 74.6847,-54"/>
<polygon fill="midnightblue" stroke="midnightblue" points="40.3631,-50.5001 30.3631,-54 40.363,-57.5001 40.3631,-50.5001"/>
</g>
<!-- Node10 -->
<g id="node4" class="node"><title>Node10</title>
<g id="a_node4"><a xlink:href="classpinhao_1_1SerialSet.html" target="_top" xlink:title="pinhao::SerialSet\&lt; T \&gt;">
<polygon fill="white" stroke="black" points="66,-0.5 66,-19.5 181,-19.5 181,-0.5 66,-0.5"/>
<text text-anchor="middle" x="123.5" y="-7.5" font-family="Helvetica,sans-Serif" font-size="10.00">pinhao::SerialSet&lt; T &gt;</text>
</a>
</g>
</g>
<!-- Node7&#45;&gt;Node10 -->
<g id="edge3" class="edge"><title>Node7&#45;&gt;Node10</title>
<path fill="none" stroke="midnightblue" d="M39.3712,-42.1423C47.6896,-38.093 57.1807,-33.6652 66,-30 74.84,-26.3262 84.6233,-22.71 93.5301,-19.5844"/>
<polygon fill="midnightblue" stroke="midnightblue" points="37.6655,-39.0813 30.2553,-46.6537 40.7703,-45.3551 37.6655,-39.0813"/>
</g>
</g>
</svg>
