<?xml version="1.0" encoding="UTF-8" standalone="no"?>
<!DOCTYPE svg PUBLIC "-//W3C//DTD SVG 1.1//EN"
 "http://www.w3.org/Graphics/SVG/1.1/DTD/svg11.dtd">
<!-- Generated by graphviz version 2.38.0 (20140413.2041)
 -->
<!-- Title: Graphical Class Hierarchy Pages: 1 -->
<svg width="672pt" height="252pt"
 viewBox="0.00 0.00 672.00 251.50" xmlns="http://www.w3.org/2000/svg" xmlns:xlink="http://www.w3.org/1999/xlink">
<g id="graph0" class="graph" transform="scale(1 1) rotate(0) translate(4 247.5)">
<title>Graphical Class Hierarchy</title>
<polygon fill="white" stroke="none" points="-4,4 -4,-247.5 668,-247.5 668,4 -4,4"/>
<!-- Node0 -->
<g id="node1" class="node"><title>Node0</title>
<g id="a_node1"><a xlink:href="classpinhao_1_1FormulaBase.html" target="_top" xlink:title="The base class for all Formula types. A Formula is a statement which when evaluated for a FeatureSet...">
<polygon fill="white" stroke="black" points="0,-143.5 0,-162.5 109,-162.5 109,-143.5 0,-143.5"/>
<text text-anchor="middle" x="54.5" y="-150.5" font-family="Helvetica,sans-Serif" font-size="10.00">pinhao::FormulaBase</text>
</a>
</g>
</g>
<!-- Node1 -->
<g id="node2" class="node"><title>Node1</title>
<g id="a_node2"><a xlink:href="classpinhao_1_1Formula.html" target="_top" xlink:title="pinhao::Formula\&lt; bool \&gt;">
<polygon fill="white" stroke="black" points="145,-188.5 145,-207.5 267,-207.5 267,-188.5 145,-188.5"/>
<text text-anchor="middle" x="206" y="-195.5" font-family="Helvetica,sans-Serif" font-size="10.00">pinhao::Formula&lt; bool &gt;</text>
</a>
</g>
</g>
<!-- Node0&#45;&gt;Node1 -->
<g id="edge1" class="edge"><title>Node0&#45;&gt;Node1</title>
<path fill="none" stroke="midnightblue" d="M96.8276,-165.44C121.003,-172.717 151.053,-181.762 173.341,-188.47"/>
<polygon fill="midnightblue" stroke="midnightblue" points="97.7896,-162.074 87.2051,-162.543 95.7719,-168.777 97.7896,-162.074"/>
</g>
<!-- Node4 -->
<g id="node5" class="node"><title>Node4</title>
<g id="a_node5"><a xlink:href="classpinhao_1_1Formula.html" target="_top" xlink:title="The base template class for the Formulas. ">
<polygon fill="white" stroke="black" points="151,-98.5 151,-117.5 261,-117.5 261,-98.5 151,-98.5"/>
<text text-anchor="middle" x="206" y="-105.5" font-family="Helvetica,sans-Serif" font-size="10.00">pinhao::Formula&lt; T &gt;</text>
</a>
</g>
</g>
<!-- Node0&#45;&gt;Node4 -->
<g id="edge4" class="edge"><title>Node0&#45;&gt;Node4</title>
<path fill="none" stroke="midnightblue" d="M96.8276,-140.56C121.003,-133.283 151.053,-124.238 173.341,-117.53"/>
<polygon fill="midnightblue" stroke="midnightblue" points="95.7719,-137.223 87.2051,-143.457 97.7896,-143.926 95.7719,-137.223"/>
</g>
<!-- Node2 -->
<g id="node3" class="node"><title>Node2</title>
<g id="a_node3"><a xlink:href="classpinhao_1_1BinOpFormulaBase.html" target="_top" xlink:title="pinhao::BinOpFormulaBase\l\&lt; bool, T \&gt;">
<polygon fill="white" stroke="black" points="306.5,-213 306.5,-243 442.5,-243 442.5,-213 306.5,-213"/>
<text text-anchor="start" x="314.5" y="-231" font-family="Helvetica,sans-Serif" font-size="10.00">pinhao::BinOpFormulaBase</text>
<text text-anchor="middle" x="374.5" y="-220" font-family="Helvetica,sans-Serif" font-size="10.00">&lt; bool, T &gt;</text>
</a>
</g>
</g>
<!-- Node1&#45;&gt;Node2 -->
<g id="edge2" class="edge"><title>Node1&#45;&gt;Node2</title>
<path fill="none" stroke="midnightblue" d="M270.297,-209.405C282.05,-211.523 294.367,-213.742 306.234,-215.88"/>
<polygon fill="midnightblue" stroke="midnightblue" points="270.602,-205.903 260.139,-207.575 269.36,-212.793 270.602,-205.903"/>
</g>
<!-- Node3 -->
<g id="node4" class="node"><title>Node3</title>
<g id="a_node4"><a xlink:href="classpinhao_1_1BooleanBinOpFormula.html" target="_top" xlink:title="Represents all logical operations (supported). ">
<polygon fill="white" stroke="black" points="486.5,-218.5 486.5,-237.5 659.5,-237.5 659.5,-218.5 486.5,-218.5"/>
<text text-anchor="middle" x="573" y="-225.5" font-family="Helvetica,sans-Serif" font-size="10.00">pinhao::BooleanBinOpFormula&lt; T &gt;</text>
</a>
</g>
</g>
<!-- Node2&#45;&gt;Node3 -->
<g id="edge3" class="edge"><title>Node2&#45;&gt;Node3</title>
<path fill="none" stroke="midnightblue" d="M452.643,-228C463.741,-228 475.216,-228 486.465,-228"/>
<polygon fill="midnightblue" stroke="midnightblue" points="452.575,-224.5 442.575,-228 452.575,-231.5 452.575,-224.5"/>
</g>
<!-- Node5 -->
<g id="node6" class="node"><title>Node5</title>
<g id="a_node6"><a xlink:href="classpinhao_1_1BinOpFormulaBase.html" target="_top" xlink:title="pinhao::BinOpFormulaBase\l\&lt; T, T \&gt;">
<polygon fill="white" stroke="black" points="306.5,-164 306.5,-194 442.5,-194 442.5,-164 306.5,-164"/>
<text text-anchor="start" x="314.5" y="-182" font-family="Helvetica,sans-Serif" font-size="10.00">pinhao::BinOpFormulaBase</text>
<text text-anchor="middle" x="374.5" y="-171" font-family="Helvetica,sans-Serif" font-size="10.00">&lt; T, T &gt;</text>
</a>
</g>
</g>
<!-- Node4&#45;&gt;Node5 -->
<g id="edge5" class="edge"><title>Node4&#45;&gt;Node5</title>
<path fill="none" stroke="midnightblue" d="M233.708,-122.214C252.739,-132.06 279.084,-145.122 303,-155 310.529,-158.11 318.621,-161.142 326.545,-163.947"/>
<polygon fill="midnightblue" stroke="midnightblue" points="235.219,-119.055 224.734,-117.53 231.98,-125.26 235.219,-119.055"/>
</g>
<!-- Node7 -->
<g id="node8" class="node"><title>Node7</title>
<g id="a_node8"><a xlink:href="classpinhao_1_1BinOpFormulaBase.html" target="_top" xlink:title="Base class for binary operations. ">
<polygon fill="white" stroke="black" points="306.5,-115 306.5,-145 442.5,-145 442.5,-115 306.5,-115"/>
<text text-anchor="start" x="314.5" y="-133" font-family="Helvetica,sans-Serif" font-size="10.00">pinhao::BinOpFormulaBase</text>
<text text-anchor="middle" x="374.5" y="-122" font-family="Helvetica,sans-Serif" font-size="10.00">&lt; T, OpT &gt;</text>
</a>
</g>
</g>
<!-- Node4&#45;&gt;Node7 -->
<g id="edge7" class="edge"><title>Node4&#45;&gt;Node7</title>
<path fill="none" stroke="midnightblue" d="M271.05,-116.463C282.601,-117.989 294.673,-119.584 306.31,-121.122"/>
<polygon fill="midnightblue" stroke="midnightblue" points="271.43,-112.983 261.058,-115.143 270.513,-119.923 271.43,-112.983"/>
</g>
<!-- Node8 -->
<g id="node9" class="node"><title>Node8</title>
<g id="a_node9"><a xlink:href="classpinhao_1_1FeatureFormula.html" target="_top" xlink:title="Holds a pair of std::strings. The first represents the feature, and the second represents the sub&#45;fea...">
<polygon fill="white" stroke="black" points="303,-76.5 303,-95.5 446,-95.5 446,-76.5 303,-76.5"/>
<text text-anchor="middle" x="374.5" y="-83.5" font-family="Helvetica,sans-Serif" font-size="10.00">pinhao::FeatureFormula&lt; T &gt;</text>
</a>
</g>
</g>
<!-- Node4&#45;&gt;Node8 -->
<g id="edge8" class="edge"><title>Node4&#45;&gt;Node8</title>
<path fill="none" stroke="midnightblue" d="M271.216,-99.515C281.537,-98.1513 292.27,-96.7331 302.734,-95.3504"/>
<polygon fill="midnightblue" stroke="midnightblue" points="270.513,-96.0774 261.058,-100.857 271.43,-103.017 270.513,-96.0774"/>
</g>
<!-- Node9 -->
<g id="node10" class="node"><title>Node9</title>
<g id="a_node10"><a xlink:href="classpinhao_1_1IfFormula.html" target="_top" xlink:title="The If Formula. ">
<polygon fill="white" stroke="black" points="316.5,-38.5 316.5,-57.5 432.5,-57.5 432.5,-38.5 316.5,-38.5"/>
<text text-anchor="middle" x="374.5" y="-45.5" font-family="Helvetica,sans-Serif" font-size="10.00">pinhao::IfFormula&lt; T &gt;</text>
</a>
</g>
</g>
<!-- Node4&#45;&gt;Node9 -->
<g id="edge9" class="edge"><title>Node4&#45;&gt;Node9</title>
<path fill="none" stroke="midnightblue" d="M236.482,-94.1341C255.261,-85.622 280.251,-74.8798 303,-67 312.942,-63.5564 323.848,-60.3485 334.048,-57.5855"/>
<polygon fill="midnightblue" stroke="midnightblue" points="234.905,-91.0068 227.272,-98.3551 237.821,-97.3702 234.905,-91.0068"/>
</g>
<!-- Node10 -->
<g id="node11" class="node"><title>Node10</title>
<g id="a_node11"><a xlink:href="classpinhao_1_1LitFormula.html" target="_top" xlink:title="Holds literal of the types. ">
<polygon fill="white" stroke="black" points="314,-0.5 314,-19.5 435,-19.5 435,-0.5 314,-0.5"/>
<text text-anchor="middle" x="374.5" y="-7.5" font-family="Helvetica,sans-Serif" font-size="10.00">pinhao::LitFormula&lt; T &gt;</text>
</a>
</g>
</g>
<!-- Node4&#45;&gt;Node10 -->
<g id="edge10" class="edge"><title>Node4&#45;&gt;Node10</title>
<path fill="none" stroke="midnightblue" d="M223.126,-90.9749C241.024,-73.0435 271.555,-45.2075 303,-29 310.437,-25.167 318.725,-22.0475 326.931,-19.5284"/>
<polygon fill="midnightblue" stroke="midnightblue" points="220.318,-88.8404 215.834,-98.4393 225.325,-93.7321 220.318,-88.8404"/>
</g>
<!-- Node6 -->
<g id="node7" class="node"><title>Node6</title>
<g id="a_node7"><a xlink:href="classpinhao_1_1ArithmeticBinOpFormula.html" target="_top" xlink:title="Represents all arithmetics operations (supported). Only numerical operands type permitted. ">
<polygon fill="white" stroke="black" points="482,-169.5 482,-188.5 664,-188.5 664,-169.5 482,-169.5"/>
<text text-anchor="middle" x="573" y="-176.5" font-family="Helvetica,sans-Serif" font-size="10.00">pinhao::ArithmeticBinOpFormula&lt; T &gt;</text>
</a>
</g>
</g>
<!-- Node5&#45;&gt;Node6 -->
<g id="edge6" class="edge"><title>Node5&#45;&gt;Node6</title>
<path fill="none" stroke="midnightblue" d="M452.82,-179C462.379,-179 472.215,-179 481.943,-179"/>
<polygon fill="midnightblue" stroke="midnightblue" points="452.575,-175.5 442.575,-179 452.575,-182.5 452.575,-175.5"/>
</g>
</g>
</svg>
