<?xml version="1.0" encoding="UTF-8" standalone="no"?>
<!DOCTYPE svg PUBLIC "-//W3C//DTD SVG 1.1//EN"
 "http://www.w3.org/Graphics/SVG/1.1/DTD/svg11.dtd">
<!-- Generated by graphviz version 2.38.0 (20140413.2041)
 -->
<!-- Title: Graphical Class Hierarchy Pages: 1 -->
<svg width="359pt" height="88pt"
 viewBox="0.00 0.00 359.00 88.00" xmlns="http://www.w3.org/2000/svg" xmlns:xlink="http://www.w3.org/1999/xlink">
<g id="graph0" class="graph" transform="scale(1 1) rotate(0) translate(4 84)">
<title>Graphical Class Hierarchy</title>
<polygon fill="white" stroke="none" points="-4,4 -4,-84 355,-84 355,4 -4,4"/>
<!-- Node23 -->
<g id="node1" class="node"><title>Node23</title>
<polygon fill="white" stroke="#bfbfbf" points="0,-30 0,-49 47,-49 47,-30 0,-30"/>
<text text-anchor="middle" x="23.5" y="-37" font-family="Helvetica,sans-Serif" font-size="10.00">iterator</text>
</g>
<!-- Node0 -->
<g id="node2" class="node"><title>Node0</title>
<g id="a_node2"><a xlink:href="classpinhao_1_1FeatureSet_1_1iterator.html" target="_top" xlink:title="Iterates over the features/sub&#45;features of the enabled features. ">
<polygon fill="white" stroke="black" points="83,-49.5 83,-79.5 182,-79.5 182,-49.5 83,-49.5"/>
<text text-anchor="start" x="91" y="-67.5" font-family="Helvetica,sans-Serif" font-size="10.00">pinhao::FeatureSet</text>
<text text-anchor="middle" x="132.5" y="-56.5" font-family="Helvetica,sans-Serif" font-size="10.00">::iterator</text>
</a>
</g>
</g>
<!-- Node23&#45;&gt;Node0 -->
<g id="edge1" class="edge"><title>Node23&#45;&gt;Node0</title>
<path fill="none" stroke="#8b1a1a" d="M57.0352,-47.1017C65.1883,-49.0066 74.1129,-51.0918 82.8627,-53.1361"/>
<polygon fill="#8b1a1a" stroke="#8b1a1a" points="57.726,-43.6689 47.1919,-44.8019 56.1334,-50.4853 57.726,-43.6689"/>
</g>
<!-- Node25 -->
<g id="node3" class="node"><title>Node25</title>
<g id="a_node3"><a xlink:href="classpinhao_1_1KeyIterator.html" target="_top" xlink:title="Base class for iterating over the keys of some MappedFeature. ">
<polygon fill="white" stroke="black" points="83,-0.5 83,-30.5 182,-30.5 182,-0.5 83,-0.5"/>
<text text-anchor="start" x="91" y="-18.5" font-family="Helvetica,sans-Serif" font-size="10.00">pinhao::KeyIterator</text>
<text text-anchor="middle" x="132.5" y="-7.5" font-family="Helvetica,sans-Serif" font-size="10.00">&lt; KType &gt;</text>
</a>
</g>
</g>
<!-- Node23&#45;&gt;Node25 -->
<g id="edge2" class="edge"><title>Node23&#45;&gt;Node25</title>
<path fill="none" stroke="midnightblue" d="M57.0352,-32.2024C65.1883,-30.3737 74.1129,-28.3719 82.8627,-26.4093"/>
<polygon fill="midnightblue" stroke="midnightblue" points="56.1835,-28.8064 47.1919,-34.4102 57.7156,-35.6367 56.1835,-28.8064"/>
</g>
<!-- Node26 -->
<g id="node4" class="node"><title>Node26</title>
<g id="a_node4"><a xlink:href="classpinhao_1_1StdMapKeyIterator.html" target="_top" xlink:title="Concrete class that iterates over the keys of the stl provided std::map class. ">
<polygon fill="white" stroke="black" points="218,-0.5 218,-30.5 351,-30.5 351,-0.5 218,-0.5"/>
<text text-anchor="start" x="226" y="-18.5" font-family="Helvetica,sans-Serif" font-size="10.00">pinhao::StdMapKeyIterator</text>
<text text-anchor="middle" x="284.5" y="-7.5" font-family="Helvetica,sans-Serif" font-size="10.00">&lt; KType, VType &gt;</text>
</a>
</g>
</g>
<!-- Node25&#45;&gt;Node26 -->
<g id="edge3" class="edge"><title>Node25&#45;&gt;Node26</title>
<path fill="none" stroke="midnightblue" d="M192.269,-15.5C200.663,-15.5 209.343,-15.5 217.859,-15.5"/>
<polygon fill="midnightblue" stroke="midnightblue" points="192.201,-12.0001 182.201,-15.5 192.201,-19.0001 192.201,-12.0001"/>
</g>
</g>
</svg>
