<?xml version="1.0" encoding="UTF-8" standalone="no"?>
<!DOCTYPE svg PUBLIC "-//W3C//DTD SVG 1.1//EN"
 "http://www.w3.org/Graphics/SVG/1.1/DTD/svg11.dtd">
<!-- Generated by graphviz version 2.38.0 (20140413.2041)
 -->
<!-- Title: /home/yukiosir/workspace/CompilerProject/Software/pinhao/include/pinhao/InitializationRoutines.h Pages: 1 -->
<svg width="2508pt" height="328pt"
 viewBox="0.00 0.00 2507.50 328.00" xmlns="http://www.w3.org/2000/svg" xmlns:xlink="http://www.w3.org/1999/xlink">
<g id="graph0" class="graph" transform="scale(1 1) rotate(0) translate(4 324)">
<title>/home/yukiosir/workspace/CompilerProject/Software/pinhao/include/pinhao/InitializationRoutines.h</title>
<polygon fill="white" stroke="none" points="-4,4 -4,-324 2503.5,-324 2503.5,4 -4,4"/>
<!-- Node2 -->
<g id="node1" class="node"><title>Node2</title>
<polygon fill="#bfbfbf" stroke="black" points="1204.5,-267.5 1204.5,-319.5 1372.5,-319.5 1372.5,-267.5 1204.5,-267.5"/>
<text text-anchor="start" x="1212.5" y="-307.5" font-family="Helvetica,sans-Serif" font-size="10.00">/home/yukiosir/workspace</text>
<text text-anchor="start" x="1212.5" y="-296.5" font-family="Helvetica,sans-Serif" font-size="10.00">/CompilerProject/Software</text>
<text text-anchor="start" x="1212.5" y="-285.5" font-family="Helvetica,sans-Serif" font-size="10.00">/pinhao/include/pinhao/Initialization</text>
<text text-anchor="middle" x="1288.5" y="-274.5" font-family="Helvetica,sans-Serif" font-size="10.00">Routines.h</text>
</g>
<!-- Node3 -->
<g id="node2" class="node"><title>Node3</title>
<g id="a_node2"><a xlink:href="JITExecutor_8h.html" target="_top" xlink:title="This file defines a class that executes a module. ">
<polygon fill="white" stroke="black" points="355.5,-178.5 355.5,-230.5 505.5,-230.5 505.5,-178.5 355.5,-178.5"/>
<text text-anchor="start" x="363.5" y="-218.5" font-family="Helvetica,sans-Serif" font-size="10.00">/home/yukiosir/workspace</text>
<text text-anchor="start" x="363.5" y="-207.5" font-family="Helvetica,sans-Serif" font-size="10.00">/CompilerProject/Software</text>
<text text-anchor="start" x="363.5" y="-196.5" font-family="Helvetica,sans-Serif" font-size="10.00">/pinhao/include/pinhao/Support</text>
<text text-anchor="middle" x="430.5" y="-185.5" font-family="Helvetica,sans-Serif" font-size="10.00">/JITExecutor.h</text>
</a>
</g>
</g>
<!-- Node2&#45;&gt;Node3 -->
<g id="edge1" class="edge"><title>Node2&#45;&gt;Node3</title>
<path fill="none" stroke="midnightblue" d="M1193.93,-288.314C1053.43,-281.257 781.503,-264.372 552.5,-231 537.297,-228.785 521.143,-225.837 505.735,-222.733"/>
<polygon fill="midnightblue" stroke="midnightblue" points="1194.07,-291.825 1204.23,-288.826 1194.42,-284.834 1194.07,-291.825"/>
</g>
<!-- Node7 -->
<g id="node6" class="node"><title>Node7</title>
<g id="a_node6"><a xlink:href="PAPIMultFeatures_8cpp.html" target="_top" xlink:title="This file implements the features extracted by the PAPI tool by multiplexing. ">
<polygon fill="white" stroke="black" points="518,-89.5 518,-141.5 649,-141.5 649,-89.5 518,-89.5"/>
<text text-anchor="start" x="526" y="-129.5" font-family="Helvetica,sans-Serif" font-size="10.00">/home/yukiosir/workspace</text>
<text text-anchor="start" x="526" y="-118.5" font-family="Helvetica,sans-Serif" font-size="10.00">/CompilerProject/Software</text>
<text text-anchor="start" x="526" y="-107.5" font-family="Helvetica,sans-Serif" font-size="10.00">/pinhao/lib/FeaturesImpl</text>
<text text-anchor="middle" x="583.5" y="-96.5" font-family="Helvetica,sans-Serif" font-size="10.00">/PAPIMultFeatures.cpp</text>
</a>
</g>
</g>
<!-- Node2&#45;&gt;Node7 -->
<g id="edge14" class="edge"><title>Node2&#45;&gt;Node7</title>
<path fill="none" stroke="midnightblue" d="M1194.37,-291.078C1012.56,-287.362 627.325,-274.403 586.5,-231 564.292,-207.39 569.149,-167.426 575.608,-141.506"/>
<polygon fill="midnightblue" stroke="midnightblue" points="1194.39,-294.579 1204.46,-291.279 1194.53,-287.58 1194.39,-294.579"/>
</g>
<!-- Node9 -->
<g id="node8" class="node"><title>Node9</title>
<g id="a_node8"><a xlink:href="CFGBasicBlockStaticFeatures_8cpp.html" target="_top" xlink:title="This file implements the CFGBasicBlockStaticFeatures class. ">
<polygon fill="white" stroke="black" points="595,-178.5 595,-230.5 768,-230.5 768,-178.5 595,-178.5"/>
<text text-anchor="start" x="603" y="-218.5" font-family="Helvetica,sans-Serif" font-size="10.00">/home/yukiosir/workspace</text>
<text text-anchor="start" x="603" y="-207.5" font-family="Helvetica,sans-Serif" font-size="10.00">/CompilerProject/Software</text>
<text text-anchor="start" x="603" y="-196.5" font-family="Helvetica,sans-Serif" font-size="10.00">/pinhao/lib/FeaturesImpl</text>
<text text-anchor="middle" x="681.5" y="-185.5" font-family="Helvetica,sans-Serif" font-size="10.00">/CFGBasicBlockStaticFeatures.cpp</text>
</a>
</g>
</g>
<!-- Node2&#45;&gt;Node9 -->
<g id="edge7" class="edge"><title>Node2&#45;&gt;Node9</title>
<path fill="none" stroke="midnightblue" d="M1194.23,-285.133C1091.23,-276.16 921.659,-258.68 777.5,-231 774.452,-230.415 771.357,-229.786 768.239,-229.122"/>
<polygon fill="midnightblue" stroke="midnightblue" points="1194.03,-288.629 1204.3,-286.001 1194.64,-281.655 1194.03,-288.629"/>
</g>
<!-- Node10 -->
<g id="node9" class="node"><title>Node10</title>
<g id="a_node9"><a xlink:href="CFGFunctionStaticFeatures_8cpp.html" target="_top" xlink:title="This file implements the CFGFunctionStaticFeatures class. ">
<polygon fill="white" stroke="black" points="786,-178.5 786,-230.5 947,-230.5 947,-178.5 786,-178.5"/>
<text text-anchor="start" x="794" y="-218.5" font-family="Helvetica,sans-Serif" font-size="10.00">/home/yukiosir/workspace</text>
<text text-anchor="start" x="794" y="-207.5" font-family="Helvetica,sans-Serif" font-size="10.00">/CompilerProject/Software</text>
<text text-anchor="start" x="794" y="-196.5" font-family="Helvetica,sans-Serif" font-size="10.00">/pinhao/lib/FeaturesImpl</text>
<text text-anchor="middle" x="866.5" y="-185.5" font-family="Helvetica,sans-Serif" font-size="10.00">/CFGFunctionStaticFeatures.cpp</text>
</a>
</g>
</g>
<!-- Node2&#45;&gt;Node10 -->
<g id="edge8" class="edge"><title>Node2&#45;&gt;Node10</title>
<path fill="none" stroke="midnightblue" d="M1194.4,-277.468C1127.67,-266.223 1036.18,-249.625 956.5,-231 953.495,-230.298 950.441,-229.559 947.361,-228.794"/>
<polygon fill="midnightblue" stroke="midnightblue" points="1194.04,-280.955 1204.48,-279.156 1195.2,-274.052 1194.04,-280.955"/>
</g>
<!-- Node11 -->
<g id="node10" class="node"><title>Node11</title>
<g id="a_node10"><a xlink:href="CFGModuleStaticFeatures_8cpp.html" target="_top" xlink:title="/home/yukiosir/workspace\l/CompilerProject/Software\l/pinhao/lib/FeaturesImpl\l/CFGModuleStaticFeatures.cpp">
<polygon fill="white" stroke="black" points="965,-178.5 965,-230.5 1120,-230.5 1120,-178.5 965,-178.5"/>
<text text-anchor="start" x="973" y="-218.5" font-family="Helvetica,sans-Serif" font-size="10.00">/home/yukiosir/workspace</text>
<text text-anchor="start" x="973" y="-207.5" font-family="Helvetica,sans-Serif" font-size="10.00">/CompilerProject/Software</text>
<text text-anchor="start" x="973" y="-196.5" font-family="Helvetica,sans-Serif" font-size="10.00">/pinhao/lib/FeaturesImpl</text>
<text text-anchor="middle" x="1042.5" y="-185.5" font-family="Helvetica,sans-Serif" font-size="10.00">/CFGModuleStaticFeatures.cpp</text>
</a>
</g>
</g>
<!-- Node2&#45;&gt;Node11 -->
<g id="edge9" class="edge"><title>Node2&#45;&gt;Node11</title>
<path fill="none" stroke="midnightblue" d="M1207.91,-263.998C1177.36,-253.193 1142.83,-240.982 1113.25,-230.521"/>
<polygon fill="midnightblue" stroke="midnightblue" points="1207.08,-267.418 1217.68,-267.453 1209.42,-260.819 1207.08,-267.418"/>
</g>
<!-- Node12 -->
<g id="node11" class="node"><title>Node12</title>
<g id="a_node11"><a xlink:href="FunctionsGeneFeature_8cpp.html" target="_top" xlink:title="/home/yukiosir/workspace\l/CompilerProject/Software\l/pinhao/lib/FeaturesImpl\l/FunctionsGeneFeature.cpp">
<polygon fill="white" stroke="black" points="1138,-178.5 1138,-230.5 1275,-230.5 1275,-178.5 1138,-178.5"/>
<text text-anchor="start" x="1146" y="-218.5" font-family="Helvetica,sans-Serif" font-size="10.00">/home/yukiosir/workspace</text>
<text text-anchor="start" x="1146" y="-207.5" font-family="Helvetica,sans-Serif" font-size="10.00">/CompilerProject/Software</text>
<text text-anchor="start" x="1146" y="-196.5" font-family="Helvetica,sans-Serif" font-size="10.00">/pinhao/lib/FeaturesImpl</text>
<text text-anchor="middle" x="1206.5" y="-185.5" font-family="Helvetica,sans-Serif" font-size="10.00">/FunctionsGeneFeature.cpp</text>
</a>
</g>
</g>
<!-- Node2&#45;&gt;Node12 -->
<g id="edge10" class="edge"><title>Node2&#45;&gt;Node12</title>
<path fill="none" stroke="midnightblue" d="M1257.67,-259.79C1248.56,-250.129 1238.74,-239.71 1230.16,-230.607"/>
<polygon fill="midnightblue" stroke="midnightblue" points="1255.38,-262.459 1264.78,-267.336 1260.47,-257.658 1255.38,-262.459"/>
</g>
<!-- Node13 -->
<g id="node12" class="node"><title>Node13</title>
<g id="a_node12"><a xlink:href="FunctionStaticCostFeature_8cpp.html" target="_top" xlink:title="/home/yukiosir/workspace\l/CompilerProject/Software\l/pinhao/lib/FeaturesImpl\l/FunctionStaticCostFeature.cpp">
<polygon fill="white" stroke="black" points="1293,-178.5 1293,-230.5 1448,-230.5 1448,-178.5 1293,-178.5"/>
<text text-anchor="start" x="1301" y="-218.5" font-family="Helvetica,sans-Serif" font-size="10.00">/home/yukiosir/workspace</text>
<text text-anchor="start" x="1301" y="-207.5" font-family="Helvetica,sans-Serif" font-size="10.00">/CompilerProject/Software</text>
<text text-anchor="start" x="1301" y="-196.5" font-family="Helvetica,sans-Serif" font-size="10.00">/pinhao/lib/FeaturesImpl</text>
<text text-anchor="middle" x="1370.5" y="-185.5" font-family="Helvetica,sans-Serif" font-size="10.00">/FunctionStaticCostFeature.cpp</text>
</a>
</g>
</g>
<!-- Node2&#45;&gt;Node13 -->
<g id="edge11" class="edge"><title>Node2&#45;&gt;Node13</title>
<path fill="none" stroke="midnightblue" d="M1319.33,-259.79C1328.44,-250.129 1338.26,-239.71 1346.84,-230.607"/>
<polygon fill="midnightblue" stroke="midnightblue" points="1316.53,-257.658 1312.22,-267.336 1321.62,-262.459 1316.53,-257.658"/>
</g>
<!-- Node14 -->
<g id="node13" class="node"><title>Node14</title>
<g id="a_node13"><a xlink:href="GEOSBasicBlockFreqFeature_8cpp.html" target="_top" xlink:title="/home/yukiosir/workspace\l/CompilerProject/Software\l/pinhao/lib/FeaturesImpl\l/GEOSFeatures/GEOSBasicBlockFreqFeature.cpp">
<polygon fill="white" stroke="black" points="1466,-178.5 1466,-230.5 1705,-230.5 1705,-178.5 1466,-178.5"/>
<text text-anchor="start" x="1474" y="-218.5" font-family="Helvetica,sans-Serif" font-size="10.00">/home/yukiosir/workspace</text>
<text text-anchor="start" x="1474" y="-207.5" font-family="Helvetica,sans-Serif" font-size="10.00">/CompilerProject/Software</text>
<text text-anchor="start" x="1474" y="-196.5" font-family="Helvetica,sans-Serif" font-size="10.00">/pinhao/lib/FeaturesImpl</text>
<text text-anchor="middle" x="1585.5" y="-185.5" font-family="Helvetica,sans-Serif" font-size="10.00">/GEOSFeatures/GEOSBasicBlockFreqFeature.cpp</text>
</a>
</g>
</g>
<!-- Node2&#45;&gt;Node14 -->
<g id="edge12" class="edge"><title>Node2&#45;&gt;Node14</title>
<path fill="none" stroke="midnightblue" d="M1382.75,-264.891C1420.33,-253.884 1463.28,-241.303 1499.94,-230.562"/>
<polygon fill="midnightblue" stroke="midnightblue" points="1381.43,-261.632 1372.81,-267.802 1383.39,-268.35 1381.43,-261.632"/>
</g>
<!-- Node15 -->
<g id="node14" class="node"><title>Node15</title>
<g id="a_node14"><a xlink:href="GEOSFeatures_8cpp.html" target="_top" xlink:title="/home/yukiosir/workspace\l/CompilerProject/Software\l/pinhao/lib/FeaturesImpl\l/GEOSFeatures/GEOSFeatures.cpp">
<polygon fill="white" stroke="black" points="1723,-178.5 1723,-230.5 1898,-230.5 1898,-178.5 1723,-178.5"/>
<text text-anchor="start" x="1731" y="-218.5" font-family="Helvetica,sans-Serif" font-size="10.00">/home/yukiosir/workspace</text>
<text text-anchor="start" x="1731" y="-207.5" font-family="Helvetica,sans-Serif" font-size="10.00">/CompilerProject/Software</text>
<text text-anchor="start" x="1731" y="-196.5" font-family="Helvetica,sans-Serif" font-size="10.00">/pinhao/lib/FeaturesImpl</text>
<text text-anchor="middle" x="1810.5" y="-185.5" font-family="Helvetica,sans-Serif" font-size="10.00">/GEOSFeatures/GEOSFeatures.cpp</text>
</a>
</g>
</g>
<!-- Node2&#45;&gt;Node15 -->
<g id="edge13" class="edge"><title>Node2&#45;&gt;Node15</title>
<path fill="none" stroke="midnightblue" d="M1382.74,-282.085C1469.42,-271.752 1601.29,-254.126 1714.5,-231 1717.29,-230.431 1720.12,-229.829 1722.97,-229.201"/>
<polygon fill="midnightblue" stroke="midnightblue" points="1382.18,-278.627 1372.66,-283.278 1383,-285.579 1382.18,-278.627"/>
</g>
<!-- Node16 -->
<g id="node15" class="node"><title>Node16</title>
<g id="a_node15"><a xlink:href="InitializationRoutines_8cpp.html" target="_top" xlink:title="/home/yukiosir/workspace\l/CompilerProject/Software\l/pinhao/lib/InitializationRoutines.cpp">
<polygon fill="white" stroke="black" points="1916,-184 1916,-225 2089,-225 2089,-184 1916,-184"/>
<text text-anchor="start" x="1924" y="-213" font-family="Helvetica,sans-Serif" font-size="10.00">/home/yukiosir/workspace</text>
<text text-anchor="start" x="1924" y="-202" font-family="Helvetica,sans-Serif" font-size="10.00">/CompilerProject/Software</text>
<text text-anchor="middle" x="2002.5" y="-191" font-family="Helvetica,sans-Serif" font-size="10.00">/pinhao/lib/InitializationRoutines.cpp</text>
</a>
</g>
</g>
<!-- Node2&#45;&gt;Node16 -->
<g id="edge15" class="edge"><title>Node2&#45;&gt;Node16</title>
<path fill="none" stroke="midnightblue" d="M1382.76,-287.928C1504.69,-280.921 1723.31,-264.638 1907.5,-231 1916.49,-229.359 1925.87,-227.29 1935.08,-225.043"/>
<polygon fill="midnightblue" stroke="midnightblue" points="1382.49,-284.438 1372.71,-288.497 1382.89,-291.426 1382.49,-284.438"/>
</g>
<!-- Node17 -->
<g id="node16" class="node"><title>Node17</title>
<g id="a_node16"><a xlink:href="Optimizations_8cpp.html" target="_top" xlink:title="/home/yukiosir/workspace\l/CompilerProject/Software\l/pinhao/lib/Optimizer/Optimizations.cpp">
<polygon fill="white" stroke="black" points="2107.5,-184 2107.5,-225 2295.5,-225 2295.5,-184 2107.5,-184"/>
<text text-anchor="start" x="2115.5" y="-213" font-family="Helvetica,sans-Serif" font-size="10.00">/home/yukiosir/workspace</text>
<text text-anchor="start" x="2115.5" y="-202" font-family="Helvetica,sans-Serif" font-size="10.00">/CompilerProject/Software</text>
<text text-anchor="middle" x="2201.5" y="-191" font-family="Helvetica,sans-Serif" font-size="10.00">/pinhao/lib/Optimizer/Optimizations.cpp</text>
</a>
</g>
</g>
<!-- Node2&#45;&gt;Node17 -->
<g id="edge16" class="edge"><title>Node2&#45;&gt;Node17</title>
<path fill="none" stroke="midnightblue" d="M1382.92,-290.435C1534.64,-285.974 1841.75,-272.234 2098.5,-231 2108.5,-229.393 2118.96,-227.3 2129.22,-225.003"/>
<polygon fill="midnightblue" stroke="midnightblue" points="1382.6,-286.942 1372.71,-290.728 1382.8,-293.939 1382.6,-286.942"/>
</g>
<!-- Node18 -->
<g id="node17" class="node"><title>Node18</title>
<g id="a_node17"><a xlink:href="Main_8cpp.html" target="_top" xlink:title="/home/yukiosir/workspace\l/CompilerProject/Software\l/pinhao/tools/SimpleGrammarEvolution\l/Main.cpp">
<polygon fill="white" stroke="black" points="2313.5,-178.5 2313.5,-230.5 2499.5,-230.5 2499.5,-178.5 2313.5,-178.5"/>
<text text-anchor="start" x="2321.5" y="-218.5" font-family="Helvetica,sans-Serif" font-size="10.00">/home/yukiosir/workspace</text>
<text text-anchor="start" x="2321.5" y="-207.5" font-family="Helvetica,sans-Serif" font-size="10.00">/CompilerProject/Software</text>
<text text-anchor="start" x="2321.5" y="-196.5" font-family="Helvetica,sans-Serif" font-size="10.00">/pinhao/tools/SimpleGrammarEvolution</text>
<text text-anchor="middle" x="2406.5" y="-185.5" font-family="Helvetica,sans-Serif" font-size="10.00">/Main.cpp</text>
</a>
</g>
</g>
<!-- Node2&#45;&gt;Node18 -->
<g id="edge17" class="edge"><title>Node2&#45;&gt;Node18</title>
<path fill="none" stroke="midnightblue" d="M1382.93,-292.577C1563.17,-291.447 1968.27,-282.752 2304.5,-231 2307.39,-230.556 2310.31,-230.067 2313.26,-229.542"/>
<polygon fill="midnightblue" stroke="midnightblue" points="1382.67,-289.079 1372.69,-292.635 1382.71,-296.079 1382.67,-289.079"/>
</g>
<!-- Node4 -->
<g id="node3" class="node"><title>Node4</title>
<g id="a_node3"><a xlink:href="PAPIWrapper_8h.html" target="_top" xlink:title="/home/yukiosir/workspace\l/CompilerProject/Software\l/pinhao/include/pinhao/Performance\lAnalyser/PAPIWrapper.h">
<polygon fill="white" stroke="black" points="136.5,-89.5 136.5,-141.5 308.5,-141.5 308.5,-89.5 136.5,-89.5"/>
<text text-anchor="start" x="144.5" y="-129.5" font-family="Helvetica,sans-Serif" font-size="10.00">/home/yukiosir/workspace</text>
<text text-anchor="start" x="144.5" y="-118.5" font-family="Helvetica,sans-Serif" font-size="10.00">/CompilerProject/Software</text>
<text text-anchor="start" x="144.5" y="-107.5" font-family="Helvetica,sans-Serif" font-size="10.00">/pinhao/include/pinhao/Performance</text>
<text text-anchor="middle" x="222.5" y="-96.5" font-family="Helvetica,sans-Serif" font-size="10.00">Analyser/PAPIWrapper.h</text>
</a>
</g>
</g>
<!-- Node3&#45;&gt;Node4 -->
<g id="edge2" class="edge"><title>Node3&#45;&gt;Node4</title>
<path fill="none" stroke="midnightblue" d="M361.349,-174.576C335.767,-163.876 307.005,-151.846 282.321,-141.521"/>
<polygon fill="midnightblue" stroke="midnightblue" points="360.041,-177.823 370.617,-178.453 362.742,-171.365 360.041,-177.823"/>
</g>
<!-- Node3&#45;&gt;Node7 -->
<g id="edge5" class="edge"><title>Node3&#45;&gt;Node7</title>
<path fill="none" stroke="midnightblue" d="M483.517,-173.353C501.731,-162.996 521.912,-151.521 539.346,-141.607"/>
<polygon fill="midnightblue" stroke="midnightblue" points="481.717,-170.35 474.754,-178.336 485.177,-176.435 481.717,-170.35"/>
</g>
<!-- Node8 -->
<g id="node7" class="node"><title>Node8</title>
<g id="a_node7"><a xlink:href="JITExecutor_8cpp.html" target="_top" xlink:title="/home/yukiosir/workspace\l/CompilerProject/Software\l/pinhao/lib/Support/JITExecutor.cpp">
<polygon fill="white" stroke="black" points="327,-95 327,-136 500,-136 500,-95 327,-95"/>
<text text-anchor="start" x="335" y="-124" font-family="Helvetica,sans-Serif" font-size="10.00">/home/yukiosir/workspace</text>
<text text-anchor="start" x="335" y="-113" font-family="Helvetica,sans-Serif" font-size="10.00">/CompilerProject/Software</text>
<text text-anchor="middle" x="413.5" y="-102" font-family="Helvetica,sans-Serif" font-size="10.00">/pinhao/lib/Support/JITExecutor.cpp</text>
</a>
</g>
</g>
<!-- Node3&#45;&gt;Node8 -->
<g id="edge6" class="edge"><title>Node3&#45;&gt;Node8</title>
<path fill="none" stroke="midnightblue" d="M423.66,-168.494C421.502,-157.45 419.195,-145.647 417.326,-136.082"/>
<polygon fill="midnightblue" stroke="midnightblue" points="420.23,-169.193 425.583,-178.336 427.1,-167.85 420.23,-169.193"/>
</g>
<!-- Node5 -->
<g id="node4" class="node"><title>Node5</title>
<g id="a_node4"><a xlink:href="SimpleGrammarEvolution_8cpp.html" target="_top" xlink:title="/home/yukiosir/workspace\l/CompilerProject/Software\l/pinhao/lib/MachineLearning\l/GrammarEvolution/SimpleGrammarEvolution.cpp">
<polygon fill="white" stroke="black" points="0,-0.5 0,-52.5 233,-52.5 233,-0.5 0,-0.5"/>
<text text-anchor="start" x="8" y="-40.5" font-family="Helvetica,sans-Serif" font-size="10.00">/home/yukiosir/workspace</text>
<text text-anchor="start" x="8" y="-29.5" font-family="Helvetica,sans-Serif" font-size="10.00">/CompilerProject/Software</text>
<text text-anchor="start" x="8" y="-18.5" font-family="Helvetica,sans-Serif" font-size="10.00">/pinhao/lib/MachineLearning</text>
<text text-anchor="middle" x="116.5" y="-7.5" font-family="Helvetica,sans-Serif" font-size="10.00">/GrammarEvolution/SimpleGrammarEvolution.cpp</text>
</a>
</g>
</g>
<!-- Node4&#45;&gt;Node5 -->
<g id="edge3" class="edge"><title>Node4&#45;&gt;Node5</title>
<path fill="none" stroke="midnightblue" d="M184.041,-82.9342C171.883,-72.9562 158.62,-62.0702 147.091,-52.6075"/>
<polygon fill="midnightblue" stroke="midnightblue" points="181.89,-85.6971 191.84,-89.336 186.331,-80.2862 181.89,-85.6971"/>
</g>
<!-- Node6 -->
<g id="node5" class="node"><title>Node6</title>
<g id="a_node5"><a xlink:href="PAPIWrapper_8cpp.html" target="_top" xlink:title="/home/yukiosir/workspace\l/CompilerProject/Software\l/pinhao/lib/PerformanceAnalyser\l/PAPIWrapper.cpp">
<polygon fill="white" stroke="black" points="250.5,-0.5 250.5,-52.5 408.5,-52.5 408.5,-0.5 250.5,-0.5"/>
<text text-anchor="start" x="258.5" y="-40.5" font-family="Helvetica,sans-Serif" font-size="10.00">/home/yukiosir/workspace</text>
<text text-anchor="start" x="258.5" y="-29.5" font-family="Helvetica,sans-Serif" font-size="10.00">/CompilerProject/Software</text>
<text text-anchor="start" x="258.5" y="-18.5" font-family="Helvetica,sans-Serif" font-size="10.00">/pinhao/lib/PerformanceAnalyser</text>
<text text-anchor="middle" x="329.5" y="-7.5" font-family="Helvetica,sans-Serif" font-size="10.00">/PAPIWrapper.cpp</text>
</a>
</g>
</g>
<!-- Node4&#45;&gt;Node6 -->
<g id="edge4" class="edge"><title>Node4&#45;&gt;Node6</title>
<path fill="none" stroke="midnightblue" d="M261.322,-82.9342C273.594,-72.9562 286.983,-62.0702 298.621,-52.6075"/>
<polygon fill="midnightblue" stroke="midnightblue" points="259,-80.3117 253.449,-89.336 263.416,-85.7429 259,-80.3117"/>
</g>
</g>
</svg>
