<?xml version="1.0" encoding="UTF-8" standalone="no"?>
<!DOCTYPE svg PUBLIC "-//W3C//DTD SVG 1.1//EN"
 "http://www.w3.org/Graphics/SVG/1.1/DTD/svg11.dtd">
<!-- Generated by graphviz version 2.38.0 (20140413.2041)
 -->
<!-- Title: /home/yukiosir/workspace/CompilerProject/Software/pinhao/include/pinhao/Support/Iterator.h Pages: 1 -->
<svg width="737pt" height="341pt"
 viewBox="0.00 0.00 736.85 341.00" xmlns="http://www.w3.org/2000/svg" xmlns:xlink="http://www.w3.org/1999/xlink">
<g id="graph0" class="graph" transform="scale(1 1) rotate(0) translate(4 337)">
<title>/home/yukiosir/workspace/CompilerProject/Software/pinhao/include/pinhao/Support/Iterator.h</title>
<polygon fill="white" stroke="none" points="-4,4 -4,-337 732.846,-337 732.846,4 -4,4"/>
<!-- Node0 -->
<g id="node1" class="node"><title>Node0</title>
<polygon fill="#bfbfbf" stroke="black" points="76.8461,-280.5 76.8461,-332.5 226.846,-332.5 226.846,-280.5 76.8461,-280.5"/>
<text text-anchor="start" x="84.8461" y="-320.5" font-family="Helvetica,sans-Serif" font-size="10.00">/home/yukiosir/workspace</text>
<text text-anchor="start" x="84.8461" y="-309.5" font-family="Helvetica,sans-Serif" font-size="10.00">/CompilerProject/Software</text>
<text text-anchor="start" x="84.8461" y="-298.5" font-family="Helvetica,sans-Serif" font-size="10.00">/pinhao/include/pinhao/Support</text>
<text text-anchor="middle" x="151.846" y="-287.5" font-family="Helvetica,sans-Serif" font-size="10.00">/Iterator.h</text>
</g>
<!-- Node1 -->
<g id="node2" class="node"><title>Node1</title>
<g id="a_node2"><a xlink:href="Features_8h.html" target="_top" xlink:title="This file implements some basic feature classes that extends the base class Feature. ">
<polygon fill="white" stroke="black" points="83.8461,-224.5 83.8461,-243.5 219.846,-243.5 219.846,-224.5 83.8461,-224.5"/>
<text text-anchor="middle" x="151.846" y="-231.5" font-family="Helvetica,sans-Serif" font-size="10.00">pinhao/Features/Features.h</text>
</a>
</g>
</g>
<!-- Node0&#45;&gt;Node1 -->
<g id="edge1" class="edge"><title>Node0&#45;&gt;Node1</title>
<path fill="none" stroke="midnightblue" d="M151.846,-280.446C151.846,-271.73 151.846,-262.104 151.846,-253.964"/>
<polygon fill="midnightblue" stroke="midnightblue" points="155.346,-253.695 151.846,-243.695 148.346,-253.696 155.346,-253.695"/>
</g>
<!-- Node6 -->
<g id="node7" class="node"><title>Node6</title>
<polygon fill="white" stroke="#bfbfbf" points="0.346141,-56.5 0.346141,-75.5 35.3461,-75.5 35.3461,-56.5 0.346141,-56.5"/>
<text text-anchor="middle" x="17.8461" y="-63.5" font-family="Helvetica,sans-Serif" font-size="10.00">map</text>
</g>
<!-- Node0&#45;&gt;Node6 -->
<g id="edge20" class="edge"><title>Node0&#45;&gt;Node6</title>
<path fill="none" stroke="midnightblue" d="M115.685,-280.432C102.046,-270.035 86.9224,-257.299 74.8461,-244 34.9028,-200.011 18.7693,-188.957 1.84614,-132 -2.80288,-116.353 2.46561,-98.3097 8.16863,-85.2093"/>
<polygon fill="midnightblue" stroke="midnightblue" points="11.4651,-86.4309 12.6543,-75.903 5.15942,-83.3915 11.4651,-86.4309"/>
</g>
<!-- Node14 -->
<g id="node15" class="node"><title>Node14</title>
<polygon fill="white" stroke="#bfbfbf" points="238.346,-224.5 238.346,-243.5 285.346,-243.5 285.346,-224.5 238.346,-224.5"/>
<text text-anchor="middle" x="261.846" y="-231.5" font-family="Helvetica,sans-Serif" font-size="10.00">iterator</text>
</g>
<!-- Node0&#45;&gt;Node14 -->
<g id="edge19" class="edge"><title>Node0&#45;&gt;Node14</title>
<path fill="none" stroke="midnightblue" d="M190.938,-280.446C207.452,-269.862 226.059,-257.936 240.068,-248.958"/>
<polygon fill="midnightblue" stroke="midnightblue" points="242.011,-251.87 248.542,-243.527 238.234,-245.976 242.011,-251.87"/>
</g>
<!-- Node2 -->
<g id="node3" class="node"><title>Node2</title>
<g id="a_node3"><a xlink:href="Feature_8h.html" target="_top" xlink:title="This file defines the base feature class. ">
<polygon fill="white" stroke="black" points="187.346,-168.5 187.346,-187.5 318.346,-187.5 318.346,-168.5 187.346,-168.5"/>
<text text-anchor="middle" x="252.846" y="-175.5" font-family="Helvetica,sans-Serif" font-size="10.00">pinhao/Features/Feature.h</text>
</a>
</g>
</g>
<!-- Node1&#45;&gt;Node2 -->
<g id="edge2" class="edge"><title>Node1&#45;&gt;Node2</title>
<path fill="none" stroke="midnightblue" d="M168.074,-224.324C184.197,-215.703 209.146,-202.364 227.81,-192.386"/>
<polygon fill="midnightblue" stroke="midnightblue" points="229.491,-195.456 236.659,-187.655 226.19,-189.283 229.491,-195.456"/>
</g>
<!-- Node3 -->
<g id="node4" class="node"><title>Node3</title>
<g id="a_node4"><a xlink:href="FeatureInfo_8h.html" target="_top" xlink:title="This file defines a class that holds some informations about a feature. ">
<polygon fill="white" stroke="black" points="533.346,-112.5 533.346,-131.5 680.346,-131.5 680.346,-112.5 533.346,-112.5"/>
<text text-anchor="middle" x="606.846" y="-119.5" font-family="Helvetica,sans-Serif" font-size="10.00">pinhao/Features/FeatureInfo.h</text>
</a>
</g>
</g>
<!-- Node2&#45;&gt;Node3 -->
<g id="edge3" class="edge"><title>Node2&#45;&gt;Node3</title>
<path fill="none" stroke="midnightblue" d="M308.938,-168.444C371.988,-158.826 474.243,-143.228 541.023,-133.041"/>
<polygon fill="midnightblue" stroke="midnightblue" points="541.658,-136.484 551.016,-131.516 540.603,-129.565 541.658,-136.484"/>
</g>
<!-- Node2&#45;&gt;Node6 -->
<g id="edge16" class="edge"><title>Node2&#45;&gt;Node6</title>
<path fill="none" stroke="midnightblue" d="M187.253,-173.919C123.694,-169.395 33.772,-158.399 11.8461,-132 1.12531,-119.092 4.81274,-99.372 9.82808,-85.0376"/>
<polygon fill="midnightblue" stroke="midnightblue" points="13.0879,-86.3118 13.5277,-75.7261 6.58255,-83.7271 13.0879,-86.3118"/>
</g>
<!-- Node8 -->
<g id="node9" class="node"><title>Node8</title>
<polygon fill="white" stroke="#bfbfbf" points="191.346,-56.5 191.346,-75.5 240.346,-75.5 240.346,-56.5 191.346,-56.5"/>
<text text-anchor="middle" x="215.846" y="-63.5" font-family="Helvetica,sans-Serif" font-size="10.00">cassert</text>
</g>
<!-- Node2&#45;&gt;Node8 -->
<g id="edge17" class="edge"><title>Node2&#45;&gt;Node8</title>
<path fill="none" stroke="midnightblue" d="M249.147,-168.466C245.321,-159.483 239.295,-144.885 234.846,-132 229.51,-116.546 224.365,-98.7011 220.778,-85.6234"/>
<polygon fill="midnightblue" stroke="midnightblue" points="224.143,-84.6606 218.161,-75.9164 217.384,-86.4827 224.143,-84.6606"/>
</g>
<!-- Node9 -->
<g id="node10" class="node"><title>Node9</title>
<g id="a_node10"><a xlink:href="FeatureRegistry_8h.html" target="_top" xlink:title="This file defines a class that has all the registered features. ">
<polygon fill="white" stroke="black" points="21.3461,-112.5 21.3461,-131.5 188.346,-131.5 188.346,-112.5 21.3461,-112.5"/>
<text text-anchor="middle" x="104.846" y="-119.5" font-family="Helvetica,sans-Serif" font-size="10.00">pinhao/Features/FeatureRegistry.h</text>
</a>
</g>
</g>
<!-- Node2&#45;&gt;Node9 -->
<g id="edge10" class="edge"><title>Node2&#45;&gt;Node9</title>
<path fill="none" stroke="midnightblue" d="M229.395,-168.444C204.714,-159.438 165.661,-145.189 137.869,-135.049"/>
<polygon fill="midnightblue" stroke="midnightblue" points="138.781,-131.656 128.187,-131.516 136.382,-138.232 138.781,-131.656"/>
</g>
<!-- Node11 -->
<g id="node12" class="node"><title>Node11</title>
<polygon fill="white" stroke="#bfbfbf" points="244.346,-112.5 244.346,-131.5 335.346,-131.5 335.346,-112.5 244.346,-112.5"/>
<text text-anchor="middle" x="289.846" y="-119.5" font-family="Helvetica,sans-Serif" font-size="10.00">llvm/IR/Module.h</text>
</g>
<!-- Node2&#45;&gt;Node11 -->
<g id="edge14" class="edge"><title>Node2&#45;&gt;Node11</title>
<path fill="none" stroke="midnightblue" d="M258.956,-168.083C264.128,-160.534 271.692,-149.495 278.041,-140.23"/>
<polygon fill="midnightblue" stroke="midnightblue" points="281.085,-141.979 283.85,-131.751 275.31,-138.022 281.085,-141.979"/>
</g>
<!-- Node12 -->
<g id="node13" class="node"><title>Node12</title>
<polygon fill="white" stroke="#bfbfbf" points="353.346,-112.5 353.346,-131.5 442.346,-131.5 442.346,-112.5 353.346,-112.5"/>
<text text-anchor="middle" x="397.846" y="-119.5" font-family="Helvetica,sans-Serif" font-size="10.00">yaml&#45;cpp/yaml.h</text>
</g>
<!-- Node2&#45;&gt;Node12 -->
<g id="edge15" class="edge"><title>Node2&#45;&gt;Node12</title>
<path fill="none" stroke="midnightblue" d="M275.822,-168.444C300.003,-159.438 338.264,-145.189 365.492,-135.049"/>
<polygon fill="midnightblue" stroke="midnightblue" points="366.828,-138.286 374.978,-131.516 364.385,-131.727 366.828,-138.286"/>
</g>
<!-- Node13 -->
<g id="node14" class="node"><title>Node13</title>
<polygon fill="white" stroke="#bfbfbf" points="460.846,-112.5 460.846,-131.5 514.846,-131.5 514.846,-112.5 460.846,-112.5"/>
<text text-anchor="middle" x="487.846" y="-119.5" font-family="Helvetica,sans-Serif" font-size="10.00">iostream</text>
</g>
<!-- Node2&#45;&gt;Node13 -->
<g id="edge18" class="edge"><title>Node2&#45;&gt;Node13</title>
<path fill="none" stroke="midnightblue" d="M291.213,-168.461C331.131,-159.534 395.428,-145.037 450.846,-132 450.947,-131.976 451.047,-131.953 451.148,-131.929"/>
<polygon fill="midnightblue" stroke="midnightblue" points="451.863,-135.357 460.78,-129.634 450.241,-128.547 451.863,-135.357"/>
</g>
<!-- Node4 -->
<g id="node5" class="node"><title>Node4</title>
<g id="a_node5"><a xlink:href="Types_8h.html" target="_top" xlink:title="pinhao/Support/Types.h">
<polygon fill="white" stroke="black" points="546.846,-56.5 546.846,-75.5 666.846,-75.5 666.846,-56.5 546.846,-56.5"/>
<text text-anchor="middle" x="606.846" y="-63.5" font-family="Helvetica,sans-Serif" font-size="10.00">pinhao/Support/Types.h</text>
</a>
</g>
</g>
<!-- Node3&#45;&gt;Node4 -->
<g id="edge4" class="edge"><title>Node3&#45;&gt;Node4</title>
<path fill="none" stroke="midnightblue" d="M606.846,-112.083C606.846,-105.006 606.846,-94.8611 606.846,-85.9865"/>
<polygon fill="midnightblue" stroke="midnightblue" points="610.346,-85.751 606.846,-75.7511 603.346,-85.7511 610.346,-85.751"/>
</g>
<!-- Node5 -->
<g id="node6" class="node"><title>Node5</title>
<polygon fill="white" stroke="#bfbfbf" points="542.346,-0.5 542.346,-19.5 583.346,-19.5 583.346,-0.5 542.346,-0.5"/>
<text text-anchor="middle" x="562.846" y="-7.5" font-family="Helvetica,sans-Serif" font-size="10.00">string</text>
</g>
<!-- Node3&#45;&gt;Node5 -->
<g id="edge8" class="edge"><title>Node3&#45;&gt;Node5</title>
<path fill="none" stroke="midnightblue" d="M583.058,-112.499C567.125,-105.413 547.383,-93.6052 537.846,-76 529.343,-60.3026 538.966,-41.0891 548.634,-27.6377"/>
<polygon fill="midnightblue" stroke="midnightblue" points="551.414,-29.7634 554.804,-19.7252 545.894,-25.459 551.414,-29.7634"/>
</g>
<!-- Node3&#45;&gt;Node6 -->
<g id="edge6" class="edge"><title>Node3&#45;&gt;Node6</title>
<path fill="none" stroke="midnightblue" d="M533.091,-112.891C529.968,-112.583 526.877,-112.284 523.846,-112 322.32,-93.0879 270.672,-101.287 69.8461,-76 61.9717,-75.0085 53.4724,-73.6575 45.6726,-72.3038"/>
<polygon fill="midnightblue" stroke="midnightblue" points="46.0566,-68.8168 35.5947,-70.4898 44.8164,-75.706 46.0566,-68.8168"/>
</g>
<!-- Node7 -->
<g id="node8" class="node"><title>Node7</title>
<polygon fill="white" stroke="#bfbfbf" points="684.846,-56.5 684.846,-75.5 728.846,-75.5 728.846,-56.5 684.846,-56.5"/>
<text text-anchor="middle" x="706.846" y="-63.5" font-family="Helvetica,sans-Serif" font-size="10.00">vector</text>
</g>
<!-- Node3&#45;&gt;Node7 -->
<g id="edge7" class="edge"><title>Node3&#45;&gt;Node7</title>
<path fill="none" stroke="midnightblue" d="M622.913,-112.324C638.804,-103.743 663.354,-90.486 681.805,-80.5224"/>
<polygon fill="midnightblue" stroke="midnightblue" points="683.683,-83.4857 690.819,-75.6545 680.357,-77.3264 683.683,-83.4857"/>
</g>
<!-- Node3&#45;&gt;Node8 -->
<g id="edge9" class="edge"><title>Node3&#45;&gt;Node8</title>
<path fill="none" stroke="midnightblue" d="M544.891,-112.444C461.7,-100.954 316.711,-80.9302 250.549,-71.7927"/>
<polygon fill="midnightblue" stroke="midnightblue" points="251.013,-68.3237 240.628,-70.4226 250.055,-75.2579 251.013,-68.3237"/>
</g>
<!-- Node4&#45;&gt;Node5 -->
<g id="edge5" class="edge"><title>Node4&#45;&gt;Node5</title>
<path fill="none" stroke="midnightblue" d="M599.58,-56.083C593.301,-48.3768 584.058,-37.0333 576.415,-27.6531"/>
<polygon fill="midnightblue" stroke="midnightblue" points="579.007,-25.2926 569.977,-19.7511 573.58,-29.7143 579.007,-25.2926"/>
</g>
<!-- Node9&#45;&gt;Node6 -->
<g id="edge13" class="edge"><title>Node9&#45;&gt;Node6</title>
<path fill="none" stroke="midnightblue" d="M90.8681,-112.324C77.2965,-103.9 56.4659,-90.9709 40.5212,-81.0741"/>
<polygon fill="midnightblue" stroke="midnightblue" points="42.1317,-77.9544 31.7895,-75.6545 38.4401,-83.9019 42.1317,-77.9544"/>
</g>
<!-- Node9&#45;&gt;Node8 -->
<g id="edge12" class="edge"><title>Node9&#45;&gt;Node8</title>
<path fill="none" stroke="midnightblue" d="M122.68,-112.324C140.562,-103.625 168.321,-90.1202 188.892,-80.113"/>
<polygon fill="midnightblue" stroke="midnightblue" points="190.595,-83.1765 198.056,-75.6545 187.533,-76.8819 190.595,-83.1765"/>
</g>
<!-- Node10 -->
<g id="node11" class="node"><title>Node10</title>
<polygon fill="white" stroke="#bfbfbf" points="78.8461,-56.5 78.8461,-75.5 130.846,-75.5 130.846,-56.5 78.8461,-56.5"/>
<text text-anchor="middle" x="104.846" y="-63.5" font-family="Helvetica,sans-Serif" font-size="10.00">memory</text>
</g>
<!-- Node9&#45;&gt;Node10 -->
<g id="edge11" class="edge"><title>Node9&#45;&gt;Node10</title>
<path fill="none" stroke="midnightblue" d="M104.846,-112.083C104.846,-105.006 104.846,-94.8611 104.846,-85.9865"/>
<polygon fill="midnightblue" stroke="midnightblue" points="108.346,-85.751 104.846,-75.7511 101.346,-85.7511 108.346,-85.751"/>
</g>
</g>
</svg>
