<?xml version="1.0" encoding="UTF-8" standalone="no"?>
<!DOCTYPE svg PUBLIC "-//W3C//DTD SVG 1.1//EN"
 "http://www.w3.org/Graphics/SVG/1.1/DTD/svg11.dtd">
<!-- Generated by graphviz version 2.38.0 (20140413.2041)
 -->
<!-- Title: /home/yukiosir/workspace/CompilerProject/Software/pinhao/include/pinhao/Support/Iterator.h Pages: 1 -->
<svg width="1096pt" height="417pt"
 viewBox="0.00 0.00 1096.00 417.00" xmlns="http://www.w3.org/2000/svg" xmlns:xlink="http://www.w3.org/1999/xlink">
<g id="graph0" class="graph" transform="scale(1 1) rotate(0) translate(4 413)">
<title>/home/yukiosir/workspace/CompilerProject/Software/pinhao/include/pinhao/Support/Iterator.h</title>
<polygon fill="white" stroke="none" points="-4,4 -4,-413 1092,-413 1092,4 -4,4"/>
<!-- Node15 -->
<g id="node1" class="node"><title>Node15</title>
<polygon fill="#bfbfbf" stroke="black" points="626.5,-356.5 626.5,-408.5 776.5,-408.5 776.5,-356.5 626.5,-356.5"/>
<text text-anchor="start" x="634.5" y="-396.5" font-family="Helvetica,sans-Serif" font-size="10.00">/home/yukiosir/workspace</text>
<text text-anchor="start" x="634.5" y="-385.5" font-family="Helvetica,sans-Serif" font-size="10.00">/CompilerProject/Software</text>
<text text-anchor="start" x="634.5" y="-374.5" font-family="Helvetica,sans-Serif" font-size="10.00">/pinhao/include/pinhao/Support</text>
<text text-anchor="middle" x="701.5" y="-363.5" font-family="Helvetica,sans-Serif" font-size="10.00">/Iterator.h</text>
</g>
<!-- Node16 -->
<g id="node2" class="node"><title>Node16</title>
<g id="a_node2"><a xlink:href="MapFeature_8h.html" target="_top" xlink:title="/home/yukiosir/workspace\l/CompilerProject/Software\l/pinhao/include/pinhao/Features\l/MapFeature.h">
<polygon fill="white" stroke="black" points="467,-267.5 467,-319.5 622,-319.5 622,-267.5 467,-267.5"/>
<text text-anchor="start" x="475" y="-307.5" font-family="Helvetica,sans-Serif" font-size="10.00">/home/yukiosir/workspace</text>
<text text-anchor="start" x="475" y="-296.5" font-family="Helvetica,sans-Serif" font-size="10.00">/CompilerProject/Software</text>
<text text-anchor="start" x="475" y="-285.5" font-family="Helvetica,sans-Serif" font-size="10.00">/pinhao/include/pinhao/Features</text>
<text text-anchor="middle" x="544.5" y="-274.5" font-family="Helvetica,sans-Serif" font-size="10.00">/MapFeature.h</text>
</a>
</g>
</g>
<!-- Node15&#45;&gt;Node16 -->
<g id="edge1" class="edge"><title>Node15&#45;&gt;Node16</title>
<path fill="none" stroke="midnightblue" d="M647.097,-351.353C628.407,-340.996 607.698,-329.521 589.809,-319.607"/>
<polygon fill="midnightblue" stroke="midnightblue" points="645.646,-354.55 656.089,-356.336 649.039,-348.428 645.646,-354.55"/>
</g>
<!-- Node18 -->
<g id="node4" class="node"><title>Node18</title>
<g id="a_node4"><a xlink:href="MapVectorFeature_8h.html" target="_top" xlink:title="/home/yukiosir/workspace\l/CompilerProject/Software\l/pinhao/include/pinhao/Features\l/MapVectorFeature.h">
<polygon fill="white" stroke="black" points="741,-89.5 741,-141.5 896,-141.5 896,-89.5 741,-89.5"/>
<text text-anchor="start" x="749" y="-129.5" font-family="Helvetica,sans-Serif" font-size="10.00">/home/yukiosir/workspace</text>
<text text-anchor="start" x="749" y="-118.5" font-family="Helvetica,sans-Serif" font-size="10.00">/CompilerProject/Software</text>
<text text-anchor="start" x="749" y="-107.5" font-family="Helvetica,sans-Serif" font-size="10.00">/pinhao/include/pinhao/Features</text>
<text text-anchor="middle" x="818.5" y="-96.5" font-family="Helvetica,sans-Serif" font-size="10.00">/MapVectorFeature.h</text>
</a>
</g>
</g>
<!-- Node15&#45;&gt;Node18 -->
<g id="edge18" class="edge"><title>Node15&#45;&gt;Node18</title>
<path fill="none" stroke="midnightblue" d="M716.773,-346.906C740.646,-292.836 786.245,-189.556 807.316,-141.832"/>
<polygon fill="midnightblue" stroke="midnightblue" points="713.556,-345.529 712.718,-356.091 719.959,-348.356 713.556,-345.529"/>
</g>
<!-- Node17 -->
<g id="node3" class="node"><title>Node17</title>
<g id="a_node3"><a xlink:href="FeatureYAMLWrapper_8h.html" target="_top" xlink:title="/home/yukiosir/workspace\l/CompilerProject/Software\l/pinhao/include/pinhao/Support\l/FeatureYAMLWrapper.h">
<polygon fill="white" stroke="black" points="584.5,-178.5 584.5,-230.5 734.5,-230.5 734.5,-178.5 584.5,-178.5"/>
<text text-anchor="start" x="592.5" y="-218.5" font-family="Helvetica,sans-Serif" font-size="10.00">/home/yukiosir/workspace</text>
<text text-anchor="start" x="592.5" y="-207.5" font-family="Helvetica,sans-Serif" font-size="10.00">/CompilerProject/Software</text>
<text text-anchor="start" x="592.5" y="-196.5" font-family="Helvetica,sans-Serif" font-size="10.00">/pinhao/include/pinhao/Support</text>
<text text-anchor="middle" x="659.5" y="-185.5" font-family="Helvetica,sans-Serif" font-size="10.00">/FeatureYAMLWrapper.h</text>
</a>
</g>
</g>
<!-- Node16&#45;&gt;Node17 -->
<g id="edge2" class="edge"><title>Node16&#45;&gt;Node17</title>
<path fill="none" stroke="midnightblue" d="M579.706,-260.934C592.5,-250.956 607.002,-240.07 620.13,-230.607"/>
<polygon fill="midnightblue" stroke="midnightblue" points="577.268,-258.399 571.577,-267.336 581.599,-263.899 577.268,-258.399"/>
</g>
<!-- Node26 -->
<g id="node12" class="node"><title>Node26</title>
<g id="a_node12"><a xlink:href="FunctionsGeneFeature_8cpp.html" target="_top" xlink:title="/home/yukiosir/workspace\l/CompilerProject/Software\l/pinhao/lib/FeaturesImpl\l/FunctionsGeneFeature.cpp">
<polygon fill="white" stroke="black" points="0,-178.5 0,-230.5 137,-230.5 137,-178.5 0,-178.5"/>
<text text-anchor="start" x="8" y="-218.5" font-family="Helvetica,sans-Serif" font-size="10.00">/home/yukiosir/workspace</text>
<text text-anchor="start" x="8" y="-207.5" font-family="Helvetica,sans-Serif" font-size="10.00">/CompilerProject/Software</text>
<text text-anchor="start" x="8" y="-196.5" font-family="Helvetica,sans-Serif" font-size="10.00">/pinhao/lib/FeaturesImpl</text>
<text text-anchor="middle" x="68.5" y="-185.5" font-family="Helvetica,sans-Serif" font-size="10.00">/FunctionsGeneFeature.cpp</text>
</a>
</g>
</g>
<!-- Node16&#45;&gt;Node26 -->
<g id="edge15" class="edge"><title>Node16&#45;&gt;Node26</title>
<path fill="none" stroke="midnightblue" d="M456.689,-283.236C375.294,-273.645 251.196,-256.459 145.5,-231 142.762,-230.34 139.982,-229.628 137.183,-228.876"/>
<polygon fill="midnightblue" stroke="midnightblue" points="456.555,-286.744 466.893,-284.425 457.365,-279.791 456.555,-286.744"/>
</g>
<!-- Node27 -->
<g id="node13" class="node"><title>Node27</title>
<g id="a_node13"><a xlink:href="FunctionStaticCostFeature_8cpp.html" target="_top" xlink:title="/home/yukiosir/workspace\l/CompilerProject/Software\l/pinhao/lib/FeaturesImpl\l/FunctionStaticCostFeature.cpp">
<polygon fill="white" stroke="black" points="155,-178.5 155,-230.5 310,-230.5 310,-178.5 155,-178.5"/>
<text text-anchor="start" x="163" y="-218.5" font-family="Helvetica,sans-Serif" font-size="10.00">/home/yukiosir/workspace</text>
<text text-anchor="start" x="163" y="-207.5" font-family="Helvetica,sans-Serif" font-size="10.00">/CompilerProject/Software</text>
<text text-anchor="start" x="163" y="-196.5" font-family="Helvetica,sans-Serif" font-size="10.00">/pinhao/lib/FeaturesImpl</text>
<text text-anchor="middle" x="232.5" y="-185.5" font-family="Helvetica,sans-Serif" font-size="10.00">/FunctionStaticCostFeature.cpp</text>
</a>
</g>
</g>
<!-- Node16&#45;&gt;Node27 -->
<g id="edge16" class="edge"><title>Node16&#45;&gt;Node27</title>
<path fill="none" stroke="midnightblue" d="M457.065,-269.2C415.094,-257.889 364.125,-243.97 318.5,-231 315.804,-230.233 313.061,-229.449 310.293,-228.652"/>
<polygon fill="midnightblue" stroke="midnightblue" points="456.412,-272.648 466.978,-271.868 458.231,-265.889 456.412,-272.648"/>
</g>
<!-- Node28 -->
<g id="node14" class="node"><title>Node28</title>
<g id="a_node14"><a xlink:href="GEOSBasicBlockFreqFeature_8cpp.html" target="_top" xlink:title="/home/yukiosir/workspace\l/CompilerProject/Software\l/pinhao/lib/FeaturesImpl\l/GEOSFeatures/GEOSBasicBlockFreqFeature.cpp">
<polygon fill="white" stroke="black" points="328,-178.5 328,-230.5 567,-230.5 567,-178.5 328,-178.5"/>
<text text-anchor="start" x="336" y="-218.5" font-family="Helvetica,sans-Serif" font-size="10.00">/home/yukiosir/workspace</text>
<text text-anchor="start" x="336" y="-207.5" font-family="Helvetica,sans-Serif" font-size="10.00">/CompilerProject/Software</text>
<text text-anchor="start" x="336" y="-196.5" font-family="Helvetica,sans-Serif" font-size="10.00">/pinhao/lib/FeaturesImpl</text>
<text text-anchor="middle" x="447.5" y="-185.5" font-family="Helvetica,sans-Serif" font-size="10.00">/GEOSFeatures/GEOSBasicBlockFreqFeature.cpp</text>
</a>
</g>
</g>
<!-- Node16&#45;&gt;Node28 -->
<g id="edge17" class="edge"><title>Node16&#45;&gt;Node28</title>
<path fill="none" stroke="midnightblue" d="M508.988,-260.649C497.95,-250.749 485.943,-239.98 475.493,-230.607"/>
<polygon fill="midnightblue" stroke="midnightblue" points="506.662,-263.265 516.444,-267.336 511.336,-258.054 506.662,-263.265"/>
</g>
<!-- Node17&#45;&gt;Node16 -->
<g id="edge3" class="edge"><title>Node17&#45;&gt;Node16</title>
<path fill="none" stroke="midnightblue" d="M624.37,-237.006C611.583,-246.981 597.082,-257.868 583.949,-267.336"/>
<polygon fill="midnightblue" stroke="midnightblue" points="626.804,-239.545 632.494,-230.607 622.473,-234.046 626.804,-239.545"/>
</g>
<!-- Node17&#45;&gt;Node18 -->
<g id="edge4" class="edge"><title>Node17&#45;&gt;Node18</title>
<path fill="none" stroke="midnightblue" d="M708.137,-173.353C726.6,-162.996 747.665,-151.521 766.432,-141.607"/>
<polygon fill="midnightblue" stroke="midnightblue" points="706.294,-170.374 699.303,-178.336 709.733,-176.471 706.294,-170.374"/>
</g>
<!-- Node22 -->
<g id="node8" class="node"><title>Node22</title>
<g id="a_node8"><a xlink:href="VectorFeature_8h.html" target="_top" xlink:title="/home/yukiosir/workspace\l/CompilerProject/Software\l/pinhao/include/pinhao/Features\l/VectorFeature.h">
<polygon fill="white" stroke="black" points="385,-89.5 385,-141.5 540,-141.5 540,-89.5 385,-89.5"/>
<text text-anchor="start" x="393" y="-129.5" font-family="Helvetica,sans-Serif" font-size="10.00">/home/yukiosir/workspace</text>
<text text-anchor="start" x="393" y="-118.5" font-family="Helvetica,sans-Serif" font-size="10.00">/CompilerProject/Software</text>
<text text-anchor="start" x="393" y="-107.5" font-family="Helvetica,sans-Serif" font-size="10.00">/pinhao/include/pinhao/Features</text>
<text text-anchor="middle" x="462.5" y="-96.5" font-family="Helvetica,sans-Serif" font-size="10.00">/VectorFeature.h</text>
</a>
</g>
</g>
<!-- Node17&#45;&gt;Node22 -->
<g id="edge9" class="edge"><title>Node17&#45;&gt;Node22</title>
<path fill="none" stroke="midnightblue" d="M587.279,-174.436C562.607,-163.771 535.579,-151.8 512.98,-141.521"/>
<polygon fill="midnightblue" stroke="midnightblue" points="586.037,-177.711 596.605,-178.453 588.806,-171.282 586.037,-177.711"/>
</g>
<!-- Node25 -->
<g id="node11" class="node"><title>Node25</title>
<g id="a_node11"><a xlink:href="FeatureYAMLWrapper_8cpp.html" target="_top" xlink:title="/home/yukiosir/workspace\l/CompilerProject/Software\l/pinhao/lib/Support/YAMLWrapper\l/FeatureYAMLWrapper.cpp">
<polygon fill="white" stroke="black" points="558.5,-89.5 558.5,-141.5 722.5,-141.5 722.5,-89.5 558.5,-89.5"/>
<text text-anchor="start" x="566.5" y="-129.5" font-family="Helvetica,sans-Serif" font-size="10.00">/home/yukiosir/workspace</text>
<text text-anchor="start" x="566.5" y="-118.5" font-family="Helvetica,sans-Serif" font-size="10.00">/CompilerProject/Software</text>
<text text-anchor="start" x="566.5" y="-107.5" font-family="Helvetica,sans-Serif" font-size="10.00">/pinhao/lib/Support/YAMLWrapper</text>
<text text-anchor="middle" x="640.5" y="-96.5" font-family="Helvetica,sans-Serif" font-size="10.00">/FeatureYAMLWrapper.cpp</text>
</a>
</g>
</g>
<!-- Node17&#45;&gt;Node25 -->
<g id="edge14" class="edge"><title>Node17&#45;&gt;Node25</title>
<path fill="none" stroke="midnightblue" d="M651.852,-168.481C649.888,-159.487 647.814,-149.989 645.983,-141.607"/>
<polygon fill="midnightblue" stroke="midnightblue" points="648.451,-169.313 654.004,-178.336 655.29,-167.819 648.451,-169.313"/>
</g>
<!-- Node18&#45;&gt;Node17 -->
<g id="edge5" class="edge"><title>Node18&#45;&gt;Node17</title>
<path fill="none" stroke="midnightblue" d="M769.968,-146.588C751.515,-156.941 730.451,-168.417 711.675,-178.336"/>
<polygon fill="midnightblue" stroke="midnightblue" points="771.806,-149.569 778.796,-141.607 768.367,-143.473 771.806,-149.569"/>
</g>
<!-- Node19 -->
<g id="node5" class="node"><title>Node19</title>
<g id="a_node5"><a xlink:href="CFGBasicBlockStaticFeatures_8cpp.html" target="_top" xlink:title="This file implements the CFGBasicBlockStaticFeatures class. ">
<polygon fill="white" stroke="black" points="915,-0.5 915,-52.5 1088,-52.5 1088,-0.5 915,-0.5"/>
<text text-anchor="start" x="923" y="-40.5" font-family="Helvetica,sans-Serif" font-size="10.00">/home/yukiosir/workspace</text>
<text text-anchor="start" x="923" y="-29.5" font-family="Helvetica,sans-Serif" font-size="10.00">/CompilerProject/Software</text>
<text text-anchor="start" x="923" y="-18.5" font-family="Helvetica,sans-Serif" font-size="10.00">/pinhao/lib/FeaturesImpl</text>
<text text-anchor="middle" x="1001.5" y="-7.5" font-family="Helvetica,sans-Serif" font-size="10.00">/CFGBasicBlockStaticFeatures.cpp</text>
</a>
</g>
</g>
<!-- Node18&#45;&gt;Node19 -->
<g id="edge6" class="edge"><title>Node18&#45;&gt;Node19</title>
<path fill="none" stroke="midnightblue" d="M880.726,-84.917C902.819,-74.414 927.456,-62.701 948.688,-52.6075"/>
<polygon fill="midnightblue" stroke="midnightblue" points="878.96,-81.8814 871.431,-89.336 881.965,-88.2033 878.96,-81.8814"/>
</g>
<!-- Node20 -->
<g id="node6" class="node"><title>Node20</title>
<g id="a_node6"><a xlink:href="CFGFunctionStaticFeatures_8cpp.html" target="_top" xlink:title="This file implements the CFGFunctionStaticFeatures class. ">
<polygon fill="white" stroke="black" points="736,-0.5 736,-52.5 897,-52.5 897,-0.5 736,-0.5"/>
<text text-anchor="start" x="744" y="-40.5" font-family="Helvetica,sans-Serif" font-size="10.00">/home/yukiosir/workspace</text>
<text text-anchor="start" x="744" y="-29.5" font-family="Helvetica,sans-Serif" font-size="10.00">/CompilerProject/Software</text>
<text text-anchor="start" x="744" y="-18.5" font-family="Helvetica,sans-Serif" font-size="10.00">/pinhao/lib/FeaturesImpl</text>
<text text-anchor="middle" x="816.5" y="-7.5" font-family="Helvetica,sans-Serif" font-size="10.00">/CFGFunctionStaticFeatures.cpp</text>
</a>
</g>
</g>
<!-- Node18&#45;&gt;Node20 -->
<g id="edge7" class="edge"><title>Node18&#45;&gt;Node20</title>
<path fill="none" stroke="midnightblue" d="M817.688,-79.1908C817.484,-70.2824 817.268,-60.8986 817.077,-52.6075"/>
<polygon fill="midnightblue" stroke="midnightblue" points="814.193,-79.4191 817.922,-89.336 821.191,-79.2582 814.193,-79.4191"/>
</g>
<!-- Node21 -->
<g id="node7" class="node"><title>Node21</title>
<g id="a_node7"><a xlink:href="CFGModuleStaticFeatures_8cpp.html" target="_top" xlink:title="/home/yukiosir/workspace\l/CompilerProject/Software\l/pinhao/lib/FeaturesImpl\l/CFGModuleStaticFeatures.cpp">
<polygon fill="white" stroke="black" points="558,-0.5 558,-52.5 713,-52.5 713,-0.5 558,-0.5"/>
<text text-anchor="start" x="566" y="-40.5" font-family="Helvetica,sans-Serif" font-size="10.00">/home/yukiosir/workspace</text>
<text text-anchor="start" x="566" y="-29.5" font-family="Helvetica,sans-Serif" font-size="10.00">/CompilerProject/Software</text>
<text text-anchor="start" x="566" y="-18.5" font-family="Helvetica,sans-Serif" font-size="10.00">/pinhao/lib/FeaturesImpl</text>
<text text-anchor="middle" x="635.5" y="-7.5" font-family="Helvetica,sans-Serif" font-size="10.00">/CFGModuleStaticFeatures.cpp</text>
</a>
</g>
</g>
<!-- Node18&#45;&gt;Node21 -->
<g id="edge8" class="edge"><title>Node18&#45;&gt;Node21</title>
<path fill="none" stroke="midnightblue" d="M756.274,-84.917C734.181,-74.414 709.544,-62.701 688.312,-52.6075"/>
<polygon fill="midnightblue" stroke="midnightblue" points="755.035,-88.2033 765.569,-89.336 758.04,-81.8814 755.035,-88.2033"/>
</g>
<!-- Node22&#45;&gt;Node17 -->
<g id="edge10" class="edge"><title>Node22&#45;&gt;Node17</title>
<path fill="none" stroke="midnightblue" d="M534.658,-145.537C559.326,-156.2 586.356,-168.17 608.962,-178.453"/>
<polygon fill="midnightblue" stroke="midnightblue" points="535.902,-142.263 525.334,-141.521 533.133,-148.692 535.902,-142.263"/>
</g>
<!-- Node22&#45;&gt;Node21 -->
<g id="edge11" class="edge"><title>Node22&#45;&gt;Node21</title>
<path fill="none" stroke="midnightblue" d="M521.606,-84.7763C542.419,-74.3094 565.592,-62.656 585.574,-52.6075"/>
<polygon fill="midnightblue" stroke="midnightblue" points="519.9,-81.7163 512.539,-89.336 523.045,-87.97 519.9,-81.7163"/>
</g>
<!-- Node23 -->
<g id="node9" class="node"><title>Node23</title>
<g id="a_node9"><a xlink:href="GEOSFeatures_8cpp.html" target="_top" xlink:title="/home/yukiosir/workspace\l/CompilerProject/Software\l/pinhao/lib/FeaturesImpl\l/GEOSFeatures/GEOSFeatures.cpp">
<polygon fill="white" stroke="black" points="207,-0.5 207,-52.5 382,-52.5 382,-0.5 207,-0.5"/>
<text text-anchor="start" x="215" y="-40.5" font-family="Helvetica,sans-Serif" font-size="10.00">/home/yukiosir/workspace</text>
<text text-anchor="start" x="215" y="-29.5" font-family="Helvetica,sans-Serif" font-size="10.00">/CompilerProject/Software</text>
<text text-anchor="start" x="215" y="-18.5" font-family="Helvetica,sans-Serif" font-size="10.00">/pinhao/lib/FeaturesImpl</text>
<text text-anchor="middle" x="294.5" y="-7.5" font-family="Helvetica,sans-Serif" font-size="10.00">/GEOSFeatures/GEOSFeatures.cpp</text>
</a>
</g>
</g>
<!-- Node22&#45;&gt;Node23 -->
<g id="edge12" class="edge"><title>Node22&#45;&gt;Node23</title>
<path fill="none" stroke="midnightblue" d="M404.83,-84.6354C384.689,-74.2049 362.3,-62.6109 342.983,-52.6075"/>
<polygon fill="midnightblue" stroke="midnightblue" points="403.418,-87.8454 413.907,-89.336 406.637,-81.6294 403.418,-87.8454"/>
</g>
<!-- Node24 -->
<g id="node10" class="node"><title>Node24</title>
<g id="a_node10"><a xlink:href="PAPIMultFeatures_8cpp.html" target="_top" xlink:title="This file implements the features extracted by the PAPI tool by multiplexing. ">
<polygon fill="white" stroke="black" points="400,-0.5 400,-52.5 531,-52.5 531,-0.5 400,-0.5"/>
<text text-anchor="start" x="408" y="-40.5" font-family="Helvetica,sans-Serif" font-size="10.00">/home/yukiosir/workspace</text>
<text text-anchor="start" x="408" y="-29.5" font-family="Helvetica,sans-Serif" font-size="10.00">/CompilerProject/Software</text>
<text text-anchor="start" x="408" y="-18.5" font-family="Helvetica,sans-Serif" font-size="10.00">/pinhao/lib/FeaturesImpl</text>
<text text-anchor="middle" x="465.5" y="-7.5" font-family="Helvetica,sans-Serif" font-size="10.00">/PAPIMultFeatures.cpp</text>
</a>
</g>
</g>
<!-- Node22&#45;&gt;Node24 -->
<g id="edge13" class="edge"><title>Node22&#45;&gt;Node24</title>
<path fill="none" stroke="midnightblue" d="M463.718,-79.1908C464.025,-70.2824 464.348,-60.8986 464.634,-52.6075"/>
<polygon fill="midnightblue" stroke="midnightblue" points="460.215,-79.2213 463.368,-89.336 467.21,-79.4626 460.215,-79.2213"/>
</g>
</g>
</svg>
