<?xml version="1.0" encoding="UTF-8" standalone="no"?>
<!DOCTYPE svg PUBLIC "-//W3C//DTD SVG 1.1//EN"
 "http://www.w3.org/Graphics/SVG/1.1/DTD/svg11.dtd">
<!-- Generated by graphviz version 2.38.0 (20140413.2041)
 -->
<!-- Title: /home/yukiosir/workspace/CompilerProject/Software/pinhao/include/pinhao/Support/JITExecutor.h Pages: 1 -->
<svg width="657pt" height="239pt"
 viewBox="0.00 0.00 657.00 239.00" xmlns="http://www.w3.org/2000/svg" xmlns:xlink="http://www.w3.org/1999/xlink">
<g id="graph0" class="graph" transform="scale(1 1) rotate(0) translate(4 235)">
<title>/home/yukiosir/workspace/CompilerProject/Software/pinhao/include/pinhao/Support/JITExecutor.h</title>
<polygon fill="white" stroke="none" points="-4,4 -4,-235 653,-235 653,4 -4,4"/>
<!-- Node5 -->
<g id="node1" class="node"><title>Node5</title>
<polygon fill="#bfbfbf" stroke="black" points="317.5,-178.5 317.5,-230.5 467.5,-230.5 467.5,-178.5 317.5,-178.5"/>
<text text-anchor="start" x="325.5" y="-218.5" font-family="Helvetica,sans-Serif" font-size="10.00">/home/yukiosir/workspace</text>
<text text-anchor="start" x="325.5" y="-207.5" font-family="Helvetica,sans-Serif" font-size="10.00">/CompilerProject/Software</text>
<text text-anchor="start" x="325.5" y="-196.5" font-family="Helvetica,sans-Serif" font-size="10.00">/pinhao/include/pinhao/Support</text>
<text text-anchor="middle" x="392.5" y="-185.5" font-family="Helvetica,sans-Serif" font-size="10.00">/JITExecutor.h</text>
</g>
<!-- Node6 -->
<g id="node2" class="node"><title>Node6</title>
<g id="a_node2"><a xlink:href="PAPIWrapper_8h.html" target="_top" xlink:title="/home/yukiosir/workspace\l/CompilerProject/Software\l/pinhao/include/pinhao/Performance\lAnalyser/PAPIWrapper.h">
<polygon fill="white" stroke="black" points="136.5,-89.5 136.5,-141.5 308.5,-141.5 308.5,-89.5 136.5,-89.5"/>
<text text-anchor="start" x="144.5" y="-129.5" font-family="Helvetica,sans-Serif" font-size="10.00">/home/yukiosir/workspace</text>
<text text-anchor="start" x="144.5" y="-118.5" font-family="Helvetica,sans-Serif" font-size="10.00">/CompilerProject/Software</text>
<text text-anchor="start" x="144.5" y="-107.5" font-family="Helvetica,sans-Serif" font-size="10.00">/pinhao/include/pinhao/Performance</text>
<text text-anchor="middle" x="222.5" y="-96.5" font-family="Helvetica,sans-Serif" font-size="10.00">Analyser/PAPIWrapper.h</text>
</a>
</g>
</g>
<!-- Node5&#45;&gt;Node6 -->
<g id="edge1" class="edge"><title>Node5&#45;&gt;Node6</title>
<path fill="none" stroke="midnightblue" d="M334.419,-173.776C313.967,-163.309 291.196,-151.656 271.561,-141.607"/>
<polygon fill="midnightblue" stroke="midnightblue" points="332.832,-176.896 343.329,-178.336 336.021,-170.665 332.832,-176.896"/>
</g>
<!-- Node9 -->
<g id="node5" class="node"><title>Node9</title>
<g id="a_node5"><a xlink:href="PAPIMultFeatures_8cpp.html" target="_top" xlink:title="This file implements the features extracted by the PAPI tool by multiplexing. ">
<polygon fill="white" stroke="black" points="327,-89.5 327,-141.5 458,-141.5 458,-89.5 327,-89.5"/>
<text text-anchor="start" x="335" y="-129.5" font-family="Helvetica,sans-Serif" font-size="10.00">/home/yukiosir/workspace</text>
<text text-anchor="start" x="335" y="-118.5" font-family="Helvetica,sans-Serif" font-size="10.00">/CompilerProject/Software</text>
<text text-anchor="start" x="335" y="-107.5" font-family="Helvetica,sans-Serif" font-size="10.00">/pinhao/lib/FeaturesImpl</text>
<text text-anchor="middle" x="392.5" y="-96.5" font-family="Helvetica,sans-Serif" font-size="10.00">/PAPIMultFeatures.cpp</text>
</a>
</g>
</g>
<!-- Node5&#45;&gt;Node9 -->
<g id="edge4" class="edge"><title>Node5&#45;&gt;Node9</title>
<path fill="none" stroke="midnightblue" d="M392.5,-168.191C392.5,-159.282 392.5,-149.899 392.5,-141.607"/>
<polygon fill="midnightblue" stroke="midnightblue" points="389,-168.336 392.5,-178.336 396,-168.336 389,-168.336"/>
</g>
<!-- Node10 -->
<g id="node6" class="node"><title>Node10</title>
<g id="a_node6"><a xlink:href="JITExecutor_8cpp.html" target="_top" xlink:title="/home/yukiosir/workspace\l/CompilerProject/Software\l/pinhao/lib/Support/JITExecutor.cpp">
<polygon fill="white" stroke="black" points="476,-95 476,-136 649,-136 649,-95 476,-95"/>
<text text-anchor="start" x="484" y="-124" font-family="Helvetica,sans-Serif" font-size="10.00">/home/yukiosir/workspace</text>
<text text-anchor="start" x="484" y="-113" font-family="Helvetica,sans-Serif" font-size="10.00">/CompilerProject/Software</text>
<text text-anchor="middle" x="562.5" y="-102" font-family="Helvetica,sans-Serif" font-size="10.00">/pinhao/lib/Support/JITExecutor.cpp</text>
</a>
</g>
</g>
<!-- Node5&#45;&gt;Node10 -->
<g id="edge5" class="edge"><title>Node5&#45;&gt;Node10</title>
<path fill="none" stroke="midnightblue" d="M450.799,-173.665C475.077,-161.24 502.59,-147.16 524.236,-136.082"/>
<polygon fill="midnightblue" stroke="midnightblue" points="448.979,-170.665 441.671,-178.336 452.168,-176.896 448.979,-170.665"/>
</g>
<!-- Node7 -->
<g id="node3" class="node"><title>Node7</title>
<g id="a_node3"><a xlink:href="SimpleGrammarEvolution_8cpp.html" target="_top" xlink:title="/home/yukiosir/workspace\l/CompilerProject/Software\l/pinhao/lib/MachineLearning\l/GrammarEvolution/SimpleGrammarEvolution.cpp">
<polygon fill="white" stroke="black" points="0,-0.5 0,-52.5 233,-52.5 233,-0.5 0,-0.5"/>
<text text-anchor="start" x="8" y="-40.5" font-family="Helvetica,sans-Serif" font-size="10.00">/home/yukiosir/workspace</text>
<text text-anchor="start" x="8" y="-29.5" font-family="Helvetica,sans-Serif" font-size="10.00">/CompilerProject/Software</text>
<text text-anchor="start" x="8" y="-18.5" font-family="Helvetica,sans-Serif" font-size="10.00">/pinhao/lib/MachineLearning</text>
<text text-anchor="middle" x="116.5" y="-7.5" font-family="Helvetica,sans-Serif" font-size="10.00">/GrammarEvolution/SimpleGrammarEvolution.cpp</text>
</a>
</g>
</g>
<!-- Node6&#45;&gt;Node7 -->
<g id="edge2" class="edge"><title>Node6&#45;&gt;Node7</title>
<path fill="none" stroke="midnightblue" d="M184.041,-82.9342C171.883,-72.9562 158.62,-62.0702 147.091,-52.6075"/>
<polygon fill="midnightblue" stroke="midnightblue" points="181.89,-85.6971 191.84,-89.336 186.331,-80.2862 181.89,-85.6971"/>
</g>
<!-- Node8 -->
<g id="node4" class="node"><title>Node8</title>
<g id="a_node4"><a xlink:href="PAPIWrapper_8cpp.html" target="_top" xlink:title="/home/yukiosir/workspace\l/CompilerProject/Software\l/pinhao/lib/PerformanceAnalyser\l/PAPIWrapper.cpp">
<polygon fill="white" stroke="black" points="250.5,-0.5 250.5,-52.5 408.5,-52.5 408.5,-0.5 250.5,-0.5"/>
<text text-anchor="start" x="258.5" y="-40.5" font-family="Helvetica,sans-Serif" font-size="10.00">/home/yukiosir/workspace</text>
<text text-anchor="start" x="258.5" y="-29.5" font-family="Helvetica,sans-Serif" font-size="10.00">/CompilerProject/Software</text>
<text text-anchor="start" x="258.5" y="-18.5" font-family="Helvetica,sans-Serif" font-size="10.00">/pinhao/lib/PerformanceAnalyser</text>
<text text-anchor="middle" x="329.5" y="-7.5" font-family="Helvetica,sans-Serif" font-size="10.00">/PAPIWrapper.cpp</text>
</a>
</g>
</g>
<!-- Node6&#45;&gt;Node8 -->
<g id="edge3" class="edge"><title>Node6&#45;&gt;Node8</title>
<path fill="none" stroke="midnightblue" d="M261.322,-82.9342C273.594,-72.9562 286.983,-62.0702 298.621,-52.6075"/>
<polygon fill="midnightblue" stroke="midnightblue" points="259,-80.3117 253.449,-89.336 263.416,-85.7429 259,-80.3117"/>
</g>
</g>
</svg>
