<?xml version="1.0" encoding="UTF-8" standalone="no"?>
<!DOCTYPE svg PUBLIC "-//W3C//DTD SVG 1.1//EN"
 "http://www.w3.org/Graphics/SVG/1.1/DTD/svg11.dtd">
<!-- Generated by graphviz version 2.38.0 (20140413.2041)
 -->
<!-- Title: /home/yukiosir/workspace/CompilerProject/Software/pinhao/include/pinhao/Support/JITExecutor.h Pages: 1 -->
<svg width="466pt" height="128pt"
 viewBox="0.00 0.00 465.50 128.00" xmlns="http://www.w3.org/2000/svg" xmlns:xlink="http://www.w3.org/1999/xlink">
<g id="graph0" class="graph" transform="scale(1 1) rotate(0) translate(4 124)">
<title>/home/yukiosir/workspace/CompilerProject/Software/pinhao/include/pinhao/Support/JITExecutor.h</title>
<polygon fill="white" stroke="none" points="-4,4 -4,-124 461.5,-124 461.5,4 -4,4"/>
<!-- Node0 -->
<g id="node1" class="node"><title>Node0</title>
<polygon fill="#bfbfbf" stroke="black" points="180.5,-67.5 180.5,-119.5 330.5,-119.5 330.5,-67.5 180.5,-67.5"/>
<text text-anchor="start" x="188.5" y="-107.5" font-family="Helvetica,sans-Serif" font-size="10.00">/home/yukiosir/workspace</text>
<text text-anchor="start" x="188.5" y="-96.5" font-family="Helvetica,sans-Serif" font-size="10.00">/CompilerProject/Software</text>
<text text-anchor="start" x="188.5" y="-85.5" font-family="Helvetica,sans-Serif" font-size="10.00">/pinhao/include/pinhao/Support</text>
<text text-anchor="middle" x="255.5" y="-74.5" font-family="Helvetica,sans-Serif" font-size="10.00">/JITExecutor.h</text>
</g>
<!-- Node1 -->
<g id="node2" class="node"><title>Node1</title>
<polygon fill="white" stroke="#bfbfbf" points="0,-0.5 0,-30.5 111,-30.5 111,-0.5 0,-0.5"/>
<text text-anchor="start" x="8" y="-18.5" font-family="Helvetica,sans-Serif" font-size="10.00">llvm/ExecutionEngine</text>
<text text-anchor="middle" x="55.5" y="-7.5" font-family="Helvetica,sans-Serif" font-size="10.00">/MCJIT.h</text>
</g>
<!-- Node0&#45;&gt;Node1 -->
<g id="edge1" class="edge"><title>Node0&#45;&gt;Node1</title>
<path fill="none" stroke="midnightblue" d="M189.458,-67.4041C160.906,-56.5543 128.163,-44.1118 102.195,-34.2442"/>
<polygon fill="midnightblue" stroke="midnightblue" points="103.189,-30.8776 92.5977,-30.5971 100.702,-37.4211 103.189,-30.8776"/>
</g>
<!-- Node2 -->
<g id="node3" class="node"><title>Node2</title>
<polygon fill="white" stroke="#bfbfbf" points="129.5,-0.5 129.5,-30.5 239.5,-30.5 239.5,-0.5 129.5,-0.5"/>
<text text-anchor="start" x="137.5" y="-18.5" font-family="Helvetica,sans-Serif" font-size="10.00">llvm/Transforms/Utils</text>
<text text-anchor="middle" x="184.5" y="-7.5" font-family="Helvetica,sans-Serif" font-size="10.00">/Cloning.h</text>
</g>
<!-- Node0&#45;&gt;Node2 -->
<g id="edge2" class="edge"><title>Node0&#45;&gt;Node2</title>
<path fill="none" stroke="midnightblue" d="M231.858,-67.1931C223.122,-57.8418 213.303,-47.3319 204.881,-38.3165"/>
<polygon fill="midnightblue" stroke="midnightblue" points="207.286,-35.7633 197.901,-30.8453 202.171,-40.542 207.286,-35.7633"/>
</g>
<!-- Node3 -->
<g id="node4" class="node"><title>Node3</title>
<polygon fill="white" stroke="#bfbfbf" points="257.5,-6 257.5,-25 395.5,-25 395.5,-6 257.5,-6"/>
<text text-anchor="middle" x="326.5" y="-13" font-family="Helvetica,sans-Serif" font-size="10.00">llvm/Support/TargetSelect.h</text>
</g>
<!-- Node0&#45;&gt;Node3 -->
<g id="edge3" class="edge"><title>Node0&#45;&gt;Node3</title>
<path fill="none" stroke="midnightblue" d="M279.142,-67.1931C289.731,-55.8582 301.911,-42.821 311.266,-32.8065"/>
<polygon fill="midnightblue" stroke="midnightblue" points="314.095,-34.9056 318.364,-25.2089 308.98,-30.127 314.095,-34.9056"/>
</g>
<!-- Node4 -->
<g id="node5" class="node"><title>Node4</title>
<polygon fill="white" stroke="#bfbfbf" points="413.5,-6 413.5,-25 457.5,-25 457.5,-6 413.5,-6"/>
<text text-anchor="middle" x="435.5" y="-13" font-family="Helvetica,sans-Serif" font-size="10.00">vector</text>
</g>
<!-- Node0&#45;&gt;Node4 -->
<g id="edge4" class="edge"><title>Node0&#45;&gt;Node4</title>
<path fill="none" stroke="midnightblue" d="M318.117,-67.403C344.851,-56.4951 376.323,-43.3969 404.5,-31 405.693,-30.4751 406.909,-29.9337 408.136,-29.3824"/>
<polygon fill="midnightblue" stroke="midnightblue" points="409.9,-32.4238 417.532,-25.0751 406.984,-26.0605 409.9,-32.4238"/>
</g>
</g>
</svg>
