<?xml version="1.0" encoding="UTF-8" standalone="no"?>
<!DOCTYPE svg PUBLIC "-//W3C//DTD SVG 1.1//EN"
 "http://www.w3.org/Graphics/SVG/1.1/DTD/svg11.dtd">
<!-- Generated by graphviz version 2.38.0 (20140413.2041)
 -->
<!-- Title: /home/yukiosir/workspace/CompilerProject/Software/pinhao/lib/Support/JITExecutor.cpp Pages: 1 -->
<svg width="586pt" height="240pt"
 viewBox="0.00 0.00 585.50 240.00" xmlns="http://www.w3.org/2000/svg" xmlns:xlink="http://www.w3.org/1999/xlink">
<g id="graph0" class="graph" transform="scale(1 1) rotate(0) translate(4 236)">
<title>/home/yukiosir/workspace/CompilerProject/Software/pinhao/lib/Support/JITExecutor.cpp</title>
<polygon fill="white" stroke="none" points="-4,4 -4,-236 581.5,-236 581.5,4 -4,4"/>
<!-- Node0 -->
<g id="node1" class="node"><title>Node0</title>
<polygon fill="#bfbfbf" stroke="black" points="280,-190.5 280,-231.5 453,-231.5 453,-190.5 280,-190.5"/>
<text text-anchor="start" x="288" y="-219.5" font-family="Helvetica,sans-Serif" font-size="10.00">/home/yukiosir/workspace</text>
<text text-anchor="start" x="288" y="-208.5" font-family="Helvetica,sans-Serif" font-size="10.00">/CompilerProject/Software</text>
<text text-anchor="middle" x="366.5" y="-197.5" font-family="Helvetica,sans-Serif" font-size="10.00">/pinhao/lib/Support/JITExecutor.cpp</text>
</g>
<!-- Node1 -->
<g id="node2" class="node"><title>Node1</title>
<g id="a_node2"><a xlink:href="JITExecutor_8h.html" target="_top" xlink:title="This file defines a class that executes a module. ">
<polygon fill="white" stroke="black" points="147.5,-129 147.5,-148 293.5,-148 293.5,-129 147.5,-129"/>
<text text-anchor="middle" x="220.5" y="-136" font-family="Helvetica,sans-Serif" font-size="10.00">pinhao/Support/JITExecutor.h</text>
</a>
</g>
</g>
<!-- Node0&#45;&gt;Node1 -->
<g id="edge1" class="edge"><title>Node0&#45;&gt;Node1</title>
<path fill="none" stroke="midnightblue" d="M325.831,-190.362C300.841,-178.295 269.517,-163.169 247.549,-152.561"/>
<polygon fill="midnightblue" stroke="midnightblue" points="248.989,-149.37 238.462,-148.173 245.945,-155.674 248.989,-149.37"/>
</g>
<!-- Node6 -->
<g id="node7" class="node"><title>Node6</title>
<polygon fill="white" stroke="#bfbfbf" points="311.5,-123.5 311.5,-153.5 421.5,-153.5 421.5,-123.5 311.5,-123.5"/>
<text text-anchor="start" x="319.5" y="-141.5" font-family="Helvetica,sans-Serif" font-size="10.00">llvm/Transforms/Utils</text>
<text text-anchor="middle" x="366.5" y="-130.5" font-family="Helvetica,sans-Serif" font-size="10.00">/Cloning.h</text>
</g>
<!-- Node0&#45;&gt;Node6 -->
<g id="edge6" class="edge"><title>Node0&#45;&gt;Node6</title>
<path fill="none" stroke="midnightblue" d="M366.5,-190.362C366.5,-182.226 366.5,-172.7 366.5,-164.105"/>
<polygon fill="midnightblue" stroke="midnightblue" points="370,-163.892 366.5,-153.892 363,-163.892 370,-163.892"/>
</g>
<!-- Node7 -->
<g id="node8" class="node"><title>Node7</title>
<polygon fill="white" stroke="#bfbfbf" points="439.5,-129 439.5,-148 577.5,-148 577.5,-129 439.5,-129"/>
<text text-anchor="middle" x="508.5" y="-136" font-family="Helvetica,sans-Serif" font-size="10.00">llvm/Support/TargetSelect.h</text>
</g>
<!-- Node0&#45;&gt;Node7 -->
<g id="edge7" class="edge"><title>Node0&#45;&gt;Node7</title>
<path fill="none" stroke="midnightblue" d="M406.055,-190.362C430.251,-178.349 460.553,-163.305 481.904,-152.704"/>
<polygon fill="midnightblue" stroke="midnightblue" points="483.63,-155.755 491.03,-148.173 480.517,-149.485 483.63,-155.755"/>
</g>
<!-- Node2 -->
<g id="node3" class="node"><title>Node2</title>
<g id="a_node3"><a xlink:href="InitializationRoutines_8h.html" target="_top" xlink:title="pinhao/InitializationRoutines.h">
<polygon fill="white" stroke="black" points="0,-62 0,-81 147,-81 147,-62 0,-62"/>
<text text-anchor="middle" x="73.5" y="-69" font-family="Helvetica,sans-Serif" font-size="10.00">pinhao/InitializationRoutines.h</text>
</a>
</g>
</g>
<!-- Node1&#45;&gt;Node2 -->
<g id="edge2" class="edge"><title>Node1&#45;&gt;Node2</title>
<path fill="none" stroke="midnightblue" d="M200.98,-128.869C175.719,-117.699 131.501,-98.1468 102.358,-85.2602"/>
<polygon fill="midnightblue" stroke="midnightblue" points="103.662,-82.0103 93.1012,-81.1672 100.832,-88.4123 103.662,-82.0103"/>
</g>
<!-- Node4 -->
<g id="node5" class="node"><title>Node4</title>
<polygon fill="white" stroke="#bfbfbf" points="165,-56.5 165,-86.5 276,-86.5 276,-56.5 165,-56.5"/>
<text text-anchor="start" x="173" y="-74.5" font-family="Helvetica,sans-Serif" font-size="10.00">llvm/ExecutionEngine</text>
<text text-anchor="middle" x="220.5" y="-63.5" font-family="Helvetica,sans-Serif" font-size="10.00">/MCJIT.h</text>
</g>
<!-- Node1&#45;&gt;Node4 -->
<g id="edge4" class="edge"><title>Node1&#45;&gt;Node4</title>
<path fill="none" stroke="midnightblue" d="M220.5,-128.734C220.5,-120.541 220.5,-107.923 220.5,-96.7136"/>
<polygon fill="midnightblue" stroke="midnightblue" points="224,-96.589 220.5,-86.589 217,-96.5891 224,-96.589"/>
</g>
<!-- Node5 -->
<g id="node6" class="node"><title>Node5</title>
<polygon fill="white" stroke="#bfbfbf" points="293.5,-62 293.5,-81 337.5,-81 337.5,-62 293.5,-62"/>
<text text-anchor="middle" x="315.5" y="-69" font-family="Helvetica,sans-Serif" font-size="10.00">vector</text>
</g>
<!-- Node1&#45;&gt;Node5 -->
<g id="edge5" class="edge"><title>Node1&#45;&gt;Node5</title>
<path fill="none" stroke="midnightblue" d="M233.312,-128.734C248.981,-118.013 275.722,-99.7165 294.434,-86.9137"/>
<polygon fill="midnightblue" stroke="midnightblue" points="296.614,-89.6628 302.891,-81.1273 292.661,-83.8856 296.614,-89.6628"/>
</g>
<!-- Node3 -->
<g id="node4" class="node"><title>Node3</title>
<polygon fill="white" stroke="#bfbfbf" points="28,-0.5 28,-19.5 119,-19.5 119,-0.5 28,-0.5"/>
<text text-anchor="middle" x="73.5" y="-7.5" font-family="Helvetica,sans-Serif" font-size="10.00">llvm/IR/Module.h</text>
</g>
<!-- Node2&#45;&gt;Node3 -->
<g id="edge3" class="edge"><title>Node2&#45;&gt;Node3</title>
<path fill="none" stroke="midnightblue" d="M73.5,-61.9751C73.5,-53.5803 73.5,-40.4806 73.5,-29.6631"/>
<polygon fill="midnightblue" stroke="midnightblue" points="77.0001,-29.5091 73.5,-19.5091 70.0001,-29.5091 77.0001,-29.5091"/>
</g>
</g>
</svg>
