<?xml version="1.0" encoding="UTF-8" standalone="no"?>
<!DOCTYPE svg PUBLIC "-//W3C//DTD SVG 1.1//EN"
 "http://www.w3.org/Graphics/SVG/1.1/DTD/svg11.dtd">
<!-- Generated by graphviz version 2.38.0 (20140413.2041)
 -->
<!-- Title: /home/yukiosir/workspace/CompilerProject/Software/pinhao/include/pinhao/Support/JITExecutor.h Pages: 1 -->
<svg width="330pt" height="239pt"
 viewBox="0.00 0.00 329.50 239.00" xmlns="http://www.w3.org/2000/svg" xmlns:xlink="http://www.w3.org/1999/xlink">
<g id="graph0" class="graph" transform="scale(1 1) rotate(0) translate(4 235)">
<title>/home/yukiosir/workspace/CompilerProject/Software/pinhao/include/pinhao/Support/JITExecutor.h</title>
<polygon fill="white" stroke="none" points="-4,4 -4,-235 325.5,-235 325.5,4 -4,4"/>
<!-- Node5 -->
<g id="node1" class="node"><title>Node5</title>
<polygon fill="#bfbfbf" stroke="black" points="96,-178.5 96,-230.5 246,-230.5 246,-178.5 96,-178.5"/>
<text text-anchor="start" x="104" y="-218.5" font-family="Helvetica,sans-Serif" font-size="10.00">/home/yukiosir/workspace</text>
<text text-anchor="start" x="104" y="-207.5" font-family="Helvetica,sans-Serif" font-size="10.00">/CompilerProject/Software</text>
<text text-anchor="start" x="104" y="-196.5" font-family="Helvetica,sans-Serif" font-size="10.00">/pinhao/include/pinhao/Support</text>
<text text-anchor="middle" x="171" y="-185.5" font-family="Helvetica,sans-Serif" font-size="10.00">/JITExecutor.h</text>
</g>
<!-- Node6 -->
<g id="node2" class="node"><title>Node6</title>
<g id="a_node2"><a xlink:href="PAPIWrapper_8h.html" target="_top" xlink:title="/home/yukiosir/workspace\l/CompilerProject/Software\l/pinhao/include/pinhao/Performance\lAnalyser/PAPIWrapper.h">
<polygon fill="white" stroke="black" points="0,-89.5 0,-141.5 172,-141.5 172,-89.5 0,-89.5"/>
<text text-anchor="start" x="8" y="-129.5" font-family="Helvetica,sans-Serif" font-size="10.00">/home/yukiosir/workspace</text>
<text text-anchor="start" x="8" y="-118.5" font-family="Helvetica,sans-Serif" font-size="10.00">/CompilerProject/Software</text>
<text text-anchor="start" x="8" y="-107.5" font-family="Helvetica,sans-Serif" font-size="10.00">/pinhao/include/pinhao/Performance</text>
<text text-anchor="middle" x="86" y="-96.5" font-family="Helvetica,sans-Serif" font-size="10.00">Analyser/PAPIWrapper.h</text>
</a>
</g>
</g>
<!-- Node5&#45;&gt;Node6 -->
<g id="edge1" class="edge"><title>Node5&#45;&gt;Node6</title>
<path fill="none" stroke="midnightblue" d="M139.322,-171.077C129.805,-161.335 119.511,-150.8 110.53,-141.607"/>
<polygon fill="midnightblue" stroke="midnightblue" points="136.923,-173.629 146.414,-178.336 141.93,-168.737 136.923,-173.629"/>
</g>
<!-- Node8 -->
<g id="node4" class="node"><title>Node8</title>
<g id="a_node4"><a xlink:href="PAPIMultFeatures_8cpp.html" target="_top" xlink:title="This file implements the features extracted by the PAPI tool by multiplexing. ">
<polygon fill="white" stroke="black" points="190.5,-89.5 190.5,-141.5 321.5,-141.5 321.5,-89.5 190.5,-89.5"/>
<text text-anchor="start" x="198.5" y="-129.5" font-family="Helvetica,sans-Serif" font-size="10.00">/home/yukiosir/workspace</text>
<text text-anchor="start" x="198.5" y="-118.5" font-family="Helvetica,sans-Serif" font-size="10.00">/CompilerProject/Software</text>
<text text-anchor="start" x="198.5" y="-107.5" font-family="Helvetica,sans-Serif" font-size="10.00">/pinhao/lib/FeaturesImpl</text>
<text text-anchor="middle" x="256" y="-96.5" font-family="Helvetica,sans-Serif" font-size="10.00">/PAPIMultFeatures.cpp</text>
</a>
</g>
</g>
<!-- Node5&#45;&gt;Node8 -->
<g id="edge3" class="edge"><title>Node5&#45;&gt;Node8</title>
<path fill="none" stroke="midnightblue" d="M202.678,-171.077C212.195,-161.335 222.489,-150.8 231.47,-141.607"/>
<polygon fill="midnightblue" stroke="midnightblue" points="200.07,-168.737 195.586,-178.336 205.077,-173.629 200.07,-168.737"/>
</g>
<!-- Node7 -->
<g id="node3" class="node"><title>Node7</title>
<g id="a_node3"><a xlink:href="PAPIWrapper_8cpp.html" target="_top" xlink:title="/home/yukiosir/workspace\l/CompilerProject/Software\l/pinhao/lib/PerformanceAnalyser\l/PAPIWrapper.cpp">
<polygon fill="white" stroke="black" points="7,-0.5 7,-52.5 165,-52.5 165,-0.5 7,-0.5"/>
<text text-anchor="start" x="15" y="-40.5" font-family="Helvetica,sans-Serif" font-size="10.00">/home/yukiosir/workspace</text>
<text text-anchor="start" x="15" y="-29.5" font-family="Helvetica,sans-Serif" font-size="10.00">/CompilerProject/Software</text>
<text text-anchor="start" x="15" y="-18.5" font-family="Helvetica,sans-Serif" font-size="10.00">/pinhao/lib/PerformanceAnalyser</text>
<text text-anchor="middle" x="86" y="-7.5" font-family="Helvetica,sans-Serif" font-size="10.00">/PAPIWrapper.cpp</text>
</a>
</g>
</g>
<!-- Node6&#45;&gt;Node7 -->
<g id="edge2" class="edge"><title>Node6&#45;&gt;Node7</title>
<path fill="none" stroke="midnightblue" d="M86,-79.1908C86,-70.2824 86,-60.8986 86,-52.6075"/>
<polygon fill="midnightblue" stroke="midnightblue" points="82.5001,-79.336 86,-89.336 89.5001,-79.336 82.5001,-79.336"/>
</g>
</g>
</svg>
