<?xml version="1.0" encoding="UTF-8" standalone="no"?>
<!DOCTYPE svg PUBLIC "-//W3C//DTD SVG 1.1//EN"
 "http://www.w3.org/Graphics/SVG/1.1/DTD/svg11.dtd">
<!-- Generated by graphviz version 2.38.0 (20140413.2041)
 -->
<!-- Title: /home/yukiosir/workspace/CompilerProject/Software/pinhao/lib/MachineLearning/GrammarEvolution/LitFormula.cpp Pages: 1 -->
<svg width="1279pt" height="542pt"
 viewBox="0.00 0.00 1279.00 542.00" xmlns="http://www.w3.org/2000/svg" xmlns:xlink="http://www.w3.org/1999/xlink">
<g id="graph0" class="graph" transform="scale(1 1) rotate(0) translate(4 538)">
<title>/home/yukiosir/workspace/CompilerProject/Software/pinhao/lib/MachineLearning/GrammarEvolution/LitFormula.cpp</title>
<polygon fill="white" stroke="none" points="-4,4 -4,-538 1275,-538 1275,4 -4,4"/>
<!-- Node0 -->
<g id="node1" class="node"><title>Node0</title>
<polygon fill="#bfbfbf" stroke="black" points="1034,-481.5 1034,-533.5 1202,-533.5 1202,-481.5 1034,-481.5"/>
<text text-anchor="start" x="1042" y="-521.5" font-family="Helvetica,sans-Serif" font-size="10.00">/home/yukiosir/workspace</text>
<text text-anchor="start" x="1042" y="-510.5" font-family="Helvetica,sans-Serif" font-size="10.00">/CompilerProject/Software</text>
<text text-anchor="start" x="1042" y="-499.5" font-family="Helvetica,sans-Serif" font-size="10.00">/pinhao/lib/MachineLearning</text>
<text text-anchor="middle" x="1118" y="-488.5" font-family="Helvetica,sans-Serif" font-size="10.00">/GrammarEvolution/LitFormula.cpp</text>
</g>
<!-- Node1 -->
<g id="node2" class="node"><title>Node1</title>
<g id="a_node2"><a xlink:href="LitFormula_8h.html" target="_top" xlink:title="pinhao/MachineLearning\l/GrammarEvolution/LitFormula.h">
<polygon fill="white" stroke="black" points="975,-414.5 975,-444.5 1133,-444.5 1133,-414.5 975,-414.5"/>
<text text-anchor="start" x="983" y="-432.5" font-family="Helvetica,sans-Serif" font-size="10.00">pinhao/MachineLearning</text>
<text text-anchor="middle" x="1054" y="-421.5" font-family="Helvetica,sans-Serif" font-size="10.00">/GrammarEvolution/LitFormula.h</text>
</a>
</g>
</g>
<!-- Node0&#45;&gt;Node1 -->
<g id="edge1" class="edge"><title>Node0&#45;&gt;Node1</title>
<path fill="none" stroke="midnightblue" d="M1096.69,-481.193C1088.89,-471.936 1080.14,-461.544 1072.6,-452.59"/>
<polygon fill="midnightblue" stroke="midnightblue" points="1075.2,-450.24 1066.08,-444.845 1069.84,-454.749 1075.2,-450.24"/>
</g>
<!-- Node17 -->
<g id="node18" class="node"><title>Node17</title>
<g id="a_node18"><a xlink:href="Random_8h.html" target="_top" xlink:title="pinhao/Support/Random.h">
<polygon fill="white" stroke="black" points="1141,-291.5 1141,-310.5 1271,-310.5 1271,-291.5 1141,-291.5"/>
<text text-anchor="middle" x="1206" y="-298.5" font-family="Helvetica,sans-Serif" font-size="10.00">pinhao/Support/Random.h</text>
</a>
</g>
</g>
<!-- Node0&#45;&gt;Node17 -->
<g id="edge35" class="edge"><title>Node0&#45;&gt;Node17</title>
<path fill="none" stroke="midnightblue" d="M1128.79,-481.424C1146.75,-439.683 1182.37,-356.919 1198.15,-320.236"/>
<polygon fill="midnightblue" stroke="midnightblue" points="1201.47,-321.373 1202.21,-310.803 1195.04,-318.606 1201.47,-321.373"/>
</g>
<!-- Node2 -->
<g id="node3" class="node"><title>Node2</title>
<g id="a_node3"><a xlink:href="Formula_8h.html" target="_top" xlink:title="pinhao/MachineLearning\l/GrammarEvolution/Formula.h">
<polygon fill="white" stroke="black" points="935.5,-347.5 935.5,-377.5 1082.5,-377.5 1082.5,-347.5 935.5,-347.5"/>
<text text-anchor="start" x="943.5" y="-365.5" font-family="Helvetica,sans-Serif" font-size="10.00">pinhao/MachineLearning</text>
<text text-anchor="middle" x="1009" y="-354.5" font-family="Helvetica,sans-Serif" font-size="10.00">/GrammarEvolution/Formula.h</text>
</a>
</g>
</g>
<!-- Node1&#45;&gt;Node2 -->
<g id="edge2" class="edge"><title>Node1&#45;&gt;Node2</title>
<path fill="none" stroke="midnightblue" d="M1044.24,-414.396C1038.46,-406.049 1031.01,-395.287 1024.45,-385.811"/>
<polygon fill="midnightblue" stroke="midnightblue" points="1027.32,-383.806 1018.75,-377.577 1021.56,-387.791 1027.32,-383.806"/>
</g>
<!-- Node3 -->
<g id="node4" class="node"><title>Node3</title>
<g id="a_node4"><a xlink:href="FeatureSet_8h.html" target="_top" xlink:title="This file defines a class which contains the features selected by the user (by some command line)...">
<polygon fill="white" stroke="black" points="598,-291.5 598,-310.5 744,-310.5 744,-291.5 598,-291.5"/>
<text text-anchor="middle" x="671" y="-298.5" font-family="Helvetica,sans-Serif" font-size="10.00">pinhao/Features/FeatureSet.h</text>
</a>
</g>
</g>
<!-- Node2&#45;&gt;Node3 -->
<g id="edge3" class="edge"><title>Node2&#45;&gt;Node3</title>
<path fill="none" stroke="midnightblue" d="M935.242,-348.516C873.398,-337.629 786.289,-322.295 729.251,-312.254"/>
<polygon fill="midnightblue" stroke="midnightblue" points="729.77,-308.792 719.315,-310.505 728.556,-315.686 729.77,-308.792"/>
</g>
<!-- Node7 -->
<g id="node8" class="node"><title>Node7</title>
<g id="a_node8"><a xlink:href="Types_8h.html" target="_top" xlink:title="pinhao/Support/Types.h">
<polygon fill="white" stroke="black" points="16,-56.5 16,-75.5 136,-75.5 136,-56.5 16,-56.5"/>
<text text-anchor="middle" x="76" y="-63.5" font-family="Helvetica,sans-Serif" font-size="10.00">pinhao/Support/Types.h</text>
</a>
</g>
</g>
<!-- Node2&#45;&gt;Node7 -->
<g id="edge28" class="edge"><title>Node2&#45;&gt;Node7</title>
<path fill="none" stroke="midnightblue" d="M935.215,-360.794C702.612,-357.601 0,-340.165 0,-246 0,-246 0,-246 0,-188 0,-144.475 35.699,-103.775 58.1634,-82.4715"/>
<polygon fill="midnightblue" stroke="midnightblue" points="60.7341,-84.8634 65.7503,-75.5313 56.0094,-79.6984 60.7341,-84.8634"/>
</g>
<!-- Node8 -->
<g id="node9" class="node"><title>Node8</title>
<polygon fill="white" stroke="#bfbfbf" points="585.5,-0.5 585.5,-19.5 626.5,-19.5 626.5,-0.5 585.5,-0.5"/>
<text text-anchor="middle" x="606" y="-7.5" font-family="Helvetica,sans-Serif" font-size="10.00">string</text>
</g>
<!-- Node2&#45;&gt;Node8 -->
<g id="edge33" class="edge"><title>Node2&#45;&gt;Node8</title>
<path fill="none" stroke="midnightblue" d="M1035.24,-347.345C1066.05,-328.596 1113,-292.411 1113,-246 1113,-246 1113,-246 1113,-126.5 1113,-28.2125 746.191,-13.5651 636.575,-11.3823"/>
<polygon fill="midnightblue" stroke="midnightblue" points="636.564,-7.8816 626.503,-11.203 636.439,-14.8805 636.564,-7.8816"/>
</g>
<!-- Node10 -->
<g id="node11" class="node"><title>Node10</title>
<polygon fill="white" stroke="#bfbfbf" points="878,-56.5 878,-75.5 922,-75.5 922,-56.5 878,-56.5"/>
<text text-anchor="middle" x="900" y="-63.5" font-family="Helvetica,sans-Serif" font-size="10.00">vector</text>
</g>
<!-- Node2&#45;&gt;Node10 -->
<g id="edge34" class="edge"><title>Node2&#45;&gt;Node10</title>
<path fill="none" stroke="midnightblue" d="M982.756,-347.345C951.947,-328.596 905,-292.411 905,-246 905,-246 905,-246 905,-188 905,-151.683 902.724,-109.286 901.243,-85.5491"/>
<polygon fill="midnightblue" stroke="midnightblue" points="904.731,-85.2568 900.593,-75.5036 897.746,-85.7086 904.731,-85.2568"/>
</g>
<!-- Node2&#45;&gt;Node17 -->
<g id="edge26" class="edge"><title>Node2&#45;&gt;Node17</title>
<path fill="none" stroke="midnightblue" d="M1055.69,-347.399C1089.88,-337.073 1135.71,-323.231 1167.74,-313.556"/>
<polygon fill="midnightblue" stroke="midnightblue" points="1169.06,-316.813 1177.62,-310.571 1167.04,-310.112 1169.06,-316.813"/>
</g>
<!-- Node19 -->
<g id="node20" class="node"><title>Node19</title>
<g id="a_node20"><a xlink:href="Evolution_8h.html" target="_top" xlink:title="pinhao/MachineLearning\l/GrammarEvolution/Evolution.h">
<polygon fill="white" stroke="black" points="933,-112.5 933,-142.5 1085,-142.5 1085,-112.5 933,-112.5"/>
<text text-anchor="start" x="941" y="-130.5" font-family="Helvetica,sans-Serif" font-size="10.00">pinhao/MachineLearning</text>
<text text-anchor="middle" x="1009" y="-119.5" font-family="Helvetica,sans-Serif" font-size="10.00">/GrammarEvolution/Evolution.h</text>
</a>
</g>
</g>
<!-- Node2&#45;&gt;Node19 -->
<g id="edge29" class="edge"><title>Node2&#45;&gt;Node19</title>
<path fill="none" stroke="midnightblue" d="M1009,-347.276C1009,-308.593 1009,-201.15 1009,-152.721"/>
<polygon fill="midnightblue" stroke="midnightblue" points="1012.5,-152.538 1009,-142.538 1005.5,-152.538 1012.5,-152.538"/>
</g>
<!-- Node4 -->
<g id="node5" class="node"><title>Node4</title>
<g id="a_node5"><a xlink:href="Features_8h.html" target="_top" xlink:title="This file implements some basic feature classes that extends the base class Feature. ">
<polygon fill="white" stroke="black" points="568,-235.5 568,-254.5 704,-254.5 704,-235.5 568,-235.5"/>
<text text-anchor="middle" x="636" y="-242.5" font-family="Helvetica,sans-Serif" font-size="10.00">pinhao/Features/Features.h</text>
</a>
</g>
</g>
<!-- Node3&#45;&gt;Node4 -->
<g id="edge4" class="edge"><title>Node3&#45;&gt;Node4</title>
<path fill="none" stroke="midnightblue" d="M665.22,-291.083C660.328,-283.534 653.173,-272.495 647.167,-263.23"/>
<polygon fill="midnightblue" stroke="midnightblue" points="650.048,-261.239 641.672,-254.751 644.174,-265.046 650.048,-261.239"/>
</g>
<!-- Node9 -->
<g id="node10" class="node"><title>Node9</title>
<polygon fill="white" stroke="#bfbfbf" points="317.5,-56.5 317.5,-75.5 352.5,-75.5 352.5,-56.5 317.5,-56.5"/>
<text text-anchor="middle" x="335" y="-63.5" font-family="Helvetica,sans-Serif" font-size="10.00">map</text>
</g>
<!-- Node3&#45;&gt;Node9 -->
<g id="edge23" class="edge"><title>Node3&#45;&gt;Node9</title>
<path fill="none" stroke="midnightblue" d="M597.971,-292.917C509.597,-279.985 364.405,-243.756 298,-143 285.209,-123.592 302.41,-99.1068 317.386,-83.2564"/>
<polygon fill="midnightblue" stroke="midnightblue" points="320.229,-85.3644 324.844,-75.8275 315.289,-80.4049 320.229,-85.3644"/>
</g>
<!-- Node3&#45;&gt;Node10 -->
<g id="edge24" class="edge"><title>Node3&#45;&gt;Node10</title>
<path fill="none" stroke="midnightblue" d="M685.192,-291.408C698.656,-282.944 719.133,-269.247 735,-255 798.477,-198.005 861.694,-117.779 887.672,-83.5359"/>
<polygon fill="midnightblue" stroke="midnightblue" points="890.498,-85.6008 893.717,-75.5069 884.906,-81.3901 890.498,-85.6008"/>
</g>
<!-- Node11 -->
<g id="node12" class="node"><title>Node11</title>
<polygon fill="white" stroke="#bfbfbf" points="153.5,-56.5 153.5,-75.5 202.5,-75.5 202.5,-56.5 153.5,-56.5"/>
<text text-anchor="middle" x="178" y="-63.5" font-family="Helvetica,sans-Serif" font-size="10.00">cassert</text>
</g>
<!-- Node3&#45;&gt;Node11 -->
<g id="edge22" class="edge"><title>Node3&#45;&gt;Node11</title>
<path fill="none" stroke="midnightblue" d="M597.976,-291.884C454.474,-274.217 144.453,-226.972 85,-143 77.0386,-131.755 77.6806,-123.673 85,-112 91.8255,-101.115 120.137,-88.32 143.748,-79.1618"/>
<polygon fill="midnightblue" stroke="midnightblue" points="145.056,-82.4091 153.172,-75.598 142.58,-75.8617 145.056,-82.4091"/>
</g>
<!-- Node13 -->
<g id="node14" class="node"><title>Node13</title>
<polygon fill="white" stroke="#bfbfbf" points="803,-56.5 803,-75.5 855,-75.5 855,-56.5 803,-56.5"/>
<text text-anchor="middle" x="829" y="-63.5" font-family="Helvetica,sans-Serif" font-size="10.00">memory</text>
</g>
<!-- Node3&#45;&gt;Node13 -->
<g id="edge25" class="edge"><title>Node3&#45;&gt;Node13</title>
<path fill="none" stroke="midnightblue" d="M679.755,-291.372C688.534,-282.553 702.253,-268.299 713,-255 751.125,-207.818 760.022,-195.153 791,-143 802.385,-123.833 813.571,-100.81 820.825,-85.1637"/>
<polygon fill="midnightblue" stroke="midnightblue" points="824.201,-86.1982 825.173,-75.6481 817.834,-83.2889 824.201,-86.1982"/>
</g>
<!-- Node5 -->
<g id="node6" class="node"><title>Node5</title>
<g id="a_node6"><a xlink:href="Feature_8h.html" target="_top" xlink:title="This file defines the base feature class. ">
<polygon fill="white" stroke="black" points="521.5,-179.5 521.5,-198.5 652.5,-198.5 652.5,-179.5 521.5,-179.5"/>
<text text-anchor="middle" x="587" y="-186.5" font-family="Helvetica,sans-Serif" font-size="10.00">pinhao/Features/Feature.h</text>
</a>
</g>
</g>
<!-- Node4&#45;&gt;Node5 -->
<g id="edge5" class="edge"><title>Node4&#45;&gt;Node5</title>
<path fill="none" stroke="midnightblue" d="M627.909,-235.083C620.845,-227.298 610.412,-215.801 601.851,-206.367"/>
<polygon fill="midnightblue" stroke="midnightblue" points="604.253,-203.805 594.941,-198.751 599.069,-208.509 604.253,-203.805"/>
</g>
<!-- Node6 -->
<g id="node7" class="node"><title>Node6</title>
<g id="a_node7"><a xlink:href="FeatureInfo_8h.html" target="_top" xlink:title="This file defines a class that holds some informations about a feature. ">
<polygon fill="white" stroke="black" points="104.5,-118 104.5,-137 251.5,-137 251.5,-118 104.5,-118"/>
<text text-anchor="middle" x="178" y="-125" font-family="Helvetica,sans-Serif" font-size="10.00">pinhao/Features/FeatureInfo.h</text>
</a>
</g>
</g>
<!-- Node5&#45;&gt;Node6 -->
<g id="edge6" class="edge"><title>Node5&#45;&gt;Node6</title>
<path fill="none" stroke="midnightblue" d="M528.4,-179.475C453.99,-168.65 325.806,-150.002 246.823,-138.512"/>
<polygon fill="midnightblue" stroke="midnightblue" points="246.891,-134.985 236.491,-137.009 245.883,-141.912 246.891,-134.985"/>
</g>
<!-- Node5&#45;&gt;Node9 -->
<g id="edge19" class="edge"><title>Node5&#45;&gt;Node9</title>
<path fill="none" stroke="midnightblue" d="M652.618,-182.44C720.283,-174.276 810.846,-155.052 772,-112 744.536,-81.5625 454.944,-70.5097 362.911,-67.7506"/>
<polygon fill="midnightblue" stroke="midnightblue" points="362.795,-64.2459 352.698,-67.4545 362.592,-71.2429 362.795,-64.2459"/>
</g>
<!-- Node5&#45;&gt;Node11 -->
<g id="edge20" class="edge"><title>Node5&#45;&gt;Node11</title>
<path fill="none" stroke="midnightblue" d="M521.31,-186.813C393.9,-183.828 123.189,-173.884 95,-143 85.7119,-132.824 87.9519,-123.839 95,-112 100.999,-101.924 126.221,-89.0532 147.304,-79.6599"/>
<polygon fill="midnightblue" stroke="midnightblue" points="148.84,-82.8084 156.615,-75.6112 146.049,-76.389 148.84,-82.8084"/>
</g>
<!-- Node12 -->
<g id="node13" class="node"><title>Node12</title>
<g id="a_node13"><a xlink:href="FeatureRegistry_8h.html" target="_top" xlink:title="This file defines a class that has all the registered features. ">
<polygon fill="white" stroke="black" points="307.5,-118 307.5,-137 474.5,-137 474.5,-118 307.5,-118"/>
<text text-anchor="middle" x="391" y="-125" font-family="Helvetica,sans-Serif" font-size="10.00">pinhao/Features/FeatureRegistry.h</text>
</a>
</g>
</g>
<!-- Node5&#45;&gt;Node12 -->
<g id="edge13" class="edge"><title>Node5&#45;&gt;Node12</title>
<path fill="none" stroke="midnightblue" d="M558.918,-179.475C524.715,-169.092 466.803,-151.512 428.73,-139.954"/>
<polygon fill="midnightblue" stroke="midnightblue" points="429.615,-136.565 419.03,-137.009 427.582,-143.263 429.615,-136.565"/>
</g>
<!-- Node14 -->
<g id="node15" class="node"><title>Node14</title>
<polygon fill="white" stroke="#bfbfbf" points="492.5,-118 492.5,-137 583.5,-137 583.5,-118 492.5,-118"/>
<text text-anchor="middle" x="538" y="-125" font-family="Helvetica,sans-Serif" font-size="10.00">llvm/IR/Module.h</text>
</g>
<!-- Node5&#45;&gt;Node14 -->
<g id="edge17" class="edge"><title>Node5&#45;&gt;Node14</title>
<path fill="none" stroke="midnightblue" d="M579.979,-179.475C572.557,-170.462 560.667,-156.025 551.433,-144.812"/>
<polygon fill="midnightblue" stroke="midnightblue" points="554.066,-142.503 545.007,-137.009 548.663,-146.953 554.066,-142.503"/>
</g>
<!-- Node15 -->
<g id="node16" class="node"><title>Node15</title>
<polygon fill="white" stroke="#bfbfbf" points="601.5,-118 601.5,-137 690.5,-137 690.5,-118 601.5,-118"/>
<text text-anchor="middle" x="646" y="-125" font-family="Helvetica,sans-Serif" font-size="10.00">yaml&#45;cpp/yaml.h</text>
</g>
<!-- Node5&#45;&gt;Node15 -->
<g id="edge18" class="edge"><title>Node5&#45;&gt;Node15</title>
<path fill="none" stroke="midnightblue" d="M595.453,-179.475C604.566,-170.285 619.27,-155.456 630.476,-144.156"/>
<polygon fill="midnightblue" stroke="midnightblue" points="633.007,-146.574 637.562,-137.009 628.036,-141.646 633.007,-146.574"/>
</g>
<!-- Node16 -->
<g id="node17" class="node"><title>Node16</title>
<polygon fill="white" stroke="#bfbfbf" points="709,-118 709,-137 763,-137 763,-118 709,-118"/>
<text text-anchor="middle" x="736" y="-125" font-family="Helvetica,sans-Serif" font-size="10.00">iostream</text>
</g>
<!-- Node5&#45;&gt;Node16 -->
<g id="edge21" class="edge"><title>Node5&#45;&gt;Node16</title>
<path fill="none" stroke="midnightblue" d="M608.348,-179.475C633.686,-169.357 676.138,-152.405 705.071,-140.851"/>
<polygon fill="midnightblue" stroke="midnightblue" points="706.703,-143.968 714.692,-137.009 704.107,-137.467 706.703,-143.968"/>
</g>
<!-- Node6&#45;&gt;Node7 -->
<g id="edge7" class="edge"><title>Node6&#45;&gt;Node7</title>
<path fill="none" stroke="midnightblue" d="M163.386,-117.975C146.647,-108.211 118.996,-92.0807 99.2814,-80.5808"/>
<polygon fill="midnightblue" stroke="midnightblue" points="100.988,-77.5246 90.587,-75.5091 97.4612,-83.5711 100.988,-77.5246"/>
</g>
<!-- Node6&#45;&gt;Node8 -->
<g id="edge11" class="edge"><title>Node6&#45;&gt;Node8</title>
<path fill="none" stroke="midnightblue" d="M190.244,-117.95C212.541,-102.828 261.747,-71.5023 308,-56 401.95,-24.5116 519.974,-14.9849 575.044,-12.159"/>
<polygon fill="midnightblue" stroke="midnightblue" points="575.369,-15.6476 585.192,-11.6787 575.038,-8.65547 575.369,-15.6476"/>
</g>
<!-- Node6&#45;&gt;Node9 -->
<g id="edge9" class="edge"><title>Node6&#45;&gt;Node9</title>
<path fill="none" stroke="midnightblue" d="M200.494,-117.975C228.832,-107.236 277.488,-88.7959 307.861,-77.2852"/>
<polygon fill="midnightblue" stroke="midnightblue" points="309.294,-80.4851 317.404,-73.6684 306.813,-73.9394 309.294,-80.4851"/>
</g>
<!-- Node6&#45;&gt;Node10 -->
<g id="edge10" class="edge"><title>Node6&#45;&gt;Node10</title>
<path fill="none" stroke="midnightblue" d="M243.009,-117.963C260.816,-115.81 280.134,-113.646 298,-112 549.001,-88.8718 614.929,-114.727 864,-76 865.253,-75.8051 866.527,-75.587 867.81,-75.3504"/>
<polygon fill="midnightblue" stroke="midnightblue" points="868.609,-78.7588 877.66,-73.252 867.15,-71.9124 868.609,-78.7588"/>
</g>
<!-- Node6&#45;&gt;Node11 -->
<g id="edge12" class="edge"><title>Node6&#45;&gt;Node11</title>
<path fill="none" stroke="midnightblue" d="M178,-117.975C178,-109.58 178,-96.4806 178,-85.6631"/>
<polygon fill="midnightblue" stroke="midnightblue" points="181.5,-85.5091 178,-75.5091 174.5,-85.5091 181.5,-85.5091"/>
</g>
<!-- Node7&#45;&gt;Node8 -->
<g id="edge8" class="edge"><title>Node7&#45;&gt;Node8</title>
<path fill="none" stroke="midnightblue" d="M136.056,-56.9372C138.74,-56.6129 141.397,-56.2989 144,-56 306.156,-37.3775 500.914,-20.0544 575.186,-13.6314"/>
<polygon fill="midnightblue" stroke="midnightblue" points="575.589,-17.1097 585.252,-12.7639 574.988,-10.1355 575.589,-17.1097"/>
</g>
<!-- Node12&#45;&gt;Node9 -->
<g id="edge16" class="edge"><title>Node12&#45;&gt;Node9</title>
<path fill="none" stroke="midnightblue" d="M382.977,-117.975C374.41,-108.873 360.639,-94.241 350.043,-82.983"/>
<polygon fill="midnightblue" stroke="midnightblue" points="352.411,-80.3923 343.009,-75.5091 347.314,-85.1899 352.411,-80.3923"/>
</g>
<!-- Node12&#45;&gt;Node11 -->
<g id="edge15" class="edge"><title>Node12&#45;&gt;Node11</title>
<path fill="none" stroke="midnightblue" d="M360.482,-117.975C321.246,-107.015 253.298,-88.034 212.308,-76.5838"/>
<polygon fill="midnightblue" stroke="midnightblue" points="213.075,-73.164 202.502,-73.8445 211.192,-79.9059 213.075,-73.164"/>
</g>
<!-- Node12&#45;&gt;Node13 -->
<g id="edge14" class="edge"><title>Node12&#45;&gt;Node13</title>
<path fill="none" stroke="midnightblue" d="M443.507,-117.974C456.41,-115.948 470.196,-113.841 483,-112 595.792,-95.7797 729.65,-79.0988 792.709,-71.3928"/>
<polygon fill="midnightblue" stroke="midnightblue" points="793.422,-74.8319 802.925,-70.1473 792.575,-67.8834 793.422,-74.8319"/>
</g>
<!-- Node18 -->
<g id="node19" class="node"><title>Node18</title>
<polygon fill="white" stroke="#bfbfbf" points="1181.5,-235.5 1181.5,-254.5 1230.5,-254.5 1230.5,-235.5 1181.5,-235.5"/>
<text text-anchor="middle" x="1206" y="-242.5" font-family="Helvetica,sans-Serif" font-size="10.00">random</text>
</g>
<!-- Node17&#45;&gt;Node18 -->
<g id="edge27" class="edge"><title>Node17&#45;&gt;Node18</title>
<path fill="none" stroke="midnightblue" d="M1206,-291.083C1206,-284.006 1206,-273.861 1206,-264.986"/>
<polygon fill="midnightblue" stroke="midnightblue" points="1209.5,-264.751 1206,-254.751 1202.5,-264.751 1209.5,-264.751"/>
</g>
<!-- Node19&#45;&gt;Node8 -->
<g id="edge31" class="edge"><title>Node19&#45;&gt;Node8</title>
<path fill="none" stroke="midnightblue" d="M998.028,-112.416C984.292,-95.8987 959.124,-69.1121 931,-56 878.948,-31.7321 707.25,-17.7749 636.69,-12.9422"/>
<polygon fill="midnightblue" stroke="midnightblue" points="636.864,-9.44618 626.652,-12.27 636.396,-16.4305 636.864,-9.44618"/>
</g>
<!-- Node19&#45;&gt;Node10 -->
<g id="edge30" class="edge"><title>Node19&#45;&gt;Node10</title>
<path fill="none" stroke="midnightblue" d="M983.169,-112.399C965.533,-102.773 942.3,-90.0902 924.872,-80.5772"/>
<polygon fill="midnightblue" stroke="midnightblue" points="926.315,-77.3771 915.86,-75.6578 922.961,-83.5213 926.315,-77.3771"/>
</g>
<!-- Node19&#45;&gt;Node13 -->
<g id="edge32" class="edge"><title>Node19&#45;&gt;Node13</title>
<path fill="none" stroke="midnightblue" d="M966.343,-112.399C935.374,-102.163 893.952,-88.4703 864.722,-78.8082"/>
<polygon fill="midnightblue" stroke="midnightblue" points="865.522,-75.3864 854.929,-75.5709 863.325,-82.0327 865.522,-75.3864"/>
</g>
</g>
</svg>
