<?xml version="1.0" encoding="UTF-8" standalone="no"?>
<!DOCTYPE svg PUBLIC "-//W3C//DTD SVG 1.1//EN"
 "http://www.w3.org/Graphics/SVG/1.1/DTD/svg11.dtd">
<!-- Generated by graphviz version 2.38.0 (20140413.2041)
 -->
<!-- Title: /home/yukiosir/workspace/CompilerProject/Software/pinhao/tools/SimpleGrammarEvolution/Main.cpp Pages: 1 -->
<svg width="2116pt" height="452pt"
 viewBox="0.00 0.00 2116.00 452.00" xmlns="http://www.w3.org/2000/svg" xmlns:xlink="http://www.w3.org/1999/xlink">
<g id="graph0" class="graph" transform="scale(1 1) rotate(0) translate(4 448)">
<title>/home/yukiosir/workspace/CompilerProject/Software/pinhao/tools/SimpleGrammarEvolution/Main.cpp</title>
<polygon fill="white" stroke="none" points="-4,4 -4,-448 2112,-448 2112,4 -4,4"/>
<!-- Node0 -->
<g id="node1" class="node"><title>Node0</title>
<polygon fill="#bfbfbf" stroke="black" points="1521,-391.5 1521,-443.5 1707,-443.5 1707,-391.5 1521,-391.5"/>
<text text-anchor="start" x="1529" y="-431.5" font-family="Helvetica,sans-Serif" font-size="10.00">/home/yukiosir/workspace</text>
<text text-anchor="start" x="1529" y="-420.5" font-family="Helvetica,sans-Serif" font-size="10.00">/CompilerProject/Software</text>
<text text-anchor="start" x="1529" y="-409.5" font-family="Helvetica,sans-Serif" font-size="10.00">/pinhao/tools/SimpleGrammarEvolution</text>
<text text-anchor="middle" x="1614" y="-398.5" font-family="Helvetica,sans-Serif" font-size="10.00">/Main.cpp</text>
</g>
<!-- Node1 -->
<g id="node2" class="node"><title>Node1</title>
<g id="a_node2"><a xlink:href="SimpleGrammarEvolution_8h.html" target="_top" xlink:title="pinhao/MachineLearning\l/GrammarEvolution/SimpleGrammar\lEvolution.h">
<polygon fill="white" stroke="black" points="515,-257.5 515,-298.5 689,-298.5 689,-257.5 515,-257.5"/>
<text text-anchor="start" x="523" y="-286.5" font-family="Helvetica,sans-Serif" font-size="10.00">pinhao/MachineLearning</text>
<text text-anchor="start" x="523" y="-275.5" font-family="Helvetica,sans-Serif" font-size="10.00">/GrammarEvolution/SimpleGrammar</text>
<text text-anchor="middle" x="602" y="-264.5" font-family="Helvetica,sans-Serif" font-size="10.00">Evolution.h</text>
</a>
</g>
</g>
<!-- Node0&#45;&gt;Node1 -->
<g id="edge1" class="edge"><title>Node0&#45;&gt;Node1</title>
<path fill="none" stroke="midnightblue" d="M1520.87,-409.887C1399.46,-400.663 1180.69,-381.974 995,-355 864.23,-336.004 832.702,-324.279 703,-299 701.717,-298.75 700.425,-298.498 699.125,-298.244"/>
<polygon fill="midnightblue" stroke="midnightblue" points="699.526,-294.756 689.04,-296.27 698.181,-301.626 699.526,-294.756"/>
</g>
<!-- Node8 -->
<g id="node9" class="node"><title>Node8</title>
<polygon fill="white" stroke="#bfbfbf" points="1382.5,-62 1382.5,-81 1473.5,-81 1473.5,-62 1382.5,-62"/>
<text text-anchor="middle" x="1428" y="-69" font-family="Helvetica,sans-Serif" font-size="10.00">llvm/IR/Module.h</text>
</g>
<!-- Node0&#45;&gt;Node8 -->
<g id="edge55" class="edge"><title>Node0&#45;&gt;Node8</title>
<path fill="none" stroke="midnightblue" d="M1548.46,-391.497C1530.36,-382.175 1511.89,-370.093 1498,-355 1427.35,-278.255 1425.12,-141.567 1426.91,-91.5285"/>
<polygon fill="midnightblue" stroke="midnightblue" points="1430.42,-91.3905 1427.39,-81.24 1423.43,-91.0684 1430.42,-91.3905"/>
</g>
<!-- Node20 -->
<g id="node21" class="node"><title>Node20</title>
<g id="a_node21"><a xlink:href="PinhaoOptions_8h.html" target="_top" xlink:title="pinhao/PinhaoOptions.h">
<polygon fill="white" stroke="black" points="1507,-335.5 1507,-354.5 1627,-354.5 1627,-335.5 1507,-335.5"/>
<text text-anchor="middle" x="1567" y="-342.5" font-family="Helvetica,sans-Serif" font-size="10.00">pinhao/PinhaoOptions.h</text>
</a>
</g>
</g>
<!-- Node0&#45;&gt;Node20 -->
<g id="edge26" class="edge"><title>Node0&#45;&gt;Node20</title>
<path fill="none" stroke="midnightblue" d="M1597.3,-391.446C1591.02,-382.029 1584.03,-371.55 1578.35,-363.029"/>
<polygon fill="midnightblue" stroke="midnightblue" points="1581.26,-361.075 1572.8,-354.695 1575.43,-364.957 1581.26,-361.075"/>
</g>
<!-- Node23 -->
<g id="node24" class="node"><title>Node23</title>
<g id="a_node24"><a xlink:href="InitializationRoutines_8h.html" target="_top" xlink:title="pinhao/InitializationRoutines.h">
<polygon fill="white" stroke="black" points="1456.5,-196 1456.5,-215 1603.5,-215 1603.5,-196 1456.5,-196"/>
<text text-anchor="middle" x="1530" y="-203" font-family="Helvetica,sans-Serif" font-size="10.00">pinhao/InitializationRoutines.h</text>
</a>
</g>
</g>
<!-- Node0&#45;&gt;Node23 -->
<g id="edge30" class="edge"><title>Node0&#45;&gt;Node23</title>
<path fill="none" stroke="midnightblue" d="M1630.35,-391.411C1649.82,-358.053 1676.46,-298.488 1649,-257 1636,-237.356 1613.65,-225.331 1591.81,-217.98"/>
<polygon fill="midnightblue" stroke="midnightblue" points="1592.76,-214.612 1582.18,-215.013 1590.7,-221.302 1592.76,-214.612"/>
</g>
<!-- Node24 -->
<g id="node25" class="node"><title>Node24</title>
<g id="a_node25"><a xlink:href="FeatureSet_8h.html" target="_top" xlink:title="This file defines a class which contains the features selected by the user (by some command line)...">
<polygon fill="white" stroke="black" points="1004,-335.5 1004,-354.5 1150,-354.5 1150,-335.5 1004,-335.5"/>
<text text-anchor="middle" x="1077" y="-342.5" font-family="Helvetica,sans-Serif" font-size="10.00">pinhao/Features/FeatureSet.h</text>
</a>
</g>
</g>
<!-- Node0&#45;&gt;Node24 -->
<g id="edge32" class="edge"><title>Node0&#45;&gt;Node24</title>
<path fill="none" stroke="midnightblue" d="M1520.77,-404.26C1416.2,-390.531 1248.63,-368.532 1152.1,-355.86"/>
<polygon fill="midnightblue" stroke="midnightblue" points="1152.5,-352.382 1142.13,-354.551 1151.59,-359.323 1152.5,-352.382"/>
</g>
<!-- Node30 -->
<g id="node31" class="node"><title>Node30</title>
<polygon fill="white" stroke="#bfbfbf" points="1689.5,-335.5 1689.5,-354.5 1808.5,-354.5 1808.5,-335.5 1689.5,-335.5"/>
<text text-anchor="middle" x="1749" y="-342.5" font-family="Helvetica,sans-Serif" font-size="10.00">llvm/IR/LLVMContext.h</text>
</g>
<!-- Node0&#45;&gt;Node30 -->
<g id="edge54" class="edge"><title>Node0&#45;&gt;Node30</title>
<path fill="none" stroke="midnightblue" d="M1661.98,-391.446C1682.82,-380.56 1706.39,-368.254 1723.73,-359.196"/>
<polygon fill="midnightblue" stroke="midnightblue" points="1725.43,-362.258 1732.67,-354.527 1722.19,-356.054 1725.43,-362.258"/>
</g>
<!-- Node31 -->
<g id="node32" class="node"><title>Node31</title>
<polygon fill="white" stroke="#bfbfbf" points="1826.5,-335.5 1826.5,-354.5 1959.5,-354.5 1959.5,-335.5 1826.5,-335.5"/>
<text text-anchor="middle" x="1893" y="-342.5" font-family="Helvetica,sans-Serif" font-size="10.00">llvm/IRReader/IRReader.h</text>
</g>
<!-- Node0&#45;&gt;Node31 -->
<g id="edge56" class="edge"><title>Node0&#45;&gt;Node31</title>
<path fill="none" stroke="midnightblue" d="M1707.29,-392.927C1755.28,-380.801 1811.49,-366.596 1849.4,-357.018"/>
<polygon fill="midnightblue" stroke="midnightblue" points="1850.26,-360.409 1859.1,-354.566 1848.55,-353.622 1850.26,-360.409"/>
</g>
<!-- Node32 -->
<g id="node33" class="node"><title>Node32</title>
<polygon fill="white" stroke="#bfbfbf" points="1978,-335.5 1978,-354.5 2108,-354.5 2108,-335.5 1978,-335.5"/>
<text text-anchor="middle" x="2043" y="-342.5" font-family="Helvetica,sans-Serif" font-size="10.00">llvm/Support/SourceMgr.h</text>
</g>
<!-- Node0&#45;&gt;Node32 -->
<g id="edge57" class="edge"><title>Node0&#45;&gt;Node32</title>
<path fill="none" stroke="midnightblue" d="M1707.09,-401.203C1790,-387.577 1909,-368.021 1980.85,-356.213"/>
<polygon fill="midnightblue" stroke="midnightblue" points="1981.8,-359.604 1991.1,-354.529 1980.67,-352.697 1981.8,-359.604"/>
</g>
<!-- Node2 -->
<g id="node3" class="node"><title>Node2</title>
<g id="a_node3"><a xlink:href="GrammarEvolution_8h.html" target="_top" xlink:title="pinhao/MachineLearning\l/GrammarEvolution/GrammarEvolution.h">
<polygon fill="white" stroke="black" points="435.5,-190.5 435.5,-220.5 628.5,-220.5 628.5,-190.5 435.5,-190.5"/>
<text text-anchor="start" x="443.5" y="-208.5" font-family="Helvetica,sans-Serif" font-size="10.00">pinhao/MachineLearning</text>
<text text-anchor="middle" x="532" y="-197.5" font-family="Helvetica,sans-Serif" font-size="10.00">/GrammarEvolution/GrammarEvolution.h</text>
</a>
</g>
</g>
<!-- Node1&#45;&gt;Node2 -->
<g id="edge2" class="edge"><title>Node1&#45;&gt;Node2</title>
<path fill="none" stroke="midnightblue" d="M582.501,-257.362C573.436,-248.232 562.631,-237.35 553.347,-228"/>
<polygon fill="midnightblue" stroke="midnightblue" points="555.819,-225.522 546.29,-220.892 550.852,-230.454 555.819,-225.522"/>
</g>
<!-- Node4 -->
<g id="node5" class="node"><title>Node4</title>
<polygon fill="white" stroke="#bfbfbf" points="626,-62 626,-81 670,-81 670,-62 626,-62"/>
<text text-anchor="middle" x="648" y="-69" font-family="Helvetica,sans-Serif" font-size="10.00">vector</text>
</g>
<!-- Node1&#45;&gt;Node4 -->
<g id="edge25" class="edge"><title>Node1&#45;&gt;Node4</title>
<path fill="none" stroke="midnightblue" d="M617.349,-257.393C624.554,-247.127 632.524,-234.01 637,-221 652.301,-176.525 651.409,-120.263 649.613,-91.4301"/>
<polygon fill="midnightblue" stroke="midnightblue" points="653.083,-90.8934 648.859,-81.1771 646.102,-91.407 653.083,-90.8934"/>
</g>
<!-- Node3 -->
<g id="node4" class="node"><title>Node3</title>
<g id="a_node4"><a xlink:href="Evolution_8h.html" target="_top" xlink:title="pinhao/MachineLearning\l/GrammarEvolution/Evolution.h">
<polygon fill="white" stroke="black" points="281,-123.5 281,-153.5 433,-153.5 433,-123.5 281,-123.5"/>
<text text-anchor="start" x="289" y="-141.5" font-family="Helvetica,sans-Serif" font-size="10.00">pinhao/MachineLearning</text>
<text text-anchor="middle" x="357" y="-130.5" font-family="Helvetica,sans-Serif" font-size="10.00">/GrammarEvolution/Evolution.h</text>
</a>
</g>
</g>
<!-- Node2&#45;&gt;Node3 -->
<g id="edge3" class="edge"><title>Node2&#45;&gt;Node3</title>
<path fill="none" stroke="midnightblue" d="M494.028,-190.396C467.77,-180.643 432.64,-167.595 404.525,-157.152"/>
<polygon fill="midnightblue" stroke="midnightblue" points="405.491,-153.777 394.898,-153.577 403.054,-160.339 405.491,-153.777"/>
</g>
<!-- Node2&#45;&gt;Node4 -->
<g id="edge24" class="edge"><title>Node2&#45;&gt;Node4</title>
<path fill="none" stroke="midnightblue" d="M570.11,-190.423C587.752,-182.199 607.7,-170.204 621,-154 635.965,-135.767 642.746,-108.933 645.742,-91.0985"/>
<polygon fill="midnightblue" stroke="midnightblue" points="649.223,-91.4838 647.186,-81.0866 642.295,-90.4849 649.223,-91.4838"/>
</g>
<!-- Node7 -->
<g id="node8" class="node"><title>Node7</title>
<g id="a_node8"><a xlink:href="Optimizations_8h.html" target="_top" xlink:title="pinhao/Optimizer/Optimizations.h">
<polygon fill="white" stroke="black" points="451.5,-129 451.5,-148 612.5,-148 612.5,-129 451.5,-129"/>
<text text-anchor="middle" x="532" y="-136" font-family="Helvetica,sans-Serif" font-size="10.00">pinhao/Optimizer/Optimizations.h</text>
</a>
</g>
</g>
<!-- Node2&#45;&gt;Node7 -->
<g id="edge7" class="edge"><title>Node2&#45;&gt;Node7</title>
<path fill="none" stroke="midnightblue" d="M532,-190.396C532,-181.064 532,-168.714 532,-158.517"/>
<polygon fill="midnightblue" stroke="midnightblue" points="535.5,-158.195 532,-148.195 528.5,-158.195 535.5,-158.195"/>
</g>
<!-- Node11 -->
<g id="node12" class="node"><title>Node11</title>
<g id="a_node12"><a xlink:href="SerialSet_8h.html" target="_top" xlink:title="pinhao/Support/SerialSet.h">
<polygon fill="white" stroke="black" points="91.5,-129 91.5,-148 224.5,-148 224.5,-129 91.5,-129"/>
<text text-anchor="middle" x="158" y="-136" font-family="Helvetica,sans-Serif" font-size="10.00">pinhao/Support/SerialSet.h</text>
</a>
</g>
</g>
<!-- Node2&#45;&gt;Node11 -->
<g id="edge13" class="edge"><title>Node2&#45;&gt;Node11</title>
<path fill="none" stroke="midnightblue" d="M449.883,-190.493C391.131,-180.435 310.175,-166.504 239,-154 231.382,-152.662 223.364,-151.241 215.454,-149.832"/>
<polygon fill="midnightblue" stroke="midnightblue" points="215.993,-146.373 205.533,-148.062 214.763,-153.264 215.993,-146.373"/>
</g>
<!-- Node12 -->
<g id="node13" class="node"><title>Node12</title>
<g id="a_node13"><a xlink:href="YAMLWrapper_8h.html" target="_top" xlink:title="pinhao/Support/YAMLWrapper.h">
<polygon fill="white" stroke="black" points="259.5,-62 259.5,-81 416.5,-81 416.5,-62 259.5,-62"/>
<text text-anchor="middle" x="338" y="-69" font-family="Helvetica,sans-Serif" font-size="10.00">pinhao/Support/YAMLWrapper.h</text>
</a>
</g>
</g>
<!-- Node2&#45;&gt;Node12 -->
<g id="edge21" class="edge"><title>Node2&#45;&gt;Node12</title>
<path fill="none" stroke="midnightblue" d="M435.254,-198.328C370.22,-191.928 292.732,-179.146 272,-154 252.522,-130.375 287.117,-102.619 313.147,-86.354"/>
<polygon fill="midnightblue" stroke="midnightblue" points="315.12,-89.252 321.895,-81.1059 311.519,-83.2494 315.12,-89.252"/>
</g>
<!-- Node19 -->
<g id="node20" class="node"><title>Node19</title>
<g id="a_node20"><a xlink:href="Types_8h.html" target="_top" xlink:title="pinhao/Support/Types.h">
<polygon fill="white" stroke="black" points="688,-62 688,-81 808,-81 808,-62 688,-62"/>
<text text-anchor="middle" x="748" y="-69" font-family="Helvetica,sans-Serif" font-size="10.00">pinhao/Support/Types.h</text>
</a>
</g>
</g>
<!-- Node2&#45;&gt;Node19 -->
<g id="edge22" class="edge"><title>Node2&#45;&gt;Node19</title>
<path fill="none" stroke="midnightblue" d="M568.933,-190.484C591.326,-181.35 620.094,-168.465 644,-154 676.8,-134.153 711.098,-105.485 730.959,-87.9721"/>
<polygon fill="midnightblue" stroke="midnightblue" points="733.409,-90.4768 738.541,-81.2076 728.749,-85.2536 733.409,-90.4768"/>
</g>
<!-- Node3&#45;&gt;Node4 -->
<g id="edge4" class="edge"><title>Node3&#45;&gt;Node4</title>
<path fill="none" stroke="midnightblue" d="M433.211,-123.68C503.532,-110.768 599.619,-92.6572 617,-87 618.67,-86.4564 620.368,-85.8449 622.065,-85.1886"/>
<polygon fill="midnightblue" stroke="midnightblue" points="623.77,-88.2652 631.573,-81.0981 621.004,-81.835 623.77,-88.2652"/>
</g>
<!-- Node5 -->
<g id="node6" class="node"><title>Node5</title>
<polygon fill="white" stroke="#bfbfbf" points="594.5,-0.5 594.5,-19.5 635.5,-19.5 635.5,-0.5 594.5,-0.5"/>
<text text-anchor="middle" x="615" y="-7.5" font-family="Helvetica,sans-Serif" font-size="10.00">string</text>
</g>
<!-- Node3&#45;&gt;Node5 -->
<g id="edge5" class="edge"><title>Node3&#45;&gt;Node5</title>
<path fill="none" stroke="midnightblue" d="M377.983,-123.236C404.128,-105.865 450.547,-76.3305 493,-56 523.243,-41.5165 559.463,-28.6909 584.542,-20.4751"/>
<polygon fill="midnightblue" stroke="midnightblue" points="585.787,-23.7512 594.229,-17.3495 583.637,-17.0894 585.787,-23.7512"/>
</g>
<!-- Node6 -->
<g id="node7" class="node"><title>Node6</title>
<polygon fill="white" stroke="#bfbfbf" points="826,-62 826,-81 878,-81 878,-62 826,-62"/>
<text text-anchor="middle" x="852" y="-69" font-family="Helvetica,sans-Serif" font-size="10.00">memory</text>
</g>
<!-- Node3&#45;&gt;Node6 -->
<g id="edge6" class="edge"><title>Node3&#45;&gt;Node6</title>
<path fill="none" stroke="midnightblue" d="M433.415,-124.193C436.311,-123.775 439.181,-123.375 442,-123 607.969,-100.908 654.536,-127.487 817,-87 819.513,-86.3738 822.081,-85.5971 824.627,-84.7312"/>
<polygon fill="midnightblue" stroke="midnightblue" points="826.091,-87.9188 834.181,-81.0781 823.591,-81.3805 826.091,-87.9188"/>
</g>
<!-- Node7&#45;&gt;Node4 -->
<g id="edge11" class="edge"><title>Node7&#45;&gt;Node4</title>
<path fill="none" stroke="midnightblue" d="M547.644,-128.734C567.211,-117.769 600.92,-98.8809 623.819,-86.0495"/>
<polygon fill="midnightblue" stroke="midnightblue" points="625.591,-89.069 632.604,-81.1273 622.169,-82.9623 625.591,-89.069"/>
</g>
<!-- Node7&#45;&gt;Node5 -->
<g id="edge10" class="edge"><title>Node7&#45;&gt;Node5</title>
<path fill="none" stroke="midnightblue" d="M523.84,-128.77C510.235,-113.119 485.921,-79.7095 502,-56 520.31,-28.9997 557.674,-18.1993 584.427,-13.8792"/>
<polygon fill="midnightblue" stroke="midnightblue" points="585.03,-17.329 594.45,-12.4787 584.062,-10.3963 585.03,-17.329"/>
</g>
<!-- Node7&#45;&gt;Node8 -->
<g id="edge8" class="edge"><title>Node7&#45;&gt;Node8</title>
<path fill="none" stroke="midnightblue" d="M612.698,-131.646C791.935,-118.643 1219.42,-87.6316 1372.38,-76.535"/>
<polygon fill="midnightblue" stroke="midnightblue" points="1372.76,-80.0165 1382.48,-75.8021 1372.26,-73.0349 1372.76,-80.0165"/>
</g>
<!-- Node9 -->
<g id="node10" class="node"><title>Node9</title>
<polygon fill="white" stroke="#bfbfbf" points="511.5,-62 511.5,-81 608.5,-81 608.5,-62 511.5,-62"/>
<text text-anchor="middle" x="560" y="-69" font-family="Helvetica,sans-Serif" font-size="10.00">llvm/IR/Function.h</text>
</g>
<!-- Node7&#45;&gt;Node9 -->
<g id="edge9" class="edge"><title>Node7&#45;&gt;Node9</title>
<path fill="none" stroke="midnightblue" d="M535.776,-128.734C539.975,-118.988 546.87,-102.981 552.232,-90.5318"/>
<polygon fill="midnightblue" stroke="midnightblue" points="555.542,-91.6961 556.284,-81.1273 549.113,-88.9267 555.542,-91.6961"/>
</g>
<!-- Node10 -->
<g id="node11" class="node"><title>Node10</title>
<polygon fill="white" stroke="#bfbfbf" points="979.5,-62 979.5,-81 1014.5,-81 1014.5,-62 979.5,-62"/>
<text text-anchor="middle" x="997" y="-69" font-family="Helvetica,sans-Serif" font-size="10.00">map</text>
</g>
<!-- Node7&#45;&gt;Node10 -->
<g id="edge12" class="edge"><title>Node7&#45;&gt;Node10</title>
<path fill="none" stroke="midnightblue" d="M593.269,-128.936C695.074,-114.705 895.167,-86.7347 968.875,-76.4314"/>
<polygon fill="midnightblue" stroke="midnightblue" points="969.778,-79.8394 979.197,-74.9886 968.809,-72.9068 969.778,-79.8394"/>
</g>
<!-- Node11&#45;&gt;Node12 -->
<g id="edge14" class="edge"><title>Node11&#45;&gt;Node12</title>
<path fill="none" stroke="midnightblue" d="M181.903,-128.869C213.459,-117.473 269.177,-97.3528 304.806,-84.4869"/>
<polygon fill="midnightblue" stroke="midnightblue" points="306.068,-87.7521 314.285,-81.0637 303.691,-81.1682 306.068,-87.7521"/>
</g>
<!-- Node16 -->
<g id="node17" class="node"><title>Node16</title>
<g id="a_node17"><a xlink:href="SerialSetYAMLWrapper_8h.html" target="_top" xlink:title="pinhao/Support/SerialSet\lYAMLWrapper.h">
<polygon fill="white" stroke="black" points="68.5,-56.5 68.5,-86.5 193.5,-86.5 193.5,-56.5 68.5,-56.5"/>
<text text-anchor="start" x="76.5" y="-74.5" font-family="Helvetica,sans-Serif" font-size="10.00">pinhao/Support/SerialSet</text>
<text text-anchor="middle" x="131" y="-63.5" font-family="Helvetica,sans-Serif" font-size="10.00">YAMLWrapper.h</text>
</a>
</g>
</g>
<!-- Node11&#45;&gt;Node16 -->
<g id="edge18" class="edge"><title>Node11&#45;&gt;Node16</title>
<path fill="none" stroke="midnightblue" d="M154.359,-128.734C150.885,-120.372 145.497,-107.4 140.771,-96.0221"/>
<polygon fill="midnightblue" stroke="midnightblue" points="143.921,-94.4813 136.852,-86.589 137.456,-97.1666 143.921,-94.4813"/>
</g>
<!-- Node17 -->
<g id="node18" class="node"><title>Node17</title>
<polygon fill="white" stroke="#bfbfbf" points="211,-62 211,-81 241,-81 241,-62 211,-62"/>
<text text-anchor="middle" x="226" y="-69" font-family="Helvetica,sans-Serif" font-size="10.00">set</text>
</g>
<!-- Node11&#45;&gt;Node17 -->
<g id="edge19" class="edge"><title>Node11&#45;&gt;Node17</title>
<path fill="none" stroke="midnightblue" d="M167.171,-128.734C177.978,-118.403 196.146,-101.037 209.438,-88.3315"/>
<polygon fill="midnightblue" stroke="midnightblue" points="212.164,-90.5672 216.975,-81.1273 207.327,-85.5071 212.164,-90.5672"/>
</g>
<!-- Node18 -->
<g id="node19" class="node"><title>Node18</title>
<polygon fill="white" stroke="#bfbfbf" points="0,-62 0,-81 50,-81 50,-62 0,-62"/>
<text text-anchor="middle" x="25" y="-69" font-family="Helvetica,sans-Serif" font-size="10.00">fstream</text>
</g>
<!-- Node11&#45;&gt;Node18 -->
<g id="edge20" class="edge"><title>Node11&#45;&gt;Node18</title>
<path fill="none" stroke="midnightblue" d="M140.339,-128.869C117.683,-117.796 78.1718,-98.4862 51.8002,-85.5978"/>
<polygon fill="midnightblue" stroke="midnightblue" points="53.2557,-82.4136 42.7344,-81.1672 50.182,-88.7027 53.2557,-82.4136"/>
</g>
<!-- Node13 -->
<g id="node14" class="node"><title>Node13</title>
<polygon fill="white" stroke="#bfbfbf" points="1288.5,-0.5 1288.5,-19.5 1377.5,-19.5 1377.5,-0.5 1288.5,-0.5"/>
<text text-anchor="middle" x="1333" y="-7.5" font-family="Helvetica,sans-Serif" font-size="10.00">yaml&#45;cpp/yaml.h</text>
</g>
<!-- Node12&#45;&gt;Node13 -->
<g id="edge15" class="edge"><title>Node12&#45;&gt;Node13</title>
<path fill="none" stroke="midnightblue" d="M416.786,-62.9859C443.789,-60.5563 474.202,-57.981 502,-56 794.21,-35.1765 1144.84,-19.1097 1278.04,-13.3275"/>
<polygon fill="midnightblue" stroke="midnightblue" points="1278.54,-16.8093 1288.38,-12.8805 1278.23,-9.81584 1278.54,-16.8093"/>
</g>
<!-- Node14 -->
<g id="node15" class="node"><title>Node14</title>
<polygon fill="white" stroke="#bfbfbf" points="869,-0.5 869,-19.5 923,-19.5 923,-0.5 869,-0.5"/>
<text text-anchor="middle" x="896" y="-7.5" font-family="Helvetica,sans-Serif" font-size="10.00">iostream</text>
</g>
<!-- Node12&#45;&gt;Node14 -->
<g id="edge16" class="edge"><title>Node12&#45;&gt;Node14</title>
<path fill="none" stroke="midnightblue" d="M416.764,-62.1013C538.856,-49.0826 769.073,-24.5343 858.837,-14.9627"/>
<polygon fill="midnightblue" stroke="midnightblue" points="859.251,-18.4385 868.823,-13.8979 858.509,-11.478 859.251,-18.4385"/>
</g>
<!-- Node15 -->
<g id="node16" class="node"><title>Node15</title>
<polygon fill="white" stroke="#bfbfbf" points="312,-0.5 312,-19.5 364,-19.5 364,-0.5 312,-0.5"/>
<text text-anchor="middle" x="338" y="-7.5" font-family="Helvetica,sans-Serif" font-size="10.00">ostream</text>
</g>
<!-- Node12&#45;&gt;Node15 -->
<g id="edge17" class="edge"><title>Node12&#45;&gt;Node15</title>
<path fill="none" stroke="midnightblue" d="M338,-61.9751C338,-53.5803 338,-40.4806 338,-29.6631"/>
<polygon fill="midnightblue" stroke="midnightblue" points="341.5,-29.5091 338,-19.5091 334.5,-29.5091 341.5,-29.5091"/>
</g>
<!-- Node19&#45;&gt;Node5 -->
<g id="edge23" class="edge"><title>Node19&#45;&gt;Node5</title>
<path fill="none" stroke="midnightblue" d="M728.944,-61.9751C706.525,-51.9455 669.095,-35.2002 643.287,-23.6546"/>
<polygon fill="midnightblue" stroke="midnightblue" points="644.578,-20.3979 634.02,-19.5091 641.719,-26.7877 644.578,-20.3979"/>
</g>
<!-- Node21 -->
<g id="node22" class="node"><title>Node21</title>
<g id="a_node22"><a xlink:href="YamlOptions_8h.html" target="_top" xlink:title="pinhao/Support/YamlOptions.h">
<polygon fill="white" stroke="black" points="1621.5,-196 1621.5,-215 1770.5,-215 1770.5,-196 1621.5,-196"/>
<text text-anchor="middle" x="1696" y="-203" font-family="Helvetica,sans-Serif" font-size="10.00">pinhao/Support/YamlOptions.h</text>
</a>
</g>
</g>
<!-- Node20&#45;&gt;Node21 -->
<g id="edge27" class="edge"><title>Node20&#45;&gt;Node21</title>
<path fill="none" stroke="midnightblue" d="M1535.19,-335.385C1517.05,-328.661 1495.84,-317.306 1485,-299 1475.49,-282.936 1473.44,-271.655 1485,-257 1494.51,-244.945 1577.52,-227.757 1636.53,-216.867"/>
<polygon fill="midnightblue" stroke="midnightblue" points="1637.3,-220.284 1646.51,-215.043 1636.04,-213.398 1637.3,-220.284"/>
</g>
<!-- Node22 -->
<g id="node23" class="node"><title>Node22</title>
<polygon fill="white" stroke="#bfbfbf" points="1494,-268.5 1494,-287.5 1640,-287.5 1640,-268.5 1494,-268.5"/>
<text text-anchor="middle" x="1567" y="-275.5" font-family="Helvetica,sans-Serif" font-size="10.00">llvm/Support/CommandLine.h</text>
</g>
<!-- Node20&#45;&gt;Node22 -->
<g id="edge29" class="edge"><title>Node20&#45;&gt;Node22</title>
<path fill="none" stroke="midnightblue" d="M1567,-335.234C1567,-325.683 1567,-310.118 1567,-297.783"/>
<polygon fill="midnightblue" stroke="midnightblue" points="1570.5,-297.627 1567,-287.627 1563.5,-297.627 1570.5,-297.627"/>
</g>
<!-- Node21&#45;&gt;Node13 -->
<g id="edge28" class="edge"><title>Node21&#45;&gt;Node13</title>
<path fill="none" stroke="midnightblue" d="M1686.04,-195.84C1656.73,-170.771 1567.51,-97.3042 1482,-56 1450.41,-40.7418 1412.54,-29.3863 1382.89,-21.8993"/>
<polygon fill="midnightblue" stroke="midnightblue" points="1383.71,-18.498 1373.16,-19.5084 1382.04,-25.2955 1383.71,-18.498"/>
</g>
<!-- Node23&#45;&gt;Node8 -->
<g id="edge31" class="edge"><title>Node23&#45;&gt;Node8</title>
<path fill="none" stroke="midnightblue" d="M1523.31,-195.839C1506.59,-174.205 1462.78,-117.51 1440.87,-89.1523"/>
<polygon fill="midnightblue" stroke="midnightblue" points="1443.47,-86.794 1434.58,-81.0212 1437.93,-91.0741 1443.47,-86.794"/>
</g>
<!-- Node24&#45;&gt;Node4 -->
<g id="edge52" class="edge"><title>Node24&#45;&gt;Node4</title>
<path fill="none" stroke="midnightblue" d="M1015.62,-335.434C981.066,-328.859 937.97,-317.638 903,-299 795.674,-241.798 696.422,-130.586 661.374,-88.8497"/>
<polygon fill="midnightblue" stroke="midnightblue" points="663.971,-86.4992 654.89,-81.0427 658.587,-90.9716 663.971,-86.4992"/>
</g>
<!-- Node24&#45;&gt;Node6 -->
<g id="edge53" class="edge"><title>Node24&#45;&gt;Node6</title>
<path fill="none" stroke="midnightblue" d="M1052.76,-335.475C997.698,-314.623 863.976,-255.222 812,-154 800.368,-131.347 819.35,-104.826 834.937,-88.3418"/>
<polygon fill="midnightblue" stroke="midnightblue" points="837.568,-90.661 842.167,-81.1167 832.62,-85.7094 837.568,-90.661"/>
</g>
<!-- Node24&#45;&gt;Node10 -->
<g id="edge51" class="edge"><title>Node24&#45;&gt;Node10</title>
<path fill="none" stroke="midnightblue" d="M1073.85,-335.38C1064.18,-308.694 1034.36,-224.965 1015,-154 1009.17,-132.647 1003.89,-107.759 1000.58,-91.1578"/>
<polygon fill="midnightblue" stroke="midnightblue" points="1003.97,-90.2752 998.617,-81.1334 997.103,-91.6194 1003.97,-90.2752"/>
</g>
<!-- Node25 -->
<g id="node26" class="node"><title>Node25</title>
<g id="a_node26"><a xlink:href="Features_8h.html" target="_top" xlink:title="This file implements some basic feature classes that extends the base class Feature. ">
<polygon fill="white" stroke="black" points="1088,-268.5 1088,-287.5 1224,-287.5 1224,-268.5 1088,-268.5"/>
<text text-anchor="middle" x="1156" y="-275.5" font-family="Helvetica,sans-Serif" font-size="10.00">pinhao/Features/Features.h</text>
</a>
</g>
</g>
<!-- Node24&#45;&gt;Node25 -->
<g id="edge33" class="edge"><title>Node24&#45;&gt;Node25</title>
<path fill="none" stroke="midnightblue" d="M1087.65,-335.234C1100.45,-324.708 1122.12,-306.879 1137.63,-294.117"/>
<polygon fill="midnightblue" stroke="midnightblue" points="1140.02,-296.684 1145.51,-287.627 1135.57,-291.278 1140.02,-296.684"/>
</g>
<!-- Node28 -->
<g id="node29" class="node"><title>Node28</title>
<polygon fill="white" stroke="#bfbfbf" points="1150.5,-62 1150.5,-81 1199.5,-81 1199.5,-62 1150.5,-62"/>
<text text-anchor="middle" x="1175" y="-69" font-family="Helvetica,sans-Serif" font-size="10.00">cassert</text>
</g>
<!-- Node24&#45;&gt;Node28 -->
<g id="edge50" class="edge"><title>Node24&#45;&gt;Node28</title>
<path fill="none" stroke="midnightblue" d="M1131.71,-335.465C1191.38,-322.678 1282.34,-291.954 1312,-221 1337.44,-160.141 1251.58,-108.565 1204.21,-85.4713"/>
<polygon fill="midnightblue" stroke="midnightblue" points="1205.55,-82.2338 1195.02,-81.1102 1202.55,-88.5583 1205.55,-82.2338"/>
</g>
<!-- Node26 -->
<g id="node27" class="node"><title>Node26</title>
<g id="a_node27"><a xlink:href="Feature_8h.html" target="_top" xlink:title="This file defines the base feature class. ">
<polygon fill="white" stroke="black" points="1172.5,-196 1172.5,-215 1303.5,-215 1303.5,-196 1172.5,-196"/>
<text text-anchor="middle" x="1238" y="-203" font-family="Helvetica,sans-Serif" font-size="10.00">pinhao/Features/Feature.h</text>
</a>
</g>
</g>
<!-- Node25&#45;&gt;Node26 -->
<g id="edge34" class="edge"><title>Node25&#45;&gt;Node26</title>
<path fill="none" stroke="midnightblue" d="M1166.05,-268.355C1179.46,-256.833 1203.41,-236.243 1219.97,-222.002"/>
<polygon fill="midnightblue" stroke="midnightblue" points="1222.56,-224.389 1227.86,-215.215 1218,-219.081 1222.56,-224.389"/>
</g>
<!-- Node26&#45;&gt;Node8 -->
<g id="edge45" class="edge"><title>Node26&#45;&gt;Node8</title>
<path fill="none" stroke="midnightblue" d="M1262.71,-195.949C1285.71,-187.338 1320.35,-172.67 1347,-154 1373.96,-135.112 1399.81,-106.715 1414.79,-88.9133"/>
<polygon fill="midnightblue" stroke="midnightblue" points="1417.56,-91.0545 1421.23,-81.1134 1412.16,-86.5997 1417.56,-91.0545"/>
</g>
<!-- Node26&#45;&gt;Node10 -->
<g id="edge47" class="edge"><title>Node26&#45;&gt;Node10</title>
<path fill="none" stroke="midnightblue" d="M1236.51,-195.863C1233.14,-179.132 1223.37,-142.259 1200,-123 1148.82,-80.8297 1067.37,-73.1253 1024.87,-72.1739"/>
<polygon fill="midnightblue" stroke="midnightblue" points="1024.74,-68.6723 1014.7,-72.0606 1024.66,-75.6719 1024.74,-68.6723"/>
</g>
<!-- Node26&#45;&gt;Node13 -->
<g id="edge46" class="edge"><title>Node26&#45;&gt;Node13</title>
<path fill="none" stroke="midnightblue" d="M1257.59,-195.917C1274.06,-187.637 1296.8,-173.487 1309,-154 1333.42,-114.995 1335.2,-58.774 1334.23,-29.8164"/>
<polygon fill="midnightblue" stroke="midnightblue" points="1337.71,-29.331 1333.72,-19.5161 1330.71,-29.6768 1337.71,-29.331"/>
</g>
<!-- Node26&#45;&gt;Node14 -->
<g id="edge49" class="edge"><title>Node26&#45;&gt;Node14</title>
<path fill="none" stroke="midnightblue" d="M1241.87,-195.775C1248.02,-180.685 1258.58,-148.848 1251,-123 1241.04,-89.0473 1237.76,-75.1452 1208,-56 1163.15,-27.1409 1005.73,-16.1408 933.155,-12.5343"/>
<polygon fill="midnightblue" stroke="midnightblue" points="933.242,-9.03459 923.086,-12.0546 932.908,-16.0267 933.242,-9.03459"/>
</g>
<!-- Node27 -->
<g id="node28" class="node"><title>Node27</title>
<g id="a_node28"><a xlink:href="FeatureInfo_8h.html" target="_top" xlink:title="This file defines a class that holds some informations about a feature. ">
<polygon fill="white" stroke="black" points="821.5,-129 821.5,-148 968.5,-148 968.5,-129 821.5,-129"/>
<text text-anchor="middle" x="895" y="-136" font-family="Helvetica,sans-Serif" font-size="10.00">pinhao/Features/FeatureInfo.h</text>
</a>
</g>
</g>
<!-- Node26&#45;&gt;Node27 -->
<g id="edge35" class="edge"><title>Node26&#45;&gt;Node27</title>
<path fill="none" stroke="midnightblue" d="M1192.81,-195.936C1130.26,-184.082 1017.4,-162.696 950.025,-149.928"/>
<polygon fill="midnightblue" stroke="midnightblue" points="950.498,-146.455 940.021,-148.032 949.195,-153.333 950.498,-146.455"/>
</g>
<!-- Node26&#45;&gt;Node28 -->
<g id="edge48" class="edge"><title>Node26&#45;&gt;Node28</title>
<path fill="none" stroke="midnightblue" d="M1239.55,-195.86C1241.89,-180.351 1244.91,-147.16 1233,-123 1225.59,-107.966 1211.5,-95.5333 1199.07,-86.7657"/>
<polygon fill="midnightblue" stroke="midnightblue" points="1200.69,-83.645 1190.42,-81.0446 1196.83,-89.4823 1200.69,-83.645"/>
</g>
<!-- Node29 -->
<g id="node30" class="node"><title>Node29</title>
<g id="a_node30"><a xlink:href="FeatureRegistry_8h.html" target="_top" xlink:title="This file defines a class that has all the registered features. ">
<polygon fill="white" stroke="black" points="1024.5,-129 1024.5,-148 1191.5,-148 1191.5,-129 1024.5,-129"/>
<text text-anchor="middle" x="1108" y="-136" font-family="Helvetica,sans-Serif" font-size="10.00">pinhao/Features/FeatureRegistry.h</text>
</a>
</g>
</g>
<!-- Node26&#45;&gt;Node29 -->
<g id="edge41" class="edge"><title>Node26&#45;&gt;Node29</title>
<path fill="none" stroke="midnightblue" d="M1220.74,-195.869C1198.69,-184.845 1160.31,-165.655 1134.54,-152.768"/>
<polygon fill="midnightblue" stroke="midnightblue" points="1135.84,-149.509 1125.33,-148.167 1132.71,-155.77 1135.84,-149.509"/>
</g>
<!-- Node27&#45;&gt;Node4 -->
<g id="edge38" class="edge"><title>Node27&#45;&gt;Node4</title>
<path fill="none" stroke="midnightblue" d="M845.276,-128.923C800.954,-120.563 734.674,-106.293 679,-87 677.379,-86.4382 675.729,-85.8187 674.078,-85.1616"/>
<polygon fill="midnightblue" stroke="midnightblue" points="675.358,-81.9017 664.791,-81.1279 672.569,-88.3222 675.358,-81.9017"/>
</g>
<!-- Node27&#45;&gt;Node5 -->
<g id="edge39" class="edge"><title>Node27&#45;&gt;Node5</title>
<path fill="none" stroke="midnightblue" d="M897.192,-128.762C900.776,-112.183 905.751,-76.0332 887,-56 854.689,-21.4794 710.244,-13.4394 645.991,-11.5676"/>
<polygon fill="midnightblue" stroke="midnightblue" points="645.769,-8.06083 635.682,-11.3008 645.588,-15.0585 645.769,-8.06083"/>
</g>
<!-- Node27&#45;&gt;Node10 -->
<g id="edge37" class="edge"><title>Node27&#45;&gt;Node10</title>
<path fill="none" stroke="midnightblue" d="M908.756,-128.734C925.732,-117.916 954.814,-99.3832 974.927,-86.5659"/>
<polygon fill="midnightblue" stroke="midnightblue" points="976.91,-89.4531 983.462,-81.1273 973.148,-83.5498 976.91,-89.4531"/>
</g>
<!-- Node27&#45;&gt;Node19 -->
<g id="edge36" class="edge"><title>Node27&#45;&gt;Node19</title>
<path fill="none" stroke="midnightblue" d="M875.48,-128.869C850.219,-117.699 806.001,-98.1468 776.858,-85.2602"/>
<polygon fill="midnightblue" stroke="midnightblue" points="778.162,-82.0103 767.601,-81.1672 775.332,-88.4123 778.162,-82.0103"/>
</g>
<!-- Node27&#45;&gt;Node28 -->
<g id="edge40" class="edge"><title>Node27&#45;&gt;Node28</title>
<path fill="none" stroke="midnightblue" d="M931.893,-128.936C986.328,-116.299 1087.43,-92.8291 1140.47,-80.5152"/>
<polygon fill="midnightblue" stroke="midnightblue" points="1141.46,-83.8784 1150.41,-78.2077 1139.88,-77.0597 1141.46,-83.8784"/>
</g>
<!-- Node29&#45;&gt;Node6 -->
<g id="edge42" class="edge"><title>Node29&#45;&gt;Node6</title>
<path fill="none" stroke="midnightblue" d="M1074.27,-128.936C1025.98,-116.673 937.507,-94.2107 887.993,-81.6388"/>
<polygon fill="midnightblue" stroke="midnightblue" points="888.601,-78.1822 878.047,-79.1135 886.878,-84.9669 888.601,-78.1822"/>
</g>
<!-- Node29&#45;&gt;Node10 -->
<g id="edge44" class="edge"><title>Node29&#45;&gt;Node10</title>
<path fill="none" stroke="midnightblue" d="M1093.03,-128.734C1074.39,-117.818 1042.34,-99.0487 1020.43,-86.2209"/>
<polygon fill="midnightblue" stroke="midnightblue" points="1022.13,-83.1603 1011.73,-81.1273 1018.59,-89.2008 1022.13,-83.1603"/>
</g>
<!-- Node29&#45;&gt;Node28 -->
<g id="edge43" class="edge"><title>Node29&#45;&gt;Node28</title>
<path fill="none" stroke="midnightblue" d="M1117.04,-128.734C1127.68,-118.403 1145.58,-101.037 1158.68,-88.3315"/>
<polygon fill="midnightblue" stroke="midnightblue" points="1161.37,-90.6026 1166.11,-81.1273 1156.49,-85.5784 1161.37,-90.6026"/>
</g>
</g>
</svg>
