<?xml version="1.0" encoding="UTF-8" standalone="no"?>
<!DOCTYPE svg PUBLIC "-//W3C//DTD SVG 1.1//EN"
 "http://www.w3.org/Graphics/SVG/1.1/DTD/svg11.dtd">
<!-- Generated by graphviz version 2.38.0 (20140413.2041)
 -->
<!-- Title: /home/yukiosir/workspace/CompilerProject/Software/pinhao/include/pinhao/Features/MapFeature.h Pages: 1 -->
<svg width="856pt" height="520pt"
 viewBox="0.00 0.00 856.00 520.00" xmlns="http://www.w3.org/2000/svg" xmlns:xlink="http://www.w3.org/1999/xlink">
<g id="graph0" class="graph" transform="scale(1 1) rotate(0) translate(4 516)">
<title>/home/yukiosir/workspace/CompilerProject/Software/pinhao/include/pinhao/Features/MapFeature.h</title>
<polygon fill="white" stroke="none" points="-4,4 -4,-516 852,-516 852,4 -4,4"/>
<!-- Node0 -->
<g id="node1" class="node"><title>Node0</title>
<polygon fill="#bfbfbf" stroke="black" points="378.5,-459.5 378.5,-511.5 533.5,-511.5 533.5,-459.5 378.5,-459.5"/>
<text text-anchor="start" x="386.5" y="-499.5" font-family="Helvetica,sans-Serif" font-size="10.00">/home/yukiosir/workspace</text>
<text text-anchor="start" x="386.5" y="-488.5" font-family="Helvetica,sans-Serif" font-size="10.00">/CompilerProject/Software</text>
<text text-anchor="start" x="386.5" y="-477.5" font-family="Helvetica,sans-Serif" font-size="10.00">/pinhao/include/pinhao/Features</text>
<text text-anchor="middle" x="456" y="-466.5" font-family="Helvetica,sans-Serif" font-size="10.00">/MapFeature.h</text>
</g>
<!-- Node1 -->
<g id="node2" class="node"><title>Node1</title>
<g id="a_node2"><a xlink:href="Features_8h.html" target="_top" xlink:title="This file implements some basic feature classes that extends the base class Feature. ">
<polygon fill="white" stroke="black" points="389,-224.5 389,-243.5 525,-243.5 525,-224.5 389,-224.5"/>
<text text-anchor="middle" x="457" y="-231.5" font-family="Helvetica,sans-Serif" font-size="10.00">pinhao/Features/Features.h</text>
</a>
</g>
</g>
<!-- Node0&#45;&gt;Node1 -->
<g id="edge1" class="edge"><title>Node0&#45;&gt;Node1</title>
<path fill="none" stroke="midnightblue" d="M428.369,-459.26C400.431,-430.52 363.433,-381.625 379,-336 390.894,-301.14 420.235,-268.962 439.347,-250.684"/>
<polygon fill="midnightblue" stroke="midnightblue" points="441.884,-253.104 446.83,-243.734 437.121,-247.974 441.884,-253.104"/>
</g>
<!-- Node14 -->
<g id="node15" class="node"><title>Node14</title>
<g id="a_node15"><a xlink:href="FeatureYAMLWrapper_8h.html" target="_top" xlink:title="pinhao/Support/FeatureYAMLWrapper.h">
<polygon fill="white" stroke="black" points="458,-403.5 458,-422.5 648,-422.5 648,-403.5 458,-403.5"/>
<text text-anchor="middle" x="553" y="-410.5" font-family="Helvetica,sans-Serif" font-size="10.00">pinhao/Support/FeatureYAMLWrapper.h</text>
</a>
</g>
</g>
<!-- Node0&#45;&gt;Node14 -->
<g id="edge19" class="edge"><title>Node0&#45;&gt;Node14</title>
<path fill="none" stroke="midnightblue" d="M483.979,-459.446C497.859,-448.963 514.411,-437.163 527.9,-428.215"/>
<polygon fill="midnightblue" stroke="midnightblue" points="530.189,-430.902 536.678,-422.527 526.383,-425.027 530.189,-430.902"/>
</g>
<!-- Node20 -->
<g id="node21" class="node"><title>Node20</title>
<g id="a_node21"><a xlink:href="Iterator_8h.html" target="_top" xlink:title="pinhao/Support/Iterator.h">
<polygon fill="white" stroke="black" points="208,-280.5 208,-299.5 332,-299.5 332,-280.5 208,-280.5"/>
<text text-anchor="middle" x="270" y="-287.5" font-family="Helvetica,sans-Serif" font-size="10.00">pinhao/Support/Iterator.h</text>
</a>
</g>
</g>
<!-- Node0&#45;&gt;Node20 -->
<g id="edge37" class="edge"><title>Node0&#45;&gt;Node20</title>
<path fill="none" stroke="midnightblue" d="M397.751,-459.451C379.751,-449.839 360.79,-437.605 346,-423 311.781,-389.21 287.826,-336.814 276.821,-309.299"/>
<polygon fill="midnightblue" stroke="midnightblue" points="280.002,-307.822 273.129,-299.759 273.474,-310.348 280.002,-307.822"/>
</g>
<!-- Node2 -->
<g id="node3" class="node"><title>Node2</title>
<g id="a_node3"><a xlink:href="Feature_8h.html" target="_top" xlink:title="This file defines the base feature class. ">
<polygon fill="white" stroke="black" points="401.5,-168.5 401.5,-187.5 532.5,-187.5 532.5,-168.5 401.5,-168.5"/>
<text text-anchor="middle" x="467" y="-175.5" font-family="Helvetica,sans-Serif" font-size="10.00">pinhao/Features/Feature.h</text>
</a>
</g>
</g>
<!-- Node1&#45;&gt;Node2 -->
<g id="edge2" class="edge"><title>Node1&#45;&gt;Node2</title>
<path fill="none" stroke="midnightblue" d="M458.651,-224.083C459.976,-216.927 461.882,-206.635 463.539,-197.691"/>
<polygon fill="midnightblue" stroke="midnightblue" points="467,-198.221 465.379,-187.751 460.117,-196.947 467,-198.221"/>
</g>
<!-- Node3 -->
<g id="node4" class="node"><title>Node3</title>
<g id="a_node4"><a xlink:href="FeatureInfo_8h.html" target="_top" xlink:title="This file defines a class that holds some informations about a feature. ">
<polygon fill="white" stroke="black" points="42.5,-112.5 42.5,-131.5 189.5,-131.5 189.5,-112.5 42.5,-112.5"/>
<text text-anchor="middle" x="116" y="-119.5" font-family="Helvetica,sans-Serif" font-size="10.00">pinhao/Features/FeatureInfo.h</text>
</a>
</g>
</g>
<!-- Node2&#45;&gt;Node3 -->
<g id="edge3" class="edge"><title>Node2&#45;&gt;Node3</title>
<path fill="none" stroke="midnightblue" d="M411.383,-168.444C348.868,-158.826 247.479,-143.228 181.266,-133.041"/>
<polygon fill="midnightblue" stroke="midnightblue" points="181.773,-129.578 171.357,-131.516 180.708,-136.496 181.773,-129.578"/>
</g>
<!-- Node6 -->
<g id="node7" class="node"><title>Node6</title>
<polygon fill="white" stroke="#bfbfbf" points="238.5,-56.5 238.5,-75.5 273.5,-75.5 273.5,-56.5 238.5,-56.5"/>
<text text-anchor="middle" x="256" y="-63.5" font-family="Helvetica,sans-Serif" font-size="10.00">map</text>
</g>
<!-- Node2&#45;&gt;Node6 -->
<g id="edge16" class="edge"><title>Node2&#45;&gt;Node6</title>
<path fill="none" stroke="midnightblue" d="M401.167,-168.735C353.042,-161.407 293.145,-149.187 275,-132 262.473,-120.134 258.065,-100.509 256.583,-85.9226"/>
<polygon fill="midnightblue" stroke="midnightblue" points="260.051,-85.3065 255.924,-75.5488 253.065,-85.7507 260.051,-85.3065"/>
</g>
<!-- Node8 -->
<g id="node9" class="node"><title>Node8</title>
<polygon fill="white" stroke="#bfbfbf" points="486.5,-56.5 486.5,-75.5 535.5,-75.5 535.5,-56.5 486.5,-56.5"/>
<text text-anchor="middle" x="511" y="-63.5" font-family="Helvetica,sans-Serif" font-size="10.00">cassert</text>
</g>
<!-- Node2&#45;&gt;Node8 -->
<g id="edge17" class="edge"><title>Node2&#45;&gt;Node8</title>
<path fill="none" stroke="midnightblue" d="M513.357,-168.467C534.075,-162.095 556.581,-151.052 569,-132 581.662,-112.575 558.356,-93.1039 537.622,-80.6088"/>
<polygon fill="midnightblue" stroke="midnightblue" points="539.134,-77.4424 528.711,-75.5426 535.674,-83.5277 539.134,-77.4424"/>
</g>
<!-- Node9 -->
<g id="node10" class="node"><title>Node9</title>
<g id="a_node10"><a xlink:href="FeatureRegistry_8h.html" target="_top" xlink:title="This file defines a class that has all the registered features. ">
<polygon fill="white" stroke="black" points="393.5,-112.5 393.5,-131.5 560.5,-131.5 560.5,-112.5 393.5,-112.5"/>
<text text-anchor="middle" x="477" y="-119.5" font-family="Helvetica,sans-Serif" font-size="10.00">pinhao/Features/FeatureRegistry.h</text>
</a>
</g>
</g>
<!-- Node2&#45;&gt;Node9 -->
<g id="edge10" class="edge"><title>Node2&#45;&gt;Node9</title>
<path fill="none" stroke="midnightblue" d="M468.651,-168.083C469.976,-160.927 471.882,-150.635 473.539,-141.691"/>
<polygon fill="midnightblue" stroke="midnightblue" points="477,-142.221 475.379,-131.751 470.117,-140.947 477,-142.221"/>
</g>
<!-- Node11 -->
<g id="node12" class="node"><title>Node11</title>
<polygon fill="white" stroke="#bfbfbf" points="284.5,-112.5 284.5,-131.5 375.5,-131.5 375.5,-112.5 284.5,-112.5"/>
<text text-anchor="middle" x="330" y="-119.5" font-family="Helvetica,sans-Serif" font-size="10.00">llvm/IR/Module.h</text>
</g>
<!-- Node2&#45;&gt;Node11 -->
<g id="edge14" class="edge"><title>Node2&#45;&gt;Node11</title>
<path fill="none" stroke="midnightblue" d="M445.292,-168.444C422.645,-159.517 386.928,-145.439 361.248,-135.317"/>
<polygon fill="midnightblue" stroke="midnightblue" points="362.193,-131.927 351.606,-131.516 359.626,-138.44 362.193,-131.927"/>
</g>
<!-- Node12 -->
<g id="node13" class="node"><title>Node12</title>
<polygon fill="white" stroke="#bfbfbf" points="616.5,-112.5 616.5,-131.5 705.5,-131.5 705.5,-112.5 616.5,-112.5"/>
<text text-anchor="middle" x="661" y="-119.5" font-family="Helvetica,sans-Serif" font-size="10.00">yaml&#45;cpp/yaml.h</text>
</g>
<!-- Node2&#45;&gt;Node12 -->
<g id="edge15" class="edge"><title>Node2&#45;&gt;Node12</title>
<path fill="none" stroke="midnightblue" d="M497.74,-168.444C530.944,-159.201 583.991,-144.436 620.557,-134.257"/>
<polygon fill="midnightblue" stroke="midnightblue" points="621.709,-137.57 630.404,-131.516 619.832,-130.826 621.709,-137.57"/>
</g>
<!-- Node13 -->
<g id="node14" class="node"><title>Node13</title>
<polygon fill="white" stroke="#bfbfbf" points="724,-112.5 724,-131.5 778,-131.5 778,-112.5 724,-112.5"/>
<text text-anchor="middle" x="751" y="-119.5" font-family="Helvetica,sans-Serif" font-size="10.00">iostream</text>
</g>
<!-- Node2&#45;&gt;Node13 -->
<g id="edge18" class="edge"><title>Node2&#45;&gt;Node13</title>
<path fill="none" stroke="midnightblue" d="M518.738,-168.479C568.832,-160.015 646.849,-146.271 714,-132 714.101,-131.979 714.202,-131.957 714.304,-131.935"/>
<polygon fill="midnightblue" stroke="midnightblue" points="714.972,-135.373 723.964,-129.769 713.44,-128.542 714.972,-135.373"/>
</g>
<!-- Node4 -->
<g id="node5" class="node"><title>Node4</title>
<g id="a_node5"><a xlink:href="Types_8h.html" target="_top" xlink:title="pinhao/Support/Types.h">
<polygon fill="white" stroke="black" points="100,-56.5 100,-75.5 220,-75.5 220,-56.5 100,-56.5"/>
<text text-anchor="middle" x="160" y="-63.5" font-family="Helvetica,sans-Serif" font-size="10.00">pinhao/Support/Types.h</text>
</a>
</g>
</g>
<!-- Node3&#45;&gt;Node4 -->
<g id="edge4" class="edge"><title>Node3&#45;&gt;Node4</title>
<path fill="none" stroke="midnightblue" d="M123.266,-112.083C129.545,-104.377 138.788,-93.0333 146.431,-83.6531"/>
<polygon fill="midnightblue" stroke="midnightblue" points="149.266,-85.7143 152.869,-75.7511 143.839,-81.2926 149.266,-85.7143"/>
</g>
<!-- Node5 -->
<g id="node6" class="node"><title>Node5</title>
<polygon fill="white" stroke="#bfbfbf" points="95.5,-0.5 95.5,-19.5 136.5,-19.5 136.5,-0.5 95.5,-0.5"/>
<text text-anchor="middle" x="116" y="-7.5" font-family="Helvetica,sans-Serif" font-size="10.00">string</text>
</g>
<!-- Node3&#45;&gt;Node5 -->
<g id="edge8" class="edge"><title>Node3&#45;&gt;Node5</title>
<path fill="none" stroke="midnightblue" d="M108.948,-112.377C99.7968,-100.12 85.6016,-76.8332 91,-56 93.5459,-46.1752 98.7526,-36.2118 103.759,-28.166"/>
<polygon fill="midnightblue" stroke="midnightblue" points="106.749,-29.9903 109.371,-19.7252 100.92,-26.1143 106.749,-29.9903"/>
</g>
<!-- Node3&#45;&gt;Node6 -->
<g id="edge6" class="edge"><title>Node3&#45;&gt;Node6</title>
<path fill="none" stroke="midnightblue" d="M138.183,-112.444C162.796,-102.95 202.515,-87.6297 228.937,-77.4385"/>
<polygon fill="midnightblue" stroke="midnightblue" points="230.283,-80.6709 238.353,-73.8067 227.764,-74.1399 230.283,-80.6709"/>
</g>
<!-- Node7 -->
<g id="node8" class="node"><title>Node7</title>
<polygon fill="white" stroke="#bfbfbf" points="0,-56.5 0,-75.5 44,-75.5 44,-56.5 0,-56.5"/>
<text text-anchor="middle" x="22" y="-63.5" font-family="Helvetica,sans-Serif" font-size="10.00">vector</text>
</g>
<!-- Node3&#45;&gt;Node7 -->
<g id="edge7" class="edge"><title>Node3&#45;&gt;Node7</title>
<path fill="none" stroke="midnightblue" d="M100.897,-112.324C86.0967,-103.822 63.3058,-90.7288 46.0178,-80.7975"/>
<polygon fill="midnightblue" stroke="midnightblue" points="47.4798,-77.6009 37.0652,-75.6545 43.9929,-83.6707 47.4798,-77.6009"/>
</g>
<!-- Node3&#45;&gt;Node8 -->
<g id="edge9" class="edge"><title>Node3&#45;&gt;Node8</title>
<path fill="none" stroke="midnightblue" d="M189.747,-114.742C260.74,-108.051 371.241,-95.893 476.08,-75.9321"/>
<polygon fill="midnightblue" stroke="midnightblue" points="477.052,-79.3092 486.207,-73.976 475.724,-72.4362 477.052,-79.3092"/>
</g>
<!-- Node4&#45;&gt;Node5 -->
<g id="edge5" class="edge"><title>Node4&#45;&gt;Node5</title>
<path fill="none" stroke="midnightblue" d="M152.734,-56.083C146.455,-48.3768 137.212,-37.0333 129.569,-27.6531"/>
<polygon fill="midnightblue" stroke="midnightblue" points="132.161,-25.2926 123.131,-19.7511 126.734,-29.7143 132.161,-25.2926"/>
</g>
<!-- Node9&#45;&gt;Node6 -->
<g id="edge13" class="edge"><title>Node9&#45;&gt;Node6</title>
<path fill="none" stroke="midnightblue" d="M441.982,-112.444C398.073,-101.715 323.706,-83.5435 283.602,-73.7445"/>
<polygon fill="midnightblue" stroke="midnightblue" points="284.263,-70.3031 273.718,-71.3294 282.602,-77.103 284.263,-70.3031"/>
</g>
<!-- Node9&#45;&gt;Node8 -->
<g id="edge12" class="edge"><title>Node9&#45;&gt;Node8</title>
<path fill="none" stroke="midnightblue" d="M482.614,-112.083C487.367,-104.534 494.318,-93.4948 500.152,-84.2298"/>
<polygon fill="midnightblue" stroke="midnightblue" points="503.124,-86.0783 505.49,-75.7511 497.2,-82.3486 503.124,-86.0783"/>
</g>
<!-- Node10 -->
<g id="node11" class="node"><title>Node10</title>
<polygon fill="white" stroke="#bfbfbf" points="416,-56.5 416,-75.5 468,-75.5 468,-56.5 416,-56.5"/>
<text text-anchor="middle" x="442" y="-63.5" font-family="Helvetica,sans-Serif" font-size="10.00">memory</text>
</g>
<!-- Node9&#45;&gt;Node10 -->
<g id="edge11" class="edge"><title>Node9&#45;&gt;Node10</title>
<path fill="none" stroke="midnightblue" d="M471.22,-112.083C466.328,-104.534 459.173,-93.4948 453.167,-84.2298"/>
<polygon fill="midnightblue" stroke="midnightblue" points="456.048,-82.239 447.672,-75.7511 450.174,-86.0463 456.048,-82.239"/>
</g>
<!-- Node14&#45;&gt;Node0 -->
<g id="edge29" class="edge"><title>Node14&#45;&gt;Node0</title>
<path fill="none" stroke="midnightblue" d="M545.661,-422.695C536.585,-430.474 520.93,-442.356 505.177,-453.63"/>
<polygon fill="midnightblue" stroke="midnightblue" points="503.103,-450.81 496.964,-459.446 507.148,-456.523 503.103,-450.81"/>
</g>
<!-- Node15 -->
<g id="node16" class="node"><title>Node15</title>
<g id="a_node16"><a xlink:href="YAMLWrapper_8h.html" target="_top" xlink:title="pinhao/Support/YAMLWrapper.h">
<polygon fill="white" stroke="black" points="689.5,-168.5 689.5,-187.5 846.5,-187.5 846.5,-168.5 689.5,-168.5"/>
<text text-anchor="middle" x="768" y="-175.5" font-family="Helvetica,sans-Serif" font-size="10.00">pinhao/Support/YAMLWrapper.h</text>
</a>
</g>
</g>
<!-- Node14&#45;&gt;Node15 -->
<g id="edge20" class="edge"><title>Node14&#45;&gt;Node15</title>
<path fill="none" stroke="midnightblue" d="M648.277,-405.686C677.07,-399.374 706.669,-387.812 728,-367 774.754,-321.384 773.395,-235.607 770.165,-197.758"/>
<polygon fill="midnightblue" stroke="midnightblue" points="773.632,-197.251 769.154,-187.649 766.667,-197.947 773.632,-197.251"/>
</g>
<!-- Node17 -->
<g id="node18" class="node"><title>Node17</title>
<g id="a_node18"><a xlink:href="YamlOptions_8h.html" target="_top" xlink:title="pinhao/Support/YamlOptions.h">
<polygon fill="white" stroke="black" points="589.5,-280.5 589.5,-299.5 738.5,-299.5 738.5,-280.5 589.5,-280.5"/>
<text text-anchor="middle" x="664" y="-287.5" font-family="Helvetica,sans-Serif" font-size="10.00">pinhao/Support/YamlOptions.h</text>
</a>
</g>
</g>
<!-- Node14&#45;&gt;Node17 -->
<g id="edge24" class="edge"><title>Node14&#45;&gt;Node17</title>
<path fill="none" stroke="midnightblue" d="M608.083,-403.496C648.488,-396.001 698.412,-383.674 711,-367 726.226,-346.831 703.046,-321.558 684.171,-305.843"/>
<polygon fill="midnightblue" stroke="midnightblue" points="686.225,-303.005 676.212,-299.541 681.879,-308.493 686.225,-303.005"/>
</g>
<!-- Node18 -->
<g id="node19" class="node"><title>Node18</title>
<g id="a_node19"><a xlink:href="VectorFeature_8h.html" target="_top" xlink:title="pinhao/Features/VectorFeature.h">
<polygon fill="white" stroke="black" points="543.5,-342 543.5,-361 702.5,-361 702.5,-342 543.5,-342"/>
<text text-anchor="middle" x="623" y="-349" font-family="Helvetica,sans-Serif" font-size="10.00">pinhao/Features/VectorFeature.h</text>
</a>
</g>
</g>
<!-- Node14&#45;&gt;Node18 -->
<g id="edge26" class="edge"><title>Node14&#45;&gt;Node18</title>
<path fill="none" stroke="midnightblue" d="M558.129,-403.475C567.19,-394.02 584.998,-378.596 599.808,-367.187"/>
<polygon fill="midnightblue" stroke="midnightblue" points="602.168,-369.793 608.092,-361.009 597.983,-364.182 602.168,-369.793"/>
</g>
<!-- Node19 -->
<g id="node20" class="node"><title>Node19</title>
<g id="a_node20"><a xlink:href="MapVectorFeature_8h.html" target="_top" xlink:title="pinhao/Features/MapVector\lFeature.h">
<polygon fill="white" stroke="black" points="388.5,-336.5 388.5,-366.5 525.5,-366.5 525.5,-336.5 388.5,-336.5"/>
<text text-anchor="start" x="396.5" y="-354.5" font-family="Helvetica,sans-Serif" font-size="10.00">pinhao/Features/MapVector</text>
<text text-anchor="middle" x="457" y="-343.5" font-family="Helvetica,sans-Serif" font-size="10.00">Feature.h</text>
</a>
</g>
</g>
<!-- Node14&#45;&gt;Node19 -->
<g id="edge30" class="edge"><title>Node14&#45;&gt;Node19</title>
<path fill="none" stroke="midnightblue" d="M534.345,-403.475C519.448,-395.341 498.7,-382.791 482.357,-372.179"/>
<polygon fill="midnightblue" stroke="midnightblue" points="484.068,-369.115 473.795,-366.523 480.21,-374.955 484.068,-369.115"/>
</g>
<!-- Node15&#45;&gt;Node12 -->
<g id="edge21" class="edge"><title>Node15&#45;&gt;Node12</title>
<path fill="none" stroke="midnightblue" d="M750.809,-168.324C733.649,-159.664 707.054,-146.242 687.253,-136.249"/>
<polygon fill="midnightblue" stroke="midnightblue" points="688.653,-133.035 678.149,-131.655 685.499,-139.285 688.653,-133.035"/>
</g>
<!-- Node15&#45;&gt;Node13 -->
<g id="edge22" class="edge"><title>Node15&#45;&gt;Node13</title>
<path fill="none" stroke="midnightblue" d="M765.193,-168.083C762.915,-160.849 759.629,-150.409 756.792,-141.397"/>
<polygon fill="midnightblue" stroke="midnightblue" points="760.096,-140.239 753.755,-131.751 753.419,-142.341 760.096,-140.239"/>
</g>
<!-- Node16 -->
<g id="node17" class="node"><title>Node16</title>
<polygon fill="white" stroke="#bfbfbf" points="796,-112.5 796,-131.5 848,-131.5 848,-112.5 796,-112.5"/>
<text text-anchor="middle" x="822" y="-119.5" font-family="Helvetica,sans-Serif" font-size="10.00">ostream</text>
</g>
<!-- Node15&#45;&gt;Node16 -->
<g id="edge23" class="edge"><title>Node15&#45;&gt;Node16</title>
<path fill="none" stroke="midnightblue" d="M776.917,-168.083C784.78,-160.22 796.431,-148.569 805.919,-139.081"/>
<polygon fill="midnightblue" stroke="midnightblue" points="808.653,-141.297 813.249,-131.751 803.703,-136.347 808.653,-141.297"/>
</g>
<!-- Node17&#45;&gt;Node12 -->
<g id="edge25" class="edge"><title>Node17&#45;&gt;Node12</title>
<path fill="none" stroke="midnightblue" d="M663.839,-280.075C663.366,-253.945 661.98,-177.211 661.336,-141.577"/>
<polygon fill="midnightblue" stroke="midnightblue" points="664.835,-141.503 661.155,-131.568 657.836,-141.63 664.835,-141.503"/>
</g>
<!-- Node18&#45;&gt;Node1 -->
<g id="edge27" class="edge"><title>Node18&#45;&gt;Node1</title>
<path fill="none" stroke="midnightblue" d="M610.523,-341.819C582.283,-322.17 513.208,-274.109 478.152,-249.717"/>
<polygon fill="midnightblue" stroke="midnightblue" points="479.829,-246.62 469.622,-243.782 475.831,-252.366 479.829,-246.62"/>
</g>
<!-- Node18&#45;&gt;Node14 -->
<g id="edge28" class="edge"><title>Node18&#45;&gt;Node14</title>
<path fill="none" stroke="midnightblue" d="M617.886,-361.009C608.835,-370.458 591.03,-385.88 576.217,-397.294"/>
<polygon fill="midnightblue" stroke="midnightblue" points="573.853,-394.691 567.93,-403.475 578.038,-400.302 573.853,-394.691"/>
</g>
<!-- Node19&#45;&gt;Node1 -->
<g id="edge31" class="edge"><title>Node19&#45;&gt;Node1</title>
<path fill="none" stroke="midnightblue" d="M457,-336.337C457,-315.622 457,-277.016 457,-253.899"/>
<polygon fill="midnightblue" stroke="midnightblue" points="460.5,-253.669 457,-243.669 453.5,-253.669 460.5,-253.669"/>
</g>
<!-- Node19&#45;&gt;Node14 -->
<g id="edge32" class="edge"><title>Node19&#45;&gt;Node14</title>
<path fill="none" stroke="midnightblue" d="M485.455,-366.523C501.85,-375.93 521.79,-388.282 535.851,-397.739"/>
<polygon fill="midnightblue" stroke="midnightblue" points="533.93,-400.666 544.146,-403.475 537.912,-394.909 533.93,-400.666"/>
</g>
<!-- Node19&#45;&gt;Node20 -->
<g id="edge33" class="edge"><title>Node19&#45;&gt;Node20</title>
<path fill="none" stroke="midnightblue" d="M412.684,-336.399C380.371,-326.118 337.102,-312.351 306.714,-302.682"/>
<polygon fill="midnightblue" stroke="midnightblue" points="307.528,-299.268 296.937,-299.571 305.405,-305.938 307.528,-299.268"/>
</g>
<!-- Node20&#45;&gt;Node1 -->
<g id="edge34" class="edge"><title>Node20&#45;&gt;Node1</title>
<path fill="none" stroke="midnightblue" d="M299.631,-280.444C331.5,-271.241 382.333,-256.562 417.564,-246.388"/>
<polygon fill="midnightblue" stroke="midnightblue" points="418.872,-249.653 427.508,-243.516 416.929,-242.928 418.872,-249.653"/>
</g>
<!-- Node20&#45;&gt;Node6 -->
<g id="edge36" class="edge"><title>Node20&#45;&gt;Node6</title>
<path fill="none" stroke="midnightblue" d="M260.98,-280.34C252.928,-271.932 241.702,-258.363 237,-244 218.772,-188.32 237.959,-118.044 249.144,-85.322"/>
<polygon fill="midnightblue" stroke="midnightblue" points="252.498,-86.3344 252.564,-75.7398 245.906,-83.9809 252.498,-86.3344"/>
</g>
<!-- Node21 -->
<g id="node22" class="node"><title>Node21</title>
<polygon fill="white" stroke="#bfbfbf" points="246.5,-224.5 246.5,-243.5 293.5,-243.5 293.5,-224.5 246.5,-224.5"/>
<text text-anchor="middle" x="270" y="-231.5" font-family="Helvetica,sans-Serif" font-size="10.00">iterator</text>
</g>
<!-- Node20&#45;&gt;Node21 -->
<g id="edge35" class="edge"><title>Node20&#45;&gt;Node21</title>
<path fill="none" stroke="midnightblue" d="M270,-280.083C270,-273.006 270,-262.861 270,-253.986"/>
<polygon fill="midnightblue" stroke="midnightblue" points="273.5,-253.751 270,-243.751 266.5,-253.751 273.5,-253.751"/>
</g>
</g>
</svg>
