<?xml version="1.0" encoding="UTF-8" standalone="no"?>
<!DOCTYPE svg PUBLIC "-//W3C//DTD SVG 1.1//EN"
 "http://www.w3.org/Graphics/SVG/1.1/DTD/svg11.dtd">
<!-- Generated by graphviz version 2.38.0 (20140413.2041)
 -->
<!-- Title: /home/yukiosir/workspace/CompilerProject/Software/pinhao/include/pinhao/Optimizer/Optimizations.h Pages: 1 -->
<svg width="753pt" height="417pt"
 viewBox="0.00 0.00 753.00 417.00" xmlns="http://www.w3.org/2000/svg" xmlns:xlink="http://www.w3.org/1999/xlink">
<g id="graph0" class="graph" transform="scale(1 1) rotate(0) translate(4 413)">
<title>/home/yukiosir/workspace/CompilerProject/Software/pinhao/include/pinhao/Optimizer/Optimizations.h</title>
<polygon fill="white" stroke="none" points="-4,4 -4,-413 749,-413 749,4 -4,4"/>
<!-- Node6 -->
<g id="node1" class="node"><title>Node6</title>
<polygon fill="#bfbfbf" stroke="black" points="224,-356.5 224,-408.5 382,-408.5 382,-356.5 224,-356.5"/>
<text text-anchor="start" x="232" y="-396.5" font-family="Helvetica,sans-Serif" font-size="10.00">/home/yukiosir/workspace</text>
<text text-anchor="start" x="232" y="-385.5" font-family="Helvetica,sans-Serif" font-size="10.00">/CompilerProject/Software</text>
<text text-anchor="start" x="232" y="-374.5" font-family="Helvetica,sans-Serif" font-size="10.00">/pinhao/include/pinhao/Optimizer</text>
<text text-anchor="middle" x="303" y="-363.5" font-family="Helvetica,sans-Serif" font-size="10.00">/Optimizations.h</text>
</g>
<!-- Node7 -->
<g id="node2" class="node"><title>Node7</title>
<g id="a_node2"><a xlink:href="OptimizationInfo_8h.html" target="_top" xlink:title="/home/yukiosir/workspace\l/CompilerProject/Software\l/pinhao/include/pinhao/Optimizer\l/OptimizationInfo.h">
<polygon fill="white" stroke="black" points="421,-267.5 421,-319.5 579,-319.5 579,-267.5 421,-267.5"/>
<text text-anchor="start" x="429" y="-307.5" font-family="Helvetica,sans-Serif" font-size="10.00">/home/yukiosir/workspace</text>
<text text-anchor="start" x="429" y="-296.5" font-family="Helvetica,sans-Serif" font-size="10.00">/CompilerProject/Software</text>
<text text-anchor="start" x="429" y="-285.5" font-family="Helvetica,sans-Serif" font-size="10.00">/pinhao/include/pinhao/Optimizer</text>
<text text-anchor="middle" x="500" y="-274.5" font-family="Helvetica,sans-Serif" font-size="10.00">/OptimizationInfo.h</text>
</a>
</g>
</g>
<!-- Node6&#45;&gt;Node7 -->
<g id="edge1" class="edge"><title>Node6&#45;&gt;Node7</title>
<path fill="none" stroke="midnightblue" d="M369.132,-352.295C393.2,-341.665 420.169,-329.755 443.343,-319.521"/>
<polygon fill="midnightblue" stroke="midnightblue" points="367.45,-349.211 359.716,-356.453 370.278,-355.615 367.45,-349.211"/>
</g>
<!-- Node8 -->
<g id="node3" class="node"><title>Node8</title>
<g id="a_node3"><a xlink:href="OptimizationSequence_8h.html" target="_top" xlink:title="/home/yukiosir/workspace\l/CompilerProject/Software\l/pinhao/include/pinhao/Optimizer\l/OptimizationSequence.h">
<polygon fill="white" stroke="black" points="295,-178.5 295,-230.5 453,-230.5 453,-178.5 295,-178.5"/>
<text text-anchor="start" x="303" y="-218.5" font-family="Helvetica,sans-Serif" font-size="10.00">/home/yukiosir/workspace</text>
<text text-anchor="start" x="303" y="-207.5" font-family="Helvetica,sans-Serif" font-size="10.00">/CompilerProject/Software</text>
<text text-anchor="start" x="303" y="-196.5" font-family="Helvetica,sans-Serif" font-size="10.00">/pinhao/include/pinhao/Optimizer</text>
<text text-anchor="middle" x="374" y="-185.5" font-family="Helvetica,sans-Serif" font-size="10.00">/OptimizationSequence.h</text>
</a>
</g>
</g>
<!-- Node6&#45;&gt;Node8 -->
<g id="edge16" class="edge"><title>Node6&#45;&gt;Node8</title>
<path fill="none" stroke="midnightblue" d="M317.042,-346.69C330.844,-312.478 351.57,-261.1 363.846,-230.67"/>
<polygon fill="midnightblue" stroke="midnightblue" points="313.668,-345.7 313.173,-356.283 320.16,-348.319 313.668,-345.7"/>
</g>
<!-- Node9 -->
<g id="node4" class="node"><title>Node9</title>
<g id="a_node4"><a xlink:href="OptimizationSet_8h.html" target="_top" xlink:title="/home/yukiosir/workspace\l/CompilerProject/Software\l/pinhao/include/pinhao/Optimizer\l/OptimizationSet.h">
<polygon fill="white" stroke="black" points="223,-89.5 223,-141.5 381,-141.5 381,-89.5 223,-89.5"/>
<text text-anchor="start" x="231" y="-129.5" font-family="Helvetica,sans-Serif" font-size="10.00">/home/yukiosir/workspace</text>
<text text-anchor="start" x="231" y="-118.5" font-family="Helvetica,sans-Serif" font-size="10.00">/CompilerProject/Software</text>
<text text-anchor="start" x="231" y="-107.5" font-family="Helvetica,sans-Serif" font-size="10.00">/pinhao/include/pinhao/Optimizer</text>
<text text-anchor="middle" x="302" y="-96.5" font-family="Helvetica,sans-Serif" font-size="10.00">/OptimizationSet.h</text>
</a>
</g>
</g>
<!-- Node6&#45;&gt;Node9 -->
<g id="edge17" class="edge"><title>Node6&#45;&gt;Node9</title>
<path fill="none" stroke="midnightblue" d="M295.597,-346.419C288.058,-305.784 278.467,-236.877 286,-178 287.554,-165.853 290.769,-152.677 293.911,-141.649"/>
<polygon fill="midnightblue" stroke="midnightblue" points="292.184,-347.202 297.507,-356.362 299.058,-345.882 292.184,-347.202"/>
</g>
<!-- Node10 -->
<g id="node5" class="node"><title>Node10</title>
<g id="a_node5"><a xlink:href="OptimizationInfo_8cpp.html" target="_top" xlink:title="/home/yukiosir/workspace\l/CompilerProject/Software\l/pinhao/lib/Optimizer/Optimization\lInfo.cpp">
<polygon fill="white" stroke="black" points="206,-0.5 206,-52.5 370,-52.5 370,-0.5 206,-0.5"/>
<text text-anchor="start" x="214" y="-40.5" font-family="Helvetica,sans-Serif" font-size="10.00">/home/yukiosir/workspace</text>
<text text-anchor="start" x="214" y="-29.5" font-family="Helvetica,sans-Serif" font-size="10.00">/CompilerProject/Software</text>
<text text-anchor="start" x="214" y="-18.5" font-family="Helvetica,sans-Serif" font-size="10.00">/pinhao/lib/Optimizer/Optimization</text>
<text text-anchor="middle" x="288" y="-7.5" font-family="Helvetica,sans-Serif" font-size="10.00">Info.cpp</text>
</a>
</g>
</g>
<!-- Node6&#45;&gt;Node10 -->
<g id="edge18" class="edge"><title>Node6&#45;&gt;Node10</title>
<path fill="none" stroke="midnightblue" d="M283.545,-347.586C258.857,-302.404 217.607,-219.173 202,-142 197.331,-118.912 191.227,-109.948 202,-89 209.639,-74.1457 222.714,-62.0809 236.395,-52.6994"/>
<polygon fill="midnightblue" stroke="midnightblue" points="280.498,-349.308 288.398,-356.368 286.625,-345.922 280.498,-349.308"/>
</g>
<!-- Node11 -->
<g id="node6" class="node"><title>Node11</title>
<g id="a_node6"><a xlink:href="Optimizations_8cpp.html" target="_top" xlink:title="/home/yukiosir/workspace\l/CompilerProject/Software\l/pinhao/lib/Optimizer/Optimizations.cpp">
<polygon fill="white" stroke="black" points="0,-6 0,-47 188,-47 188,-6 0,-6"/>
<text text-anchor="start" x="8" y="-35" font-family="Helvetica,sans-Serif" font-size="10.00">/home/yukiosir/workspace</text>
<text text-anchor="start" x="8" y="-24" font-family="Helvetica,sans-Serif" font-size="10.00">/CompilerProject/Software</text>
<text text-anchor="middle" x="94" y="-13" font-family="Helvetica,sans-Serif" font-size="10.00">/pinhao/lib/Optimizer/Optimizations.cpp</text>
</a>
</g>
</g>
<!-- Node6&#45;&gt;Node11 -->
<g id="edge19" class="edge"><title>Node6&#45;&gt;Node11</title>
<path fill="none" stroke="midnightblue" d="M266.026,-349.451C256.87,-340.473 247.534,-330.329 240,-320 171.769,-226.459 119.57,-96.2587 101.179,-47.2242"/>
<polygon fill="midnightblue" stroke="midnightblue" points="263.641,-352.013 273.293,-356.382 268.473,-346.948 263.641,-352.013"/>
</g>
<!-- Node12 -->
<g id="node7" class="node"><title>Node12</title>
<g id="a_node7"><a xlink:href="OptimizationSequence_8cpp.html" target="_top" xlink:title="/home/yukiosir/workspace\l/CompilerProject/Software\l/pinhao/lib/Optimizer/Optimization\lSequence.cpp">
<polygon fill="white" stroke="black" points="581,-0.5 581,-52.5 745,-52.5 745,-0.5 581,-0.5"/>
<text text-anchor="start" x="589" y="-40.5" font-family="Helvetica,sans-Serif" font-size="10.00">/home/yukiosir/workspace</text>
<text text-anchor="start" x="589" y="-29.5" font-family="Helvetica,sans-Serif" font-size="10.00">/CompilerProject/Software</text>
<text text-anchor="start" x="589" y="-18.5" font-family="Helvetica,sans-Serif" font-size="10.00">/pinhao/lib/Optimizer/Optimization</text>
<text text-anchor="middle" x="663" y="-7.5" font-family="Helvetica,sans-Serif" font-size="10.00">Sequence.cpp</text>
</a>
</g>
</g>
<!-- Node6&#45;&gt;Node12 -->
<g id="edge20" class="edge"><title>Node6&#45;&gt;Node12</title>
<path fill="none" stroke="midnightblue" d="M392.2,-370.972C464.12,-360.926 558.046,-343.79 588,-320 670.72,-254.303 669.686,-110.812 665.497,-52.6933"/>
<polygon fill="midnightblue" stroke="midnightblue" points="391.639,-367.517 382.207,-372.343 392.59,-374.452 391.639,-367.517"/>
</g>
<!-- Node7&#45;&gt;Node8 -->
<g id="edge2" class="edge"><title>Node7&#45;&gt;Node8</title>
<path fill="none" stroke="midnightblue" d="M455.108,-261.503C440.434,-251.371 424.328,-240.25 410.363,-230.607"/>
<polygon fill="midnightblue" stroke="midnightblue" points="453.338,-264.534 463.556,-267.336 457.315,-258.774 453.338,-264.534"/>
</g>
<!-- Node7&#45;&gt;Node9 -->
<g id="edge12" class="edge"><title>Node7&#45;&gt;Node9</title>
<path fill="none" stroke="midnightblue" d="M496.299,-257.272C491.948,-232.274 482.499,-199.476 462,-178 440.528,-155.505 409.925,-141.127 381.223,-131.988"/>
<polygon fill="midnightblue" stroke="midnightblue" points="492.885,-258.102 497.868,-267.452 499.803,-257.035 492.885,-258.102"/>
</g>
<!-- Node7&#45;&gt;Node12 -->
<g id="edge13" class="edge"><title>Node7&#45;&gt;Node12</title>
<path fill="none" stroke="midnightblue" d="M566.549,-262.117C579.756,-253.601 592.467,-243.248 602,-231 644.136,-176.863 657.245,-93.9675 661.263,-52.6819"/>
<polygon fill="midnightblue" stroke="midnightblue" points="564.534,-259.247 557.828,-267.449 568.185,-265.219 564.534,-259.247"/>
</g>
<!-- Node13 -->
<g id="node8" class="node"><title>Node13</title>
<g id="a_node8"><a xlink:href="OptimizationSet_8cpp.html" target="_top" xlink:title="/home/yukiosir/workspace\l/CompilerProject/Software\l/pinhao/lib/Optimizer/Optimization\lSet.cpp">
<polygon fill="white" stroke="black" points="395,-0.5 395,-52.5 559,-52.5 559,-0.5 395,-0.5"/>
<text text-anchor="start" x="403" y="-40.5" font-family="Helvetica,sans-Serif" font-size="10.00">/home/yukiosir/workspace</text>
<text text-anchor="start" x="403" y="-29.5" font-family="Helvetica,sans-Serif" font-size="10.00">/CompilerProject/Software</text>
<text text-anchor="start" x="403" y="-18.5" font-family="Helvetica,sans-Serif" font-size="10.00">/pinhao/lib/Optimizer/Optimization</text>
<text text-anchor="middle" x="477" y="-7.5" font-family="Helvetica,sans-Serif" font-size="10.00">Set.cpp</text>
</a>
</g>
</g>
<!-- Node7&#45;&gt;Node13 -->
<g id="edge14" class="edge"><title>Node7&#45;&gt;Node13</title>
<path fill="none" stroke="midnightblue" d="M538.999,-260.651C584.038,-219.886 647.423,-147.535 610,-89 598.147,-70.4601 579.119,-57.4277 559.119,-48.2976"/>
<polygon fill="midnightblue" stroke="midnightblue" points="536.549,-258.146 531.39,-267.4 541.193,-263.383 536.549,-258.146"/>
</g>
<!-- Node14 -->
<g id="node9" class="node"><title>Node14</title>
<g id="a_node9"><a xlink:href="OptimizerYAMLWrapper_8cpp.html" target="_top" xlink:title="/home/yukiosir/workspace\l/CompilerProject/Software\l/pinhao/lib/Support/YAMLWrapper\l/OptimizerYAMLWrapper.cpp">
<polygon fill="white" stroke="black" points="437,-89.5 437,-141.5 601,-141.5 601,-89.5 437,-89.5"/>
<text text-anchor="start" x="445" y="-129.5" font-family="Helvetica,sans-Serif" font-size="10.00">/home/yukiosir/workspace</text>
<text text-anchor="start" x="445" y="-118.5" font-family="Helvetica,sans-Serif" font-size="10.00">/CompilerProject/Software</text>
<text text-anchor="start" x="445" y="-107.5" font-family="Helvetica,sans-Serif" font-size="10.00">/pinhao/lib/Support/YAMLWrapper</text>
<text text-anchor="middle" x="519" y="-96.5" font-family="Helvetica,sans-Serif" font-size="10.00">/OptimizerYAMLWrapper.cpp</text>
</a>
</g>
</g>
<!-- Node7&#45;&gt;Node14 -->
<g id="edge15" class="edge"><title>Node7&#45;&gt;Node14</title>
<path fill="none" stroke="midnightblue" d="M503.806,-257.249C507.499,-223.038 513.012,-171.969 516.283,-141.67"/>
<polygon fill="midnightblue" stroke="midnightblue" points="500.316,-256.966 502.722,-267.283 507.275,-257.717 500.316,-256.966"/>
</g>
<!-- Node8&#45;&gt;Node9 -->
<g id="edge3" class="edge"><title>Node8&#45;&gt;Node9</title>
<path fill="none" stroke="midnightblue" d="M346.692,-170.503C338.764,-160.923 330.237,-150.62 322.779,-141.607"/>
<polygon fill="midnightblue" stroke="midnightblue" points="344.103,-172.864 353.175,-178.336 349.495,-168.401 344.103,-172.864"/>
</g>
<!-- Node8&#45;&gt;Node10 -->
<g id="edge8" class="edge"><title>Node8&#45;&gt;Node10</title>
<path fill="none" stroke="midnightblue" d="M285.22,-189.594C257.804,-180.67 230.505,-166.026 214,-142 200.662,-122.584 203.995,-110.325 214,-89 220.812,-74.4819 232.921,-62.204 245.397,-52.5276"/>
<polygon fill="midnightblue" stroke="midnightblue" points="284.32,-192.979 294.905,-192.518 286.343,-186.277 284.32,-192.979"/>
</g>
<!-- Node8&#45;&gt;Node11 -->
<g id="edge9" class="edge"><title>Node8&#45;&gt;Node11</title>
<path fill="none" stroke="midnightblue" d="M284.846,-180.494C257.006,-171.036 227.05,-158.376 202,-142 162.202,-115.983 126.611,-72.4365 107.894,-47.2091"/>
<polygon fill="midnightblue" stroke="midnightblue" points="284,-183.901 294.593,-183.707 286.191,-177.253 284,-183.901"/>
</g>
<!-- Node8&#45;&gt;Node12 -->
<g id="edge10" class="edge"><title>Node8&#45;&gt;Node12</title>
<path fill="none" stroke="midnightblue" d="M381.974,-168.455C389.592,-142.828 403.626,-109.153 428,-89 477.513,-48.0601 505.863,-69.328 568,-53 572.212,-51.8933 576.527,-50.7541 580.883,-49.5997"/>
<polygon fill="midnightblue" stroke="midnightblue" points="378.576,-167.612 379.271,-178.185 385.32,-169.487 378.576,-167.612"/>
</g>
<!-- Node8&#45;&gt;Node14 -->
<g id="edge11" class="edge"><title>Node8&#45;&gt;Node14</title>
<path fill="none" stroke="midnightblue" d="M424.716,-173.07C441.854,-162.788 460.782,-151.431 477.154,-141.607"/>
<polygon fill="midnightblue" stroke="midnightblue" points="422.714,-170.19 415.94,-178.336 426.316,-176.192 422.714,-170.19"/>
</g>
<!-- Node9&#45;&gt;Node10 -->
<g id="edge4" class="edge"><title>Node9&#45;&gt;Node10</title>
<path fill="none" stroke="midnightblue" d="M296.318,-79.1908C294.885,-70.2824 293.374,-60.8986 292.04,-52.6075"/>
<polygon fill="midnightblue" stroke="midnightblue" points="292.906,-80.0191 297.951,-89.336 299.817,-78.9069 292.906,-80.0191"/>
</g>
<!-- Node9&#45;&gt;Node11 -->
<g id="edge5" class="edge"><title>Node9&#45;&gt;Node11</title>
<path fill="none" stroke="midnightblue" d="M232.511,-85.4349C202.408,-72.8439 167.955,-58.4331 140.941,-47.1338"/>
<polygon fill="midnightblue" stroke="midnightblue" points="231.541,-88.8228 242.117,-89.4527 234.242,-82.365 231.541,-88.8228"/>
</g>
<!-- Node9&#45;&gt;Node12 -->
<g id="edge6" class="edge"><title>Node9&#45;&gt;Node12</title>
<path fill="none" stroke="midnightblue" d="M391.129,-89.9411C392.427,-89.6227 393.718,-89.3088 395,-89 471.352,-70.6073 491.599,-71.1874 568,-53 572.236,-51.9916 576.571,-50.931 580.943,-49.8387"/>
<polygon fill="midnightblue" stroke="midnightblue" points="389.912,-86.6377 381.061,-92.4609 391.612,-93.4282 389.912,-86.6377"/>
</g>
<!-- Node9&#45;&gt;Node13 -->
<g id="edge7" class="edge"><title>Node9&#45;&gt;Node13</title>
<path fill="none" stroke="midnightblue" d="M361.789,-84.7763C382.843,-74.3094 406.284,-62.656 426.497,-52.6075"/>
<polygon fill="midnightblue" stroke="midnightblue" points="360.014,-81.7502 352.617,-89.336 363.13,-88.0184 360.014,-81.7502"/>
</g>
</g>
</svg>
