<?xml version="1.0" encoding="UTF-8" standalone="no"?>
<!DOCTYPE svg PUBLIC "-//W3C//DTD SVG 1.1//EN"
 "http://www.w3.org/Graphics/SVG/1.1/DTD/svg11.dtd">
<!-- Generated by graphviz version 2.38.0 (20140413.2041)
 -->
<!-- Title: /home/yukiosir/workspace/CompilerProject/Software/pinhao/include/pinhao/Optimizer/OptimizationInfo.h Pages: 1 -->
<svg width="461pt" height="173pt"
 viewBox="0.00 0.00 460.50 173.00" xmlns="http://www.w3.org/2000/svg" xmlns:xlink="http://www.w3.org/1999/xlink">
<g id="graph0" class="graph" transform="scale(1 1) rotate(0) translate(4 169)">
<title>/home/yukiosir/workspace/CompilerProject/Software/pinhao/include/pinhao/Optimizer/OptimizationInfo.h</title>
<polygon fill="white" stroke="none" points="-4,4 -4,-169 456.5,-169 456.5,4 -4,4"/>
<!-- Node0 -->
<g id="node1" class="node"><title>Node0</title>
<polygon fill="#bfbfbf" stroke="black" points="233.5,-112.5 233.5,-164.5 391.5,-164.5 391.5,-112.5 233.5,-112.5"/>
<text text-anchor="start" x="241.5" y="-152.5" font-family="Helvetica,sans-Serif" font-size="10.00">/home/yukiosir/workspace</text>
<text text-anchor="start" x="241.5" y="-141.5" font-family="Helvetica,sans-Serif" font-size="10.00">/CompilerProject/Software</text>
<text text-anchor="start" x="241.5" y="-130.5" font-family="Helvetica,sans-Serif" font-size="10.00">/pinhao/include/pinhao/Optimizer</text>
<text text-anchor="middle" x="312.5" y="-119.5" font-family="Helvetica,sans-Serif" font-size="10.00">/OptimizationInfo.h</text>
</g>
<!-- Node1 -->
<g id="node2" class="node"><title>Node1</title>
<g id="a_node2"><a xlink:href="Optimizations_8h.html" target="_top" xlink:title="pinhao/Optimizer/Optimizations.h">
<polygon fill="white" stroke="black" points="153,-56.5 153,-75.5 314,-75.5 314,-56.5 153,-56.5"/>
<text text-anchor="middle" x="233.5" y="-63.5" font-family="Helvetica,sans-Serif" font-size="10.00">pinhao/Optimizer/Optimizations.h</text>
</a>
</g>
</g>
<!-- Node0&#45;&gt;Node1 -->
<g id="edge1" class="edge"><title>Node0&#45;&gt;Node1</title>
<path fill="none" stroke="midnightblue" d="M284.425,-112.446C273.199,-102.428 260.626,-91.2075 250.782,-82.4224"/>
<polygon fill="midnightblue" stroke="midnightblue" points="253.035,-79.7424 243.244,-75.6955 248.375,-84.9652 253.035,-79.7424"/>
</g>
<!-- Node7 -->
<g id="node8" class="node"><title>Node7</title>
<g id="a_node8"><a xlink:href="Types_8h.html" target="_top" xlink:title="pinhao/Support/Types.h">
<polygon fill="white" stroke="black" points="332.5,-56.5 332.5,-75.5 452.5,-75.5 452.5,-56.5 332.5,-56.5"/>
<text text-anchor="middle" x="392.5" y="-63.5" font-family="Helvetica,sans-Serif" font-size="10.00">pinhao/Support/Types.h</text>
</a>
</g>
</g>
<!-- Node0&#45;&gt;Node7 -->
<g id="edge7" class="edge"><title>Node0&#45;&gt;Node7</title>
<path fill="none" stroke="midnightblue" d="M340.93,-112.446C352.298,-102.428 365.03,-91.2075 374.999,-82.4224"/>
<polygon fill="midnightblue" stroke="midnightblue" points="377.444,-84.933 382.633,-75.6955 372.816,-79.6812 377.444,-84.933"/>
</g>
<!-- Node2 -->
<g id="node3" class="node"><title>Node2</title>
<polygon fill="white" stroke="#bfbfbf" points="0,-0.5 0,-19.5 91,-19.5 91,-0.5 0,-0.5"/>
<text text-anchor="middle" x="45.5" y="-7.5" font-family="Helvetica,sans-Serif" font-size="10.00">llvm/IR/Module.h</text>
</g>
<!-- Node1&#45;&gt;Node2 -->
<g id="edge2" class="edge"><title>Node1&#45;&gt;Node2</title>
<path fill="none" stroke="midnightblue" d="M203.711,-56.4435C171.671,-47.2406 120.567,-32.5617 85.1469,-22.3879"/>
<polygon fill="midnightblue" stroke="midnightblue" points="85.7274,-18.9132 75.1498,-19.5164 83.7949,-25.6412 85.7274,-18.9132"/>
</g>
<!-- Node3 -->
<g id="node4" class="node"><title>Node3</title>
<polygon fill="white" stroke="#bfbfbf" points="109,-0.5 109,-19.5 206,-19.5 206,-0.5 109,-0.5"/>
<text text-anchor="middle" x="157.5" y="-7.5" font-family="Helvetica,sans-Serif" font-size="10.00">llvm/IR/Function.h</text>
</g>
<!-- Node1&#45;&gt;Node3 -->
<g id="edge3" class="edge"><title>Node1&#45;&gt;Node3</title>
<path fill="none" stroke="midnightblue" d="M221.289,-56.324C209.724,-48.1066 192.125,-35.6017 178.339,-25.8069"/>
<polygon fill="midnightblue" stroke="midnightblue" points="180.112,-22.7729 169.933,-19.8339 176.057,-28.4791 180.112,-22.7729"/>
</g>
<!-- Node4 -->
<g id="node5" class="node"><title>Node4</title>
<polygon fill="white" stroke="#bfbfbf" points="350,-0.5 350,-19.5 391,-19.5 391,-0.5 350,-0.5"/>
<text text-anchor="middle" x="370.5" y="-7.5" font-family="Helvetica,sans-Serif" font-size="10.00">string</text>
</g>
<!-- Node1&#45;&gt;Node4 -->
<g id="edge4" class="edge"><title>Node1&#45;&gt;Node4</title>
<path fill="none" stroke="midnightblue" d="M255.208,-56.4435C278.121,-47.4121 314.414,-33.1067 340.154,-22.9612"/>
<polygon fill="midnightblue" stroke="midnightblue" points="341.77,-26.0862 349.79,-19.1629 339.203,-19.5738 341.77,-26.0862"/>
</g>
<!-- Node5 -->
<g id="node6" class="node"><title>Node5</title>
<polygon fill="white" stroke="#bfbfbf" points="223.5,-0.5 223.5,-19.5 267.5,-19.5 267.5,-0.5 223.5,-0.5"/>
<text text-anchor="middle" x="245.5" y="-7.5" font-family="Helvetica,sans-Serif" font-size="10.00">vector</text>
</g>
<!-- Node1&#45;&gt;Node5 -->
<g id="edge5" class="edge"><title>Node1&#45;&gt;Node5</title>
<path fill="none" stroke="midnightblue" d="M235.482,-56.083C237.072,-48.9272 239.359,-38.6353 241.346,-29.6911"/>
<polygon fill="midnightblue" stroke="midnightblue" points="244.803,-30.2722 243.555,-19.7511 237.969,-28.7537 244.803,-30.2722"/>
</g>
<!-- Node6 -->
<g id="node7" class="node"><title>Node6</title>
<polygon fill="white" stroke="#bfbfbf" points="286,-0.5 286,-19.5 321,-19.5 321,-0.5 286,-0.5"/>
<text text-anchor="middle" x="303.5" y="-7.5" font-family="Helvetica,sans-Serif" font-size="10.00">map</text>
</g>
<!-- Node1&#45;&gt;Node6 -->
<g id="edge6" class="edge"><title>Node1&#45;&gt;Node6</title>
<path fill="none" stroke="midnightblue" d="M244.747,-56.324C255.297,-48.1849 271.301,-35.8395 283.942,-26.0874"/>
<polygon fill="midnightblue" stroke="midnightblue" points="286.269,-28.7132 292.049,-19.8339 281.993,-23.1707 286.269,-28.7132"/>
</g>
<!-- Node7&#45;&gt;Node4 -->
<g id="edge8" class="edge"><title>Node7&#45;&gt;Node4</title>
<path fill="none" stroke="midnightblue" d="M388.867,-56.083C385.888,-48.77 381.574,-38.1814 377.875,-29.1034"/>
<polygon fill="midnightblue" stroke="midnightblue" points="381.08,-27.6914 374.065,-19.7511 374.597,-30.3326 381.08,-27.6914"/>
</g>
</g>
</svg>
