<?xml version="1.0" encoding="UTF-8" standalone="no"?>
<!DOCTYPE svg PUBLIC "-//W3C//DTD SVG 1.1//EN"
 "http://www.w3.org/Graphics/SVG/1.1/DTD/svg11.dtd">
<!-- Generated by graphviz version 2.38.0 (20140413.2041)
 -->
<!-- Title: /home/yukiosir/workspace/CompilerProject/Software/pinhao/include/pinhao/Optimizer/OptimizationSequence.h Pages: 1 -->
<svg width="551pt" height="240pt"
 viewBox="0.00 0.00 551.00 240.00" xmlns="http://www.w3.org/2000/svg" xmlns:xlink="http://www.w3.org/1999/xlink">
<g id="graph0" class="graph" transform="scale(1 1) rotate(0) translate(4 236)">
<title>/home/yukiosir/workspace/CompilerProject/Software/pinhao/include/pinhao/Optimizer/OptimizationSequence.h</title>
<polygon fill="white" stroke="none" points="-4,4 -4,-236 547,-236 547,4 -4,4"/>
<!-- Node0 -->
<g id="node1" class="node"><title>Node0</title>
<polygon fill="#bfbfbf" stroke="black" points="148,-179.5 148,-231.5 306,-231.5 306,-179.5 148,-179.5"/>
<text text-anchor="start" x="156" y="-219.5" font-family="Helvetica,sans-Serif" font-size="10.00">/home/yukiosir/workspace</text>
<text text-anchor="start" x="156" y="-208.5" font-family="Helvetica,sans-Serif" font-size="10.00">/CompilerProject/Software</text>
<text text-anchor="start" x="156" y="-197.5" font-family="Helvetica,sans-Serif" font-size="10.00">/pinhao/include/pinhao/Optimizer</text>
<text text-anchor="middle" x="227" y="-186.5" font-family="Helvetica,sans-Serif" font-size="10.00">/OptimizationSequence.h</text>
</g>
<!-- Node1 -->
<g id="node2" class="node"><title>Node1</title>
<g id="a_node2"><a xlink:href="Optimizations_8h.html" target="_top" xlink:title="pinhao/Optimizer/Optimizations.h">
<polygon fill="white" stroke="black" points="80.5,-56.5 80.5,-75.5 241.5,-75.5 241.5,-56.5 80.5,-56.5"/>
<text text-anchor="middle" x="161" y="-63.5" font-family="Helvetica,sans-Serif" font-size="10.00">pinhao/Optimizer/Optimizations.h</text>
</a>
</g>
</g>
<!-- Node0&#45;&gt;Node1 -->
<g id="edge1" class="edge"><title>Node0&#45;&gt;Node1</title>
<path fill="none" stroke="midnightblue" d="M177.591,-179.263C164.228,-169.823 151.422,-157.736 144,-143 134.632,-124.4 142.692,-100.669 150.599,-84.7148"/>
<polygon fill="midnightblue" stroke="midnightblue" points="153.685,-86.3656 155.345,-75.9016 147.522,-83.0466 153.685,-86.3656"/>
</g>
<!-- Node5 -->
<g id="node6" class="node"><title>Node5</title>
<polygon fill="white" stroke="#bfbfbf" points="0,-0.5 0,-19.5 44,-19.5 44,-0.5 0,-0.5"/>
<text text-anchor="middle" x="22" y="-7.5" font-family="Helvetica,sans-Serif" font-size="10.00">vector</text>
</g>
<!-- Node0&#45;&gt;Node5 -->
<g id="edge12" class="edge"><title>Node0&#45;&gt;Node5</title>
<path fill="none" stroke="midnightblue" d="M185.842,-179.271C169.757,-168.757 151.493,-155.981 136,-143 104.199,-116.354 97.9838,-107.514 71,-76 57.5576,-60.3006 43.482,-41.3249 33.8839,-27.9401"/>
<polygon fill="midnightblue" stroke="midnightblue" points="36.6599,-25.8041 28.0172,-19.6759 30.9519,-29.8562 36.6599,-25.8041"/>
</g>
<!-- Node7 -->
<g id="node8" class="node"><title>Node7</title>
<g id="a_node8"><a xlink:href="OptimizationInfo_8h.html" target="_top" xlink:title="pinhao/Optimizer/Optimization\lInfo.h">
<polygon fill="white" stroke="black" points="153,-112.5 153,-142.5 301,-142.5 301,-112.5 153,-112.5"/>
<text text-anchor="start" x="161" y="-130.5" font-family="Helvetica,sans-Serif" font-size="10.00">pinhao/Optimizer/Optimization</text>
<text text-anchor="middle" x="227" y="-119.5" font-family="Helvetica,sans-Serif" font-size="10.00">Info.h</text>
</a>
</g>
</g>
<!-- Node0&#45;&gt;Node7 -->
<g id="edge7" class="edge"><title>Node0&#45;&gt;Node7</title>
<path fill="none" stroke="midnightblue" d="M227,-179.193C227,-170.786 227,-161.443 227,-153.091"/>
<polygon fill="midnightblue" stroke="midnightblue" points="230.5,-152.845 227,-142.845 223.5,-152.845 230.5,-152.845"/>
</g>
<!-- Node9 -->
<g id="node10" class="node"><title>Node9</title>
<polygon fill="white" stroke="#bfbfbf" points="319.5,-118 319.5,-137 470.5,-137 470.5,-118 319.5,-118"/>
<text text-anchor="middle" x="395" y="-125" font-family="Helvetica,sans-Serif" font-size="10.00">llvm/IR/LegacyPassManager.h</text>
</g>
<!-- Node0&#45;&gt;Node9 -->
<g id="edge11" class="edge"><title>Node0&#45;&gt;Node9</title>
<path fill="none" stroke="midnightblue" d="M282.475,-179.404C310.742,-166.617 343.898,-151.618 366.864,-141.228"/>
<polygon fill="midnightblue" stroke="midnightblue" points="368.37,-144.389 376.038,-137.078 365.485,-138.011 368.37,-144.389"/>
</g>
<!-- Node10 -->
<g id="node11" class="node"><title>Node10</title>
<polygon fill="white" stroke="#bfbfbf" points="489,-118 489,-137 543,-137 543,-118 489,-118"/>
<text text-anchor="middle" x="516" y="-125" font-family="Helvetica,sans-Serif" font-size="10.00">iostream</text>
</g>
<!-- Node0&#45;&gt;Node10 -->
<g id="edge13" class="edge"><title>Node0&#45;&gt;Node10</title>
<path fill="none" stroke="midnightblue" d="M306.166,-188.341C356.458,-177.32 422.651,-161.413 480,-143 482.137,-142.314 484.328,-141.561 486.521,-140.77"/>
<polygon fill="midnightblue" stroke="midnightblue" points="487.911,-143.986 496.005,-137.149 485.415,-137.446 487.911,-143.986"/>
</g>
<!-- Node2 -->
<g id="node3" class="node"><title>Node2</title>
<polygon fill="white" stroke="#bfbfbf" points="115.5,-0.5 115.5,-19.5 206.5,-19.5 206.5,-0.5 115.5,-0.5"/>
<text text-anchor="middle" x="161" y="-7.5" font-family="Helvetica,sans-Serif" font-size="10.00">llvm/IR/Module.h</text>
</g>
<!-- Node1&#45;&gt;Node2 -->
<g id="edge2" class="edge"><title>Node1&#45;&gt;Node2</title>
<path fill="none" stroke="midnightblue" d="M161,-56.083C161,-49.0059 161,-38.8611 161,-29.9865"/>
<polygon fill="midnightblue" stroke="midnightblue" points="164.5,-29.751 161,-19.7511 157.5,-29.7511 164.5,-29.751"/>
</g>
<!-- Node3 -->
<g id="node4" class="node"><title>Node3</title>
<polygon fill="white" stroke="#bfbfbf" points="224.5,-0.5 224.5,-19.5 321.5,-19.5 321.5,-0.5 224.5,-0.5"/>
<text text-anchor="middle" x="273" y="-7.5" font-family="Helvetica,sans-Serif" font-size="10.00">llvm/IR/Function.h</text>
</g>
<!-- Node1&#45;&gt;Node3 -->
<g id="edge3" class="edge"><title>Node1&#45;&gt;Node3</title>
<path fill="none" stroke="midnightblue" d="M178.995,-56.324C197.038,-47.6247 225.047,-34.1202 245.803,-24.113"/>
<polygon fill="midnightblue" stroke="midnightblue" points="247.562,-27.1502 255.05,-19.6545 244.522,-20.8449 247.562,-27.1502"/>
</g>
<!-- Node4 -->
<g id="node5" class="node"><title>Node4</title>
<polygon fill="white" stroke="#bfbfbf" points="339.5,-0.5 339.5,-19.5 380.5,-19.5 380.5,-0.5 339.5,-0.5"/>
<text text-anchor="middle" x="360" y="-7.5" font-family="Helvetica,sans-Serif" font-size="10.00">string</text>
</g>
<!-- Node1&#45;&gt;Node4 -->
<g id="edge4" class="edge"><title>Node1&#45;&gt;Node4</title>
<path fill="none" stroke="midnightblue" d="M194.433,-56.4264C226.586,-48.1085 276.791,-34.9317 329.501,-20.0748"/>
<polygon fill="midnightblue" stroke="midnightblue" points="330.699,-23.3731 339.368,-17.2819 328.793,-16.6377 330.699,-23.3731"/>
</g>
<!-- Node1&#45;&gt;Node5 -->
<g id="edge5" class="edge"><title>Node1&#45;&gt;Node5</title>
<path fill="none" stroke="midnightblue" d="M138.975,-56.4435C115.896,-47.4776 79.438,-33.314 53.3591,-23.1827"/>
<polygon fill="midnightblue" stroke="midnightblue" points="54.5107,-19.8753 43.9219,-19.5164 51.9758,-26.4002 54.5107,-19.8753"/>
</g>
<!-- Node6 -->
<g id="node7" class="node"><title>Node6</title>
<polygon fill="white" stroke="#bfbfbf" points="62.5,-0.5 62.5,-19.5 97.5,-19.5 97.5,-0.5 62.5,-0.5"/>
<text text-anchor="middle" x="80" y="-7.5" font-family="Helvetica,sans-Serif" font-size="10.00">map</text>
</g>
<!-- Node1&#45;&gt;Node6 -->
<g id="edge6" class="edge"><title>Node1&#45;&gt;Node6</title>
<path fill="none" stroke="midnightblue" d="M147.986,-56.324C135.468,-47.979 116.318,-35.2122 101.529,-25.3524"/>
<polygon fill="midnightblue" stroke="midnightblue" points="103.244,-22.2894 92.9818,-19.6545 99.3608,-28.1137 103.244,-22.2894"/>
</g>
<!-- Node7&#45;&gt;Node1 -->
<g id="edge8" class="edge"><title>Node7&#45;&gt;Node1</title>
<path fill="none" stroke="midnightblue" d="M211.359,-112.399C201.373,-103.397 188.422,-91.7214 178.155,-82.4652"/>
<polygon fill="midnightblue" stroke="midnightblue" points="180.375,-79.7541 170.604,-75.6578 175.687,-84.9533 180.375,-79.7541"/>
</g>
<!-- Node8 -->
<g id="node9" class="node"><title>Node8</title>
<g id="a_node9"><a xlink:href="Types_8h.html" target="_top" xlink:title="pinhao/Support/Types.h">
<polygon fill="white" stroke="black" points="280,-56.5 280,-75.5 400,-75.5 400,-56.5 280,-56.5"/>
<text text-anchor="middle" x="340" y="-63.5" font-family="Helvetica,sans-Serif" font-size="10.00">pinhao/Support/Types.h</text>
</a>
</g>
</g>
<!-- Node7&#45;&gt;Node8 -->
<g id="edge9" class="edge"><title>Node7&#45;&gt;Node8</title>
<path fill="none" stroke="midnightblue" d="M253.779,-112.399C272.062,-102.773 296.148,-90.0902 314.215,-80.5772"/>
<polygon fill="midnightblue" stroke="midnightblue" points="316.34,-83.4138 323.557,-75.6578 313.078,-77.22 316.34,-83.4138"/>
</g>
<!-- Node8&#45;&gt;Node4 -->
<g id="edge10" class="edge"><title>Node8&#45;&gt;Node4</title>
<path fill="none" stroke="midnightblue" d="M343.303,-56.083C345.982,-48.8486 349.849,-38.4087 353.186,-29.3968"/>
<polygon fill="midnightblue" stroke="midnightblue" points="356.568,-30.3442 356.759,-19.7511 350.004,-27.9129 356.568,-30.3442"/>
</g>
</g>
</svg>
