<?xml version="1.0" encoding="UTF-8" standalone="no"?>
<!DOCTYPE svg PUBLIC "-//W3C//DTD SVG 1.1//EN"
 "http://www.w3.org/Graphics/SVG/1.1/DTD/svg11.dtd">
<!-- Generated by graphviz version 2.38.0 (20140413.2041)
 -->
<!-- Title: /home/yukiosir/workspace/CompilerProject/Software/pinhao/include/pinhao/Optimizer/Optimizations.h Pages: 1 -->
<svg width="1382pt" height="417pt"
 viewBox="0.00 0.00 1382.00 417.00" xmlns="http://www.w3.org/2000/svg" xmlns:xlink="http://www.w3.org/1999/xlink">
<g id="graph0" class="graph" transform="scale(1 1) rotate(0) translate(4 413)">
<title>/home/yukiosir/workspace/CompilerProject/Software/pinhao/include/pinhao/Optimizer/Optimizations.h</title>
<polygon fill="white" stroke="none" points="-4,4 -4,-413 1378,-413 1378,4 -4,4"/>
<!-- Node6 -->
<g id="node1" class="node"><title>Node6</title>
<polygon fill="#bfbfbf" stroke="black" points="734,-356.5 734,-408.5 892,-408.5 892,-356.5 734,-356.5"/>
<text text-anchor="start" x="742" y="-396.5" font-family="Helvetica,sans-Serif" font-size="10.00">/home/yukiosir/workspace</text>
<text text-anchor="start" x="742" y="-385.5" font-family="Helvetica,sans-Serif" font-size="10.00">/CompilerProject/Software</text>
<text text-anchor="start" x="742" y="-374.5" font-family="Helvetica,sans-Serif" font-size="10.00">/pinhao/include/pinhao/Optimizer</text>
<text text-anchor="middle" x="813" y="-363.5" font-family="Helvetica,sans-Serif" font-size="10.00">/Optimizations.h</text>
</g>
<!-- Node7 -->
<g id="node2" class="node"><title>Node7</title>
<g id="a_node2"><a xlink:href="GrammarEvolution_8h.html" target="_top" xlink:title="/home/yukiosir/workspace\l/CompilerProject/Software\l/pinhao/include/pinhao/MachineLearning\l/GrammarEvolution/GrammarEvolution.h">
<polygon fill="white" stroke="black" points="408.5,-178.5 408.5,-230.5 601.5,-230.5 601.5,-178.5 408.5,-178.5"/>
<text text-anchor="start" x="416.5" y="-218.5" font-family="Helvetica,sans-Serif" font-size="10.00">/home/yukiosir/workspace</text>
<text text-anchor="start" x="416.5" y="-207.5" font-family="Helvetica,sans-Serif" font-size="10.00">/CompilerProject/Software</text>
<text text-anchor="start" x="416.5" y="-196.5" font-family="Helvetica,sans-Serif" font-size="10.00">/pinhao/include/pinhao/MachineLearning</text>
<text text-anchor="middle" x="505" y="-185.5" font-family="Helvetica,sans-Serif" font-size="10.00">/GrammarEvolution/GrammarEvolution.h</text>
</a>
</g>
</g>
<!-- Node6&#45;&gt;Node7 -->
<g id="edge1" class="edge"><title>Node6&#45;&gt;Node7</title>
<path fill="none" stroke="midnightblue" d="M725.555,-352.824C701.715,-343.639 676.321,-332.548 654,-320 608.357,-294.341 561.378,-255.849 532.68,-230.702"/>
<polygon fill="midnightblue" stroke="midnightblue" points="724.364,-356.116 734.956,-356.38 726.841,-349.569 724.364,-356.116"/>
</g>
<!-- Node13 -->
<g id="node8" class="node"><title>Node13</title>
<g id="a_node8"><a xlink:href="OptimizationInfo_8h.html" target="_top" xlink:title="/home/yukiosir/workspace\l/CompilerProject/Software\l/pinhao/include/pinhao/Optimizer\l/OptimizationInfo.h">
<polygon fill="white" stroke="black" points="932,-267.5 932,-319.5 1090,-319.5 1090,-267.5 932,-267.5"/>
<text text-anchor="start" x="940" y="-307.5" font-family="Helvetica,sans-Serif" font-size="10.00">/home/yukiosir/workspace</text>
<text text-anchor="start" x="940" y="-296.5" font-family="Helvetica,sans-Serif" font-size="10.00">/CompilerProject/Software</text>
<text text-anchor="start" x="940" y="-285.5" font-family="Helvetica,sans-Serif" font-size="10.00">/pinhao/include/pinhao/Optimizer</text>
<text text-anchor="middle" x="1011" y="-274.5" font-family="Helvetica,sans-Serif" font-size="10.00">/OptimizationInfo.h</text>
</a>
</g>
</g>
<!-- Node6&#45;&gt;Node13 -->
<g id="edge7" class="edge"><title>Node6&#45;&gt;Node13</title>
<path fill="none" stroke="midnightblue" d="M879.468,-352.295C903.658,-341.665 930.764,-329.755 954.055,-319.521"/>
<polygon fill="midnightblue" stroke="midnightblue" points="877.751,-349.226 870.004,-356.453 880.567,-355.634 877.751,-349.226"/>
</g>
<!-- Node14 -->
<g id="node9" class="node"><title>Node14</title>
<g id="a_node9"><a xlink:href="OptimizationSequence_8h.html" target="_top" xlink:title="/home/yukiosir/workspace\l/CompilerProject/Software\l/pinhao/include/pinhao/Optimizer\l/OptimizationSequence.h">
<polygon fill="white" stroke="black" points="879,-178.5 879,-230.5 1037,-230.5 1037,-178.5 879,-178.5"/>
<text text-anchor="start" x="887" y="-218.5" font-family="Helvetica,sans-Serif" font-size="10.00">/home/yukiosir/workspace</text>
<text text-anchor="start" x="887" y="-207.5" font-family="Helvetica,sans-Serif" font-size="10.00">/CompilerProject/Software</text>
<text text-anchor="start" x="887" y="-196.5" font-family="Helvetica,sans-Serif" font-size="10.00">/pinhao/include/pinhao/Optimizer</text>
<text text-anchor="middle" x="958" y="-185.5" font-family="Helvetica,sans-Serif" font-size="10.00">/OptimizationSequence.h</text>
</a>
</g>
</g>
<!-- Node6&#45;&gt;Node14 -->
<g id="edge24" class="edge"><title>Node6&#45;&gt;Node14</title>
<path fill="none" stroke="midnightblue" d="M840.239,-348.437C868.406,-314.249 911.763,-261.622 937.264,-230.67"/>
<polygon fill="midnightblue" stroke="midnightblue" points="837.432,-346.34 833.775,-356.283 842.835,-350.791 837.432,-346.34"/>
</g>
<!-- Node15 -->
<g id="node10" class="node"><title>Node15</title>
<g id="a_node10"><a xlink:href="OptimizationSet_8h.html" target="_top" xlink:title="/home/yukiosir/workspace\l/CompilerProject/Software\l/pinhao/include/pinhao/Optimizer\l/OptimizationSet.h">
<polygon fill="white" stroke="black" points="734,-89.5 734,-141.5 892,-141.5 892,-89.5 734,-89.5"/>
<text text-anchor="start" x="742" y="-129.5" font-family="Helvetica,sans-Serif" font-size="10.00">/home/yukiosir/workspace</text>
<text text-anchor="start" x="742" y="-118.5" font-family="Helvetica,sans-Serif" font-size="10.00">/CompilerProject/Software</text>
<text text-anchor="start" x="742" y="-107.5" font-family="Helvetica,sans-Serif" font-size="10.00">/pinhao/include/pinhao/Optimizer</text>
<text text-anchor="middle" x="813" y="-96.5" font-family="Helvetica,sans-Serif" font-size="10.00">/OptimizationSet.h</text>
</a>
</g>
</g>
<!-- Node6&#45;&gt;Node15 -->
<g id="edge25" class="edge"><title>Node6&#45;&gt;Node15</title>
<path fill="none" stroke="midnightblue" d="M813,-345.893C813,-291.555 813,-189.26 813,-141.832"/>
<polygon fill="midnightblue" stroke="midnightblue" points="809.5,-346.091 813,-356.091 816.5,-346.091 809.5,-346.091"/>
</g>
<!-- Node16 -->
<g id="node11" class="node"><title>Node16</title>
<g id="a_node11"><a xlink:href="OptimizationInfo_8cpp.html" target="_top" xlink:title="/home/yukiosir/workspace\l/CompilerProject/Software\l/pinhao/lib/Optimizer/Optimization\lInfo.cpp">
<polygon fill="white" stroke="black" points="640,-0.5 640,-52.5 804,-52.5 804,-0.5 640,-0.5"/>
<text text-anchor="start" x="648" y="-40.5" font-family="Helvetica,sans-Serif" font-size="10.00">/home/yukiosir/workspace</text>
<text text-anchor="start" x="648" y="-29.5" font-family="Helvetica,sans-Serif" font-size="10.00">/CompilerProject/Software</text>
<text text-anchor="start" x="648" y="-18.5" font-family="Helvetica,sans-Serif" font-size="10.00">/pinhao/lib/Optimizer/Optimization</text>
<text text-anchor="middle" x="722" y="-7.5" font-family="Helvetica,sans-Serif" font-size="10.00">Info.cpp</text>
</a>
</g>
</g>
<!-- Node6&#45;&gt;Node16 -->
<g id="edge26" class="edge"><title>Node6&#45;&gt;Node16</title>
<path fill="none" stroke="midnightblue" d="M724.946,-351.766C711.83,-343.515 700.036,-333.099 692,-320 638.313,-232.489 668.902,-189.035 692,-89 694.913,-76.3831 700.784,-63.361 706.566,-52.566"/>
<polygon fill="midnightblue" stroke="midnightblue" points="723.327,-354.873 733.73,-356.881 726.85,-348.824 723.327,-354.873"/>
</g>
<!-- Node17 -->
<g id="node12" class="node"><title>Node17</title>
<g id="a_node12"><a xlink:href="Optimizations_8cpp.html" target="_top" xlink:title="/home/yukiosir/workspace\l/CompilerProject/Software\l/pinhao/lib/Optimizer/Optimizations.cpp">
<polygon fill="white" stroke="black" points="822,-6 822,-47 1010,-47 1010,-6 822,-6"/>
<text text-anchor="start" x="830" y="-35" font-family="Helvetica,sans-Serif" font-size="10.00">/home/yukiosir/workspace</text>
<text text-anchor="start" x="830" y="-24" font-family="Helvetica,sans-Serif" font-size="10.00">/CompilerProject/Software</text>
<text text-anchor="middle" x="916" y="-13" font-family="Helvetica,sans-Serif" font-size="10.00">/pinhao/lib/Optimizer/Optimizations.cpp</text>
</a>
</g>
</g>
<!-- Node6&#45;&gt;Node17 -->
<g id="edge27" class="edge"><title>Node6&#45;&gt;Node17</title>
<path fill="none" stroke="midnightblue" d="M785.748,-348.269C741.846,-290.472 666.069,-169.886 725,-89 732.321,-78.9518 790.866,-60.9871 841.232,-47.059"/>
<polygon fill="midnightblue" stroke="midnightblue" points="783.091,-350.555 791.974,-356.329 788.631,-346.276 783.091,-350.555"/>
</g>
<!-- Node18 -->
<g id="node13" class="node"><title>Node18</title>
<g id="a_node13"><a xlink:href="OptimizationSequence_8cpp.html" target="_top" xlink:title="/home/yukiosir/workspace\l/CompilerProject/Software\l/pinhao/lib/Optimizer/Optimization\lSequence.cpp">
<polygon fill="white" stroke="black" points="1210,-0.5 1210,-52.5 1374,-52.5 1374,-0.5 1210,-0.5"/>
<text text-anchor="start" x="1218" y="-40.5" font-family="Helvetica,sans-Serif" font-size="10.00">/home/yukiosir/workspace</text>
<text text-anchor="start" x="1218" y="-29.5" font-family="Helvetica,sans-Serif" font-size="10.00">/CompilerProject/Software</text>
<text text-anchor="start" x="1218" y="-18.5" font-family="Helvetica,sans-Serif" font-size="10.00">/pinhao/lib/Optimizer/Optimization</text>
<text text-anchor="middle" x="1292" y="-7.5" font-family="Helvetica,sans-Serif" font-size="10.00">Sequence.cpp</text>
</a>
</g>
</g>
<!-- Node6&#45;&gt;Node18 -->
<g id="edge28" class="edge"><title>Node6&#45;&gt;Node18</title>
<path fill="none" stroke="midnightblue" d="M902.051,-374.012C960.519,-366.347 1037.3,-350.925 1099,-320 1195.71,-271.528 1220.15,-240.439 1265,-142 1278.29,-112.821 1285.44,-76.3665 1288.97,-52.5354"/>
<polygon fill="midnightblue" stroke="midnightblue" points="901.578,-370.544 892.094,-375.266 902.453,-377.489 901.578,-370.544"/>
</g>
<!-- Node8 -->
<g id="node3" class="node"><title>Node8</title>
<g id="a_node3"><a xlink:href="SimpleGrammarEvolution_8h.html" target="_top" xlink:title="/home/yukiosir/workspace\l/CompilerProject/Software\l/pinhao/include/pinhao/MachineLearning\l/GrammarEvolution/SimpleGrammarEvolution.h">
<polygon fill="white" stroke="black" points="77.5,-89.5 77.5,-141.5 300.5,-141.5 300.5,-89.5 77.5,-89.5"/>
<text text-anchor="start" x="85.5" y="-129.5" font-family="Helvetica,sans-Serif" font-size="10.00">/home/yukiosir/workspace</text>
<text text-anchor="start" x="85.5" y="-118.5" font-family="Helvetica,sans-Serif" font-size="10.00">/CompilerProject/Software</text>
<text text-anchor="start" x="85.5" y="-107.5" font-family="Helvetica,sans-Serif" font-size="10.00">/pinhao/include/pinhao/MachineLearning</text>
<text text-anchor="middle" x="189" y="-96.5" font-family="Helvetica,sans-Serif" font-size="10.00">/GrammarEvolution/SimpleGrammarEvolution.h</text>
</a>
</g>
</g>
<!-- Node7&#45;&gt;Node8 -->
<g id="edge2" class="edge"><title>Node7&#45;&gt;Node8</title>
<path fill="none" stroke="midnightblue" d="M404.27,-175.767C364.346,-164.776 318.78,-152.231 279.881,-141.521"/>
<polygon fill="midnightblue" stroke="midnightblue" points="403.453,-179.173 414.024,-178.453 405.311,-172.424 403.453,-179.173"/>
</g>
<!-- Node11 -->
<g id="node6" class="node"><title>Node11</title>
<g id="a_node6"><a xlink:href="Candidate_8cpp.html" target="_top" xlink:title="/home/yukiosir/workspace\l/CompilerProject/Software\l/pinhao/lib/MachineLearning\l/GrammarEvolution/Candidate.cpp">
<polygon fill="white" stroke="black" points="454.5,-0.5 454.5,-52.5 621.5,-52.5 621.5,-0.5 454.5,-0.5"/>
<text text-anchor="start" x="462.5" y="-40.5" font-family="Helvetica,sans-Serif" font-size="10.00">/home/yukiosir/workspace</text>
<text text-anchor="start" x="462.5" y="-29.5" font-family="Helvetica,sans-Serif" font-size="10.00">/CompilerProject/Software</text>
<text text-anchor="start" x="462.5" y="-18.5" font-family="Helvetica,sans-Serif" font-size="10.00">/pinhao/lib/MachineLearning</text>
<text text-anchor="middle" x="538" y="-7.5" font-family="Helvetica,sans-Serif" font-size="10.00">/GrammarEvolution/Candidate.cpp</text>
</a>
</g>
</g>
<!-- Node7&#45;&gt;Node11 -->
<g id="edge5" class="edge"><title>Node7&#45;&gt;Node11</title>
<path fill="none" stroke="midnightblue" d="M539.792,-170.785C546.82,-162.165 553.209,-152.354 557,-142 567.807,-112.482 558.387,-76.4205 549.379,-52.752"/>
<polygon fill="midnightblue" stroke="midnightblue" points="537.136,-168.505 533.215,-178.348 542.418,-173.099 537.136,-168.505"/>
</g>
<!-- Node12 -->
<g id="node7" class="node"><title>Node12</title>
<g id="a_node7"><a xlink:href="CandidateYAMLWrapper_8cpp.html" target="_top" xlink:title="/home/yukiosir/workspace\l/CompilerProject/Software\l/pinhao/lib/MachineLearning\l/GrammarEvolution/CandidateYAMLWrapper.cpp">
<polygon fill="white" stroke="black" points="318,-89.5 318,-141.5 548,-141.5 548,-89.5 318,-89.5"/>
<text text-anchor="start" x="326" y="-129.5" font-family="Helvetica,sans-Serif" font-size="10.00">/home/yukiosir/workspace</text>
<text text-anchor="start" x="326" y="-118.5" font-family="Helvetica,sans-Serif" font-size="10.00">/CompilerProject/Software</text>
<text text-anchor="start" x="326" y="-107.5" font-family="Helvetica,sans-Serif" font-size="10.00">/pinhao/lib/MachineLearning</text>
<text text-anchor="middle" x="433" y="-96.5" font-family="Helvetica,sans-Serif" font-size="10.00">/GrammarEvolution/CandidateYAMLWrapper.cpp</text>
</a>
</g>
</g>
<!-- Node7&#45;&gt;Node12 -->
<g id="edge6" class="edge"><title>Node7&#45;&gt;Node12</title>
<path fill="none" stroke="midnightblue" d="M477.692,-170.503C469.764,-160.923 461.237,-150.62 453.779,-141.607"/>
<polygon fill="midnightblue" stroke="midnightblue" points="475.103,-172.864 484.175,-178.336 480.495,-168.401 475.103,-172.864"/>
</g>
<!-- Node9 -->
<g id="node4" class="node"><title>Node9</title>
<g id="a_node4"><a xlink:href="SimpleGrammarEvolution_8cpp.html" target="_top" xlink:title="/home/yukiosir/workspace\l/CompilerProject/Software\l/pinhao/lib/MachineLearning\l/GrammarEvolution/SimpleGrammarEvolution.cpp">
<polygon fill="white" stroke="black" points="203.5,-0.5 203.5,-52.5 436.5,-52.5 436.5,-0.5 203.5,-0.5"/>
<text text-anchor="start" x="211.5" y="-40.5" font-family="Helvetica,sans-Serif" font-size="10.00">/home/yukiosir/workspace</text>
<text text-anchor="start" x="211.5" y="-29.5" font-family="Helvetica,sans-Serif" font-size="10.00">/CompilerProject/Software</text>
<text text-anchor="start" x="211.5" y="-18.5" font-family="Helvetica,sans-Serif" font-size="10.00">/pinhao/lib/MachineLearning</text>
<text text-anchor="middle" x="320" y="-7.5" font-family="Helvetica,sans-Serif" font-size="10.00">/GrammarEvolution/SimpleGrammarEvolution.cpp</text>
</a>
</g>
</g>
<!-- Node8&#45;&gt;Node9 -->
<g id="edge3" class="edge"><title>Node8&#45;&gt;Node9</title>
<path fill="none" stroke="midnightblue" d="M235.246,-83.7872C250.616,-73.5794 267.539,-62.3405 282.195,-52.6075"/>
<polygon fill="midnightblue" stroke="midnightblue" points="233.285,-80.888 226.891,-89.336 237.157,-86.7192 233.285,-80.888"/>
</g>
<!-- Node10 -->
<g id="node5" class="node"><title>Node10</title>
<g id="a_node5"><a xlink:href="Main_8cpp.html" target="_top" xlink:title="/home/yukiosir/workspace\l/CompilerProject/Software\l/pinhao/tools/SimpleGrammarEvolution\l/Main.cpp">
<polygon fill="white" stroke="black" points="0,-0.5 0,-52.5 186,-52.5 186,-0.5 0,-0.5"/>
<text text-anchor="start" x="8" y="-40.5" font-family="Helvetica,sans-Serif" font-size="10.00">/home/yukiosir/workspace</text>
<text text-anchor="start" x="8" y="-29.5" font-family="Helvetica,sans-Serif" font-size="10.00">/CompilerProject/Software</text>
<text text-anchor="start" x="8" y="-18.5" font-family="Helvetica,sans-Serif" font-size="10.00">/pinhao/tools/SimpleGrammarEvolution</text>
<text text-anchor="middle" x="93" y="-7.5" font-family="Helvetica,sans-Serif" font-size="10.00">/Main.cpp</text>
</a>
</g>
</g>
<!-- Node8&#45;&gt;Node10 -->
<g id="edge4" class="edge"><title>Node8&#45;&gt;Node10</title>
<path fill="none" stroke="midnightblue" d="M153.539,-82.3631C142.702,-72.542 130.948,-61.8899 120.705,-52.6075"/>
<polygon fill="midnightblue" stroke="midnightblue" points="151.473,-85.2142 161.233,-89.336 156.173,-80.0273 151.473,-85.2142"/>
</g>
<!-- Node13&#45;&gt;Node14 -->
<g id="edge8" class="edge"><title>Node13&#45;&gt;Node14</title>
<path fill="none" stroke="midnightblue" d="M990.372,-258.639C984.686,-249.306 978.621,-239.349 973.295,-230.607"/>
<polygon fill="midnightblue" stroke="midnightblue" points="987.479,-260.617 995.67,-267.336 993.457,-256.975 987.479,-260.617"/>
</g>
<!-- Node13&#45;&gt;Node15 -->
<g id="edge20" class="edge"><title>Node13&#45;&gt;Node15</title>
<path fill="none" stroke="midnightblue" d="M922.392,-265.096C903.557,-256.352 884.887,-245.153 870,-231 844.089,-206.368 828.224,-167.431 820.018,-141.925"/>
<polygon fill="midnightblue" stroke="midnightblue" points="921.075,-268.341 931.636,-269.194 923.912,-261.941 921.075,-268.341"/>
</g>
<!-- Node13&#45;&gt;Node18 -->
<g id="edge21" class="edge"><title>Node13&#45;&gt;Node18</title>
<path fill="none" stroke="midnightblue" d="M1099.5,-266.987C1121.43,-257.947 1143.83,-246.139 1162,-231 1222.4,-180.689 1264.06,-94.9098 1282.03,-52.6068"/>
<polygon fill="midnightblue" stroke="midnightblue" points="1098.15,-263.756 1090.14,-270.693 1100.73,-270.264 1098.15,-263.756"/>
</g>
<!-- Node19 -->
<g id="node14" class="node"><title>Node19</title>
<g id="a_node14"><a xlink:href="OptimizationSet_8cpp.html" target="_top" xlink:title="/home/yukiosir/workspace\l/CompilerProject/Software\l/pinhao/lib/Optimizer/Optimization\lSet.cpp">
<polygon fill="white" stroke="black" points="1028,-0.5 1028,-52.5 1192,-52.5 1192,-0.5 1028,-0.5"/>
<text text-anchor="start" x="1036" y="-40.5" font-family="Helvetica,sans-Serif" font-size="10.00">/home/yukiosir/workspace</text>
<text text-anchor="start" x="1036" y="-29.5" font-family="Helvetica,sans-Serif" font-size="10.00">/CompilerProject/Software</text>
<text text-anchor="start" x="1036" y="-18.5" font-family="Helvetica,sans-Serif" font-size="10.00">/pinhao/lib/Optimizer/Optimization</text>
<text text-anchor="middle" x="1110" y="-7.5" font-family="Helvetica,sans-Serif" font-size="10.00">Set.cpp</text>
</a>
</g>
</g>
<!-- Node13&#45;&gt;Node19 -->
<g id="edge22" class="edge"><title>Node13&#45;&gt;Node19</title>
<path fill="none" stroke="midnightblue" d="M1071.79,-262.324C1115.55,-236.897 1171.22,-196.011 1197,-142 1207.15,-120.741 1207.83,-109.918 1197,-89 1189.26,-74.0523 1176.03,-61.9605 1162.19,-52.5829"/>
<polygon fill="midnightblue" stroke="midnightblue" points="1069.9,-259.375 1062.93,-267.358 1073.36,-265.461 1069.9,-259.375"/>
</g>
<!-- Node20 -->
<g id="node15" class="node"><title>Node20</title>
<g id="a_node15"><a xlink:href="OptimizerYAMLWrapper_8cpp.html" target="_top" xlink:title="/home/yukiosir/workspace\l/CompilerProject/Software\l/pinhao/lib/Support/YAMLWrapper\l/OptimizerYAMLWrapper.cpp">
<polygon fill="white" stroke="black" points="1024,-89.5 1024,-141.5 1188,-141.5 1188,-89.5 1024,-89.5"/>
<text text-anchor="start" x="1032" y="-129.5" font-family="Helvetica,sans-Serif" font-size="10.00">/home/yukiosir/workspace</text>
<text text-anchor="start" x="1032" y="-118.5" font-family="Helvetica,sans-Serif" font-size="10.00">/CompilerProject/Software</text>
<text text-anchor="start" x="1032" y="-107.5" font-family="Helvetica,sans-Serif" font-size="10.00">/pinhao/lib/Support/YAMLWrapper</text>
<text text-anchor="middle" x="1106" y="-96.5" font-family="Helvetica,sans-Serif" font-size="10.00">/OptimizerYAMLWrapper.cpp</text>
</a>
</g>
</g>
<!-- Node13&#45;&gt;Node20 -->
<g id="edge23" class="edge"><title>Node13&#45;&gt;Node20</title>
<path fill="none" stroke="midnightblue" d="M1030.47,-258.783C1035.58,-249.79 1041.05,-240.056 1046,-231 1062.68,-200.473 1081.16,-164.938 1093.14,-141.649"/>
<polygon fill="midnightblue" stroke="midnightblue" points="1027.42,-257.057 1025.5,-267.476 1033.5,-260.529 1027.42,-257.057"/>
</g>
<!-- Node14&#45;&gt;Node15 -->
<g id="edge9" class="edge"><title>Node14&#45;&gt;Node15</title>
<path fill="none" stroke="midnightblue" d="M907.284,-173.07C890.146,-162.788 871.218,-151.431 854.846,-141.607"/>
<polygon fill="midnightblue" stroke="midnightblue" points="905.684,-176.192 916.06,-178.336 909.286,-170.19 905.684,-176.192"/>
</g>
<!-- Node14&#45;&gt;Node16 -->
<g id="edge16" class="edge"><title>Node14&#45;&gt;Node16</title>
<path fill="none" stroke="midnightblue" d="M944.206,-168.869C931.89,-139.46 913.862,-100.279 901,-89 893.002,-81.986 847.29,-66.3307 804.068,-52.5715"/>
<polygon fill="midnightblue" stroke="midnightblue" points="941.096,-170.507 948.148,-178.414 947.566,-167.835 941.096,-170.507"/>
</g>
<!-- Node14&#45;&gt;Node17 -->
<g id="edge17" class="edge"><title>Node14&#45;&gt;Node17</title>
<path fill="none" stroke="midnightblue" d="M951.394,-168.469C946.923,-145.719 940.64,-115.48 934,-89 930.456,-74.8638 925.825,-59.091 922.148,-47.0582"/>
<polygon fill="midnightblue" stroke="midnightblue" points="947.972,-169.206 953.316,-178.355 954.843,-167.871 947.972,-169.206"/>
</g>
<!-- Node14&#45;&gt;Node18 -->
<g id="edge18" class="edge"><title>Node14&#45;&gt;Node18</title>
<path fill="none" stroke="midnightblue" d="M966.436,-168.461C974.531,-142.529 989.407,-108.457 1015,-89 1082.03,-38.0401 1119.06,-72.3761 1201,-53 1203.87,-52.3204 1206.79,-51.6103 1209.74,-50.8773"/>
<polygon fill="midnightblue" stroke="midnightblue" points="963.005,-167.725 963.561,-178.305 969.724,-169.687 963.005,-167.725"/>
</g>
<!-- Node14&#45;&gt;Node20 -->
<g id="edge19" class="edge"><title>Node14&#45;&gt;Node20</title>
<path fill="none" stroke="midnightblue" d="M1009.77,-173.07C1027.26,-162.788 1046.58,-151.431 1063.29,-141.607"/>
<polygon fill="midnightblue" stroke="midnightblue" points="1007.65,-170.251 1000.81,-178.336 1011.2,-176.286 1007.65,-170.251"/>
</g>
<!-- Node15&#45;&gt;Node9 -->
<g id="edge11" class="edge"><title>Node15&#45;&gt;Node9</title>
<path fill="none" stroke="midnightblue" d="M723.598,-100.473C648.979,-88.5469 539.891,-70.6021 445,-53 442.278,-52.4951 439.524,-51.9786 436.747,-51.453"/>
<polygon fill="midnightblue" stroke="midnightblue" points="723.466,-103.996 733.893,-102.116 724.569,-97.0839 723.466,-103.996"/>
</g>
<!-- Node15&#45;&gt;Node11 -->
<g id="edge10" class="edge"><title>Node15&#45;&gt;Node11</title>
<path fill="none" stroke="midnightblue" d="M724.236,-86.4183C689.758,-75.5107 650.584,-63.1174 617.09,-52.5211"/>
<polygon fill="midnightblue" stroke="midnightblue" points="723.238,-89.7733 733.828,-89.4527 725.349,-83.0994 723.238,-89.7733"/>
</g>
<!-- Node15&#45;&gt;Node16 -->
<g id="edge12" class="edge"><title>Node15&#45;&gt;Node16</title>
<path fill="none" stroke="midnightblue" d="M779.386,-82.3631C769.113,-72.542 757.971,-61.8899 748.262,-52.6075"/>
<polygon fill="midnightblue" stroke="midnightblue" points="777.032,-84.9554 786.679,-89.336 781.87,-79.8957 777.032,-84.9554"/>
</g>
<!-- Node15&#45;&gt;Node17 -->
<g id="edge13" class="edge"><title>Node15&#45;&gt;Node17</title>
<path fill="none" stroke="midnightblue" d="M850.474,-82.8474C864.639,-70.8824 880.337,-57.6228 892.817,-47.0821"/>
<polygon fill="midnightblue" stroke="midnightblue" points="848.173,-80.2094 842.792,-89.336 852.69,-85.557 848.173,-80.2094"/>
</g>
<!-- Node15&#45;&gt;Node18 -->
<g id="edge14" class="edge"><title>Node15&#45;&gt;Node18</title>
<path fill="none" stroke="midnightblue" d="M902.187,-100.922C1007.6,-84.7859 1172.4,-59.2522 1201,-53 1203.89,-52.3693 1206.81,-51.7013 1209.77,-51.0042"/>
<polygon fill="midnightblue" stroke="midnightblue" points="901.533,-97.4816 892.177,-102.454 902.591,-104.401 901.533,-97.4816"/>
</g>
<!-- Node15&#45;&gt;Node19 -->
<g id="edge15" class="edge"><title>Node15&#45;&gt;Node19</title>
<path fill="none" stroke="midnightblue" d="M901.939,-88.4472C941.912,-76.738 988.786,-63.0072 1027.91,-51.5458"/>
<polygon fill="midnightblue" stroke="midnightblue" points="900.813,-85.1298 892.2,-91.2999 902.781,-91.8475 900.813,-85.1298"/>
</g>
</g>
</svg>
