<?xml version="1.0" encoding="UTF-8" standalone="no"?>
<!DOCTYPE svg PUBLIC "-//W3C//DTD SVG 1.1//EN"
 "http://www.w3.org/Graphics/SVG/1.1/DTD/svg11.dtd">
<!-- Generated by graphviz version 2.38.0 (20140413.2041)
 -->
<!-- Title: /home/yukiosir/workspace/CompilerProject/Software/pinhao/lib/Optimizer/OptimizationSequence.cpp Pages: 1 -->
<!--zoomable 374 -->
<svg id="main" version="1.1" xmlns="http://www.w3.org/2000/svg" xmlns:xlink="http://www.w3.org/1999/xlink" xml:space="preserve" onload="init(evt)">
<style type="text/css"><![CDATA[
.edge:hover path { stroke: red; }
.edge:hover polygon { stroke: red; fill: red; }
]]></style>
<script type="text/javascript"><![CDATA[
var edges = document.getElementsByTagName('g');
if (edges && edges.length) {
  for (var i=0;i<edges.length;i++) {
    if (edges[i].id.substr(0,4)=='edge') {
      edges[i].setAttribute('class','edge');
    }
  }
}
]]></script>
        <defs>
                <circle id="rim" cx="0" cy="0" r="7"/>
                <circle id="rim2" cx="0" cy="0" r="3.5"/>
                <g id="zoomPlus">
                        <use xlink:href="#rim" fill="#404040">
                                <set attributeName="fill" to="#808080" begin="zoomplus.mouseover" end="zoomplus.mouseout"/>
                        </use>
                        <path d="M-4,0h8M0,-4v8" fill="none" stroke="white" stroke-width="1.5" pointer-events="none"/>
                </g>
                <g id="zoomMin">
                        <use xlink:href="#rim" fill="#404040">
                                <set attributeName="fill" to="#808080" begin="zoomminus.mouseover" end="zoomminus.mouseout"/>
                        </use>
                        <path d="M-4,0h8" fill="none" stroke="white" stroke-width="1.5" pointer-events="none"/>
                </g>
                <g id="dirArrow">
                        <path fill="none" stroke="white" stroke-width="1.5" d="M0,-3.0v7 M-2.5,-0.5L0,-3.0L2.5,-0.5"/>
                </g>
               <g id="resetDef">
                       <use xlink:href="#rim2" fill="#404040">
                               <set attributeName="fill" to="#808080" begin="reset.mouseover" end="reset.mouseout"/>
                       </use>
               </g>
        </defs>

<script type="text/javascript">
var viewWidth = 800;
var viewHeight = 374;
var sectionId = 'dynsection-0';
</script>
<script xlink:href="svgpan.js"/>
<svg id="graph" class="graph">
<g id="viewport">
<title>/home/yukiosir/workspace/CompilerProject/Software/pinhao/lib/Optimizer/OptimizationSequence.cpp</title>
<polygon fill="white" stroke="none" points="-4,4 -4,-370 796,-370 796,4 -4,4"/>
<!-- Node0 -->
<g id="node1" class="node"><title>Node0</title>
<polygon fill="#bfbfbf" stroke="black" points="301,-313.5 301,-365.5 465,-365.5 465,-313.5 301,-313.5"/>
<text text-anchor="start" x="309" y="-353.5" font-family="Helvetica,sans-Serif" font-size="10.00">/home/yukiosir/workspace</text>
<text text-anchor="start" x="309" y="-342.5" font-family="Helvetica,sans-Serif" font-size="10.00">/CompilerProject/Software</text>
<text text-anchor="start" x="309" y="-331.5" font-family="Helvetica,sans-Serif" font-size="10.00">/pinhao/lib/Optimizer/Optimization</text>
<text text-anchor="middle" x="383" y="-320.5" font-family="Helvetica,sans-Serif" font-size="10.00">Sequence.cpp</text>
</g>
<!-- Node1 -->
<g id="node2" class="node"><title>Node1</title>
<g id="a_node2"><a xlink:href="Optimizations_8h.html" target="_top" xlink:title="pinhao/Optimizer/Optimizations.h">
<polygon fill="white" stroke="black" points="251.5,-56.5 251.5,-75.5 412.5,-75.5 412.5,-56.5 251.5,-56.5"/>
<text text-anchor="middle" x="332" y="-63.5" font-family="Helvetica,sans-Serif" font-size="10.00">pinhao/Optimizer/Optimizations.h</text>
</a>
</g>
</g>
<!-- Node0&#45;&gt;Node1 -->
<g id="edge1" class="edge"><title>Node0&#45;&gt;Node1</title>
<path fill="none" stroke="midnightblue" d="M300.922,-318.268C217.975,-292.877 94.6286,-240.341 41,-143 34.3515,-130.932 32.0329,-122.46 41,-112 66.4736,-82.2844 165.586,-72.0173 241.131,-68.5642"/>
<polygon fill="midnightblue" stroke="midnightblue" points="241.312,-72.0598 251.155,-68.1392 241.016,-65.066 241.312,-72.0598"/>
</g>
<!-- Node7 -->
<g id="node8" class="node"><title>Node7</title>
<g id="a_node8"><a xlink:href="OptimizationInfo_8h.html" target="_top" xlink:title="pinhao/Optimizer/Optimization\lInfo.h">
<polygon fill="white" stroke="black" points="258,-112.5 258,-142.5 406,-142.5 406,-112.5 258,-112.5"/>
<text text-anchor="start" x="266" y="-130.5" font-family="Helvetica,sans-Serif" font-size="10.00">pinhao/Optimizer/Optimization</text>
<text text-anchor="middle" x="332" y="-119.5" font-family="Helvetica,sans-Serif" font-size="10.00">Info.h</text>
</a>
</g>
</g>
<!-- Node0&#45;&gt;Node7 -->
<g id="edge7" class="edge"><title>Node0&#45;&gt;Node7</title>
<path fill="none" stroke="midnightblue" d="M367.342,-313.338C361.304,-302.527 354.921,-289.52 351,-277 337.775,-234.772 333.737,-183.033 332.516,-153.109"/>
<polygon fill="midnightblue" stroke="midnightblue" points="336.002,-152.652 332.172,-142.774 329.006,-152.885 336.002,-152.652"/>
</g>
<!-- Node9 -->
<g id="node10" class="node"><title>Node9</title>
<g id="a_node10"><a xlink:href="OptimizationSequence_8h.html" target="_top" xlink:title="pinhao/Optimizer/Optimization\lSequence.h">
<polygon fill="white" stroke="black" points="156,-179.5 156,-209.5 304,-209.5 304,-179.5 156,-179.5"/>
<text text-anchor="start" x="164" y="-197.5" font-family="Helvetica,sans-Serif" font-size="10.00">pinhao/Optimizer/Optimization</text>
<text text-anchor="middle" x="230" y="-186.5" font-family="Helvetica,sans-Serif" font-size="10.00">Sequence.h</text>
</a>
</g>
</g>
<!-- Node0&#45;&gt;Node9 -->
<g id="edge11" class="edge"><title>Node0&#45;&gt;Node9</title>
<path fill="none" stroke="midnightblue" d="M355.999,-313.264C326.641,-285.824 280.238,-242.454 252.691,-216.708"/>
<polygon fill="midnightblue" stroke="midnightblue" points="254.815,-213.903 245.12,-209.631 250.036,-219.017 254.815,-213.903"/>
</g>
<!-- Node12 -->
<g id="node13" class="node"><title>Node12</title>
<g id="a_node13"><a xlink:href="OptimizationSet_8h.html" target="_top" xlink:title="pinhao/Optimizer/Optimization\lSet.h">
<polygon fill="white" stroke="black" points="360,-246.5 360,-276.5 508,-276.5 508,-246.5 360,-246.5"/>
<text text-anchor="start" x="368" y="-264.5" font-family="Helvetica,sans-Serif" font-size="10.00">pinhao/Optimizer/Optimization</text>
<text text-anchor="middle" x="434" y="-253.5" font-family="Helvetica,sans-Serif" font-size="10.00">Set.h</text>
</a>
</g>
</g>
<!-- Node0&#45;&gt;Node12 -->
<g id="edge17" class="edge"><title>Node0&#45;&gt;Node12</title>
<path fill="none" stroke="midnightblue" d="M399.982,-313.193C406.004,-304.22 412.742,-294.179 418.622,-285.416"/>
<polygon fill="midnightblue" stroke="midnightblue" points="421.708,-287.099 424.374,-276.845 415.895,-283.199 421.708,-287.099"/>
</g>
<!-- Node13 -->
<g id="node14" class="node"><title>Node13</title>
<g id="a_node14"><a xlink:href="YAMLWrapper_8h.html" target="_top" xlink:title="pinhao/Support/YAMLWrapper.h">
<polygon fill="white" stroke="black" points="544.5,-252 544.5,-271 701.5,-271 701.5,-252 544.5,-252"/>
<text text-anchor="middle" x="623" y="-259" font-family="Helvetica,sans-Serif" font-size="10.00">pinhao/Support/YAMLWrapper.h</text>
</a>
</g>
</g>
<!-- Node0&#45;&gt;Node13 -->
<g id="edge25" class="edge"><title>Node0&#45;&gt;Node13</title>
<path fill="none" stroke="midnightblue" d="M462.25,-313.404C504.073,-300.16 553.389,-284.543 586.264,-274.133"/>
<polygon fill="midnightblue" stroke="midnightblue" points="587.435,-277.434 595.912,-271.078 585.322,-270.76 587.435,-277.434"/>
</g>
<!-- Node15 -->
<g id="node16" class="node"><title>Node15</title>
<polygon fill="white" stroke="#bfbfbf" points="740,-185 740,-204 792,-204 792,-185 740,-185"/>
<text text-anchor="middle" x="766" y="-192" font-family="Helvetica,sans-Serif" font-size="10.00">ostream</text>
</g>
<!-- Node0&#45;&gt;Node15 -->
<g id="edge29" class="edge"><title>Node0&#45;&gt;Node15</title>
<path fill="none" stroke="midnightblue" d="M465.018,-330.4C548.602,-320.879 671.415,-303.006 711,-277 734.473,-261.579 750.492,-232.316 758.943,-213.373"/>
<polygon fill="midnightblue" stroke="midnightblue" points="762.207,-214.639 762.858,-204.064 755.755,-211.925 762.207,-214.639"/>
</g>
<!-- Node2 -->
<g id="node3" class="node"><title>Node2</title>
<polygon fill="white" stroke="#bfbfbf" points="294.5,-0.5 294.5,-19.5 385.5,-19.5 385.5,-0.5 294.5,-0.5"/>
<text text-anchor="middle" x="340" y="-7.5" font-family="Helvetica,sans-Serif" font-size="10.00">llvm/IR/Module.h</text>
</g>
<!-- Node1&#45;&gt;Node2 -->
<g id="edge2" class="edge"><title>Node1&#45;&gt;Node2</title>
<path fill="none" stroke="midnightblue" d="M333.321,-56.083C334.381,-48.9272 335.906,-38.6353 337.231,-29.6911"/>
<polygon fill="midnightblue" stroke="midnightblue" points="340.7,-30.1561 338.704,-19.7511 333.776,-29.1302 340.7,-30.1561"/>
</g>
<!-- Node3 -->
<g id="node4" class="node"><title>Node3</title>
<polygon fill="white" stroke="#bfbfbf" points="179.5,-0.5 179.5,-19.5 276.5,-19.5 276.5,-0.5 179.5,-0.5"/>
<text text-anchor="middle" x="228" y="-7.5" font-family="Helvetica,sans-Serif" font-size="10.00">llvm/IR/Function.h</text>
</g>
<!-- Node1&#45;&gt;Node3 -->
<g id="edge3" class="edge"><title>Node1&#45;&gt;Node3</title>
<path fill="none" stroke="midnightblue" d="M315.291,-56.324C298.688,-47.7034 272.998,-34.3643 253.78,-24.3855"/>
<polygon fill="midnightblue" stroke="midnightblue" points="255.156,-21.1565 244.668,-19.6545 251.93,-27.3689 255.156,-21.1565"/>
</g>
<!-- Node4 -->
<g id="node5" class="node"><title>Node4</title>
<polygon fill="white" stroke="#bfbfbf" points="511.5,-0.5 511.5,-19.5 552.5,-19.5 552.5,-0.5 511.5,-0.5"/>
<text text-anchor="middle" x="532" y="-7.5" font-family="Helvetica,sans-Serif" font-size="10.00">string</text>
</g>
<!-- Node1&#45;&gt;Node4 -->
<g id="edge4" class="edge"><title>Node1&#45;&gt;Node4</title>
<path fill="none" stroke="midnightblue" d="M363.691,-56.4435C401.546,-46.2225 464.419,-29.2468 501.665,-19.1904"/>
<polygon fill="midnightblue" stroke="midnightblue" points="502.707,-22.5345 511.449,-16.5488 500.882,-15.7765 502.707,-22.5345"/>
</g>
<!-- Node5 -->
<g id="node6" class="node"><title>Node5</title>
<polygon fill="white" stroke="#bfbfbf" points="0,-0.5 0,-19.5 44,-19.5 44,-0.5 0,-0.5"/>
<text text-anchor="middle" x="22" y="-7.5" font-family="Helvetica,sans-Serif" font-size="10.00">vector</text>
</g>
<!-- Node1&#45;&gt;Node5 -->
<g id="edge5" class="edge"><title>Node1&#45;&gt;Node5</title>
<path fill="none" stroke="midnightblue" d="M282.88,-56.4435C218.857,-45.2913 108.671,-26.0975 54.2879,-16.6243"/>
<polygon fill="midnightblue" stroke="midnightblue" points="54.6379,-13.1327 44.1856,-14.8646 53.4366,-20.0288 54.6379,-13.1327"/>
</g>
<!-- Node6 -->
<g id="node7" class="node"><title>Node6</title>
<polygon fill="white" stroke="#bfbfbf" points="411.5,-0.5 411.5,-19.5 446.5,-19.5 446.5,-0.5 411.5,-0.5"/>
<text text-anchor="middle" x="429" y="-7.5" font-family="Helvetica,sans-Serif" font-size="10.00">map</text>
</g>
<!-- Node1&#45;&gt;Node6 -->
<g id="edge6" class="edge"><title>Node1&#45;&gt;Node6</title>
<path fill="none" stroke="midnightblue" d="M347.585,-56.324C362.999,-47.7428 386.812,-34.486 404.71,-24.5224"/>
<polygon fill="midnightblue" stroke="midnightblue" points="406.419,-27.5767 413.454,-19.6545 403.014,-21.4606 406.419,-27.5767"/>
</g>
<!-- Node7&#45;&gt;Node1 -->
<g id="edge8" class="edge"><title>Node7&#45;&gt;Node1</title>
<path fill="none" stroke="midnightblue" d="M332,-112.399C332,-104.466 332,-94.458 332,-85.8583"/>
<polygon fill="midnightblue" stroke="midnightblue" points="335.5,-85.6577 332,-75.6578 328.5,-85.6578 335.5,-85.6577"/>
</g>
<!-- Node8 -->
<g id="node9" class="node"><title>Node8</title>
<g id="a_node9"><a xlink:href="Types_8h.html" target="_top" xlink:title="pinhao/Support/Types.h">
<polygon fill="white" stroke="black" points="472,-56.5 472,-75.5 592,-75.5 592,-56.5 472,-56.5"/>
<text text-anchor="middle" x="532" y="-63.5" font-family="Helvetica,sans-Serif" font-size="10.00">pinhao/Support/Types.h</text>
</a>
</g>
</g>
<!-- Node7&#45;&gt;Node8 -->
<g id="edge9" class="edge"><title>Node7&#45;&gt;Node8</title>
<path fill="none" stroke="midnightblue" d="M379.144,-112.475C414.1,-102.075 461.148,-88.0783 493.774,-78.3722"/>
<polygon fill="midnightblue" stroke="midnightblue" points="494.82,-81.7126 503.407,-75.5064 492.824,-75.0032 494.82,-81.7126"/>
</g>
<!-- Node8&#45;&gt;Node4 -->
<g id="edge10" class="edge"><title>Node8&#45;&gt;Node4</title>
<path fill="none" stroke="midnightblue" d="M532,-56.083C532,-49.0059 532,-38.8611 532,-29.9865"/>
<polygon fill="midnightblue" stroke="midnightblue" points="535.5,-29.751 532,-19.7511 528.5,-29.7511 535.5,-29.751"/>
</g>
<!-- Node9&#45;&gt;Node1 -->
<g id="edge12" class="edge"><title>Node9&#45;&gt;Node1</title>
<path fill="none" stroke="midnightblue" d="M229.9,-179.352C230.479,-161.831 233.847,-131.871 249,-112 260.383,-97.0732 278.192,-86.4958 294.4,-79.3637"/>
<polygon fill="midnightblue" stroke="midnightblue" points="295.77,-82.5849 303.697,-75.5557 293.116,-76.1072 295.77,-82.5849"/>
</g>
<!-- Node9&#45;&gt;Node5 -->
<g id="edge15" class="edge"><title>Node9&#45;&gt;Node5</title>
<path fill="none" stroke="midnightblue" d="M155.969,-182.277C109.88,-173.73 56.5074,-160.457 41,-143 13.025,-111.508 15.2162,-58.1091 18.8259,-29.8461"/>
<polygon fill="midnightblue" stroke="midnightblue" points="22.3229,-30.1231 20.3235,-19.7186 15.3982,-29.099 22.3229,-30.1231"/>
</g>
<!-- Node9&#45;&gt;Node7 -->
<g id="edge13" class="edge"><title>Node9&#45;&gt;Node7</title>
<path fill="none" stroke="midnightblue" d="M252.132,-179.396C266.568,-170.197 285.604,-158.066 301.471,-147.955"/>
<polygon fill="midnightblue" stroke="midnightblue" points="303.358,-150.902 309.911,-142.577 299.597,-144.999 303.358,-150.902"/>
</g>
<!-- Node10 -->
<g id="node11" class="node"><title>Node10</title>
<polygon fill="white" stroke="#bfbfbf" points="50.5,-118 50.5,-137 201.5,-137 201.5,-118 50.5,-118"/>
<text text-anchor="middle" x="126" y="-125" font-family="Helvetica,sans-Serif" font-size="10.00">llvm/IR/LegacyPassManager.h</text>
</g>
<!-- Node9&#45;&gt;Node10 -->
<g id="edge14" class="edge"><title>Node9&#45;&gt;Node10</title>
<path fill="none" stroke="midnightblue" d="M207.434,-179.396C189.993,-168.496 165.966,-153.479 148.534,-142.584"/>
<polygon fill="midnightblue" stroke="midnightblue" points="149.946,-139.339 139.611,-137.007 146.236,-145.275 149.946,-139.339"/>
</g>
<!-- Node11 -->
<g id="node12" class="node"><title>Node11</title>
<polygon fill="white" stroke="#bfbfbf" points="538,-118 538,-137 592,-137 592,-118 538,-118"/>
<text text-anchor="middle" x="565" y="-125" font-family="Helvetica,sans-Serif" font-size="10.00">iostream</text>
</g>
<!-- Node9&#45;&gt;Node11 -->
<g id="edge16" class="edge"><title>Node9&#45;&gt;Node11</title>
<path fill="none" stroke="midnightblue" d="M302.278,-179.476C371.666,-166.013 473.701,-146.215 527.931,-135.693"/>
<polygon fill="midnightblue" stroke="midnightblue" points="528.648,-139.119 537.798,-133.778 527.315,-132.247 528.648,-139.119"/>
</g>
<!-- Node12&#45;&gt;Node1 -->
<g id="edge18" class="edge"><title>Node12&#45;&gt;Node1</title>
<path fill="none" stroke="midnightblue" d="M436.157,-246.346C439.675,-218.088 443.644,-153.813 415,-112 404.72,-96.9941 387.757,-86.5421 371.836,-79.5156"/>
<polygon fill="midnightblue" stroke="midnightblue" points="372.709,-76.0925 362.127,-75.5731 370.075,-82.5782 372.709,-76.0925"/>
</g>
<!-- Node12&#45;&gt;Node4 -->
<g id="edge22" class="edge"><title>Node12&#45;&gt;Node4</title>
<path fill="none" stroke="midnightblue" d="M471.83,-246.408C512.297,-229.031 574.259,-195.222 601,-143 618.623,-108.583 619.417,-89.9988 601,-56 592.674,-40.6299 576.57,-29.6786 562.012,-22.4303"/>
<polygon fill="midnightblue" stroke="midnightblue" points="563.315,-19.1776 552.767,-18.1927 560.399,-25.5411 563.315,-19.1776"/>
</g>
<!-- Node12&#45;&gt;Node5 -->
<g id="edge23" class="edge"><title>Node12&#45;&gt;Node5</title>
<path fill="none" stroke="midnightblue" d="M359.882,-253.861C300.977,-247.073 217.122,-234.004 147,-210 86.6219,-189.332 55.7557,-195.86 20,-143 -3.2496,-108.628 7.38751,-56.8492 15.6083,-29.4779"/>
<polygon fill="midnightblue" stroke="midnightblue" points="19.035,-30.2554 18.7736,-19.6638 12.3729,-28.1066 19.035,-30.2554"/>
</g>
<!-- Node12&#45;&gt;Node6 -->
<g id="edge24" class="edge"><title>Node12&#45;&gt;Node6</title>
<path fill="none" stroke="midnightblue" d="M440.553,-246.27C444.752,-236.343 449.812,-222.657 452,-210 463.388,-144.133 444.712,-64.9991 434.696,-29.6464"/>
<polygon fill="midnightblue" stroke="midnightblue" points="437.974,-28.3871 431.797,-19.779 431.257,-30.3601 437.974,-28.3871"/>
</g>
<!-- Node12&#45;&gt;Node7 -->
<g id="edge19" class="edge"><title>Node12&#45;&gt;Node7</title>
<path fill="none" stroke="midnightblue" d="M423.084,-246.374C405.369,-223.448 370.224,-177.966 349.146,-150.689"/>
<polygon fill="midnightblue" stroke="midnightblue" points="351.721,-148.298 342.837,-142.525 346.182,-152.578 351.721,-148.298"/>
</g>
<!-- Node12&#45;&gt;Node8 -->
<g id="edge21" class="edge"><title>Node12&#45;&gt;Node8</title>
<path fill="none" stroke="midnightblue" d="M452.614,-246.366C463.686,-237.098 477.238,-224.113 486,-210 511.027,-169.691 523.715,-114.451 528.961,-85.8614"/>
<polygon fill="midnightblue" stroke="midnightblue" points="532.468,-86.1201 530.719,-75.6707 525.57,-84.9302 532.468,-86.1201"/>
</g>
<!-- Node12&#45;&gt;Node9 -->
<g id="edge20" class="edge"><title>Node12&#45;&gt;Node9</title>
<path fill="none" stroke="midnightblue" d="M389.986,-246.476C358.857,-236.557 316.938,-223.201 283.819,-212.648"/>
<polygon fill="midnightblue" stroke="midnightblue" points="284.877,-209.312 274.287,-209.611 282.752,-215.982 284.877,-209.312"/>
</g>
<!-- Node13&#45;&gt;Node11 -->
<g id="edge27" class="edge"><title>Node13&#45;&gt;Node11</title>
<path fill="none" stroke="midnightblue" d="M619.194,-251.839C609.812,-230.486 585.422,-174.977 572.809,-146.271"/>
<polygon fill="midnightblue" stroke="midnightblue" points="575.971,-144.768 568.744,-137.021 569.563,-147.584 575.971,-144.768"/>
</g>
<!-- Node14 -->
<g id="node15" class="node"><title>Node14</title>
<polygon fill="white" stroke="#bfbfbf" points="632.5,-185 632.5,-204 721.5,-204 721.5,-185 632.5,-185"/>
<text text-anchor="middle" x="677" y="-192" font-family="Helvetica,sans-Serif" font-size="10.00">yaml&#45;cpp/yaml.h</text>
</g>
<!-- Node13&#45;&gt;Node14 -->
<g id="edge26" class="edge"><title>Node13&#45;&gt;Node14</title>
<path fill="none" stroke="midnightblue" d="M630.283,-251.734C638.703,-241.598 652.75,-224.69 663.246,-212.056"/>
<polygon fill="midnightblue" stroke="midnightblue" points="666.135,-214.056 669.833,-204.127 660.75,-209.583 666.135,-214.056"/>
</g>
<!-- Node13&#45;&gt;Node15 -->
<g id="edge28" class="edge"><title>Node13&#45;&gt;Node15</title>
<path fill="none" stroke="midnightblue" d="M641.989,-251.869C666.455,-240.748 709.203,-221.317 737.557,-208.429"/>
<polygon fill="midnightblue" stroke="midnightblue" points="739.277,-211.492 746.932,-204.167 736.38,-205.119 739.277,-211.492"/>
</g>
</g>
</svg>
        <g id="navigator" transform="translate(0 0)" fill="#404254">
                <rect fill="#f2f5e9" fill-opacity="0.5" stroke="#606060" stroke-width=".5" x="0" y="0" width="60" height="60"/>
                <use id="zoomplus" xlink:href="#zoomPlus" x="17" y="9" onmousedown="handleZoom(evt,'in')"/>
                <use id="zoomminus" xlink:href="#zoomMin" x="42" y="9" onmousedown="handleZoom(evt,'out')"/>
                <use id="reset" xlink:href="#resetDef" x="30" y="36" onmousedown="handleReset()"/>
                <g id="arrowUp" xlink:href="#dirArrow" transform="translate(30 24)" onmousedown="handlePan(0,-1)">
                  <use xlink:href="#rim" fill="#404040">
                        <set attributeName="fill" to="#808080" begin="arrowUp.mouseover" end="arrowUp.mouseout"/>
                  </use>
                  <path fill="none" stroke="white" stroke-width="1.5" d="M0,-3.0v7 M-2.5,-0.5L0,-3.0L2.5,-0.5"/>
                </g>
                <g id="arrowRight" xlink:href="#dirArrow" transform="rotate(90) translate(36 -43)" onmousedown="handlePan(1,0)">
                  <use xlink:href="#rim" fill="#404040">
                        <set attributeName="fill" to="#808080" begin="arrowRight.mouseover" end="arrowRight.mouseout"/>
                  </use>
                  <path fill="none" stroke="white" stroke-width="1.5" d="M0,-3.0v7 M-2.5,-0.5L0,-3.0L2.5,-0.5"/>
                </g>
                <g id="arrowDown" xlink:href="#dirArrow" transform="rotate(180) translate(-30 -48)" onmousedown="handlePan(0,1)">
                  <use xlink:href="#rim" fill="#404040">
                        <set attributeName="fill" to="#808080" begin="arrowDown.mouseover" end="arrowDown.mouseout"/>
                  </use>
                  <path fill="none" stroke="white" stroke-width="1.5" d="M0,-3.0v7 M-2.5,-0.5L0,-3.0L2.5,-0.5"/>
                </g>
                <g id="arrowLeft" xlink:href="#dirArrow" transform="rotate(270) translate(-36 17)" onmousedown="handlePan(-1,0)">
                  <use xlink:href="#rim" fill="#404040">
                        <set attributeName="fill" to="#808080" begin="arrowLeft.mouseover" end="arrowLeft.mouseout"/>
                  </use>
                  <path fill="none" stroke="white" stroke-width="1.5" d="M0,-3.0v7 M-2.5,-0.5L0,-3.0L2.5,-0.5"/>
                </g>
        </g>
        <svg viewBox="0 0 15 15" width="100%" height="30px" preserveAspectRatio="xMaxYMin meet">
         <g id="arrow_out" transform="scale(0.3 0.3)">
          <a xlink:href="OptimizationSequence_8cpp__incl_org.svg" target="_base">
           <rect id="button" ry="5" rx="5" y="6" x="6" height="38" width="38"
                fill="#f2f5e9" fill-opacity="0.5" stroke="#606060" stroke-width="1.0"/>
           <path id="arrow"
             d="M 11.500037,31.436501 C 11.940474,20.09759 22.043105,11.32322 32.158766,21.979434 L 37.068811,17.246167 C 37.068811,17.246167 37.088388,32 37.088388,32 L 22.160133,31.978069 C 22.160133,31.978069 26.997745,27.140456 26.997745,27.140456 C 18.528582,18.264221 13.291696,25.230495 11.500037,31.436501 z"
             style="fill:#404040;"/>
          </a>
         </g>
        </svg>
</svg>
