<?xml version="1.0" encoding="UTF-8" standalone="no"?>
<!DOCTYPE svg PUBLIC "-//W3C//DTD SVG 1.1//EN"
 "http://www.w3.org/Graphics/SVG/1.1/DTD/svg11.dtd">
<!-- Generated by graphviz version 2.38.0 (20140413.2041)
 -->
<!-- Title: /home/yukiosir/workspace/CompilerProject/Software/pinhao/lib/Optimizer/OptimizationSet.cpp Pages: 1 -->
<!--zoomable 374 -->
<svg id="main" version="1.1" xmlns="http://www.w3.org/2000/svg" xmlns:xlink="http://www.w3.org/1999/xlink" xml:space="preserve" onload="init(evt)">
<style type="text/css"><![CDATA[
.edge:hover path { stroke: red; }
.edge:hover polygon { stroke: red; fill: red; }
]]></style>
<script type="text/javascript"><![CDATA[
var edges = document.getElementsByTagName('g');
if (edges && edges.length) {
  for (var i=0;i<edges.length;i++) {
    if (edges[i].id.substr(0,4)=='edge') {
      edges[i].setAttribute('class','edge');
    }
  }
}
]]></script>
        <defs>
                <circle id="rim" cx="0" cy="0" r="7"/>
                <circle id="rim2" cx="0" cy="0" r="3.5"/>
                <g id="zoomPlus">
                        <use xlink:href="#rim" fill="#404040">
                                <set attributeName="fill" to="#808080" begin="zoomplus.mouseover" end="zoomplus.mouseout"/>
                        </use>
                        <path d="M-4,0h8M0,-4v8" fill="none" stroke="white" stroke-width="1.5" pointer-events="none"/>
                </g>
                <g id="zoomMin">
                        <use xlink:href="#rim" fill="#404040">
                                <set attributeName="fill" to="#808080" begin="zoomminus.mouseover" end="zoomminus.mouseout"/>
                        </use>
                        <path d="M-4,0h8" fill="none" stroke="white" stroke-width="1.5" pointer-events="none"/>
                </g>
                <g id="dirArrow">
                        <path fill="none" stroke="white" stroke-width="1.5" d="M0,-3.0v7 M-2.5,-0.5L0,-3.0L2.5,-0.5"/>
                </g>
               <g id="resetDef">
                       <use xlink:href="#rim2" fill="#404040">
                               <set attributeName="fill" to="#808080" begin="reset.mouseover" end="reset.mouseout"/>
                       </use>
               </g>
        </defs>

<script type="text/javascript">
var viewWidth = 712;
var viewHeight = 374;
var sectionId = 'dynsection-0';
</script>
<script xlink:href="svgpan.js"/>
<svg id="graph" class="graph">
<g id="viewport">
<title>/home/yukiosir/workspace/CompilerProject/Software/pinhao/lib/Optimizer/OptimizationSet.cpp</title>
<polygon fill="white" stroke="none" points="-4,4 -4,-370 708,-370 708,4 -4,4"/>
<!-- Node0 -->
<g id="node1" class="node"><title>Node0</title>
<polygon fill="#bfbfbf" stroke="black" points="538,-313.5 538,-365.5 702,-365.5 702,-313.5 538,-313.5"/>
<text text-anchor="start" x="546" y="-353.5" font-family="Helvetica,sans-Serif" font-size="10.00">/home/yukiosir/workspace</text>
<text text-anchor="start" x="546" y="-342.5" font-family="Helvetica,sans-Serif" font-size="10.00">/CompilerProject/Software</text>
<text text-anchor="start" x="546" y="-331.5" font-family="Helvetica,sans-Serif" font-size="10.00">/pinhao/lib/Optimizer/Optimization</text>
<text text-anchor="middle" x="620" y="-320.5" font-family="Helvetica,sans-Serif" font-size="10.00">Set.cpp</text>
</g>
<!-- Node1 -->
<g id="node2" class="node"><title>Node1</title>
<g id="a_node2"><a xlink:href="OptimizationSet_8h.html" target="_top" xlink:title="pinhao/Optimizer/Optimization\lSet.h">
<polygon fill="white" stroke="black" points="397,-246.5 397,-276.5 545,-276.5 545,-246.5 397,-246.5"/>
<text text-anchor="start" x="405" y="-264.5" font-family="Helvetica,sans-Serif" font-size="10.00">pinhao/Optimizer/Optimization</text>
<text text-anchor="middle" x="471" y="-253.5" font-family="Helvetica,sans-Serif" font-size="10.00">Set.h</text>
</a>
</g>
</g>
<!-- Node0&#45;&gt;Node1 -->
<g id="edge1" class="edge"><title>Node0&#45;&gt;Node1</title>
<path fill="none" stroke="midnightblue" d="M570.799,-313.404C550.256,-302.926 526.802,-290.963 507.794,-281.267"/>
<polygon fill="midnightblue" stroke="midnightblue" points="509.351,-278.133 498.852,-276.707 506.17,-284.368 509.351,-278.133"/>
</g>
<!-- Node8 -->
<g id="node9" class="node"><title>Node8</title>
<g id="a_node9"><a xlink:href="OptimizationInfo_8h.html" target="_top" xlink:title="pinhao/Optimizer/Optimization\lInfo.h">
<polygon fill="white" stroke="black" points="330,-112.5 330,-142.5 478,-142.5 478,-112.5 330,-112.5"/>
<text text-anchor="start" x="338" y="-130.5" font-family="Helvetica,sans-Serif" font-size="10.00">pinhao/Optimizer/Optimization</text>
<text text-anchor="middle" x="404" y="-119.5" font-family="Helvetica,sans-Serif" font-size="10.00">Info.h</text>
</a>
</g>
</g>
<!-- Node0&#45;&gt;Node8 -->
<g id="edge22" class="edge"><title>Node0&#45;&gt;Node8</title>
<path fill="none" stroke="midnightblue" d="M604.941,-313.472C592.573,-293.976 573.906,-266.817 554,-246 516.698,-206.99 466.014,-169.976 434.157,-148.26"/>
<polygon fill="midnightblue" stroke="midnightblue" points="435.945,-145.245 425.698,-142.552 432.029,-151.047 435.945,-145.245"/>
</g>
<!-- Node13 -->
<g id="node14" class="node"><title>Node13</title>
<polygon fill="white" stroke="#bfbfbf" points="648,-252 648,-271 704,-271 704,-252 648,-252"/>
<text text-anchor="middle" x="676" y="-259" font-family="Helvetica,sans-Serif" font-size="10.00">algorithm</text>
</g>
<!-- Node0&#45;&gt;Node13 -->
<g id="edge23" class="edge"><title>Node0&#45;&gt;Node13</title>
<path fill="none" stroke="midnightblue" d="M638.647,-313.193C646.832,-302.085 656.222,-289.342 663.539,-279.411"/>
<polygon fill="midnightblue" stroke="midnightblue" points="666.469,-281.336 669.583,-271.209 660.833,-277.183 666.469,-281.336"/>
</g>
<!-- Node2 -->
<g id="node3" class="node"><title>Node2</title>
<g id="a_node3"><a xlink:href="Optimizations_8h.html" target="_top" xlink:title="pinhao/Optimizer/Optimizations.h">
<polygon fill="white" stroke="black" points="172.5,-56.5 172.5,-75.5 333.5,-75.5 333.5,-56.5 172.5,-56.5"/>
<text text-anchor="middle" x="253" y="-63.5" font-family="Helvetica,sans-Serif" font-size="10.00">pinhao/Optimizer/Optimizations.h</text>
</a>
</g>
</g>
<!-- Node1&#45;&gt;Node2 -->
<g id="edge2" class="edge"><title>Node1&#45;&gt;Node2</title>
<path fill="none" stroke="midnightblue" d="M396.676,-259.731C299.686,-257.221 137.004,-247.371 92,-210 57.6572,-181.482 42.4604,-147.132 70,-112 82.8936,-95.5518 128.495,-84.3132 170.947,-77.181"/>
<polygon fill="midnightblue" stroke="midnightblue" points="171.764,-80.5944 181.078,-75.5442 170.648,-73.6841 171.764,-80.5944"/>
</g>
<!-- Node5 -->
<g id="node6" class="node"><title>Node5</title>
<polygon fill="white" stroke="#bfbfbf" points="409.5,-0.5 409.5,-19.5 450.5,-19.5 450.5,-0.5 409.5,-0.5"/>
<text text-anchor="middle" x="430" y="-7.5" font-family="Helvetica,sans-Serif" font-size="10.00">string</text>
</g>
<!-- Node1&#45;&gt;Node5 -->
<g id="edge19" class="edge"><title>Node1&#45;&gt;Node5</title>
<path fill="none" stroke="midnightblue" d="M484.74,-246.387C492.946,-236.934 502.603,-223.742 507,-210 527.885,-144.723 535.326,-114.118 499,-56 489.859,-41.3759 474.02,-30.5443 459.822,-23.1772"/>
<polygon fill="midnightblue" stroke="midnightblue" points="461.342,-20.0248 450.815,-18.8312 458.3,-26.3292 461.342,-20.0248"/>
</g>
<!-- Node6 -->
<g id="node7" class="node"><title>Node6</title>
<polygon fill="white" stroke="#bfbfbf" points="0,-0.5 0,-19.5 44,-19.5 44,-0.5 0,-0.5"/>
<text text-anchor="middle" x="22" y="-7.5" font-family="Helvetica,sans-Serif" font-size="10.00">vector</text>
</g>
<!-- Node1&#45;&gt;Node6 -->
<g id="edge20" class="edge"><title>Node1&#45;&gt;Node6</title>
<path fill="none" stroke="midnightblue" d="M396.677,-260.956C292.551,-260.028 110.529,-252.186 62,-210 9.11756,-164.029 14.253,-69.4162 19.1827,-29.4573"/>
<polygon fill="midnightblue" stroke="midnightblue" points="22.6541,-29.9047 20.55,-19.5209 15.7194,-28.9504 22.6541,-29.9047"/>
</g>
<!-- Node7 -->
<g id="node8" class="node"><title>Node7</title>
<polygon fill="white" stroke="#bfbfbf" points="516.5,-0.5 516.5,-19.5 551.5,-19.5 551.5,-0.5 516.5,-0.5"/>
<text text-anchor="middle" x="534" y="-7.5" font-family="Helvetica,sans-Serif" font-size="10.00">map</text>
</g>
<!-- Node1&#45;&gt;Node7 -->
<g id="edge21" class="edge"><title>Node1&#45;&gt;Node7</title>
<path fill="none" stroke="midnightblue" d="M492.23,-246.365C504.042,-237.363 517.944,-224.654 526,-210 558.454,-150.962 546.14,-66.5148 538.405,-29.5365"/>
<polygon fill="midnightblue" stroke="midnightblue" points="541.797,-28.6648 536.206,-19.6651 534.964,-30.187 541.797,-28.6648"/>
</g>
<!-- Node1&#45;&gt;Node8 -->
<g id="edge8" class="edge"><title>Node1&#45;&gt;Node8</title>
<path fill="none" stroke="midnightblue" d="M463.83,-246.374C452.345,-223.746 429.705,-179.143 415.807,-151.761"/>
<polygon fill="midnightblue" stroke="midnightblue" points="418.766,-149.858 411.119,-142.525 412.524,-153.026 418.766,-149.858"/>
</g>
<!-- Node9 -->
<g id="node10" class="node"><title>Node9</title>
<g id="a_node10"><a xlink:href="Types_8h.html" target="_top" xlink:title="pinhao/Support/Types.h">
<polygon fill="white" stroke="black" points="370,-56.5 370,-75.5 490,-75.5 490,-56.5 370,-56.5"/>
<text text-anchor="middle" x="430" y="-63.5" font-family="Helvetica,sans-Serif" font-size="10.00">pinhao/Support/Types.h</text>
</a>
</g>
</g>
<!-- Node1&#45;&gt;Node9 -->
<g id="edge18" class="edge"><title>Node1&#45;&gt;Node9</title>
<path fill="none" stroke="midnightblue" d="M477.395,-246.129C488.648,-218.57 508.825,-157.036 487,-112 480.603,-98.7996 468.248,-88.3032 456.671,-80.7794"/>
<polygon fill="midnightblue" stroke="midnightblue" points="458.454,-77.7678 448.082,-75.6099 454.845,-83.7653 458.454,-77.7678"/>
</g>
<!-- Node10 -->
<g id="node11" class="node"><title>Node10</title>
<g id="a_node11"><a xlink:href="OptimizationSequence_8h.html" target="_top" xlink:title="pinhao/Optimizer/Optimization\lSequence.h">
<polygon fill="white" stroke="black" points="101,-179.5 101,-209.5 249,-209.5 249,-179.5 101,-179.5"/>
<text text-anchor="start" x="109" y="-197.5" font-family="Helvetica,sans-Serif" font-size="10.00">pinhao/Optimizer/Optimization</text>
<text text-anchor="middle" x="175" y="-186.5" font-family="Helvetica,sans-Serif" font-size="10.00">Sequence.h</text>
</a>
</g>
</g>
<!-- Node1&#45;&gt;Node10 -->
<g id="edge12" class="edge"><title>Node1&#45;&gt;Node10</title>
<path fill="none" stroke="midnightblue" d="M407.137,-246.476C360.63,-236.263 297.524,-222.406 248.848,-211.717"/>
<polygon fill="midnightblue" stroke="midnightblue" points="249.522,-208.281 239.004,-209.555 248.02,-215.118 249.522,-208.281"/>
</g>
<!-- Node3 -->
<g id="node4" class="node"><title>Node3</title>
<polygon fill="white" stroke="#bfbfbf" points="254.5,-0.5 254.5,-19.5 345.5,-19.5 345.5,-0.5 254.5,-0.5"/>
<text text-anchor="middle" x="300" y="-7.5" font-family="Helvetica,sans-Serif" font-size="10.00">llvm/IR/Module.h</text>
</g>
<!-- Node2&#45;&gt;Node3 -->
<g id="edge3" class="edge"><title>Node2&#45;&gt;Node3</title>
<path fill="none" stroke="midnightblue" d="M260.761,-56.083C267.537,-48.2982 277.543,-36.8015 285.755,-27.3665"/>
<polygon fill="midnightblue" stroke="midnightblue" points="288.458,-29.592 292.383,-19.7511 283.178,-24.9963 288.458,-29.592"/>
</g>
<!-- Node4 -->
<g id="node5" class="node"><title>Node4</title>
<polygon fill="white" stroke="#bfbfbf" points="139.5,-0.5 139.5,-19.5 236.5,-19.5 236.5,-0.5 139.5,-0.5"/>
<text text-anchor="middle" x="188" y="-7.5" font-family="Helvetica,sans-Serif" font-size="10.00">llvm/IR/Function.h</text>
</g>
<!-- Node2&#45;&gt;Node4 -->
<g id="edge4" class="edge"><title>Node2&#45;&gt;Node4</title>
<path fill="none" stroke="midnightblue" d="M242.557,-56.324C232.854,-48.2631 218.185,-36.0765 206.5,-26.3695"/>
<polygon fill="midnightblue" stroke="midnightblue" points="208.562,-23.532 198.633,-19.8339 204.089,-28.9163 208.562,-23.532"/>
</g>
<!-- Node2&#45;&gt;Node5 -->
<g id="edge5" class="edge"><title>Node2&#45;&gt;Node5</title>
<path fill="none" stroke="midnightblue" d="M281.046,-56.4435C313.379,-46.5794 366.332,-30.424 399.62,-20.2685"/>
<polygon fill="midnightblue" stroke="midnightblue" points="400.731,-23.5888 409.275,-17.323 398.689,-16.8934 400.731,-23.5888"/>
</g>
<!-- Node2&#45;&gt;Node6 -->
<g id="edge6" class="edge"><title>Node2&#45;&gt;Node6</title>
<path fill="none" stroke="midnightblue" d="M216.397,-56.4435C171.619,-45.9759 96.5354,-28.4239 53.9757,-18.4748"/>
<polygon fill="midnightblue" stroke="midnightblue" points="54.681,-15.0454 44.1468,-16.1772 53.0875,-21.8617 54.681,-15.0454"/>
</g>
<!-- Node2&#45;&gt;Node7 -->
<g id="edge7" class="edge"><title>Node2&#45;&gt;Node7</title>
<path fill="none" stroke="midnightblue" d="M297.525,-56.4435C356.205,-45.167 457.668,-25.6689 506.361,-16.3114"/>
<polygon fill="midnightblue" stroke="midnightblue" points="507.03,-19.747 516.19,-14.4226 505.709,-12.8727 507.03,-19.747"/>
</g>
<!-- Node8&#45;&gt;Node2 -->
<g id="edge9" class="edge"><title>Node8&#45;&gt;Node2</title>
<path fill="none" stroke="midnightblue" d="M368.215,-112.399C342.767,-102.372 308.903,-89.028 284.482,-79.405"/>
<polygon fill="midnightblue" stroke="midnightblue" points="285.559,-76.0676 274.972,-75.6578 282.992,-82.5802 285.559,-76.0676"/>
</g>
<!-- Node8&#45;&gt;Node9 -->
<g id="edge10" class="edge"><title>Node8&#45;&gt;Node9</title>
<path fill="none" stroke="midnightblue" d="M410.162,-112.399C413.745,-104.199 418.297,-93.7809 422.137,-84.9936"/>
<polygon fill="midnightblue" stroke="midnightblue" points="425.42,-86.2226 426.217,-75.6578 419.005,-83.4197 425.42,-86.2226"/>
</g>
<!-- Node9&#45;&gt;Node5 -->
<g id="edge11" class="edge"><title>Node9&#45;&gt;Node5</title>
<path fill="none" stroke="midnightblue" d="M430,-56.083C430,-49.0059 430,-38.8611 430,-29.9865"/>
<polygon fill="midnightblue" stroke="midnightblue" points="433.5,-29.751 430,-19.7511 426.5,-29.7511 433.5,-29.751"/>
</g>
<!-- Node10&#45;&gt;Node2 -->
<g id="edge13" class="edge"><title>Node10&#45;&gt;Node2</title>
<path fill="none" stroke="midnightblue" d="M125.375,-179.404C107.552,-171.683 89.319,-160.088 79,-143 71.8778,-131.206 70.565,-122.894 79,-112 91.4414,-95.9316 136.271,-84.5646 177.308,-77.2747"/>
<polygon fill="midnightblue" stroke="midnightblue" points="178.095,-80.691 187.361,-75.5543 176.914,-73.7913 178.095,-80.691"/>
</g>
<!-- Node10&#45;&gt;Node6 -->
<g id="edge16" class="edge"><title>Node10&#45;&gt;Node6</title>
<path fill="none" stroke="midnightblue" d="M127.139,-179.484C107.201,-171.562 85.203,-159.797 70,-143 40.229,-110.108 28.5302,-57.299 24.2527,-29.4946"/>
<polygon fill="midnightblue" stroke="midnightblue" points="27.7138,-28.9712 22.8795,-19.5435 20.7795,-29.9281 27.7138,-28.9712"/>
</g>
<!-- Node10&#45;&gt;Node8 -->
<g id="edge14" class="edge"><title>Node10&#45;&gt;Node8</title>
<path fill="none" stroke="midnightblue" d="M224.408,-179.476C259.651,-169.472 307.216,-155.971 344.541,-145.377"/>
<polygon fill="midnightblue" stroke="midnightblue" points="345.622,-148.709 354.286,-142.611 343.71,-141.975 345.622,-148.709"/>
</g>
<!-- Node11 -->
<g id="node12" class="node"><title>Node11</title>
<polygon fill="white" stroke="#bfbfbf" points="160.5,-118 160.5,-137 311.5,-137 311.5,-118 160.5,-118"/>
<text text-anchor="middle" x="236" y="-125" font-family="Helvetica,sans-Serif" font-size="10.00">llvm/IR/LegacyPassManager.h</text>
</g>
<!-- Node10&#45;&gt;Node11 -->
<g id="edge15" class="edge"><title>Node10&#45;&gt;Node11</title>
<path fill="none" stroke="midnightblue" d="M188.236,-179.396C197.841,-169.161 210.853,-155.296 220.87,-144.622"/>
<polygon fill="midnightblue" stroke="midnightblue" points="223.55,-146.882 227.841,-137.195 218.445,-142.091 223.55,-146.882"/>
</g>
<!-- Node12 -->
<g id="node13" class="node"><title>Node12</title>
<polygon fill="white" stroke="#bfbfbf" points="88,-118 88,-137 142,-137 142,-118 88,-118"/>
<text text-anchor="middle" x="115" y="-125" font-family="Helvetica,sans-Serif" font-size="10.00">iostream</text>
</g>
<!-- Node10&#45;&gt;Node12 -->
<g id="edge17" class="edge"><title>Node10&#45;&gt;Node12</title>
<path fill="none" stroke="midnightblue" d="M161.981,-179.396C152.533,-169.161 139.735,-155.296 129.882,-144.622"/>
<polygon fill="midnightblue" stroke="midnightblue" points="132.38,-142.169 123.026,-137.195 127.237,-146.917 132.38,-142.169"/>
</g>
</g>
</svg>
        <g id="navigator" transform="translate(0 0)" fill="#404254">
                <rect fill="#f2f5e9" fill-opacity="0.5" stroke="#606060" stroke-width=".5" x="0" y="0" width="60" height="60"/>
                <use id="zoomplus" xlink:href="#zoomPlus" x="17" y="9" onmousedown="handleZoom(evt,'in')"/>
                <use id="zoomminus" xlink:href="#zoomMin" x="42" y="9" onmousedown="handleZoom(evt,'out')"/>
                <use id="reset" xlink:href="#resetDef" x="30" y="36" onmousedown="handleReset()"/>
                <g id="arrowUp" xlink:href="#dirArrow" transform="translate(30 24)" onmousedown="handlePan(0,-1)">
                  <use xlink:href="#rim" fill="#404040">
                        <set attributeName="fill" to="#808080" begin="arrowUp.mouseover" end="arrowUp.mouseout"/>
                  </use>
                  <path fill="none" stroke="white" stroke-width="1.5" d="M0,-3.0v7 M-2.5,-0.5L0,-3.0L2.5,-0.5"/>
                </g>
                <g id="arrowRight" xlink:href="#dirArrow" transform="rotate(90) translate(36 -43)" onmousedown="handlePan(1,0)">
                  <use xlink:href="#rim" fill="#404040">
                        <set attributeName="fill" to="#808080" begin="arrowRight.mouseover" end="arrowRight.mouseout"/>
                  </use>
                  <path fill="none" stroke="white" stroke-width="1.5" d="M0,-3.0v7 M-2.5,-0.5L0,-3.0L2.5,-0.5"/>
                </g>
                <g id="arrowDown" xlink:href="#dirArrow" transform="rotate(180) translate(-30 -48)" onmousedown="handlePan(0,1)">
                  <use xlink:href="#rim" fill="#404040">
                        <set attributeName="fill" to="#808080" begin="arrowDown.mouseover" end="arrowDown.mouseout"/>
                  </use>
                  <path fill="none" stroke="white" stroke-width="1.5" d="M0,-3.0v7 M-2.5,-0.5L0,-3.0L2.5,-0.5"/>
                </g>
                <g id="arrowLeft" xlink:href="#dirArrow" transform="rotate(270) translate(-36 17)" onmousedown="handlePan(-1,0)">
                  <use xlink:href="#rim" fill="#404040">
                        <set attributeName="fill" to="#808080" begin="arrowLeft.mouseover" end="arrowLeft.mouseout"/>
                  </use>
                  <path fill="none" stroke="white" stroke-width="1.5" d="M0,-3.0v7 M-2.5,-0.5L0,-3.0L2.5,-0.5"/>
                </g>
        </g>
        <svg viewBox="0 0 15 15" width="100%" height="30px" preserveAspectRatio="xMaxYMin meet">
         <g id="arrow_out" transform="scale(0.3 0.3)">
          <a xlink:href="OptimizationSet_8cpp__incl_org.svg" target="_base">
           <rect id="button" ry="5" rx="5" y="6" x="6" height="38" width="38"
                fill="#f2f5e9" fill-opacity="0.5" stroke="#606060" stroke-width="1.0"/>
           <path id="arrow"
             d="M 11.500037,31.436501 C 11.940474,20.09759 22.043105,11.32322 32.158766,21.979434 L 37.068811,17.246167 C 37.068811,17.246167 37.088388,32 37.088388,32 L 22.160133,31.978069 C 22.160133,31.978069 26.997745,27.140456 26.997745,27.140456 C 18.528582,18.264221 13.291696,25.230495 11.500037,31.436501 z"
             style="fill:#404040;"/>
          </a>
         </g>
        </svg>
</svg>
