<?xml version="1.0" encoding="UTF-8" standalone="no"?>
<!DOCTYPE svg PUBLIC "-//W3C//DTD SVG 1.1//EN"
 "http://www.w3.org/Graphics/SVG/1.1/DTD/svg11.dtd">
<!-- Generated by graphviz version 2.38.0 (20140413.2041)
 -->
<!-- Title: /home/yukiosir/workspace/CompilerProject/Software/pinhao/lib/Optimizer/Optimizations.cpp Pages: 1 -->
<!--zoomable 363 -->
<svg id="main" version="1.1" xmlns="http://www.w3.org/2000/svg" xmlns:xlink="http://www.w3.org/1999/xlink" xml:space="preserve" onload="init(evt)">
<style type="text/css"><![CDATA[
.edge:hover path { stroke: red; }
.edge:hover polygon { stroke: red; fill: red; }
]]></style>
<script type="text/javascript"><![CDATA[
var edges = document.getElementsByTagName('g');
if (edges && edges.length) {
  for (var i=0;i<edges.length;i++) {
    if (edges[i].id.substr(0,4)=='edge') {
      edges[i].setAttribute('class','edge');
    }
  }
}
]]></script>
        <defs>
                <circle id="rim" cx="0" cy="0" r="7"/>
                <circle id="rim2" cx="0" cy="0" r="3.5"/>
                <g id="zoomPlus">
                        <use xlink:href="#rim" fill="#404040">
                                <set attributeName="fill" to="#808080" begin="zoomplus.mouseover" end="zoomplus.mouseout"/>
                        </use>
                        <path d="M-4,0h8M0,-4v8" fill="none" stroke="white" stroke-width="1.5" pointer-events="none"/>
                </g>
                <g id="zoomMin">
                        <use xlink:href="#rim" fill="#404040">
                                <set attributeName="fill" to="#808080" begin="zoomminus.mouseover" end="zoomminus.mouseout"/>
                        </use>
                        <path d="M-4,0h8" fill="none" stroke="white" stroke-width="1.5" pointer-events="none"/>
                </g>
                <g id="dirArrow">
                        <path fill="none" stroke="white" stroke-width="1.5" d="M0,-3.0v7 M-2.5,-0.5L0,-3.0L2.5,-0.5"/>
                </g>
               <g id="resetDef">
                       <use xlink:href="#rim2" fill="#404040">
                               <set attributeName="fill" to="#808080" begin="reset.mouseover" end="reset.mouseout"/>
                       </use>
               </g>
        </defs>

<script type="text/javascript">
var viewWidth = 2327;
var viewHeight = 363;
var sectionId = 'dynsection-0';
</script>
<script xlink:href="svgpan.js"/>
<svg id="graph" class="graph">
<g id="viewport">
<title>/home/yukiosir/workspace/CompilerProject/Software/pinhao/lib/Optimizer/Optimizations.cpp</title>
<polygon fill="white" stroke="none" points="-4,4 -4,-359 2323,-359 2323,4 -4,4"/>
<!-- Node0 -->
<g id="node1" class="node"><title>Node0</title>
<polygon fill="#bfbfbf" stroke="black" points="1116,-313.5 1116,-354.5 1304,-354.5 1304,-313.5 1116,-313.5"/>
<text text-anchor="start" x="1124" y="-342.5" font-family="Helvetica,sans-Serif" font-size="10.00">/home/yukiosir/workspace</text>
<text text-anchor="start" x="1124" y="-331.5" font-family="Helvetica,sans-Serif" font-size="10.00">/CompilerProject/Software</text>
<text text-anchor="middle" x="1210" y="-320.5" font-family="Helvetica,sans-Serif" font-size="10.00">/pinhao/lib/Optimizer/Optimizations.cpp</text>
</g>
<!-- Node1 -->
<g id="node2" class="node"><title>Node1</title>
<g id="a_node2"><a xlink:href="Initialization_8h.html" target="_top" xlink:title="pinhao/Initialization.h">
<polygon fill="white" stroke="black" points="0,-185 0,-204 108,-204 108,-185 0,-185"/>
<text text-anchor="middle" x="54" y="-192" font-family="Helvetica,sans-Serif" font-size="10.00">pinhao/Initialization.h</text>
</a>
</g>
</g>
<!-- Node0&#45;&gt;Node1 -->
<g id="edge1" class="edge"><title>Node0&#45;&gt;Node1</title>
<path fill="none" stroke="midnightblue" d="M1115.91,-330.204C916.575,-323.786 457.448,-306.262 304,-277 222.116,-261.385 129.851,-226.581 83.6751,-207.906"/>
<polygon fill="midnightblue" stroke="midnightblue" points="84.8584,-204.609 74.2773,-204.07 82.2129,-211.09 84.8584,-204.609"/>
</g>
<!-- Node3 -->
<g id="node4" class="node"><title>Node3</title>
<g id="a_node4"><a xlink:href="Optimizations_8h.html" target="_top" xlink:title="pinhao/Optimizer/Optimizations.h">
<polygon fill="white" stroke="black" points="340.5,-56.5 340.5,-75.5 501.5,-75.5 501.5,-56.5 340.5,-56.5"/>
<text text-anchor="middle" x="421" y="-63.5" font-family="Helvetica,sans-Serif" font-size="10.00">pinhao/Optimizer/Optimizations.h</text>
</a>
</g>
</g>
<!-- Node0&#45;&gt;Node3 -->
<g id="edge3" class="edge"><title>Node0&#45;&gt;Node3</title>
<path fill="none" stroke="midnightblue" d="M1115.86,-328.061C979.429,-320.146 733.794,-302.836 649,-277 588.704,-258.628 571.417,-251.53 524,-210 501.585,-190.368 453.655,-117.831 432.01,-84.2576"/>
<polygon fill="midnightblue" stroke="midnightblue" points="434.765,-82.0691 426.419,-75.5425 428.873,-85.8491 434.765,-82.0691"/>
</g>
<!-- Node8 -->
<g id="node9" class="node"><title>Node8</title>
<g id="a_node9"><a xlink:href="OptimizationSet_8h.html" target="_top" xlink:title="pinhao/Optimizer/Optimization\lSet.h">
<polygon fill="white" stroke="black" points="313,-246.5 313,-276.5 461,-276.5 461,-246.5 313,-246.5"/>
<text text-anchor="start" x="321" y="-264.5" font-family="Helvetica,sans-Serif" font-size="10.00">pinhao/Optimizer/Optimization</text>
<text text-anchor="middle" x="387" y="-253.5" font-family="Helvetica,sans-Serif" font-size="10.00">Set.h</text>
</a>
</g>
</g>
<!-- Node0&#45;&gt;Node8 -->
<g id="edge9" class="edge"><title>Node0&#45;&gt;Node8</title>
<path fill="none" stroke="midnightblue" d="M1115.9,-327.502C978.392,-319.052 714.585,-301.271 491,-277 484.637,-276.309 478.063,-275.535 471.456,-274.714"/>
<polygon fill="midnightblue" stroke="midnightblue" points="471.434,-271.183 461.071,-273.389 470.548,-278.126 471.434,-271.183"/>
</g>
<!-- Node11 -->
<g id="node12" class="node"><title>Node11</title>
<g id="a_node12"><a xlink:href="OptimizationSequence_8h.html" target="_top" xlink:title="pinhao/Optimizer/Optimization\lSequence.h">
<polygon fill="white" stroke="black" points="533,-179.5 533,-209.5 681,-209.5 681,-179.5 533,-179.5"/>
<text text-anchor="start" x="541" y="-197.5" font-family="Helvetica,sans-Serif" font-size="10.00">pinhao/Optimizer/Optimization</text>
<text text-anchor="middle" x="607" y="-186.5" font-family="Helvetica,sans-Serif" font-size="10.00">Sequence.h</text>
</a>
</g>
</g>
<!-- Node0&#45;&gt;Node11 -->
<g id="edge25" class="edge"><title>Node0&#45;&gt;Node11</title>
<path fill="none" stroke="midnightblue" d="M1115.99,-329.818C988.365,-324.305 767.834,-310.2 695,-277 665.786,-263.683 639.841,-236.844 623.824,-217.601"/>
<polygon fill="midnightblue" stroke="midnightblue" points="626.391,-215.21 617.387,-209.626 620.944,-219.606 626.391,-215.21"/>
</g>
<!-- Node12 -->
<g id="node13" class="node"><title>Node12</title>
<polygon fill="white" stroke="#bfbfbf" points="634.5,-118 634.5,-137 785.5,-137 785.5,-118 634.5,-118"/>
<text text-anchor="middle" x="710" y="-125" font-family="Helvetica,sans-Serif" font-size="10.00">llvm/IR/LegacyPassManager.h</text>
</g>
<!-- Node0&#45;&gt;Node12 -->
<g id="edge35" class="edge"><title>Node0&#45;&gt;Node12</title>
<path fill="none" stroke="midnightblue" d="M1115.94,-333.489C997.769,-332.124 804.015,-322.698 751,-277 712.93,-244.184 708.659,-179.526 709.079,-147.458"/>
<polygon fill="midnightblue" stroke="midnightblue" points="712.585,-147.339 709.393,-137.237 705.588,-147.125 712.585,-147.339"/>
</g>
<!-- Node13 -->
<g id="node14" class="node"><title>Node13</title>
<polygon fill="white" stroke="#bfbfbf" points="804,-118 804,-137 858,-137 858,-118 804,-118"/>
<text text-anchor="middle" x="831" y="-125" font-family="Helvetica,sans-Serif" font-size="10.00">iostream</text>
</g>
<!-- Node0&#45;&gt;Node13 -->
<g id="edge36" class="edge"><title>Node0&#45;&gt;Node13</title>
<path fill="none" stroke="midnightblue" d="M1115.75,-327.66C992.285,-319.685 788.738,-302.786 766,-277 730.289,-236.502 784.612,-173.3 814.076,-144.17"/>
<polygon fill="midnightblue" stroke="midnightblue" points="816.521,-146.674 821.298,-137.217 811.666,-141.632 816.521,-146.674"/>
</g>
<!-- Node14 -->
<g id="node15" class="node"><title>Node14</title>
<polygon fill="white" stroke="#bfbfbf" points="775.5,-252 775.5,-271 894.5,-271 894.5,-252 775.5,-252"/>
<text text-anchor="middle" x="835" y="-259" font-family="Helvetica,sans-Serif" font-size="10.00">llvm/IR/LLVMContext.h</text>
</g>
<!-- Node0&#45;&gt;Node14 -->
<g id="edge26" class="edge"><title>Node0&#45;&gt;Node14</title>
<path fill="none" stroke="midnightblue" d="M1115.79,-316.416C1055.22,-305.591 974.879,-290.931 904,-277 897.773,-275.776 891.238,-274.453 884.776,-273.122"/>
<polygon fill="midnightblue" stroke="midnightblue" points="885.238,-269.643 874.735,-271.035 883.814,-276.497 885.238,-269.643"/>
</g>
<!-- Node15 -->
<g id="node16" class="node"><title>Node15</title>
<polygon fill="white" stroke="#bfbfbf" points="912.5,-252 912.5,-271 1045.5,-271 1045.5,-252 912.5,-252"/>
<text text-anchor="middle" x="979" y="-259" font-family="Helvetica,sans-Serif" font-size="10.00">llvm/IRReader/IRReader.h</text>
</g>
<!-- Node0&#45;&gt;Node15 -->
<g id="edge27" class="edge"><title>Node0&#45;&gt;Node15</title>
<path fill="none" stroke="midnightblue" d="M1145.96,-313.455C1104.4,-300.771 1051.66,-284.676 1016.7,-274.006"/>
<polygon fill="midnightblue" stroke="midnightblue" points="1017.48,-270.585 1006.89,-271.013 1015.44,-277.28 1017.48,-270.585"/>
</g>
<!-- Node16 -->
<g id="node17" class="node"><title>Node16</title>
<polygon fill="white" stroke="#bfbfbf" points="1064,-252 1064,-271 1204,-271 1204,-252 1064,-252"/>
<text text-anchor="middle" x="1134" y="-259" font-family="Helvetica,sans-Serif" font-size="10.00">llvm/Bitcode/ReaderWriter.h</text>
</g>
<!-- Node0&#45;&gt;Node16 -->
<g id="edge28" class="edge"><title>Node0&#45;&gt;Node16</title>
<path fill="none" stroke="midnightblue" d="M1188.83,-313.362C1176.81,-302.215 1161.98,-288.458 1150.78,-278.063"/>
<polygon fill="midnightblue" stroke="midnightblue" points="1153.06,-275.408 1143.35,-271.173 1148.3,-280.54 1153.06,-275.408"/>
</g>
<!-- Node17 -->
<g id="node18" class="node"><title>Node17</title>
<polygon fill="white" stroke="#bfbfbf" points="1222,-252 1222,-271 1352,-271 1352,-252 1222,-252"/>
<text text-anchor="middle" x="1287" y="-259" font-family="Helvetica,sans-Serif" font-size="10.00">llvm/Support/SourceMgr.h</text>
</g>
<!-- Node0&#45;&gt;Node17 -->
<g id="edge29" class="edge"><title>Node0&#45;&gt;Node17</title>
<path fill="none" stroke="midnightblue" d="M1231.45,-313.362C1243.62,-302.215 1258.65,-288.458 1270,-278.063"/>
<polygon fill="midnightblue" stroke="midnightblue" points="1272.51,-280.508 1277.53,-271.173 1267.79,-275.345 1272.51,-280.508"/>
</g>
<!-- Node18 -->
<g id="node19" class="node"><title>Node18</title>
<polygon fill="white" stroke="#bfbfbf" points="1370,-252 1370,-271 1502,-271 1502,-252 1370,-252"/>
<text text-anchor="middle" x="1436" y="-259" font-family="Helvetica,sans-Serif" font-size="10.00">llvm/Support/FileSystem.h</text>
</g>
<!-- Node0&#45;&gt;Node18 -->
<g id="edge30" class="edge"><title>Node0&#45;&gt;Node18</title>
<path fill="none" stroke="midnightblue" d="M1272.65,-313.455C1313.32,-300.771 1364.91,-284.676 1399.12,-274.006"/>
<polygon fill="midnightblue" stroke="midnightblue" points="1400.21,-277.332 1408.71,-271.013 1398.12,-270.65 1400.21,-277.332"/>
</g>
<!-- Node19 -->
<g id="node20" class="node"><title>Node19</title>
<polygon fill="white" stroke="#bfbfbf" points="1520.5,-252 1520.5,-271 1659.5,-271 1659.5,-252 1520.5,-252"/>
<text text-anchor="middle" x="1590" y="-259" font-family="Helvetica,sans-Serif" font-size="10.00">llvm/Support/raw_ostream.h</text>
</g>
<!-- Node0&#45;&gt;Node19 -->
<g id="edge31" class="edge"><title>Node0&#45;&gt;Node19</title>
<path fill="none" stroke="midnightblue" d="M1304.42,-315.482C1376.63,-302.086 1473.74,-284.07 1534.07,-272.877"/>
<polygon fill="midnightblue" stroke="midnightblue" points="1534.97,-276.27 1544.16,-271.005 1533.69,-269.388 1534.97,-276.27"/>
</g>
<!-- Node20 -->
<g id="node21" class="node"><title>Node20</title>
<polygon fill="white" stroke="#bfbfbf" points="1678,-252 1678,-271 1804,-271 1804,-252 1678,-252"/>
<text text-anchor="middle" x="1741" y="-259" font-family="Helvetica,sans-Serif" font-size="10.00">llvm/Transforms/Scalar.h</text>
</g>
<!-- Node0&#45;&gt;Node20 -->
<g id="edge32" class="edge"><title>Node0&#45;&gt;Node20</title>
<path fill="none" stroke="midnightblue" d="M1304.36,-323.644C1397.37,-313.915 1543.39,-297.28 1669,-277 1676.35,-275.813 1684.1,-274.413 1691.67,-272.959"/>
<polygon fill="midnightblue" stroke="midnightblue" points="1692.35,-276.392 1701.49,-271.029 1691,-269.524 1692.35,-276.392"/>
</g>
<!-- Node21 -->
<g id="node22" class="node"><title>Node21</title>
<polygon fill="white" stroke="#bfbfbf" points="1822,-252 1822,-271 1962,-271 1962,-252 1822,-252"/>
<text text-anchor="middle" x="1892" y="-259" font-family="Helvetica,sans-Serif" font-size="10.00">llvm/Transforms/Vectorize.h</text>
</g>
<!-- Node0&#45;&gt;Node21 -->
<g id="edge33" class="edge"><title>Node0&#45;&gt;Node21</title>
<path fill="none" stroke="midnightblue" d="M1304.04,-326.868C1422.93,-318.519 1633.73,-301.727 1813,-277 1821.63,-275.809 1830.76,-274.336 1839.62,-272.789"/>
<polygon fill="midnightblue" stroke="midnightblue" points="1840.25,-276.232 1849.47,-271.023 1839.01,-269.342 1840.25,-276.232"/>
</g>
<!-- Node22 -->
<g id="node23" class="node"><title>Node22</title>
<polygon fill="white" stroke="#bfbfbf" points="1980,-252 1980,-271 2096,-271 2096,-252 1980,-252"/>
<text text-anchor="middle" x="2038" y="-259" font-family="Helvetica,sans-Serif" font-size="10.00">llvm/Transforms/IPO.h</text>
</g>
<!-- Node0&#45;&gt;Node22 -->
<g id="edge34" class="edge"><title>Node0&#45;&gt;Node22</title>
<path fill="none" stroke="midnightblue" d="M1304.18,-330.298C1448.41,-325.209 1732.37,-311.431 1971,-277 1978.21,-275.96 1985.8,-274.589 1993.17,-273.104"/>
<polygon fill="midnightblue" stroke="midnightblue" points="1993.98,-276.511 2003.05,-271.03 1992.54,-269.661 1993.98,-276.511"/>
</g>
<!-- Node23 -->
<g id="node24" class="node"><title>Node23</title>
<polygon fill="white" stroke="#bfbfbf" points="2113.5,-252 2113.5,-271 2164.5,-271 2164.5,-252 2113.5,-252"/>
<text text-anchor="middle" x="2139" y="-259" font-family="Helvetica,sans-Serif" font-size="10.00">unistd.h</text>
</g>
<!-- Node0&#45;&gt;Node23 -->
<g id="edge37" class="edge"><title>Node0&#45;&gt;Node23</title>
<path fill="none" stroke="midnightblue" d="M1304.29,-331.146C1502.22,-326.594 1955.12,-312.536 2105,-277 2107.51,-276.404 2110.08,-275.637 2112.61,-274.768"/>
<polygon fill="midnightblue" stroke="midnightblue" points="2114.06,-277.96 2122.09,-271.051 2111.5,-271.444 2114.06,-277.96"/>
</g>
<!-- Node24 -->
<g id="node25" class="node"><title>Node24</title>
<polygon fill="white" stroke="#bfbfbf" points="2183,-252 2183,-271 2245,-271 2245,-252 2183,-252"/>
<text text-anchor="middle" x="2214" y="-259" font-family="Helvetica,sans-Serif" font-size="10.00">sys/wait.h</text>
</g>
<!-- Node0&#45;&gt;Node24 -->
<g id="edge38" class="edge"><title>Node0&#45;&gt;Node24</title>
<path fill="none" stroke="midnightblue" d="M1304.24,-330.992C1513.16,-325.978 2009.69,-310.802 2174,-277 2177.43,-276.294 2180.97,-275.352 2184.45,-274.285"/>
<polygon fill="midnightblue" stroke="midnightblue" points="2185.64,-277.576 2193.98,-271.042 2183.39,-270.948 2185.64,-277.576"/>
</g>
<!-- Node25 -->
<g id="node26" class="node"><title>Node25</title>
<polygon fill="white" stroke="#bfbfbf" points="2263,-252 2263,-271 2319,-271 2319,-252 2263,-252"/>
<text text-anchor="middle" x="2291" y="-259" font-family="Helvetica,sans-Serif" font-size="10.00">algorithm</text>
</g>
<!-- Node0&#45;&gt;Node25 -->
<g id="edge39" class="edge"><title>Node0&#45;&gt;Node25</title>
<path fill="none" stroke="midnightblue" d="M1304.2,-331.788C1525.69,-328.318 2074.39,-315.947 2254,-277 2257,-276.348 2260.08,-275.484 2263.12,-274.501"/>
<polygon fill="midnightblue" stroke="midnightblue" points="2264.34,-277.783 2272.54,-271.072 2261.94,-271.206 2264.34,-277.783"/>
</g>
<!-- Node2 -->
<g id="node3" class="node"><title>Node2</title>
<polygon fill="white" stroke="#bfbfbf" points="62.5,-0.5 62.5,-19.5 153.5,-19.5 153.5,-0.5 62.5,-0.5"/>
<text text-anchor="middle" x="108" y="-7.5" font-family="Helvetica,sans-Serif" font-size="10.00">llvm/IR/Module.h</text>
</g>
<!-- Node1&#45;&gt;Node2 -->
<g id="edge2" class="edge"><title>Node1&#45;&gt;Node2</title>
<path fill="none" stroke="midnightblue" d="M56.6045,-184.698C64.9265,-156.573 90.9988,-68.4576 102.479,-29.6575"/>
<polygon fill="midnightblue" stroke="midnightblue" points="105.94,-30.2962 105.422,-19.714 99.2281,-28.31 105.94,-30.2962"/>
</g>
<!-- Node3&#45;&gt;Node2 -->
<g id="edge4" class="edge"><title>Node3&#45;&gt;Node2</title>
<path fill="none" stroke="midnightblue" d="M371.404,-56.4435C314.779,-46.6743 222.386,-30.7343 163.431,-20.5633"/>
<polygon fill="midnightblue" stroke="midnightblue" points="163.998,-17.1094 153.549,-18.8583 162.808,-24.0075 163.998,-17.1094"/>
</g>
<!-- Node4 -->
<g id="node5" class="node"><title>Node4</title>
<polygon fill="white" stroke="#bfbfbf" points="372.5,-0.5 372.5,-19.5 469.5,-19.5 469.5,-0.5 372.5,-0.5"/>
<text text-anchor="middle" x="421" y="-7.5" font-family="Helvetica,sans-Serif" font-size="10.00">llvm/IR/Function.h</text>
</g>
<!-- Node3&#45;&gt;Node4 -->
<g id="edge5" class="edge"><title>Node3&#45;&gt;Node4</title>
<path fill="none" stroke="midnightblue" d="M421,-56.083C421,-49.0059 421,-38.8611 421,-29.9865"/>
<polygon fill="midnightblue" stroke="midnightblue" points="424.5,-29.751 421,-19.7511 417.5,-29.7511 424.5,-29.751"/>
</g>
<!-- Node5 -->
<g id="node6" class="node"><title>Node5</title>
<polygon fill="white" stroke="#bfbfbf" points="203.5,-0.5 203.5,-19.5 244.5,-19.5 244.5,-0.5 203.5,-0.5"/>
<text text-anchor="middle" x="224" y="-7.5" font-family="Helvetica,sans-Serif" font-size="10.00">string</text>
</g>
<!-- Node3&#45;&gt;Node5 -->
<g id="edge6" class="edge"><title>Node3&#45;&gt;Node5</title>
<path fill="none" stroke="midnightblue" d="M389.785,-56.4435C352.596,-46.2497 290.896,-29.3371 254.173,-19.2707"/>
<polygon fill="midnightblue" stroke="midnightblue" points="255.088,-15.8925 244.518,-16.6243 253.237,-22.6435 255.088,-15.8925"/>
</g>
<!-- Node6 -->
<g id="node7" class="node"><title>Node6</title>
<polygon fill="white" stroke="#bfbfbf" points="508,-0.5 508,-19.5 552,-19.5 552,-0.5 508,-0.5"/>
<text text-anchor="middle" x="530" y="-7.5" font-family="Helvetica,sans-Serif" font-size="10.00">vector</text>
</g>
<!-- Node3&#45;&gt;Node6 -->
<g id="edge7" class="edge"><title>Node3&#45;&gt;Node6</title>
<path fill="none" stroke="midnightblue" d="M438.513,-56.324C456.072,-47.6247 483.331,-34.1202 503.531,-24.113"/>
<polygon fill="midnightblue" stroke="midnightblue" points="505.124,-27.23 512.531,-19.6545 502.016,-20.9575 505.124,-27.23"/>
</g>
<!-- Node7 -->
<g id="node8" class="node"><title>Node7</title>
<polygon fill="white" stroke="#bfbfbf" points="306.5,-0.5 306.5,-19.5 341.5,-19.5 341.5,-0.5 306.5,-0.5"/>
<text text-anchor="middle" x="324" y="-7.5" font-family="Helvetica,sans-Serif" font-size="10.00">map</text>
</g>
<!-- Node3&#45;&gt;Node7 -->
<g id="edge8" class="edge"><title>Node3&#45;&gt;Node7</title>
<path fill="none" stroke="midnightblue" d="M405.415,-56.324C390.001,-47.7428 366.188,-34.486 348.29,-24.5224"/>
<polygon fill="midnightblue" stroke="midnightblue" points="349.986,-21.4606 339.546,-19.6545 346.581,-27.5767 349.986,-21.4606"/>
</g>
<!-- Node8&#45;&gt;Node3 -->
<g id="edge10" class="edge"><title>Node8&#45;&gt;Node3</title>
<path fill="none" stroke="midnightblue" d="M394.967,-246.231C406.502,-224.669 427.314,-182.137 435,-143 437.655,-129.48 437.07,-125.621 435,-112 433.632,-103.001 430.81,-93.3251 428.055,-85.2601"/>
<polygon fill="midnightblue" stroke="midnightblue" points="431.312,-83.9759 424.6,-75.7782 424.735,-86.3722 431.312,-83.9759"/>
</g>
<!-- Node8&#45;&gt;Node5 -->
<g id="edge22" class="edge"><title>Node8&#45;&gt;Node5</title>
<path fill="none" stroke="midnightblue" d="M312.686,-252.058C280.542,-245.173 244.339,-232.677 218,-210 161.96,-161.75 119.777,-121.023 155,-56 163.326,-40.6299 179.43,-29.6786 193.988,-22.4303"/>
<polygon fill="midnightblue" stroke="midnightblue" points="195.601,-25.5411 203.233,-18.1927 192.685,-19.1776 195.601,-25.5411"/>
</g>
<!-- Node8&#45;&gt;Node6 -->
<g id="edge23" class="edge"><title>Node8&#45;&gt;Node6</title>
<path fill="none" stroke="midnightblue" d="M401.581,-246.204C411.107,-236.469 423.496,-223.031 433,-210 473.477,-154.505 482.619,-138.994 510,-76 516.619,-60.7729 522.001,-42.6611 525.508,-29.4286"/>
<polygon fill="midnightblue" stroke="midnightblue" points="528.927,-30.1855 527.999,-19.6314 522.142,-28.4607 528.927,-30.1855"/>
</g>
<!-- Node8&#45;&gt;Node7 -->
<g id="edge24" class="edge"><title>Node8&#45;&gt;Node7</title>
<path fill="none" stroke="midnightblue" d="M364.376,-246.355C335.877,-227.042 288.3,-189.454 269,-143 263.714,-130.277 265.007,-125.187 269,-112 274.572,-93.5955 283.503,-92.7211 293,-76 301.769,-60.5591 310.35,-42.2439 316.253,-28.9966"/>
<polygon fill="midnightblue" stroke="midnightblue" points="319.557,-30.1749 320.364,-19.6108 313.146,-27.3661 319.557,-30.1749"/>
</g>
<!-- Node9 -->
<g id="node10" class="node"><title>Node9</title>
<g id="a_node10"><a xlink:href="OptimizationInfo_8h.html" target="_top" xlink:title="pinhao/Optimizer/Optimization\lInfo.h">
<polygon fill="white" stroke="black" points="278,-112.5 278,-142.5 426,-142.5 426,-112.5 278,-112.5"/>
<text text-anchor="start" x="286" y="-130.5" font-family="Helvetica,sans-Serif" font-size="10.00">pinhao/Optimizer/Optimization</text>
<text text-anchor="middle" x="352" y="-119.5" font-family="Helvetica,sans-Serif" font-size="10.00">Info.h</text>
</a>
</g>
</g>
<!-- Node8&#45;&gt;Node9 -->
<g id="edge11" class="edge"><title>Node8&#45;&gt;Node9</title>
<path fill="none" stroke="midnightblue" d="M383.254,-246.374C377.307,-223.945 365.635,-179.924 358.36,-152.486"/>
<polygon fill="midnightblue" stroke="midnightblue" points="361.665,-151.294 355.719,-142.525 354.899,-153.088 361.665,-151.294"/>
</g>
<!-- Node10 -->
<g id="node11" class="node"><title>Node10</title>
<g id="a_node11"><a xlink:href="Types_8h.html" target="_top" xlink:title="pinhao/Support/Types.h">
<polygon fill="white" stroke="black" points="164,-56.5 164,-75.5 284,-75.5 284,-56.5 164,-56.5"/>
<text text-anchor="middle" x="224" y="-63.5" font-family="Helvetica,sans-Serif" font-size="10.00">pinhao/Support/Types.h</text>
</a>
</g>
</g>
<!-- Node8&#45;&gt;Node10 -->
<g id="edge21" class="edge"><title>Node8&#45;&gt;Node10</title>
<path fill="none" stroke="midnightblue" d="M312.833,-253.013C284.475,-246.249 254.528,-233.585 236,-210 207.478,-173.693 213.962,-115.011 219.717,-85.3778"/>
<polygon fill="midnightblue" stroke="midnightblue" points="223.15,-86.0599 221.812,-75.5498 216.304,-84.6003 223.15,-86.0599"/>
</g>
<!-- Node8&#45;&gt;Node11 -->
<g id="edge15" class="edge"><title>Node8&#45;&gt;Node11</title>
<path fill="none" stroke="midnightblue" d="M434.466,-246.476C468.18,-236.515 513.631,-223.086 549.42,-212.512"/>
<polygon fill="midnightblue" stroke="midnightblue" points="550.642,-215.801 559.24,-209.611 548.658,-209.088 550.642,-215.801"/>
</g>
<!-- Node9&#45;&gt;Node3 -->
<g id="edge12" class="edge"><title>Node9&#45;&gt;Node3</title>
<path fill="none" stroke="midnightblue" d="M368.352,-112.399C378.895,-103.308 392.6,-91.4899 403.384,-82.1909"/>
<polygon fill="midnightblue" stroke="midnightblue" points="405.672,-84.8389 410.96,-75.6578 401.101,-79.5377 405.672,-84.8389"/>
</g>
<!-- Node9&#45;&gt;Node10 -->
<g id="edge13" class="edge"><title>Node9&#45;&gt;Node10</title>
<path fill="none" stroke="midnightblue" d="M321.666,-112.399C300.477,-102.55 272.406,-89.5014 251.798,-79.9217"/>
<polygon fill="midnightblue" stroke="midnightblue" points="253.169,-76.6993 242.625,-75.6578 250.218,-83.047 253.169,-76.6993"/>
</g>
<!-- Node10&#45;&gt;Node5 -->
<g id="edge14" class="edge"><title>Node10&#45;&gt;Node5</title>
<path fill="none" stroke="midnightblue" d="M224,-56.083C224,-49.0059 224,-38.8611 224,-29.9865"/>
<polygon fill="midnightblue" stroke="midnightblue" points="227.5,-29.751 224,-19.7511 220.5,-29.7511 227.5,-29.751"/>
</g>
<!-- Node11&#45;&gt;Node3 -->
<g id="edge16" class="edge"><title>Node11&#45;&gt;Node3</title>
<path fill="none" stroke="midnightblue" d="M591.29,-179.225C572.024,-162.106 537.978,-133.085 506,-112 487.705,-99.937 465.828,-88.4154 448.851,-80.0506"/>
<polygon fill="midnightblue" stroke="midnightblue" points="450.01,-76.723 439.485,-75.5101 446.956,-83.0219 450.01,-76.723"/>
</g>
<!-- Node11&#45;&gt;Node6 -->
<g id="edge19" class="edge"><title>Node11&#45;&gt;Node6</title>
<path fill="none" stroke="midnightblue" d="M601.086,-179.483C587.303,-146.817 553.057,-65.6469 537.684,-29.2113"/>
<polygon fill="midnightblue" stroke="midnightblue" points="540.833,-27.6716 533.721,-19.8187 534.383,-30.3928 540.833,-27.6716"/>
</g>
<!-- Node11&#45;&gt;Node9 -->
<g id="edge17" class="edge"><title>Node11&#45;&gt;Node9</title>
<path fill="none" stroke="midnightblue" d="M551.983,-179.476C512.403,-169.387 458.87,-155.741 417.151,-145.107"/>
<polygon fill="midnightblue" stroke="midnightblue" points="417.913,-141.689 407.358,-142.611 416.184,-148.473 417.913,-141.689"/>
</g>
<!-- Node11&#45;&gt;Node12 -->
<g id="edge18" class="edge"><title>Node11&#45;&gt;Node12</title>
<path fill="none" stroke="midnightblue" d="M629.349,-179.396C646.622,-168.496 670.418,-153.479 687.683,-142.584"/>
<polygon fill="midnightblue" stroke="midnightblue" points="689.931,-145.304 696.52,-137.007 686.195,-139.384 689.931,-145.304"/>
</g>
<!-- Node11&#45;&gt;Node13 -->
<g id="edge20" class="edge"><title>Node11&#45;&gt;Node13</title>
<path fill="none" stroke="midnightblue" d="M665.609,-179.432C702.711,-170.094 751.526,-157.011 794,-143 796.267,-142.252 798.596,-141.442 800.931,-140.599"/>
<polygon fill="midnightblue" stroke="midnightblue" points="802.277,-143.832 810.403,-137.034 799.811,-137.281 802.277,-143.832"/>
</g>
</g>
</svg>
        <g id="navigator" transform="translate(0 0)" fill="#404254">
                <rect fill="#f2f5e9" fill-opacity="0.5" stroke="#606060" stroke-width=".5" x="0" y="0" width="60" height="60"/>
                <use id="zoomplus" xlink:href="#zoomPlus" x="17" y="9" onmousedown="handleZoom(evt,'in')"/>
                <use id="zoomminus" xlink:href="#zoomMin" x="42" y="9" onmousedown="handleZoom(evt,'out')"/>
                <use id="reset" xlink:href="#resetDef" x="30" y="36" onmousedown="handleReset()"/>
                <g id="arrowUp" xlink:href="#dirArrow" transform="translate(30 24)" onmousedown="handlePan(0,-1)">
                  <use xlink:href="#rim" fill="#404040">
                        <set attributeName="fill" to="#808080" begin="arrowUp.mouseover" end="arrowUp.mouseout"/>
                  </use>
                  <path fill="none" stroke="white" stroke-width="1.5" d="M0,-3.0v7 M-2.5,-0.5L0,-3.0L2.5,-0.5"/>
                </g>
                <g id="arrowRight" xlink:href="#dirArrow" transform="rotate(90) translate(36 -43)" onmousedown="handlePan(1,0)">
                  <use xlink:href="#rim" fill="#404040">
                        <set attributeName="fill" to="#808080" begin="arrowRight.mouseover" end="arrowRight.mouseout"/>
                  </use>
                  <path fill="none" stroke="white" stroke-width="1.5" d="M0,-3.0v7 M-2.5,-0.5L0,-3.0L2.5,-0.5"/>
                </g>
                <g id="arrowDown" xlink:href="#dirArrow" transform="rotate(180) translate(-30 -48)" onmousedown="handlePan(0,1)">
                  <use xlink:href="#rim" fill="#404040">
                        <set attributeName="fill" to="#808080" begin="arrowDown.mouseover" end="arrowDown.mouseout"/>
                  </use>
                  <path fill="none" stroke="white" stroke-width="1.5" d="M0,-3.0v7 M-2.5,-0.5L0,-3.0L2.5,-0.5"/>
                </g>
                <g id="arrowLeft" xlink:href="#dirArrow" transform="rotate(270) translate(-36 17)" onmousedown="handlePan(-1,0)">
                  <use xlink:href="#rim" fill="#404040">
                        <set attributeName="fill" to="#808080" begin="arrowLeft.mouseover" end="arrowLeft.mouseout"/>
                  </use>
                  <path fill="none" stroke="white" stroke-width="1.5" d="M0,-3.0v7 M-2.5,-0.5L0,-3.0L2.5,-0.5"/>
                </g>
        </g>
        <svg viewBox="0 0 15 15" width="100%" height="30px" preserveAspectRatio="xMaxYMin meet">
         <g id="arrow_out" transform="scale(0.3 0.3)">
          <a xlink:href="Optimizations_8cpp__incl_org.svg" target="_base">
           <rect id="button" ry="5" rx="5" y="6" x="6" height="38" width="38"
                fill="#f2f5e9" fill-opacity="0.5" stroke="#606060" stroke-width="1.0"/>
           <path id="arrow"
             d="M 11.500037,31.436501 C 11.940474,20.09759 22.043105,11.32322 32.158766,21.979434 L 37.068811,17.246167 C 37.068811,17.246167 37.088388,32 37.088388,32 L 22.160133,31.978069 C 22.160133,31.978069 26.997745,27.140456 26.997745,27.140456 C 18.528582,18.264221 13.291696,25.230495 11.500037,31.436501 z"
             style="fill:#404040;"/>
          </a>
         </g>
        </svg>
</svg>
