<?xml version="1.0" encoding="UTF-8" standalone="no"?>
<!DOCTYPE svg PUBLIC "-//W3C//DTD SVG 1.1//EN"
 "http://www.w3.org/Graphics/SVG/1.1/DTD/svg11.dtd">
<!-- Generated by graphviz version 2.38.0 (20140413.2041)
 -->
<!-- Title: /home/yukiosir/workspace/CompilerProject/Software/pinhao/lib/Support/YAMLWrapper/OptimizerYAMLWrapper.cpp Pages: 1 -->
<!--zoomable 307 -->
<svg id="main" version="1.1" xmlns="http://www.w3.org/2000/svg" xmlns:xlink="http://www.w3.org/1999/xlink" xml:space="preserve" onload="init(evt)">
<style type="text/css"><![CDATA[
.edge:hover path { stroke: red; }
.edge:hover polygon { stroke: red; fill: red; }
]]></style>
<script type="text/javascript"><![CDATA[
var edges = document.getElementsByTagName('g');
if (edges && edges.length) {
  for (var i=0;i<edges.length;i++) {
    if (edges[i].id.substr(0,4)=='edge') {
      edges[i].setAttribute('class','edge');
    }
  }
}
]]></script>
        <defs>
                <circle id="rim" cx="0" cy="0" r="7"/>
                <circle id="rim2" cx="0" cy="0" r="3.5"/>
                <g id="zoomPlus">
                        <use xlink:href="#rim" fill="#404040">
                                <set attributeName="fill" to="#808080" begin="zoomplus.mouseover" end="zoomplus.mouseout"/>
                        </use>
                        <path d="M-4,0h8M0,-4v8" fill="none" stroke="white" stroke-width="1.5" pointer-events="none"/>
                </g>
                <g id="zoomMin">
                        <use xlink:href="#rim" fill="#404040">
                                <set attributeName="fill" to="#808080" begin="zoomminus.mouseover" end="zoomminus.mouseout"/>
                        </use>
                        <path d="M-4,0h8" fill="none" stroke="white" stroke-width="1.5" pointer-events="none"/>
                </g>
                <g id="dirArrow">
                        <path fill="none" stroke="white" stroke-width="1.5" d="M0,-3.0v7 M-2.5,-0.5L0,-3.0L2.5,-0.5"/>
                </g>
               <g id="resetDef">
                       <use xlink:href="#rim2" fill="#404040">
                               <set attributeName="fill" to="#808080" begin="reset.mouseover" end="reset.mouseout"/>
                       </use>
               </g>
        </defs>

<script type="text/javascript">
var viewWidth = 720;
var viewHeight = 307;
var sectionId = 'dynsection-0';
</script>
<script xlink:href="svgpan.js"/>
<svg id="graph" class="graph">
<g id="viewport">
<title>/home/yukiosir/workspace/CompilerProject/Software/pinhao/lib/Support/YAMLWrapper/OptimizerYAMLWrapper.cpp</title>
<polygon fill="white" stroke="none" points="-4,4 -4,-303 715.5,-303 715.5,4 -4,4"/>
<!-- Node0 -->
<g id="node1" class="node"><title>Node0</title>
<polygon fill="#bfbfbf" stroke="black" points="216.5,-246.5 216.5,-298.5 380.5,-298.5 380.5,-246.5 216.5,-246.5"/>
<text text-anchor="start" x="224.5" y="-286.5" font-family="Helvetica,sans-Serif" font-size="10.00">/home/yukiosir/workspace</text>
<text text-anchor="start" x="224.5" y="-275.5" font-family="Helvetica,sans-Serif" font-size="10.00">/CompilerProject/Software</text>
<text text-anchor="start" x="224.5" y="-264.5" font-family="Helvetica,sans-Serif" font-size="10.00">/pinhao/lib/Support/YAMLWrapper</text>
<text text-anchor="middle" x="298.5" y="-253.5" font-family="Helvetica,sans-Serif" font-size="10.00">/OptimizerYAMLWrapper.cpp</text>
</g>
<!-- Node1 -->
<g id="node2" class="node"><title>Node1</title>
<g id="a_node2"><a xlink:href="YAMLWrapper_8h.html" target="_top" xlink:title="pinhao/Support/YAMLWrapper.h">
<polygon fill="white" stroke="black" points="167,-185 167,-204 324,-204 324,-185 167,-185"/>
<text text-anchor="middle" x="245.5" y="-192" font-family="Helvetica,sans-Serif" font-size="10.00">pinhao/Support/YAMLWrapper.h</text>
</a>
</g>
</g>
<!-- Node0&#45;&gt;Node1 -->
<g id="edge1" class="edge"><title>Node0&#45;&gt;Node1</title>
<path fill="none" stroke="midnightblue" d="M280.852,-246.193C273.184,-235.198 264.4,-222.602 257.506,-212.716"/>
<polygon fill="midnightblue" stroke="midnightblue" points="260.164,-210.409 251.573,-204.209 254.423,-214.413 260.164,-210.409"/>
</g>
<!-- Node5 -->
<g id="node6" class="node"><title>Node5</title>
<g id="a_node6"><a xlink:href="YamlOptions_8h.html" target="_top" xlink:title="pinhao/Support/YamlOptions.h">
<polygon fill="white" stroke="black" points="0,-185 0,-204 149,-204 149,-185 0,-185"/>
<text text-anchor="middle" x="74.5" y="-192" font-family="Helvetica,sans-Serif" font-size="10.00">pinhao/Support/YamlOptions.h</text>
</a>
</g>
</g>
<!-- Node0&#45;&gt;Node5 -->
<g id="edge5" class="edge"><title>Node0&#45;&gt;Node5</title>
<path fill="none" stroke="midnightblue" d="M224.533,-246.404C185.835,-233.274 140.263,-217.812 109.584,-207.404"/>
<polygon fill="midnightblue" stroke="midnightblue" points="110.377,-203.977 99.7823,-204.078 108.127,-210.605 110.377,-203.977"/>
</g>
<!-- Node6 -->
<g id="node7" class="node"><title>Node6</title>
<g id="a_node7"><a xlink:href="OptimizationInfo_8h.html" target="_top" xlink:title="pinhao/Optimizer/Optimization\lInfo.h">
<polygon fill="white" stroke="black" points="287.5,-112.5 287.5,-142.5 435.5,-142.5 435.5,-112.5 287.5,-112.5"/>
<text text-anchor="start" x="295.5" y="-130.5" font-family="Helvetica,sans-Serif" font-size="10.00">pinhao/Optimizer/Optimization</text>
<text text-anchor="middle" x="361.5" y="-119.5" font-family="Helvetica,sans-Serif" font-size="10.00">Info.h</text>
</a>
</g>
</g>
<!-- Node0&#45;&gt;Node6 -->
<g id="edge7" class="edge"><title>Node0&#45;&gt;Node6</title>
<path fill="none" stroke="midnightblue" d="M313.682,-246.245C319.933,-235.31 326.986,-222.235 332.5,-210 341.004,-191.131 348.757,-168.959 354.102,-152.508"/>
<polygon fill="midnightblue" stroke="midnightblue" points="357.553,-153.207 357.251,-142.616 350.882,-151.083 357.553,-153.207"/>
</g>
<!-- Node14 -->
<g id="node15" class="node"><title>Node14</title>
<g id="a_node15"><a xlink:href="OptimizationSequence_8h.html" target="_top" xlink:title="pinhao/Optimizer/Optimization\lSequence.h">
<polygon fill="white" stroke="black" points="413.5,-179.5 413.5,-209.5 561.5,-209.5 561.5,-179.5 413.5,-179.5"/>
<text text-anchor="start" x="421.5" y="-197.5" font-family="Helvetica,sans-Serif" font-size="10.00">pinhao/Optimizer/Optimization</text>
<text text-anchor="middle" x="487.5" y="-186.5" font-family="Helvetica,sans-Serif" font-size="10.00">Sequence.h</text>
</a>
</g>
</g>
<!-- Node0&#45;&gt;Node14 -->
<g id="edge16" class="edge"><title>Node0&#45;&gt;Node14</title>
<path fill="none" stroke="midnightblue" d="M360.909,-246.404C387.772,-235.602 418.561,-223.221 443.048,-213.375"/>
<polygon fill="midnightblue" stroke="midnightblue" points="444.471,-216.575 452.443,-209.597 441.859,-210.081 444.471,-216.575"/>
</g>
<!-- Node2 -->
<g id="node3" class="node"><title>Node2</title>
<polygon fill="white" stroke="#bfbfbf" points="35,-118 35,-137 124,-137 124,-118 35,-118"/>
<text text-anchor="middle" x="79.5" y="-125" font-family="Helvetica,sans-Serif" font-size="10.00">yaml&#45;cpp/yaml.h</text>
</g>
<!-- Node1&#45;&gt;Node2 -->
<g id="edge2" class="edge"><title>Node1&#45;&gt;Node2</title>
<path fill="none" stroke="midnightblue" d="M223.456,-184.869C194.603,-173.571 143.847,-153.696 110.959,-140.818"/>
<polygon fill="midnightblue" stroke="midnightblue" points="111.958,-137.451 101.37,-137.064 109.406,-143.969 111.958,-137.451"/>
</g>
<!-- Node3 -->
<g id="node4" class="node"><title>Node3</title>
<polygon fill="white" stroke="#bfbfbf" points="215.5,-118 215.5,-137 269.5,-137 269.5,-118 215.5,-118"/>
<text text-anchor="middle" x="242.5" y="-125" font-family="Helvetica,sans-Serif" font-size="10.00">iostream</text>
</g>
<!-- Node1&#45;&gt;Node3 -->
<g id="edge3" class="edge"><title>Node1&#45;&gt;Node3</title>
<path fill="none" stroke="midnightblue" d="M245.095,-184.734C244.655,-175.183 243.936,-159.618 243.367,-147.283"/>
<polygon fill="midnightblue" stroke="midnightblue" points="246.856,-146.955 242.898,-137.127 239.863,-147.278 246.856,-146.955"/>
</g>
<!-- Node4 -->
<g id="node5" class="node"><title>Node4</title>
<polygon fill="white" stroke="#bfbfbf" points="145.5,-118 145.5,-137 197.5,-137 197.5,-118 145.5,-118"/>
<text text-anchor="middle" x="171.5" y="-125" font-family="Helvetica,sans-Serif" font-size="10.00">ostream</text>
</g>
<!-- Node1&#45;&gt;Node4 -->
<g id="edge4" class="edge"><title>Node1&#45;&gt;Node4</title>
<path fill="none" stroke="midnightblue" d="M235.52,-184.734C223.648,-174.305 203.615,-156.709 189.116,-143.973"/>
<polygon fill="midnightblue" stroke="midnightblue" points="191.145,-141.097 181.322,-137.127 186.525,-146.356 191.145,-141.097"/>
</g>
<!-- Node5&#45;&gt;Node2 -->
<g id="edge6" class="edge"><title>Node5&#45;&gt;Node2</title>
<path fill="none" stroke="midnightblue" d="M75.1743,-184.734C75.909,-175.183 77.1063,-159.618 78.0552,-147.283"/>
<polygon fill="midnightblue" stroke="midnightblue" points="81.559,-147.366 78.8364,-137.127 74.5796,-146.829 81.559,-147.366"/>
</g>
<!-- Node7 -->
<g id="node8" class="node"><title>Node7</title>
<g id="a_node8"><a xlink:href="Optimizations_8h.html" target="_top" xlink:title="pinhao/Optimizer/Optimizations.h">
<polygon fill="white" stroke="black" points="467,-56.5 467,-75.5 628,-75.5 628,-56.5 467,-56.5"/>
<text text-anchor="middle" x="547.5" y="-63.5" font-family="Helvetica,sans-Serif" font-size="10.00">pinhao/Optimizer/Optimizations.h</text>
</a>
</g>
</g>
<!-- Node6&#45;&gt;Node7 -->
<g id="edge8" class="edge"><title>Node6&#45;&gt;Node7</title>
<path fill="none" stroke="midnightblue" d="M405.579,-112.399C437.719,-102.118 480.757,-88.3506 510.982,-78.6818"/>
<polygon fill="midnightblue" stroke="midnightblue" points="512.249,-81.9514 520.707,-75.5709 510.116,-75.2842 512.249,-81.9514"/>
</g>
<!-- Node13 -->
<g id="node14" class="node"><title>Node13</title>
<g id="a_node14"><a xlink:href="Types_8h.html" target="_top" xlink:title="pinhao/Support/Types.h">
<polygon fill="white" stroke="black" points="294.5,-56.5 294.5,-75.5 414.5,-75.5 414.5,-56.5 294.5,-56.5"/>
<text text-anchor="middle" x="354.5" y="-63.5" font-family="Helvetica,sans-Serif" font-size="10.00">pinhao/Support/Types.h</text>
</a>
</g>
</g>
<!-- Node6&#45;&gt;Node13 -->
<g id="edge14" class="edge"><title>Node6&#45;&gt;Node13</title>
<path fill="none" stroke="midnightblue" d="M359.841,-112.399C358.908,-104.466 357.73,-94.458 356.719,-85.8583"/>
<polygon fill="midnightblue" stroke="midnightblue" points="360.163,-85.1803 355.519,-75.6578 353.211,-85.9983 360.163,-85.1803"/>
</g>
<!-- Node8 -->
<g id="node9" class="node"><title>Node8</title>
<polygon fill="white" stroke="#bfbfbf" points="390,-0.5 390,-19.5 481,-19.5 481,-0.5 390,-0.5"/>
<text text-anchor="middle" x="435.5" y="-7.5" font-family="Helvetica,sans-Serif" font-size="10.00">llvm/IR/Module.h</text>
</g>
<!-- Node7&#45;&gt;Node8 -->
<g id="edge9" class="edge"><title>Node7&#45;&gt;Node8</title>
<path fill="none" stroke="midnightblue" d="M529.505,-56.324C511.462,-47.6247 483.453,-34.1202 462.697,-24.113"/>
<polygon fill="midnightblue" stroke="midnightblue" points="463.978,-20.8449 453.45,-19.6545 460.938,-27.1502 463.978,-20.8449"/>
</g>
<!-- Node9 -->
<g id="node10" class="node"><title>Node9</title>
<polygon fill="white" stroke="#bfbfbf" points="499,-0.5 499,-19.5 596,-19.5 596,-0.5 499,-0.5"/>
<text text-anchor="middle" x="547.5" y="-7.5" font-family="Helvetica,sans-Serif" font-size="10.00">llvm/IR/Function.h</text>
</g>
<!-- Node7&#45;&gt;Node9 -->
<g id="edge10" class="edge"><title>Node7&#45;&gt;Node9</title>
<path fill="none" stroke="midnightblue" d="M547.5,-56.083C547.5,-49.0059 547.5,-38.8611 547.5,-29.9865"/>
<polygon fill="midnightblue" stroke="midnightblue" points="551,-29.751 547.5,-19.7511 544,-29.7511 551,-29.751"/>
</g>
<!-- Node10 -->
<g id="node11" class="node"><title>Node10</title>
<polygon fill="white" stroke="#bfbfbf" points="331,-0.5 331,-19.5 372,-19.5 372,-0.5 331,-0.5"/>
<text text-anchor="middle" x="351.5" y="-7.5" font-family="Helvetica,sans-Serif" font-size="10.00">string</text>
</g>
<!-- Node7&#45;&gt;Node10 -->
<g id="edge11" class="edge"><title>Node7&#45;&gt;Node10</title>
<path fill="none" stroke="midnightblue" d="M514.444,-56.4855C482.657,-48.2114 433.035,-35.069 381.673,-20.2695"/>
<polygon fill="midnightblue" stroke="midnightblue" points="382.645,-16.9073 372.066,-17.4876 380.698,-23.631 382.645,-16.9073"/>
</g>
<!-- Node11 -->
<g id="node12" class="node"><title>Node11</title>
<polygon fill="white" stroke="#bfbfbf" points="667.5,-0.5 667.5,-19.5 711.5,-19.5 711.5,-0.5 667.5,-0.5"/>
<text text-anchor="middle" x="689.5" y="-7.5" font-family="Helvetica,sans-Serif" font-size="10.00">vector</text>
</g>
<!-- Node7&#45;&gt;Node11 -->
<g id="edge12" class="edge"><title>Node7&#45;&gt;Node11</title>
<path fill="none" stroke="midnightblue" d="M570,-56.4435C593.577,-47.4776 630.822,-33.314 657.464,-23.1827"/>
<polygon fill="midnightblue" stroke="midnightblue" points="659.002,-26.3424 667.105,-19.5164 656.514,-19.7995 659.002,-26.3424"/>
</g>
<!-- Node12 -->
<g id="node13" class="node"><title>Node12</title>
<polygon fill="white" stroke="#bfbfbf" points="614,-0.5 614,-19.5 649,-19.5 649,-0.5 614,-0.5"/>
<text text-anchor="middle" x="631.5" y="-7.5" font-family="Helvetica,sans-Serif" font-size="10.00">map</text>
</g>
<!-- Node7&#45;&gt;Node12 -->
<g id="edge13" class="edge"><title>Node7&#45;&gt;Node12</title>
<path fill="none" stroke="midnightblue" d="M560.996,-56.324C574.1,-47.9002 594.212,-34.9709 609.607,-25.0741"/>
<polygon fill="midnightblue" stroke="midnightblue" points="611.518,-28.0063 618.037,-19.6545 607.733,-22.118 611.518,-28.0063"/>
</g>
<!-- Node13&#45;&gt;Node10 -->
<g id="edge15" class="edge"><title>Node13&#45;&gt;Node10</title>
<path fill="none" stroke="midnightblue" d="M354.005,-56.083C353.611,-49.0059 353.048,-38.8611 352.555,-29.9865"/>
<polygon fill="midnightblue" stroke="midnightblue" points="356.036,-29.5415 351.986,-19.7511 349.046,-29.9299 356.036,-29.5415"/>
</g>
<!-- Node14&#45;&gt;Node3 -->
<g id="edge21" class="edge"><title>Node14&#45;&gt;Node3</title>
<path fill="none" stroke="midnightblue" d="M418.56,-179.496C377.479,-170.496 324.537,-157.746 278.5,-143 276.226,-142.272 273.892,-141.467 271.558,-140.621"/>
<polygon fill="midnightblue" stroke="midnightblue" points="272.706,-137.313 262.116,-137.003 270.201,-143.85 272.706,-137.313"/>
</g>
<!-- Node14&#45;&gt;Node6 -->
<g id="edge18" class="edge"><title>Node14&#45;&gt;Node6</title>
<path fill="none" stroke="midnightblue" d="M460.16,-179.396C441.915,-169.984 417.72,-157.503 397.857,-147.256"/>
<polygon fill="midnightblue" stroke="midnightblue" points="399.279,-144.051 388.787,-142.577 396.069,-150.272 399.279,-144.051"/>
</g>
<!-- Node14&#45;&gt;Node7 -->
<g id="edge17" class="edge"><title>Node14&#45;&gt;Node7</title>
<path fill="none" stroke="midnightblue" d="M561.66,-180.24C582.178,-172.792 602.177,-161.162 614.5,-143 622.236,-131.599 620.98,-124.159 614.5,-112 606.95,-97.8339 592.739,-87.3348 579.342,-80.0576"/>
<polygon fill="midnightblue" stroke="midnightblue" points="580.798,-76.8724 570.288,-75.5289 577.666,-83.1329 580.798,-76.8724"/>
</g>
<!-- Node14&#45;&gt;Node11 -->
<g id="edge20" class="edge"><title>Node14&#45;&gt;Node11</title>
<path fill="none" stroke="midnightblue" d="M561.632,-179.641C585.872,-172.11 611.436,-160.582 630.5,-143 664.22,-111.902 679.863,-57.9392 686.055,-29.6018"/>
<polygon fill="midnightblue" stroke="midnightblue" points="689.488,-30.2805 688.041,-19.785 682.627,-28.8923 689.488,-30.2805"/>
</g>
<!-- Node15 -->
<g id="node16" class="node"><title>Node15</title>
<polygon fill="white" stroke="#bfbfbf" points="454,-118 454,-137 605,-137 605,-118 454,-118"/>
<text text-anchor="middle" x="529.5" y="-125" font-family="Helvetica,sans-Serif" font-size="10.00">llvm/IR/LegacyPassManager.h</text>
</g>
<!-- Node14&#45;&gt;Node15 -->
<g id="edge19" class="edge"><title>Node14&#45;&gt;Node15</title>
<path fill="none" stroke="midnightblue" d="M496.613,-179.396C502.968,-169.562 511.487,-156.378 518.262,-145.892"/>
<polygon fill="midnightblue" stroke="midnightblue" points="521.395,-147.493 523.882,-137.195 515.515,-143.694 521.395,-147.493"/>
</g>
</g>
</svg>
        <g id="navigator" transform="translate(0 0)" fill="#404254">
                <rect fill="#f2f5e9" fill-opacity="0.5" stroke="#606060" stroke-width=".5" x="0" y="0" width="60" height="60"/>
                <use id="zoomplus" xlink:href="#zoomPlus" x="17" y="9" onmousedown="handleZoom(evt,'in')"/>
                <use id="zoomminus" xlink:href="#zoomMin" x="42" y="9" onmousedown="handleZoom(evt,'out')"/>
                <use id="reset" xlink:href="#resetDef" x="30" y="36" onmousedown="handleReset()"/>
                <g id="arrowUp" xlink:href="#dirArrow" transform="translate(30 24)" onmousedown="handlePan(0,-1)">
                  <use xlink:href="#rim" fill="#404040">
                        <set attributeName="fill" to="#808080" begin="arrowUp.mouseover" end="arrowUp.mouseout"/>
                  </use>
                  <path fill="none" stroke="white" stroke-width="1.5" d="M0,-3.0v7 M-2.5,-0.5L0,-3.0L2.5,-0.5"/>
                </g>
                <g id="arrowRight" xlink:href="#dirArrow" transform="rotate(90) translate(36 -43)" onmousedown="handlePan(1,0)">
                  <use xlink:href="#rim" fill="#404040">
                        <set attributeName="fill" to="#808080" begin="arrowRight.mouseover" end="arrowRight.mouseout"/>
                  </use>
                  <path fill="none" stroke="white" stroke-width="1.5" d="M0,-3.0v7 M-2.5,-0.5L0,-3.0L2.5,-0.5"/>
                </g>
                <g id="arrowDown" xlink:href="#dirArrow" transform="rotate(180) translate(-30 -48)" onmousedown="handlePan(0,1)">
                  <use xlink:href="#rim" fill="#404040">
                        <set attributeName="fill" to="#808080" begin="arrowDown.mouseover" end="arrowDown.mouseout"/>
                  </use>
                  <path fill="none" stroke="white" stroke-width="1.5" d="M0,-3.0v7 M-2.5,-0.5L0,-3.0L2.5,-0.5"/>
                </g>
                <g id="arrowLeft" xlink:href="#dirArrow" transform="rotate(270) translate(-36 17)" onmousedown="handlePan(-1,0)">
                  <use xlink:href="#rim" fill="#404040">
                        <set attributeName="fill" to="#808080" begin="arrowLeft.mouseover" end="arrowLeft.mouseout"/>
                  </use>
                  <path fill="none" stroke="white" stroke-width="1.5" d="M0,-3.0v7 M-2.5,-0.5L0,-3.0L2.5,-0.5"/>
                </g>
        </g>
        <svg viewBox="0 0 15 15" width="100%" height="30px" preserveAspectRatio="xMaxYMin meet">
         <g id="arrow_out" transform="scale(0.3 0.3)">
          <a xlink:href="OptimizerYAMLWrapper_8cpp__incl_org.svg" target="_base">
           <rect id="button" ry="5" rx="5" y="6" x="6" height="38" width="38"
                fill="#f2f5e9" fill-opacity="0.5" stroke="#606060" stroke-width="1.0"/>
           <path id="arrow"
             d="M 11.500037,31.436501 C 11.940474,20.09759 22.043105,11.32322 32.158766,21.979434 L 37.068811,17.246167 C 37.068811,17.246167 37.088388,32 37.088388,32 L 22.160133,31.978069 C 22.160133,31.978069 26.997745,27.140456 26.997745,27.140456 C 18.528582,18.264221 13.291696,25.230495 11.500037,31.436501 z"
             style="fill:#404040;"/>
          </a>
         </g>
        </svg>
</svg>
