<?xml version="1.0" encoding="UTF-8" standalone="no"?>
<!DOCTYPE svg PUBLIC "-//W3C//DTD SVG 1.1//EN"
 "http://www.w3.org/Graphics/SVG/1.1/DTD/svg11.dtd">
<!-- Generated by graphviz version 2.38.0 (20140413.2041)
 -->
<!-- Title: /home/yukiosir/workspace/CompilerProject/Software/pinhao/include/pinhao/Optimizer/Optimizations.h Pages: 1 -->
<svg width="389pt" height="117pt"
 viewBox="0.00 0.00 389.00 117.00" xmlns="http://www.w3.org/2000/svg" xmlns:xlink="http://www.w3.org/1999/xlink">
<g id="graph0" class="graph" transform="scale(1 1) rotate(0) translate(4 113)">
<title>/home/yukiosir/workspace/CompilerProject/Software/pinhao/include/pinhao/Optimizer/Optimizations.h</title>
<polygon fill="white" stroke="none" points="-4,4 -4,-113 385,-113 385,4 -4,4"/>
<!-- Node0 -->
<g id="node1" class="node"><title>Node0</title>
<polygon fill="#bfbfbf" stroke="black" points="165.5,-56.5 165.5,-108.5 323.5,-108.5 323.5,-56.5 165.5,-56.5"/>
<text text-anchor="start" x="173.5" y="-96.5" font-family="Helvetica,sans-Serif" font-size="10.00">/home/yukiosir/workspace</text>
<text text-anchor="start" x="173.5" y="-85.5" font-family="Helvetica,sans-Serif" font-size="10.00">/CompilerProject/Software</text>
<text text-anchor="start" x="173.5" y="-74.5" font-family="Helvetica,sans-Serif" font-size="10.00">/pinhao/include/pinhao/Optimizer</text>
<text text-anchor="middle" x="244.5" y="-63.5" font-family="Helvetica,sans-Serif" font-size="10.00">/Optimizations.h</text>
</g>
<!-- Node1 -->
<g id="node2" class="node"><title>Node1</title>
<polygon fill="white" stroke="#bfbfbf" points="0,-0.5 0,-19.5 91,-19.5 91,-0.5 0,-0.5"/>
<text text-anchor="middle" x="45.5" y="-7.5" font-family="Helvetica,sans-Serif" font-size="10.00">llvm/IR/Module.h</text>
</g>
<!-- Node0&#45;&gt;Node1 -->
<g id="edge1" class="edge"><title>Node0&#45;&gt;Node1</title>
<path fill="none" stroke="midnightblue" d="M173.78,-56.4458C141.628,-45.0555 105.09,-32.1112 79.256,-22.9588"/>
<polygon fill="midnightblue" stroke="midnightblue" points="80.1638,-19.5673 69.569,-19.527 77.8262,-26.1655 80.1638,-19.5673"/>
</g>
<!-- Node2 -->
<g id="node3" class="node"><title>Node2</title>
<polygon fill="white" stroke="#bfbfbf" points="109,-0.5 109,-19.5 206,-19.5 206,-0.5 109,-0.5"/>
<text text-anchor="middle" x="157.5" y="-7.5" font-family="Helvetica,sans-Serif" font-size="10.00">llvm/IR/Function.h</text>
</g>
<!-- Node0&#45;&gt;Node2 -->
<g id="edge2" class="edge"><title>Node0&#45;&gt;Node2</title>
<path fill="none" stroke="midnightblue" d="M213.582,-56.4458C201.096,-46.3276 187.096,-34.983 176.208,-26.1596"/>
<polygon fill="midnightblue" stroke="midnightblue" points="178.204,-23.2721 168.231,-19.6955 173.796,-28.7106 178.204,-23.2721"/>
</g>
<!-- Node3 -->
<g id="node4" class="node"><title>Node3</title>
<polygon fill="white" stroke="#bfbfbf" points="224,-0.5 224,-19.5 265,-19.5 265,-0.5 224,-0.5"/>
<text text-anchor="middle" x="244.5" y="-7.5" font-family="Helvetica,sans-Serif" font-size="10.00">string</text>
</g>
<!-- Node0&#45;&gt;Node3 -->
<g id="edge3" class="edge"><title>Node0&#45;&gt;Node3</title>
<path fill="none" stroke="midnightblue" d="M244.5,-56.4458C244.5,-47.7301 244.5,-38.1045 244.5,-29.9641"/>
<polygon fill="midnightblue" stroke="midnightblue" points="248,-29.6954 244.5,-19.6955 241,-29.6955 248,-29.6954"/>
</g>
<!-- Node4 -->
<g id="node5" class="node"><title>Node4</title>
<polygon fill="white" stroke="#bfbfbf" points="283.5,-0.5 283.5,-19.5 327.5,-19.5 327.5,-0.5 283.5,-0.5"/>
<text text-anchor="middle" x="305.5" y="-7.5" font-family="Helvetica,sans-Serif" font-size="10.00">vector</text>
</g>
<!-- Node0&#45;&gt;Node4 -->
<g id="edge4" class="edge"><title>Node0&#45;&gt;Node4</title>
<path fill="none" stroke="midnightblue" d="M266.178,-56.4458C274.499,-46.8285 283.779,-36.1032 291.234,-27.4881"/>
<polygon fill="midnightblue" stroke="midnightblue" points="294.08,-29.5478 297.976,-19.6955 288.786,-24.9676 294.08,-29.5478"/>
</g>
<!-- Node5 -->
<g id="node6" class="node"><title>Node5</title>
<polygon fill="white" stroke="#bfbfbf" points="346,-0.5 346,-19.5 381,-19.5 381,-0.5 346,-0.5"/>
<text text-anchor="middle" x="363.5" y="-7.5" font-family="Helvetica,sans-Serif" font-size="10.00">map</text>
</g>
<!-- Node0&#45;&gt;Node5 -->
<g id="edge5" class="edge"><title>Node0&#45;&gt;Node5</title>
<path fill="none" stroke="midnightblue" d="M286.79,-56.4458C304.825,-45.7611 325.169,-33.709 340.372,-24.7021"/>
<polygon fill="midnightblue" stroke="midnightblue" points="342.287,-27.6353 349.107,-19.527 338.719,-21.6128 342.287,-27.6353"/>
</g>
</g>
</svg>
