<?xml version="1.0" encoding="UTF-8" standalone="no"?>
<!DOCTYPE svg PUBLIC "-//W3C//DTD SVG 1.1//EN"
 "http://www.w3.org/Graphics/SVG/1.1/DTD/svg11.dtd">
<!-- Generated by graphviz version 2.38.0 (20140413.2041)
 -->
<!-- Title: /home/yukiosir/workspace/CompilerProject/Software/pinhao/lib/Optimizer/OptimizationInfo.cpp Pages: 1 -->
<svg width="927pt" height="374pt"
 viewBox="0.00 0.00 926.93 374.00" xmlns="http://www.w3.org/2000/svg" xmlns:xlink="http://www.w3.org/1999/xlink">
<g id="graph0" class="graph" transform="scale(1 1) rotate(0) translate(4 370)">
<title>/home/yukiosir/workspace/CompilerProject/Software/pinhao/lib/Optimizer/OptimizationInfo.cpp</title>
<polygon fill="white" stroke="none" points="-4,4 -4,-370 922.93,-370 922.93,4 -4,4"/>
<!-- Node0 -->
<g id="node1" class="node"><title>Node0</title>
<polygon fill="#bfbfbf" stroke="black" points="403.93,-313.5 403.93,-365.5 567.93,-365.5 567.93,-313.5 403.93,-313.5"/>
<text text-anchor="start" x="411.93" y="-353.5" font-family="Helvetica,sans-Serif" font-size="10.00">/home/yukiosir/workspace</text>
<text text-anchor="start" x="411.93" y="-342.5" font-family="Helvetica,sans-Serif" font-size="10.00">/CompilerProject/Software</text>
<text text-anchor="start" x="411.93" y="-331.5" font-family="Helvetica,sans-Serif" font-size="10.00">/pinhao/lib/Optimizer/Optimization</text>
<text text-anchor="middle" x="485.93" y="-320.5" font-family="Helvetica,sans-Serif" font-size="10.00">Info.cpp</text>
</g>
<!-- Node1 -->
<g id="node2" class="node"><title>Node1</title>
<g id="a_node2"><a xlink:href="Optimizations_8h.html" target="_top" xlink:title="pinhao/Optimizer/Optimizations.h">
<polygon fill="white" stroke="black" points="302.43,-56.5 302.43,-75.5 463.43,-75.5 463.43,-56.5 302.43,-56.5"/>
<text text-anchor="middle" x="382.93" y="-63.5" font-family="Helvetica,sans-Serif" font-size="10.00">pinhao/Optimizer/Optimizations.h</text>
</a>
</g>
</g>
<!-- Node0&#45;&gt;Node1 -->
<g id="edge1" class="edge"><title>Node0&#45;&gt;Node1</title>
<path fill="none" stroke="midnightblue" d="M403.905,-326.68C374.293,-318.014 343.791,-303.001 325.93,-277 283.336,-214.996 341.491,-122.395 369.433,-84.309"/>
<polygon fill="midnightblue" stroke="midnightblue" points="372.583,-85.945 375.806,-75.8525 366.992,-81.7319 372.583,-85.945"/>
</g>
<!-- Node7 -->
<g id="node8" class="node"><title>Node7</title>
<g id="a_node8"><a xlink:href="OptimizationSet_8h.html" target="_top" xlink:title="pinhao/Optimizer/Optimization\lSet.h">
<polygon fill="white" stroke="black" points="334.93,-246.5 334.93,-276.5 482.93,-276.5 482.93,-246.5 334.93,-246.5"/>
<text text-anchor="start" x="342.93" y="-264.5" font-family="Helvetica,sans-Serif" font-size="10.00">pinhao/Optimizer/Optimization</text>
<text text-anchor="middle" x="408.93" y="-253.5" font-family="Helvetica,sans-Serif" font-size="10.00">Set.h</text>
</a>
</g>
</g>
<!-- Node0&#45;&gt;Node7 -->
<g id="edge7" class="edge"><title>Node0&#45;&gt;Node7</title>
<path fill="none" stroke="midnightblue" d="M460.29,-313.193C450.72,-303.747 439.953,-293.119 430.757,-284.044"/>
<polygon fill="midnightblue" stroke="midnightblue" points="433.04,-281.379 423.464,-276.845 428.123,-286.361 433.04,-281.379"/>
</g>
<!-- Node10 -->
<g id="node11" class="node"><title>Node10</title>
<g id="a_node11"><a xlink:href="OptimizationSequence_8h.html" target="_top" xlink:title="pinhao/Optimizer/Optimization\lSequence.h">
<polygon fill="white" stroke="black" points="130.93,-179.5 130.93,-209.5 278.93,-209.5 278.93,-179.5 130.93,-179.5"/>
<text text-anchor="start" x="138.93" y="-197.5" font-family="Helvetica,sans-Serif" font-size="10.00">pinhao/Optimizer/Optimization</text>
<text text-anchor="middle" x="204.93" y="-186.5" font-family="Helvetica,sans-Serif" font-size="10.00">Sequence.h</text>
</a>
</g>
</g>
<!-- Node0&#45;&gt;Node10 -->
<g id="edge23" class="edge"><title>Node0&#45;&gt;Node10</title>
<path fill="none" stroke="midnightblue" d="M403.73,-320.843C368.153,-311.087 326.958,-296.836 292.93,-277 265.785,-261.176 240.067,-235.692 223.525,-217.433"/>
<polygon fill="midnightblue" stroke="midnightblue" points="225.848,-214.777 216.598,-209.612 220.608,-219.419 225.848,-214.777"/>
</g>
<!-- Node13 -->
<g id="node14" class="node"><title>Node13</title>
<polygon fill="white" stroke="#bfbfbf" points="500.93,-252 500.93,-271 626.93,-271 626.93,-252 500.93,-252"/>
<text text-anchor="middle" x="563.93" y="-259" font-family="Helvetica,sans-Serif" font-size="10.00">llvm/Transforms/Scalar.h</text>
</g>
<!-- Node0&#45;&gt;Node13 -->
<g id="edge24" class="edge"><title>Node0&#45;&gt;Node13</title>
<path fill="none" stroke="midnightblue" d="M511.903,-313.193C523.769,-301.632 537.452,-288.299 547.808,-278.209"/>
<polygon fill="midnightblue" stroke="midnightblue" points="550.272,-280.694 554.992,-271.209 545.387,-275.681 550.272,-280.694"/>
</g>
<!-- Node14 -->
<g id="node15" class="node"><title>Node14</title>
<polygon fill="white" stroke="#bfbfbf" points="644.93,-252 644.93,-271 784.93,-271 784.93,-252 644.93,-252"/>
<text text-anchor="middle" x="714.93" y="-259" font-family="Helvetica,sans-Serif" font-size="10.00">llvm/Transforms/Vectorize.h</text>
</g>
<!-- Node0&#45;&gt;Node14 -->
<g id="edge25" class="edge"><title>Node0&#45;&gt;Node14</title>
<path fill="none" stroke="midnightblue" d="M561.548,-313.404C601.282,-300.217 648.105,-284.678 679.471,-274.268"/>
<polygon fill="midnightblue" stroke="midnightblue" points="680.695,-277.55 689.084,-271.078 678.49,-270.906 680.695,-277.55"/>
</g>
<!-- Node15 -->
<g id="node16" class="node"><title>Node15</title>
<polygon fill="white" stroke="#bfbfbf" points="802.93,-252 802.93,-271 918.93,-271 918.93,-252 802.93,-252"/>
<text text-anchor="middle" x="860.93" y="-259" font-family="Helvetica,sans-Serif" font-size="10.00">llvm/Transforms/IPO.h</text>
</g>
<!-- Node0&#45;&gt;Node15 -->
<g id="edge26" class="edge"><title>Node0&#45;&gt;Node15</title>
<path fill="none" stroke="midnightblue" d="M568.036,-322.477C630.127,-310.27 717.456,-292.909 793.93,-277 799.752,-275.789 805.854,-274.498 811.905,-273.205"/>
<polygon fill="midnightblue" stroke="midnightblue" points="812.94,-276.562 821.981,-271.04 811.469,-269.719 812.94,-276.562"/>
</g>
<!-- Node2 -->
<g id="node3" class="node"><title>Node2</title>
<polygon fill="white" stroke="#bfbfbf" points="305.43,-0.5 305.43,-19.5 396.43,-19.5 396.43,-0.5 305.43,-0.5"/>
<text text-anchor="middle" x="350.93" y="-7.5" font-family="Helvetica,sans-Serif" font-size="10.00">llvm/IR/Module.h</text>
</g>
<!-- Node1&#45;&gt;Node2 -->
<g id="edge2" class="edge"><title>Node1&#45;&gt;Node2</title>
<path fill="none" stroke="midnightblue" d="M377.646,-56.083C373.219,-48.6127 366.767,-37.7244 361.312,-28.5199"/>
<polygon fill="midnightblue" stroke="midnightblue" points="364.225,-26.5697 356.116,-19.7511 358.203,-30.1383 364.225,-26.5697"/>
</g>
<!-- Node3 -->
<g id="node4" class="node"><title>Node3</title>
<polygon fill="white" stroke="#bfbfbf" points="414.43,-0.5 414.43,-19.5 511.43,-19.5 511.43,-0.5 414.43,-0.5"/>
<text text-anchor="middle" x="462.93" y="-7.5" font-family="Helvetica,sans-Serif" font-size="10.00">llvm/IR/Function.h</text>
</g>
<!-- Node1&#45;&gt;Node3 -->
<g id="edge3" class="edge"><title>Node1&#45;&gt;Node3</title>
<path fill="none" stroke="midnightblue" d="M395.784,-56.324C408.147,-47.979 427.06,-35.2122 441.667,-25.3524"/>
<polygon fill="midnightblue" stroke="midnightblue" points="443.778,-28.1503 450.109,-19.6545 439.862,-22.3483 443.778,-28.1503"/>
</g>
<!-- Node4 -->
<g id="node5" class="node"><title>Node4</title>
<polygon fill="white" stroke="#bfbfbf" points="529.43,-0.5 529.43,-19.5 570.43,-19.5 570.43,-0.5 529.43,-0.5"/>
<text text-anchor="middle" x="549.93" y="-7.5" font-family="Helvetica,sans-Serif" font-size="10.00">string</text>
</g>
<!-- Node1&#45;&gt;Node4 -->
<g id="edge4" class="edge"><title>Node1&#45;&gt;Node4</title>
<path fill="none" stroke="midnightblue" d="M409.392,-56.4435C439.434,-46.7292 488.346,-30.9134 519.822,-20.7354"/>
<polygon fill="midnightblue" stroke="midnightblue" points="520.945,-24.0508 529.383,-17.6439 518.792,-17.3904 520.945,-24.0508"/>
</g>
<!-- Node5 -->
<g id="node6" class="node"><title>Node5</title>
<polygon fill="white" stroke="#bfbfbf" points="242.93,-0.5 242.93,-19.5 286.93,-19.5 286.93,-0.5 242.93,-0.5"/>
<text text-anchor="middle" x="264.93" y="-7.5" font-family="Helvetica,sans-Serif" font-size="10.00">vector</text>
</g>
<!-- Node1&#45;&gt;Node5 -->
<g id="edge5" class="edge"><title>Node1&#45;&gt;Node5</title>
<path fill="none" stroke="midnightblue" d="M364.233,-56.4435C344.986,-47.6356 314.778,-33.8116 292.73,-23.722"/>
<polygon fill="midnightblue" stroke="midnightblue" points="294.09,-20.4951 283.54,-19.5164 291.177,-26.8603 294.09,-20.4951"/>
</g>
<!-- Node6 -->
<g id="node7" class="node"><title>Node6</title>
<polygon fill="white" stroke="#bfbfbf" points="623.43,-0.5 623.43,-19.5 658.43,-19.5 658.43,-0.5 623.43,-0.5"/>
<text text-anchor="middle" x="640.93" y="-7.5" font-family="Helvetica,sans-Serif" font-size="10.00">map</text>
</g>
<!-- Node1&#45;&gt;Node6 -->
<g id="edge6" class="edge"><title>Node1&#45;&gt;Node6</title>
<path fill="none" stroke="midnightblue" d="M423.811,-56.4435C476.823,-45.3481 567.864,-26.2929 613.363,-16.7699"/>
<polygon fill="midnightblue" stroke="midnightblue" points="614.314,-20.1468 623.385,-14.6723 612.88,-13.2953 614.314,-20.1468"/>
</g>
<!-- Node7&#45;&gt;Node1 -->
<g id="edge8" class="edge"><title>Node7&#45;&gt;Node1</title>
<path fill="none" stroke="midnightblue" d="M407.018,-246.271C402.406,-211.944 390.665,-124.566 385.47,-85.9001"/>
<polygon fill="midnightblue" stroke="midnightblue" points="388.883,-85.0217 384.083,-75.5769 381.946,-85.954 388.883,-85.0217"/>
</g>
<!-- Node7&#45;&gt;Node4 -->
<g id="edge20" class="edge"><title>Node7&#45;&gt;Node4</title>
<path fill="none" stroke="midnightblue" d="M466.608,-246.412C490.72,-238.518 517.947,-226.793 538.93,-210 566.936,-187.586 567.135,-174.696 583.93,-143 602.886,-107.226 629.179,-92.1398 610.93,-56 604.123,-42.5199 591.162,-32.083 578.932,-24.6696"/>
<polygon fill="midnightblue" stroke="midnightblue" points="580.274,-21.4099 569.836,-19.5896 576.86,-27.5214 580.274,-21.4099"/>
</g>
<!-- Node7&#45;&gt;Node5 -->
<g id="edge21" class="edge"><title>Node7&#45;&gt;Node5</title>
<path fill="none" stroke="midnightblue" d="M398.813,-246.131C377.61,-215.668 327.615,-141.976 292.93,-76 284.809,-60.5529 277.081,-42.2383 271.809,-28.9929"/>
<polygon fill="midnightblue" stroke="midnightblue" points="275.043,-27.6523 268.147,-19.6087 268.522,-30.1969 275.043,-27.6523"/>
</g>
<!-- Node7&#45;&gt;Node6 -->
<g id="edge22" class="edge"><title>Node7&#45;&gt;Node6</title>
<path fill="none" stroke="midnightblue" d="M482.965,-248.323C511.408,-240.858 542.805,-228.937 566.93,-210 624.582,-164.745 637.319,-69.736 640.133,-29.5644"/>
<polygon fill="midnightblue" stroke="midnightblue" points="643.627,-29.7554 640.701,-19.5728 636.639,-29.3579 643.627,-29.7554"/>
</g>
<!-- Node8 -->
<g id="node9" class="node"><title>Node8</title>
<g id="a_node9"><a xlink:href="OptimizationInfo_8h.html" target="_top" xlink:title="pinhao/Optimizer/Optimization\lInfo.h">
<polygon fill="white" stroke="black" points="410.93,-112.5 410.93,-142.5 558.93,-142.5 558.93,-112.5 410.93,-112.5"/>
<text text-anchor="start" x="418.93" y="-130.5" font-family="Helvetica,sans-Serif" font-size="10.00">pinhao/Optimizer/Optimization</text>
<text text-anchor="middle" x="484.93" y="-119.5" font-family="Helvetica,sans-Serif" font-size="10.00">Info.h</text>
</a>
</g>
</g>
<!-- Node7&#45;&gt;Node8 -->
<g id="edge9" class="edge"><title>Node7&#45;&gt;Node8</title>
<path fill="none" stroke="midnightblue" d="M417.064,-246.374C430.149,-223.647 455.997,-178.752 471.744,-151.402"/>
<polygon fill="midnightblue" stroke="midnightblue" points="474.899,-152.937 476.855,-142.525 468.832,-149.445 474.899,-152.937"/>
</g>
<!-- Node9 -->
<g id="node10" class="node"><title>Node9</title>
<g id="a_node10"><a xlink:href="Types_8h.html" target="_top" xlink:title="pinhao/Support/Types.h">
<polygon fill="white" stroke="black" points="481.93,-56.5 481.93,-75.5 601.93,-75.5 601.93,-56.5 481.93,-56.5"/>
<text text-anchor="middle" x="541.93" y="-63.5" font-family="Helvetica,sans-Serif" font-size="10.00">pinhao/Support/Types.h</text>
</a>
</g>
</g>
<!-- Node7&#45;&gt;Node9 -->
<g id="edge19" class="edge"><title>Node7&#45;&gt;Node9</title>
<path fill="none" stroke="midnightblue" d="M443.515,-246.485C481.959,-228.793 542.037,-194.331 567.93,-143 577.696,-123.641 566.008,-99.7623 555.324,-83.9955"/>
<polygon fill="midnightblue" stroke="midnightblue" points="558.034,-81.7708 549.319,-75.745 552.374,-85.89 558.034,-81.7708"/>
</g>
<!-- Node7&#45;&gt;Node10 -->
<g id="edge13" class="edge"><title>Node7&#45;&gt;Node10</title>
<path fill="none" stroke="midnightblue" d="M364.916,-246.476C333.787,-236.557 291.869,-223.201 258.749,-212.648"/>
<polygon fill="midnightblue" stroke="midnightblue" points="259.807,-209.312 249.217,-209.611 257.682,-215.982 259.807,-209.312"/>
</g>
<!-- Node8&#45;&gt;Node1 -->
<g id="edge10" class="edge"><title>Node8&#45;&gt;Node1</title>
<path fill="none" stroke="midnightblue" d="M460.758,-112.399C444.408,-102.862 422.916,-90.3248 406.66,-80.8422"/>
<polygon fill="midnightblue" stroke="midnightblue" points="408.173,-77.6733 397.772,-75.6578 404.646,-83.7198 408.173,-77.6733"/>
</g>
<!-- Node8&#45;&gt;Node9 -->
<g id="edge11" class="edge"><title>Node8&#45;&gt;Node9</title>
<path fill="none" stroke="midnightblue" d="M498.438,-112.399C506.892,-103.575 517.806,-92.1827 526.585,-83.0178"/>
<polygon fill="midnightblue" stroke="midnightblue" points="529.246,-85.3002 533.636,-75.6578 524.191,-80.4577 529.246,-85.3002"/>
</g>
<!-- Node9&#45;&gt;Node4 -->
<g id="edge12" class="edge"><title>Node9&#45;&gt;Node4</title>
<path fill="none" stroke="midnightblue" d="M543.251,-56.083C544.311,-48.9272 545.836,-38.6353 547.161,-29.6911"/>
<polygon fill="midnightblue" stroke="midnightblue" points="550.63,-30.1561 548.634,-19.7511 543.706,-29.1302 550.63,-30.1561"/>
</g>
<!-- Node10&#45;&gt;Node1 -->
<g id="edge14" class="edge"><title>Node10&#45;&gt;Node1</title>
<path fill="none" stroke="midnightblue" d="M217.908,-179.213C234.222,-161.82 263.65,-132.263 292.93,-112 311.474,-99.1668 334.202,-87.8334 352.178,-79.7505"/>
<polygon fill="midnightblue" stroke="midnightblue" points="353.87,-82.8302 361.62,-75.6055 351.056,-76.4207 353.87,-82.8302"/>
</g>
<!-- Node10&#45;&gt;Node5 -->
<g id="edge17" class="edge"><title>Node10&#45;&gt;Node5</title>
<path fill="none" stroke="midnightblue" d="M130.776,-188.611C61.7516,-180.964 -25.7834,-161.473 7.93018,-112 59.1613,-36.821 175.662,-17.6003 232.513,-12.6869"/>
<polygon fill="midnightblue" stroke="midnightblue" points="233.025,-16.158 242.728,-11.904 232.49,-9.17847 233.025,-16.158"/>
</g>
<!-- Node10&#45;&gt;Node8 -->
<g id="edge15" class="edge"><title>Node10&#45;&gt;Node8</title>
<path fill="none" stroke="midnightblue" d="M265.341,-179.476C309.076,-169.323 368.328,-155.568 414.26,-144.906"/>
<polygon fill="midnightblue" stroke="midnightblue" points="415.195,-148.282 424.145,-142.611 413.612,-141.463 415.195,-148.282"/>
</g>
<!-- Node11 -->
<g id="node12" class="node"><title>Node11</title>
<polygon fill="white" stroke="#bfbfbf" points="17.4302,-118 17.4302,-137 168.43,-137 168.43,-118 17.4302,-118"/>
<text text-anchor="middle" x="92.9302" y="-125" font-family="Helvetica,sans-Serif" font-size="10.00">llvm/IR/LegacyPassManager.h</text>
</g>
<!-- Node10&#45;&gt;Node11 -->
<g id="edge16" class="edge"><title>Node10&#45;&gt;Node11</title>
<path fill="none" stroke="midnightblue" d="M180.628,-179.396C161.585,-168.344 135.25,-153.061 116.419,-142.132"/>
<polygon fill="midnightblue" stroke="midnightblue" points="117.994,-138.999 107.588,-137.007 114.481,-145.054 117.994,-138.999"/>
</g>
<!-- Node12 -->
<g id="node13" class="node"><title>Node12</title>
<polygon fill="white" stroke="#bfbfbf" points="186.93,-118 186.93,-137 240.93,-137 240.93,-118 186.93,-118"/>
<text text-anchor="middle" x="213.93" y="-125" font-family="Helvetica,sans-Serif" font-size="10.00">iostream</text>
</g>
<!-- Node10&#45;&gt;Node12 -->
<g id="edge18" class="edge"><title>Node10&#45;&gt;Node12</title>
<path fill="none" stroke="midnightblue" d="M206.883,-179.396C208.189,-169.963 209.922,-157.448 211.342,-147.189"/>
<polygon fill="midnightblue" stroke="midnightblue" points="214.822,-147.58 212.726,-137.195 207.888,-146.62 214.822,-147.58"/>
</g>
</g>
</svg>
