<?xml version="1.0" encoding="UTF-8" standalone="no"?>
<!DOCTYPE svg PUBLIC "-//W3C//DTD SVG 1.1//EN"
 "http://www.w3.org/Graphics/SVG/1.1/DTD/svg11.dtd">
<!-- Generated by graphviz version 2.38.0 (20140413.2041)
 -->
<!-- Title: /home/yukiosir/workspace/CompilerProject/Software/pinhao/include/pinhao/Optimizer/OptimizationSet.h Pages: 1 -->
<!--zoomable 307 -->
<svg id="main" version="1.1" xmlns="http://www.w3.org/2000/svg" xmlns:xlink="http://www.w3.org/1999/xlink" xml:space="preserve" onload="init(evt)">
<style type="text/css"><![CDATA[
.edge:hover path { stroke: red; }
.edge:hover polygon { stroke: red; fill: red; }
]]></style>
<script type="text/javascript"><![CDATA[
var edges = document.getElementsByTagName('g');
if (edges && edges.length) {
  for (var i=0;i<edges.length;i++) {
    if (edges[i].id.substr(0,4)=='edge') {
      edges[i].setAttribute('class','edge');
    }
  }
}
]]></script>
        <defs>
                <circle id="rim" cx="0" cy="0" r="7"/>
                <circle id="rim2" cx="0" cy="0" r="3.5"/>
                <g id="zoomPlus">
                        <use xlink:href="#rim" fill="#404040">
                                <set attributeName="fill" to="#808080" begin="zoomplus.mouseover" end="zoomplus.mouseout"/>
                        </use>
                        <path d="M-4,0h8M0,-4v8" fill="none" stroke="white" stroke-width="1.5" pointer-events="none"/>
                </g>
                <g id="zoomMin">
                        <use xlink:href="#rim" fill="#404040">
                                <set attributeName="fill" to="#808080" begin="zoomminus.mouseover" end="zoomminus.mouseout"/>
                        </use>
                        <path d="M-4,0h8" fill="none" stroke="white" stroke-width="1.5" pointer-events="none"/>
                </g>
                <g id="dirArrow">
                        <path fill="none" stroke="white" stroke-width="1.5" d="M0,-3.0v7 M-2.5,-0.5L0,-3.0L2.5,-0.5"/>
                </g>
               <g id="resetDef">
                       <use xlink:href="#rim2" fill="#404040">
                               <set attributeName="fill" to="#808080" begin="reset.mouseover" end="reset.mouseout"/>
                       </use>
               </g>
        </defs>

<script type="text/javascript">
var viewWidth = 639;
var viewHeight = 307;
var sectionId = 'dynsection-0';
</script>
<script xlink:href="svgpan.js"/>
<svg id="graph" class="graph">
<g id="viewport">
<title>/home/yukiosir/workspace/CompilerProject/Software/pinhao/include/pinhao/Optimizer/OptimizationSet.h</title>
<polygon fill="white" stroke="none" points="-4,4 -4,-303 634.648,-303 634.648,4 -4,4"/>
<!-- Node0 -->
<g id="node1" class="node"><title>Node0</title>
<polygon fill="#bfbfbf" stroke="black" points="149.148,-246.5 149.148,-298.5 307.148,-298.5 307.148,-246.5 149.148,-246.5"/>
<text text-anchor="start" x="157.148" y="-286.5" font-family="Helvetica,sans-Serif" font-size="10.00">/home/yukiosir/workspace</text>
<text text-anchor="start" x="157.148" y="-275.5" font-family="Helvetica,sans-Serif" font-size="10.00">/CompilerProject/Software</text>
<text text-anchor="start" x="157.148" y="-264.5" font-family="Helvetica,sans-Serif" font-size="10.00">/pinhao/include/pinhao/Optimizer</text>
<text text-anchor="middle" x="228.148" y="-253.5" font-family="Helvetica,sans-Serif" font-size="10.00">/OptimizationSet.h</text>
</g>
<!-- Node1 -->
<g id="node2" class="node"><title>Node1</title>
<g id="a_node2"><a xlink:href="Optimizations_8h.html" target="_top" xlink:title="pinhao/Optimizer/Optimizations.h">
<polygon fill="white" stroke="black" points="177.648,-56.5 177.648,-75.5 338.648,-75.5 338.648,-56.5 177.648,-56.5"/>
<text text-anchor="middle" x="258.148" y="-63.5" font-family="Helvetica,sans-Serif" font-size="10.00">pinhao/Optimizer/Optimizations.h</text>
</a>
</g>
</g>
<!-- Node0&#45;&gt;Node1 -->
<g id="edge1" class="edge"><title>Node0&#45;&gt;Node1</title>
<path fill="none" stroke="midnightblue" d="M231.827,-246.424C237.924,-204.862 249.987,-122.629 255.403,-85.7107"/>
<polygon fill="midnightblue" stroke="midnightblue" points="258.868,-86.2056 256.856,-75.8035 251.942,-85.1896 258.868,-86.2056"/>
</g>
<!-- Node4 -->
<g id="node5" class="node"><title>Node4</title>
<polygon fill="white" stroke="#bfbfbf" points="62.648,-0.5 62.648,-19.5 103.648,-19.5 103.648,-0.5 62.648,-0.5"/>
<text text-anchor="middle" x="83.148" y="-7.5" font-family="Helvetica,sans-Serif" font-size="10.00">string</text>
</g>
<!-- Node0&#45;&gt;Node4 -->
<g id="edge18" class="edge"><title>Node0&#45;&gt;Node4</title>
<path fill="none" stroke="midnightblue" d="M149.052,-254.382C120.585,-245.068 89.9114,-230.997 67.148,-210 13.9415,-160.923 -20.3291,-119.646 14.148,-56 22.4739,-40.6299 38.5784,-29.6786 53.1359,-22.4303"/>
<polygon fill="midnightblue" stroke="midnightblue" points="54.7491,-25.5411 62.3814,-18.1927 51.8325,-19.1776 54.7491,-25.5411"/>
</g>
<!-- Node5 -->
<g id="node6" class="node"><title>Node5</title>
<polygon fill="white" stroke="#bfbfbf" points="524.148,-0.5 524.148,-19.5 568.148,-19.5 568.148,-0.5 524.148,-0.5"/>
<text text-anchor="middle" x="546.148" y="-7.5" font-family="Helvetica,sans-Serif" font-size="10.00">vector</text>
</g>
<!-- Node0&#45;&gt;Node5 -->
<g id="edge19" class="edge"><title>Node0&#45;&gt;Node5</title>
<path fill="none" stroke="midnightblue" d="M307.336,-263.307C382.886,-250.936 493.342,-220.019 550.148,-143 573.438,-111.423 572.934,-94.4569 565.148,-56 563.255,-46.6493 559.356,-36.8267 555.581,-28.7526"/>
<polygon fill="midnightblue" stroke="midnightblue" points="558.623,-27.0106 551.024,-19.6279 552.36,-30.1381 558.623,-27.0106"/>
</g>
<!-- Node6 -->
<g id="node7" class="node"><title>Node6</title>
<polygon fill="white" stroke="#bfbfbf" points="595.648,-0.5 595.648,-19.5 630.648,-19.5 630.648,-0.5 595.648,-0.5"/>
<text text-anchor="middle" x="613.148" y="-7.5" font-family="Helvetica,sans-Serif" font-size="10.00">map</text>
</g>
<!-- Node0&#45;&gt;Node6 -->
<g id="edge20" class="edge"><title>Node0&#45;&gt;Node6</title>
<path fill="none" stroke="midnightblue" d="M307.312,-266.38C365.896,-259.773 445.978,-244.643 508.148,-210 544.389,-189.805 552.094,-178.749 573.148,-143 594.848,-106.154 605.737,-56.4833 610.339,-29.8083"/>
<polygon fill="midnightblue" stroke="midnightblue" points="613.85,-30.0221 611.984,-19.5929 606.939,-28.9094 613.85,-30.0221"/>
</g>
<!-- Node7 -->
<g id="node8" class="node"><title>Node7</title>
<g id="a_node8"><a xlink:href="OptimizationInfo_8h.html" target="_top" xlink:title="pinhao/Optimizer/Optimization\lInfo.h">
<polygon fill="white" stroke="black" points="52.148,-112.5 52.148,-142.5 200.148,-142.5 200.148,-112.5 52.148,-112.5"/>
<text text-anchor="start" x="60.148" y="-130.5" font-family="Helvetica,sans-Serif" font-size="10.00">pinhao/Optimizer/Optimization</text>
<text text-anchor="middle" x="126.148" y="-119.5" font-family="Helvetica,sans-Serif" font-size="10.00">Info.h</text>
</a>
</g>
</g>
<!-- Node0&#45;&gt;Node7 -->
<g id="edge7" class="edge"><title>Node0&#45;&gt;Node7</title>
<path fill="none" stroke="midnightblue" d="M210.147,-246.264C190.911,-219.295 160.699,-176.939 142.232,-151.05"/>
<polygon fill="midnightblue" stroke="midnightblue" points="144.884,-148.74 136.228,-142.631 139.185,-152.805 144.884,-148.74"/>
</g>
<!-- Node8 -->
<g id="node9" class="node"><title>Node8</title>
<g id="a_node9"><a xlink:href="Types_8h.html" target="_top" xlink:title="pinhao/Support/Types.h">
<polygon fill="white" stroke="black" points="23.148,-56.5 23.148,-75.5 143.148,-75.5 143.148,-56.5 23.148,-56.5"/>
<text text-anchor="middle" x="83.148" y="-63.5" font-family="Helvetica,sans-Serif" font-size="10.00">pinhao/Support/Types.h</text>
</a>
</g>
</g>
<!-- Node0&#45;&gt;Node8 -->
<g id="edge17" class="edge"><title>Node0&#45;&gt;Node8</title>
<path fill="none" stroke="midnightblue" d="M164.704,-246.364C121.848,-225.639 68.6101,-191.688 43.148,-143 36.763,-130.791 38.2516,-124.878 43.148,-112 47.4831,-100.598 56.1785,-90.2394 64.3578,-82.343"/>
<polygon fill="midnightblue" stroke="midnightblue" points="66.7895,-84.8633 71.8824,-75.5728 62.1075,-79.6595 66.7895,-84.8633"/>
</g>
<!-- Node9 -->
<g id="node10" class="node"><title>Node9</title>
<g id="a_node10"><a xlink:href="OptimizationSequence_8h.html" target="_top" xlink:title="pinhao/Optimizer/Optimization\lSequence.h">
<polygon fill="white" stroke="black" points="276.148,-179.5 276.148,-209.5 424.148,-209.5 424.148,-179.5 276.148,-179.5"/>
<text text-anchor="start" x="284.148" y="-197.5" font-family="Helvetica,sans-Serif" font-size="10.00">pinhao/Optimizer/Optimization</text>
<text text-anchor="middle" x="350.148" y="-186.5" font-family="Helvetica,sans-Serif" font-size="10.00">Sequence.h</text>
</a>
</g>
</g>
<!-- Node0&#45;&gt;Node9 -->
<g id="edge11" class="edge"><title>Node0&#45;&gt;Node9</title>
<path fill="none" stroke="midnightblue" d="M268.433,-246.404C284.795,-236.212 303.412,-224.614 318.74,-215.066"/>
<polygon fill="midnightblue" stroke="midnightblue" points="320.706,-217.965 327.343,-209.707 317.004,-212.023 320.706,-217.965"/>
</g>
<!-- Node2 -->
<g id="node3" class="node"><title>Node2</title>
<polygon fill="white" stroke="#bfbfbf" points="280.648,-0.5 280.648,-19.5 371.648,-19.5 371.648,-0.5 280.648,-0.5"/>
<text text-anchor="middle" x="326.148" y="-7.5" font-family="Helvetica,sans-Serif" font-size="10.00">llvm/IR/Module.h</text>
</g>
<!-- Node1&#45;&gt;Node2 -->
<g id="edge2" class="edge"><title>Node1&#45;&gt;Node2</title>
<path fill="none" stroke="midnightblue" d="M269.073,-56.324C279.323,-48.1849 294.869,-35.8395 307.149,-26.0874"/>
<polygon fill="midnightblue" stroke="midnightblue" points="309.369,-28.7937 315.024,-19.8339 305.016,-23.3119 309.369,-28.7937"/>
</g>
<!-- Node3 -->
<g id="node4" class="node"><title>Node3</title>
<polygon fill="white" stroke="#bfbfbf" points="165.648,-0.5 165.648,-19.5 262.648,-19.5 262.648,-0.5 165.648,-0.5"/>
<text text-anchor="middle" x="214.148" y="-7.5" font-family="Helvetica,sans-Serif" font-size="10.00">llvm/IR/Function.h</text>
</g>
<!-- Node1&#45;&gt;Node3 -->
<g id="edge3" class="edge"><title>Node1&#45;&gt;Node3</title>
<path fill="none" stroke="midnightblue" d="M250.882,-56.083C244.603,-48.3768 235.36,-37.0333 227.717,-27.6531"/>
<polygon fill="midnightblue" stroke="midnightblue" points="230.309,-25.2926 221.278,-19.7511 224.882,-29.7143 230.309,-25.2926"/>
</g>
<!-- Node1&#45;&gt;Node4 -->
<g id="edge4" class="edge"><title>Node1&#45;&gt;Node4</title>
<path fill="none" stroke="midnightblue" d="M230.419,-56.4435C198.539,-46.6063 146.382,-30.5122 113.455,-20.3518"/>
<polygon fill="midnightblue" stroke="midnightblue" points="114.485,-17.0068 103.897,-17.4026 112.421,-23.6956 114.485,-17.0068"/>
</g>
<!-- Node1&#45;&gt;Node5 -->
<g id="edge5" class="edge"><title>Node1&#45;&gt;Node5</title>
<path fill="none" stroke="midnightblue" d="M303.782,-56.4435C362.544,-45.4258 463.164,-26.5594 514.301,-16.9714"/>
<polygon fill="midnightblue" stroke="midnightblue" points="514.951,-20.4104 524.135,-15.1274 513.661,-13.5303 514.951,-20.4104"/>
</g>
<!-- Node1&#45;&gt;Node6 -->
<g id="edge6" class="edge"><title>Node1&#45;&gt;Node6</title>
<path fill="none" stroke="midnightblue" d="M334.903,-56.4627C399.754,-48.703 494.94,-36.0285 577.148,-20 579.841,-19.4749 582.635,-18.8753 585.421,-18.2407"/>
<polygon fill="midnightblue" stroke="midnightblue" points="586.387,-21.6082 595.285,-15.8585 584.743,-14.8038 586.387,-21.6082"/>
</g>
<!-- Node7&#45;&gt;Node1 -->
<g id="edge8" class="edge"><title>Node7&#45;&gt;Node1</title>
<path fill="none" stroke="midnightblue" d="M157.43,-112.399C179.38,-102.505 208.491,-89.3832 229.769,-79.7919"/>
<polygon fill="midnightblue" stroke="midnightblue" points="231.262,-82.958 238.941,-75.6578 228.386,-76.5764 231.262,-82.958"/>
</g>
<!-- Node7&#45;&gt;Node8 -->
<g id="edge9" class="edge"><title>Node7&#45;&gt;Node8</title>
<path fill="none" stroke="midnightblue" d="M115.958,-112.399C109.774,-103.842 101.845,-92.8708 95.3303,-83.857"/>
<polygon fill="midnightblue" stroke="midnightblue" points="98.099,-81.7127 89.4048,-75.6578 92.4255,-85.8129 98.099,-81.7127"/>
</g>
<!-- Node8&#45;&gt;Node4 -->
<g id="edge10" class="edge"><title>Node8&#45;&gt;Node4</title>
<path fill="none" stroke="midnightblue" d="M83.148,-56.083C83.148,-49.0059 83.148,-38.8611 83.148,-29.9865"/>
<polygon fill="midnightblue" stroke="midnightblue" points="86.6481,-29.751 83.148,-19.7511 79.6481,-29.7511 86.6481,-29.751"/>
</g>
<!-- Node9&#45;&gt;Node1 -->
<g id="edge12" class="edge"><title>Node9&#45;&gt;Node1</title>
<path fill="none" stroke="midnightblue" d="M325.684,-179.369C312.112,-170.45 295.862,-157.825 285.148,-143 272.619,-125.665 265.429,-101.959 261.667,-85.6563"/>
<polygon fill="midnightblue" stroke="midnightblue" points="265.062,-84.7925 259.587,-75.7221 258.211,-86.2272 265.062,-84.7925"/>
</g>
<!-- Node9&#45;&gt;Node5 -->
<g id="edge15" class="edge"><title>Node9&#45;&gt;Node5</title>
<path fill="none" stroke="midnightblue" d="M424.233,-190.544C460.441,-185.103 501.608,-172.243 527.148,-143 554.857,-111.274 552.778,-57.9736 549.255,-29.7873"/>
<polygon fill="midnightblue" stroke="midnightblue" points="552.69,-29.0836 547.791,-19.6893 545.762,-30.0881 552.69,-29.0836"/>
</g>
<!-- Node9&#45;&gt;Node7 -->
<g id="edge13" class="edge"><title>Node9&#45;&gt;Node7</title>
<path fill="none" stroke="midnightblue" d="M301.819,-179.476C267.491,-169.515 221.214,-156.086 184.775,-145.512"/>
<polygon fill="midnightblue" stroke="midnightblue" points="185.356,-142.036 174.776,-142.611 183.405,-148.759 185.356,-142.036"/>
</g>
<!-- Node10 -->
<g id="node11" class="node"><title>Node10</title>
<polygon fill="white" stroke="#bfbfbf" points="294.648,-118 294.648,-137 445.648,-137 445.648,-118 294.648,-118"/>
<text text-anchor="middle" x="370.148" y="-125" font-family="Helvetica,sans-Serif" font-size="10.00">llvm/IR/LegacyPassManager.h</text>
</g>
<!-- Node9&#45;&gt;Node10 -->
<g id="edge14" class="edge"><title>Node9&#45;&gt;Node10</title>
<path fill="none" stroke="midnightblue" d="M354.488,-179.396C357.421,-169.863 361.323,-157.182 364.498,-146.862"/>
<polygon fill="midnightblue" stroke="midnightblue" points="367.877,-147.782 367.473,-137.195 361.187,-145.723 367.877,-147.782"/>
</g>
<!-- Node11 -->
<g id="node12" class="node"><title>Node11</title>
<polygon fill="white" stroke="#bfbfbf" points="464.148,-118 464.148,-137 518.148,-137 518.148,-118 464.148,-118"/>
<text text-anchor="middle" x="491.148" y="-125" font-family="Helvetica,sans-Serif" font-size="10.00">iostream</text>
</g>
<!-- Node9&#45;&gt;Node11 -->
<g id="edge16" class="edge"><title>Node9&#45;&gt;Node11</title>
<path fill="none" stroke="midnightblue" d="M380.743,-179.396C405.373,-168.041 439.694,-152.22 463.504,-141.244"/>
<polygon fill="midnightblue" stroke="midnightblue" points="465.078,-144.372 472.694,-137.007 462.148,-138.015 465.078,-144.372"/>
</g>
</g>
</svg>
        <g id="navigator" transform="translate(0 0)" fill="#404254">
                <rect fill="#f2f5e9" fill-opacity="0.5" stroke="#606060" stroke-width=".5" x="0" y="0" width="60" height="60"/>
                <use id="zoomplus" xlink:href="#zoomPlus" x="17" y="9" onmousedown="handleZoom(evt,'in')"/>
                <use id="zoomminus" xlink:href="#zoomMin" x="42" y="9" onmousedown="handleZoom(evt,'out')"/>
                <use id="reset" xlink:href="#resetDef" x="30" y="36" onmousedown="handleReset()"/>
                <g id="arrowUp" xlink:href="#dirArrow" transform="translate(30 24)" onmousedown="handlePan(0,-1)">
                  <use xlink:href="#rim" fill="#404040">
                        <set attributeName="fill" to="#808080" begin="arrowUp.mouseover" end="arrowUp.mouseout"/>
                  </use>
                  <path fill="none" stroke="white" stroke-width="1.5" d="M0,-3.0v7 M-2.5,-0.5L0,-3.0L2.5,-0.5"/>
                </g>
                <g id="arrowRight" xlink:href="#dirArrow" transform="rotate(90) translate(36 -43)" onmousedown="handlePan(1,0)">
                  <use xlink:href="#rim" fill="#404040">
                        <set attributeName="fill" to="#808080" begin="arrowRight.mouseover" end="arrowRight.mouseout"/>
                  </use>
                  <path fill="none" stroke="white" stroke-width="1.5" d="M0,-3.0v7 M-2.5,-0.5L0,-3.0L2.5,-0.5"/>
                </g>
                <g id="arrowDown" xlink:href="#dirArrow" transform="rotate(180) translate(-30 -48)" onmousedown="handlePan(0,1)">
                  <use xlink:href="#rim" fill="#404040">
                        <set attributeName="fill" to="#808080" begin="arrowDown.mouseover" end="arrowDown.mouseout"/>
                  </use>
                  <path fill="none" stroke="white" stroke-width="1.5" d="M0,-3.0v7 M-2.5,-0.5L0,-3.0L2.5,-0.5"/>
                </g>
                <g id="arrowLeft" xlink:href="#dirArrow" transform="rotate(270) translate(-36 17)" onmousedown="handlePan(-1,0)">
                  <use xlink:href="#rim" fill="#404040">
                        <set attributeName="fill" to="#808080" begin="arrowLeft.mouseover" end="arrowLeft.mouseout"/>
                  </use>
                  <path fill="none" stroke="white" stroke-width="1.5" d="M0,-3.0v7 M-2.5,-0.5L0,-3.0L2.5,-0.5"/>
                </g>
        </g>
        <svg viewBox="0 0 15 15" width="100%" height="30px" preserveAspectRatio="xMaxYMin meet">
         <g id="arrow_out" transform="scale(0.3 0.3)">
          <a xlink:href="OptimizationSet_8h__incl_org.svg" target="_base">
           <rect id="button" ry="5" rx="5" y="6" x="6" height="38" width="38"
                fill="#f2f5e9" fill-opacity="0.5" stroke="#606060" stroke-width="1.0"/>
           <path id="arrow"
             d="M 11.500037,31.436501 C 11.940474,20.09759 22.043105,11.32322 32.158766,21.979434 L 37.068811,17.246167 C 37.068811,17.246167 37.088388,32 37.088388,32 L 22.160133,31.978069 C 22.160133,31.978069 26.997745,27.140456 26.997745,27.140456 C 18.528582,18.264221 13.291696,25.230495 11.500037,31.436501 z"
             style="fill:#404040;"/>
          </a>
         </g>
        </svg>
</svg>
