<?xml version="1.0" encoding="UTF-8" standalone="no"?>
<!DOCTYPE svg PUBLIC "-//W3C//DTD SVG 1.1//EN"
 "http://www.w3.org/Graphics/SVG/1.1/DTD/svg11.dtd">
<!-- Generated by graphviz version 2.38.0 (20140413.2041)
 -->
<!-- Title: /home/yukiosir/workspace/CompilerProject/Software/pinhao/include/pinhao/Optimizer/OptimizationInfo.h Pages: 1 -->
<svg width="1179pt" height="328pt"
 viewBox="0.00 0.00 1179.00 328.00" xmlns="http://www.w3.org/2000/svg" xmlns:xlink="http://www.w3.org/1999/xlink">
<g id="graph0" class="graph" transform="scale(1 1) rotate(0) translate(4 324)">
<title>/home/yukiosir/workspace/CompilerProject/Software/pinhao/include/pinhao/Optimizer/OptimizationInfo.h</title>
<polygon fill="white" stroke="none" points="-4,4 -4,-324 1175,-324 1175,4 -4,4"/>
<!-- Node8 -->
<g id="node1" class="node"><title>Node8</title>
<polygon fill="#bfbfbf" stroke="black" points="794,-267.5 794,-319.5 952,-319.5 952,-267.5 794,-267.5"/>
<text text-anchor="start" x="802" y="-307.5" font-family="Helvetica,sans-Serif" font-size="10.00">/home/yukiosir/workspace</text>
<text text-anchor="start" x="802" y="-296.5" font-family="Helvetica,sans-Serif" font-size="10.00">/CompilerProject/Software</text>
<text text-anchor="start" x="802" y="-285.5" font-family="Helvetica,sans-Serif" font-size="10.00">/pinhao/include/pinhao/Optimizer</text>
<text text-anchor="middle" x="873" y="-274.5" font-family="Helvetica,sans-Serif" font-size="10.00">/OptimizationInfo.h</text>
</g>
<!-- Node9 -->
<g id="node2" class="node"><title>Node9</title>
<g id="a_node2"><a xlink:href="OptimizationSequence_8h.html" target="_top" xlink:title="/home/yukiosir/workspace\l/CompilerProject/Software\l/pinhao/include/pinhao/Optimizer\l/OptimizationSequence.h">
<polygon fill="white" stroke="black" points="675,-178.5 675,-230.5 833,-230.5 833,-178.5 675,-178.5"/>
<text text-anchor="start" x="683" y="-218.5" font-family="Helvetica,sans-Serif" font-size="10.00">/home/yukiosir/workspace</text>
<text text-anchor="start" x="683" y="-207.5" font-family="Helvetica,sans-Serif" font-size="10.00">/CompilerProject/Software</text>
<text text-anchor="start" x="683" y="-196.5" font-family="Helvetica,sans-Serif" font-size="10.00">/pinhao/include/pinhao/Optimizer</text>
<text text-anchor="middle" x="754" y="-185.5" font-family="Helvetica,sans-Serif" font-size="10.00">/OptimizationSequence.h</text>
</a>
</g>
</g>
<!-- Node8&#45;&gt;Node9 -->
<g id="edge1" class="edge"><title>Node8&#45;&gt;Node9</title>
<path fill="none" stroke="midnightblue" d="M830.213,-261.219C816.459,-251.164 801.409,-240.16 788.342,-230.607"/>
<polygon fill="midnightblue" stroke="midnightblue" points="828.442,-264.26 838.58,-267.336 832.573,-258.609 828.442,-264.26"/>
</g>
<!-- Node10 -->
<g id="node3" class="node"><title>Node10</title>
<g id="a_node3"><a xlink:href="OptimizationSet_8h.html" target="_top" xlink:title="/home/yukiosir/workspace\l/CompilerProject/Software\l/pinhao/include/pinhao/Optimizer\l/OptimizationSet.h">
<polygon fill="white" stroke="black" points="539,-89.5 539,-141.5 697,-141.5 697,-89.5 539,-89.5"/>
<text text-anchor="start" x="547" y="-129.5" font-family="Helvetica,sans-Serif" font-size="10.00">/home/yukiosir/workspace</text>
<text text-anchor="start" x="547" y="-118.5" font-family="Helvetica,sans-Serif" font-size="10.00">/CompilerProject/Software</text>
<text text-anchor="start" x="547" y="-107.5" font-family="Helvetica,sans-Serif" font-size="10.00">/pinhao/include/pinhao/Optimizer</text>
<text text-anchor="middle" x="618" y="-96.5" font-family="Helvetica,sans-Serif" font-size="10.00">/OptimizationSet.h</text>
</a>
</g>
</g>
<!-- Node8&#45;&gt;Node10 -->
<g id="edge13" class="edge"><title>Node8&#45;&gt;Node10</title>
<path fill="none" stroke="midnightblue" d="M783.713,-283.433C743.665,-275.313 698.283,-259.967 666,-231 639.85,-207.536 627.541,-167.532 622.048,-141.564"/>
<polygon fill="midnightblue" stroke="midnightblue" points="783.291,-286.915 793.768,-285.346 784.599,-280.039 783.291,-286.915"/>
</g>
<!-- Node15 -->
<g id="node8" class="node"><title>Node15</title>
<g id="a_node8"><a xlink:href="OptimizationSequence_8cpp.html" target="_top" xlink:title="/home/yukiosir/workspace\l/CompilerProject/Software\l/pinhao/lib/Optimizer/Optimization\lSequence.cpp">
<polygon fill="white" stroke="black" points="825,-0.5 825,-52.5 989,-52.5 989,-0.5 825,-0.5"/>
<text text-anchor="start" x="833" y="-40.5" font-family="Helvetica,sans-Serif" font-size="10.00">/home/yukiosir/workspace</text>
<text text-anchor="start" x="833" y="-29.5" font-family="Helvetica,sans-Serif" font-size="10.00">/CompilerProject/Software</text>
<text text-anchor="start" x="833" y="-18.5" font-family="Helvetica,sans-Serif" font-size="10.00">/pinhao/lib/Optimizer/Optimization</text>
<text text-anchor="middle" x="907" y="-7.5" font-family="Helvetica,sans-Serif" font-size="10.00">Sequence.cpp</text>
</a>
</g>
</g>
<!-- Node8&#45;&gt;Node15 -->
<g id="edge14" class="edge"><title>Node8&#45;&gt;Node15</title>
<path fill="none" stroke="midnightblue" d="M900.481,-259.253C922.503,-230.308 951.685,-186.169 964,-142 970.326,-119.31 972.6,-110.93 964,-89 958.632,-75.3116 948.627,-62.8514 938.48,-52.781"/>
<polygon fill="midnightblue" stroke="midnightblue" points="897.552,-257.318 894.192,-267.365 903.085,-261.606 897.552,-257.318"/>
</g>
<!-- Node16 -->
<g id="node9" class="node"><title>Node16</title>
<g id="a_node9"><a xlink:href="OptimizationSet_8cpp.html" target="_top" xlink:title="/home/yukiosir/workspace\l/CompilerProject/Software\l/pinhao/lib/Optimizer/Optimization\lSet.cpp">
<polygon fill="white" stroke="black" points="1007,-0.5 1007,-52.5 1171,-52.5 1171,-0.5 1007,-0.5"/>
<text text-anchor="start" x="1015" y="-40.5" font-family="Helvetica,sans-Serif" font-size="10.00">/home/yukiosir/workspace</text>
<text text-anchor="start" x="1015" y="-29.5" font-family="Helvetica,sans-Serif" font-size="10.00">/CompilerProject/Software</text>
<text text-anchor="start" x="1015" y="-18.5" font-family="Helvetica,sans-Serif" font-size="10.00">/pinhao/lib/Optimizer/Optimization</text>
<text text-anchor="middle" x="1089" y="-7.5" font-family="Helvetica,sans-Serif" font-size="10.00">Set.cpp</text>
</a>
</g>
</g>
<!-- Node8&#45;&gt;Node16 -->
<g id="edge15" class="edge"><title>Node8&#45;&gt;Node16</title>
<path fill="none" stroke="midnightblue" d="M917.134,-260.943C928.437,-251.897 940.167,-241.596 950,-231 1003.69,-173.137 1052.19,-92.9776 1075.09,-52.7147"/>
<polygon fill="midnightblue" stroke="midnightblue" points="914.733,-258.378 909.011,-267.295 919.045,-263.892 914.733,-258.378"/>
</g>
<!-- Node17 -->
<g id="node10" class="node"><title>Node17</title>
<g id="a_node10"><a xlink:href="OptimizerYAMLWrapper_8cpp.html" target="_top" xlink:title="/home/yukiosir/workspace\l/CompilerProject/Software\l/pinhao/lib/Support/YAMLWrapper\l/OptimizerYAMLWrapper.cpp">
<polygon fill="white" stroke="black" points="791,-89.5 791,-141.5 955,-141.5 955,-89.5 791,-89.5"/>
<text text-anchor="start" x="799" y="-129.5" font-family="Helvetica,sans-Serif" font-size="10.00">/home/yukiosir/workspace</text>
<text text-anchor="start" x="799" y="-118.5" font-family="Helvetica,sans-Serif" font-size="10.00">/CompilerProject/Software</text>
<text text-anchor="start" x="799" y="-107.5" font-family="Helvetica,sans-Serif" font-size="10.00">/pinhao/lib/Support/YAMLWrapper</text>
<text text-anchor="middle" x="873" y="-96.5" font-family="Helvetica,sans-Serif" font-size="10.00">/OptimizerYAMLWrapper.cpp</text>
</a>
</g>
</g>
<!-- Node8&#45;&gt;Node17 -->
<g id="edge16" class="edge"><title>Node8&#45;&gt;Node17</title>
<path fill="none" stroke="midnightblue" d="M873,-257.249C873,-223.038 873,-171.969 873,-141.67"/>
<polygon fill="midnightblue" stroke="midnightblue" points="869.5,-257.283 873,-267.283 876.5,-257.284 869.5,-257.283"/>
</g>
<!-- Node9&#45;&gt;Node10 -->
<g id="edge2" class="edge"><title>Node9&#45;&gt;Node10</title>
<path fill="none" stroke="midnightblue" d="M705.989,-172.787C690.032,-162.579 672.463,-151.341 657.248,-141.607"/>
<polygon fill="midnightblue" stroke="midnightblue" points="704.353,-175.896 714.663,-178.336 708.125,-169.999 704.353,-175.896"/>
</g>
<!-- Node13 -->
<g id="node6" class="node"><title>Node13</title>
<g id="a_node6"><a xlink:href="OptimizationInfo_8cpp.html" target="_top" xlink:title="/home/yukiosir/workspace\l/CompilerProject/Software\l/pinhao/lib/Optimizer/Optimization\lInfo.cpp">
<polygon fill="white" stroke="black" points="643,-0.5 643,-52.5 807,-52.5 807,-0.5 643,-0.5"/>
<text text-anchor="start" x="651" y="-40.5" font-family="Helvetica,sans-Serif" font-size="10.00">/home/yukiosir/workspace</text>
<text text-anchor="start" x="651" y="-29.5" font-family="Helvetica,sans-Serif" font-size="10.00">/CompilerProject/Software</text>
<text text-anchor="start" x="651" y="-18.5" font-family="Helvetica,sans-Serif" font-size="10.00">/pinhao/lib/Optimizer/Optimization</text>
<text text-anchor="middle" x="725" y="-7.5" font-family="Helvetica,sans-Serif" font-size="10.00">Info.cpp</text>
</a>
</g>
</g>
<!-- Node9&#45;&gt;Node13 -->
<g id="edge9" class="edge"><title>Node9&#45;&gt;Node13</title>
<path fill="none" stroke="midnightblue" d="M748.192,-168.249C742.555,-134.038 734.14,-82.9693 729.147,-52.6697"/>
<polygon fill="midnightblue" stroke="midnightblue" points="744.766,-168.986 749.845,-178.283 751.673,-167.847 744.766,-168.986"/>
</g>
<!-- Node14 -->
<g id="node7" class="node"><title>Node14</title>
<g id="a_node7"><a xlink:href="Optimizations_8cpp.html" target="_top" xlink:title="/home/yukiosir/workspace\l/CompilerProject/Software\l/pinhao/lib/Optimizer/Optimizations.cpp">
<polygon fill="white" stroke="black" points="0,-6 0,-47 188,-47 188,-6 0,-6"/>
<text text-anchor="start" x="8" y="-35" font-family="Helvetica,sans-Serif" font-size="10.00">/home/yukiosir/workspace</text>
<text text-anchor="start" x="8" y="-24" font-family="Helvetica,sans-Serif" font-size="10.00">/CompilerProject/Software</text>
<text text-anchor="middle" x="94" y="-13" font-family="Helvetica,sans-Serif" font-size="10.00">/pinhao/lib/Optimizer/Optimizations.cpp</text>
</a>
</g>
</g>
<!-- Node9&#45;&gt;Node14 -->
<g id="edge10" class="edge"><title>Node9&#45;&gt;Node14</title>
<path fill="none" stroke="midnightblue" d="M665.053,-179.781C533.471,-144.692 289.391,-79.6043 167.395,-47.072"/>
<polygon fill="midnightblue" stroke="midnightblue" points="664.152,-183.163 674.717,-182.358 665.956,-176.399 664.152,-183.163"/>
</g>
<!-- Node9&#45;&gt;Node15 -->
<g id="edge11" class="edge"><title>Node9&#45;&gt;Node15</title>
<path fill="none" stroke="midnightblue" d="M754.986,-168.036C757.367,-143.486 764.059,-111.337 782,-89 794.495,-73.4436 811.919,-61.5267 829.797,-52.5191"/>
<polygon fill="midnightblue" stroke="midnightblue" points="751.494,-167.8 754.209,-178.041 758.473,-168.342 751.494,-167.8"/>
</g>
<!-- Node9&#45;&gt;Node17 -->
<g id="edge12" class="edge"><title>Node9&#45;&gt;Node17</title>
<path fill="none" stroke="midnightblue" d="M796.787,-172.219C810.541,-162.164 825.591,-151.16 838.658,-141.607"/>
<polygon fill="midnightblue" stroke="midnightblue" points="794.427,-169.609 788.42,-178.336 798.558,-175.26 794.427,-169.609"/>
</g>
<!-- Node11 -->
<g id="node4" class="node"><title>Node11</title>
<g id="a_node4"><a xlink:href="Candidate_8cpp.html" target="_top" xlink:title="/home/yukiosir/workspace\l/CompilerProject/Software\l/pinhao/lib/MachineLearning\l/GrammarEvolution/Candidate.cpp">
<polygon fill="white" stroke="black" points="206.5,-0.5 206.5,-52.5 373.5,-52.5 373.5,-0.5 206.5,-0.5"/>
<text text-anchor="start" x="214.5" y="-40.5" font-family="Helvetica,sans-Serif" font-size="10.00">/home/yukiosir/workspace</text>
<text text-anchor="start" x="214.5" y="-29.5" font-family="Helvetica,sans-Serif" font-size="10.00">/CompilerProject/Software</text>
<text text-anchor="start" x="214.5" y="-18.5" font-family="Helvetica,sans-Serif" font-size="10.00">/pinhao/lib/MachineLearning</text>
<text text-anchor="middle" x="290" y="-7.5" font-family="Helvetica,sans-Serif" font-size="10.00">/GrammarEvolution/Candidate.cpp</text>
</a>
</g>
</g>
<!-- Node10&#45;&gt;Node11 -->
<g id="edge3" class="edge"><title>Node10&#45;&gt;Node11</title>
<path fill="none" stroke="midnightblue" d="M529.121,-91.685C484.861,-80.2356 430.562,-66.0567 382,-53 379.279,-52.2684 376.514,-51.5215 373.722,-50.7646"/>
<polygon fill="midnightblue" stroke="midnightblue" points="528.426,-95.1204 538.984,-94.2343 530.178,-88.3431 528.426,-95.1204"/>
</g>
<!-- Node12 -->
<g id="node5" class="node"><title>Node12</title>
<g id="a_node5"><a xlink:href="SimpleGrammarEvolution_8cpp.html" target="_top" xlink:title="/home/yukiosir/workspace\l/CompilerProject/Software\l/pinhao/lib/MachineLearning\l/GrammarEvolution/SimpleGrammarEvolution.cpp">
<polygon fill="white" stroke="black" points="391.5,-0.5 391.5,-52.5 624.5,-52.5 624.5,-0.5 391.5,-0.5"/>
<text text-anchor="start" x="399.5" y="-40.5" font-family="Helvetica,sans-Serif" font-size="10.00">/home/yukiosir/workspace</text>
<text text-anchor="start" x="399.5" y="-29.5" font-family="Helvetica,sans-Serif" font-size="10.00">/CompilerProject/Software</text>
<text text-anchor="start" x="399.5" y="-18.5" font-family="Helvetica,sans-Serif" font-size="10.00">/pinhao/lib/MachineLearning</text>
<text text-anchor="middle" x="508" y="-7.5" font-family="Helvetica,sans-Serif" font-size="10.00">/GrammarEvolution/SimpleGrammarEvolution.cpp</text>
</a>
</g>
</g>
<!-- Node10&#45;&gt;Node12 -->
<g id="edge4" class="edge"><title>Node10&#45;&gt;Node12</title>
<path fill="none" stroke="midnightblue" d="M578.089,-82.9342C565.473,-72.9562 551.709,-62.0702 539.745,-52.6075"/>
<polygon fill="midnightblue" stroke="midnightblue" points="576.169,-85.8778 586.183,-89.336 580.511,-80.3874 576.169,-85.8778"/>
</g>
<!-- Node10&#45;&gt;Node13 -->
<g id="edge5" class="edge"><title>Node10&#45;&gt;Node13</title>
<path fill="none" stroke="midnightblue" d="M656.822,-82.9342C669.094,-72.9562 682.483,-62.0702 694.121,-52.6075"/>
<polygon fill="midnightblue" stroke="midnightblue" points="654.5,-80.3117 648.949,-89.336 658.916,-85.7429 654.5,-80.3117"/>
</g>
<!-- Node10&#45;&gt;Node14 -->
<g id="edge6" class="edge"><title>Node10&#45;&gt;Node14</title>
<path fill="none" stroke="midnightblue" d="M528.922,-104.052C443.414,-93.4193 310.821,-75.3475 197,-53 187.962,-51.2254 178.525,-49.1713 169.19,-47.0145"/>
<polygon fill="midnightblue" stroke="midnightblue" points="528.499,-107.527 538.853,-105.28 529.358,-100.579 528.499,-107.527"/>
</g>
<!-- Node10&#45;&gt;Node15 -->
<g id="edge7" class="edge"><title>Node10&#45;&gt;Node15</title>
<path fill="none" stroke="midnightblue" d="M707.257,-87.6304C744.755,-76.342 788.096,-63.2947 824.803,-52.2445"/>
<polygon fill="midnightblue" stroke="midnightblue" points="705.919,-84.3777 697.353,-90.6118 707.937,-91.0806 705.919,-84.3777"/>
</g>
<!-- Node10&#45;&gt;Node16 -->
<g id="edge8" class="edge"><title>Node10&#45;&gt;Node16</title>
<path fill="none" stroke="midnightblue" d="M707.412,-100.573C810.727,-84.3944 970.169,-59.131 998,-53 1000.88,-52.3646 1003.81,-51.6926 1006.76,-50.9921"/>
<polygon fill="midnightblue" stroke="midnightblue" points="706.623,-97.1537 697.284,-102.158 707.705,-104.07 706.623,-97.1537"/>
</g>
</g>
</svg>
