<?xml version="1.0" encoding="UTF-8" standalone="no"?>
<!DOCTYPE svg PUBLIC "-//W3C//DTD SVG 1.1//EN"
 "http://www.w3.org/Graphics/SVG/1.1/DTD/svg11.dtd">
<!-- Generated by graphviz version 2.38.0 (20140413.2041)
 -->
<!-- Title: /home/yukiosir/workspace/CompilerProject/Software/pinhao/include/pinhao/Optimizer/OptimizationSequence.h Pages: 1 -->
<svg width="742pt" height="239pt"
 viewBox="0.00 0.00 742.00 239.00" xmlns="http://www.w3.org/2000/svg" xmlns:xlink="http://www.w3.org/1999/xlink">
<g id="graph0" class="graph" transform="scale(1 1) rotate(0) translate(4 235)">
<title>/home/yukiosir/workspace/CompilerProject/Software/pinhao/include/pinhao/Optimizer/OptimizationSequence.h</title>
<polygon fill="white" stroke="none" points="-4,4 -4,-235 738,-235 738,4 -4,4"/>
<!-- Node11 -->
<g id="node1" class="node"><title>Node11</title>
<polygon fill="#bfbfbf" stroke="black" points="304,-178.5 304,-230.5 462,-230.5 462,-178.5 304,-178.5"/>
<text text-anchor="start" x="312" y="-218.5" font-family="Helvetica,sans-Serif" font-size="10.00">/home/yukiosir/workspace</text>
<text text-anchor="start" x="312" y="-207.5" font-family="Helvetica,sans-Serif" font-size="10.00">/CompilerProject/Software</text>
<text text-anchor="start" x="312" y="-196.5" font-family="Helvetica,sans-Serif" font-size="10.00">/pinhao/include/pinhao/Optimizer</text>
<text text-anchor="middle" x="383" y="-185.5" font-family="Helvetica,sans-Serif" font-size="10.00">/OptimizationSequence.h</text>
</g>
<!-- Node12 -->
<g id="node2" class="node"><title>Node12</title>
<g id="a_node2"><a xlink:href="OptimizationSet_8h.html" target="_top" xlink:title="/home/yukiosir/workspace\l/CompilerProject/Software\l/pinhao/include/pinhao/Optimizer\l/OptimizationSet.h">
<polygon fill="white" stroke="black" points="304,-89.5 304,-141.5 462,-141.5 462,-89.5 304,-89.5"/>
<text text-anchor="start" x="312" y="-129.5" font-family="Helvetica,sans-Serif" font-size="10.00">/home/yukiosir/workspace</text>
<text text-anchor="start" x="312" y="-118.5" font-family="Helvetica,sans-Serif" font-size="10.00">/CompilerProject/Software</text>
<text text-anchor="start" x="312" y="-107.5" font-family="Helvetica,sans-Serif" font-size="10.00">/pinhao/include/pinhao/Optimizer</text>
<text text-anchor="middle" x="383" y="-96.5" font-family="Helvetica,sans-Serif" font-size="10.00">/OptimizationSet.h</text>
</a>
</g>
</g>
<!-- Node11&#45;&gt;Node12 -->
<g id="edge1" class="edge"><title>Node11&#45;&gt;Node12</title>
<path fill="none" stroke="midnightblue" d="M383,-168.191C383,-159.282 383,-149.899 383,-141.607"/>
<polygon fill="midnightblue" stroke="midnightblue" points="379.5,-168.336 383,-178.336 386.5,-168.336 379.5,-168.336"/>
</g>
<!-- Node13 -->
<g id="node3" class="node"><title>Node13</title>
<g id="a_node3"><a xlink:href="OptimizationInfo_8cpp.html" target="_top" xlink:title="/home/yukiosir/workspace\l/CompilerProject/Software\l/pinhao/lib/Optimizer/Optimization\lInfo.cpp">
<polygon fill="white" stroke="black" points="0,-0.5 0,-52.5 164,-52.5 164,-0.5 0,-0.5"/>
<text text-anchor="start" x="8" y="-40.5" font-family="Helvetica,sans-Serif" font-size="10.00">/home/yukiosir/workspace</text>
<text text-anchor="start" x="8" y="-29.5" font-family="Helvetica,sans-Serif" font-size="10.00">/CompilerProject/Software</text>
<text text-anchor="start" x="8" y="-18.5" font-family="Helvetica,sans-Serif" font-size="10.00">/pinhao/lib/Optimizer/Optimization</text>
<text text-anchor="middle" x="82" y="-7.5" font-family="Helvetica,sans-Serif" font-size="10.00">Info.cpp</text>
</a>
</g>
</g>
<!-- Node11&#45;&gt;Node13 -->
<g id="edge6" class="edge"><title>Node11&#45;&gt;Node13</title>
<path fill="none" stroke="midnightblue" d="M328.277,-173.332C310.574,-163.459 290.897,-152.364 273,-142 220.975,-111.872 161.681,-76.0988 123.143,-52.6544"/>
<polygon fill="midnightblue" stroke="midnightblue" points="326.895,-176.569 337.335,-178.374 330.299,-170.452 326.895,-176.569"/>
</g>
<!-- Node14 -->
<g id="node4" class="node"><title>Node14</title>
<g id="a_node4"><a xlink:href="Optimizations_8cpp.html" target="_top" xlink:title="/home/yukiosir/workspace\l/CompilerProject/Software\l/pinhao/lib/Optimizer/Optimizations.cpp">
<polygon fill="white" stroke="black" points="182,-6 182,-47 370,-47 370,-6 182,-6"/>
<text text-anchor="start" x="190" y="-35" font-family="Helvetica,sans-Serif" font-size="10.00">/home/yukiosir/workspace</text>
<text text-anchor="start" x="190" y="-24" font-family="Helvetica,sans-Serif" font-size="10.00">/CompilerProject/Software</text>
<text text-anchor="middle" x="276" y="-13" font-family="Helvetica,sans-Serif" font-size="10.00">/pinhao/lib/Optimizer/Optimizations.cpp</text>
</a>
</g>
</g>
<!-- Node11&#45;&gt;Node14 -->
<g id="edge7" class="edge"><title>Node11&#45;&gt;Node14</title>
<path fill="none" stroke="midnightblue" d="M324.342,-172.42C313.051,-163.954 302.44,-153.798 295,-142 276.62,-112.854 274.317,-71.5577 274.814,-47.3472"/>
<polygon fill="midnightblue" stroke="midnightblue" points="322.461,-175.376 332.649,-178.285 326.498,-169.658 322.461,-175.376"/>
</g>
<!-- Node15 -->
<g id="node5" class="node"><title>Node15</title>
<g id="a_node5"><a xlink:href="OptimizationSequence_8cpp.html" target="_top" xlink:title="/home/yukiosir/workspace\l/CompilerProject/Software\l/pinhao/lib/Optimizer/Optimization\lSequence.cpp">
<polygon fill="white" stroke="black" points="570,-0.5 570,-52.5 734,-52.5 734,-0.5 570,-0.5"/>
<text text-anchor="start" x="578" y="-40.5" font-family="Helvetica,sans-Serif" font-size="10.00">/home/yukiosir/workspace</text>
<text text-anchor="start" x="578" y="-29.5" font-family="Helvetica,sans-Serif" font-size="10.00">/CompilerProject/Software</text>
<text text-anchor="start" x="578" y="-18.5" font-family="Helvetica,sans-Serif" font-size="10.00">/pinhao/lib/Optimizer/Optimization</text>
<text text-anchor="middle" x="652" y="-7.5" font-family="Helvetica,sans-Serif" font-size="10.00">Sequence.cpp</text>
</a>
</g>
</g>
<!-- Node11&#45;&gt;Node15 -->
<g id="edge8" class="edge"><title>Node11&#45;&gt;Node15</title>
<path fill="none" stroke="midnightblue" d="M433.485,-172.579C446.403,-163.53 459.797,-153.068 471,-142 491.618,-121.629 486.416,-107.168 509,-89 527.741,-73.9237 550.734,-61.8969 572.759,-52.6215"/>
<polygon fill="midnightblue" stroke="midnightblue" points="431.374,-169.783 425.092,-178.315 435.323,-175.562 431.374,-169.783"/>
</g>
<!-- Node17 -->
<g id="node7" class="node"><title>Node17</title>
<g id="a_node7"><a xlink:href="OptimizerYAMLWrapper_8cpp.html" target="_top" xlink:title="/home/yukiosir/workspace\l/CompilerProject/Software\l/pinhao/lib/Support/YAMLWrapper\l/OptimizerYAMLWrapper.cpp">
<polygon fill="white" stroke="black" points="518,-89.5 518,-141.5 682,-141.5 682,-89.5 518,-89.5"/>
<text text-anchor="start" x="526" y="-129.5" font-family="Helvetica,sans-Serif" font-size="10.00">/home/yukiosir/workspace</text>
<text text-anchor="start" x="526" y="-118.5" font-family="Helvetica,sans-Serif" font-size="10.00">/CompilerProject/Software</text>
<text text-anchor="start" x="526" y="-107.5" font-family="Helvetica,sans-Serif" font-size="10.00">/pinhao/lib/Support/YAMLWrapper</text>
<text text-anchor="middle" x="600" y="-96.5" font-family="Helvetica,sans-Serif" font-size="10.00">/OptimizerYAMLWrapper.cpp</text>
</a>
</g>
</g>
<!-- Node11&#45;&gt;Node17 -->
<g id="edge9" class="edge"><title>Node11&#45;&gt;Node17</title>
<path fill="none" stroke="midnightblue" d="M454.792,-174.717C481.568,-163.982 511.726,-151.891 537.591,-141.521"/>
<polygon fill="midnightblue" stroke="midnightblue" points="453.454,-171.483 445.474,-178.453 456.059,-177.98 453.454,-171.483"/>
</g>
<!-- Node12&#45;&gt;Node13 -->
<g id="edge2" class="edge"><title>Node12&#45;&gt;Node13</title>
<path fill="none" stroke="midnightblue" d="M294.177,-88.8269C253.055,-76.9412 204.505,-62.9084 164.231,-51.2677"/>
<polygon fill="midnightblue" stroke="midnightblue" points="293.337,-92.2274 303.916,-91.6418 295.281,-85.5026 293.337,-92.2274"/>
</g>
<!-- Node12&#45;&gt;Node14 -->
<g id="edge3" class="edge"><title>Node12&#45;&gt;Node14</title>
<path fill="none" stroke="midnightblue" d="M344.071,-82.8474C329.355,-70.8824 313.048,-57.6228 300.084,-47.0821"/>
<polygon fill="midnightblue" stroke="midnightblue" points="342.084,-85.7429 352.051,-89.336 346.5,-80.3117 342.084,-85.7429"/>
</g>
<!-- Node12&#45;&gt;Node15 -->
<g id="edge4" class="edge"><title>Node12&#45;&gt;Node15</title>
<path fill="none" stroke="midnightblue" d="M470.26,-86.2784C503.881,-75.4048 542.013,-63.0721 574.636,-52.5211"/>
<polygon fill="midnightblue" stroke="midnightblue" points="468.883,-83.0452 460.445,-89.4527 471.037,-89.7056 468.883,-83.0452"/>
</g>
<!-- Node16 -->
<g id="node6" class="node"><title>Node16</title>
<g id="a_node6"><a xlink:href="OptimizationSet_8cpp.html" target="_top" xlink:title="/home/yukiosir/workspace\l/CompilerProject/Software\l/pinhao/lib/Optimizer/Optimization\lSet.cpp">
<polygon fill="white" stroke="black" points="388,-0.5 388,-52.5 552,-52.5 552,-0.5 388,-0.5"/>
<text text-anchor="start" x="396" y="-40.5" font-family="Helvetica,sans-Serif" font-size="10.00">/home/yukiosir/workspace</text>
<text text-anchor="start" x="396" y="-29.5" font-family="Helvetica,sans-Serif" font-size="10.00">/CompilerProject/Software</text>
<text text-anchor="start" x="396" y="-18.5" font-family="Helvetica,sans-Serif" font-size="10.00">/pinhao/lib/Optimizer/Optimization</text>
<text text-anchor="middle" x="470" y="-7.5" font-family="Helvetica,sans-Serif" font-size="10.00">Set.cpp</text>
</a>
</g>
</g>
<!-- Node12&#45;&gt;Node16 -->
<g id="edge5" class="edge"><title>Node12&#45;&gt;Node16</title>
<path fill="none" stroke="midnightblue" d="M415.423,-82.0768C425.165,-72.3353 435.7,-61.7998 444.893,-52.6075"/>
<polygon fill="midnightblue" stroke="midnightblue" points="412.76,-79.79 408.164,-89.336 417.71,-84.7398 412.76,-79.79"/>
</g>
</g>
</svg>
