<?xml version="1.0" encoding="UTF-8" standalone="no"?>
<!DOCTYPE svg PUBLIC "-//W3C//DTD SVG 1.1//EN"
 "http://www.w3.org/Graphics/SVG/1.1/DTD/svg11.dtd">
<!-- Generated by graphviz version 2.38.0 (20140413.2041)
 -->
<!-- Title: /home/yukiosir/workspace/CompilerProject/Software/pinhao/include/pinhao/Optimizer/OptimizationSequence.h Pages: 1 -->
<!--zoomable 239 -->
<svg id="main" version="1.1" xmlns="http://www.w3.org/2000/svg" xmlns:xlink="http://www.w3.org/1999/xlink" xml:space="preserve" onload="init(evt)">
<style type="text/css"><![CDATA[
.edge:hover path { stroke: red; }
.edge:hover polygon { stroke: red; fill: red; }
]]></style>
<script type="text/javascript"><![CDATA[
var edges = document.getElementsByTagName('g');
if (edges && edges.length) {
  for (var i=0;i<edges.length;i++) {
    if (edges[i].id.substr(0,4)=='edge') {
      edges[i].setAttribute('class','edge');
    }
  }
}
]]></script>
        <defs>
                <circle id="rim" cx="0" cy="0" r="7"/>
                <circle id="rim2" cx="0" cy="0" r="3.5"/>
                <g id="zoomPlus">
                        <use xlink:href="#rim" fill="#404040">
                                <set attributeName="fill" to="#808080" begin="zoomplus.mouseover" end="zoomplus.mouseout"/>
                        </use>
                        <path d="M-4,0h8M0,-4v8" fill="none" stroke="white" stroke-width="1.5" pointer-events="none"/>
                </g>
                <g id="zoomMin">
                        <use xlink:href="#rim" fill="#404040">
                                <set attributeName="fill" to="#808080" begin="zoomminus.mouseover" end="zoomminus.mouseout"/>
                        </use>
                        <path d="M-4,0h8" fill="none" stroke="white" stroke-width="1.5" pointer-events="none"/>
                </g>
                <g id="dirArrow">
                        <path fill="none" stroke="white" stroke-width="1.5" d="M0,-3.0v7 M-2.5,-0.5L0,-3.0L2.5,-0.5"/>
                </g>
               <g id="resetDef">
                       <use xlink:href="#rim2" fill="#404040">
                               <set attributeName="fill" to="#808080" begin="reset.mouseover" end="reset.mouseout"/>
                       </use>
               </g>
        </defs>

<script type="text/javascript">
var viewWidth = 1179;
var viewHeight = 239;
var sectionId = 'dynsection-1';
</script>
<script xlink:href="svgpan.js"/>
<svg id="graph" class="graph">
<g id="viewport">
<title>/home/yukiosir/workspace/CompilerProject/Software/pinhao/include/pinhao/Optimizer/OptimizationSequence.h</title>
<polygon fill="white" stroke="none" points="-4,4 -4,-235 1175,-235 1175,4 -4,4"/>
<!-- Node11 -->
<g id="node1" class="node"><title>Node11</title>
<polygon fill="#bfbfbf" stroke="black" points="772,-178.5 772,-230.5 930,-230.5 930,-178.5 772,-178.5"/>
<text text-anchor="start" x="780" y="-218.5" font-family="Helvetica,sans-Serif" font-size="10.00">/home/yukiosir/workspace</text>
<text text-anchor="start" x="780" y="-207.5" font-family="Helvetica,sans-Serif" font-size="10.00">/CompilerProject/Software</text>
<text text-anchor="start" x="780" y="-196.5" font-family="Helvetica,sans-Serif" font-size="10.00">/pinhao/include/pinhao/Optimizer</text>
<text text-anchor="middle" x="851" y="-185.5" font-family="Helvetica,sans-Serif" font-size="10.00">/OptimizationSequence.h</text>
</g>
<!-- Node12 -->
<g id="node2" class="node"><title>Node12</title>
<g id="a_node2"><a xlink:href="OptimizationSet_8h.html" target="_top" xlink:title="/home/yukiosir/workspace\l/CompilerProject/Software\l/pinhao/include/pinhao/Optimizer\l/OptimizationSet.h">
<polygon fill="white" stroke="black" points="622,-89.5 622,-141.5 780,-141.5 780,-89.5 622,-89.5"/>
<text text-anchor="start" x="630" y="-129.5" font-family="Helvetica,sans-Serif" font-size="10.00">/home/yukiosir/workspace</text>
<text text-anchor="start" x="630" y="-118.5" font-family="Helvetica,sans-Serif" font-size="10.00">/CompilerProject/Software</text>
<text text-anchor="start" x="630" y="-107.5" font-family="Helvetica,sans-Serif" font-size="10.00">/pinhao/include/pinhao/Optimizer</text>
<text text-anchor="middle" x="701" y="-96.5" font-family="Helvetica,sans-Serif" font-size="10.00">/OptimizationSet.h</text>
</a>
</g>
</g>
<!-- Node11&#45;&gt;Node12 -->
<g id="edge1" class="edge"><title>Node11&#45;&gt;Node12</title>
<path fill="none" stroke="midnightblue" d="M798.535,-173.07C780.806,-162.788 761.225,-151.431 744.289,-141.607"/>
<polygon fill="midnightblue" stroke="midnightblue" points="797.207,-176.346 807.614,-178.336 800.719,-170.291 797.207,-176.346"/>
</g>
<!-- Node15 -->
<g id="node5" class="node"><title>Node15</title>
<g id="a_node5"><a xlink:href="OptimizationInfo_8cpp.html" target="_top" xlink:title="/home/yukiosir/workspace\l/CompilerProject/Software\l/pinhao/lib/Optimizer/Optimization\lInfo.cpp">
<polygon fill="white" stroke="black" points="0,-0.5 0,-52.5 164,-52.5 164,-0.5 0,-0.5"/>
<text text-anchor="start" x="8" y="-40.5" font-family="Helvetica,sans-Serif" font-size="10.00">/home/yukiosir/workspace</text>
<text text-anchor="start" x="8" y="-29.5" font-family="Helvetica,sans-Serif" font-size="10.00">/CompilerProject/Software</text>
<text text-anchor="start" x="8" y="-18.5" font-family="Helvetica,sans-Serif" font-size="10.00">/pinhao/lib/Optimizer/Optimization</text>
<text text-anchor="middle" x="82" y="-7.5" font-family="Helvetica,sans-Serif" font-size="10.00">Info.cpp</text>
</a>
</g>
</g>
<!-- Node11&#45;&gt;Node15 -->
<g id="edge8" class="edge"><title>Node11&#45;&gt;Node15</title>
<path fill="none" stroke="midnightblue" d="M761.945,-185.356C631.994,-158.512 383.007,-105.69 173,-53 170.135,-52.2813 167.224,-51.5376 164.286,-50.776"/>
<polygon fill="midnightblue" stroke="midnightblue" points="761.355,-188.808 771.856,-187.401 762.77,-181.952 761.355,-188.808"/>
</g>
<!-- Node16 -->
<g id="node6" class="node"><title>Node16</title>
<g id="a_node6"><a xlink:href="Optimizations_8cpp.html" target="_top" xlink:title="/home/yukiosir/workspace\l/CompilerProject/Software\l/pinhao/lib/Optimizer/Optimizations.cpp">
<polygon fill="white" stroke="black" points="801,-6 801,-47 989,-47 989,-6 801,-6"/>
<text text-anchor="start" x="809" y="-35" font-family="Helvetica,sans-Serif" font-size="10.00">/home/yukiosir/workspace</text>
<text text-anchor="start" x="809" y="-24" font-family="Helvetica,sans-Serif" font-size="10.00">/CompilerProject/Software</text>
<text text-anchor="middle" x="895" y="-13" font-family="Helvetica,sans-Serif" font-size="10.00">/pinhao/lib/Optimizer/Optimizations.cpp</text>
</a>
</g>
</g>
<!-- Node11&#45;&gt;Node16 -->
<g id="edge9" class="edge"><title>Node11&#45;&gt;Node16</title>
<path fill="none" stroke="midnightblue" d="M857.34,-168.401C861.704,-145.623 867.968,-115.379 875,-89 878.788,-74.7883 883.937,-59.0172 888.061,-47.0041"/>
<polygon fill="midnightblue" stroke="midnightblue" points="853.887,-167.825 855.473,-178.3 860.766,-169.122 853.887,-167.825"/>
</g>
<!-- Node17 -->
<g id="node7" class="node"><title>Node17</title>
<g id="a_node7"><a xlink:href="OptimizationSequence_8cpp.html" target="_top" xlink:title="/home/yukiosir/workspace\l/CompilerProject/Software\l/pinhao/lib/Optimizer/Optimization\lSequence.cpp">
<polygon fill="white" stroke="black" points="1007,-0.5 1007,-52.5 1171,-52.5 1171,-0.5 1007,-0.5"/>
<text text-anchor="start" x="1015" y="-40.5" font-family="Helvetica,sans-Serif" font-size="10.00">/home/yukiosir/workspace</text>
<text text-anchor="start" x="1015" y="-29.5" font-family="Helvetica,sans-Serif" font-size="10.00">/CompilerProject/Software</text>
<text text-anchor="start" x="1015" y="-18.5" font-family="Helvetica,sans-Serif" font-size="10.00">/pinhao/lib/Optimizer/Optimization</text>
<text text-anchor="middle" x="1089" y="-7.5" font-family="Helvetica,sans-Serif" font-size="10.00">Sequence.cpp</text>
</a>
</g>
</g>
<!-- Node11&#45;&gt;Node17 -->
<g id="edge10" class="edge"><title>Node11&#45;&gt;Node17</title>
<path fill="none" stroke="midnightblue" d="M864.785,-168.859C877.094,-139.443 895.119,-100.257 908,-89 916.137,-81.8886 962.849,-66.0933 1006.78,-52.2916"/>
<polygon fill="midnightblue" stroke="midnightblue" points="861.424,-167.827 860.845,-178.406 867.895,-170.497 861.424,-167.827"/>
</g>
<!-- Node19 -->
<g id="node9" class="node"><title>Node19</title>
<g id="a_node9"><a xlink:href="OptimizerYAMLWrapper_8cpp.html" target="_top" xlink:title="/home/yukiosir/workspace\l/CompilerProject/Software\l/pinhao/lib/Support/YAMLWrapper\l/OptimizerYAMLWrapper.cpp">
<polygon fill="white" stroke="black" points="917,-89.5 917,-141.5 1081,-141.5 1081,-89.5 917,-89.5"/>
<text text-anchor="start" x="925" y="-129.5" font-family="Helvetica,sans-Serif" font-size="10.00">/home/yukiosir/workspace</text>
<text text-anchor="start" x="925" y="-118.5" font-family="Helvetica,sans-Serif" font-size="10.00">/CompilerProject/Software</text>
<text text-anchor="start" x="925" y="-107.5" font-family="Helvetica,sans-Serif" font-size="10.00">/pinhao/lib/Support/YAMLWrapper</text>
<text text-anchor="middle" x="999" y="-96.5" font-family="Helvetica,sans-Serif" font-size="10.00">/OptimizerYAMLWrapper.cpp</text>
</a>
</g>
</g>
<!-- Node11&#45;&gt;Node19 -->
<g id="edge11" class="edge"><title>Node11&#45;&gt;Node19</title>
<path fill="none" stroke="midnightblue" d="M902.765,-173.07C920.258,-162.788 939.578,-151.431 956.288,-141.607"/>
<polygon fill="midnightblue" stroke="midnightblue" points="900.655,-170.251 893.808,-178.336 904.202,-176.286 900.655,-170.251"/>
</g>
<!-- Node13 -->
<g id="node3" class="node"><title>Node13</title>
<g id="a_node3"><a xlink:href="Candidate_8cpp.html" target="_top" xlink:title="/home/yukiosir/workspace\l/CompilerProject/Software\l/pinhao/lib/MachineLearning\l/GrammarEvolution/Candidate.cpp">
<polygon fill="white" stroke="black" points="182.5,-0.5 182.5,-52.5 349.5,-52.5 349.5,-0.5 182.5,-0.5"/>
<text text-anchor="start" x="190.5" y="-40.5" font-family="Helvetica,sans-Serif" font-size="10.00">/home/yukiosir/workspace</text>
<text text-anchor="start" x="190.5" y="-29.5" font-family="Helvetica,sans-Serif" font-size="10.00">/CompilerProject/Software</text>
<text text-anchor="start" x="190.5" y="-18.5" font-family="Helvetica,sans-Serif" font-size="10.00">/pinhao/lib/MachineLearning</text>
<text text-anchor="middle" x="266" y="-7.5" font-family="Helvetica,sans-Serif" font-size="10.00">/GrammarEvolution/Candidate.cpp</text>
</a>
</g>
</g>
<!-- Node12&#45;&gt;Node13 -->
<g id="edge2" class="edge"><title>Node12&#45;&gt;Node13</title>
<path fill="none" stroke="midnightblue" d="M611.869,-100.852C542.367,-89.6475 443.6,-72.4926 358,-53 355.253,-52.3744 352.465,-51.7194 349.653,-51.0417"/>
<polygon fill="midnightblue" stroke="midnightblue" points="611.478,-104.334 621.906,-102.461 612.587,-97.4219 611.478,-104.334"/>
</g>
<!-- Node14 -->
<g id="node4" class="node"><title>Node14</title>
<g id="a_node4"><a xlink:href="SimpleGrammarEvolution_8cpp.html" target="_top" xlink:title="/home/yukiosir/workspace\l/CompilerProject/Software\l/pinhao/lib/MachineLearning\l/GrammarEvolution/SimpleGrammarEvolution.cpp">
<polygon fill="white" stroke="black" points="367.5,-0.5 367.5,-52.5 600.5,-52.5 600.5,-0.5 367.5,-0.5"/>
<text text-anchor="start" x="375.5" y="-40.5" font-family="Helvetica,sans-Serif" font-size="10.00">/home/yukiosir/workspace</text>
<text text-anchor="start" x="375.5" y="-29.5" font-family="Helvetica,sans-Serif" font-size="10.00">/CompilerProject/Software</text>
<text text-anchor="start" x="375.5" y="-18.5" font-family="Helvetica,sans-Serif" font-size="10.00">/pinhao/lib/MachineLearning</text>
<text text-anchor="middle" x="484" y="-7.5" font-family="Helvetica,sans-Serif" font-size="10.00">/GrammarEvolution/SimpleGrammarEvolution.cpp</text>
</a>
</g>
</g>
<!-- Node12&#45;&gt;Node14 -->
<g id="edge3" class="edge"><title>Node12&#45;&gt;Node14</title>
<path fill="none" stroke="midnightblue" d="M629.208,-85.7171C602.432,-74.9819 572.274,-62.891 546.409,-52.5211"/>
<polygon fill="midnightblue" stroke="midnightblue" points="627.941,-88.98 638.526,-89.4527 630.546,-82.4827 627.941,-88.98"/>
</g>
<!-- Node12&#45;&gt;Node15 -->
<g id="edge4" class="edge"><title>Node12&#45;&gt;Node15</title>
<path fill="none" stroke="midnightblue" d="M611.704,-108.404C506.175,-100.211 325.625,-83.0788 173,-53 170.102,-52.429 167.162,-51.8121 164.2,-51.1588"/>
<polygon fill="midnightblue" stroke="midnightblue" points="611.441,-111.894 621.679,-109.169 611.976,-104.915 611.441,-111.894"/>
</g>
<!-- Node12&#45;&gt;Node16 -->
<g id="edge5" class="edge"><title>Node12&#45;&gt;Node16</title>
<path fill="none" stroke="midnightblue" d="M766.177,-85.2713C794.166,-72.7192 826.132,-58.3842 851.219,-47.1338"/>
<polygon fill="midnightblue" stroke="midnightblue" points="764.545,-82.1672 756.853,-89.4527 767.409,-88.5543 764.545,-82.1672"/>
</g>
<!-- Node12&#45;&gt;Node17 -->
<g id="edge6" class="edge"><title>Node12&#45;&gt;Node17</title>
<path fill="none" stroke="midnightblue" d="M790.184,-97.7015C849.352,-86.1473 928.596,-69.8887 998,-53 1000.87,-52.3017 1003.79,-51.5756 1006.73,-50.8289"/>
<polygon fill="midnightblue" stroke="midnightblue" points="789.27,-94.3136 780.122,-99.6588 790.606,-101.185 789.27,-94.3136"/>
</g>
<!-- Node18 -->
<g id="node8" class="node"><title>Node18</title>
<g id="a_node8"><a xlink:href="OptimizationSet_8cpp.html" target="_top" xlink:title="/home/yukiosir/workspace\l/CompilerProject/Software\l/pinhao/lib/Optimizer/Optimization\lSet.cpp">
<polygon fill="white" stroke="black" points="619,-0.5 619,-52.5 783,-52.5 783,-0.5 619,-0.5"/>
<text text-anchor="start" x="627" y="-40.5" font-family="Helvetica,sans-Serif" font-size="10.00">/home/yukiosir/workspace</text>
<text text-anchor="start" x="627" y="-29.5" font-family="Helvetica,sans-Serif" font-size="10.00">/CompilerProject/Software</text>
<text text-anchor="start" x="627" y="-18.5" font-family="Helvetica,sans-Serif" font-size="10.00">/pinhao/lib/Optimizer/Optimization</text>
<text text-anchor="middle" x="701" y="-7.5" font-family="Helvetica,sans-Serif" font-size="10.00">Set.cpp</text>
</a>
</g>
</g>
<!-- Node12&#45;&gt;Node18 -->
<g id="edge7" class="edge"><title>Node12&#45;&gt;Node18</title>
<path fill="none" stroke="midnightblue" d="M701,-79.1908C701,-70.2824 701,-60.8986 701,-52.6075"/>
<polygon fill="midnightblue" stroke="midnightblue" points="697.5,-79.336 701,-89.336 704.5,-79.336 697.5,-79.336"/>
</g>
</g>
</svg>
        <g id="navigator" transform="translate(0 0)" fill="#404254">
                <rect fill="#f2f5e9" fill-opacity="0.5" stroke="#606060" stroke-width=".5" x="0" y="0" width="60" height="60"/>
                <use id="zoomplus" xlink:href="#zoomPlus" x="17" y="9" onmousedown="handleZoom(evt,'in')"/>
                <use id="zoomminus" xlink:href="#zoomMin" x="42" y="9" onmousedown="handleZoom(evt,'out')"/>
                <use id="reset" xlink:href="#resetDef" x="30" y="36" onmousedown="handleReset()"/>
                <g id="arrowUp" xlink:href="#dirArrow" transform="translate(30 24)" onmousedown="handlePan(0,-1)">
                  <use xlink:href="#rim" fill="#404040">
                        <set attributeName="fill" to="#808080" begin="arrowUp.mouseover" end="arrowUp.mouseout"/>
                  </use>
                  <path fill="none" stroke="white" stroke-width="1.5" d="M0,-3.0v7 M-2.5,-0.5L0,-3.0L2.5,-0.5"/>
                </g>
                <g id="arrowRight" xlink:href="#dirArrow" transform="rotate(90) translate(36 -43)" onmousedown="handlePan(1,0)">
                  <use xlink:href="#rim" fill="#404040">
                        <set attributeName="fill" to="#808080" begin="arrowRight.mouseover" end="arrowRight.mouseout"/>
                  </use>
                  <path fill="none" stroke="white" stroke-width="1.5" d="M0,-3.0v7 M-2.5,-0.5L0,-3.0L2.5,-0.5"/>
                </g>
                <g id="arrowDown" xlink:href="#dirArrow" transform="rotate(180) translate(-30 -48)" onmousedown="handlePan(0,1)">
                  <use xlink:href="#rim" fill="#404040">
                        <set attributeName="fill" to="#808080" begin="arrowDown.mouseover" end="arrowDown.mouseout"/>
                  </use>
                  <path fill="none" stroke="white" stroke-width="1.5" d="M0,-3.0v7 M-2.5,-0.5L0,-3.0L2.5,-0.5"/>
                </g>
                <g id="arrowLeft" xlink:href="#dirArrow" transform="rotate(270) translate(-36 17)" onmousedown="handlePan(-1,0)">
                  <use xlink:href="#rim" fill="#404040">
                        <set attributeName="fill" to="#808080" begin="arrowLeft.mouseover" end="arrowLeft.mouseout"/>
                  </use>
                  <path fill="none" stroke="white" stroke-width="1.5" d="M0,-3.0v7 M-2.5,-0.5L0,-3.0L2.5,-0.5"/>
                </g>
        </g>
        <svg viewBox="0 0 15 15" width="100%" height="30px" preserveAspectRatio="xMaxYMin meet">
         <g id="arrow_out" transform="scale(0.3 0.3)">
          <a xlink:href="OptimizationSequence_8h__dep__incl_org.svg" target="_base">
           <rect id="button" ry="5" rx="5" y="6" x="6" height="38" width="38"
                fill="#f2f5e9" fill-opacity="0.5" stroke="#606060" stroke-width="1.0"/>
           <path id="arrow"
             d="M 11.500037,31.436501 C 11.940474,20.09759 22.043105,11.32322 32.158766,21.979434 L 37.068811,17.246167 C 37.068811,17.246167 37.088388,32 37.088388,32 L 22.160133,31.978069 C 22.160133,31.978069 26.997745,27.140456 26.997745,27.140456 C 18.528582,18.264221 13.291696,25.230495 11.500037,31.436501 z"
             style="fill:#404040;"/>
          </a>
         </g>
        </svg>
</svg>
