<?xml version="1.0" encoding="UTF-8" standalone="no"?>
<!DOCTYPE svg PUBLIC "-//W3C//DTD SVG 1.1//EN"
 "http://www.w3.org/Graphics/SVG/1.1/DTD/svg11.dtd">
<!-- Generated by graphviz version 2.38.0 (20140413.2041)
 -->
<!-- Title: /home/yukiosir/workspace/CompilerProject/Software/pinhao/lib/Optimizer/Optimizations.cpp Pages: 1 -->
<!--zoomable 363 -->
<svg id="main" version="1.1" xmlns="http://www.w3.org/2000/svg" xmlns:xlink="http://www.w3.org/1999/xlink" xml:space="preserve" onload="init(evt)">
<style type="text/css"><![CDATA[
.edge:hover path { stroke: red; }
.edge:hover polygon { stroke: red; fill: red; }
]]></style>
<script type="text/javascript"><![CDATA[
var edges = document.getElementsByTagName('g');
if (edges && edges.length) {
  for (var i=0;i<edges.length;i++) {
    if (edges[i].id.substr(0,4)=='edge') {
      edges[i].setAttribute('class','edge');
    }
  }
}
]]></script>
        <defs>
                <circle id="rim" cx="0" cy="0" r="7"/>
                <circle id="rim2" cx="0" cy="0" r="3.5"/>
                <g id="zoomPlus">
                        <use xlink:href="#rim" fill="#404040">
                                <set attributeName="fill" to="#808080" begin="zoomplus.mouseover" end="zoomplus.mouseout"/>
                        </use>
                        <path d="M-4,0h8M0,-4v8" fill="none" stroke="white" stroke-width="1.5" pointer-events="none"/>
                </g>
                <g id="zoomMin">
                        <use xlink:href="#rim" fill="#404040">
                                <set attributeName="fill" to="#808080" begin="zoomminus.mouseover" end="zoomminus.mouseout"/>
                        </use>
                        <path d="M-4,0h8" fill="none" stroke="white" stroke-width="1.5" pointer-events="none"/>
                </g>
                <g id="dirArrow">
                        <path fill="none" stroke="white" stroke-width="1.5" d="M0,-3.0v7 M-2.5,-0.5L0,-3.0L2.5,-0.5"/>
                </g>
               <g id="resetDef">
                       <use xlink:href="#rim2" fill="#404040">
                               <set attributeName="fill" to="#808080" begin="reset.mouseover" end="reset.mouseout"/>
                       </use>
               </g>
        </defs>

<script type="text/javascript">
var viewWidth = 2367;
var viewHeight = 363;
var sectionId = 'dynsection-0';
</script>
<script xlink:href="svgpan.js"/>
<svg id="graph" class="graph">
<g id="viewport">
<title>/home/yukiosir/workspace/CompilerProject/Software/pinhao/lib/Optimizer/Optimizations.cpp</title>
<polygon fill="white" stroke="none" points="-4,4 -4,-359 2362.5,-359 2362.5,4 -4,4"/>
<!-- Node0 -->
<g id="node1" class="node"><title>Node0</title>
<polygon fill="#bfbfbf" stroke="black" points="1155.5,-313.5 1155.5,-354.5 1343.5,-354.5 1343.5,-313.5 1155.5,-313.5"/>
<text text-anchor="start" x="1163.5" y="-342.5" font-family="Helvetica,sans-Serif" font-size="10.00">/home/yukiosir/workspace</text>
<text text-anchor="start" x="1163.5" y="-331.5" font-family="Helvetica,sans-Serif" font-size="10.00">/CompilerProject/Software</text>
<text text-anchor="middle" x="1249.5" y="-320.5" font-family="Helvetica,sans-Serif" font-size="10.00">/pinhao/lib/Optimizer/Optimizations.cpp</text>
</g>
<!-- Node1 -->
<g id="node2" class="node"><title>Node1</title>
<g id="a_node2"><a xlink:href="InitializationRoutines_8h.html" target="_top" xlink:title="pinhao/InitializationRoutines.h">
<polygon fill="white" stroke="black" points="0,-185 0,-204 147,-204 147,-185 0,-185"/>
<text text-anchor="middle" x="73.5" y="-192" font-family="Helvetica,sans-Serif" font-size="10.00">pinhao/InitializationRoutines.h</text>
</a>
</g>
</g>
<!-- Node0&#45;&gt;Node1 -->
<g id="edge1" class="edge"><title>Node0&#45;&gt;Node1</title>
<path fill="none" stroke="midnightblue" d="M1155.46,-329.946C956.216,-323.025 497.26,-304.574 343.5,-277 255.126,-261.152 154.828,-226.193 105.029,-207.632"/>
<polygon fill="midnightblue" stroke="midnightblue" points="106.067,-204.283 95.4754,-204.041 103.604,-210.836 106.067,-204.283"/>
</g>
<!-- Node3 -->
<g id="node4" class="node"><title>Node3</title>
<g id="a_node4"><a xlink:href="Optimizations_8h.html" target="_top" xlink:title="pinhao/Optimizer/Optimizations.h">
<polygon fill="white" stroke="black" points="380,-56.5 380,-75.5 541,-75.5 541,-56.5 380,-56.5"/>
<text text-anchor="middle" x="460.5" y="-63.5" font-family="Helvetica,sans-Serif" font-size="10.00">pinhao/Optimizer/Optimizations.h</text>
</a>
</g>
</g>
<!-- Node0&#45;&gt;Node3 -->
<g id="edge3" class="edge"><title>Node0&#45;&gt;Node3</title>
<path fill="none" stroke="midnightblue" d="M1155.36,-328.061C1018.93,-320.146 773.294,-302.836 688.5,-277 628.204,-258.628 610.917,-251.53 563.5,-210 541.085,-190.368 493.155,-117.831 471.51,-84.2576"/>
<polygon fill="midnightblue" stroke="midnightblue" points="474.265,-82.0691 465.919,-75.5425 468.373,-85.8491 474.265,-82.0691"/>
</g>
<!-- Node8 -->
<g id="node9" class="node"><title>Node8</title>
<g id="a_node9"><a xlink:href="OptimizationSet_8h.html" target="_top" xlink:title="pinhao/Optimizer/Optimization\lSet.h">
<polygon fill="white" stroke="black" points="352.5,-246.5 352.5,-276.5 500.5,-276.5 500.5,-246.5 352.5,-246.5"/>
<text text-anchor="start" x="360.5" y="-264.5" font-family="Helvetica,sans-Serif" font-size="10.00">pinhao/Optimizer/Optimization</text>
<text text-anchor="middle" x="426.5" y="-253.5" font-family="Helvetica,sans-Serif" font-size="10.00">Set.h</text>
</a>
</g>
</g>
<!-- Node0&#45;&gt;Node8 -->
<g id="edge9" class="edge"><title>Node0&#45;&gt;Node8</title>
<path fill="none" stroke="midnightblue" d="M1155.4,-327.502C1017.89,-319.052 754.085,-301.271 530.5,-277 524.137,-276.309 517.563,-275.535 510.956,-274.714"/>
<polygon fill="midnightblue" stroke="midnightblue" points="510.934,-271.183 500.571,-273.389 510.048,-278.126 510.934,-271.183"/>
</g>
<!-- Node11 -->
<g id="node12" class="node"><title>Node11</title>
<g id="a_node12"><a xlink:href="OptimizationSequence_8h.html" target="_top" xlink:title="pinhao/Optimizer/Optimization\lSequence.h">
<polygon fill="white" stroke="black" points="572.5,-179.5 572.5,-209.5 720.5,-209.5 720.5,-179.5 572.5,-179.5"/>
<text text-anchor="start" x="580.5" y="-197.5" font-family="Helvetica,sans-Serif" font-size="10.00">pinhao/Optimizer/Optimization</text>
<text text-anchor="middle" x="646.5" y="-186.5" font-family="Helvetica,sans-Serif" font-size="10.00">Sequence.h</text>
</a>
</g>
</g>
<!-- Node0&#45;&gt;Node11 -->
<g id="edge25" class="edge"><title>Node0&#45;&gt;Node11</title>
<path fill="none" stroke="midnightblue" d="M1155.49,-329.818C1027.86,-324.305 807.334,-310.2 734.5,-277 705.286,-263.683 679.341,-236.844 663.324,-217.601"/>
<polygon fill="midnightblue" stroke="midnightblue" points="665.891,-215.21 656.887,-209.626 660.444,-219.606 665.891,-215.21"/>
</g>
<!-- Node12 -->
<g id="node13" class="node"><title>Node12</title>
<polygon fill="white" stroke="#bfbfbf" points="674,-118 674,-137 825,-137 825,-118 674,-118"/>
<text text-anchor="middle" x="749.5" y="-125" font-family="Helvetica,sans-Serif" font-size="10.00">llvm/IR/LegacyPassManager.h</text>
</g>
<!-- Node0&#45;&gt;Node12 -->
<g id="edge35" class="edge"><title>Node0&#45;&gt;Node12</title>
<path fill="none" stroke="midnightblue" d="M1155.44,-333.489C1037.27,-332.124 843.515,-322.698 790.5,-277 752.43,-244.184 748.159,-179.526 748.579,-147.458"/>
<polygon fill="midnightblue" stroke="midnightblue" points="752.085,-147.339 748.893,-137.237 745.088,-147.125 752.085,-147.339"/>
</g>
<!-- Node13 -->
<g id="node14" class="node"><title>Node13</title>
<polygon fill="white" stroke="#bfbfbf" points="843.5,-118 843.5,-137 897.5,-137 897.5,-118 843.5,-118"/>
<text text-anchor="middle" x="870.5" y="-125" font-family="Helvetica,sans-Serif" font-size="10.00">iostream</text>
</g>
<!-- Node0&#45;&gt;Node13 -->
<g id="edge36" class="edge"><title>Node0&#45;&gt;Node13</title>
<path fill="none" stroke="midnightblue" d="M1155.25,-327.66C1031.78,-319.685 828.238,-302.786 805.5,-277 769.789,-236.502 824.112,-173.3 853.576,-144.17"/>
<polygon fill="midnightblue" stroke="midnightblue" points="856.021,-146.674 860.798,-137.217 851.166,-141.632 856.021,-146.674"/>
</g>
<!-- Node14 -->
<g id="node15" class="node"><title>Node14</title>
<polygon fill="white" stroke="#bfbfbf" points="815,-252 815,-271 934,-271 934,-252 815,-252"/>
<text text-anchor="middle" x="874.5" y="-259" font-family="Helvetica,sans-Serif" font-size="10.00">llvm/IR/LLVMContext.h</text>
</g>
<!-- Node0&#45;&gt;Node14 -->
<g id="edge26" class="edge"><title>Node0&#45;&gt;Node14</title>
<path fill="none" stroke="midnightblue" d="M1155.29,-316.416C1094.72,-305.591 1014.38,-290.931 943.5,-277 937.273,-275.776 930.738,-274.453 924.276,-273.122"/>
<polygon fill="midnightblue" stroke="midnightblue" points="924.738,-269.643 914.235,-271.035 923.314,-276.497 924.738,-269.643"/>
</g>
<!-- Node15 -->
<g id="node16" class="node"><title>Node15</title>
<polygon fill="white" stroke="#bfbfbf" points="952,-252 952,-271 1085,-271 1085,-252 952,-252"/>
<text text-anchor="middle" x="1018.5" y="-259" font-family="Helvetica,sans-Serif" font-size="10.00">llvm/IRReader/IRReader.h</text>
</g>
<!-- Node0&#45;&gt;Node15 -->
<g id="edge27" class="edge"><title>Node0&#45;&gt;Node15</title>
<path fill="none" stroke="midnightblue" d="M1185.46,-313.455C1143.9,-300.771 1091.16,-284.676 1056.2,-274.006"/>
<polygon fill="midnightblue" stroke="midnightblue" points="1056.98,-270.585 1046.39,-271.013 1054.94,-277.28 1056.98,-270.585"/>
</g>
<!-- Node16 -->
<g id="node17" class="node"><title>Node16</title>
<polygon fill="white" stroke="#bfbfbf" points="1103.5,-252 1103.5,-271 1243.5,-271 1243.5,-252 1103.5,-252"/>
<text text-anchor="middle" x="1173.5" y="-259" font-family="Helvetica,sans-Serif" font-size="10.00">llvm/Bitcode/ReaderWriter.h</text>
</g>
<!-- Node0&#45;&gt;Node16 -->
<g id="edge28" class="edge"><title>Node0&#45;&gt;Node16</title>
<path fill="none" stroke="midnightblue" d="M1228.33,-313.362C1216.31,-302.215 1201.48,-288.458 1190.28,-278.063"/>
<polygon fill="midnightblue" stroke="midnightblue" points="1192.56,-275.408 1182.85,-271.173 1187.8,-280.54 1192.56,-275.408"/>
</g>
<!-- Node17 -->
<g id="node18" class="node"><title>Node17</title>
<polygon fill="white" stroke="#bfbfbf" points="1261.5,-252 1261.5,-271 1391.5,-271 1391.5,-252 1261.5,-252"/>
<text text-anchor="middle" x="1326.5" y="-259" font-family="Helvetica,sans-Serif" font-size="10.00">llvm/Support/SourceMgr.h</text>
</g>
<!-- Node0&#45;&gt;Node17 -->
<g id="edge29" class="edge"><title>Node0&#45;&gt;Node17</title>
<path fill="none" stroke="midnightblue" d="M1270.95,-313.362C1283.12,-302.215 1298.15,-288.458 1309.5,-278.063"/>
<polygon fill="midnightblue" stroke="midnightblue" points="1312.01,-280.508 1317.03,-271.173 1307.29,-275.345 1312.01,-280.508"/>
</g>
<!-- Node18 -->
<g id="node19" class="node"><title>Node18</title>
<polygon fill="white" stroke="#bfbfbf" points="1409.5,-252 1409.5,-271 1541.5,-271 1541.5,-252 1409.5,-252"/>
<text text-anchor="middle" x="1475.5" y="-259" font-family="Helvetica,sans-Serif" font-size="10.00">llvm/Support/FileSystem.h</text>
</g>
<!-- Node0&#45;&gt;Node18 -->
<g id="edge30" class="edge"><title>Node0&#45;&gt;Node18</title>
<path fill="none" stroke="midnightblue" d="M1312.15,-313.455C1352.82,-300.771 1404.41,-284.676 1438.62,-274.006"/>
<polygon fill="midnightblue" stroke="midnightblue" points="1439.71,-277.332 1448.21,-271.013 1437.62,-270.65 1439.71,-277.332"/>
</g>
<!-- Node19 -->
<g id="node20" class="node"><title>Node19</title>
<polygon fill="white" stroke="#bfbfbf" points="1560,-252 1560,-271 1699,-271 1699,-252 1560,-252"/>
<text text-anchor="middle" x="1629.5" y="-259" font-family="Helvetica,sans-Serif" font-size="10.00">llvm/Support/raw_ostream.h</text>
</g>
<!-- Node0&#45;&gt;Node19 -->
<g id="edge31" class="edge"><title>Node0&#45;&gt;Node19</title>
<path fill="none" stroke="midnightblue" d="M1343.92,-315.482C1416.13,-302.086 1513.24,-284.07 1573.57,-272.877"/>
<polygon fill="midnightblue" stroke="midnightblue" points="1574.47,-276.27 1583.66,-271.005 1573.19,-269.388 1574.47,-276.27"/>
</g>
<!-- Node20 -->
<g id="node21" class="node"><title>Node20</title>
<polygon fill="white" stroke="#bfbfbf" points="1717.5,-252 1717.5,-271 1843.5,-271 1843.5,-252 1717.5,-252"/>
<text text-anchor="middle" x="1780.5" y="-259" font-family="Helvetica,sans-Serif" font-size="10.00">llvm/Transforms/Scalar.h</text>
</g>
<!-- Node0&#45;&gt;Node20 -->
<g id="edge32" class="edge"><title>Node0&#45;&gt;Node20</title>
<path fill="none" stroke="midnightblue" d="M1343.86,-323.644C1436.87,-313.915 1582.89,-297.28 1708.5,-277 1715.85,-275.813 1723.6,-274.413 1731.17,-272.959"/>
<polygon fill="midnightblue" stroke="midnightblue" points="1731.85,-276.392 1740.99,-271.029 1730.5,-269.524 1731.85,-276.392"/>
</g>
<!-- Node21 -->
<g id="node22" class="node"><title>Node21</title>
<polygon fill="white" stroke="#bfbfbf" points="1861.5,-252 1861.5,-271 2001.5,-271 2001.5,-252 1861.5,-252"/>
<text text-anchor="middle" x="1931.5" y="-259" font-family="Helvetica,sans-Serif" font-size="10.00">llvm/Transforms/Vectorize.h</text>
</g>
<!-- Node0&#45;&gt;Node21 -->
<g id="edge33" class="edge"><title>Node0&#45;&gt;Node21</title>
<path fill="none" stroke="midnightblue" d="M1343.54,-326.868C1462.43,-318.519 1673.23,-301.727 1852.5,-277 1861.13,-275.809 1870.26,-274.336 1879.12,-272.789"/>
<polygon fill="midnightblue" stroke="midnightblue" points="1879.75,-276.232 1888.97,-271.023 1878.51,-269.342 1879.75,-276.232"/>
</g>
<!-- Node22 -->
<g id="node23" class="node"><title>Node22</title>
<polygon fill="white" stroke="#bfbfbf" points="2019.5,-252 2019.5,-271 2135.5,-271 2135.5,-252 2019.5,-252"/>
<text text-anchor="middle" x="2077.5" y="-259" font-family="Helvetica,sans-Serif" font-size="10.00">llvm/Transforms/IPO.h</text>
</g>
<!-- Node0&#45;&gt;Node22 -->
<g id="edge34" class="edge"><title>Node0&#45;&gt;Node22</title>
<path fill="none" stroke="midnightblue" d="M1343.68,-330.298C1487.91,-325.209 1771.87,-311.431 2010.5,-277 2017.71,-275.96 2025.3,-274.589 2032.67,-273.104"/>
<polygon fill="midnightblue" stroke="midnightblue" points="2033.48,-276.511 2042.55,-271.03 2032.04,-269.661 2033.48,-276.511"/>
</g>
<!-- Node23 -->
<g id="node24" class="node"><title>Node23</title>
<polygon fill="white" stroke="#bfbfbf" points="2153,-252 2153,-271 2204,-271 2204,-252 2153,-252"/>
<text text-anchor="middle" x="2178.5" y="-259" font-family="Helvetica,sans-Serif" font-size="10.00">unistd.h</text>
</g>
<!-- Node0&#45;&gt;Node23 -->
<g id="edge37" class="edge"><title>Node0&#45;&gt;Node23</title>
<path fill="none" stroke="midnightblue" d="M1343.79,-331.146C1541.72,-326.594 1994.62,-312.536 2144.5,-277 2147.01,-276.404 2149.58,-275.637 2152.11,-274.768"/>
<polygon fill="midnightblue" stroke="midnightblue" points="2153.56,-277.96 2161.59,-271.051 2151,-271.444 2153.56,-277.96"/>
</g>
<!-- Node24 -->
<g id="node25" class="node"><title>Node24</title>
<polygon fill="white" stroke="#bfbfbf" points="2222.5,-252 2222.5,-271 2284.5,-271 2284.5,-252 2222.5,-252"/>
<text text-anchor="middle" x="2253.5" y="-259" font-family="Helvetica,sans-Serif" font-size="10.00">sys/wait.h</text>
</g>
<!-- Node0&#45;&gt;Node24 -->
<g id="edge38" class="edge"><title>Node0&#45;&gt;Node24</title>
<path fill="none" stroke="midnightblue" d="M1343.74,-330.992C1552.66,-325.978 2049.19,-310.802 2213.5,-277 2216.93,-276.294 2220.47,-275.352 2223.95,-274.285"/>
<polygon fill="midnightblue" stroke="midnightblue" points="2225.14,-277.576 2233.48,-271.042 2222.89,-270.948 2225.14,-277.576"/>
</g>
<!-- Node25 -->
<g id="node26" class="node"><title>Node25</title>
<polygon fill="white" stroke="#bfbfbf" points="2302.5,-252 2302.5,-271 2358.5,-271 2358.5,-252 2302.5,-252"/>
<text text-anchor="middle" x="2330.5" y="-259" font-family="Helvetica,sans-Serif" font-size="10.00">algorithm</text>
</g>
<!-- Node0&#45;&gt;Node25 -->
<g id="edge39" class="edge"><title>Node0&#45;&gt;Node25</title>
<path fill="none" stroke="midnightblue" d="M1343.7,-331.788C1565.19,-328.318 2113.89,-315.947 2293.5,-277 2296.5,-276.348 2299.58,-275.484 2302.62,-274.501"/>
<polygon fill="midnightblue" stroke="midnightblue" points="2303.84,-277.783 2312.04,-271.072 2301.44,-271.206 2303.84,-277.783"/>
</g>
<!-- Node2 -->
<g id="node3" class="node"><title>Node2</title>
<polygon fill="white" stroke="#bfbfbf" points="97,-0.5 97,-19.5 188,-19.5 188,-0.5 97,-0.5"/>
<text text-anchor="middle" x="142.5" y="-7.5" font-family="Helvetica,sans-Serif" font-size="10.00">llvm/IR/Module.h</text>
</g>
<!-- Node1&#45;&gt;Node2 -->
<g id="edge2" class="edge"><title>Node1&#45;&gt;Node2</title>
<path fill="none" stroke="midnightblue" d="M76.828,-184.698C87.5072,-156.452 121.063,-67.7001 135.634,-29.1606"/>
<polygon fill="midnightblue" stroke="midnightblue" points="138.943,-30.3056 139.205,-19.714 132.395,-27.83 138.943,-30.3056"/>
</g>
<!-- Node3&#45;&gt;Node2 -->
<g id="edge4" class="edge"><title>Node3&#45;&gt;Node2</title>
<path fill="none" stroke="midnightblue" d="M410.112,-56.4435C352.334,-46.6321 257.902,-30.5966 198.043,-20.4319"/>
<polygon fill="midnightblue" stroke="midnightblue" points="198.46,-16.9527 188.015,-18.729 197.288,-23.8539 198.46,-16.9527"/>
</g>
<!-- Node4 -->
<g id="node5" class="node"><title>Node4</title>
<polygon fill="white" stroke="#bfbfbf" points="412,-0.5 412,-19.5 509,-19.5 509,-0.5 412,-0.5"/>
<text text-anchor="middle" x="460.5" y="-7.5" font-family="Helvetica,sans-Serif" font-size="10.00">llvm/IR/Function.h</text>
</g>
<!-- Node3&#45;&gt;Node4 -->
<g id="edge5" class="edge"><title>Node3&#45;&gt;Node4</title>
<path fill="none" stroke="midnightblue" d="M460.5,-56.083C460.5,-49.0059 460.5,-38.8611 460.5,-29.9865"/>
<polygon fill="midnightblue" stroke="midnightblue" points="464,-29.751 460.5,-19.7511 457,-29.7511 464,-29.751"/>
</g>
<!-- Node5 -->
<g id="node6" class="node"><title>Node5</title>
<polygon fill="white" stroke="#bfbfbf" points="243,-0.5 243,-19.5 284,-19.5 284,-0.5 243,-0.5"/>
<text text-anchor="middle" x="263.5" y="-7.5" font-family="Helvetica,sans-Serif" font-size="10.00">string</text>
</g>
<!-- Node3&#45;&gt;Node5 -->
<g id="edge6" class="edge"><title>Node3&#45;&gt;Node5</title>
<path fill="none" stroke="midnightblue" d="M429.285,-56.4435C392.096,-46.2497 330.396,-29.3371 293.673,-19.2707"/>
<polygon fill="midnightblue" stroke="midnightblue" points="294.588,-15.8925 284.018,-16.6243 292.737,-22.6435 294.588,-15.8925"/>
</g>
<!-- Node6 -->
<g id="node7" class="node"><title>Node6</title>
<polygon fill="white" stroke="#bfbfbf" points="547.5,-0.5 547.5,-19.5 591.5,-19.5 591.5,-0.5 547.5,-0.5"/>
<text text-anchor="middle" x="569.5" y="-7.5" font-family="Helvetica,sans-Serif" font-size="10.00">vector</text>
</g>
<!-- Node3&#45;&gt;Node6 -->
<g id="edge7" class="edge"><title>Node3&#45;&gt;Node6</title>
<path fill="none" stroke="midnightblue" d="M478.013,-56.324C495.572,-47.6247 522.831,-34.1202 543.031,-24.113"/>
<polygon fill="midnightblue" stroke="midnightblue" points="544.624,-27.23 552.031,-19.6545 541.516,-20.9575 544.624,-27.23"/>
</g>
<!-- Node7 -->
<g id="node8" class="node"><title>Node7</title>
<polygon fill="white" stroke="#bfbfbf" points="346,-0.5 346,-19.5 381,-19.5 381,-0.5 346,-0.5"/>
<text text-anchor="middle" x="363.5" y="-7.5" font-family="Helvetica,sans-Serif" font-size="10.00">map</text>
</g>
<!-- Node3&#45;&gt;Node7 -->
<g id="edge8" class="edge"><title>Node3&#45;&gt;Node7</title>
<path fill="none" stroke="midnightblue" d="M444.915,-56.324C429.501,-47.7428 405.688,-34.486 387.79,-24.5224"/>
<polygon fill="midnightblue" stroke="midnightblue" points="389.486,-21.4606 379.046,-19.6545 386.081,-27.5767 389.486,-21.4606"/>
</g>
<!-- Node8&#45;&gt;Node3 -->
<g id="edge10" class="edge"><title>Node8&#45;&gt;Node3</title>
<path fill="none" stroke="midnightblue" d="M434.467,-246.231C446.002,-224.669 466.814,-182.137 474.5,-143 477.155,-129.48 476.57,-125.621 474.5,-112 473.132,-103.001 470.31,-93.3251 467.555,-85.2601"/>
<polygon fill="midnightblue" stroke="midnightblue" points="470.812,-83.9759 464.1,-75.7782 464.235,-86.3722 470.812,-83.9759"/>
</g>
<!-- Node8&#45;&gt;Node5 -->
<g id="edge22" class="edge"><title>Node8&#45;&gt;Node5</title>
<path fill="none" stroke="midnightblue" d="M352.186,-252.058C320.042,-245.173 283.839,-232.677 257.5,-210 201.46,-161.75 159.277,-121.023 194.5,-56 202.826,-40.6299 218.93,-29.6786 233.488,-22.4303"/>
<polygon fill="midnightblue" stroke="midnightblue" points="235.101,-25.5411 242.733,-18.1927 232.185,-19.1776 235.101,-25.5411"/>
</g>
<!-- Node8&#45;&gt;Node6 -->
<g id="edge23" class="edge"><title>Node8&#45;&gt;Node6</title>
<path fill="none" stroke="midnightblue" d="M441.081,-246.204C450.607,-236.469 462.996,-223.031 472.5,-210 512.977,-154.505 522.119,-138.994 549.5,-76 556.119,-60.7729 561.501,-42.6611 565.008,-29.4286"/>
<polygon fill="midnightblue" stroke="midnightblue" points="568.427,-30.1855 567.499,-19.6314 561.642,-28.4607 568.427,-30.1855"/>
</g>
<!-- Node8&#45;&gt;Node7 -->
<g id="edge24" class="edge"><title>Node8&#45;&gt;Node7</title>
<path fill="none" stroke="midnightblue" d="M403.876,-246.355C375.377,-227.042 327.8,-189.454 308.5,-143 303.214,-130.277 304.507,-125.187 308.5,-112 314.072,-93.5955 323.003,-92.7211 332.5,-76 341.269,-60.5591 349.85,-42.2439 355.753,-28.9966"/>
<polygon fill="midnightblue" stroke="midnightblue" points="359.057,-30.1749 359.864,-19.6108 352.646,-27.3661 359.057,-30.1749"/>
</g>
<!-- Node9 -->
<g id="node10" class="node"><title>Node9</title>
<g id="a_node10"><a xlink:href="OptimizationInfo_8h.html" target="_top" xlink:title="pinhao/Optimizer/Optimization\lInfo.h">
<polygon fill="white" stroke="black" points="317.5,-112.5 317.5,-142.5 465.5,-142.5 465.5,-112.5 317.5,-112.5"/>
<text text-anchor="start" x="325.5" y="-130.5" font-family="Helvetica,sans-Serif" font-size="10.00">pinhao/Optimizer/Optimization</text>
<text text-anchor="middle" x="391.5" y="-119.5" font-family="Helvetica,sans-Serif" font-size="10.00">Info.h</text>
</a>
</g>
</g>
<!-- Node8&#45;&gt;Node9 -->
<g id="edge11" class="edge"><title>Node8&#45;&gt;Node9</title>
<path fill="none" stroke="midnightblue" d="M422.754,-246.374C416.807,-223.945 405.135,-179.924 397.86,-152.486"/>
<polygon fill="midnightblue" stroke="midnightblue" points="401.165,-151.294 395.219,-142.525 394.399,-153.088 401.165,-151.294"/>
</g>
<!-- Node10 -->
<g id="node11" class="node"><title>Node10</title>
<g id="a_node11"><a xlink:href="Types_8h.html" target="_top" xlink:title="pinhao/Support/Types.h">
<polygon fill="white" stroke="black" points="203.5,-56.5 203.5,-75.5 323.5,-75.5 323.5,-56.5 203.5,-56.5"/>
<text text-anchor="middle" x="263.5" y="-63.5" font-family="Helvetica,sans-Serif" font-size="10.00">pinhao/Support/Types.h</text>
</a>
</g>
</g>
<!-- Node8&#45;&gt;Node10 -->
<g id="edge21" class="edge"><title>Node8&#45;&gt;Node10</title>
<path fill="none" stroke="midnightblue" d="M352.333,-253.013C323.975,-246.249 294.028,-233.585 275.5,-210 246.978,-173.693 253.462,-115.011 259.217,-85.3778"/>
<polygon fill="midnightblue" stroke="midnightblue" points="262.65,-86.0599 261.312,-75.5498 255.804,-84.6003 262.65,-86.0599"/>
</g>
<!-- Node8&#45;&gt;Node11 -->
<g id="edge15" class="edge"><title>Node8&#45;&gt;Node11</title>
<path fill="none" stroke="midnightblue" d="M473.966,-246.476C507.68,-236.515 553.131,-223.086 588.92,-212.512"/>
<polygon fill="midnightblue" stroke="midnightblue" points="590.142,-215.801 598.74,-209.611 588.158,-209.088 590.142,-215.801"/>
</g>
<!-- Node9&#45;&gt;Node3 -->
<g id="edge12" class="edge"><title>Node9&#45;&gt;Node3</title>
<path fill="none" stroke="midnightblue" d="M407.852,-112.399C418.395,-103.308 432.1,-91.4899 442.884,-82.1909"/>
<polygon fill="midnightblue" stroke="midnightblue" points="445.172,-84.8389 450.46,-75.6578 440.601,-79.5377 445.172,-84.8389"/>
</g>
<!-- Node9&#45;&gt;Node10 -->
<g id="edge13" class="edge"><title>Node9&#45;&gt;Node10</title>
<path fill="none" stroke="midnightblue" d="M361.166,-112.399C339.977,-102.55 311.906,-89.5014 291.298,-79.9217"/>
<polygon fill="midnightblue" stroke="midnightblue" points="292.669,-76.6993 282.125,-75.6578 289.718,-83.047 292.669,-76.6993"/>
</g>
<!-- Node10&#45;&gt;Node5 -->
<g id="edge14" class="edge"><title>Node10&#45;&gt;Node5</title>
<path fill="none" stroke="midnightblue" d="M263.5,-56.083C263.5,-49.0059 263.5,-38.8611 263.5,-29.9865"/>
<polygon fill="midnightblue" stroke="midnightblue" points="267,-29.751 263.5,-19.7511 260,-29.7511 267,-29.751"/>
</g>
<!-- Node11&#45;&gt;Node3 -->
<g id="edge16" class="edge"><title>Node11&#45;&gt;Node3</title>
<path fill="none" stroke="midnightblue" d="M630.79,-179.225C611.524,-162.106 577.478,-133.085 545.5,-112 527.205,-99.937 505.328,-88.4154 488.351,-80.0506"/>
<polygon fill="midnightblue" stroke="midnightblue" points="489.51,-76.723 478.985,-75.5101 486.456,-83.0219 489.51,-76.723"/>
</g>
<!-- Node11&#45;&gt;Node6 -->
<g id="edge19" class="edge"><title>Node11&#45;&gt;Node6</title>
<path fill="none" stroke="midnightblue" d="M640.586,-179.483C626.803,-146.817 592.557,-65.6469 577.184,-29.2113"/>
<polygon fill="midnightblue" stroke="midnightblue" points="580.333,-27.6716 573.221,-19.8187 573.883,-30.3928 580.333,-27.6716"/>
</g>
<!-- Node11&#45;&gt;Node9 -->
<g id="edge17" class="edge"><title>Node11&#45;&gt;Node9</title>
<path fill="none" stroke="midnightblue" d="M591.483,-179.476C551.903,-169.387 498.37,-155.741 456.651,-145.107"/>
<polygon fill="midnightblue" stroke="midnightblue" points="457.413,-141.689 446.858,-142.611 455.684,-148.473 457.413,-141.689"/>
</g>
<!-- Node11&#45;&gt;Node12 -->
<g id="edge18" class="edge"><title>Node11&#45;&gt;Node12</title>
<path fill="none" stroke="midnightblue" d="M668.849,-179.396C686.122,-168.496 709.918,-153.479 727.183,-142.584"/>
<polygon fill="midnightblue" stroke="midnightblue" points="729.431,-145.304 736.02,-137.007 725.695,-139.384 729.431,-145.304"/>
</g>
<!-- Node11&#45;&gt;Node13 -->
<g id="edge20" class="edge"><title>Node11&#45;&gt;Node13</title>
<path fill="none" stroke="midnightblue" d="M705.109,-179.432C742.211,-170.094 791.026,-157.011 833.5,-143 835.767,-142.252 838.096,-141.442 840.431,-140.599"/>
<polygon fill="midnightblue" stroke="midnightblue" points="841.777,-143.832 849.903,-137.034 839.311,-137.281 841.777,-143.832"/>
</g>
</g>
</svg>
        <g id="navigator" transform="translate(0 0)" fill="#404254">
                <rect fill="#f2f5e9" fill-opacity="0.5" stroke="#606060" stroke-width=".5" x="0" y="0" width="60" height="60"/>
                <use id="zoomplus" xlink:href="#zoomPlus" x="17" y="9" onmousedown="handleZoom(evt,'in')"/>
                <use id="zoomminus" xlink:href="#zoomMin" x="42" y="9" onmousedown="handleZoom(evt,'out')"/>
                <use id="reset" xlink:href="#resetDef" x="30" y="36" onmousedown="handleReset()"/>
                <g id="arrowUp" xlink:href="#dirArrow" transform="translate(30 24)" onmousedown="handlePan(0,-1)">
                  <use xlink:href="#rim" fill="#404040">
                        <set attributeName="fill" to="#808080" begin="arrowUp.mouseover" end="arrowUp.mouseout"/>
                  </use>
                  <path fill="none" stroke="white" stroke-width="1.5" d="M0,-3.0v7 M-2.5,-0.5L0,-3.0L2.5,-0.5"/>
                </g>
                <g id="arrowRight" xlink:href="#dirArrow" transform="rotate(90) translate(36 -43)" onmousedown="handlePan(1,0)">
                  <use xlink:href="#rim" fill="#404040">
                        <set attributeName="fill" to="#808080" begin="arrowRight.mouseover" end="arrowRight.mouseout"/>
                  </use>
                  <path fill="none" stroke="white" stroke-width="1.5" d="M0,-3.0v7 M-2.5,-0.5L0,-3.0L2.5,-0.5"/>
                </g>
                <g id="arrowDown" xlink:href="#dirArrow" transform="rotate(180) translate(-30 -48)" onmousedown="handlePan(0,1)">
                  <use xlink:href="#rim" fill="#404040">
                        <set attributeName="fill" to="#808080" begin="arrowDown.mouseover" end="arrowDown.mouseout"/>
                  </use>
                  <path fill="none" stroke="white" stroke-width="1.5" d="M0,-3.0v7 M-2.5,-0.5L0,-3.0L2.5,-0.5"/>
                </g>
                <g id="arrowLeft" xlink:href="#dirArrow" transform="rotate(270) translate(-36 17)" onmousedown="handlePan(-1,0)">
                  <use xlink:href="#rim" fill="#404040">
                        <set attributeName="fill" to="#808080" begin="arrowLeft.mouseover" end="arrowLeft.mouseout"/>
                  </use>
                  <path fill="none" stroke="white" stroke-width="1.5" d="M0,-3.0v7 M-2.5,-0.5L0,-3.0L2.5,-0.5"/>
                </g>
        </g>
        <svg viewBox="0 0 15 15" width="100%" height="30px" preserveAspectRatio="xMaxYMin meet">
         <g id="arrow_out" transform="scale(0.3 0.3)">
          <a xlink:href="Optimizations_8cpp__incl_org.svg" target="_base">
           <rect id="button" ry="5" rx="5" y="6" x="6" height="38" width="38"
                fill="#f2f5e9" fill-opacity="0.5" stroke="#606060" stroke-width="1.0"/>
           <path id="arrow"
             d="M 11.500037,31.436501 C 11.940474,20.09759 22.043105,11.32322 32.158766,21.979434 L 37.068811,17.246167 C 37.068811,17.246167 37.088388,32 37.088388,32 L 22.160133,31.978069 C 22.160133,31.978069 26.997745,27.140456 26.997745,27.140456 C 18.528582,18.264221 13.291696,25.230495 11.500037,31.436501 z"
             style="fill:#404040;"/>
          </a>
         </g>
        </svg>
</svg>
