<?xml version="1.0" encoding="UTF-8" standalone="no"?>
<!DOCTYPE svg PUBLIC "-//W3C//DTD SVG 1.1//EN"
 "http://www.w3.org/Graphics/SVG/1.1/DTD/svg11.dtd">
<!-- Generated by graphviz version 2.38.0 (20140413.2041)
 -->
<!-- Title: /home/yukiosir/workspace/CompilerProject/Software/pinhao/include/pinhao/PerformanceAnalyser/PAPIWrapper.h Pages: 1 -->
<svg width="526pt" height="184pt"
 viewBox="0.00 0.00 525.50 184.00" xmlns="http://www.w3.org/2000/svg" xmlns:xlink="http://www.w3.org/1999/xlink">
<g id="graph0" class="graph" transform="scale(1 1) rotate(0) translate(4 180)">
<title>/home/yukiosir/workspace/CompilerProject/Software/pinhao/include/pinhao/PerformanceAnalyser/PAPIWrapper.h</title>
<polygon fill="white" stroke="none" points="-4,4 -4,-180 521.5,-180 521.5,4 -4,4"/>
<!-- Node0 -->
<g id="node1" class="node"><title>Node0</title>
<polygon fill="#bfbfbf" stroke="black" points="345.5,-123.5 345.5,-175.5 517.5,-175.5 517.5,-123.5 345.5,-123.5"/>
<text text-anchor="start" x="353.5" y="-163.5" font-family="Helvetica,sans-Serif" font-size="10.00">/home/yukiosir/workspace</text>
<text text-anchor="start" x="353.5" y="-152.5" font-family="Helvetica,sans-Serif" font-size="10.00">/CompilerProject/Software</text>
<text text-anchor="start" x="353.5" y="-141.5" font-family="Helvetica,sans-Serif" font-size="10.00">/pinhao/include/pinhao/Performance</text>
<text text-anchor="middle" x="431.5" y="-130.5" font-family="Helvetica,sans-Serif" font-size="10.00">Analyser/PAPIWrapper.h</text>
</g>
<!-- Node1 -->
<g id="node2" class="node"><title>Node1</title>
<g id="a_node2"><a xlink:href="JITExecutor_8h.html" target="_top" xlink:title="This file defines a class that executes a module. ">
<polygon fill="white" stroke="black" points="253.5,-67.5 253.5,-86.5 399.5,-86.5 399.5,-67.5 253.5,-67.5"/>
<text text-anchor="middle" x="326.5" y="-74.5" font-family="Helvetica,sans-Serif" font-size="10.00">pinhao/Support/JITExecutor.h</text>
</a>
</g>
</g>
<!-- Node0&#45;&gt;Node1 -->
<g id="edge1" class="edge"><title>Node0&#45;&gt;Node1</title>
<path fill="none" stroke="midnightblue" d="M394.185,-123.446C378.668,-113.027 361.214,-101.308 347.917,-92.3801"/>
<polygon fill="midnightblue" stroke="midnightblue" points="349.704,-89.3641 339.451,-86.6955 345.802,-95.1756 349.704,-89.3641"/>
</g>
<!-- Node5 -->
<g id="node6" class="node"><title>Node5</title>
<polygon fill="white" stroke="#bfbfbf" points="413.5,-6 413.5,-25 457.5,-25 457.5,-6 413.5,-6"/>
<text text-anchor="middle" x="435.5" y="-13" font-family="Helvetica,sans-Serif" font-size="10.00">vector</text>
</g>
<!-- Node0&#45;&gt;Node5 -->
<g id="edge6" class="edge"><title>Node0&#45;&gt;Node5</title>
<path fill="none" stroke="midnightblue" d="M432.262,-123.361C433.041,-97.6368 434.235,-58.259 434.934,-35.1747"/>
<polygon fill="midnightblue" stroke="midnightblue" points="438.437,-35.1155 435.242,-25.0141 431.441,-34.9034 438.437,-35.1155"/>
</g>
<!-- Node6 -->
<g id="node7" class="node"><title>Node6</title>
<polygon fill="white" stroke="#bfbfbf" points="460,-67.5 460,-86.5 503,-86.5 503,-67.5 460,-67.5"/>
<text text-anchor="middle" x="481.5" y="-74.5" font-family="Helvetica,sans-Serif" font-size="10.00">papi.h</text>
</g>
<!-- Node0&#45;&gt;Node6 -->
<g id="edge7" class="edge"><title>Node0&#45;&gt;Node6</title>
<path fill="none" stroke="midnightblue" d="M449.269,-123.446C455.948,-114.029 463.38,-103.55 469.423,-95.0293"/>
<polygon fill="midnightblue" stroke="midnightblue" points="472.403,-96.8771 475.333,-86.6955 466.693,-92.8276 472.403,-96.8771"/>
</g>
<!-- Node2 -->
<g id="node3" class="node"><title>Node2</title>
<polygon fill="white" stroke="#bfbfbf" points="0,-0.5 0,-30.5 111,-30.5 111,-0.5 0,-0.5"/>
<text text-anchor="start" x="8" y="-18.5" font-family="Helvetica,sans-Serif" font-size="10.00">llvm/ExecutionEngine</text>
<text text-anchor="middle" x="55.5" y="-7.5" font-family="Helvetica,sans-Serif" font-size="10.00">/MCJIT.h</text>
</g>
<!-- Node1&#45;&gt;Node2 -->
<g id="edge2" class="edge"><title>Node1&#45;&gt;Node2</title>
<path fill="none" stroke="midnightblue" d="M286.997,-67.4249C247.546,-58.8489 184.902,-45.1989 121.012,-31.1076"/>
<polygon fill="midnightblue" stroke="midnightblue" points="121.685,-27.672 111.166,-28.9347 120.176,-34.5076 121.685,-27.672"/>
</g>
<!-- Node3 -->
<g id="node4" class="node"><title>Node3</title>
<polygon fill="white" stroke="#bfbfbf" points="129.5,-0.5 129.5,-30.5 239.5,-30.5 239.5,-0.5 129.5,-0.5"/>
<text text-anchor="start" x="137.5" y="-18.5" font-family="Helvetica,sans-Serif" font-size="10.00">llvm/Transforms/Utils</text>
<text text-anchor="middle" x="184.5" y="-7.5" font-family="Helvetica,sans-Serif" font-size="10.00">/Cloning.h</text>
</g>
<!-- Node1&#45;&gt;Node3 -->
<g id="edge3" class="edge"><title>Node1&#45;&gt;Node3</title>
<path fill="none" stroke="midnightblue" d="M306.155,-67.4751C285.665,-58.8895 253.43,-45.3827 227.289,-34.4291"/>
<polygon fill="midnightblue" stroke="midnightblue" points="228.542,-31.1596 217.967,-30.523 225.837,-37.6157 228.542,-31.1596"/>
</g>
<!-- Node4 -->
<g id="node5" class="node"><title>Node4</title>
<polygon fill="white" stroke="#bfbfbf" points="257.5,-6 257.5,-25 395.5,-25 395.5,-6 257.5,-6"/>
<text text-anchor="middle" x="326.5" y="-13" font-family="Helvetica,sans-Serif" font-size="10.00">llvm/Support/TargetSelect.h</text>
</g>
<!-- Node1&#45;&gt;Node4 -->
<g id="edge4" class="edge"><title>Node1&#45;&gt;Node4</title>
<path fill="none" stroke="midnightblue" d="M326.5,-67.4751C326.5,-59.0803 326.5,-45.9806 326.5,-35.1631"/>
<polygon fill="midnightblue" stroke="midnightblue" points="330,-35.0091 326.5,-25.0091 323,-35.0091 330,-35.0091"/>
</g>
<!-- Node1&#45;&gt;Node5 -->
<g id="edge5" class="edge"><title>Node1&#45;&gt;Node5</title>
<path fill="none" stroke="midnightblue" d="M342.117,-67.4751C360.086,-57.6664 389.821,-41.4346 410.906,-29.925"/>
<polygon fill="midnightblue" stroke="midnightblue" points="412.811,-32.8726 419.912,-25.0091 409.458,-26.7284 412.811,-32.8726"/>
</g>
</g>
</svg>
