<?xml version="1.0" encoding="UTF-8" standalone="no"?>
<!DOCTYPE svg PUBLIC "-//W3C//DTD SVG 1.1//EN"
 "http://www.w3.org/Graphics/SVG/1.1/DTD/svg11.dtd">
<!-- Generated by graphviz version 2.38.0 (20140413.2041)
 -->
<!-- Title: /home/yukiosir/workspace/CompilerProject/Software/pinhao/lib/PerformanceAnalyser/PAPIWrapper.cpp Pages: 1 -->
<svg width="407pt" height="307pt"
 viewBox="0.00 0.00 406.50 307.00" xmlns="http://www.w3.org/2000/svg" xmlns:xlink="http://www.w3.org/1999/xlink">
<g id="graph0" class="graph" transform="scale(1 1) rotate(0) translate(4 303)">
<title>/home/yukiosir/workspace/CompilerProject/Software/pinhao/lib/PerformanceAnalyser/PAPIWrapper.cpp</title>
<polygon fill="white" stroke="none" points="-4,4 -4,-303 402.5,-303 402.5,4 -4,4"/>
<!-- Node0 -->
<g id="node1" class="node"><title>Node0</title>
<polygon fill="#bfbfbf" stroke="black" points="240.5,-246.5 240.5,-298.5 398.5,-298.5 398.5,-246.5 240.5,-246.5"/>
<text text-anchor="start" x="248.5" y="-286.5" font-family="Helvetica,sans-Serif" font-size="10.00">/home/yukiosir/workspace</text>
<text text-anchor="start" x="248.5" y="-275.5" font-family="Helvetica,sans-Serif" font-size="10.00">/CompilerProject/Software</text>
<text text-anchor="start" x="248.5" y="-264.5" font-family="Helvetica,sans-Serif" font-size="10.00">/pinhao/lib/PerformanceAnalyser</text>
<text text-anchor="middle" x="319.5" y="-253.5" font-family="Helvetica,sans-Serif" font-size="10.00">/PAPIWrapper.cpp</text>
</g>
<!-- Node1 -->
<g id="node2" class="node"><title>Node1</title>
<g id="a_node2"><a xlink:href="PAPIWrapper_8h.html" target="_top" xlink:title="pinhao/PerformanceAnalyser\l/PAPIWrapper.h">
<polygon fill="white" stroke="black" points="248.5,-179.5 248.5,-209.5 390.5,-209.5 390.5,-179.5 248.5,-179.5"/>
<text text-anchor="start" x="256.5" y="-197.5" font-family="Helvetica,sans-Serif" font-size="10.00">pinhao/PerformanceAnalyser</text>
<text text-anchor="middle" x="319.5" y="-186.5" font-family="Helvetica,sans-Serif" font-size="10.00">/PAPIWrapper.h</text>
</a>
</g>
</g>
<!-- Node0&#45;&gt;Node1 -->
<g id="edge1" class="edge"><title>Node0&#45;&gt;Node1</title>
<path fill="none" stroke="midnightblue" d="M319.5,-246.193C319.5,-237.786 319.5,-228.443 319.5,-220.091"/>
<polygon fill="midnightblue" stroke="midnightblue" points="323,-219.845 319.5,-209.845 316,-219.845 323,-219.845"/>
</g>
<!-- Node2 -->
<g id="node3" class="node"><title>Node2</title>
<g id="a_node3"><a xlink:href="JITExecutor_8h.html" target="_top" xlink:title="This file defines a class that executes a module. ">
<polygon fill="white" stroke="black" points="145.5,-123.5 145.5,-142.5 291.5,-142.5 291.5,-123.5 145.5,-123.5"/>
<text text-anchor="middle" x="218.5" y="-130.5" font-family="Helvetica,sans-Serif" font-size="10.00">pinhao/Support/JITExecutor.h</text>
</a>
</g>
</g>
<!-- Node1&#45;&gt;Node2 -->
<g id="edge2" class="edge"><title>Node1&#45;&gt;Node2</title>
<path fill="none" stroke="midnightblue" d="M295.564,-179.399C279.375,-169.862 258.093,-157.325 241.997,-147.842"/>
<polygon fill="midnightblue" stroke="midnightblue" points="243.589,-144.718 233.196,-142.658 240.036,-150.749 243.589,-144.718"/>
</g>
<!-- Node6 -->
<g id="node7" class="node"><title>Node6</title>
<polygon fill="white" stroke="#bfbfbf" points="294.5,-62 294.5,-81 338.5,-81 338.5,-62 294.5,-62"/>
<text text-anchor="middle" x="316.5" y="-69" font-family="Helvetica,sans-Serif" font-size="10.00">vector</text>
</g>
<!-- Node1&#45;&gt;Node6 -->
<g id="edge7" class="edge"><title>Node1&#45;&gt;Node6</title>
<path fill="none" stroke="midnightblue" d="M319.144,-179.145C318.6,-157.203 317.562,-115.327 316.961,-91.0906"/>
<polygon fill="midnightblue" stroke="midnightblue" points="320.459,-90.9623 316.712,-81.0522 313.461,-91.1359 320.459,-90.9623"/>
</g>
<!-- Node7 -->
<g id="node8" class="node"><title>Node7</title>
<polygon fill="white" stroke="#bfbfbf" points="348,-123.5 348,-142.5 391,-142.5 391,-123.5 348,-123.5"/>
<text text-anchor="middle" x="369.5" y="-130.5" font-family="Helvetica,sans-Serif" font-size="10.00">papi.h</text>
</g>
<!-- Node1&#45;&gt;Node7 -->
<g id="edge8" class="edge"><title>Node1&#45;&gt;Node7</title>
<path fill="none" stroke="midnightblue" d="M331.349,-179.399C338.615,-170.753 347.952,-159.642 355.571,-150.576"/>
<polygon fill="midnightblue" stroke="midnightblue" points="358.471,-152.565 362.225,-142.658 353.112,-148.062 358.471,-152.565"/>
</g>
<!-- Node3 -->
<g id="node4" class="node"><title>Node3</title>
<g id="a_node4"><a xlink:href="InitializationRoutines_8h.html" target="_top" xlink:title="pinhao/InitializationRoutines.h">
<polygon fill="white" stroke="black" points="0,-62 0,-81 147,-81 147,-62 0,-62"/>
<text text-anchor="middle" x="73.5" y="-69" font-family="Helvetica,sans-Serif" font-size="10.00">pinhao/InitializationRoutines.h</text>
</a>
</g>
</g>
<!-- Node2&#45;&gt;Node3 -->
<g id="edge3" class="edge"><title>Node2&#45;&gt;Node3</title>
<path fill="none" stroke="midnightblue" d="M197.725,-123.475C173.068,-113.357 131.755,-96.4046 103.598,-84.8507"/>
<polygon fill="midnightblue" stroke="midnightblue" points="104.817,-81.5674 94.2364,-81.0091 102.159,-88.0434 104.817,-81.5674"/>
</g>
<!-- Node5 -->
<g id="node6" class="node"><title>Node5</title>
<polygon fill="white" stroke="#bfbfbf" points="165,-56.5 165,-86.5 276,-86.5 276,-56.5 165,-56.5"/>
<text text-anchor="start" x="173" y="-74.5" font-family="Helvetica,sans-Serif" font-size="10.00">llvm/ExecutionEngine</text>
<text text-anchor="middle" x="220.5" y="-63.5" font-family="Helvetica,sans-Serif" font-size="10.00">/MCJIT.h</text>
</g>
<!-- Node2&#45;&gt;Node5 -->
<g id="edge5" class="edge"><title>Node2&#45;&gt;Node5</title>
<path fill="none" stroke="midnightblue" d="M218.787,-123.475C219.022,-116.471 219.367,-106.192 219.687,-96.6956"/>
<polygon fill="midnightblue" stroke="midnightblue" points="223.191,-96.6349 220.029,-86.523 216.195,-96.3997 223.191,-96.6349"/>
</g>
<!-- Node2&#45;&gt;Node6 -->
<g id="edge6" class="edge"><title>Node2&#45;&gt;Node6</title>
<path fill="none" stroke="midnightblue" d="M232.541,-123.475C248.551,-113.755 274.95,-97.7266 293.874,-86.2372"/>
<polygon fill="midnightblue" stroke="midnightblue" points="295.754,-89.1907 302.485,-81.0091 292.121,-83.2072 295.754,-89.1907"/>
</g>
<!-- Node4 -->
<g id="node5" class="node"><title>Node4</title>
<polygon fill="white" stroke="#bfbfbf" points="28,-0.5 28,-19.5 119,-19.5 119,-0.5 28,-0.5"/>
<text text-anchor="middle" x="73.5" y="-7.5" font-family="Helvetica,sans-Serif" font-size="10.00">llvm/IR/Module.h</text>
</g>
<!-- Node3&#45;&gt;Node4 -->
<g id="edge4" class="edge"><title>Node3&#45;&gt;Node4</title>
<path fill="none" stroke="midnightblue" d="M73.5,-61.9751C73.5,-53.5803 73.5,-40.4806 73.5,-29.6631"/>
<polygon fill="midnightblue" stroke="midnightblue" points="77.0001,-29.5091 73.5,-19.5091 70.0001,-29.5091 77.0001,-29.5091"/>
</g>
</g>
</svg>
