<?xml version="1.0" encoding="UTF-8" standalone="no"?>
<!DOCTYPE svg PUBLIC "-//W3C//DTD SVG 1.1//EN"
 "http://www.w3.org/Graphics/SVG/1.1/DTD/svg11.dtd">
<!-- Generated by graphviz version 2.38.0 (20140413.2041)
 -->
<!-- Title: /home/yukiosir/workspace/CompilerProject/Software/pinhao/lib/FeaturesImpl/PAPIMultFeatures.cpp Pages: 1 -->
<svg width="1266pt" height="587pt"
 viewBox="0.00 0.00 1266.00 587.00" xmlns="http://www.w3.org/2000/svg" xmlns:xlink="http://www.w3.org/1999/xlink">
<g id="graph0" class="graph" transform="scale(1 1) rotate(0) translate(4 583)">
<title>/home/yukiosir/workspace/CompilerProject/Software/pinhao/lib/FeaturesImpl/PAPIMultFeatures.cpp</title>
<polygon fill="white" stroke="none" points="-4,4 -4,-583 1262,-583 1262,4 -4,4"/>
<!-- Node0 -->
<g id="node1" class="node"><title>Node0</title>
<polygon fill="#bfbfbf" stroke="black" points="852.5,-526.5 852.5,-578.5 983.5,-578.5 983.5,-526.5 852.5,-526.5"/>
<text text-anchor="start" x="860.5" y="-566.5" font-family="Helvetica,sans-Serif" font-size="10.00">/home/yukiosir/workspace</text>
<text text-anchor="start" x="860.5" y="-555.5" font-family="Helvetica,sans-Serif" font-size="10.00">/CompilerProject/Software</text>
<text text-anchor="start" x="860.5" y="-544.5" font-family="Helvetica,sans-Serif" font-size="10.00">/pinhao/lib/FeaturesImpl</text>
<text text-anchor="middle" x="918" y="-533.5" font-family="Helvetica,sans-Serif" font-size="10.00">/PAPIMultFeatures.cpp</text>
</g>
<!-- Node1 -->
<g id="node2" class="node"><title>Node1</title>
<g id="a_node2"><a xlink:href="VectorFeature_8h.html" target="_top" xlink:title="pinhao/Features/VectorFeature.h">
<polygon fill="white" stroke="black" points="369.5,-470.5 369.5,-489.5 528.5,-489.5 528.5,-470.5 369.5,-470.5"/>
<text text-anchor="middle" x="449" y="-477.5" font-family="Helvetica,sans-Serif" font-size="10.00">pinhao/Features/VectorFeature.h</text>
</a>
</g>
</g>
<!-- Node0&#45;&gt;Node1 -->
<g id="edge1" class="edge"><title>Node0&#45;&gt;Node1</title>
<path fill="none" stroke="midnightblue" d="M852.294,-541.623C763.328,-528.25 605.408,-504.511 515.853,-491.049"/>
<polygon fill="midnightblue" stroke="midnightblue" points="516.221,-487.565 505.812,-489.54 515.18,-494.488 516.221,-487.565"/>
</g>
<!-- Node23 -->
<g id="node24" class="node"><title>Node23</title>
<g id="a_node24"><a xlink:href="JITExecutor_8h.html" target="_top" xlink:title="This file defines a class that executes a module. ">
<polygon fill="white" stroke="black" points="845,-470.5 845,-489.5 991,-489.5 991,-470.5 845,-470.5"/>
<text text-anchor="middle" x="918" y="-477.5" font-family="Helvetica,sans-Serif" font-size="10.00">pinhao/Support/JITExecutor.h</text>
</a>
</g>
</g>
<!-- Node0&#45;&gt;Node23 -->
<g id="edge39" class="edge"><title>Node0&#45;&gt;Node23</title>
<path fill="none" stroke="midnightblue" d="M918,-526.446C918,-517.73 918,-508.104 918,-499.964"/>
<polygon fill="midnightblue" stroke="midnightblue" points="921.5,-499.695 918,-489.695 914.5,-499.696 921.5,-499.695"/>
</g>
<!-- Node27 -->
<g id="node28" class="node"><title>Node27</title>
<polygon fill="white" stroke="#bfbfbf" points="1009.5,-470.5 1009.5,-489.5 1052.5,-489.5 1052.5,-470.5 1009.5,-470.5"/>
<text text-anchor="middle" x="1031" y="-477.5" font-family="Helvetica,sans-Serif" font-size="10.00">papi.h</text>
</g>
<!-- Node0&#45;&gt;Node27 -->
<g id="edge44" class="edge"><title>Node0&#45;&gt;Node27</title>
<path fill="none" stroke="midnightblue" d="M958.158,-526.446C975.122,-515.862 994.237,-503.936 1008.63,-494.958"/>
<polygon fill="midnightblue" stroke="midnightblue" points="1010.7,-497.79 1017.33,-489.527 1007,-491.851 1010.7,-497.79"/>
</g>
<!-- Node2 -->
<g id="node3" class="node"><title>Node2</title>
<g id="a_node3"><a xlink:href="Features_8h.html" target="_top" xlink:title="This file implements some basic feature classes that extends the base class Feature. ">
<polygon fill="white" stroke="black" points="379,-224.5 379,-243.5 515,-243.5 515,-224.5 379,-224.5"/>
<text text-anchor="middle" x="447" y="-231.5" font-family="Helvetica,sans-Serif" font-size="10.00">pinhao/Features/Features.h</text>
</a>
</g>
</g>
<!-- Node1&#45;&gt;Node2 -->
<g id="edge2" class="edge"><title>Node1&#45;&gt;Node2</title>
<path fill="none" stroke="midnightblue" d="M459.291,-470.403C483.808,-448.818 542.298,-390.183 524,-336 512.21,-301.087 482.997,-268.714 464.134,-250.443"/>
<polygon fill="midnightblue" stroke="midnightblue" points="466.447,-247.814 456.765,-243.51 461.65,-252.912 466.447,-247.814"/>
</g>
<!-- Node15 -->
<g id="node16" class="node"><title>Node15</title>
<g id="a_node16"><a xlink:href="FeatureYAMLWrapper_8h.html" target="_top" xlink:title="pinhao/Support/FeatureYAMLWrapper.h">
<polygon fill="white" stroke="black" points="259,-409 259,-428 449,-428 449,-409 259,-409"/>
<text text-anchor="middle" x="354" y="-416" font-family="Helvetica,sans-Serif" font-size="10.00">pinhao/Support/FeatureYAMLWrapper.h</text>
</a>
</g>
</g>
<!-- Node1&#45;&gt;Node15 -->
<g id="edge20" class="edge"><title>Node1&#45;&gt;Node15</title>
<path fill="none" stroke="midnightblue" d="M430.488,-470.475C413.169,-460.931 387.898,-445.307 371.067,-433.868"/>
<polygon fill="midnightblue" stroke="midnightblue" points="372.89,-430.872 362.689,-428.009 368.878,-436.608 372.89,-430.872"/>
</g>
<!-- Node3 -->
<g id="node4" class="node"><title>Node3</title>
<g id="a_node4"><a xlink:href="Feature_8h.html" target="_top" xlink:title="This file defines the base feature class. ">
<polygon fill="white" stroke="black" points="343.5,-168.5 343.5,-187.5 474.5,-187.5 474.5,-168.5 343.5,-168.5"/>
<text text-anchor="middle" x="409" y="-175.5" font-family="Helvetica,sans-Serif" font-size="10.00">pinhao/Features/Feature.h</text>
</a>
</g>
</g>
<!-- Node2&#45;&gt;Node3 -->
<g id="edge3" class="edge"><title>Node2&#45;&gt;Node3</title>
<path fill="none" stroke="midnightblue" d="M440.725,-224.083C435.358,-216.455 427.482,-205.264 420.921,-195.941"/>
<polygon fill="midnightblue" stroke="midnightblue" points="423.775,-193.915 415.158,-187.751 418.051,-197.943 423.775,-193.915"/>
</g>
<!-- Node4 -->
<g id="node5" class="node"><title>Node4</title>
<g id="a_node5"><a xlink:href="FeatureInfo_8h.html" target="_top" xlink:title="This file defines a class that holds some informations about a feature. ">
<polygon fill="white" stroke="black" points="658.5,-112.5 658.5,-131.5 805.5,-131.5 805.5,-112.5 658.5,-112.5"/>
<text text-anchor="middle" x="732" y="-119.5" font-family="Helvetica,sans-Serif" font-size="10.00">pinhao/Features/FeatureInfo.h</text>
</a>
</g>
</g>
<!-- Node3&#45;&gt;Node4 -->
<g id="edge4" class="edge"><title>Node3&#45;&gt;Node4</title>
<path fill="none" stroke="midnightblue" d="M460.18,-168.444C517.472,-158.865 610.244,-143.356 671.188,-133.167"/>
<polygon fill="midnightblue" stroke="midnightblue" points="671.773,-136.618 681.059,-131.516 670.619,-129.713 671.773,-136.618"/>
</g>
<!-- Node7 -->
<g id="node8" class="node"><title>Node7</title>
<polygon fill="white" stroke="#bfbfbf" points="503.5,-56.5 503.5,-75.5 538.5,-75.5 538.5,-56.5 503.5,-56.5"/>
<text text-anchor="middle" x="521" y="-63.5" font-family="Helvetica,sans-Serif" font-size="10.00">map</text>
</g>
<!-- Node3&#45;&gt;Node7 -->
<g id="edge17" class="edge"><title>Node3&#45;&gt;Node7</title>
<path fill="none" stroke="midnightblue" d="M420.164,-168.487C431.378,-159.757 448.962,-145.571 463,-132 479.056,-116.478 495.885,-97.2378 507.255,-83.7322"/>
<polygon fill="midnightblue" stroke="midnightblue" points="510.166,-85.7062 513.875,-75.7819 504.786,-81.227 510.166,-85.7062"/>
</g>
<!-- Node9 -->
<g id="node10" class="node"><title>Node9</title>
<polygon fill="white" stroke="#bfbfbf" points="311.5,-56.5 311.5,-75.5 360.5,-75.5 360.5,-56.5 311.5,-56.5"/>
<text text-anchor="middle" x="336" y="-63.5" font-family="Helvetica,sans-Serif" font-size="10.00">cassert</text>
</g>
<!-- Node3&#45;&gt;Node9 -->
<g id="edge18" class="edge"><title>Node3&#45;&gt;Node9</title>
<path fill="none" stroke="midnightblue" d="M343.403,-170.464C318.762,-164.45 293.089,-153.138 278,-132 264.391,-112.936 288.476,-93.1483 309.628,-80.4903"/>
<polygon fill="midnightblue" stroke="midnightblue" points="311.419,-83.4986 318.396,-75.5249 307.969,-77.4077 311.419,-83.4986"/>
</g>
<!-- Node10 -->
<g id="node11" class="node"><title>Node10</title>
<g id="a_node11"><a xlink:href="FeatureRegistry_8h.html" target="_top" xlink:title="This file defines a class that has all the registered features. ">
<polygon fill="white" stroke="black" points="287.5,-112.5 287.5,-131.5 454.5,-131.5 454.5,-112.5 287.5,-112.5"/>
<text text-anchor="middle" x="371" y="-119.5" font-family="Helvetica,sans-Serif" font-size="10.00">pinhao/Features/FeatureRegistry.h</text>
</a>
</g>
</g>
<!-- Node3&#45;&gt;Node10 -->
<g id="edge11" class="edge"><title>Node3&#45;&gt;Node10</title>
<path fill="none" stroke="midnightblue" d="M402.725,-168.083C397.358,-160.455 389.482,-149.264 382.921,-139.941"/>
<polygon fill="midnightblue" stroke="midnightblue" points="385.775,-137.915 377.158,-131.751 380.051,-141.943 385.775,-137.915"/>
</g>
<!-- Node12 -->
<g id="node13" class="node"><title>Node12</title>
<polygon fill="white" stroke="#bfbfbf" points="510.5,-112.5 510.5,-131.5 601.5,-131.5 601.5,-112.5 510.5,-112.5"/>
<text text-anchor="middle" x="556" y="-119.5" font-family="Helvetica,sans-Serif" font-size="10.00">llvm/IR/Module.h</text>
</g>
<!-- Node3&#45;&gt;Node12 -->
<g id="edge15" class="edge"><title>Node3&#45;&gt;Node12</title>
<path fill="none" stroke="midnightblue" d="M432.293,-168.444C456.807,-159.438 495.596,-145.189 523.2,-135.049"/>
<polygon fill="midnightblue" stroke="midnightblue" points="524.637,-138.25 532.816,-131.516 522.223,-131.679 524.637,-138.25"/>
</g>
<!-- Node13 -->
<g id="node14" class="node"><title>Node13</title>
<polygon fill="white" stroke="#bfbfbf" points="70.5,-112.5 70.5,-131.5 159.5,-131.5 159.5,-112.5 70.5,-112.5"/>
<text text-anchor="middle" x="115" y="-119.5" font-family="Helvetica,sans-Serif" font-size="10.00">yaml&#45;cpp/yaml.h</text>
</g>
<!-- Node3&#45;&gt;Node13 -->
<g id="edge16" class="edge"><title>Node3&#45;&gt;Node13</title>
<path fill="none" stroke="midnightblue" d="M362.415,-168.444C310.132,-158.841 225.388,-143.275 169.923,-133.088"/>
<polygon fill="midnightblue" stroke="midnightblue" points="170.389,-129.615 159.921,-131.251 169.124,-136.5 170.389,-129.615"/>
</g>
<!-- Node14 -->
<g id="node15" class="node"><title>Node14</title>
<polygon fill="white" stroke="#bfbfbf" points="178,-112.5 178,-131.5 232,-131.5 232,-112.5 178,-112.5"/>
<text text-anchor="middle" x="205" y="-119.5" font-family="Helvetica,sans-Serif" font-size="10.00">iostream</text>
</g>
<!-- Node3&#45;&gt;Node14 -->
<g id="edge19" class="edge"><title>Node3&#45;&gt;Node14</title>
<path fill="none" stroke="midnightblue" d="M376.676,-168.444C340.064,-158.752 280.51,-142.988 242.05,-132.807"/>
<polygon fill="midnightblue" stroke="midnightblue" points="242.839,-129.396 232.277,-130.22 241.048,-136.163 242.839,-129.396"/>
</g>
<!-- Node5 -->
<g id="node6" class="node"><title>Node5</title>
<g id="a_node6"><a xlink:href="Types_8h.html" target="_top" xlink:title="pinhao/Support/Types.h">
<polygon fill="white" stroke="black" points="597,-56.5 597,-75.5 717,-75.5 717,-56.5 597,-56.5"/>
<text text-anchor="middle" x="657" y="-63.5" font-family="Helvetica,sans-Serif" font-size="10.00">pinhao/Support/Types.h</text>
</a>
</g>
</g>
<!-- Node4&#45;&gt;Node5 -->
<g id="edge5" class="edge"><title>Node4&#45;&gt;Node5</title>
<path fill="none" stroke="midnightblue" d="M719.95,-112.324C708.537,-104.107 691.169,-91.6017 677.565,-81.8069"/>
<polygon fill="midnightblue" stroke="midnightblue" points="679.43,-78.8366 669.269,-75.8339 675.34,-84.5174 679.43,-78.8366"/>
</g>
<!-- Node6 -->
<g id="node7" class="node"><title>Node6</title>
<polygon fill="white" stroke="#bfbfbf" points="680.5,-0.5 680.5,-19.5 721.5,-19.5 721.5,-0.5 680.5,-0.5"/>
<text text-anchor="middle" x="701" y="-7.5" font-family="Helvetica,sans-Serif" font-size="10.00">string</text>
</g>
<!-- Node4&#45;&gt;Node6 -->
<g id="edge9" class="edge"><title>Node4&#45;&gt;Node6</title>
<path fill="none" stroke="midnightblue" d="M732.319,-112.369C732.541,-99.7074 732.02,-75.4903 726,-56 723.005,-46.3027 717.747,-36.3537 712.824,-28.2845"/>
<polygon fill="midnightblue" stroke="midnightblue" points="715.715,-26.3097 707.354,-19.8032 709.833,-30.1039 715.715,-26.3097"/>
</g>
<!-- Node4&#45;&gt;Node7 -->
<g id="edge7" class="edge"><title>Node4&#45;&gt;Node7</title>
<path fill="none" stroke="midnightblue" d="M698.566,-112.444C657.142,-101.842 587.322,-83.9733 548.729,-74.0965"/>
<polygon fill="midnightblue" stroke="midnightblue" points="549.277,-70.624 538.722,-71.5354 547.541,-77.4055 549.277,-70.624"/>
</g>
<!-- Node8 -->
<g id="node9" class="node"><title>Node8</title>
<polygon fill="white" stroke="#bfbfbf" points="799,-56.5 799,-75.5 843,-75.5 843,-56.5 799,-56.5"/>
<text text-anchor="middle" x="821" y="-63.5" font-family="Helvetica,sans-Serif" font-size="10.00">vector</text>
</g>
<!-- Node4&#45;&gt;Node8 -->
<g id="edge8" class="edge"><title>Node4&#45;&gt;Node8</title>
<path fill="none" stroke="midnightblue" d="M746.299,-112.324C760.183,-103.9 781.492,-90.9709 797.804,-81.0741"/>
<polygon fill="midnightblue" stroke="midnightblue" points="800.002,-83.8341 806.736,-75.6545 796.371,-77.8495 800.002,-83.8341"/>
</g>
<!-- Node4&#45;&gt;Node9 -->
<g id="edge10" class="edge"><title>Node4&#45;&gt;Node9</title>
<path fill="none" stroke="midnightblue" d="M658.395,-114.79C587.15,-108.111 475.995,-95.934 370.642,-75.8784"/>
<polygon fill="midnightblue" stroke="midnightblue" points="371.275,-72.4361 360.793,-73.9769 369.948,-79.3092 371.275,-72.4361"/>
</g>
<!-- Node5&#45;&gt;Node6 -->
<g id="edge6" class="edge"><title>Node5&#45;&gt;Node6</title>
<path fill="none" stroke="midnightblue" d="M664.266,-56.083C670.545,-48.3768 679.788,-37.0333 687.431,-27.6531"/>
<polygon fill="midnightblue" stroke="midnightblue" points="690.266,-29.7143 693.869,-19.7511 684.839,-25.2926 690.266,-29.7143"/>
</g>
<!-- Node10&#45;&gt;Node7 -->
<g id="edge14" class="edge"><title>Node10&#45;&gt;Node7</title>
<path fill="none" stroke="midnightblue" d="M394.768,-112.444C421.696,-102.749 465.502,-86.9792 493.78,-76.799"/>
<polygon fill="midnightblue" stroke="midnightblue" points="495.213,-80.0033 503.436,-73.323 492.842,-73.4171 495.213,-80.0033"/>
</g>
<!-- Node10&#45;&gt;Node9 -->
<g id="edge13" class="edge"><title>Node10&#45;&gt;Node9</title>
<path fill="none" stroke="midnightblue" d="M365.22,-112.083C360.328,-104.534 353.173,-93.4948 347.167,-84.2298"/>
<polygon fill="midnightblue" stroke="midnightblue" points="350.048,-82.239 341.672,-75.7511 344.174,-86.0463 350.048,-82.239"/>
</g>
<!-- Node11 -->
<g id="node12" class="node"><title>Node11</title>
<polygon fill="white" stroke="#bfbfbf" points="379,-56.5 379,-75.5 431,-75.5 431,-56.5 379,-56.5"/>
<text text-anchor="middle" x="405" y="-63.5" font-family="Helvetica,sans-Serif" font-size="10.00">memory</text>
</g>
<!-- Node10&#45;&gt;Node11 -->
<g id="edge12" class="edge"><title>Node10&#45;&gt;Node11</title>
<path fill="none" stroke="midnightblue" d="M376.614,-112.083C381.367,-104.534 388.318,-93.4948 394.152,-84.2298"/>
<polygon fill="midnightblue" stroke="midnightblue" points="397.124,-86.0783 399.49,-75.7511 391.2,-82.3486 397.124,-86.0783"/>
</g>
<!-- Node15&#45;&gt;Node1 -->
<g id="edge27" class="edge"><title>Node15&#45;&gt;Node1</title>
<path fill="none" stroke="midnightblue" d="M372.483,-428.009C389.794,-437.546 415.064,-453.169 431.905,-464.613"/>
<polygon fill="midnightblue" stroke="midnightblue" points="430.088,-467.613 440.289,-470.475 434.1,-461.876 430.088,-467.613"/>
</g>
<!-- Node16 -->
<g id="node17" class="node"><title>Node16</title>
<g id="a_node17"><a xlink:href="YAMLWrapper_8h.html" target="_top" xlink:title="pinhao/Support/YAMLWrapper.h">
<polygon fill="white" stroke="black" points="28.5,-168.5 28.5,-187.5 185.5,-187.5 185.5,-168.5 28.5,-168.5"/>
<text text-anchor="middle" x="107" y="-175.5" font-family="Helvetica,sans-Serif" font-size="10.00">pinhao/Support/YAMLWrapper.h</text>
</a>
</g>
</g>
<!-- Node15&#45;&gt;Node16 -->
<g id="edge21" class="edge"><title>Node15&#45;&gt;Node16</title>
<path fill="none" stroke="midnightblue" d="M304.439,-408.949C270.846,-401.556 226.463,-388.567 192,-367 157.351,-345.317 147.411,-336.493 129,-300 112.229,-266.758 108.098,-222.658 107.169,-197.918"/>
<polygon fill="midnightblue" stroke="midnightblue" points="110.664,-197.656 106.931,-187.74 103.666,-197.819 110.664,-197.656"/>
</g>
<!-- Node18 -->
<g id="node19" class="node"><title>Node18</title>
<g id="a_node19"><a xlink:href="YamlOptions_8h.html" target="_top" xlink:title="pinhao/Support/YamlOptions.h">
<polygon fill="white" stroke="black" points="138.5,-280.5 138.5,-299.5 287.5,-299.5 287.5,-280.5 138.5,-280.5"/>
<text text-anchor="middle" x="213" y="-287.5" font-family="Helvetica,sans-Serif" font-size="10.00">pinhao/Support/YamlOptions.h</text>
</a>
</g>
</g>
<!-- Node15&#45;&gt;Node18 -->
<g id="edge25" class="edge"><title>Node15&#45;&gt;Node18</title>
<path fill="none" stroke="midnightblue" d="M270.39,-408.898C244.223,-401.808 218.026,-389.212 202,-367 189.855,-350.168 196.551,-325.7 203.663,-309.109"/>
<polygon fill="midnightblue" stroke="midnightblue" points="206.888,-310.474 207.98,-299.936 200.555,-307.494 206.888,-310.474"/>
</g>
<!-- Node19 -->
<g id="node20" class="node"><title>Node19</title>
<g id="a_node20"><a xlink:href="MapFeature_8h.html" target="_top" xlink:title="pinhao/Features/MapFeature.h">
<polygon fill="white" stroke="black" points="211.5,-342 211.5,-361 360.5,-361 360.5,-342 211.5,-342"/>
<text text-anchor="middle" x="286" y="-349" font-family="Helvetica,sans-Serif" font-size="10.00">pinhao/Features/MapFeature.h</text>
</a>
</g>
</g>
<!-- Node15&#45;&gt;Node19 -->
<g id="edge28" class="edge"><title>Node15&#45;&gt;Node19</title>
<path fill="none" stroke="midnightblue" d="M340.041,-408.734C327.182,-398.5 308.874,-381.364 297.01,-368.692"/>
<polygon fill="midnightblue" stroke="midnightblue" points="299.533,-366.263 290.266,-361.127 294.308,-370.921 299.533,-366.263"/>
</g>
<!-- Node22 -->
<g id="node23" class="node"><title>Node22</title>
<g id="a_node23"><a xlink:href="MapVectorFeature_8h.html" target="_top" xlink:title="pinhao/Features/MapVector\lFeature.h">
<polygon fill="white" stroke="black" points="378.5,-336.5 378.5,-366.5 515.5,-366.5 515.5,-336.5 378.5,-336.5"/>
<text text-anchor="start" x="386.5" y="-354.5" font-family="Helvetica,sans-Serif" font-size="10.00">pinhao/Features/MapVector</text>
<text text-anchor="middle" x="447" y="-343.5" font-family="Helvetica,sans-Serif" font-size="10.00">Feature.h</text>
</a>
</g>
</g>
<!-- Node15&#45;&gt;Node22 -->
<g id="edge35" class="edge"><title>Node15&#45;&gt;Node22</title>
<path fill="none" stroke="midnightblue" d="M361.754,-408.734C373.144,-399.4 394.225,-384.325 412.657,-372.131"/>
<polygon fill="midnightblue" stroke="midnightblue" points="414.696,-374.98 421.165,-366.589 410.876,-369.114 414.696,-374.98"/>
</g>
<!-- Node16&#45;&gt;Node13 -->
<g id="edge22" class="edge"><title>Node16&#45;&gt;Node13</title>
<path fill="none" stroke="midnightblue" d="M108.321,-168.083C109.381,-160.927 110.906,-150.635 112.231,-141.691"/>
<polygon fill="midnightblue" stroke="midnightblue" points="115.7,-142.156 113.704,-131.751 108.776,-141.13 115.7,-142.156"/>
</g>
<!-- Node16&#45;&gt;Node14 -->
<g id="edge23" class="edge"><title>Node16&#45;&gt;Node14</title>
<path fill="none" stroke="midnightblue" d="M122.745,-168.324C138.319,-159.743 162.377,-146.486 180.459,-136.522"/>
<polygon fill="midnightblue" stroke="midnightblue" points="182.224,-139.546 189.294,-131.655 178.846,-133.415 182.224,-139.546"/>
</g>
<!-- Node17 -->
<g id="node18" class="node"><title>Node17</title>
<polygon fill="white" stroke="#bfbfbf" points="0,-112.5 0,-131.5 52,-131.5 52,-112.5 0,-112.5"/>
<text text-anchor="middle" x="26" y="-119.5" font-family="Helvetica,sans-Serif" font-size="10.00">ostream</text>
</g>
<!-- Node16&#45;&gt;Node17 -->
<g id="edge24" class="edge"><title>Node16&#45;&gt;Node17</title>
<path fill="none" stroke="midnightblue" d="M93.9859,-168.324C81.4684,-159.979 62.3183,-147.212 47.5286,-137.352"/>
<polygon fill="midnightblue" stroke="midnightblue" points="49.2437,-134.289 38.9818,-131.655 45.3608,-140.114 49.2437,-134.289"/>
</g>
<!-- Node18&#45;&gt;Node13 -->
<g id="edge26" class="edge"><title>Node18&#45;&gt;Node13</title>
<path fill="none" stroke="midnightblue" d="M214.018,-280.469C216.079,-259.337 218.65,-203.695 194,-168 183.824,-153.265 167.151,-142.752 151.739,-135.613"/>
<polygon fill="midnightblue" stroke="midnightblue" points="152.945,-132.322 142.375,-131.596 150.186,-138.755 152.945,-132.322"/>
</g>
<!-- Node19&#45;&gt;Node2 -->
<g id="edge29" class="edge"><title>Node19&#45;&gt;Node2</title>
<path fill="none" stroke="midnightblue" d="M298.101,-341.819C325.491,-322.17 392.485,-274.109 426.486,-249.717"/>
<polygon fill="midnightblue" stroke="midnightblue" points="428.673,-252.455 434.758,-243.782 424.593,-246.767 428.673,-252.455"/>
</g>
<!-- Node19&#45;&gt;Node15 -->
<g id="edge30" class="edge"><title>Node19&#45;&gt;Node15</title>
<path fill="none" stroke="midnightblue" d="M299.785,-361.127C312.594,-371.298 330.906,-388.423 342.828,-401.135"/>
<polygon fill="midnightblue" stroke="midnightblue" points="340.345,-403.609 349.618,-408.734 345.565,-398.945 340.345,-403.609"/>
</g>
<!-- Node20 -->
<g id="node21" class="node"><title>Node20</title>
<g id="a_node21"><a xlink:href="Iterator_8h.html" target="_top" xlink:title="pinhao/Support/Iterator.h">
<polygon fill="white" stroke="black" points="551,-280.5 551,-299.5 675,-299.5 675,-280.5 551,-280.5"/>
<text text-anchor="middle" x="613" y="-287.5" font-family="Helvetica,sans-Serif" font-size="10.00">pinhao/Support/Iterator.h</text>
</a>
</g>
</g>
<!-- Node19&#45;&gt;Node20 -->
<g id="edge31" class="edge"><title>Node19&#45;&gt;Node20</title>
<path fill="none" stroke="midnightblue" d="M332.851,-341.975C391.736,-331.261 492.74,-312.882 556.03,-301.366"/>
<polygon fill="midnightblue" stroke="midnightblue" points="557.024,-304.743 566.236,-299.509 555.771,-297.856 557.024,-304.743"/>
</g>
<!-- Node20&#45;&gt;Node2 -->
<g id="edge32" class="edge"><title>Node20&#45;&gt;Node2</title>
<path fill="none" stroke="midnightblue" d="M586.697,-280.444C558.649,-271.32 514.056,-256.813 482.816,-246.651"/>
<polygon fill="midnightblue" stroke="midnightblue" points="483.772,-243.282 473.18,-243.516 481.607,-249.938 483.772,-243.282"/>
</g>
<!-- Node20&#45;&gt;Node7 -->
<g id="edge34" class="edge"><title>Node20&#45;&gt;Node7</title>
<path fill="none" stroke="midnightblue" d="M615.717,-280.391C623.755,-253.167 644.762,-167.47 610,-112 596.55,-90.5381 569.411,-78.9102 548.618,-72.8854"/>
<polygon fill="midnightblue" stroke="midnightblue" points="549.281,-69.4408 538.72,-70.2912 547.506,-76.2122 549.281,-69.4408"/>
</g>
<!-- Node21 -->
<g id="node22" class="node"><title>Node21</title>
<polygon fill="white" stroke="#bfbfbf" points="554.5,-224.5 554.5,-243.5 601.5,-243.5 601.5,-224.5 554.5,-224.5"/>
<text text-anchor="middle" x="578" y="-231.5" font-family="Helvetica,sans-Serif" font-size="10.00">iterator</text>
</g>
<!-- Node20&#45;&gt;Node21 -->
<g id="edge33" class="edge"><title>Node20&#45;&gt;Node21</title>
<path fill="none" stroke="midnightblue" d="M607.22,-280.083C602.328,-272.534 595.173,-261.495 589.167,-252.23"/>
<polygon fill="midnightblue" stroke="midnightblue" points="592.048,-250.239 583.672,-243.751 586.174,-254.046 592.048,-250.239"/>
</g>
<!-- Node22&#45;&gt;Node2 -->
<g id="edge36" class="edge"><title>Node22&#45;&gt;Node2</title>
<path fill="none" stroke="midnightblue" d="M447,-336.337C447,-315.622 447,-277.016 447,-253.899"/>
<polygon fill="midnightblue" stroke="midnightblue" points="450.5,-253.669 447,-243.669 443.5,-253.669 450.5,-253.669"/>
</g>
<!-- Node22&#45;&gt;Node15 -->
<g id="edge37" class="edge"><title>Node22&#45;&gt;Node15</title>
<path fill="none" stroke="midnightblue" d="M432.518,-366.589C418.466,-377.403 397.199,-392.275 380.238,-403.153"/>
<polygon fill="midnightblue" stroke="midnightblue" points="377.946,-400.458 371.331,-408.734 381.663,-406.39 377.946,-400.458"/>
</g>
<!-- Node22&#45;&gt;Node20 -->
<g id="edge38" class="edge"><title>Node22&#45;&gt;Node20</title>
<path fill="none" stroke="midnightblue" d="M486.34,-336.399C514.565,-326.283 552.206,-312.791 579.105,-303.149"/>
<polygon fill="midnightblue" stroke="midnightblue" points="580.613,-306.327 588.846,-299.658 578.251,-299.737 580.613,-306.327"/>
</g>
<!-- Node23&#45;&gt;Node8 -->
<g id="edge43" class="edge"><title>Node23&#45;&gt;Node8</title>
<path fill="none" stroke="midnightblue" d="M898.551,-470.393C883.825,-462.877 864.267,-450.571 853,-434 832.087,-403.243 834,-389.694 834,-352.5 834,-352.5 834,-352.5 834,-177 834,-144.576 828.361,-107.146 824.51,-85.3688"/>
<polygon fill="midnightblue" stroke="midnightblue" points="827.95,-84.7196 822.7,-75.5172 821.065,-85.9853 827.95,-84.7196"/>
</g>
<!-- Node24 -->
<g id="node25" class="node"><title>Node24</title>
<polygon fill="white" stroke="#bfbfbf" points="862.5,-403.5 862.5,-433.5 973.5,-433.5 973.5,-403.5 862.5,-403.5"/>
<text text-anchor="start" x="870.5" y="-421.5" font-family="Helvetica,sans-Serif" font-size="10.00">llvm/ExecutionEngine</text>
<text text-anchor="middle" x="918" y="-410.5" font-family="Helvetica,sans-Serif" font-size="10.00">/MCJIT.h</text>
</g>
<!-- Node23&#45;&gt;Node24 -->
<g id="edge40" class="edge"><title>Node23&#45;&gt;Node24</title>
<path fill="none" stroke="midnightblue" d="M918,-470.475C918,-463.471 918,-453.192 918,-443.696"/>
<polygon fill="midnightblue" stroke="midnightblue" points="921.5,-443.523 918,-433.523 914.5,-443.523 921.5,-443.523"/>
</g>
<!-- Node25 -->
<g id="node26" class="node"><title>Node25</title>
<polygon fill="white" stroke="#bfbfbf" points="992,-403.5 992,-433.5 1102,-433.5 1102,-403.5 992,-403.5"/>
<text text-anchor="start" x="1000" y="-421.5" font-family="Helvetica,sans-Serif" font-size="10.00">llvm/Transforms/Utils</text>
<text text-anchor="middle" x="1047" y="-410.5" font-family="Helvetica,sans-Serif" font-size="10.00">/Cloning.h</text>
</g>
<!-- Node23&#45;&gt;Node25 -->
<g id="edge41" class="edge"><title>Node23&#45;&gt;Node25</title>
<path fill="none" stroke="midnightblue" d="M936.483,-470.475C954.934,-461.965 983.867,-448.619 1007.5,-437.718"/>
<polygon fill="midnightblue" stroke="midnightblue" points="1008.98,-440.89 1016.6,-433.523 1006.05,-434.533 1008.98,-440.89"/>
</g>
<!-- Node26 -->
<g id="node27" class="node"><title>Node26</title>
<polygon fill="white" stroke="#bfbfbf" points="1120,-409 1120,-428 1258,-428 1258,-409 1120,-409"/>
<text text-anchor="middle" x="1189" y="-416" font-family="Helvetica,sans-Serif" font-size="10.00">llvm/Support/TargetSelect.h</text>
</g>
<!-- Node23&#45;&gt;Node26 -->
<g id="edge42" class="edge"><title>Node23&#45;&gt;Node26</title>
<path fill="none" stroke="midnightblue" d="M956.828,-470.475C1005.12,-459.871 1087.61,-441.76 1140.15,-430.224"/>
<polygon fill="midnightblue" stroke="midnightblue" points="1141.23,-433.572 1150.24,-428.009 1139.73,-426.735 1141.23,-433.572"/>
</g>
</g>
</svg>
