<?xml version="1.0" encoding="UTF-8" standalone="no"?>
<!DOCTYPE svg PUBLIC "-//W3C//DTD SVG 1.1//EN"
 "http://www.w3.org/Graphics/SVG/1.1/DTD/svg11.dtd">
<!-- Generated by graphviz version 2.38.0 (20140413.2041)
 -->
<!-- Title: /home/yukiosir/workspace/CompilerProject/Software/pinhao/lib/PerformanceAnalyser/PAPIWrapper.cpp Pages: 1 -->
<svg width="519pt" height="251pt"
 viewBox="0.00 0.00 518.50 251.00" xmlns="http://www.w3.org/2000/svg" xmlns:xlink="http://www.w3.org/1999/xlink">
<g id="graph0" class="graph" transform="scale(1 1) rotate(0) translate(4 247)">
<title>/home/yukiosir/workspace/CompilerProject/Software/pinhao/lib/PerformanceAnalyser/PAPIWrapper.cpp</title>
<polygon fill="white" stroke="none" points="-4,4 -4,-247 514.5,-247 514.5,4 -4,4"/>
<!-- Node0 -->
<g id="node1" class="node"><title>Node0</title>
<polygon fill="#bfbfbf" stroke="black" points="352.5,-190.5 352.5,-242.5 510.5,-242.5 510.5,-190.5 352.5,-190.5"/>
<text text-anchor="start" x="360.5" y="-230.5" font-family="Helvetica,sans-Serif" font-size="10.00">/home/yukiosir/workspace</text>
<text text-anchor="start" x="360.5" y="-219.5" font-family="Helvetica,sans-Serif" font-size="10.00">/CompilerProject/Software</text>
<text text-anchor="start" x="360.5" y="-208.5" font-family="Helvetica,sans-Serif" font-size="10.00">/pinhao/lib/PerformanceAnalyser</text>
<text text-anchor="middle" x="431.5" y="-197.5" font-family="Helvetica,sans-Serif" font-size="10.00">/PAPIWrapper.cpp</text>
</g>
<!-- Node1 -->
<g id="node2" class="node"><title>Node1</title>
<g id="a_node2"><a xlink:href="PAPIWrapper_8h.html" target="_top" xlink:title="pinhao/PerformanceAnalyser\l/PAPIWrapper.h">
<polygon fill="white" stroke="black" points="360.5,-123.5 360.5,-153.5 502.5,-153.5 502.5,-123.5 360.5,-123.5"/>
<text text-anchor="start" x="368.5" y="-141.5" font-family="Helvetica,sans-Serif" font-size="10.00">pinhao/PerformanceAnalyser</text>
<text text-anchor="middle" x="431.5" y="-130.5" font-family="Helvetica,sans-Serif" font-size="10.00">/PAPIWrapper.h</text>
</a>
</g>
</g>
<!-- Node0&#45;&gt;Node1 -->
<g id="edge1" class="edge"><title>Node0&#45;&gt;Node1</title>
<path fill="none" stroke="midnightblue" d="M431.5,-190.193C431.5,-181.786 431.5,-172.443 431.5,-164.091"/>
<polygon fill="midnightblue" stroke="midnightblue" points="435,-163.845 431.5,-153.845 428,-163.845 435,-163.845"/>
</g>
<!-- Node2 -->
<g id="node3" class="node"><title>Node2</title>
<g id="a_node3"><a xlink:href="JITExecutor_8h.html" target="_top" xlink:title="This file defines a class that executes a module. ">
<polygon fill="white" stroke="black" points="253.5,-67.5 253.5,-86.5 399.5,-86.5 399.5,-67.5 253.5,-67.5"/>
<text text-anchor="middle" x="326.5" y="-74.5" font-family="Helvetica,sans-Serif" font-size="10.00">pinhao/Support/JITExecutor.h</text>
</a>
</g>
</g>
<!-- Node1&#45;&gt;Node2 -->
<g id="edge2" class="edge"><title>Node1&#45;&gt;Node2</title>
<path fill="none" stroke="midnightblue" d="M406.616,-123.399C389.786,-113.862 367.661,-101.325 350.927,-91.8422"/>
<polygon fill="midnightblue" stroke="midnightblue" points="352.204,-88.5429 341.778,-86.6578 348.753,-94.633 352.204,-88.5429"/>
</g>
<!-- Node6 -->
<g id="node7" class="node"><title>Node6</title>
<polygon fill="white" stroke="#bfbfbf" points="413.5,-6 413.5,-25 457.5,-25 457.5,-6 413.5,-6"/>
<text text-anchor="middle" x="435.5" y="-13" font-family="Helvetica,sans-Serif" font-size="10.00">vector</text>
</g>
<!-- Node1&#45;&gt;Node6 -->
<g id="edge7" class="edge"><title>Node1&#45;&gt;Node6</title>
<path fill="none" stroke="midnightblue" d="M431.975,-123.145C432.7,-101.203 434.084,-59.3268 434.885,-35.0906"/>
<polygon fill="midnightblue" stroke="midnightblue" points="438.385,-35.1624 435.217,-25.0522 431.389,-34.931 438.385,-35.1624"/>
</g>
<!-- Node7 -->
<g id="node8" class="node"><title>Node7</title>
<polygon fill="white" stroke="#bfbfbf" points="460,-67.5 460,-86.5 503,-86.5 503,-67.5 460,-67.5"/>
<text text-anchor="middle" x="481.5" y="-74.5" font-family="Helvetica,sans-Serif" font-size="10.00">papi.h</text>
</g>
<!-- Node1&#45;&gt;Node7 -->
<g id="edge8" class="edge"><title>Node1&#45;&gt;Node7</title>
<path fill="none" stroke="midnightblue" d="M443.349,-123.399C450.615,-114.753 459.952,-103.642 467.571,-94.576"/>
<polygon fill="midnightblue" stroke="midnightblue" points="470.471,-96.5653 474.225,-86.6578 465.112,-92.0619 470.471,-96.5653"/>
</g>
<!-- Node3 -->
<g id="node4" class="node"><title>Node3</title>
<polygon fill="white" stroke="#bfbfbf" points="0,-0.5 0,-30.5 111,-30.5 111,-0.5 0,-0.5"/>
<text text-anchor="start" x="8" y="-18.5" font-family="Helvetica,sans-Serif" font-size="10.00">llvm/ExecutionEngine</text>
<text text-anchor="middle" x="55.5" y="-7.5" font-family="Helvetica,sans-Serif" font-size="10.00">/MCJIT.h</text>
</g>
<!-- Node2&#45;&gt;Node3 -->
<g id="edge3" class="edge"><title>Node2&#45;&gt;Node3</title>
<path fill="none" stroke="midnightblue" d="M286.997,-67.4249C247.546,-58.8489 184.902,-45.1989 121.012,-31.1076"/>
<polygon fill="midnightblue" stroke="midnightblue" points="121.685,-27.672 111.166,-28.9347 120.176,-34.5076 121.685,-27.672"/>
</g>
<!-- Node4 -->
<g id="node5" class="node"><title>Node4</title>
<polygon fill="white" stroke="#bfbfbf" points="129.5,-0.5 129.5,-30.5 239.5,-30.5 239.5,-0.5 129.5,-0.5"/>
<text text-anchor="start" x="137.5" y="-18.5" font-family="Helvetica,sans-Serif" font-size="10.00">llvm/Transforms/Utils</text>
<text text-anchor="middle" x="184.5" y="-7.5" font-family="Helvetica,sans-Serif" font-size="10.00">/Cloning.h</text>
</g>
<!-- Node2&#45;&gt;Node4 -->
<g id="edge4" class="edge"><title>Node2&#45;&gt;Node4</title>
<path fill="none" stroke="midnightblue" d="M306.155,-67.4751C285.665,-58.8895 253.43,-45.3827 227.289,-34.4291"/>
<polygon fill="midnightblue" stroke="midnightblue" points="228.542,-31.1596 217.967,-30.523 225.837,-37.6157 228.542,-31.1596"/>
</g>
<!-- Node5 -->
<g id="node6" class="node"><title>Node5</title>
<polygon fill="white" stroke="#bfbfbf" points="257.5,-6 257.5,-25 395.5,-25 395.5,-6 257.5,-6"/>
<text text-anchor="middle" x="326.5" y="-13" font-family="Helvetica,sans-Serif" font-size="10.00">llvm/Support/TargetSelect.h</text>
</g>
<!-- Node2&#45;&gt;Node5 -->
<g id="edge5" class="edge"><title>Node2&#45;&gt;Node5</title>
<path fill="none" stroke="midnightblue" d="M326.5,-67.4751C326.5,-59.0803 326.5,-45.9806 326.5,-35.1631"/>
<polygon fill="midnightblue" stroke="midnightblue" points="330,-35.0091 326.5,-25.0091 323,-35.0091 330,-35.0091"/>
</g>
<!-- Node2&#45;&gt;Node6 -->
<g id="edge6" class="edge"><title>Node2&#45;&gt;Node6</title>
<path fill="none" stroke="midnightblue" d="M342.117,-67.4751C360.086,-57.6664 389.821,-41.4346 410.906,-29.925"/>
<polygon fill="midnightblue" stroke="midnightblue" points="412.811,-32.8726 419.912,-25.0091 409.458,-26.7284 412.811,-32.8726"/>
</g>
</g>
</svg>
