<?xml version="1.0" encoding="UTF-8" standalone="no"?>
<!DOCTYPE svg PUBLIC "-//W3C//DTD SVG 1.1//EN"
 "http://www.w3.org/Graphics/SVG/1.1/DTD/svg11.dtd">
<!-- Generated by graphviz version 2.38.0 (20140413.2041)
 -->
<!-- Title: /home/yukiosir/workspace/CompilerProject/Software/pinhao/lib/FeaturesImpl/PAPIMultFeatures.cpp Pages: 1 -->
<!--zoomable 587 -->
<svg id="main" version="1.1" xmlns="http://www.w3.org/2000/svg" xmlns:xlink="http://www.w3.org/1999/xlink" xml:space="preserve" onload="init(evt)">
<style type="text/css"><![CDATA[
.edge:hover path { stroke: red; }
.edge:hover polygon { stroke: red; fill: red; }
]]></style>
<script type="text/javascript"><![CDATA[
var edges = document.getElementsByTagName('g');
if (edges && edges.length) {
  for (var i=0;i<edges.length;i++) {
    if (edges[i].id.substr(0,4)=='edge') {
      edges[i].setAttribute('class','edge');
    }
  }
}
]]></script>
        <defs>
                <circle id="rim" cx="0" cy="0" r="7"/>
                <circle id="rim2" cx="0" cy="0" r="3.5"/>
                <g id="zoomPlus">
                        <use xlink:href="#rim" fill="#404040">
                                <set attributeName="fill" to="#808080" begin="zoomplus.mouseover" end="zoomplus.mouseout"/>
                        </use>
                        <path d="M-4,0h8M0,-4v8" fill="none" stroke="white" stroke-width="1.5" pointer-events="none"/>
                </g>
                <g id="zoomMin">
                        <use xlink:href="#rim" fill="#404040">
                                <set attributeName="fill" to="#808080" begin="zoomminus.mouseover" end="zoomminus.mouseout"/>
                        </use>
                        <path d="M-4,0h8" fill="none" stroke="white" stroke-width="1.5" pointer-events="none"/>
                </g>
                <g id="dirArrow">
                        <path fill="none" stroke="white" stroke-width="1.5" d="M0,-3.0v7 M-2.5,-0.5L0,-3.0L2.5,-0.5"/>
                </g>
               <g id="resetDef">
                       <use xlink:href="#rim2" fill="#404040">
                               <set attributeName="fill" to="#808080" begin="reset.mouseover" end="reset.mouseout"/>
                       </use>
               </g>
        </defs>

<script type="text/javascript">
var viewWidth = 1070;
var viewHeight = 587;
var sectionId = 'dynsection-0';
</script>
<script xlink:href="svgpan.js"/>
<svg id="graph" class="graph">
<g id="viewport">
<title>/home/yukiosir/workspace/CompilerProject/Software/pinhao/lib/FeaturesImpl/PAPIMultFeatures.cpp</title>
<polygon fill="white" stroke="none" points="-4,4 -4,-583 1066,-583 1066,4 -4,4"/>
<!-- Node0 -->
<g id="node1" class="node"><title>Node0</title>
<polygon fill="#bfbfbf" stroke="black" points="805,-526.5 805,-578.5 936,-578.5 936,-526.5 805,-526.5"/>
<text text-anchor="start" x="813" y="-566.5" font-family="Helvetica,sans-Serif" font-size="10.00">/home/yukiosir/workspace</text>
<text text-anchor="start" x="813" y="-555.5" font-family="Helvetica,sans-Serif" font-size="10.00">/CompilerProject/Software</text>
<text text-anchor="start" x="813" y="-544.5" font-family="Helvetica,sans-Serif" font-size="10.00">/pinhao/lib/FeaturesImpl</text>
<text text-anchor="middle" x="870.5" y="-533.5" font-family="Helvetica,sans-Serif" font-size="10.00">/PAPIMultFeatures.cpp</text>
</g>
<!-- Node1 -->
<g id="node2" class="node"><title>Node1</title>
<g id="a_node2"><a xlink:href="VectorFeature_8h.html" target="_top" xlink:title="pinhao/Features/VectorFeature.h">
<polygon fill="white" stroke="black" points="364,-470.5 364,-489.5 523,-489.5 523,-470.5 364,-470.5"/>
<text text-anchor="middle" x="443.5" y="-477.5" font-family="Helvetica,sans-Serif" font-size="10.00">pinhao/Features/VectorFeature.h</text>
</a>
</g>
</g>
<!-- Node0&#45;&gt;Node1 -->
<g id="edge1" class="edge"><title>Node0&#45;&gt;Node1</title>
<path fill="none" stroke="midnightblue" d="M804.717,-540.639C723.056,-527.156 584.843,-504.336 505.148,-491.178"/>
<polygon fill="midnightblue" stroke="midnightblue" points="505.689,-487.72 495.252,-489.545 504.548,-494.627 505.689,-487.72"/>
</g>
<!-- Node23 -->
<g id="node24" class="node"><title>Node23</title>
<g id="a_node24"><a xlink:href="JITExecutor_8h.html" target="_top" xlink:title="This file defines a class that executes a module. ">
<polygon fill="white" stroke="black" points="848.5,-470.5 848.5,-489.5 994.5,-489.5 994.5,-470.5 848.5,-470.5"/>
<text text-anchor="middle" x="921.5" y="-477.5" font-family="Helvetica,sans-Serif" font-size="10.00">pinhao/Support/JITExecutor.h</text>
</a>
</g>
</g>
<!-- Node0&#45;&gt;Node23 -->
<g id="edge39" class="edge"><title>Node0&#45;&gt;Node23</title>
<path fill="none" stroke="midnightblue" d="M888.624,-526.446C895.437,-517.029 903.017,-506.55 909.181,-498.029"/>
<polygon fill="midnightblue" stroke="midnightblue" points="912.184,-499.849 915.21,-489.695 906.513,-495.746 912.184,-499.849"/>
</g>
<!-- Node24 -->
<g id="node25" class="node"><title>Node24</title>
<g id="a_node25"><a xlink:href="InitializationRoutines_8h.html" target="_top" xlink:title="pinhao/InitializationRoutines.h">
<polygon fill="white" stroke="black" points="747,-409 747,-428 894,-428 894,-409 747,-409"/>
<text text-anchor="middle" x="820.5" y="-416" font-family="Helvetica,sans-Serif" font-size="10.00">pinhao/InitializationRoutines.h</text>
</a>
</g>
</g>
<!-- Node0&#45;&gt;Node24 -->
<g id="edge44" class="edge"><title>Node0&#45;&gt;Node24</title>
<path fill="none" stroke="midnightblue" d="M856.334,-526.294C850.58,-515.368 844.196,-502.286 839.5,-490 833.001,-472.995 827.814,-452.883 824.513,-438.501"/>
<polygon fill="midnightblue" stroke="midnightblue" points="827.849,-437.378 822.28,-428.365 821.013,-438.883 827.849,-437.378"/>
</g>
<!-- Node26 -->
<g id="node27" class="node"><title>Node26</title>
<polygon fill="white" stroke="#bfbfbf" points="1013,-470.5 1013,-489.5 1056,-489.5 1056,-470.5 1013,-470.5"/>
<text text-anchor="middle" x="1034.5" y="-477.5" font-family="Helvetica,sans-Serif" font-size="10.00">papi.h</text>
</g>
<!-- Node0&#45;&gt;Node26 -->
<g id="edge45" class="edge"><title>Node0&#45;&gt;Node26</title>
<path fill="none" stroke="midnightblue" d="M928.782,-526.446C954.692,-515.308 984.06,-502.683 1005.26,-493.572"/>
<polygon fill="midnightblue" stroke="midnightblue" points="1006.86,-496.692 1014.66,-489.527 1004.09,-490.261 1006.86,-496.692"/>
</g>
<!-- Node2 -->
<g id="node3" class="node"><title>Node2</title>
<g id="a_node3"><a xlink:href="Features_8h.html" target="_top" xlink:title="This file implements some basic feature classes that extends the base class Feature. ">
<polygon fill="white" stroke="black" points="369.5,-224.5 369.5,-243.5 505.5,-243.5 505.5,-224.5 369.5,-224.5"/>
<text text-anchor="middle" x="437.5" y="-231.5" font-family="Helvetica,sans-Serif" font-size="10.00">pinhao/Features/Features.h</text>
</a>
</g>
</g>
<!-- Node1&#45;&gt;Node2 -->
<g id="edge2" class="edge"><title>Node1&#45;&gt;Node2</title>
<path fill="none" stroke="midnightblue" d="M454.141,-470.399C479.484,-448.806 539.896,-390.152 520.5,-336 507.72,-300.319 476.296,-268.212 455.989,-250.198"/>
<polygon fill="midnightblue" stroke="midnightblue" points="458.168,-247.456 448.306,-243.583 453.6,-252.76 458.168,-247.456"/>
</g>
<!-- Node15 -->
<g id="node16" class="node"><title>Node15</title>
<g id="a_node16"><a xlink:href="FeatureYAMLWrapper_8h.html" target="_top" xlink:title="pinhao/Support/FeatureYAMLWrapper.h">
<polygon fill="white" stroke="black" points="251.5,-409 251.5,-428 441.5,-428 441.5,-409 251.5,-409"/>
<text text-anchor="middle" x="346.5" y="-416" font-family="Helvetica,sans-Serif" font-size="10.00">pinhao/Support/FeatureYAMLWrapper.h</text>
</a>
</g>
</g>
<!-- Node1&#45;&gt;Node15 -->
<g id="edge20" class="edge"><title>Node1&#45;&gt;Node15</title>
<path fill="none" stroke="midnightblue" d="M424.702,-470.475C407.062,-460.931 381.266,-445.307 364.05,-433.868"/>
<polygon fill="midnightblue" stroke="midnightblue" points="365.706,-430.761 355.475,-428.009 361.757,-436.541 365.706,-430.761"/>
</g>
<!-- Node3 -->
<g id="node4" class="node"><title>Node3</title>
<g id="a_node4"><a xlink:href="Feature_8h.html" target="_top" xlink:title="This file defines the base feature class. ">
<polygon fill="white" stroke="black" points="390,-168.5 390,-187.5 521,-187.5 521,-168.5 390,-168.5"/>
<text text-anchor="middle" x="455.5" y="-175.5" font-family="Helvetica,sans-Serif" font-size="10.00">pinhao/Features/Feature.h</text>
</a>
</g>
</g>
<!-- Node2&#45;&gt;Node3 -->
<g id="edge3" class="edge"><title>Node2&#45;&gt;Node3</title>
<path fill="none" stroke="midnightblue" d="M440.472,-224.083C442.884,-216.849 446.364,-206.409 449.368,-197.397"/>
<polygon fill="midnightblue" stroke="midnightblue" points="452.741,-198.345 452.583,-187.751 446.1,-196.131 452.741,-198.345"/>
</g>
<!-- Node4 -->
<g id="node5" class="node"><title>Node4</title>
<g id="a_node5"><a xlink:href="FeatureInfo_8h.html" target="_top" xlink:title="This file defines a class that holds some informations about a feature. ">
<polygon fill="white" stroke="black" points="638,-112.5 638,-131.5 785,-131.5 785,-112.5 638,-112.5"/>
<text text-anchor="middle" x="711.5" y="-119.5" font-family="Helvetica,sans-Serif" font-size="10.00">pinhao/Features/FeatureInfo.h</text>
</a>
</g>
</g>
<!-- Node3&#45;&gt;Node4 -->
<g id="edge4" class="edge"><title>Node3&#45;&gt;Node4</title>
<path fill="none" stroke="midnightblue" d="M496.064,-168.444C540.816,-159.004 612.883,-143.802 661.195,-133.611"/>
<polygon fill="midnightblue" stroke="midnightblue" points="662.064,-137.005 671.126,-131.516 660.619,-130.156 662.064,-137.005"/>
</g>
<!-- Node7 -->
<g id="node8" class="node"><title>Node7</title>
<polygon fill="white" stroke="#bfbfbf" points="394,-56.5 394,-75.5 429,-75.5 429,-56.5 394,-56.5"/>
<text text-anchor="middle" x="411.5" y="-63.5" font-family="Helvetica,sans-Serif" font-size="10.00">map</text>
</g>
<!-- Node3&#45;&gt;Node7 -->
<g id="edge17" class="edge"><title>Node3&#45;&gt;Node7</title>
<path fill="none" stroke="midnightblue" d="M440.548,-168.474C428.568,-160.702 412.627,-148.002 405.5,-132 398.952,-117.296 401.516,-98.9002 405.098,-85.4349"/>
<polygon fill="midnightblue" stroke="midnightblue" points="408.449,-86.4445 408.033,-75.8578 401.756,-84.393 408.449,-86.4445"/>
</g>
<!-- Node9 -->
<g id="node10" class="node"><title>Node9</title>
<polygon fill="white" stroke="#bfbfbf" points="585,-56.5 585,-75.5 634,-75.5 634,-56.5 585,-56.5"/>
<text text-anchor="middle" x="609.5" y="-63.5" font-family="Helvetica,sans-Serif" font-size="10.00">cassert</text>
</g>
<!-- Node3&#45;&gt;Node9 -->
<g id="edge18" class="edge"><title>Node3&#45;&gt;Node9</title>
<path fill="none" stroke="midnightblue" d="M520.477,-168.449C545.319,-162.125 572.075,-151.127 590.5,-132 602.342,-119.707 606.864,-100.45 608.559,-86.0831"/>
<polygon fill="midnightblue" stroke="midnightblue" points="612.07,-86.0879 609.398,-75.8355 605.093,-85.5163 612.07,-86.0879"/>
</g>
<!-- Node10 -->
<g id="node11" class="node"><title>Node10</title>
<g id="a_node11"><a xlink:href="FeatureRegistry_8h.html" target="_top" xlink:title="This file defines a class that has all the registered features. ">
<polygon fill="white" stroke="black" points="415,-112.5 415,-131.5 582,-131.5 582,-112.5 415,-112.5"/>
<text text-anchor="middle" x="498.5" y="-119.5" font-family="Helvetica,sans-Serif" font-size="10.00">pinhao/Features/FeatureRegistry.h</text>
</a>
</g>
</g>
<!-- Node3&#45;&gt;Node10 -->
<g id="edge11" class="edge"><title>Node3&#45;&gt;Node10</title>
<path fill="none" stroke="midnightblue" d="M462.601,-168.083C468.737,-160.377 477.77,-149.033 485.239,-139.653"/>
<polygon fill="midnightblue" stroke="midnightblue" points="488.04,-141.754 491.532,-131.751 482.564,-137.394 488.04,-141.754"/>
</g>
<!-- Node12 -->
<g id="node13" class="node"><title>Node12</title>
<polygon fill="white" stroke="#bfbfbf" points="803,-112.5 803,-131.5 894,-131.5 894,-112.5 803,-112.5"/>
<text text-anchor="middle" x="848.5" y="-119.5" font-family="Helvetica,sans-Serif" font-size="10.00">llvm/IR/Module.h</text>
</g>
<!-- Node3&#45;&gt;Node12 -->
<g id="edge15" class="edge"><title>Node3&#45;&gt;Node12</title>
<path fill="none" stroke="midnightblue" d="M521.009,-168.867C586.966,-160.544 691.898,-146.942 792.83,-132.06"/>
<polygon fill="midnightblue" stroke="midnightblue" points="793.518,-135.497 802.898,-130.57 792.493,-128.572 793.518,-135.497"/>
</g>
<!-- Node13 -->
<g id="node14" class="node"><title>Node13</title>
<polygon fill="white" stroke="#bfbfbf" points="152,-112.5 152,-131.5 241,-131.5 241,-112.5 152,-112.5"/>
<text text-anchor="middle" x="196.5" y="-119.5" font-family="Helvetica,sans-Serif" font-size="10.00">yaml&#45;cpp/yaml.h</text>
</g>
<!-- Node3&#45;&gt;Node13 -->
<g id="edge16" class="edge"><title>Node3&#45;&gt;Node13</title>
<path fill="none" stroke="midnightblue" d="M414.461,-168.444C369.184,-159.004 296.273,-143.802 247.394,-133.611"/>
<polygon fill="midnightblue" stroke="midnightblue" points="247.851,-130.131 237.347,-131.516 246.422,-136.984 247.851,-130.131"/>
</g>
<!-- Node14 -->
<g id="node15" class="node"><title>Node14</title>
<polygon fill="white" stroke="#bfbfbf" points="305.5,-112.5 305.5,-131.5 359.5,-131.5 359.5,-112.5 305.5,-112.5"/>
<text text-anchor="middle" x="332.5" y="-119.5" font-family="Helvetica,sans-Serif" font-size="10.00">iostream</text>
</g>
<!-- Node3&#45;&gt;Node14 -->
<g id="edge19" class="edge"><title>Node3&#45;&gt;Node14</title>
<path fill="none" stroke="midnightblue" d="M436.01,-168.444C415.858,-159.596 384.177,-145.687 361.169,-135.586"/>
<polygon fill="midnightblue" stroke="midnightblue" points="362.462,-132.332 351.899,-131.516 359.648,-138.741 362.462,-132.332"/>
</g>
<!-- Node5 -->
<g id="node6" class="node"><title>Node5</title>
<g id="a_node6"><a xlink:href="Types_8h.html" target="_top" xlink:title="pinhao/Support/Types.h">
<polygon fill="white" stroke="black" points="714.5,-56.5 714.5,-75.5 834.5,-75.5 834.5,-56.5 714.5,-56.5"/>
<text text-anchor="middle" x="774.5" y="-63.5" font-family="Helvetica,sans-Serif" font-size="10.00">pinhao/Support/Types.h</text>
</a>
</g>
</g>
<!-- Node4&#45;&gt;Node5 -->
<g id="edge5" class="edge"><title>Node4&#45;&gt;Node5</title>
<path fill="none" stroke="midnightblue" d="M721.622,-112.324C731.026,-104.263 745.244,-92.0765 756.569,-82.3695"/>
<polygon fill="midnightblue" stroke="midnightblue" points="758.879,-84.9993 764.194,-75.8339 754.323,-79.6844 758.879,-84.9993"/>
</g>
<!-- Node6 -->
<g id="node7" class="node"><title>Node6</title>
<polygon fill="white" stroke="#bfbfbf" points="710,-0.5 710,-19.5 751,-19.5 751,-0.5 710,-0.5"/>
<text text-anchor="middle" x="730.5" y="-7.5" font-family="Helvetica,sans-Serif" font-size="10.00">string</text>
</g>
<!-- Node4&#45;&gt;Node6 -->
<g id="edge9" class="edge"><title>Node4&#45;&gt;Node6</title>
<path fill="none" stroke="midnightblue" d="M708.875,-112.436C705.428,-99.8596 700.383,-75.7467 705.5,-56 708.046,-46.1752 713.253,-36.2118 718.259,-28.166"/>
<polygon fill="midnightblue" stroke="midnightblue" points="721.249,-29.9903 723.871,-19.7252 715.42,-26.1143 721.249,-29.9903"/>
</g>
<!-- Node4&#45;&gt;Node7 -->
<g id="edge7" class="edge"><title>Node4&#45;&gt;Node7</title>
<path fill="none" stroke="midnightblue" d="M663.964,-112.444C600.569,-101.032 490.399,-81.2019 439.169,-71.9804"/>
<polygon fill="midnightblue" stroke="midnightblue" points="439.632,-68.5075 429.17,-70.1805 438.391,-75.3968 439.632,-68.5075"/>
</g>
<!-- Node8 -->
<g id="node9" class="node"><title>Node8</title>
<polygon fill="white" stroke="#bfbfbf" points="876.5,-56.5 876.5,-75.5 920.5,-75.5 920.5,-56.5 876.5,-56.5"/>
<text text-anchor="middle" x="898.5" y="-63.5" font-family="Helvetica,sans-Serif" font-size="10.00">vector</text>
</g>
<!-- Node4&#45;&gt;Node8 -->
<g id="edge8" class="edge"><title>Node4&#45;&gt;Node8</title>
<path fill="none" stroke="midnightblue" d="M741.131,-112.444C775.343,-102.564 831.411,-86.3734 866.569,-76.2208"/>
<polygon fill="midnightblue" stroke="midnightblue" points="867.692,-79.5396 876.328,-73.4026 865.75,-72.8144 867.692,-79.5396"/>
</g>
<!-- Node4&#45;&gt;Node9 -->
<g id="edge10" class="edge"><title>Node4&#45;&gt;Node9</title>
<path fill="none" stroke="midnightblue" d="M695.112,-112.324C678.829,-103.703 653.633,-90.3643 634.784,-80.3855"/>
<polygon fill="midnightblue" stroke="midnightblue" points="636.323,-77.2402 625.847,-75.6545 633.048,-83.4267 636.323,-77.2402"/>
</g>
<!-- Node5&#45;&gt;Node6 -->
<g id="edge6" class="edge"><title>Node5&#45;&gt;Node6</title>
<path fill="none" stroke="midnightblue" d="M767.234,-56.083C760.955,-48.3768 751.712,-37.0333 744.069,-27.6531"/>
<polygon fill="midnightblue" stroke="midnightblue" points="746.661,-25.2926 737.631,-19.7511 741.234,-29.7143 746.661,-25.2926"/>
</g>
<!-- Node10&#45;&gt;Node7 -->
<g id="edge14" class="edge"><title>Node10&#45;&gt;Node7</title>
<path fill="none" stroke="midnightblue" d="M484.522,-112.324C470.95,-103.9 450.12,-90.9709 434.175,-81.0741"/>
<polygon fill="midnightblue" stroke="midnightblue" points="435.786,-77.9544 425.443,-75.6545 432.094,-83.9019 435.786,-77.9544"/>
</g>
<!-- Node10&#45;&gt;Node9 -->
<g id="edge13" class="edge"><title>Node10&#45;&gt;Node9</title>
<path fill="none" stroke="midnightblue" d="M516.334,-112.324C534.216,-103.625 561.975,-90.1202 582.546,-80.113"/>
<polygon fill="midnightblue" stroke="midnightblue" points="584.249,-83.1765 591.71,-75.6545 581.187,-76.8819 584.249,-83.1765"/>
</g>
<!-- Node11 -->
<g id="node12" class="node"><title>Node11</title>
<polygon fill="white" stroke="#bfbfbf" points="472.5,-56.5 472.5,-75.5 524.5,-75.5 524.5,-56.5 472.5,-56.5"/>
<text text-anchor="middle" x="498.5" y="-63.5" font-family="Helvetica,sans-Serif" font-size="10.00">memory</text>
</g>
<!-- Node10&#45;&gt;Node11 -->
<g id="edge12" class="edge"><title>Node10&#45;&gt;Node11</title>
<path fill="none" stroke="midnightblue" d="M498.5,-112.083C498.5,-105.006 498.5,-94.8611 498.5,-85.9865"/>
<polygon fill="midnightblue" stroke="midnightblue" points="502,-85.751 498.5,-75.7511 495,-85.7511 502,-85.751"/>
</g>
<!-- Node15&#45;&gt;Node1 -->
<g id="edge27" class="edge"><title>Node15&#45;&gt;Node1</title>
<path fill="none" stroke="midnightblue" d="M365.269,-428.009C382.9,-437.546 408.696,-453.169 425.921,-464.613"/>
<polygon fill="midnightblue" stroke="midnightblue" points="424.271,-467.724 434.503,-470.475 428.22,-461.944 424.271,-467.724"/>
</g>
<!-- Node16 -->
<g id="node17" class="node"><title>Node16</title>
<g id="a_node17"><a xlink:href="YAMLWrapper_8h.html" target="_top" xlink:title="pinhao/Support/YAMLWrapper.h">
<polygon fill="white" stroke="black" points="101,-168.5 101,-187.5 258,-187.5 258,-168.5 101,-168.5"/>
<text text-anchor="middle" x="179.5" y="-175.5" font-family="Helvetica,sans-Serif" font-size="10.00">pinhao/Support/YAMLWrapper.h</text>
</a>
</g>
</g>
<!-- Node15&#45;&gt;Node16 -->
<g id="edge21" class="edge"><title>Node15&#45;&gt;Node16</title>
<path fill="none" stroke="midnightblue" d="M271.662,-408.914C244.584,-401.945 216.317,-389.426 198.5,-367 158.74,-316.953 168.497,-234.182 175.428,-197.492"/>
<polygon fill="midnightblue" stroke="midnightblue" points="178.861,-198.17 177.43,-187.672 172.003,-196.772 178.861,-198.17"/>
</g>
<!-- Node18 -->
<g id="node19" class="node"><title>Node18</title>
<g id="a_node19"><a xlink:href="YamlOptions_8h.html" target="_top" xlink:title="pinhao/Support/YamlOptions.h">
<polygon fill="white" stroke="black" points="0,-280.5 0,-299.5 149,-299.5 149,-280.5 0,-280.5"/>
<text text-anchor="middle" x="74.5" y="-287.5" font-family="Helvetica,sans-Serif" font-size="10.00">pinhao/Support/YamlOptions.h</text>
</a>
</g>
</g>
<!-- Node15&#45;&gt;Node18 -->
<g id="edge25" class="edge"><title>Node15&#45;&gt;Node18</title>
<path fill="none" stroke="midnightblue" d="M293.991,-408.961C256.63,-401.455 206.073,-388.327 165.5,-367 135.594,-351.28 106.627,-324.475 89.6899,-307.262"/>
<polygon fill="midnightblue" stroke="midnightblue" points="91.8452,-304.453 82.3902,-299.673 86.8003,-309.306 91.8452,-304.453"/>
</g>
<!-- Node19 -->
<g id="node20" class="node"><title>Node19</title>
<g id="a_node20"><a xlink:href="MapFeature_8h.html" target="_top" xlink:title="pinhao/Features/MapFeature.h">
<polygon fill="white" stroke="black" points="363,-342 363,-361 512,-361 512,-342 363,-342"/>
<text text-anchor="middle" x="437.5" y="-349" font-family="Helvetica,sans-Serif" font-size="10.00">pinhao/Features/MapFeature.h</text>
</a>
</g>
</g>
<!-- Node15&#45;&gt;Node19 -->
<g id="edge28" class="edge"><title>Node15&#45;&gt;Node19</title>
<path fill="none" stroke="midnightblue" d="M353.984,-408.734C366.853,-397.916 392.504,-379.383 412.134,-366.566"/>
<polygon fill="midnightblue" stroke="midnightblue" points="414.113,-369.455 420.663,-361.127 410.349,-363.553 414.113,-369.455"/>
</g>
<!-- Node22 -->
<g id="node23" class="node"><title>Node22</title>
<g id="a_node23"><a xlink:href="MapVectorFeature_8h.html" target="_top" xlink:title="pinhao/Features/MapVector\lFeature.h">
<polygon fill="white" stroke="black" points="208,-336.5 208,-366.5 345,-366.5 345,-336.5 208,-336.5"/>
<text text-anchor="start" x="216" y="-354.5" font-family="Helvetica,sans-Serif" font-size="10.00">pinhao/Features/MapVector</text>
<text text-anchor="middle" x="276.5" y="-343.5" font-family="Helvetica,sans-Serif" font-size="10.00">Feature.h</text>
</a>
</g>
</g>
<!-- Node15&#45;&gt;Node22 -->
<g id="edge35" class="edge"><title>Node15&#45;&gt;Node22</title>
<path fill="none" stroke="midnightblue" d="M332.271,-408.734C320.854,-399.865 305.184,-385.811 293.232,-373.972"/>
<polygon fill="midnightblue" stroke="midnightblue" points="295.495,-371.281 285.996,-366.589 290.496,-376.181 295.495,-371.281"/>
</g>
<!-- Node16&#45;&gt;Node13 -->
<g id="edge22" class="edge"><title>Node16&#45;&gt;Node13</title>
<path fill="none" stroke="midnightblue" d="M182.307,-168.083C184.585,-160.849 187.871,-150.409 190.708,-141.397"/>
<polygon fill="midnightblue" stroke="midnightblue" points="194.081,-142.341 193.745,-131.751 187.404,-140.239 194.081,-142.341"/>
</g>
<!-- Node16&#45;&gt;Node14 -->
<g id="edge23" class="edge"><title>Node16&#45;&gt;Node14</title>
<path fill="none" stroke="midnightblue" d="M203.743,-168.444C229.371,-159.399 269.985,-145.064 298.738,-134.916"/>
<polygon fill="midnightblue" stroke="midnightblue" points="300.105,-138.145 308.37,-131.516 297.775,-131.544 300.105,-138.145"/>
</g>
<!-- Node17 -->
<g id="node18" class="node"><title>Node17</title>
<polygon fill="white" stroke="#bfbfbf" points="81.5,-112.5 81.5,-131.5 133.5,-131.5 133.5,-112.5 81.5,-112.5"/>
<text text-anchor="middle" x="107.5" y="-119.5" font-family="Helvetica,sans-Serif" font-size="10.00">ostream</text>
</g>
<!-- Node16&#45;&gt;Node17 -->
<g id="edge24" class="edge"><title>Node16&#45;&gt;Node17</title>
<path fill="none" stroke="midnightblue" d="M167.932,-168.324C157.08,-160.185 140.619,-147.839 127.617,-138.087"/>
<polygon fill="midnightblue" stroke="midnightblue" points="129.379,-135.034 119.279,-131.834 125.179,-140.634 129.379,-135.034"/>
</g>
<!-- Node18&#45;&gt;Node13 -->
<g id="edge26" class="edge"><title>Node18&#45;&gt;Node13</title>
<path fill="none" stroke="midnightblue" d="M73.0659,-280.306C70.027,-258.802 65.2161,-202.379 91.5,-168 103.912,-151.766 123.343,-141.31 142.131,-134.611"/>
<polygon fill="midnightblue" stroke="midnightblue" points="143.435,-137.867 151.858,-131.439 141.265,-131.212 143.435,-137.867"/>
</g>
<!-- Node19&#45;&gt;Node2 -->
<g id="edge29" class="edge"><title>Node19&#45;&gt;Node2</title>
<path fill="none" stroke="midnightblue" d="M437.5,-341.819C437.5,-323.257 437.5,-279.339 437.5,-253.973"/>
<polygon fill="midnightblue" stroke="midnightblue" points="441,-253.782 437.5,-243.782 434,-253.782 441,-253.782"/>
</g>
<!-- Node19&#45;&gt;Node15 -->
<g id="edge30" class="edge"><title>Node19&#45;&gt;Node15</title>
<path fill="none" stroke="midnightblue" d="M430.181,-361.127C417.422,-371.879 391.801,-390.403 372.119,-403.269"/>
<polygon fill="midnightblue" stroke="midnightblue" points="370.105,-400.402 363.561,-408.734 373.873,-406.301 370.105,-400.402"/>
</g>
<!-- Node20 -->
<g id="node21" class="node"><title>Node20</title>
<g id="a_node21"><a xlink:href="Iterator_8h.html" target="_top" xlink:title="pinhao/Support/Iterator.h">
<polygon fill="white" stroke="black" points="224.5,-280.5 224.5,-299.5 348.5,-299.5 348.5,-280.5 224.5,-280.5"/>
<text text-anchor="middle" x="286.5" y="-287.5" font-family="Helvetica,sans-Serif" font-size="10.00">pinhao/Support/Iterator.h</text>
</a>
</g>
</g>
<!-- Node19&#45;&gt;Node20 -->
<g id="edge31" class="edge"><title>Node19&#45;&gt;Node20</title>
<path fill="none" stroke="midnightblue" d="M415.865,-341.975C390.076,-331.813 346.789,-314.756 317.46,-303.2"/>
<polygon fill="midnightblue" stroke="midnightblue" points="318.681,-299.919 308.094,-299.509 316.115,-306.432 318.681,-299.919"/>
</g>
<!-- Node20&#45;&gt;Node2 -->
<g id="edge32" class="edge"><title>Node20&#45;&gt;Node2</title>
<path fill="none" stroke="midnightblue" d="M310.426,-280.444C335.719,-271.399 375.802,-257.064 404.18,-246.916"/>
<polygon fill="midnightblue" stroke="midnightblue" points="405.448,-250.179 413.686,-243.516 403.091,-243.588 405.448,-250.179"/>
</g>
<!-- Node20&#45;&gt;Node7 -->
<g id="edge34" class="edge"><title>Node20&#45;&gt;Node7</title>
<path fill="none" stroke="midnightblue" d="M283.995,-280.189C276.654,-252.365 258.03,-165.083 296.5,-112 316.714,-84.1075 356.854,-73.501 383.946,-69.4694"/>
<polygon fill="midnightblue" stroke="midnightblue" points="384.493,-72.928 393.968,-68.1865 383.604,-65.9847 384.493,-72.928"/>
</g>
<!-- Node21 -->
<g id="node22" class="node"><title>Node21</title>
<polygon fill="white" stroke="#bfbfbf" points="211,-224.5 211,-243.5 258,-243.5 258,-224.5 211,-224.5"/>
<text text-anchor="middle" x="234.5" y="-231.5" font-family="Helvetica,sans-Serif" font-size="10.00">iterator</text>
</g>
<!-- Node20&#45;&gt;Node21 -->
<g id="edge33" class="edge"><title>Node20&#45;&gt;Node21</title>
<path fill="none" stroke="midnightblue" d="M277.913,-280.083C270.341,-272.22 259.122,-260.569 249.986,-251.081"/>
<polygon fill="midnightblue" stroke="midnightblue" points="252.385,-248.527 242.927,-243.751 247.342,-253.382 252.385,-248.527"/>
</g>
<!-- Node22&#45;&gt;Node2 -->
<g id="edge36" class="edge"><title>Node22&#45;&gt;Node2</title>
<path fill="none" stroke="midnightblue" d="M300.757,-336.459C317.123,-326.725 339.021,-313.19 357.5,-300 379.622,-284.21 403.652,-264.278 419.541,-250.676"/>
<polygon fill="midnightblue" stroke="midnightblue" points="422.182,-253.02 427.466,-243.837 417.609,-247.72 422.182,-253.02"/>
</g>
<!-- Node22&#45;&gt;Node15 -->
<g id="edge37" class="edge"><title>Node22&#45;&gt;Node15</title>
<path fill="none" stroke="midnightblue" d="M297.349,-366.589C309.689,-376.802 324.671,-390.635 334.988,-401.304"/>
<polygon fill="midnightblue" stroke="midnightblue" points="332.493,-403.761 341.848,-408.734 337.636,-399.012 332.493,-403.761"/>
</g>
<!-- Node22&#45;&gt;Node20 -->
<g id="edge38" class="edge"><title>Node22&#45;&gt;Node20</title>
<path fill="none" stroke="midnightblue" d="M278.87,-336.399C280.218,-328.377 281.923,-318.233 283.379,-309.569"/>
<polygon fill="midnightblue" stroke="midnightblue" points="286.839,-310.1 285.045,-299.658 279.936,-308.939 286.839,-310.1"/>
</g>
<!-- Node23&#45;&gt;Node8 -->
<g id="edge43" class="edge"><title>Node23&#45;&gt;Node8</title>
<path fill="none" stroke="midnightblue" d="M921.615,-470.411C921.877,-449.978 922.5,-396.864 922.5,-352.5 922.5,-352.5 922.5,-352.5 922.5,-177 922.5,-144.059 912.099,-106.818 904.991,-85.2139"/>
<polygon fill="midnightblue" stroke="midnightblue" points="908.285,-84.0282 901.737,-75.6992 901.662,-86.2937 908.285,-84.0282"/>
</g>
<!-- Node23&#45;&gt;Node24 -->
<g id="edge40" class="edge"><title>Node23&#45;&gt;Node24</title>
<path fill="none" stroke="midnightblue" d="M907.029,-470.475C890.529,-460.755 863.322,-444.727 843.819,-433.237"/>
<polygon fill="midnightblue" stroke="midnightblue" points="845.337,-430.069 834.944,-428.009 841.784,-436.101 845.337,-430.069"/>
</g>
<!-- Node25 -->
<g id="node26" class="node"><title>Node25</title>
<polygon fill="white" stroke="#bfbfbf" points="951,-403.5 951,-433.5 1062,-433.5 1062,-403.5 951,-403.5"/>
<text text-anchor="start" x="959" y="-421.5" font-family="Helvetica,sans-Serif" font-size="10.00">llvm/ExecutionEngine</text>
<text text-anchor="middle" x="1006.5" y="-410.5" font-family="Helvetica,sans-Serif" font-size="10.00">/MCJIT.h</text>
</g>
<!-- Node23&#45;&gt;Node25 -->
<g id="edge42" class="edge"><title>Node23&#45;&gt;Node25</title>
<path fill="none" stroke="midnightblue" d="M933.678,-470.475C945.19,-462.417 962.896,-450.023 977.966,-439.474"/>
<polygon fill="midnightblue" stroke="midnightblue" points="980.282,-442.125 986.467,-433.523 976.268,-436.39 980.282,-442.125"/>
</g>
<!-- Node24&#45;&gt;Node12 -->
<g id="edge41" class="edge"><title>Node24&#45;&gt;Node12</title>
<path fill="none" stroke="midnightblue" d="M822.106,-408.947C825.783,-388.591 834.5,-335.634 834.5,-291 834.5,-291 834.5,-291 834.5,-233 834.5,-200.541 840.573,-163.121 844.719,-141.356"/>
<polygon fill="midnightblue" stroke="midnightblue" points="848.16,-142 846.67,-131.511 841.293,-140.64 848.16,-142"/>
</g>
</g>
</svg>
        <g id="navigator" transform="translate(0 0)" fill="#404254">
                <rect fill="#f2f5e9" fill-opacity="0.5" stroke="#606060" stroke-width=".5" x="0" y="0" width="60" height="60"/>
                <use id="zoomplus" xlink:href="#zoomPlus" x="17" y="9" onmousedown="handleZoom(evt,'in')"/>
                <use id="zoomminus" xlink:href="#zoomMin" x="42" y="9" onmousedown="handleZoom(evt,'out')"/>
                <use id="reset" xlink:href="#resetDef" x="30" y="36" onmousedown="handleReset()"/>
                <g id="arrowUp" xlink:href="#dirArrow" transform="translate(30 24)" onmousedown="handlePan(0,-1)">
                  <use xlink:href="#rim" fill="#404040">
                        <set attributeName="fill" to="#808080" begin="arrowUp.mouseover" end="arrowUp.mouseout"/>
                  </use>
                  <path fill="none" stroke="white" stroke-width="1.5" d="M0,-3.0v7 M-2.5,-0.5L0,-3.0L2.5,-0.5"/>
                </g>
                <g id="arrowRight" xlink:href="#dirArrow" transform="rotate(90) translate(36 -43)" onmousedown="handlePan(1,0)">
                  <use xlink:href="#rim" fill="#404040">
                        <set attributeName="fill" to="#808080" begin="arrowRight.mouseover" end="arrowRight.mouseout"/>
                  </use>
                  <path fill="none" stroke="white" stroke-width="1.5" d="M0,-3.0v7 M-2.5,-0.5L0,-3.0L2.5,-0.5"/>
                </g>
                <g id="arrowDown" xlink:href="#dirArrow" transform="rotate(180) translate(-30 -48)" onmousedown="handlePan(0,1)">
                  <use xlink:href="#rim" fill="#404040">
                        <set attributeName="fill" to="#808080" begin="arrowDown.mouseover" end="arrowDown.mouseout"/>
                  </use>
                  <path fill="none" stroke="white" stroke-width="1.5" d="M0,-3.0v7 M-2.5,-0.5L0,-3.0L2.5,-0.5"/>
                </g>
                <g id="arrowLeft" xlink:href="#dirArrow" transform="rotate(270) translate(-36 17)" onmousedown="handlePan(-1,0)">
                  <use xlink:href="#rim" fill="#404040">
                        <set attributeName="fill" to="#808080" begin="arrowLeft.mouseover" end="arrowLeft.mouseout"/>
                  </use>
                  <path fill="none" stroke="white" stroke-width="1.5" d="M0,-3.0v7 M-2.5,-0.5L0,-3.0L2.5,-0.5"/>
                </g>
        </g>
        <svg viewBox="0 0 15 15" width="100%" height="30px" preserveAspectRatio="xMaxYMin meet">
         <g id="arrow_out" transform="scale(0.3 0.3)">
          <a xlink:href="PAPIMultFeatures_8cpp__incl_org.svg" target="_base">
           <rect id="button" ry="5" rx="5" y="6" x="6" height="38" width="38"
                fill="#f2f5e9" fill-opacity="0.5" stroke="#606060" stroke-width="1.0"/>
           <path id="arrow"
             d="M 11.500037,31.436501 C 11.940474,20.09759 22.043105,11.32322 32.158766,21.979434 L 37.068811,17.246167 C 37.068811,17.246167 37.088388,32 37.088388,32 L 22.160133,31.978069 C 22.160133,31.978069 26.997745,27.140456 26.997745,27.140456 C 18.528582,18.264221 13.291696,25.230495 11.500037,31.436501 z"
             style="fill:#404040;"/>
          </a>
         </g>
        </svg>
</svg>
