<?xml version="1.0" encoding="UTF-8" standalone="no"?>
<!DOCTYPE svg PUBLIC "-//W3C//DTD SVG 1.1//EN"
 "http://www.w3.org/Graphics/SVG/1.1/DTD/svg11.dtd">
<!-- Generated by graphviz version 2.38.0 (20140413.2041)
 -->
<!-- Title: /home/yukiosir/workspace/CompilerProject/Software/pinhao/include/pinhao/PinhaoOptions.h Pages: 1 -->
<svg width="322pt" height="162pt"
 viewBox="0.00 0.00 321.50 162.00" xmlns="http://www.w3.org/2000/svg" xmlns:xlink="http://www.w3.org/1999/xlink">
<g id="graph0" class="graph" transform="scale(1 1) rotate(0) translate(4 158)">
<title>/home/yukiosir/workspace/CompilerProject/Software/pinhao/include/pinhao/PinhaoOptions.h</title>
<polygon fill="white" stroke="none" points="-4,4 -4,-158 317.5,-158 317.5,4 -4,4"/>
<!-- Node0 -->
<g id="node1" class="node"><title>Node0</title>
<polygon fill="#bfbfbf" stroke="black" points="63.5,-112.5 63.5,-153.5 251.5,-153.5 251.5,-112.5 63.5,-112.5"/>
<text text-anchor="start" x="71.5" y="-141.5" font-family="Helvetica,sans-Serif" font-size="10.00">/home/yukiosir/workspace</text>
<text text-anchor="start" x="71.5" y="-130.5" font-family="Helvetica,sans-Serif" font-size="10.00">/CompilerProject/Software</text>
<text text-anchor="middle" x="157.5" y="-119.5" font-family="Helvetica,sans-Serif" font-size="10.00">/pinhao/include/pinhao/PinhaoOptions.h</text>
</g>
<!-- Node1 -->
<g id="node2" class="node"><title>Node1</title>
<g id="a_node2"><a xlink:href="YamlOptions_8h.html" target="_top" xlink:title="pinhao/Support/YamlOptions.h">
<polygon fill="white" stroke="black" points="-1.42109e-14,-56.5 -1.42109e-14,-75.5 149,-75.5 149,-56.5 -1.42109e-14,-56.5"/>
<text text-anchor="middle" x="74.5" y="-63.5" font-family="Helvetica,sans-Serif" font-size="10.00">pinhao/Support/YamlOptions.h</text>
</a>
</g>
</g>
<!-- Node0&#45;&gt;Node1 -->
<g id="edge1" class="edge"><title>Node0&#45;&gt;Node1</title>
<path fill="none" stroke="midnightblue" d="M132.597,-112.498C120.117,-102.724 105.238,-91.0719 93.6623,-82.0066"/>
<polygon fill="midnightblue" stroke="midnightblue" points="95.5796,-79.0626 85.5486,-75.6525 91.2636,-84.5737 95.5796,-79.0626"/>
</g>
<!-- Node3 -->
<g id="node4" class="node"><title>Node3</title>
<polygon fill="white" stroke="#bfbfbf" points="167.5,-56.5 167.5,-75.5 313.5,-75.5 313.5,-56.5 167.5,-56.5"/>
<text text-anchor="middle" x="240.5" y="-63.5" font-family="Helvetica,sans-Serif" font-size="10.00">llvm/Support/CommandLine.h</text>
</g>
<!-- Node0&#45;&gt;Node3 -->
<g id="edge3" class="edge"><title>Node0&#45;&gt;Node3</title>
<path fill="none" stroke="midnightblue" d="M182.403,-112.498C194.883,-102.724 209.762,-91.0719 221.338,-82.0066"/>
<polygon fill="midnightblue" stroke="midnightblue" points="223.736,-84.5737 229.451,-75.6525 219.42,-79.0626 223.736,-84.5737"/>
</g>
<!-- Node2 -->
<g id="node3" class="node"><title>Node2</title>
<polygon fill="white" stroke="#bfbfbf" points="30,-0.5 30,-19.5 119,-19.5 119,-0.5 30,-0.5"/>
<text text-anchor="middle" x="74.5" y="-7.5" font-family="Helvetica,sans-Serif" font-size="10.00">yaml&#45;cpp/yaml.h</text>
</g>
<!-- Node1&#45;&gt;Node2 -->
<g id="edge2" class="edge"><title>Node1&#45;&gt;Node2</title>
<path fill="none" stroke="midnightblue" d="M74.5,-56.083C74.5,-49.0059 74.5,-38.8611 74.5,-29.9865"/>
<polygon fill="midnightblue" stroke="midnightblue" points="78.0001,-29.751 74.5,-19.7511 71.0001,-29.7511 78.0001,-29.751"/>
</g>
</g>
</svg>
