<?xml version="1.0" encoding="UTF-8" standalone="no"?>
<!DOCTYPE svg PUBLIC "-//W3C//DTD SVG 1.1//EN"
 "http://www.w3.org/Graphics/SVG/1.1/DTD/svg11.dtd">
<!-- Generated by graphviz version 2.38.0 (20140413.2041)
 -->
<!-- Title: /home/yukiosir/workspace/CompilerProject/Software/pinhao/lib/PinhaoOptions.cpp Pages: 1 -->
<svg width="322pt" height="218pt"
 viewBox="0.00 0.00 321.50 218.00" xmlns="http://www.w3.org/2000/svg" xmlns:xlink="http://www.w3.org/1999/xlink">
<g id="graph0" class="graph" transform="scale(1 1) rotate(0) translate(4 214)">
<title>/home/yukiosir/workspace/CompilerProject/Software/pinhao/lib/PinhaoOptions.cpp</title>
<polygon fill="white" stroke="none" points="-4,4 -4,-214 317.5,-214 317.5,4 -4,4"/>
<!-- Node0 -->
<g id="node1" class="node"><title>Node0</title>
<polygon fill="#bfbfbf" stroke="black" points="84.5,-168.5 84.5,-209.5 230.5,-209.5 230.5,-168.5 84.5,-168.5"/>
<text text-anchor="start" x="92.5" y="-197.5" font-family="Helvetica,sans-Serif" font-size="10.00">/home/yukiosir/workspace</text>
<text text-anchor="start" x="92.5" y="-186.5" font-family="Helvetica,sans-Serif" font-size="10.00">/CompilerProject/Software</text>
<text text-anchor="middle" x="157.5" y="-175.5" font-family="Helvetica,sans-Serif" font-size="10.00">/pinhao/lib/PinhaoOptions.cpp</text>
</g>
<!-- Node1 -->
<g id="node2" class="node"><title>Node1</title>
<g id="a_node2"><a xlink:href="PinhaoOptions_8h.html" target="_top" xlink:title="pinhao/PinhaoOptions.h">
<polygon fill="white" stroke="black" points="97.5,-112.5 97.5,-131.5 217.5,-131.5 217.5,-112.5 97.5,-112.5"/>
<text text-anchor="middle" x="157.5" y="-119.5" font-family="Helvetica,sans-Serif" font-size="10.00">pinhao/PinhaoOptions.h</text>
</a>
</g>
</g>
<!-- Node0&#45;&gt;Node1 -->
<g id="edge1" class="edge"><title>Node0&#45;&gt;Node1</title>
<path fill="none" stroke="midnightblue" d="M157.5,-168.498C157.5,-160.065 157.5,-150.235 157.5,-141.874"/>
<polygon fill="midnightblue" stroke="midnightblue" points="161,-141.652 157.5,-131.652 154,-141.653 161,-141.652"/>
</g>
<!-- Node2 -->
<g id="node3" class="node"><title>Node2</title>
<g id="a_node3"><a xlink:href="YamlOptions_8h.html" target="_top" xlink:title="pinhao/Support/YamlOptions.h">
<polygon fill="white" stroke="black" points="-1.42109e-14,-56.5 -1.42109e-14,-75.5 149,-75.5 149,-56.5 -1.42109e-14,-56.5"/>
<text text-anchor="middle" x="74.5" y="-63.5" font-family="Helvetica,sans-Serif" font-size="10.00">pinhao/Support/YamlOptions.h</text>
</a>
</g>
</g>
<!-- Node1&#45;&gt;Node2 -->
<g id="edge2" class="edge"><title>Node1&#45;&gt;Node2</title>
<path fill="none" stroke="midnightblue" d="M144.165,-112.324C131.338,-103.979 111.715,-91.2122 96.5602,-81.3524"/>
<polygon fill="midnightblue" stroke="midnightblue" points="98.0932,-78.1742 87.8023,-75.6545 94.2757,-84.0417 98.0932,-78.1742"/>
</g>
<!-- Node4 -->
<g id="node5" class="node"><title>Node4</title>
<polygon fill="white" stroke="#bfbfbf" points="167.5,-56.5 167.5,-75.5 313.5,-75.5 313.5,-56.5 167.5,-56.5"/>
<text text-anchor="middle" x="240.5" y="-63.5" font-family="Helvetica,sans-Serif" font-size="10.00">llvm/Support/CommandLine.h</text>
</g>
<!-- Node1&#45;&gt;Node4 -->
<g id="edge4" class="edge"><title>Node1&#45;&gt;Node4</title>
<path fill="none" stroke="midnightblue" d="M170.835,-112.324C183.662,-103.979 203.285,-91.2122 218.44,-81.3524"/>
<polygon fill="midnightblue" stroke="midnightblue" points="220.724,-84.0417 227.198,-75.6545 216.907,-78.1742 220.724,-84.0417"/>
</g>
<!-- Node3 -->
<g id="node4" class="node"><title>Node3</title>
<polygon fill="white" stroke="#bfbfbf" points="30,-0.5 30,-19.5 119,-19.5 119,-0.5 30,-0.5"/>
<text text-anchor="middle" x="74.5" y="-7.5" font-family="Helvetica,sans-Serif" font-size="10.00">yaml&#45;cpp/yaml.h</text>
</g>
<!-- Node2&#45;&gt;Node3 -->
<g id="edge3" class="edge"><title>Node2&#45;&gt;Node3</title>
<path fill="none" stroke="midnightblue" d="M74.5,-56.083C74.5,-49.0059 74.5,-38.8611 74.5,-29.9865"/>
<polygon fill="midnightblue" stroke="midnightblue" points="78.0001,-29.751 74.5,-19.7511 71.0001,-29.7511 78.0001,-29.751"/>
</g>
</g>
</svg>
