<?xml version="1.0" encoding="UTF-8" standalone="no"?>
<!DOCTYPE svg PUBLIC "-//W3C//DTD SVG 1.1//EN"
 "http://www.w3.org/Graphics/SVG/1.1/DTD/svg11.dtd">
<!-- Generated by graphviz version 2.38.0 (20140413.2041)
 -->
<!-- Title: /home/yukiosir/workspace/CompilerProject/Software/pinhao/lib/Support/Random.cpp Pages: 1 -->
<svg width="268pt" height="162pt"
 viewBox="0.00 0.00 267.50 162.00" xmlns="http://www.w3.org/2000/svg" xmlns:xlink="http://www.w3.org/1999/xlink">
<g id="graph0" class="graph" transform="scale(1 1) rotate(0) translate(4 158)">
<title>/home/yukiosir/workspace/CompilerProject/Software/pinhao/lib/Support/Random.cpp</title>
<polygon fill="white" stroke="none" points="-4,4 -4,-158 263.5,-158 263.5,4 -4,4"/>
<!-- Node0 -->
<g id="node1" class="node"><title>Node0</title>
<polygon fill="#bfbfbf" stroke="black" points="93,-112.5 93,-153.5 249,-153.5 249,-112.5 93,-112.5"/>
<text text-anchor="start" x="101" y="-141.5" font-family="Helvetica,sans-Serif" font-size="10.00">/home/yukiosir/workspace</text>
<text text-anchor="start" x="101" y="-130.5" font-family="Helvetica,sans-Serif" font-size="10.00">/CompilerProject/Software</text>
<text text-anchor="middle" x="171" y="-119.5" font-family="Helvetica,sans-Serif" font-size="10.00">/pinhao/lib/Support/Random.cpp</text>
</g>
<!-- Node1 -->
<g id="node2" class="node"><title>Node1</title>
<g id="a_node2"><a xlink:href="Random_8h.html" target="_top" xlink:title="pinhao/Support/Random.h">
<polygon fill="white" stroke="black" points="0,-56.5 0,-75.5 130,-75.5 130,-56.5 0,-56.5"/>
<text text-anchor="middle" x="65" y="-63.5" font-family="Helvetica,sans-Serif" font-size="10.00">pinhao/Support/Random.h</text>
</a>
</g>
</g>
<!-- Node0&#45;&gt;Node1 -->
<g id="edge1" class="edge"><title>Node0&#45;&gt;Node1</title>
<path fill="none" stroke="midnightblue" d="M139.197,-112.498C122.632,-102.34 102.761,-90.1551 87.753,-80.9523"/>
<polygon fill="midnightblue" stroke="midnightblue" points="89.4647,-77.8963 79.1102,-75.6525 85.8054,-83.8637 89.4647,-77.8963"/>
</g>
<!-- Node3 -->
<g id="node4" class="node"><title>Node3</title>
<polygon fill="white" stroke="#bfbfbf" points="148,-56.5 148,-75.5 194,-75.5 194,-56.5 148,-56.5"/>
<text text-anchor="middle" x="171" y="-63.5" font-family="Helvetica,sans-Serif" font-size="10.00">chrono</text>
</g>
<!-- Node0&#45;&gt;Node3 -->
<g id="edge3" class="edge"><title>Node0&#45;&gt;Node3</title>
<path fill="none" stroke="midnightblue" d="M171,-112.498C171,-104.065 171,-94.2351 171,-85.874"/>
<polygon fill="midnightblue" stroke="midnightblue" points="174.5,-85.6525 171,-75.6525 167.5,-85.6525 174.5,-85.6525"/>
</g>
<!-- Node4 -->
<g id="node5" class="node"><title>Node4</title>
<polygon fill="white" stroke="#bfbfbf" points="212.5,-56.5 212.5,-75.5 259.5,-75.5 259.5,-56.5 212.5,-56.5"/>
<text text-anchor="middle" x="236" y="-63.5" font-family="Helvetica,sans-Serif" font-size="10.00">math.h</text>
</g>
<!-- Node0&#45;&gt;Node4 -->
<g id="edge4" class="edge"><title>Node0&#45;&gt;Node4</title>
<path fill="none" stroke="midnightblue" d="M190.502,-112.498C199.989,-103.011 211.244,-91.7557 220.187,-82.8131"/>
<polygon fill="midnightblue" stroke="midnightblue" points="222.751,-85.1985 227.348,-75.6525 217.802,-80.2487 222.751,-85.1985"/>
</g>
<!-- Node2 -->
<g id="node3" class="node"><title>Node2</title>
<polygon fill="white" stroke="#bfbfbf" points="40.5,-0.5 40.5,-19.5 89.5,-19.5 89.5,-0.5 40.5,-0.5"/>
<text text-anchor="middle" x="65" y="-7.5" font-family="Helvetica,sans-Serif" font-size="10.00">random</text>
</g>
<!-- Node1&#45;&gt;Node2 -->
<g id="edge2" class="edge"><title>Node1&#45;&gt;Node2</title>
<path fill="none" stroke="midnightblue" d="M65,-56.083C65,-49.0059 65,-38.8611 65,-29.9865"/>
<polygon fill="midnightblue" stroke="midnightblue" points="68.5001,-29.751 65,-19.7511 61.5001,-29.7511 68.5001,-29.751"/>
</g>
</g>
</svg>
