<?xml version="1.0" encoding="UTF-8" standalone="no"?>
<!DOCTYPE svg PUBLIC "-//W3C//DTD SVG 1.1//EN"
 "http://www.w3.org/Graphics/SVG/1.1/DTD/svg11.dtd">
<!-- Generated by graphviz version 2.38.0 (20140413.2041)
 -->
<!-- Title: /home/yukiosir/workspace/CompilerProject/Software/pinhao/include/pinhao/Support/Random.h Pages: 1 -->
<!--zoomable 595 -->
<svg id="main" version="1.1" xmlns="http://www.w3.org/2000/svg" xmlns:xlink="http://www.w3.org/1999/xlink" xml:space="preserve" onload="init(evt)">
<style type="text/css"><![CDATA[
.edge:hover path { stroke: red; }
.edge:hover polygon { stroke: red; fill: red; }
]]></style>
<script type="text/javascript"><![CDATA[
var edges = document.getElementsByTagName('g');
if (edges && edges.length) {
  for (var i=0;i<edges.length;i++) {
    if (edges[i].id.substr(0,4)=='edge') {
      edges[i].setAttribute('class','edge');
    }
  }
}
]]></script>
        <defs>
                <circle id="rim" cx="0" cy="0" r="7"/>
                <circle id="rim2" cx="0" cy="0" r="3.5"/>
                <g id="zoomPlus">
                        <use xlink:href="#rim" fill="#404040">
                                <set attributeName="fill" to="#808080" begin="zoomplus.mouseover" end="zoomplus.mouseout"/>
                        </use>
                        <path d="M-4,0h8M0,-4v8" fill="none" stroke="white" stroke-width="1.5" pointer-events="none"/>
                </g>
                <g id="zoomMin">
                        <use xlink:href="#rim" fill="#404040">
                                <set attributeName="fill" to="#808080" begin="zoomminus.mouseover" end="zoomminus.mouseout"/>
                        </use>
                        <path d="M-4,0h8" fill="none" stroke="white" stroke-width="1.5" pointer-events="none"/>
                </g>
                <g id="dirArrow">
                        <path fill="none" stroke="white" stroke-width="1.5" d="M0,-3.0v7 M-2.5,-0.5L0,-3.0L2.5,-0.5"/>
                </g>
               <g id="resetDef">
                       <use xlink:href="#rim2" fill="#404040">
                               <set attributeName="fill" to="#808080" begin="reset.mouseover" end="reset.mouseout"/>
                       </use>
               </g>
        </defs>

<script type="text/javascript">
var viewWidth = 1384;
var viewHeight = 595;
var sectionId = 'dynsection-1';
</script>
<script xlink:href="svgpan.js"/>
<svg id="graph" class="graph">
<g id="viewport">
<title>/home/yukiosir/workspace/CompilerProject/Software/pinhao/include/pinhao/Support/Random.h</title>
<polygon fill="white" stroke="none" points="-4,4 -4,-591 1380,-591 1380,4 -4,4"/>
<!-- Node2 -->
<g id="node1" class="node"><title>Node2</title>
<polygon fill="#bfbfbf" stroke="black" points="700,-534.5 700,-586.5 850,-586.5 850,-534.5 700,-534.5"/>
<text text-anchor="start" x="708" y="-574.5" font-family="Helvetica,sans-Serif" font-size="10.00">/home/yukiosir/workspace</text>
<text text-anchor="start" x="708" y="-563.5" font-family="Helvetica,sans-Serif" font-size="10.00">/CompilerProject/Software</text>
<text text-anchor="start" x="708" y="-552.5" font-family="Helvetica,sans-Serif" font-size="10.00">/pinhao/include/pinhao/Support</text>
<text text-anchor="middle" x="775" y="-541.5" font-family="Helvetica,sans-Serif" font-size="10.00">/Random.h</text>
</g>
<!-- Node3 -->
<g id="node2" class="node"><title>Node3</title>
<g id="a_node2"><a xlink:href="Formula_8h.html" target="_top" xlink:title="/home/yukiosir/workspace\l/CompilerProject/Software\l/pinhao/include/pinhao/MachineLearning\l/GrammarEvolution/Formula.h">
<polygon fill="white" stroke="black" points="680,-445.5 680,-497.5 870,-497.5 870,-445.5 680,-445.5"/>
<text text-anchor="start" x="688" y="-485.5" font-family="Helvetica,sans-Serif" font-size="10.00">/home/yukiosir/workspace</text>
<text text-anchor="start" x="688" y="-474.5" font-family="Helvetica,sans-Serif" font-size="10.00">/CompilerProject/Software</text>
<text text-anchor="start" x="688" y="-463.5" font-family="Helvetica,sans-Serif" font-size="10.00">/pinhao/include/pinhao/MachineLearning</text>
<text text-anchor="middle" x="775" y="-452.5" font-family="Helvetica,sans-Serif" font-size="10.00">/GrammarEvolution/Formula.h</text>
</a>
</g>
</g>
<!-- Node2&#45;&gt;Node3 -->
<g id="edge1" class="edge"><title>Node2&#45;&gt;Node3</title>
<path fill="none" stroke="midnightblue" d="M775,-524.191C775,-515.282 775,-505.899 775,-497.607"/>
<polygon fill="midnightblue" stroke="midnightblue" points="771.5,-524.336 775,-534.336 778.5,-524.336 771.5,-524.336"/>
</g>
<!-- Node12 -->
<g id="node11" class="node"><title>Node12</title>
<g id="a_node11"><a xlink:href="LitFormula_8cpp.html" target="_top" xlink:title="/home/yukiosir/workspace\l/CompilerProject/Software\l/pinhao/lib/MachineLearning\l/GrammarEvolution/LitFormula.cpp">
<polygon fill="white" stroke="black" points="0,-267.5 0,-319.5 168,-319.5 168,-267.5 0,-267.5"/>
<text text-anchor="start" x="8" y="-307.5" font-family="Helvetica,sans-Serif" font-size="10.00">/home/yukiosir/workspace</text>
<text text-anchor="start" x="8" y="-296.5" font-family="Helvetica,sans-Serif" font-size="10.00">/CompilerProject/Software</text>
<text text-anchor="start" x="8" y="-285.5" font-family="Helvetica,sans-Serif" font-size="10.00">/pinhao/lib/MachineLearning</text>
<text text-anchor="middle" x="84" y="-274.5" font-family="Helvetica,sans-Serif" font-size="10.00">/GrammarEvolution/LitFormula.cpp</text>
</a>
</g>
</g>
<!-- Node2&#45;&gt;Node12 -->
<g id="edge21" class="edge"><title>Node2&#45;&gt;Node12</title>
<path fill="none" stroke="midnightblue" d="M689.813,-552.691C525.8,-537.725 175.403,-496.134 97,-409 75.3214,-384.907 75.8739,-345.455 79.2025,-319.731"/>
<polygon fill="midnightblue" stroke="midnightblue" points="689.592,-556.185 699.866,-553.596 690.22,-549.214 689.592,-556.185"/>
</g>
<!-- Node16 -->
<g id="node15" class="node"><title>Node16</title>
<g id="a_node15"><a xlink:href="Random_8cpp.html" target="_top" xlink:title="/home/yukiosir/workspace\l/CompilerProject/Software\l/pinhao/lib/Support/Random.cpp">
<polygon fill="white" stroke="black" points="888,-451 888,-492 1044,-492 1044,-451 888,-451"/>
<text text-anchor="start" x="896" y="-480" font-family="Helvetica,sans-Serif" font-size="10.00">/home/yukiosir/workspace</text>
<text text-anchor="start" x="896" y="-469" font-family="Helvetica,sans-Serif" font-size="10.00">/CompilerProject/Software</text>
<text text-anchor="middle" x="966" y="-458" font-family="Helvetica,sans-Serif" font-size="10.00">/pinhao/lib/Support/Random.cpp</text>
</a>
</g>
</g>
<!-- Node2&#45;&gt;Node16 -->
<g id="edge22" class="edge"><title>Node2&#45;&gt;Node16</title>
<path fill="none" stroke="midnightblue" d="M839.169,-530.271C866.726,-517.719 898.197,-503.384 922.896,-492.134"/>
<polygon fill="midnightblue" stroke="midnightblue" points="837.638,-527.122 829.989,-534.453 840.54,-533.493 837.638,-527.122"/>
</g>
<!-- Node4 -->
<g id="node3" class="node"><title>Node4</title>
<g id="a_node3"><a xlink:href="BinOpFormula_8h.html" target="_top" xlink:title="/home/yukiosir/workspace\l/CompilerProject/Software\l/pinhao/include/pinhao/MachineLearning\l/GrammarEvolution/BinOpFormula.h">
<polygon fill="white" stroke="black" points="229,-267.5 229,-319.5 419,-319.5 419,-267.5 229,-267.5"/>
<text text-anchor="start" x="237" y="-307.5" font-family="Helvetica,sans-Serif" font-size="10.00">/home/yukiosir/workspace</text>
<text text-anchor="start" x="237" y="-296.5" font-family="Helvetica,sans-Serif" font-size="10.00">/CompilerProject/Software</text>
<text text-anchor="start" x="237" y="-285.5" font-family="Helvetica,sans-Serif" font-size="10.00">/pinhao/include/pinhao/MachineLearning</text>
<text text-anchor="middle" x="324" y="-274.5" font-family="Helvetica,sans-Serif" font-size="10.00">/GrammarEvolution/BinOpFormula.h</text>
</a>
</g>
</g>
<!-- Node3&#45;&gt;Node4 -->
<g id="edge2" class="edge"><title>Node3&#45;&gt;Node4</title>
<path fill="none" stroke="midnightblue" d="M669.694,-469.471C556.596,-466.031 387.02,-453.357 342,-409 318.636,-385.98 317.727,-345.855 320.15,-319.74"/>
<polygon fill="midnightblue" stroke="midnightblue" points="669.679,-472.972 679.775,-469.758 669.878,-465.975 669.679,-472.972"/>
</g>
<!-- Node5 -->
<g id="node4" class="node"><title>Node5</title>
<g id="a_node4"><a xlink:href="Formulas_8h.html" target="_top" xlink:title="/home/yukiosir/workspace\l/CompilerProject/Software\l/pinhao/include/pinhao/MachineLearning\l/GrammarEvolution/Formulas.h">
<polygon fill="white" stroke="black" points="900,-178.5 900,-230.5 1090,-230.5 1090,-178.5 900,-178.5"/>
<text text-anchor="start" x="908" y="-218.5" font-family="Helvetica,sans-Serif" font-size="10.00">/home/yukiosir/workspace</text>
<text text-anchor="start" x="908" y="-207.5" font-family="Helvetica,sans-Serif" font-size="10.00">/CompilerProject/Software</text>
<text text-anchor="start" x="908" y="-196.5" font-family="Helvetica,sans-Serif" font-size="10.00">/pinhao/include/pinhao/MachineLearning</text>
<text text-anchor="middle" x="995" y="-185.5" font-family="Helvetica,sans-Serif" font-size="10.00">/GrammarEvolution/Formulas.h</text>
</a>
</g>
</g>
<!-- Node3&#45;&gt;Node5 -->
<g id="edge10" class="edge"><title>Node3&#45;&gt;Node5</title>
<path fill="none" stroke="midnightblue" d="M880.058,-444.976C955.316,-430.692 992.944,-459.739 1044,-409 1089.21,-364.074 1090.07,-325.158 1064,-267 1057.63,-252.796 1046.18,-240.527 1034.42,-230.765"/>
<polygon fill="midnightblue" stroke="midnightblue" points="879.254,-441.569 870.192,-447.056 880.698,-448.418 879.254,-441.569"/>
</g>
<!-- Node8 -->
<g id="node7" class="node"><title>Node8</title>
<g id="a_node7"><a xlink:href="FormulaYAMLWrapper_8cpp.html" target="_top" xlink:title="/home/yukiosir/workspace\l/CompilerProject/Software\l/pinhao/lib/Support/YAMLWrapper\l/FormulaYAMLWrapper.cpp">
<polygon fill="white" stroke="black" points="1212,-0.5 1212,-52.5 1376,-52.5 1376,-0.5 1212,-0.5"/>
<text text-anchor="start" x="1220" y="-40.5" font-family="Helvetica,sans-Serif" font-size="10.00">/home/yukiosir/workspace</text>
<text text-anchor="start" x="1220" y="-29.5" font-family="Helvetica,sans-Serif" font-size="10.00">/CompilerProject/Software</text>
<text text-anchor="start" x="1220" y="-18.5" font-family="Helvetica,sans-Serif" font-size="10.00">/pinhao/lib/Support/YAMLWrapper</text>
<text text-anchor="middle" x="1294" y="-7.5" font-family="Helvetica,sans-Serif" font-size="10.00">/FormulaYAMLWrapper.cpp</text>
</a>
</g>
</g>
<!-- Node3&#45;&gt;Node8 -->
<g id="edge20" class="edge"><title>Node3&#45;&gt;Node8</title>
<path fill="none" stroke="midnightblue" d="M880.273,-444.924C1093.69,-408.58 1329,-502.094 1329,-294.5 1329,-294.5 1329,-294.5 1329,-203.5 1329,-148.825 1312.55,-86.399 1302.21,-52.5452"/>
<polygon fill="midnightblue" stroke="midnightblue" points="879.347,-441.534 870.128,-446.754 880.59,-448.423 879.347,-441.534"/>
</g>
<!-- Node9 -->
<g id="node8" class="node"><title>Node9</title>
<g id="a_node8"><a xlink:href="FeatureFormula_8h.html" target="_top" xlink:title="/home/yukiosir/workspace\l/CompilerProject/Software\l/pinhao/include/pinhao/MachineLearning\l/GrammarEvolution/FeatureFormula.h">
<polygon fill="white" stroke="black" points="1111,-267.5 1111,-319.5 1301,-319.5 1301,-267.5 1111,-267.5"/>
<text text-anchor="start" x="1119" y="-307.5" font-family="Helvetica,sans-Serif" font-size="10.00">/home/yukiosir/workspace</text>
<text text-anchor="start" x="1119" y="-296.5" font-family="Helvetica,sans-Serif" font-size="10.00">/CompilerProject/Software</text>
<text text-anchor="start" x="1119" y="-285.5" font-family="Helvetica,sans-Serif" font-size="10.00">/pinhao/include/pinhao/MachineLearning</text>
<text text-anchor="middle" x="1206" y="-274.5" font-family="Helvetica,sans-Serif" font-size="10.00">/GrammarEvolution/FeatureFormula.h</text>
</a>
</g>
</g>
<!-- Node3&#45;&gt;Node9 -->
<g id="edge8" class="edge"><title>Node3&#45;&gt;Node9</title>
<path fill="none" stroke="midnightblue" d="M880.091,-444.93C977.513,-427.125 1013,-453.461 1097,-409 1137.02,-387.814 1170.74,-346.373 1189.64,-319.587"/>
<polygon fill="midnightblue" stroke="midnightblue" points="879.299,-441.519 870.149,-446.86 880.632,-448.391 879.299,-441.519"/>
</g>
<!-- Node10 -->
<g id="node9" class="node"><title>Node10</title>
<g id="a_node9"><a xlink:href="IfFormula_8h.html" target="_top" xlink:title="/home/yukiosir/workspace\l/CompilerProject/Software\l/pinhao/include/pinhao/MachineLearning\l/GrammarEvolution/IfFormula.h">
<polygon fill="white" stroke="black" points="865,-267.5 865,-319.5 1055,-319.5 1055,-267.5 865,-267.5"/>
<text text-anchor="start" x="873" y="-307.5" font-family="Helvetica,sans-Serif" font-size="10.00">/home/yukiosir/workspace</text>
<text text-anchor="start" x="873" y="-296.5" font-family="Helvetica,sans-Serif" font-size="10.00">/CompilerProject/Software</text>
<text text-anchor="start" x="873" y="-285.5" font-family="Helvetica,sans-Serif" font-size="10.00">/pinhao/include/pinhao/MachineLearning</text>
<text text-anchor="middle" x="960" y="-274.5" font-family="Helvetica,sans-Serif" font-size="10.00">/GrammarEvolution/IfFormula.h</text>
</a>
</g>
</g>
<!-- Node3&#45;&gt;Node10 -->
<g id="edge11" class="edge"><title>Node3&#45;&gt;Node10</title>
<path fill="none" stroke="midnightblue" d="M880,-445.002C947.941,-431.776 986.343,-459.541 1026,-409 1040.54,-390.468 1035.4,-377.6 1026,-356 1019.88,-341.926 1008.77,-329.614 997.392,-319.779"/>
<polygon fill="midnightblue" stroke="midnightblue" points="879.23,-441.588 870.215,-447.153 880.733,-448.425 879.23,-441.588"/>
</g>
<!-- Node11 -->
<g id="node10" class="node"><title>Node11</title>
<g id="a_node10"><a xlink:href="LitFormula_8h.html" target="_top" xlink:title="/home/yukiosir/workspace\l/CompilerProject/Software\l/pinhao/include/pinhao/MachineLearning\l/GrammarEvolution/LitFormula.h">
<polygon fill="white" stroke="black" points="106,-356.5 106,-408.5 296,-408.5 296,-356.5 106,-356.5"/>
<text text-anchor="start" x="114" y="-396.5" font-family="Helvetica,sans-Serif" font-size="10.00">/home/yukiosir/workspace</text>
<text text-anchor="start" x="114" y="-385.5" font-family="Helvetica,sans-Serif" font-size="10.00">/CompilerProject/Software</text>
<text text-anchor="start" x="114" y="-374.5" font-family="Helvetica,sans-Serif" font-size="10.00">/pinhao/include/pinhao/MachineLearning</text>
<text text-anchor="middle" x="201" y="-363.5" font-family="Helvetica,sans-Serif" font-size="10.00">/GrammarEvolution/LitFormula.h</text>
</a>
</g>
</g>
<!-- Node3&#45;&gt;Node11 -->
<g id="edge13" class="edge"><title>Node3&#45;&gt;Node11</title>
<path fill="none" stroke="midnightblue" d="M669.584,-459.55C575.034,-449.02 432.699,-431.41 310,-409 305.412,-408.162 300.726,-407.257 296,-406.305"/>
<polygon fill="midnightblue" stroke="midnightblue" points="669.402,-463.052 679.726,-460.673 670.172,-456.094 669.402,-463.052"/>
</g>
<!-- Node13 -->
<g id="node12" class="node"><title>Node13</title>
<g id="a_node12"><a xlink:href="Candidate_8cpp.html" target="_top" xlink:title="/home/yukiosir/workspace\l/CompilerProject/Software\l/pinhao/lib/MachineLearning\l/GrammarEvolution/Candidate.cpp">
<polygon fill="white" stroke="black" points="351.5,-356.5 351.5,-408.5 518.5,-408.5 518.5,-356.5 351.5,-356.5"/>
<text text-anchor="start" x="359.5" y="-396.5" font-family="Helvetica,sans-Serif" font-size="10.00">/home/yukiosir/workspace</text>
<text text-anchor="start" x="359.5" y="-385.5" font-family="Helvetica,sans-Serif" font-size="10.00">/CompilerProject/Software</text>
<text text-anchor="start" x="359.5" y="-374.5" font-family="Helvetica,sans-Serif" font-size="10.00">/pinhao/lib/MachineLearning</text>
<text text-anchor="middle" x="435" y="-363.5" font-family="Helvetica,sans-Serif" font-size="10.00">/GrammarEvolution/Candidate.cpp</text>
</a>
</g>
</g>
<!-- Node3&#45;&gt;Node13 -->
<g id="edge17" class="edge"><title>Node3&#45;&gt;Node13</title>
<path fill="none" stroke="midnightblue" d="M669.862,-445.1C625.675,-434.251 573.77,-421.278 527,-409 524.275,-408.285 521.506,-407.552 518.711,-406.807"/>
<polygon fill="midnightblue" stroke="midnightblue" points="669.204,-448.542 679.75,-447.524 670.87,-441.744 669.204,-448.542"/>
</g>
<!-- Node14 -->
<g id="node13" class="node"><title>Node14</title>
<g id="a_node13"><a xlink:href="CandidateYAMLWrapper_8cpp.html" target="_top" xlink:title="/home/yukiosir/workspace\l/CompilerProject/Software\l/pinhao/lib/MachineLearning\l/GrammarEvolution/CandidateYAMLWrapper.cpp">
<polygon fill="white" stroke="black" points="536,-356.5 536,-408.5 766,-408.5 766,-356.5 536,-356.5"/>
<text text-anchor="start" x="544" y="-396.5" font-family="Helvetica,sans-Serif" font-size="10.00">/home/yukiosir/workspace</text>
<text text-anchor="start" x="544" y="-385.5" font-family="Helvetica,sans-Serif" font-size="10.00">/CompilerProject/Software</text>
<text text-anchor="start" x="544" y="-374.5" font-family="Helvetica,sans-Serif" font-size="10.00">/pinhao/lib/MachineLearning</text>
<text text-anchor="middle" x="651" y="-363.5" font-family="Helvetica,sans-Serif" font-size="10.00">/GrammarEvolution/CandidateYAMLWrapper.cpp</text>
</a>
</g>
</g>
<!-- Node3&#45;&gt;Node14 -->
<g id="edge18" class="edge"><title>Node3&#45;&gt;Node14</title>
<path fill="none" stroke="midnightblue" d="M730.821,-439.503C716.38,-429.371 700.529,-418.25 686.785,-408.607"/>
<polygon fill="midnightblue" stroke="midnightblue" points="728.938,-442.458 739.134,-445.336 732.958,-436.727 728.938,-442.458"/>
</g>
<!-- Node15 -->
<g id="node14" class="node"><title>Node15</title>
<g id="a_node14"><a xlink:href="SimpleGrammarEvolution_8cpp.html" target="_top" xlink:title="/home/yukiosir/workspace\l/CompilerProject/Software\l/pinhao/lib/MachineLearning\l/GrammarEvolution/SimpleGrammarEvolution.cpp">
<polygon fill="white" stroke="black" points="783.5,-356.5 783.5,-408.5 1016.5,-408.5 1016.5,-356.5 783.5,-356.5"/>
<text text-anchor="start" x="791.5" y="-396.5" font-family="Helvetica,sans-Serif" font-size="10.00">/home/yukiosir/workspace</text>
<text text-anchor="start" x="791.5" y="-385.5" font-family="Helvetica,sans-Serif" font-size="10.00">/CompilerProject/Software</text>
<text text-anchor="start" x="791.5" y="-374.5" font-family="Helvetica,sans-Serif" font-size="10.00">/pinhao/lib/MachineLearning</text>
<text text-anchor="middle" x="900" y="-363.5" font-family="Helvetica,sans-Serif" font-size="10.00">/GrammarEvolution/SimpleGrammarEvolution.cpp</text>
</a>
</g>
</g>
<!-- Node3&#45;&gt;Node15 -->
<g id="edge19" class="edge"><title>Node3&#45;&gt;Node15</title>
<path fill="none" stroke="midnightblue" d="M819.535,-439.503C834.093,-429.371 850.071,-418.25 863.926,-408.607"/>
<polygon fill="midnightblue" stroke="midnightblue" points="817.363,-436.751 811.155,-445.336 821.362,-442.496 817.363,-436.751"/>
</g>
<!-- Node4&#45;&gt;Node5 -->
<g id="edge3" class="edge"><title>Node4&#45;&gt;Node5</title>
<path fill="none" stroke="midnightblue" d="M429.365,-278.839C558.511,-262.094 775.468,-233.964 899.793,-217.844"/>
<polygon fill="midnightblue" stroke="midnightblue" points="428.537,-275.417 419.07,-280.174 429.437,-282.359 428.537,-275.417"/>
</g>
<!-- Node6 -->
<g id="node5" class="node"><title>Node6</title>
<g id="a_node5"><a xlink:href="FormulaYAMLWrapper_8h.html" target="_top" xlink:title="/home/yukiosir/workspace\l/CompilerProject/Software\l/pinhao/include/pinhao/Support\l/FormulaYAMLWrapper.h">
<polygon fill="white" stroke="black" points="1023,-89.5 1023,-141.5 1173,-141.5 1173,-89.5 1023,-89.5"/>
<text text-anchor="start" x="1031" y="-129.5" font-family="Helvetica,sans-Serif" font-size="10.00">/home/yukiosir/workspace</text>
<text text-anchor="start" x="1031" y="-118.5" font-family="Helvetica,sans-Serif" font-size="10.00">/CompilerProject/Software</text>
<text text-anchor="start" x="1031" y="-107.5" font-family="Helvetica,sans-Serif" font-size="10.00">/pinhao/include/pinhao/Support</text>
<text text-anchor="middle" x="1098" y="-96.5" font-family="Helvetica,sans-Serif" font-size="10.00">/FormulaYAMLWrapper.h</text>
</a>
</g>
</g>
<!-- Node5&#45;&gt;Node6 -->
<g id="edge4" class="edge"><title>Node5&#45;&gt;Node6</title>
<path fill="none" stroke="midnightblue" d="M1032.71,-171.649C1044.43,-161.749 1057.18,-150.98 1068.28,-141.607"/>
<polygon fill="midnightblue" stroke="midnightblue" points="1030.17,-169.209 1024.79,-178.336 1034.69,-174.557 1030.17,-169.209"/>
</g>
<!-- Node7 -->
<g id="node6" class="node"><title>Node7</title>
<g id="a_node6"><a xlink:href="Formula_8cpp.html" target="_top" xlink:title="/home/yukiosir/workspace\l/CompilerProject/Software\l/pinhao/lib/MachineLearning\l/GrammarEvolution/Formula.cpp">
<polygon fill="white" stroke="black" points="967,-0.5 967,-52.5 1125,-52.5 1125,-0.5 967,-0.5"/>
<text text-anchor="start" x="975" y="-40.5" font-family="Helvetica,sans-Serif" font-size="10.00">/home/yukiosir/workspace</text>
<text text-anchor="start" x="975" y="-29.5" font-family="Helvetica,sans-Serif" font-size="10.00">/CompilerProject/Software</text>
<text text-anchor="start" x="975" y="-18.5" font-family="Helvetica,sans-Serif" font-size="10.00">/pinhao/lib/MachineLearning</text>
<text text-anchor="middle" x="1046" y="-7.5" font-family="Helvetica,sans-Serif" font-size="10.00">/GrammarEvolution/Formula.cpp</text>
</a>
</g>
</g>
<!-- Node5&#45;&gt;Node7 -->
<g id="edge7" class="edge"><title>Node5&#45;&gt;Node7</title>
<path fill="none" stroke="midnightblue" d="M997.934,-168.379C1000.56,-145.361 1005.37,-114.858 1014,-89 1018.15,-76.5555 1024.57,-63.559 1030.57,-52.7365"/>
<polygon fill="midnightblue" stroke="midnightblue" points="994.447,-168.073 996.877,-178.385 1001.41,-168.808 994.447,-168.073"/>
</g>
<!-- Node6&#45;&gt;Node7 -->
<g id="edge5" class="edge"><title>Node6&#45;&gt;Node7</title>
<path fill="none" stroke="midnightblue" d="M1077.76,-80.6387C1072.18,-71.3056 1066.23,-61.3492 1061.01,-52.6075"/>
<polygon fill="midnightblue" stroke="midnightblue" points="1074.82,-82.548 1082.96,-89.336 1080.83,-78.9567 1074.82,-82.548"/>
</g>
<!-- Node6&#45;&gt;Node8 -->
<g id="edge6" class="edge"><title>Node6&#45;&gt;Node8</title>
<path fill="none" stroke="midnightblue" d="M1163.8,-85.2945C1187.74,-74.6654 1214.57,-62.7552 1237.63,-52.5211"/>
<polygon fill="midnightblue" stroke="midnightblue" points="1162.15,-82.1966 1154.43,-89.4527 1164.99,-88.5946 1162.15,-82.1966"/>
</g>
<!-- Node9&#45;&gt;Node5 -->
<g id="edge9" class="edge"><title>Node9&#45;&gt;Node5</title>
<path fill="none" stroke="midnightblue" d="M1135.85,-263.576C1109.9,-252.876 1080.72,-240.846 1055.68,-230.521"/>
<polygon fill="midnightblue" stroke="midnightblue" points="1134.67,-266.876 1145.25,-267.453 1137.34,-260.405 1134.67,-266.876"/>
</g>
<!-- Node10&#45;&gt;Node5 -->
<g id="edge12" class="edge"><title>Node10&#45;&gt;Node5</title>
<path fill="none" stroke="midnightblue" d="M973.971,-257.771C977.624,-248.691 981.491,-239.079 984.899,-230.607"/>
<polygon fill="midnightblue" stroke="midnightblue" points="970.609,-256.752 970.123,-267.336 977.103,-259.365 970.609,-256.752"/>
</g>
<!-- Node11&#45;&gt;Node4 -->
<g id="edge14" class="edge"><title>Node11&#45;&gt;Node4</title>
<path fill="none" stroke="midnightblue" d="M244.823,-350.503C259.147,-340.371 274.87,-329.25 288.503,-319.607"/>
<polygon fill="midnightblue" stroke="midnightblue" points="242.72,-347.704 236.577,-356.336 246.762,-353.419 242.72,-347.704"/>
</g>
<!-- Node11&#45;&gt;Node5 -->
<g id="edge15" class="edge"><title>Node11&#45;&gt;Node5</title>
<path fill="none" stroke="midnightblue" d="M196.458,-346.273C195.28,-320.466 198.606,-286.644 220,-267 269.088,-221.928 703.706,-209.796 899.776,-206.606"/>
<polygon fill="midnightblue" stroke="midnightblue" points="192.979,-346.693 197.167,-356.425 199.962,-346.206 192.979,-346.693"/>
</g>
<!-- Node11&#45;&gt;Node12 -->
<g id="edge16" class="edge"><title>Node11&#45;&gt;Node12</title>
<path fill="none" stroke="midnightblue" d="M158.933,-350.219C145.41,-340.164 130.612,-329.16 117.765,-319.607"/>
<polygon fill="midnightblue" stroke="midnightblue" points="157.046,-353.178 167.159,-356.336 161.223,-347.56 157.046,-353.178"/>
</g>
</g>
</svg>
        <g id="navigator" transform="translate(0 0)" fill="#404254">
                <rect fill="#f2f5e9" fill-opacity="0.5" stroke="#606060" stroke-width=".5" x="0" y="0" width="60" height="60"/>
                <use id="zoomplus" xlink:href="#zoomPlus" x="17" y="9" onmousedown="handleZoom(evt,'in')"/>
                <use id="zoomminus" xlink:href="#zoomMin" x="42" y="9" onmousedown="handleZoom(evt,'out')"/>
                <use id="reset" xlink:href="#resetDef" x="30" y="36" onmousedown="handleReset()"/>
                <g id="arrowUp" xlink:href="#dirArrow" transform="translate(30 24)" onmousedown="handlePan(0,-1)">
                  <use xlink:href="#rim" fill="#404040">
                        <set attributeName="fill" to="#808080" begin="arrowUp.mouseover" end="arrowUp.mouseout"/>
                  </use>
                  <path fill="none" stroke="white" stroke-width="1.5" d="M0,-3.0v7 M-2.5,-0.5L0,-3.0L2.5,-0.5"/>
                </g>
                <g id="arrowRight" xlink:href="#dirArrow" transform="rotate(90) translate(36 -43)" onmousedown="handlePan(1,0)">
                  <use xlink:href="#rim" fill="#404040">
                        <set attributeName="fill" to="#808080" begin="arrowRight.mouseover" end="arrowRight.mouseout"/>
                  </use>
                  <path fill="none" stroke="white" stroke-width="1.5" d="M0,-3.0v7 M-2.5,-0.5L0,-3.0L2.5,-0.5"/>
                </g>
                <g id="arrowDown" xlink:href="#dirArrow" transform="rotate(180) translate(-30 -48)" onmousedown="handlePan(0,1)">
                  <use xlink:href="#rim" fill="#404040">
                        <set attributeName="fill" to="#808080" begin="arrowDown.mouseover" end="arrowDown.mouseout"/>
                  </use>
                  <path fill="none" stroke="white" stroke-width="1.5" d="M0,-3.0v7 M-2.5,-0.5L0,-3.0L2.5,-0.5"/>
                </g>
                <g id="arrowLeft" xlink:href="#dirArrow" transform="rotate(270) translate(-36 17)" onmousedown="handlePan(-1,0)">
                  <use xlink:href="#rim" fill="#404040">
                        <set attributeName="fill" to="#808080" begin="arrowLeft.mouseover" end="arrowLeft.mouseout"/>
                  </use>
                  <path fill="none" stroke="white" stroke-width="1.5" d="M0,-3.0v7 M-2.5,-0.5L0,-3.0L2.5,-0.5"/>
                </g>
        </g>
        <svg viewBox="0 0 15 15" width="100%" height="30px" preserveAspectRatio="xMaxYMin meet">
         <g id="arrow_out" transform="scale(0.3 0.3)">
          <a xlink:href="Random_8h__dep__incl_org.svg" target="_base">
           <rect id="button" ry="5" rx="5" y="6" x="6" height="38" width="38"
                fill="#f2f5e9" fill-opacity="0.5" stroke="#606060" stroke-width="1.0"/>
           <path id="arrow"
             d="M 11.500037,31.436501 C 11.940474,20.09759 22.043105,11.32322 32.158766,21.979434 L 37.068811,17.246167 C 37.068811,17.246167 37.088388,32 37.088388,32 L 22.160133,31.978069 C 22.160133,31.978069 26.997745,27.140456 26.997745,27.140456 C 18.528582,18.264221 13.291696,25.230495 11.500037,31.436501 z"
             style="fill:#404040;"/>
          </a>
         </g>
        </svg>
</svg>
