<?xml version="1.0" encoding="UTF-8" standalone="no"?>
<!DOCTYPE svg PUBLIC "-//W3C//DTD SVG 1.1//EN"
 "http://www.w3.org/Graphics/SVG/1.1/DTD/svg11.dtd">
<!-- Generated by graphviz version 2.38.0 (20140413.2041)
 -->
<!-- Title: /home/yukiosir/workspace/CompilerProject/Software/pinhao/include/pinhao/Support/SerialSet.h Pages: 1 -->
<svg width="480pt" height="184pt"
 viewBox="0.00 0.00 479.50 184.00" xmlns="http://www.w3.org/2000/svg" xmlns:xlink="http://www.w3.org/1999/xlink">
<g id="graph0" class="graph" transform="scale(1 1) rotate(0) translate(4 180)">
<title>/home/yukiosir/workspace/CompilerProject/Software/pinhao/include/pinhao/Support/SerialSet.h</title>
<polygon fill="white" stroke="none" points="-4,4 -4,-180 475.5,-180 475.5,4 -4,4"/>
<!-- Node0 -->
<g id="node1" class="node"><title>Node0</title>
<polygon fill="#bfbfbf" stroke="black" points="265.5,-123.5 265.5,-175.5 415.5,-175.5 415.5,-123.5 265.5,-123.5"/>
<text text-anchor="start" x="273.5" y="-163.5" font-family="Helvetica,sans-Serif" font-size="10.00">/home/yukiosir/workspace</text>
<text text-anchor="start" x="273.5" y="-152.5" font-family="Helvetica,sans-Serif" font-size="10.00">/CompilerProject/Software</text>
<text text-anchor="start" x="273.5" y="-141.5" font-family="Helvetica,sans-Serif" font-size="10.00">/pinhao/include/pinhao/Support</text>
<text text-anchor="middle" x="340.5" y="-130.5" font-family="Helvetica,sans-Serif" font-size="10.00">/SerialSet.h</text>
</g>
<!-- Node1 -->
<g id="node2" class="node"><title>Node1</title>
<g id="a_node2"><a xlink:href="YAMLWrapper_8h.html" target="_top" xlink:title="pinhao/Support/YAMLWrapper.h">
<polygon fill="white" stroke="black" points="56,-62 56,-81 213,-81 213,-62 56,-62"/>
<text text-anchor="middle" x="134.5" y="-69" font-family="Helvetica,sans-Serif" font-size="10.00">pinhao/Support/YAMLWrapper.h</text>
</a>
</g>
</g>
<!-- Node0&#45;&gt;Node1 -->
<g id="edge1" class="edge"><title>Node0&#45;&gt;Node1</title>
<path fill="none" stroke="midnightblue" d="M272.477,-123.404C237.043,-110.331 195.343,-94.9468 167.134,-84.5396"/>
<polygon fill="midnightblue" stroke="midnightblue" points="168.344,-81.2556 157.751,-81.0779 165.921,-87.8229 168.344,-81.2556"/>
</g>
<!-- Node5 -->
<g id="node6" class="node"><title>Node5</title>
<g id="a_node6"><a xlink:href="SerialSetYAMLWrapper_8h.html" target="_top" xlink:title="pinhao/Support/SerialSet\lYAMLWrapper.h">
<polygon fill="white" stroke="black" points="231,-56.5 231,-86.5 356,-86.5 356,-56.5 231,-56.5"/>
<text text-anchor="start" x="239" y="-74.5" font-family="Helvetica,sans-Serif" font-size="10.00">pinhao/Support/SerialSet</text>
<text text-anchor="middle" x="293.5" y="-63.5" font-family="Helvetica,sans-Serif" font-size="10.00">YAMLWrapper.h</text>
</a>
</g>
</g>
<!-- Node0&#45;&gt;Node5 -->
<g id="edge5" class="edge"><title>Node0&#45;&gt;Node5</title>
<path fill="none" stroke="midnightblue" d="M324.85,-123.193C319.3,-114.22 313.091,-104.179 307.672,-95.4164"/>
<polygon fill="midnightblue" stroke="midnightblue" points="310.608,-93.5094 302.371,-86.8453 304.654,-97.1912 310.608,-93.5094"/>
</g>
<!-- Node6 -->
<g id="node7" class="node"><title>Node6</title>
<polygon fill="white" stroke="#bfbfbf" points="373.5,-62 373.5,-81 403.5,-81 403.5,-62 373.5,-62"/>
<text text-anchor="middle" x="388.5" y="-69" font-family="Helvetica,sans-Serif" font-size="10.00">set</text>
</g>
<!-- Node0&#45;&gt;Node6 -->
<g id="edge6" class="edge"><title>Node0&#45;&gt;Node6</title>
<path fill="none" stroke="midnightblue" d="M356.483,-123.193C363.427,-112.198 371.383,-99.6017 377.627,-89.7158"/>
<polygon fill="midnightblue" stroke="midnightblue" points="380.619,-91.5328 383,-81.2089 374.7,-87.7948 380.619,-91.5328"/>
</g>
<!-- Node7 -->
<g id="node8" class="node"><title>Node7</title>
<polygon fill="white" stroke="#bfbfbf" points="421.5,-62 421.5,-81 471.5,-81 471.5,-62 421.5,-62"/>
<text text-anchor="middle" x="446.5" y="-69" font-family="Helvetica,sans-Serif" font-size="10.00">fstream</text>
</g>
<!-- Node0&#45;&gt;Node7 -->
<g id="edge7" class="edge"><title>Node0&#45;&gt;Node7</title>
<path fill="none" stroke="midnightblue" d="M375.502,-123.404C392.282,-111.374 411.792,-97.3849 426.11,-87.1196"/>
<polygon fill="midnightblue" stroke="midnightblue" points="428.195,-89.9313 434.282,-81.2599 424.116,-84.2424 428.195,-89.9313"/>
</g>
<!-- Node2 -->
<g id="node3" class="node"><title>Node2</title>
<polygon fill="white" stroke="#bfbfbf" points="0,-0.5 0,-19.5 89,-19.5 89,-0.5 0,-0.5"/>
<text text-anchor="middle" x="44.5" y="-7.5" font-family="Helvetica,sans-Serif" font-size="10.00">yaml&#45;cpp/yaml.h</text>
</g>
<!-- Node1&#45;&gt;Node2 -->
<g id="edge2" class="edge"><title>Node1&#45;&gt;Node2</title>
<path fill="none" stroke="midnightblue" d="M121.605,-61.9751C107.036,-52.3431 83.0978,-36.5175 65.7546,-25.0517"/>
<polygon fill="midnightblue" stroke="midnightblue" points="67.643,-22.1044 57.3709,-19.5091 63.7825,-27.9437 67.643,-22.1044"/>
</g>
<!-- Node3 -->
<g id="node4" class="node"><title>Node3</title>
<polygon fill="white" stroke="#bfbfbf" points="107.5,-0.5 107.5,-19.5 161.5,-19.5 161.5,-0.5 107.5,-0.5"/>
<text text-anchor="middle" x="134.5" y="-7.5" font-family="Helvetica,sans-Serif" font-size="10.00">iostream</text>
</g>
<!-- Node1&#45;&gt;Node3 -->
<g id="edge3" class="edge"><title>Node1&#45;&gt;Node3</title>
<path fill="none" stroke="midnightblue" d="M134.5,-61.9751C134.5,-53.5803 134.5,-40.4806 134.5,-29.6631"/>
<polygon fill="midnightblue" stroke="midnightblue" points="138,-29.5091 134.5,-19.5091 131,-29.5091 138,-29.5091"/>
</g>
<!-- Node4 -->
<g id="node5" class="node"><title>Node4</title>
<polygon fill="white" stroke="#bfbfbf" points="179.5,-0.5 179.5,-19.5 231.5,-19.5 231.5,-0.5 179.5,-0.5"/>
<text text-anchor="middle" x="205.5" y="-7.5" font-family="Helvetica,sans-Serif" font-size="10.00">ostream</text>
</g>
<!-- Node1&#45;&gt;Node4 -->
<g id="edge4" class="edge"><title>Node1&#45;&gt;Node4</title>
<path fill="none" stroke="midnightblue" d="M144.673,-61.9751C155.85,-52.6082 174.017,-37.3839 187.591,-26.0081"/>
<polygon fill="midnightblue" stroke="midnightblue" points="189.93,-28.6148 195.346,-19.5091 185.434,-23.2496 189.93,-28.6148"/>
</g>
</g>
</svg>
