<?xml version="1.0" encoding="UTF-8" standalone="no"?>
<!DOCTYPE svg PUBLIC "-//W3C//DTD SVG 1.1//EN"
 "http://www.w3.org/Graphics/SVG/1.1/DTD/svg11.dtd">
<!-- Generated by graphviz version 2.38.0 (20140413.2041)
 -->
<!-- Title: /home/yukiosir/workspace/CompilerProject/Software/pinhao/lib/MachineLearning/GrammarEvolution/SimpleGrammarEvolution.cpp Pages: 1 -->
<svg width="2433pt" height="530pt"
 viewBox="0.00 0.00 2432.50 530.00" xmlns="http://www.w3.org/2000/svg" xmlns:xlink="http://www.w3.org/1999/xlink">
<g id="graph0" class="graph" transform="scale(1 1) rotate(0) translate(4 526)">
<title>/home/yukiosir/workspace/CompilerProject/Software/pinhao/lib/MachineLearning/GrammarEvolution/SimpleGrammarEvolution.cpp</title>
<polygon fill="white" stroke="none" points="-4,4 -4,-526 2428.5,-526 2428.5,4 -4,4"/>
<!-- Node0 -->
<g id="node1" class="node"><title>Node0</title>
<polygon fill="#bfbfbf" stroke="black" points="1636.5,-469.5 1636.5,-521.5 1869.5,-521.5 1869.5,-469.5 1636.5,-469.5"/>
<text text-anchor="start" x="1644.5" y="-509.5" font-family="Helvetica,sans-Serif" font-size="10.00">/home/yukiosir/workspace</text>
<text text-anchor="start" x="1644.5" y="-498.5" font-family="Helvetica,sans-Serif" font-size="10.00">/CompilerProject/Software</text>
<text text-anchor="start" x="1644.5" y="-487.5" font-family="Helvetica,sans-Serif" font-size="10.00">/pinhao/lib/MachineLearning</text>
<text text-anchor="middle" x="1753" y="-476.5" font-family="Helvetica,sans-Serif" font-size="10.00">/GrammarEvolution/SimpleGrammarEvolution.cpp</text>
</g>
<!-- Node1 -->
<g id="node2" class="node"><title>Node1</title>
<g id="a_node2"><a xlink:href="SimpleGrammarEvolution_8h.html" target="_top" xlink:title="pinhao/MachineLearning\l/GrammarEvolution/SimpleGrammar\lEvolution.h">
<polygon fill="white" stroke="black" points="1666,-257.5 1666,-298.5 1840,-298.5 1840,-257.5 1666,-257.5"/>
<text text-anchor="start" x="1674" y="-286.5" font-family="Helvetica,sans-Serif" font-size="10.00">pinhao/MachineLearning</text>
<text text-anchor="start" x="1674" y="-275.5" font-family="Helvetica,sans-Serif" font-size="10.00">/GrammarEvolution/SimpleGrammar</text>
<text text-anchor="middle" x="1753" y="-264.5" font-family="Helvetica,sans-Serif" font-size="10.00">Evolution.h</text>
</a>
</g>
</g>
<!-- Node0&#45;&gt;Node1 -->
<g id="edge1" class="edge"><title>Node0&#45;&gt;Node1</title>
<path fill="none" stroke="midnightblue" d="M1753,-469.358C1753,-429.337 1753,-351.319 1753,-308.641"/>
<polygon fill="midnightblue" stroke="midnightblue" points="1756.5,-308.596 1753,-298.596 1749.5,-308.596 1756.5,-308.596"/>
</g>
<!-- Node20 -->
<g id="node21" class="node"><title>Node20</title>
<g id="a_node21"><a xlink:href="Candidate_8h.html" target="_top" xlink:title="pinhao/MachineLearning\l/GrammarEvolution/Candidate.h">
<polygon fill="white" stroke="black" points="1708,-123.5 1708,-153.5 1864,-153.5 1864,-123.5 1708,-123.5"/>
<text text-anchor="start" x="1716" y="-141.5" font-family="Helvetica,sans-Serif" font-size="10.00">pinhao/MachineLearning</text>
<text text-anchor="middle" x="1786" y="-130.5" font-family="Helvetica,sans-Serif" font-size="10.00">/GrammarEvolution/Candidate.h</text>
</a>
</g>
</g>
<!-- Node0&#45;&gt;Node20 -->
<g id="edge26" class="edge"><title>Node0&#45;&gt;Node20</title>
<path fill="none" stroke="midnightblue" d="M1802.4,-469.406C1842.35,-445.205 1892,-404.472 1892,-351.5 1892,-351.5 1892,-351.5 1892,-277 1892,-234.255 1877.72,-223.362 1851,-190 1841.65,-178.332 1829.09,-167.768 1817.5,-159.353"/>
<polygon fill="midnightblue" stroke="midnightblue" points="1819.5,-156.478 1809.3,-153.621 1815.49,-162.217 1819.5,-156.478"/>
</g>
<!-- Node21 -->
<g id="node22" class="node"><title>Node21</title>
<g id="a_node22"><a xlink:href="Formula_8h.html" target="_top" xlink:title="pinhao/MachineLearning\l/GrammarEvolution/Formula.h">
<polygon fill="white" stroke="black" points="408.5,-402.5 408.5,-432.5 555.5,-432.5 555.5,-402.5 408.5,-402.5"/>
<text text-anchor="start" x="416.5" y="-420.5" font-family="Helvetica,sans-Serif" font-size="10.00">pinhao/MachineLearning</text>
<text text-anchor="middle" x="482" y="-409.5" font-family="Helvetica,sans-Serif" font-size="10.00">/GrammarEvolution/Formula.h</text>
</a>
</g>
</g>
<!-- Node0&#45;&gt;Node21 -->
<g id="edge30" class="edge"><title>Node0&#45;&gt;Node21</title>
<path fill="none" stroke="midnightblue" d="M1636.27,-487.52C1382.7,-472.358 786.657,-436.717 566.043,-423.525"/>
<polygon fill="midnightblue" stroke="midnightblue" points="566.016,-420.018 555.825,-422.914 565.598,-427.005 566.016,-420.018"/>
</g>
<!-- Node30 -->
<g id="node31" class="node"><title>Node30</title>
<g id="a_node31"><a xlink:href="OptimizationSet_8h.html" target="_top" xlink:title="pinhao/Optimizer/Optimization\lSet.h">
<polygon fill="white" stroke="black" points="1151,-335.5 1151,-365.5 1299,-365.5 1299,-335.5 1151,-335.5"/>
<text text-anchor="start" x="1159" y="-353.5" font-family="Helvetica,sans-Serif" font-size="10.00">pinhao/Optimizer/Optimization</text>
<text text-anchor="middle" x="1225" y="-342.5" font-family="Helvetica,sans-Serif" font-size="10.00">Set.h</text>
</a>
</g>
</g>
<!-- Node0&#45;&gt;Node30 -->
<g id="edge59" class="edge"><title>Node0&#45;&gt;Node30</title>
<path fill="none" stroke="midnightblue" d="M1660.43,-469.428C1552.99,-440.33 1378.82,-393.158 1286.69,-368.207"/>
<polygon fill="midnightblue" stroke="midnightblue" points="1287.52,-364.806 1276.95,-365.57 1285.69,-371.563 1287.52,-364.806"/>
</g>
<!-- Node34 -->
<g id="node35" class="node"><title>Node34</title>
<g id="a_node35"><a xlink:href="PAPIWrapper_8h.html" target="_top" xlink:title="pinhao/PerformanceAnalyser\l/PAPIWrapper.h">
<polygon fill="white" stroke="black" points="2050,-263 2050,-293 2192,-293 2192,-263 2050,-263"/>
<text text-anchor="start" x="2058" y="-281" font-family="Helvetica,sans-Serif" font-size="10.00">pinhao/PerformanceAnalyser</text>
<text text-anchor="middle" x="2121" y="-270" font-family="Helvetica,sans-Serif" font-size="10.00">/PAPIWrapper.h</text>
</a>
</g>
</g>
<!-- Node0&#45;&gt;Node34 -->
<g id="edge74" class="edge"><title>Node0&#45;&gt;Node34</title>
<path fill="none" stroke="midnightblue" d="M1825.47,-469.463C1851.49,-459.417 1880.65,-446.91 1906,-433 1979.53,-392.649 2057.6,-331.465 2096.29,-299.73"/>
<polygon fill="midnightblue" stroke="midnightblue" points="2098.89,-302.122 2104.37,-293.056 2094.43,-296.724 2098.89,-302.122"/>
</g>
<!-- Node2 -->
<g id="node3" class="node"><title>Node2</title>
<g id="a_node3"><a xlink:href="GrammarEvolution_8h.html" target="_top" xlink:title="pinhao/MachineLearning\l/GrammarEvolution/GrammarEvolution.h">
<polygon fill="white" stroke="black" points="1632.5,-190.5 1632.5,-220.5 1825.5,-220.5 1825.5,-190.5 1632.5,-190.5"/>
<text text-anchor="start" x="1640.5" y="-208.5" font-family="Helvetica,sans-Serif" font-size="10.00">pinhao/MachineLearning</text>
<text text-anchor="middle" x="1729" y="-197.5" font-family="Helvetica,sans-Serif" font-size="10.00">/GrammarEvolution/GrammarEvolution.h</text>
</a>
</g>
</g>
<!-- Node1&#45;&gt;Node2 -->
<g id="edge2" class="edge"><title>Node1&#45;&gt;Node2</title>
<path fill="none" stroke="midnightblue" d="M1746.31,-257.362C1743.48,-249.045 1740.16,-239.276 1737.18,-230.533"/>
<polygon fill="midnightblue" stroke="midnightblue" points="1740.44,-229.23 1733.9,-220.892 1733.81,-231.486 1740.44,-229.23"/>
</g>
<!-- Node4 -->
<g id="node5" class="node"><title>Node4</title>
<polygon fill="white" stroke="#bfbfbf" points="1563,-62 1563,-81 1607,-81 1607,-62 1563,-62"/>
<text text-anchor="middle" x="1585" y="-69" font-family="Helvetica,sans-Serif" font-size="10.00">vector</text>
</g>
<!-- Node1&#45;&gt;Node4 -->
<g id="edge25" class="edge"><title>Node1&#45;&gt;Node4</title>
<path fill="none" stroke="midnightblue" d="M1793.01,-257.464C1822.36,-240.471 1854.05,-214.754 1835,-190 1796.86,-140.452 1754.12,-183.527 1699,-154 1680.68,-144.187 1680.58,-135.523 1664,-123 1646.19,-109.551 1624.8,-96.024 1608.77,-86.3593"/>
<polygon fill="midnightblue" stroke="midnightblue" points="1610.4,-83.2574 1600.02,-81.1451 1606.82,-89.2707 1610.4,-83.2574"/>
</g>
<!-- Node3 -->
<g id="node4" class="node"><title>Node3</title>
<g id="a_node4"><a xlink:href="Evolution_8h.html" target="_top" xlink:title="pinhao/MachineLearning\l/GrammarEvolution/Evolution.h">
<polygon fill="white" stroke="black" points="1068,-123.5 1068,-153.5 1220,-153.5 1220,-123.5 1068,-123.5"/>
<text text-anchor="start" x="1076" y="-141.5" font-family="Helvetica,sans-Serif" font-size="10.00">pinhao/MachineLearning</text>
<text text-anchor="middle" x="1144" y="-130.5" font-family="Helvetica,sans-Serif" font-size="10.00">/GrammarEvolution/Evolution.h</text>
</a>
</g>
</g>
<!-- Node2&#45;&gt;Node3 -->
<g id="edge3" class="edge"><title>Node2&#45;&gt;Node3</title>
<path fill="none" stroke="midnightblue" d="M1632.08,-194.147C1538.58,-184.102 1393.07,-168.321 1267,-154 1255.15,-152.654 1242.66,-151.21 1230.36,-149.775"/>
<polygon fill="midnightblue" stroke="midnightblue" points="1230.44,-146.26 1220.1,-148.573 1229.62,-153.212 1230.44,-146.26"/>
</g>
<!-- Node2&#45;&gt;Node4 -->
<g id="edge24" class="edge"><title>Node2&#45;&gt;Node4</title>
<path fill="none" stroke="midnightblue" d="M1710.35,-190.445C1697.57,-180.595 1680.39,-166.93 1666,-154 1642.03,-132.457 1616.05,-105.645 1600.15,-88.7948"/>
<polygon fill="midnightblue" stroke="midnightblue" points="1602.6,-86.2897 1593.2,-81.39 1597.49,-91.0783 1602.6,-86.2897"/>
</g>
<!-- Node7 -->
<g id="node8" class="node"><title>Node7</title>
<g id="a_node8"><a xlink:href="Optimizations_8h.html" target="_top" xlink:title="pinhao/Optimizer/Optimizations.h">
<polygon fill="white" stroke="black" points="1276.5,-129 1276.5,-148 1437.5,-148 1437.5,-129 1276.5,-129"/>
<text text-anchor="middle" x="1357" y="-136" font-family="Helvetica,sans-Serif" font-size="10.00">pinhao/Optimizer/Optimizations.h</text>
</a>
</g>
</g>
<!-- Node2&#45;&gt;Node7 -->
<g id="edge7" class="edge"><title>Node2&#45;&gt;Node7</title>
<path fill="none" stroke="midnightblue" d="M1648.74,-190.476C1578.73,-178.244 1478.81,-160.783 1415.95,-149.801"/>
<polygon fill="midnightblue" stroke="midnightblue" points="1416.26,-146.302 1405.81,-148.029 1415.06,-153.198 1416.26,-146.302"/>
</g>
<!-- Node11 -->
<g id="node12" class="node"><title>Node11</title>
<g id="a_node12"><a xlink:href="SerialSet_8h.html" target="_top" xlink:title="pinhao/Support/SerialSet.h">
<polygon fill="white" stroke="black" points="2162.5,-129 2162.5,-148 2295.5,-148 2295.5,-129 2162.5,-129"/>
<text text-anchor="middle" x="2229" y="-136" font-family="Helvetica,sans-Serif" font-size="10.00">pinhao/Support/SerialSet.h</text>
</a>
</g>
</g>
<!-- Node2&#45;&gt;Node11 -->
<g id="edge13" class="edge"><title>Node2&#45;&gt;Node11</title>
<path fill="none" stroke="midnightblue" d="M1825.7,-191.929C1921.28,-179.504 2065.54,-160.75 2153.13,-149.363"/>
<polygon fill="midnightblue" stroke="midnightblue" points="2153.8,-152.806 2163.27,-148.046 2152.9,-145.864 2153.8,-152.806"/>
</g>
<!-- Node12 -->
<g id="node13" class="node"><title>Node12</title>
<g id="a_node13"><a xlink:href="YAMLWrapper_8h.html" target="_top" xlink:title="pinhao/Support/YAMLWrapper.h">
<polygon fill="white" stroke="black" points="1707.5,-62 1707.5,-81 1864.5,-81 1864.5,-62 1707.5,-62"/>
<text text-anchor="middle" x="1786" y="-69" font-family="Helvetica,sans-Serif" font-size="10.00">pinhao/Support/YAMLWrapper.h</text>
</a>
</g>
</g>
<!-- Node2&#45;&gt;Node12 -->
<g id="edge21" class="edge"><title>Node2&#45;&gt;Node12</title>
<path fill="none" stroke="midnightblue" d="M1821.85,-190.369C1841.85,-182.847 1860.66,-171.397 1873,-154 1880.97,-142.761 1879.87,-134.94 1873,-123 1862.71,-105.122 1843.39,-92.9907 1825.57,-85.1091"/>
<polygon fill="midnightblue" stroke="midnightblue" points="1826.47,-81.6965 1815.89,-81.1582 1823.82,-88.1775 1826.47,-81.6965"/>
</g>
<!-- Node19 -->
<g id="node20" class="node"><title>Node19</title>
<g id="a_node20"><a xlink:href="Types_8h.html" target="_top" xlink:title="pinhao/Support/Types.h">
<polygon fill="white" stroke="black" points="315,-62 315,-81 435,-81 435,-62 315,-62"/>
<text text-anchor="middle" x="375" y="-69" font-family="Helvetica,sans-Serif" font-size="10.00">pinhao/Support/Types.h</text>
</a>
</g>
</g>
<!-- Node2&#45;&gt;Node19 -->
<g id="edge22" class="edge"><title>Node2&#45;&gt;Node19</title>
<path fill="none" stroke="midnightblue" d="M1632.49,-197.527C1593.8,-194.899 1548.8,-192.052 1508,-190 1393.85,-184.258 587.46,-192.925 480,-154 442.601,-140.453 407.961,-108.198 389.32,-88.5714"/>
<polygon fill="midnightblue" stroke="midnightblue" points="391.706,-85.9958 382.35,-81.0243 386.564,-90.7452 391.706,-85.9958"/>
</g>
<!-- Node3&#45;&gt;Node4 -->
<g id="edge4" class="edge"><title>Node3&#45;&gt;Node4</title>
<path fill="none" stroke="midnightblue" d="M1220.09,-125.148C1224.8,-124.413 1229.46,-123.692 1234,-123 1351.37,-105.104 1491.09,-85.5133 1552.88,-76.9365"/>
<polygon fill="midnightblue" stroke="midnightblue" points="1553.38,-80.401 1562.8,-75.561 1552.42,-73.4673 1553.38,-80.401"/>
</g>
<!-- Node5 -->
<g id="node6" class="node"><title>Node5</title>
<polygon fill="white" stroke="#bfbfbf" points="510.5,-0.5 510.5,-19.5 551.5,-19.5 551.5,-0.5 510.5,-0.5"/>
<text text-anchor="middle" x="531" y="-7.5" font-family="Helvetica,sans-Serif" font-size="10.00">string</text>
</g>
<!-- Node3&#45;&gt;Node5 -->
<g id="edge5" class="edge"><title>Node3&#45;&gt;Node5</title>
<path fill="none" stroke="midnightblue" d="M1123.7,-123.413C1095.26,-104.481 1041.27,-71.4251 990,-56 909.321,-31.7275 651.108,-16.9519 561.766,-12.4619"/>
<polygon fill="midnightblue" stroke="midnightblue" points="561.892,-8.96394 551.731,-11.9654 561.546,-15.9554 561.892,-8.96394"/>
</g>
<!-- Node6 -->
<g id="node7" class="node"><title>Node6</title>
<polygon fill="white" stroke="#bfbfbf" points="547,-62 547,-81 599,-81 599,-62 547,-62"/>
<text text-anchor="middle" x="573" y="-69" font-family="Helvetica,sans-Serif" font-size="10.00">memory</text>
</g>
<!-- Node3&#45;&gt;Node6 -->
<g id="edge6" class="edge"><title>Node3&#45;&gt;Node6</title>
<path fill="none" stroke="midnightblue" d="M1067.88,-128.835C943.461,-114.672 701.203,-87.094 609.426,-76.6465"/>
<polygon fill="midnightblue" stroke="midnightblue" points="609.58,-73.1416 599.249,-75.488 608.788,-80.0967 609.58,-73.1416"/>
</g>
<!-- Node7&#45;&gt;Node4 -->
<g id="edge11" class="edge"><title>Node7&#45;&gt;Node4</title>
<path fill="none" stroke="midnightblue" d="M1387.28,-128.869C1430.34,-116.592 1508.93,-94.188 1552.94,-81.639"/>
<polygon fill="midnightblue" stroke="midnightblue" points="1554.17,-84.9288 1562.83,-78.8211 1552.25,-78.197 1554.17,-84.9288"/>
</g>
<!-- Node7&#45;&gt;Node5 -->
<g id="edge10" class="edge"><title>Node7&#45;&gt;Node5</title>
<path fill="none" stroke="midnightblue" d="M1329.77,-128.885C1275.32,-112.025 1148.93,-74.6892 1040,-56 860.459,-25.1965 641.458,-14.8564 561.815,-11.9703"/>
<polygon fill="midnightblue" stroke="midnightblue" points="561.636,-8.46207 551.52,-11.6112 561.392,-15.4578 561.636,-8.46207"/>
</g>
<!-- Node8 -->
<g id="node9" class="node"><title>Node8</title>
<polygon fill="white" stroke="#bfbfbf" points="1212.5,-62 1212.5,-81 1303.5,-81 1303.5,-62 1212.5,-62"/>
<text text-anchor="middle" x="1258" y="-69" font-family="Helvetica,sans-Serif" font-size="10.00">llvm/IR/Module.h</text>
</g>
<!-- Node7&#45;&gt;Node8 -->
<g id="edge8" class="edge"><title>Node7&#45;&gt;Node8</title>
<path fill="none" stroke="midnightblue" d="M1343.65,-128.734C1327.25,-117.964 1299.2,-99.55 1279.69,-86.7395"/>
<polygon fill="midnightblue" stroke="midnightblue" points="1281.42,-83.69 1271.14,-81.1273 1277.58,-89.5415 1281.42,-83.69"/>
</g>
<!-- Node9 -->
<g id="node10" class="node"><title>Node9</title>
<polygon fill="white" stroke="#bfbfbf" points="1321.5,-62 1321.5,-81 1418.5,-81 1418.5,-62 1321.5,-62"/>
<text text-anchor="middle" x="1370" y="-69" font-family="Helvetica,sans-Serif" font-size="10.00">llvm/IR/Function.h</text>
</g>
<!-- Node7&#45;&gt;Node9 -->
<g id="edge9" class="edge"><title>Node7&#45;&gt;Node9</title>
<path fill="none" stroke="midnightblue" d="M1358.75,-128.734C1360.66,-119.183 1363.78,-103.618 1366.24,-91.2829"/>
<polygon fill="midnightblue" stroke="midnightblue" points="1369.75,-91.6195 1368.27,-81.1273 1362.88,-90.2467 1369.75,-91.6195"/>
</g>
<!-- Node10 -->
<g id="node11" class="node"><title>Node10</title>
<polygon fill="white" stroke="#bfbfbf" points="946.5,-62 946.5,-81 981.5,-81 981.5,-62 946.5,-62"/>
<text text-anchor="middle" x="964" y="-69" font-family="Helvetica,sans-Serif" font-size="10.00">map</text>
</g>
<!-- Node7&#45;&gt;Node10 -->
<g id="edge12" class="edge"><title>Node7&#45;&gt;Node10</title>
<path fill="none" stroke="midnightblue" d="M1305.22,-128.936C1220.91,-114.992 1056.85,-87.8574 991.668,-77.0762"/>
<polygon fill="midnightblue" stroke="midnightblue" points="992.169,-73.6115 981.732,-75.4327 991.027,-80.5177 992.169,-73.6115"/>
</g>
<!-- Node11&#45;&gt;Node12 -->
<g id="edge14" class="edge"><title>Node11&#45;&gt;Node12</title>
<path fill="none" stroke="midnightblue" d="M2183.22,-128.987C2171.73,-126.939 2159.43,-124.819 2148,-123 2049.84,-107.374 1936.28,-91.9643 1862.91,-82.356"/>
<polygon fill="midnightblue" stroke="midnightblue" points="1863.2,-78.8641 1852.83,-81.0394 1862.3,-85.8052 1863.2,-78.8641"/>
</g>
<!-- Node16 -->
<g id="node17" class="node"><title>Node16</title>
<g id="a_node17"><a xlink:href="SerialSetYAMLWrapper_8h.html" target="_top" xlink:title="pinhao/Support/SerialSet\lYAMLWrapper.h">
<polygon fill="white" stroke="black" points="2166.5,-56.5 2166.5,-86.5 2291.5,-86.5 2291.5,-56.5 2166.5,-56.5"/>
<text text-anchor="start" x="2174.5" y="-74.5" font-family="Helvetica,sans-Serif" font-size="10.00">pinhao/Support/SerialSet</text>
<text text-anchor="middle" x="2229" y="-63.5" font-family="Helvetica,sans-Serif" font-size="10.00">YAMLWrapper.h</text>
</a>
</g>
</g>
<!-- Node11&#45;&gt;Node16 -->
<g id="edge18" class="edge"><title>Node11&#45;&gt;Node16</title>
<path fill="none" stroke="midnightblue" d="M2229,-128.734C2229,-120.541 2229,-107.923 2229,-96.7136"/>
<polygon fill="midnightblue" stroke="midnightblue" points="2232.5,-96.589 2229,-86.589 2225.5,-96.5891 2232.5,-96.589"/>
</g>
<!-- Node17 -->
<g id="node18" class="node"><title>Node17</title>
<polygon fill="white" stroke="#bfbfbf" points="2309,-62 2309,-81 2339,-81 2339,-62 2309,-62"/>
<text text-anchor="middle" x="2324" y="-69" font-family="Helvetica,sans-Serif" font-size="10.00">set</text>
</g>
<!-- Node11&#45;&gt;Node17 -->
<g id="edge19" class="edge"><title>Node11&#45;&gt;Node17</title>
<path fill="none" stroke="midnightblue" d="M2241.81,-128.734C2257.48,-118.013 2284.22,-99.7165 2302.93,-86.9137"/>
<polygon fill="midnightblue" stroke="midnightblue" points="2305.11,-89.6628 2311.39,-81.1273 2301.16,-83.8856 2305.11,-89.6628"/>
</g>
<!-- Node18 -->
<g id="node19" class="node"><title>Node18</title>
<polygon fill="white" stroke="#bfbfbf" points="2098,-62 2098,-81 2148,-81 2148,-62 2098,-62"/>
<text text-anchor="middle" x="2123" y="-69" font-family="Helvetica,sans-Serif" font-size="10.00">fstream</text>
</g>
<!-- Node11&#45;&gt;Node18 -->
<g id="edge20" class="edge"><title>Node11&#45;&gt;Node18</title>
<path fill="none" stroke="midnightblue" d="M2214.7,-128.734C2196.98,-117.867 2166.57,-99.2161 2145.66,-86.3931"/>
<polygon fill="midnightblue" stroke="midnightblue" points="2147.42,-83.3712 2137.07,-81.1273 2143.76,-89.3386 2147.42,-83.3712"/>
</g>
<!-- Node13 -->
<g id="node14" class="node"><title>Node13</title>
<polygon fill="white" stroke="#bfbfbf" points="1068.5,-0.5 1068.5,-19.5 1157.5,-19.5 1157.5,-0.5 1068.5,-0.5"/>
<text text-anchor="middle" x="1113" y="-7.5" font-family="Helvetica,sans-Serif" font-size="10.00">yaml&#45;cpp/yaml.h</text>
</g>
<!-- Node12&#45;&gt;Node13 -->
<g id="edge15" class="edge"><title>Node12&#45;&gt;Node13</title>
<path fill="none" stroke="midnightblue" d="M1707.48,-63.5581C1569.51,-51.3604 1286.94,-26.3782 1167.85,-15.8496"/>
<polygon fill="midnightblue" stroke="midnightblue" points="1168.13,-12.3609 1157.87,-14.9666 1167.52,-19.3337 1168.13,-12.3609"/>
</g>
<!-- Node14 -->
<g id="node15" class="node"><title>Node14</title>
<polygon fill="white" stroke="#bfbfbf" points="1439,-0.5 1439,-19.5 1493,-19.5 1493,-0.5 1439,-0.5"/>
<text text-anchor="middle" x="1466" y="-7.5" font-family="Helvetica,sans-Serif" font-size="10.00">iostream</text>
</g>
<!-- Node12&#45;&gt;Node14 -->
<g id="edge16" class="edge"><title>Node12&#45;&gt;Node14</title>
<path fill="none" stroke="midnightblue" d="M1740.15,-61.9751C1676.41,-50.1226 1562.22,-28.8915 1503.36,-17.9462"/>
<polygon fill="midnightblue" stroke="midnightblue" points="1503.85,-14.4773 1493.38,-16.0902 1502.57,-21.3594 1503.85,-14.4773"/>
</g>
<!-- Node15 -->
<g id="node16" class="node"><title>Node15</title>
<polygon fill="white" stroke="#bfbfbf" points="1760,-0.5 1760,-19.5 1812,-19.5 1812,-0.5 1760,-0.5"/>
<text text-anchor="middle" x="1786" y="-7.5" font-family="Helvetica,sans-Serif" font-size="10.00">ostream</text>
</g>
<!-- Node12&#45;&gt;Node15 -->
<g id="edge17" class="edge"><title>Node12&#45;&gt;Node15</title>
<path fill="none" stroke="midnightblue" d="M1786,-61.9751C1786,-53.5803 1786,-40.4806 1786,-29.6631"/>
<polygon fill="midnightblue" stroke="midnightblue" points="1789.5,-29.5091 1786,-19.5091 1782.5,-29.5091 1789.5,-29.5091"/>
</g>
<!-- Node19&#45;&gt;Node5 -->
<g id="edge23" class="edge"><title>Node19&#45;&gt;Node5</title>
<path fill="none" stroke="midnightblue" d="M397.351,-61.9751C424.449,-51.6397 470.244,-34.1729 500.551,-22.6135"/>
<polygon fill="midnightblue" stroke="midnightblue" points="502.09,-25.7726 510.186,-18.9386 499.595,-19.2322 502.09,-25.7726"/>
</g>
<!-- Node20&#45;&gt;Node4 -->
<g id="edge29" class="edge"><title>Node20&#45;&gt;Node4</title>
<path fill="none" stroke="midnightblue" d="M1742.39,-123.396C1704.61,-111.181 1650.85,-93.7955 1616.96,-82.8348"/>
<polygon fill="midnightblue" stroke="midnightblue" points="1617.71,-79.3991 1607.12,-79.6523 1615.56,-86.0595 1617.71,-79.3991"/>
</g>
<!-- Node20&#45;&gt;Node10 -->
<g id="edge28" class="edge"><title>Node20&#45;&gt;Node10</title>
<path fill="none" stroke="midnightblue" d="M1707.93,-131.326C1530.69,-117.311 1104.55,-83.6142 991.773,-74.6961"/>
<polygon fill="midnightblue" stroke="midnightblue" points="991.814,-71.1886 981.569,-73.8893 991.262,-78.1668 991.814,-71.1886"/>
</g>
<!-- Node20&#45;&gt;Node12 -->
<g id="edge27" class="edge"><title>Node20&#45;&gt;Node12</title>
<path fill="none" stroke="midnightblue" d="M1786,-123.396C1786,-114.064 1786,-101.714 1786,-91.5173"/>
<polygon fill="midnightblue" stroke="midnightblue" points="1789.5,-91.1945 1786,-81.1945 1782.5,-91.1946 1789.5,-91.1945"/>
</g>
<!-- Node21&#45;&gt;Node3 -->
<g id="edge56" class="edge"><title>Node21&#45;&gt;Node3</title>
<path fill="none" stroke="midnightblue" d="M515.739,-402.383C626.305,-356.119 977.663,-209.1 1100.83,-157.562"/>
<polygon fill="midnightblue" stroke="midnightblue" points="1102.46,-160.678 1110.33,-153.589 1099.75,-154.22 1102.46,-160.678"/>
</g>
<!-- Node21&#45;&gt;Node4 -->
<g id="edge58" class="edge"><title>Node21&#45;&gt;Node4</title>
<path fill="none" stroke="midnightblue" d="M555.618,-415.24C805.232,-410.005 1604,-384.974 1604,-279 1604,-279 1604,-279 1604,-204.5 1604,-163.742 1595.02,-116.62 1589.4,-91.1601"/>
<polygon fill="midnightblue" stroke="midnightblue" points="1592.74,-90.0586 1587.11,-81.0871 1585.92,-91.615 1592.74,-90.0586"/>
</g>
<!-- Node21&#45;&gt;Node5 -->
<g id="edge57" class="edge"><title>Node21&#45;&gt;Node5</title>
<path fill="none" stroke="midnightblue" d="M408.479,-416.199C312.886,-411.484 158,-387.157 158,-279 158,-279 158,-279 158,-137.5 158,-70.8063 221.994,-80.563 284,-56 358.219,-26.5988 452.664,-16.2339 500.407,-12.7156"/>
<polygon fill="midnightblue" stroke="midnightblue" points="500.673,-16.2057 510.41,-12.0296 500.193,-9.22215 500.673,-16.2057"/>
</g>
<!-- Node21&#45;&gt;Node19 -->
<g id="edge55" class="edge"><title>Node21&#45;&gt;Node19</title>
<path fill="none" stroke="midnightblue" d="M445.272,-402.434C428.846,-394.267 410.791,-382.316 400,-366 341.639,-277.753 361.279,-140.455 370.963,-91.02"/>
<polygon fill="midnightblue" stroke="midnightblue" points="374.41,-91.6329 373.003,-81.1319 367.555,-90.2183 374.41,-91.6329"/>
</g>
<!-- Node22 -->
<g id="node23" class="node"><title>Node22</title>
<g id="a_node23"><a xlink:href="FeatureSet_8h.html" target="_top" xlink:title="This file defines a class which contains the features selected by the user (by some command line)...">
<polygon fill="white" stroke="black" points="409,-341 409,-360 555,-360 555,-341 409,-341"/>
<text text-anchor="middle" x="482" y="-348" font-family="Helvetica,sans-Serif" font-size="10.00">pinhao/Features/FeatureSet.h</text>
</a>
</g>
</g>
<!-- Node21&#45;&gt;Node22 -->
<g id="edge31" class="edge"><title>Node21&#45;&gt;Node22</title>
<path fill="none" stroke="midnightblue" d="M482,-402.396C482,-393.064 482,-380.714 482,-370.517"/>
<polygon fill="midnightblue" stroke="midnightblue" points="485.5,-370.195 482,-360.195 478.5,-370.195 485.5,-370.195"/>
</g>
<!-- Node28 -->
<g id="node29" class="node"><title>Node28</title>
<g id="a_node29"><a xlink:href="Random_8h.html" target="_top" xlink:title="pinhao/Support/Random.h">
<polygon fill="white" stroke="black" points="0,-341 0,-360 130,-360 130,-341 0,-341"/>
<text text-anchor="middle" x="65" y="-348" font-family="Helvetica,sans-Serif" font-size="10.00">pinhao/Support/Random.h</text>
</a>
</g>
</g>
<!-- Node21&#45;&gt;Node28 -->
<g id="edge53" class="edge"><title>Node21&#45;&gt;Node28</title>
<path fill="none" stroke="midnightblue" d="M408.372,-406.218C339.827,-396.476 234.863,-381.122 144,-366 136.263,-364.712 128.111,-363.29 120.102,-361.855"/>
<polygon fill="midnightblue" stroke="midnightblue" points="120.537,-358.378 110.074,-360.04 119.29,-365.266 120.537,-358.378"/>
</g>
<!-- Node22&#45;&gt;Node4 -->
<g id="edge51" class="edge"><title>Node22&#45;&gt;Node4</title>
<path fill="none" stroke="midnightblue" d="M544.911,-340.965C601.08,-332.633 685.305,-318.379 757,-299 894.753,-261.765 921.763,-229.096 1059,-190 1133.28,-168.84 1159.34,-187.348 1229,-154 1248.66,-144.589 1247.11,-131.905 1267,-123 1317.84,-100.244 1482.21,-82.3162 1552.56,-75.4881"/>
<polygon fill="midnightblue" stroke="midnightblue" points="1553,-78.9619 1562.63,-74.5252 1552.34,-71.9937 1553,-78.9619"/>
</g>
<!-- Node22&#45;&gt;Node6 -->
<g id="edge52" class="edge"><title>Node22&#45;&gt;Node6</title>
<path fill="none" stroke="midnightblue" d="M457.711,-340.916C439.576,-333.074 416.091,-319.537 405,-299 396.13,-282.575 400.289,-275.062 405,-257 422.224,-190.96 431.433,-170.95 480,-123 497.001,-106.216 520.725,-93.453 539.956,-84.957"/>
<polygon fill="midnightblue" stroke="midnightblue" points="541.419,-88.1383 549.264,-81.0174 538.691,-81.6918 541.419,-88.1383"/>
</g>
<!-- Node22&#45;&gt;Node10 -->
<g id="edge50" class="edge"><title>Node22&#45;&gt;Node10</title>
<path fill="none" stroke="midnightblue" d="M529.073,-340.946C604.294,-325.741 754.277,-289.021 864,-221 899.792,-198.811 907.743,-189.108 931,-154 944.139,-134.165 953.512,-108.273 958.833,-91.0508"/>
<polygon fill="midnightblue" stroke="midnightblue" points="962.285,-91.7176 961.745,-81.1366 955.569,-89.7453 962.285,-91.7176"/>
</g>
<!-- Node23 -->
<g id="node24" class="node"><title>Node23</title>
<g id="a_node24"><a xlink:href="Features_8h.html" target="_top" xlink:title="This file implements some basic feature classes that extends the base class Feature. ">
<polygon fill="white" stroke="black" points="414,-268.5 414,-287.5 550,-287.5 550,-268.5 414,-268.5"/>
<text text-anchor="middle" x="482" y="-275.5" font-family="Helvetica,sans-Serif" font-size="10.00">pinhao/Features/Features.h</text>
</a>
</g>
</g>
<!-- Node22&#45;&gt;Node23 -->
<g id="edge32" class="edge"><title>Node22&#45;&gt;Node23</title>
<path fill="none" stroke="midnightblue" d="M482,-340.855C482,-330.179 482,-311.717 482,-297.734"/>
<polygon fill="midnightblue" stroke="midnightblue" points="485.5,-297.715 482,-287.715 478.5,-297.715 485.5,-297.715"/>
</g>
<!-- Node26 -->
<g id="node27" class="node"><title>Node26</title>
<polygon fill="white" stroke="#bfbfbf" points="458.5,-62 458.5,-81 507.5,-81 507.5,-62 458.5,-62"/>
<text text-anchor="middle" x="483" y="-69" font-family="Helvetica,sans-Serif" font-size="10.00">cassert</text>
</g>
<!-- Node22&#45;&gt;Node26 -->
<g id="edge49" class="edge"><title>Node22&#45;&gt;Node26</title>
<path fill="none" stroke="midnightblue" d="M437.049,-340.984C413.377,-333.97 386.349,-321.377 372,-299 329.775,-233.153 329.663,-188.774 372,-123 376.653,-115.771 420.084,-97.3869 451.213,-84.9125"/>
<polygon fill="midnightblue" stroke="midnightblue" points="452.824,-88.0386 460.823,-81.0916 450.238,-81.5339 452.824,-88.0386"/>
</g>
<!-- Node24 -->
<g id="node25" class="node"><title>Node24</title>
<g id="a_node25"><a xlink:href="Feature_8h.html" target="_top" xlink:title="This file defines the base feature class. ">
<polygon fill="white" stroke="black" points="724.5,-196 724.5,-215 855.5,-215 855.5,-196 724.5,-196"/>
<text text-anchor="middle" x="790" y="-203" font-family="Helvetica,sans-Serif" font-size="10.00">pinhao/Features/Feature.h</text>
</a>
</g>
</g>
<!-- Node23&#45;&gt;Node24 -->
<g id="edge33" class="edge"><title>Node23&#45;&gt;Node24</title>
<path fill="none" stroke="midnightblue" d="M519.152,-268.496C575.229,-255.66 681.452,-231.346 742.889,-217.284"/>
<polygon fill="midnightblue" stroke="midnightblue" points="743.749,-220.677 752.716,-215.034 742.187,-213.854 743.749,-220.677"/>
</g>
<!-- Node24&#45;&gt;Node8 -->
<g id="edge44" class="edge"><title>Node24&#45;&gt;Node8</title>
<path fill="none" stroke="midnightblue" d="M816.609,-195.997C864.766,-180.707 969.677,-147.851 1059,-123 1111.39,-108.424 1172.02,-93.2847 1212.45,-83.431"/>
<polygon fill="midnightblue" stroke="midnightblue" points="1213.39,-86.8052 1222.28,-81.0432 1211.74,-80.0031 1213.39,-86.8052"/>
</g>
<!-- Node24&#45;&gt;Node10 -->
<g id="edge46" class="edge"><title>Node24&#45;&gt;Node10</title>
<path fill="none" stroke="midnightblue" d="M818.827,-195.941C842.814,-187.833 876.962,-173.919 902,-154 924.538,-136.069 943.38,-108.195 954.177,-90.143"/>
<polygon fill="midnightblue" stroke="midnightblue" points="957.344,-91.6586 959.321,-81.2498 951.285,-88.1538 957.344,-91.6586"/>
</g>
<!-- Node24&#45;&gt;Node13 -->
<g id="edge45" class="edge"><title>Node24&#45;&gt;Node13</title>
<path fill="none" stroke="midnightblue" d="M798.095,-195.695C806.739,-185.992 820.476,-169.676 830,-154 854.79,-113.196 836.502,-85.5529 874,-56 901.939,-33.9812 996.643,-21.4525 1058.12,-15.4605"/>
<polygon fill="midnightblue" stroke="midnightblue" points="1058.81,-18.911 1068.43,-14.4856 1058.15,-11.942 1058.81,-18.911"/>
</g>
<!-- Node24&#45;&gt;Node14 -->
<g id="edge48" class="edge"><title>Node24&#45;&gt;Node14</title>
<path fill="none" stroke="midnightblue" d="M801.707,-195.709C814.343,-186.019 834.829,-169.713 851,-154 892.561,-113.618 885.275,-82.1248 937,-56 980.637,-33.9603 1315.27,-17.5447 1428.61,-12.5683"/>
<polygon fill="midnightblue" stroke="midnightblue" points="1429.03,-16.0534 1438.87,-12.1226 1428.72,-9.05995 1429.03,-16.0534"/>
</g>
<!-- Node25 -->
<g id="node26" class="node"><title>Node25</title>
<g id="a_node26"><a xlink:href="FeatureInfo_8h.html" target="_top" xlink:title="This file defines a class that holds some informations about a feature. ">
<polygon fill="white" stroke="black" points="674.5,-129 674.5,-148 821.5,-148 821.5,-129 674.5,-129"/>
<text text-anchor="middle" x="748" y="-136" font-family="Helvetica,sans-Serif" font-size="10.00">pinhao/Features/FeatureInfo.h</text>
</a>
</g>
</g>
<!-- Node24&#45;&gt;Node25 -->
<g id="edge34" class="edge"><title>Node24&#45;&gt;Node25</title>
<path fill="none" stroke="midnightblue" d="M784.336,-195.734C777.912,-185.793 767.28,-169.338 759.171,-156.789"/>
<polygon fill="midnightblue" stroke="midnightblue" points="761.941,-154.627 753.575,-148.127 756.062,-158.426 761.941,-154.627"/>
</g>
<!-- Node24&#45;&gt;Node26 -->
<g id="edge47" class="edge"><title>Node24&#45;&gt;Node26</title>
<path fill="none" stroke="midnightblue" d="M724.416,-203.4C642.899,-200.483 510.73,-190.142 480,-154 465.279,-136.687 470.196,-109.048 475.913,-90.8356"/>
<polygon fill="midnightblue" stroke="midnightblue" points="479.233,-91.946 479.229,-81.3512 472.625,-89.6356 479.233,-91.946"/>
</g>
<!-- Node27 -->
<g id="node28" class="node"><title>Node27</title>
<g id="a_node28"><a xlink:href="FeatureRegistry_8h.html" target="_top" xlink:title="This file defines a class that has all the registered features. ">
<polygon fill="white" stroke="black" points="489.5,-129 489.5,-148 656.5,-148 656.5,-129 489.5,-129"/>
<text text-anchor="middle" x="573" y="-136" font-family="Helvetica,sans-Serif" font-size="10.00">pinhao/Features/FeatureRegistry.h</text>
</a>
</g>
</g>
<!-- Node24&#45;&gt;Node27 -->
<g id="edge40" class="edge"><title>Node24&#45;&gt;Node27</title>
<path fill="none" stroke="midnightblue" d="M761.184,-195.869C722.653,-184.327 654.243,-163.835 611.378,-150.996"/>
<polygon fill="midnightblue" stroke="midnightblue" points="612.173,-147.58 601.589,-148.064 610.165,-154.286 612.173,-147.58"/>
</g>
<!-- Node25&#45;&gt;Node4 -->
<g id="edge37" class="edge"><title>Node25&#45;&gt;Node4</title>
<path fill="none" stroke="midnightblue" d="M821.631,-132.442C946.295,-123.785 1206.86,-105.287 1427,-87 1470.53,-83.384 1520.76,-78.6842 1552.68,-75.6307"/>
<polygon fill="midnightblue" stroke="midnightblue" points="1553.15,-79.1018 1562.77,-74.6622 1552.48,-72.1339 1553.15,-79.1018"/>
</g>
<!-- Node25&#45;&gt;Node5 -->
<g id="edge38" class="edge"><title>Node25&#45;&gt;Node5</title>
<path fill="none" stroke="midnightblue" d="M733.085,-128.805C695.985,-107.178 599.314,-50.8239 554.474,-24.6843"/>
<polygon fill="midnightblue" stroke="midnightblue" points="556.135,-21.601 545.733,-19.5884 552.609,-27.6485 556.135,-21.601"/>
</g>
<!-- Node25&#45;&gt;Node10 -->
<g id="edge36" class="edge"><title>Node25&#45;&gt;Node10</title>
<path fill="none" stroke="midnightblue" d="M776.683,-128.869C818.471,-116.293 895.568,-93.0929 936.612,-80.7417"/>
<polygon fill="midnightblue" stroke="midnightblue" points="937.66,-84.0816 946.227,-77.8484 935.643,-77.3785 937.66,-84.0816"/>
</g>
<!-- Node25&#45;&gt;Node19 -->
<g id="edge35" class="edge"><title>Node25&#45;&gt;Node19</title>
<path fill="none" stroke="midnightblue" d="M699.295,-128.926C688.036,-126.962 676.103,-124.895 665,-123 569.063,-106.625 544.764,-104.359 449,-87 442.163,-85.7606 434.979,-84.4118 427.888,-83.0523"/>
<polygon fill="midnightblue" stroke="midnightblue" points="428.097,-79.5279 417.614,-81.0642 426.767,-86.4004 428.097,-79.5279"/>
</g>
<!-- Node25&#45;&gt;Node26 -->
<g id="edge39" class="edge"><title>Node25&#45;&gt;Node26</title>
<path fill="none" stroke="midnightblue" d="M711.521,-128.982C669.587,-119.131 598.722,-102.304 538,-87 531.309,-85.3137 524.173,-83.4677 517.334,-81.6748"/>
<polygon fill="midnightblue" stroke="midnightblue" points="518.173,-78.2767 507.611,-79.1108 516.388,-85.0452 518.173,-78.2767"/>
</g>
<!-- Node27&#45;&gt;Node6 -->
<g id="edge41" class="edge"><title>Node27&#45;&gt;Node6</title>
<path fill="none" stroke="midnightblue" d="M573,-128.734C573,-119.183 573,-103.618 573,-91.2829"/>
<polygon fill="midnightblue" stroke="midnightblue" points="576.5,-91.1273 573,-81.1273 569.5,-91.1273 576.5,-91.1273"/>
</g>
<!-- Node27&#45;&gt;Node10 -->
<g id="edge43" class="edge"><title>Node27&#45;&gt;Node10</title>
<path fill="none" stroke="midnightblue" d="M624.518,-128.936C708.396,-114.992 871.619,-87.8574 936.473,-77.0762"/>
<polygon fill="midnightblue" stroke="midnightblue" points="937.068,-80.5253 946.358,-75.4327 935.92,-73.6201 937.068,-80.5253"/>
</g>
<!-- Node27&#45;&gt;Node26 -->
<g id="edge42" class="edge"><title>Node27&#45;&gt;Node26</title>
<path fill="none" stroke="midnightblue" d="M560.862,-128.734C546.153,-118.111 521.144,-100.049 503.443,-87.2642"/>
<polygon fill="midnightblue" stroke="midnightblue" points="505.102,-84.1449 494.945,-81.1273 501.003,-89.8196 505.102,-84.1449"/>
</g>
<!-- Node29 -->
<g id="node30" class="node"><title>Node29</title>
<polygon fill="white" stroke="#bfbfbf" points="40.5,-268.5 40.5,-287.5 89.5,-287.5 89.5,-268.5 40.5,-268.5"/>
<text text-anchor="middle" x="65" y="-275.5" font-family="Helvetica,sans-Serif" font-size="10.00">random</text>
</g>
<!-- Node28&#45;&gt;Node29 -->
<g id="edge54" class="edge"><title>Node28&#45;&gt;Node29</title>
<path fill="none" stroke="midnightblue" d="M65,-340.855C65,-330.179 65,-311.717 65,-297.734"/>
<polygon fill="midnightblue" stroke="midnightblue" points="68.5001,-297.715 65,-287.715 61.5001,-297.715 68.5001,-297.715"/>
</g>
<!-- Node30&#45;&gt;Node4 -->
<g id="edge72" class="edge"><title>Node30&#45;&gt;Node4</title>
<path fill="none" stroke="midnightblue" d="M1299.01,-340.457C1371.28,-327.389 1478.14,-295.911 1533,-221 1562.78,-180.336 1576.64,-121.149 1582.07,-91.2617"/>
<polygon fill="midnightblue" stroke="midnightblue" points="1585.58,-91.464 1583.8,-81.0206 1578.68,-90.2977 1585.58,-91.464"/>
</g>
<!-- Node30&#45;&gt;Node5 -->
<g id="edge71" class="edge"><title>Node30&#45;&gt;Node5</title>
<path fill="none" stroke="midnightblue" d="M1150.67,-349.206C960.286,-347.856 465.757,-340.362 405,-299 308.6,-233.373 232.065,-146.186 306,-56 330.26,-26.4071 444.826,-15.8872 500.493,-12.4797"/>
<polygon fill="midnightblue" stroke="midnightblue" points="500.699,-15.9737 510.482,-11.9063 500.297,-8.98524 500.699,-15.9737"/>
</g>
<!-- Node30&#45;&gt;Node7 -->
<g id="edge60" class="edge"><title>Node30&#45;&gt;Node7</title>
<path fill="none" stroke="midnightblue" d="M1229.11,-335.487C1238.22,-306.142 1262.32,-237.055 1300,-190 1310.77,-176.547 1325.35,-163.7 1337.07,-154.33"/>
<polygon fill="midnightblue" stroke="midnightblue" points="1339.26,-157.065 1345,-148.164 1334.96,-151.539 1339.26,-157.065"/>
</g>
<!-- Node30&#45;&gt;Node10 -->
<g id="edge73" class="edge"><title>Node30&#45;&gt;Node10</title>
<path fill="none" stroke="midnightblue" d="M1202.07,-335.411C1168.06,-313.764 1103.51,-269.688 1059,-221 1020.58,-178.97 987.823,-119.591 972.794,-90.2834"/>
<polygon fill="midnightblue" stroke="midnightblue" points="975.866,-88.6011 968.237,-81.2489 969.616,-91.7536 975.866,-88.6011"/>
</g>
<!-- Node30&#45;&gt;Node19 -->
<g id="edge70" class="edge"><title>Node30&#45;&gt;Node19</title>
<path fill="none" stroke="midnightblue" d="M1150.99,-343.058C965.109,-325.276 486.15,-269.024 384,-154 368.97,-137.076 369.139,-109.736 371.424,-91.4465"/>
<polygon fill="midnightblue" stroke="midnightblue" points="374.907,-91.8249 373.003,-81.4026 367.992,-90.7374 374.907,-91.8249"/>
</g>
<!-- Node31 -->
<g id="node32" class="node"><title>Node31</title>
<g id="a_node32"><a xlink:href="OptimizationInfo_8h.html" target="_top" xlink:title="pinhao/Optimizer/Optimization\lInfo.h">
<polygon fill="white" stroke="black" points="1068,-190.5 1068,-220.5 1216,-220.5 1216,-190.5 1068,-190.5"/>
<text text-anchor="start" x="1076" y="-208.5" font-family="Helvetica,sans-Serif" font-size="10.00">pinhao/Optimizer/Optimization</text>
<text text-anchor="middle" x="1142" y="-197.5" font-family="Helvetica,sans-Serif" font-size="10.00">Info.h</text>
</a>
</g>
</g>
<!-- Node30&#45;&gt;Node31 -->
<g id="edge61" class="edge"><title>Node30&#45;&gt;Node31</title>
<path fill="none" stroke="midnightblue" d="M1216.74,-335.266C1202.38,-310.532 1172.71,-259.415 1155.39,-229.562"/>
<polygon fill="midnightblue" stroke="midnightblue" points="1158.28,-227.568 1150.23,-220.677 1152.22,-231.082 1158.28,-227.568"/>
</g>
<!-- Node32 -->
<g id="node33" class="node"><title>Node32</title>
<g id="a_node33"><a xlink:href="OptimizationSequence_8h.html" target="_top" xlink:title="pinhao/Optimizer/Optimization\lSequence.h">
<polygon fill="white" stroke="black" points="1272,-263 1272,-293 1420,-293 1420,-263 1272,-263"/>
<text text-anchor="start" x="1280" y="-281" font-family="Helvetica,sans-Serif" font-size="10.00">pinhao/Optimizer/Optimization</text>
<text text-anchor="middle" x="1346" y="-270" font-family="Helvetica,sans-Serif" font-size="10.00">Sequence.h</text>
</a>
</g>
</g>
<!-- Node30&#45;&gt;Node32 -->
<g id="edge64" class="edge"><title>Node30&#45;&gt;Node32</title>
<path fill="none" stroke="midnightblue" d="M1249.2,-335.403C1267.5,-324.74 1292.83,-309.979 1312.99,-298.232"/>
<polygon fill="midnightblue" stroke="midnightblue" points="1314.97,-301.131 1321.85,-293.073 1311.44,-295.083 1314.97,-301.131"/>
</g>
<!-- Node31&#45;&gt;Node7 -->
<g id="edge62" class="edge"><title>Node31&#45;&gt;Node7</title>
<path fill="none" stroke="midnightblue" d="M1188.39,-190.476C1227.43,-178.673 1282.57,-162.001 1319.03,-150.979"/>
<polygon fill="midnightblue" stroke="midnightblue" points="1320.23,-154.273 1328.79,-148.029 1318.2,-147.572 1320.23,-154.273"/>
</g>
<!-- Node31&#45;&gt;Node19 -->
<g id="edge63" class="edge"><title>Node31&#45;&gt;Node19</title>
<path fill="none" stroke="midnightblue" d="M1067.67,-200.391C884.137,-190.113 423.304,-163.438 410,-154 389.527,-139.476 380.936,-110.404 377.395,-91.1999"/>
<polygon fill="midnightblue" stroke="midnightblue" points="380.838,-90.5609 375.843,-81.2175 373.921,-91.6366 380.838,-90.5609"/>
</g>
<!-- Node32&#45;&gt;Node4 -->
<g id="edge68" class="edge"><title>Node32&#45;&gt;Node4</title>
<path fill="none" stroke="midnightblue" d="M1420.4,-264.689C1450.54,-256.537 1483.84,-243.091 1508,-221 1543.23,-188.778 1529.09,-164.89 1552,-123 1558.32,-111.44 1566.4,-99.0472 1572.98,-89.4311"/>
<polygon fill="midnightblue" stroke="midnightblue" points="1575.88,-91.3868 1578.72,-81.1802 1570.14,-87.3867 1575.88,-91.3868"/>
</g>
<!-- Node32&#45;&gt;Node7 -->
<g id="edge65" class="edge"><title>Node32&#45;&gt;Node7</title>
<path fill="none" stroke="midnightblue" d="M1331.81,-262.972C1316.33,-245.89 1295.12,-216.083 1306,-190 1312.04,-175.521 1324.47,-163.068 1335.55,-154.152"/>
<polygon fill="midnightblue" stroke="midnightblue" points="1337.76,-156.868 1343.63,-148.047 1333.54,-151.283 1337.76,-156.868"/>
</g>
<!-- Node32&#45;&gt;Node14 -->
<g id="edge69" class="edge"><title>Node32&#45;&gt;Node14</title>
<path fill="none" stroke="midnightblue" d="M1339.69,-262.85C1332.48,-244.282 1323.52,-211.534 1339,-190 1368.28,-149.255 1413.96,-192.614 1446,-154 1475.53,-118.405 1472.88,-59.8365 1469.1,-29.9003"/>
<polygon fill="midnightblue" stroke="midnightblue" points="1472.51,-29.0063 1467.61,-19.6131 1465.58,-30.0123 1472.51,-29.0063"/>
</g>
<!-- Node32&#45;&gt;Node31 -->
<g id="edge66" class="edge"><title>Node32&#45;&gt;Node31</title>
<path fill="none" stroke="midnightblue" d="M1305.21,-262.903C1272.69,-251.663 1226.99,-235.871 1192.22,-223.855"/>
<polygon fill="midnightblue" stroke="midnightblue" points="1193.32,-220.531 1182.72,-220.573 1191.03,-227.147 1193.32,-220.531"/>
</g>
<!-- Node33 -->
<g id="node34" class="node"><title>Node33</title>
<polygon fill="white" stroke="#bfbfbf" points="1348.5,-196 1348.5,-215 1499.5,-215 1499.5,-196 1348.5,-196"/>
<text text-anchor="middle" x="1424" y="-203" font-family="Helvetica,sans-Serif" font-size="10.00">llvm/IR/LegacyPassManager.h</text>
</g>
<!-- Node32&#45;&gt;Node33 -->
<g id="edge67" class="edge"><title>Node32&#45;&gt;Node33</title>
<path fill="none" stroke="midnightblue" d="M1361.78,-262.733C1374.76,-251.005 1393.13,-234.404 1406.54,-222.28"/>
<polygon fill="midnightblue" stroke="midnightblue" points="1409.09,-224.695 1414.16,-215.393 1404.4,-219.502 1409.09,-224.695"/>
</g>
<!-- Node34&#45;&gt;Node4 -->
<g id="edge80" class="edge"><title>Node34&#45;&gt;Node4</title>
<path fill="none" stroke="midnightblue" d="M2118.99,-262.764C2113.8,-228.159 2098.81,-141.135 2077,-123 2012.12,-69.0469 1782.86,-96.3246 1699,-87 1671.44,-83.9357 1640.2,-79.9246 1617.4,-76.8981"/>
<polygon fill="midnightblue" stroke="midnightblue" points="1617.63,-73.3974 1607.26,-75.5419 1616.7,-80.3358 1617.63,-73.3974"/>
</g>
<!-- Node35 -->
<g id="node36" class="node"><title>Node35</title>
<g id="a_node36"><a xlink:href="JITExecutor_8h.html" target="_top" xlink:title="This file defines a class that executes a module. ">
<polygon fill="white" stroke="black" points="2186,-196 2186,-215 2332,-215 2332,-196 2186,-196"/>
<text text-anchor="middle" x="2259" y="-203" font-family="Helvetica,sans-Serif" font-size="10.00">pinhao/Support/JITExecutor.h</text>
</a>
</g>
</g>
<!-- Node34&#45;&gt;Node35 -->
<g id="edge75" class="edge"><title>Node34&#45;&gt;Node35</title>
<path fill="none" stroke="midnightblue" d="M2148.59,-262.903C2173.31,-250.274 2209.29,-231.897 2233.38,-219.587"/>
<polygon fill="midnightblue" stroke="midnightblue" points="2234.98,-222.7 2242.3,-215.034 2231.8,-216.466 2234.98,-222.7"/>
</g>
<!-- Node38 -->
<g id="node39" class="node"><title>Node38</title>
<polygon fill="white" stroke="#bfbfbf" points="2124.5,-196 2124.5,-215 2167.5,-215 2167.5,-196 2124.5,-196"/>
<text text-anchor="middle" x="2146" y="-203" font-family="Helvetica,sans-Serif" font-size="10.00">papi.h</text>
</g>
<!-- Node34&#45;&gt;Node38 -->
<g id="edge81" class="edge"><title>Node34&#45;&gt;Node38</title>
<path fill="none" stroke="midnightblue" d="M2126.06,-262.733C2129.9,-251.89 2135.23,-236.882 2139.41,-225.097"/>
<polygon fill="midnightblue" stroke="midnightblue" points="2142.8,-225.988 2142.85,-215.393 2136.21,-223.648 2142.8,-225.988"/>
</g>
<!-- Node35&#45;&gt;Node4 -->
<g id="edge79" class="edge"><title>Node35&#45;&gt;Node4</title>
<path fill="none" stroke="midnightblue" d="M2238.75,-195.959C2217.22,-186.605 2182.43,-170.698 2154,-154 2133.37,-141.885 2132.47,-131.215 2110,-123 1937.79,-60.0262 1881.32,-106.572 1699,-87 1671.43,-84.0402 1640.19,-80.0202 1617.4,-76.9636"/>
<polygon fill="midnightblue" stroke="midnightblue" points="1617.63,-73.4633 1607.25,-75.592 1616.69,-80.4002 1617.63,-73.4633"/>
</g>
<!-- Node36 -->
<g id="node37" class="node"><title>Node36</title>
<g id="a_node37"><a xlink:href="InitializationRoutines_8h.html" target="_top" xlink:title="pinhao/InitializationRoutines.h">
<polygon fill="white" stroke="black" points="1920.5,-129 1920.5,-148 2067.5,-148 2067.5,-129 1920.5,-129"/>
<text text-anchor="middle" x="1994" y="-136" font-family="Helvetica,sans-Serif" font-size="10.00">pinhao/InitializationRoutines.h</text>
</a>
</g>
</g>
<!-- Node35&#45;&gt;Node36 -->
<g id="edge76" class="edge"><title>Node35&#45;&gt;Node36</title>
<path fill="none" stroke="midnightblue" d="M2224.08,-195.936C2176.52,-184.268 2091.3,-163.367 2039,-150.537"/>
<polygon fill="midnightblue" stroke="midnightblue" points="2039.54,-147.066 2028.99,-148.083 2037.87,-153.865 2039.54,-147.066"/>
</g>
<!-- Node37 -->
<g id="node38" class="node"><title>Node37</title>
<polygon fill="white" stroke="#bfbfbf" points="2313.5,-123.5 2313.5,-153.5 2424.5,-153.5 2424.5,-123.5 2313.5,-123.5"/>
<text text-anchor="start" x="2321.5" y="-141.5" font-family="Helvetica,sans-Serif" font-size="10.00">llvm/ExecutionEngine</text>
<text text-anchor="middle" x="2369" y="-130.5" font-family="Helvetica,sans-Serif" font-size="10.00">/MCJIT.h</text>
</g>
<!-- Node35&#45;&gt;Node37 -->
<g id="edge78" class="edge"><title>Node35&#45;&gt;Node37</title>
<path fill="none" stroke="midnightblue" d="M2273.84,-195.734C2289.77,-186.316 2315.61,-171.051 2336.34,-158.801"/>
<polygon fill="midnightblue" stroke="midnightblue" points="2338.33,-161.69 2345.16,-153.589 2334.77,-155.663 2338.33,-161.69"/>
</g>
<!-- Node36&#45;&gt;Node8 -->
<g id="edge77" class="edge"><title>Node36&#45;&gt;Node8</title>
<path fill="none" stroke="midnightblue" d="M1928.45,-128.976C1910.49,-126.823 1891.01,-124.656 1873,-123 1624.2,-100.128 1558.53,-127.596 1312,-87 1306.55,-86.1029 1300.86,-84.8888 1295.3,-83.5427"/>
<polygon fill="midnightblue" stroke="midnightblue" points="1296.08,-80.1282 1285.52,-81.0173 1294.33,-86.9059 1296.08,-80.1282"/>
</g>
</g>
</svg>
