<?xml version="1.0" encoding="UTF-8" standalone="no"?>
<!DOCTYPE svg PUBLIC "-//W3C//DTD SVG 1.1//EN"
 "http://www.w3.org/Graphics/SVG/1.1/DTD/svg11.dtd">
<!-- Generated by graphviz version 2.38.0 (20140413.2041)
 -->
<!-- Title: /home/yukiosir/workspace/CompilerProject/Software/pinhao/include/pinhao/MachineLearning/GrammarEvolution/SimpleGrammarEvolution.h Pages: 1 -->
<!--zoomable 318 -->
<svg id="main" version="1.1" xmlns="http://www.w3.org/2000/svg" xmlns:xlink="http://www.w3.org/1999/xlink" xml:space="preserve" onload="init(evt)">
<style type="text/css"><![CDATA[
.edge:hover path { stroke: red; }
.edge:hover polygon { stroke: red; fill: red; }
]]></style>
<script type="text/javascript"><![CDATA[
var edges = document.getElementsByTagName('g');
if (edges && edges.length) {
  for (var i=0;i<edges.length;i++) {
    if (edges[i].id.substr(0,4)=='edge') {
      edges[i].setAttribute('class','edge');
    }
  }
}
]]></script>
        <defs>
                <circle id="rim" cx="0" cy="0" r="7"/>
                <circle id="rim2" cx="0" cy="0" r="3.5"/>
                <g id="zoomPlus">
                        <use xlink:href="#rim" fill="#404040">
                                <set attributeName="fill" to="#808080" begin="zoomplus.mouseover" end="zoomplus.mouseout"/>
                        </use>
                        <path d="M-4,0h8M0,-4v8" fill="none" stroke="white" stroke-width="1.5" pointer-events="none"/>
                </g>
                <g id="zoomMin">
                        <use xlink:href="#rim" fill="#404040">
                                <set attributeName="fill" to="#808080" begin="zoomminus.mouseover" end="zoomminus.mouseout"/>
                        </use>
                        <path d="M-4,0h8" fill="none" stroke="white" stroke-width="1.5" pointer-events="none"/>
                </g>
                <g id="dirArrow">
                        <path fill="none" stroke="white" stroke-width="1.5" d="M0,-3.0v7 M-2.5,-0.5L0,-3.0L2.5,-0.5"/>
                </g>
               <g id="resetDef">
                       <use xlink:href="#rim2" fill="#404040">
                               <set attributeName="fill" to="#808080" begin="reset.mouseover" end="reset.mouseout"/>
                       </use>
               </g>
        </defs>

<script type="text/javascript">
var viewWidth = 937;
var viewHeight = 318;
var sectionId = 'dynsection-0';
</script>
<script xlink:href="svgpan.js"/>
<svg id="graph" class="graph">
<g id="viewport">
<title>/home/yukiosir/workspace/CompilerProject/Software/pinhao/include/pinhao/MachineLearning/GrammarEvolution/SimpleGrammarEvolution.h</title>
<polygon fill="white" stroke="none" points="-4,4 -4,-314 933,-314 933,4 -4,4"/>
<!-- Node0 -->
<g id="node1" class="node"><title>Node0</title>
<polygon fill="#bfbfbf" stroke="black" points="1.5,-257.5 1.5,-309.5 224.5,-309.5 224.5,-257.5 1.5,-257.5"/>
<text text-anchor="start" x="9.5" y="-297.5" font-family="Helvetica,sans-Serif" font-size="10.00">/home/yukiosir/workspace</text>
<text text-anchor="start" x="9.5" y="-286.5" font-family="Helvetica,sans-Serif" font-size="10.00">/CompilerProject/Software</text>
<text text-anchor="start" x="9.5" y="-275.5" font-family="Helvetica,sans-Serif" font-size="10.00">/pinhao/include/pinhao/MachineLearning</text>
<text text-anchor="middle" x="113" y="-264.5" font-family="Helvetica,sans-Serif" font-size="10.00">/GrammarEvolution/SimpleGrammarEvolution.h</text>
</g>
<!-- Node1 -->
<g id="node2" class="node"><title>Node1</title>
<g id="a_node2"><a xlink:href="GrammarEvolution_8h.html" target="_top" xlink:title="pinhao/MachineLearning\l/GrammarEvolution/GrammarEvolution.h">
<polygon fill="white" stroke="black" points="164.5,-190.5 164.5,-220.5 357.5,-220.5 357.5,-190.5 164.5,-190.5"/>
<text text-anchor="start" x="172.5" y="-208.5" font-family="Helvetica,sans-Serif" font-size="10.00">pinhao/MachineLearning</text>
<text text-anchor="middle" x="261" y="-197.5" font-family="Helvetica,sans-Serif" font-size="10.00">/GrammarEvolution/GrammarEvolution.h</text>
</a>
</g>
</g>
<!-- Node0&#45;&gt;Node1 -->
<g id="edge1" class="edge"><title>Node0&#45;&gt;Node1</title>
<path fill="none" stroke="midnightblue" d="M161.871,-257.404C182.183,-246.974 205.361,-235.071 224.195,-225.4"/>
<polygon fill="midnightblue" stroke="midnightblue" points="226.038,-228.388 233.335,-220.707 222.84,-222.161 226.038,-228.388"/>
</g>
<!-- Node3 -->
<g id="node4" class="node"><title>Node3</title>
<polygon fill="white" stroke="#bfbfbf" points="0,-62 0,-81 44,-81 44,-62 0,-62"/>
<text text-anchor="middle" x="22" y="-69" font-family="Helvetica,sans-Serif" font-size="10.00">vector</text>
</g>
<!-- Node0&#45;&gt;Node3 -->
<g id="edge24" class="edge"><title>Node0&#45;&gt;Node3</title>
<path fill="none" stroke="midnightblue" d="M83.3734,-257.459C57.8724,-233.802 22.9022,-195.789 8,-154 0.563299,-133.146 7.16728,-107.841 13.5941,-91.0152"/>
<polygon fill="midnightblue" stroke="midnightblue" points="17.0208,-91.8917 17.6425,-81.3151 10.5609,-89.1956 17.0208,-91.8917"/>
</g>
<!-- Node2 -->
<g id="node3" class="node"><title>Node2</title>
<g id="a_node3"><a xlink:href="Evolution_8h.html" target="_top" xlink:title="pinhao/MachineLearning\l/GrammarEvolution/Evolution.h">
<polygon fill="white" stroke="black" points="31,-123.5 31,-153.5 183,-153.5 183,-123.5 31,-123.5"/>
<text text-anchor="start" x="39" y="-141.5" font-family="Helvetica,sans-Serif" font-size="10.00">pinhao/MachineLearning</text>
<text text-anchor="middle" x="107" y="-130.5" font-family="Helvetica,sans-Serif" font-size="10.00">/GrammarEvolution/Evolution.h</text>
</a>
</g>
</g>
<!-- Node1&#45;&gt;Node2 -->
<g id="edge2" class="edge"><title>Node1&#45;&gt;Node2</title>
<path fill="none" stroke="midnightblue" d="M227.584,-190.396C204.78,-180.771 174.372,-167.936 149.797,-157.564"/>
<polygon fill="midnightblue" stroke="midnightblue" points="150.925,-154.241 140.35,-153.577 148.202,-160.69 150.925,-154.241"/>
</g>
<!-- Node1&#45;&gt;Node3 -->
<g id="edge23" class="edge"><title>Node1&#45;&gt;Node3</title>
<path fill="none" stroke="midnightblue" d="M164.34,-196.341C106.235,-189.206 40.1286,-176.359 22,-154 7.76456,-136.442 11.2956,-109.061 15.9631,-90.9533"/>
<polygon fill="midnightblue" stroke="midnightblue" points="19.345,-91.8581 18.792,-81.2777 12.6263,-89.8937 19.345,-91.8581"/>
</g>
<!-- Node6 -->
<g id="node7" class="node"><title>Node6</title>
<g id="a_node7"><a xlink:href="Optimizations_8h.html" target="_top" xlink:title="pinhao/Optimizer/Optimizations.h">
<polygon fill="white" stroke="black" points="339.5,-129 339.5,-148 500.5,-148 500.5,-129 339.5,-129"/>
<text text-anchor="middle" x="420" y="-136" font-family="Helvetica,sans-Serif" font-size="10.00">pinhao/Optimizer/Optimizations.h</text>
</a>
</g>
</g>
<!-- Node1&#45;&gt;Node6 -->
<g id="edge6" class="edge"><title>Node1&#45;&gt;Node6</title>
<path fill="none" stroke="midnightblue" d="M295.501,-190.396C323.646,-178.89 363.011,-162.797 389.895,-151.807"/>
<polygon fill="midnightblue" stroke="midnightblue" points="391.259,-155.031 399.191,-148.007 388.61,-148.551 391.259,-155.031"/>
</g>
<!-- Node10 -->
<g id="node11" class="node"><title>Node10</title>
<g id="a_node11"><a xlink:href="SerialSet_8h.html" target="_top" xlink:title="pinhao/Support/SerialSet.h">
<polygon fill="white" stroke="black" points="684.5,-129 684.5,-148 817.5,-148 817.5,-129 684.5,-129"/>
<text text-anchor="middle" x="751" y="-136" font-family="Helvetica,sans-Serif" font-size="10.00">pinhao/Support/SerialSet.h</text>
</a>
</g>
</g>
<!-- Node1&#45;&gt;Node10 -->
<g id="edge12" class="edge"><title>Node1&#45;&gt;Node10</title>
<path fill="none" stroke="midnightblue" d="M357.516,-191.697C451.154,-179.276 591.254,-160.691 676.572,-149.373"/>
<polygon fill="midnightblue" stroke="midnightblue" points="677.245,-152.815 686.698,-148.03 676.324,-145.875 677.245,-152.815"/>
</g>
<!-- Node11 -->
<g id="node12" class="node"><title>Node11</title>
<g id="a_node12"><a xlink:href="YAMLWrapper_8h.html" target="_top" xlink:title="pinhao/Support/YAMLWrapper.h">
<polygon fill="white" stroke="black" points="513.5,-62 513.5,-81 670.5,-81 670.5,-62 513.5,-62"/>
<text text-anchor="middle" x="592" y="-69" font-family="Helvetica,sans-Serif" font-size="10.00">pinhao/Support/YAMLWrapper.h</text>
</a>
</g>
</g>
<!-- Node1&#45;&gt;Node11 -->
<g id="edge20" class="edge"><title>Node1&#45;&gt;Node11</title>
<path fill="none" stroke="midnightblue" d="M357.789,-197.759C405.518,-191.286 462.636,-178.646 509,-154 538.883,-138.115 565.209,-108.104 579.83,-89.2671"/>
<polygon fill="midnightblue" stroke="midnightblue" points="582.813,-91.1229 586.031,-81.0285 577.221,-86.9131 582.813,-91.1229"/>
</g>
<!-- Node18 -->
<g id="node19" class="node"><title>Node18</title>
<g id="a_node19"><a xlink:href="Types_8h.html" target="_top" xlink:title="pinhao/Support/Types.h">
<polygon fill="white" stroke="black" points="201,-129 201,-148 321,-148 321,-129 201,-129"/>
<text text-anchor="middle" x="261" y="-136" font-family="Helvetica,sans-Serif" font-size="10.00">pinhao/Support/Types.h</text>
</a>
</g>
</g>
<!-- Node1&#45;&gt;Node18 -->
<g id="edge21" class="edge"><title>Node1&#45;&gt;Node18</title>
<path fill="none" stroke="midnightblue" d="M261,-190.396C261,-181.064 261,-168.714 261,-158.517"/>
<polygon fill="midnightblue" stroke="midnightblue" points="264.5,-158.195 261,-148.195 257.5,-158.195 264.5,-158.195"/>
</g>
<!-- Node2&#45;&gt;Node3 -->
<g id="edge3" class="edge"><title>Node2&#45;&gt;Node3</title>
<path fill="none" stroke="midnightblue" d="M88.5563,-123.396C74.6468,-112.759 55.6114,-98.2028 41.4602,-87.3813"/>
<polygon fill="midnightblue" stroke="midnightblue" points="43.4395,-84.4888 33.3698,-81.1945 39.1873,-90.0493 43.4395,-84.4888"/>
</g>
<!-- Node4 -->
<g id="node5" class="node"><title>Node4</title>
<polygon fill="white" stroke="#bfbfbf" points="177.5,-62 177.5,-81 218.5,-81 218.5,-62 177.5,-62"/>
<text text-anchor="middle" x="198" y="-69" font-family="Helvetica,sans-Serif" font-size="10.00">string</text>
</g>
<!-- Node2&#45;&gt;Node4 -->
<g id="edge4" class="edge"><title>Node2&#45;&gt;Node4</title>
<path fill="none" stroke="midnightblue" d="M126.746,-123.396C141.865,-112.597 162.641,-97.7564 177.858,-86.8872"/>
<polygon fill="midnightblue" stroke="midnightblue" points="179.987,-89.6675 186.09,-81.007 175.918,-83.9714 179.987,-89.6675"/>
</g>
<!-- Node5 -->
<g id="node6" class="node"><title>Node5</title>
<polygon fill="white" stroke="#bfbfbf" points="81,-62 81,-81 133,-81 133,-62 81,-62"/>
<text text-anchor="middle" x="107" y="-69" font-family="Helvetica,sans-Serif" font-size="10.00">memory</text>
</g>
<!-- Node2&#45;&gt;Node5 -->
<g id="edge5" class="edge"><title>Node2&#45;&gt;Node5</title>
<path fill="none" stroke="midnightblue" d="M107,-123.396C107,-114.064 107,-101.714 107,-91.5173"/>
<polygon fill="midnightblue" stroke="midnightblue" points="110.5,-91.1945 107,-81.1945 103.5,-91.1946 110.5,-91.1945"/>
</g>
<!-- Node6&#45;&gt;Node3 -->
<g id="edge10" class="edge"><title>Node6&#45;&gt;Node3</title>
<path fill="none" stroke="midnightblue" d="M368.154,-128.955C355.668,-126.951 342.364,-124.858 330,-123 215.509,-105.791 185.223,-111.186 72,-87 66.1112,-85.7421 59.9009,-84.1568 53.9354,-82.4998"/>
<polygon fill="midnightblue" stroke="midnightblue" points="54.8058,-79.1081 44.2269,-79.6884 52.8587,-85.8318 54.8058,-79.1081"/>
</g>
<!-- Node6&#45;&gt;Node4 -->
<g id="edge9" class="edge"><title>Node6&#45;&gt;Node4</title>
<path fill="none" stroke="midnightblue" d="M377.044,-128.947C337.4,-120.427 277.247,-105.901 227,-87 225.617,-86.4798 224.213,-85.9138 222.806,-85.3169"/>
<polygon fill="midnightblue" stroke="midnightblue" points="224.233,-82.1206 213.689,-81.0866 221.287,-88.4704 224.233,-82.1206"/>
</g>
<!-- Node7 -->
<g id="node8" class="node"><title>Node7</title>
<polygon fill="white" stroke="#bfbfbf" points="236.5,-62 236.5,-81 327.5,-81 327.5,-62 236.5,-62"/>
<text text-anchor="middle" x="282" y="-69" font-family="Helvetica,sans-Serif" font-size="10.00">llvm/IR/Module.h</text>
</g>
<!-- Node6&#45;&gt;Node7 -->
<g id="edge7" class="edge"><title>Node6&#45;&gt;Node7</title>
<path fill="none" stroke="midnightblue" d="M401.675,-128.869C378.064,-117.748 336.811,-98.3167 309.448,-85.4286"/>
<polygon fill="midnightblue" stroke="midnightblue" points="310.939,-82.262 300.401,-81.1672 307.956,-88.5947 310.939,-82.262"/>
</g>
<!-- Node8 -->
<g id="node9" class="node"><title>Node8</title>
<polygon fill="white" stroke="#bfbfbf" points="345.5,-62 345.5,-81 442.5,-81 442.5,-62 345.5,-62"/>
<text text-anchor="middle" x="394" y="-69" font-family="Helvetica,sans-Serif" font-size="10.00">llvm/IR/Function.h</text>
</g>
<!-- Node6&#45;&gt;Node8 -->
<g id="edge8" class="edge"><title>Node6&#45;&gt;Node8</title>
<path fill="none" stroke="midnightblue" d="M416.494,-128.734C412.595,-118.988 406.192,-102.981 401.213,-90.5318"/>
<polygon fill="midnightblue" stroke="midnightblue" points="404.415,-89.1122 397.451,-81.1273 397.915,-91.712 404.415,-89.1122"/>
</g>
<!-- Node9 -->
<g id="node10" class="node"><title>Node9</title>
<polygon fill="white" stroke="#bfbfbf" points="460.5,-62 460.5,-81 495.5,-81 495.5,-62 460.5,-62"/>
<text text-anchor="middle" x="478" y="-69" font-family="Helvetica,sans-Serif" font-size="10.00">map</text>
</g>
<!-- Node6&#45;&gt;Node9 -->
<g id="edge11" class="edge"><title>Node6&#45;&gt;Node9</title>
<path fill="none" stroke="midnightblue" d="M427.822,-128.734C436.953,-118.5 452.244,-101.364 463.551,-88.6924"/>
<polygon fill="midnightblue" stroke="midnightblue" points="466.255,-90.919 470.302,-81.1273 461.032,-86.2585 466.255,-90.919"/>
</g>
<!-- Node10&#45;&gt;Node11 -->
<g id="edge13" class="edge"><title>Node10&#45;&gt;Node11</title>
<path fill="none" stroke="midnightblue" d="M729.886,-128.869C702.369,-117.619 654.052,-97.8673 622.541,-84.9853"/>
<polygon fill="midnightblue" stroke="midnightblue" points="623.529,-81.6081 612.948,-81.0637 620.88,-88.0875 623.529,-81.6081"/>
</g>
<!-- Node15 -->
<g id="node16" class="node"><title>Node15</title>
<g id="a_node16"><a xlink:href="SerialSetYAMLWrapper_8h.html" target="_top" xlink:title="pinhao/Support/SerialSet\lYAMLWrapper.h">
<polygon fill="white" stroke="black" points="688.5,-56.5 688.5,-86.5 813.5,-86.5 813.5,-56.5 688.5,-56.5"/>
<text text-anchor="start" x="696.5" y="-74.5" font-family="Helvetica,sans-Serif" font-size="10.00">pinhao/Support/SerialSet</text>
<text text-anchor="middle" x="751" y="-63.5" font-family="Helvetica,sans-Serif" font-size="10.00">YAMLWrapper.h</text>
</a>
</g>
</g>
<!-- Node10&#45;&gt;Node15 -->
<g id="edge17" class="edge"><title>Node10&#45;&gt;Node15</title>
<path fill="none" stroke="midnightblue" d="M751,-128.734C751,-120.541 751,-107.923 751,-96.7136"/>
<polygon fill="midnightblue" stroke="midnightblue" points="754.5,-96.589 751,-86.589 747.5,-96.5891 754.5,-96.589"/>
</g>
<!-- Node16 -->
<g id="node17" class="node"><title>Node16</title>
<polygon fill="white" stroke="#bfbfbf" points="831,-62 831,-81 861,-81 861,-62 831,-62"/>
<text text-anchor="middle" x="846" y="-69" font-family="Helvetica,sans-Serif" font-size="10.00">set</text>
</g>
<!-- Node10&#45;&gt;Node16 -->
<g id="edge18" class="edge"><title>Node10&#45;&gt;Node16</title>
<path fill="none" stroke="midnightblue" d="M763.812,-128.734C779.481,-118.013 806.222,-99.7165 824.934,-86.9137"/>
<polygon fill="midnightblue" stroke="midnightblue" points="827.114,-89.6628 833.391,-81.1273 823.161,-83.8856 827.114,-89.6628"/>
</g>
<!-- Node17 -->
<g id="node18" class="node"><title>Node17</title>
<polygon fill="white" stroke="#bfbfbf" points="879,-62 879,-81 929,-81 929,-62 879,-62"/>
<text text-anchor="middle" x="904" y="-69" font-family="Helvetica,sans-Serif" font-size="10.00">fstream</text>
</g>
<!-- Node10&#45;&gt;Node17 -->
<g id="edge19" class="edge"><title>Node10&#45;&gt;Node17</title>
<path fill="none" stroke="midnightblue" d="M771.218,-128.933C794.898,-118.896 835.305,-101.76 870,-87 871.402,-86.4034 872.837,-85.7926 874.286,-85.1756"/>
<polygon fill="midnightblue" stroke="midnightblue" points="876.039,-88.2333 883.867,-81.0933 873.295,-81.7936 876.039,-88.2333"/>
</g>
<!-- Node12 -->
<g id="node13" class="node"><title>Node12</title>
<polygon fill="white" stroke="#bfbfbf" points="457.5,-0.5 457.5,-19.5 546.5,-19.5 546.5,-0.5 457.5,-0.5"/>
<text text-anchor="middle" x="502" y="-7.5" font-family="Helvetica,sans-Serif" font-size="10.00">yaml&#45;cpp/yaml.h</text>
</g>
<!-- Node11&#45;&gt;Node12 -->
<g id="edge14" class="edge"><title>Node11&#45;&gt;Node12</title>
<path fill="none" stroke="midnightblue" d="M579.105,-61.9751C564.536,-52.3431 540.598,-36.5175 523.255,-25.0517"/>
<polygon fill="midnightblue" stroke="midnightblue" points="525.143,-22.1044 514.871,-19.5091 521.283,-27.9437 525.143,-22.1044"/>
</g>
<!-- Node13 -->
<g id="node14" class="node"><title>Node13</title>
<polygon fill="white" stroke="#bfbfbf" points="565,-0.5 565,-19.5 619,-19.5 619,-0.5 565,-0.5"/>
<text text-anchor="middle" x="592" y="-7.5" font-family="Helvetica,sans-Serif" font-size="10.00">iostream</text>
</g>
<!-- Node11&#45;&gt;Node13 -->
<g id="edge15" class="edge"><title>Node11&#45;&gt;Node13</title>
<path fill="none" stroke="midnightblue" d="M592,-61.9751C592,-53.5803 592,-40.4806 592,-29.6631"/>
<polygon fill="midnightblue" stroke="midnightblue" points="595.5,-29.5091 592,-19.5091 588.5,-29.5091 595.5,-29.5091"/>
</g>
<!-- Node14 -->
<g id="node15" class="node"><title>Node14</title>
<polygon fill="white" stroke="#bfbfbf" points="637,-0.5 637,-19.5 689,-19.5 689,-0.5 637,-0.5"/>
<text text-anchor="middle" x="663" y="-7.5" font-family="Helvetica,sans-Serif" font-size="10.00">ostream</text>
</g>
<!-- Node11&#45;&gt;Node14 -->
<g id="edge16" class="edge"><title>Node11&#45;&gt;Node14</title>
<path fill="none" stroke="midnightblue" d="M602.173,-61.9751C613.35,-52.6082 631.517,-37.3839 645.091,-26.0081"/>
<polygon fill="midnightblue" stroke="midnightblue" points="647.43,-28.6148 652.846,-19.5091 642.934,-23.2496 647.43,-28.6148"/>
</g>
<!-- Node18&#45;&gt;Node4 -->
<g id="edge22" class="edge"><title>Node18&#45;&gt;Node4</title>
<path fill="none" stroke="midnightblue" d="M252.504,-128.734C242.491,-118.403 225.659,-101.037 213.344,-88.3315"/>
<polygon fill="midnightblue" stroke="midnightblue" points="215.835,-85.8721 206.362,-81.1273 210.808,-90.7439 215.835,-85.8721"/>
</g>
</g>
</svg>
        <g id="navigator" transform="translate(0 0)" fill="#404254">
                <rect fill="#f2f5e9" fill-opacity="0.5" stroke="#606060" stroke-width=".5" x="0" y="0" width="60" height="60"/>
                <use id="zoomplus" xlink:href="#zoomPlus" x="17" y="9" onmousedown="handleZoom(evt,'in')"/>
                <use id="zoomminus" xlink:href="#zoomMin" x="42" y="9" onmousedown="handleZoom(evt,'out')"/>
                <use id="reset" xlink:href="#resetDef" x="30" y="36" onmousedown="handleReset()"/>
                <g id="arrowUp" xlink:href="#dirArrow" transform="translate(30 24)" onmousedown="handlePan(0,-1)">
                  <use xlink:href="#rim" fill="#404040">
                        <set attributeName="fill" to="#808080" begin="arrowUp.mouseover" end="arrowUp.mouseout"/>
                  </use>
                  <path fill="none" stroke="white" stroke-width="1.5" d="M0,-3.0v7 M-2.5,-0.5L0,-3.0L2.5,-0.5"/>
                </g>
                <g id="arrowRight" xlink:href="#dirArrow" transform="rotate(90) translate(36 -43)" onmousedown="handlePan(1,0)">
                  <use xlink:href="#rim" fill="#404040">
                        <set attributeName="fill" to="#808080" begin="arrowRight.mouseover" end="arrowRight.mouseout"/>
                  </use>
                  <path fill="none" stroke="white" stroke-width="1.5" d="M0,-3.0v7 M-2.5,-0.5L0,-3.0L2.5,-0.5"/>
                </g>
                <g id="arrowDown" xlink:href="#dirArrow" transform="rotate(180) translate(-30 -48)" onmousedown="handlePan(0,1)">
                  <use xlink:href="#rim" fill="#404040">
                        <set attributeName="fill" to="#808080" begin="arrowDown.mouseover" end="arrowDown.mouseout"/>
                  </use>
                  <path fill="none" stroke="white" stroke-width="1.5" d="M0,-3.0v7 M-2.5,-0.5L0,-3.0L2.5,-0.5"/>
                </g>
                <g id="arrowLeft" xlink:href="#dirArrow" transform="rotate(270) translate(-36 17)" onmousedown="handlePan(-1,0)">
                  <use xlink:href="#rim" fill="#404040">
                        <set attributeName="fill" to="#808080" begin="arrowLeft.mouseover" end="arrowLeft.mouseout"/>
                  </use>
                  <path fill="none" stroke="white" stroke-width="1.5" d="M0,-3.0v7 M-2.5,-0.5L0,-3.0L2.5,-0.5"/>
                </g>
        </g>
        <svg viewBox="0 0 15 15" width="100%" height="30px" preserveAspectRatio="xMaxYMin meet">
         <g id="arrow_out" transform="scale(0.3 0.3)">
          <a xlink:href="SimpleGrammarEvolution_8h__incl_org.svg" target="_base">
           <rect id="button" ry="5" rx="5" y="6" x="6" height="38" width="38"
                fill="#f2f5e9" fill-opacity="0.5" stroke="#606060" stroke-width="1.0"/>
           <path id="arrow"
             d="M 11.500037,31.436501 C 11.940474,20.09759 22.043105,11.32322 32.158766,21.979434 L 37.068811,17.246167 C 37.068811,17.246167 37.088388,32 37.088388,32 L 22.160133,31.978069 C 22.160133,31.978069 26.997745,27.140456 26.997745,27.140456 C 18.528582,18.264221 13.291696,25.230495 11.500037,31.436501 z"
             style="fill:#404040;"/>
          </a>
         </g>
        </svg>
</svg>
