<?xml version="1.0" encoding="UTF-8" standalone="no"?>
<!DOCTYPE svg PUBLIC "-//W3C//DTD SVG 1.1//EN"
 "http://www.w3.org/Graphics/SVG/1.1/DTD/svg11.dtd">
<!-- Generated by graphviz version 2.38.0 (20140413.2041)
 -->
<!-- Title: /home/yukiosir/workspace/CompilerProject/Software/pinhao/include/pinhao/PerformanceAnalyser/SProfWrapper.h Pages: 1 -->
<svg width="340pt" height="150pt"
 viewBox="0.00 0.00 339.50 150.00" xmlns="http://www.w3.org/2000/svg" xmlns:xlink="http://www.w3.org/1999/xlink">
<g id="graph0" class="graph" transform="scale(1 1) rotate(0) translate(4 146)">
<title>/home/yukiosir/workspace/CompilerProject/Software/pinhao/include/pinhao/PerformanceAnalyser/SProfWrapper.h</title>
<polygon fill="white" stroke="none" points="-4,4 -4,-146 335.5,-146 335.5,4 -4,4"/>
<!-- Node4 -->
<g id="node1" class="node"><title>Node4</title>
<polygon fill="#bfbfbf" stroke="black" points="78.5,-89.5 78.5,-141.5 250.5,-141.5 250.5,-89.5 78.5,-89.5"/>
<text text-anchor="start" x="86.5" y="-129.5" font-family="Helvetica,sans-Serif" font-size="10.00">/home/yukiosir/workspace</text>
<text text-anchor="start" x="86.5" y="-118.5" font-family="Helvetica,sans-Serif" font-size="10.00">/CompilerProject/Software</text>
<text text-anchor="start" x="86.5" y="-107.5" font-family="Helvetica,sans-Serif" font-size="10.00">/pinhao/include/pinhao/Performance</text>
<text text-anchor="middle" x="164.5" y="-96.5" font-family="Helvetica,sans-Serif" font-size="10.00">Analyser/SProfWrapper.h</text>
</g>
<!-- Node5 -->
<g id="node2" class="node"><title>Node5</title>
<g id="a_node2"><a xlink:href="FunctionStaticCostFeature_8cpp.html" target="_top" xlink:title="/home/yukiosir/workspace\l/CompilerProject/Software\l/pinhao/lib/FeaturesImpl\l/FunctionStaticCostFeature.cpp">
<polygon fill="white" stroke="black" points="0,-0.5 0,-52.5 155,-52.5 155,-0.5 0,-0.5"/>
<text text-anchor="start" x="8" y="-40.5" font-family="Helvetica,sans-Serif" font-size="10.00">/home/yukiosir/workspace</text>
<text text-anchor="start" x="8" y="-29.5" font-family="Helvetica,sans-Serif" font-size="10.00">/CompilerProject/Software</text>
<text text-anchor="start" x="8" y="-18.5" font-family="Helvetica,sans-Serif" font-size="10.00">/pinhao/lib/FeaturesImpl</text>
<text text-anchor="middle" x="77.5" y="-7.5" font-family="Helvetica,sans-Serif" font-size="10.00">/FunctionStaticCostFeature.cpp</text>
</a>
</g>
</g>
<!-- Node4&#45;&gt;Node5 -->
<g id="edge1" class="edge"><title>Node4&#45;&gt;Node5</title>
<path fill="none" stroke="midnightblue" d="M132.077,-82.0768C122.335,-72.3353 111.8,-61.7998 102.607,-52.6075"/>
<polygon fill="midnightblue" stroke="midnightblue" points="129.79,-84.7398 139.336,-89.336 134.74,-79.79 129.79,-84.7398"/>
</g>
<!-- Node6 -->
<g id="node3" class="node"><title>Node6</title>
<g id="a_node3"><a xlink:href="SProfWrapper_8cpp.html" target="_top" xlink:title="/home/yukiosir/workspace\l/CompilerProject/Software\l/pinhao/lib/PerformanceAnalyser\l/SProfWrapper.cpp">
<polygon fill="white" stroke="black" points="173.5,-0.5 173.5,-52.5 331.5,-52.5 331.5,-0.5 173.5,-0.5"/>
<text text-anchor="start" x="181.5" y="-40.5" font-family="Helvetica,sans-Serif" font-size="10.00">/home/yukiosir/workspace</text>
<text text-anchor="start" x="181.5" y="-29.5" font-family="Helvetica,sans-Serif" font-size="10.00">/CompilerProject/Software</text>
<text text-anchor="start" x="181.5" y="-18.5" font-family="Helvetica,sans-Serif" font-size="10.00">/pinhao/lib/PerformanceAnalyser</text>
<text text-anchor="middle" x="252.5" y="-7.5" font-family="Helvetica,sans-Serif" font-size="10.00">/SProfWrapper.cpp</text>
</a>
</g>
</g>
<!-- Node4&#45;&gt;Node6 -->
<g id="edge2" class="edge"><title>Node4&#45;&gt;Node6</title>
<path fill="none" stroke="midnightblue" d="M197.296,-82.0768C207.149,-72.3353 217.806,-61.7998 227.104,-52.6075"/>
<polygon fill="midnightblue" stroke="midnightblue" points="194.604,-79.8164 189.953,-89.336 199.525,-84.7944 194.604,-79.8164"/>
</g>
</g>
</svg>
