<?xml version="1.0" encoding="UTF-8" standalone="no"?>
<!DOCTYPE svg PUBLIC "-//W3C//DTD SVG 1.1//EN"
 "http://www.w3.org/Graphics/SVG/1.1/DTD/svg11.dtd">
<!-- Generated by graphviz version 2.38.0 (20140413.2041)
 -->
<!-- Title: /home/yukiosir/workspace/CompilerProject/Software/pinhao/lib/PerformanceAnalyser/SProfWrapper.cpp Pages: 1 -->
<svg width="497pt" height="184pt"
 viewBox="0.00 0.00 497.00 184.00" xmlns="http://www.w3.org/2000/svg" xmlns:xlink="http://www.w3.org/1999/xlink">
<g id="graph0" class="graph" transform="scale(1 1) rotate(0) translate(4 180)">
<title>/home/yukiosir/workspace/CompilerProject/Software/pinhao/lib/PerformanceAnalyser/SProfWrapper.cpp</title>
<polygon fill="white" stroke="none" points="-4,4 -4,-180 493,-180 493,4 -4,4"/>
<!-- Node0 -->
<g id="node1" class="node"><title>Node0</title>
<polygon fill="#bfbfbf" stroke="black" points="248.5,-123.5 248.5,-175.5 406.5,-175.5 406.5,-123.5 248.5,-123.5"/>
<text text-anchor="start" x="256.5" y="-163.5" font-family="Helvetica,sans-Serif" font-size="10.00">/home/yukiosir/workspace</text>
<text text-anchor="start" x="256.5" y="-152.5" font-family="Helvetica,sans-Serif" font-size="10.00">/CompilerProject/Software</text>
<text text-anchor="start" x="256.5" y="-141.5" font-family="Helvetica,sans-Serif" font-size="10.00">/pinhao/lib/PerformanceAnalyser</text>
<text text-anchor="middle" x="327.5" y="-130.5" font-family="Helvetica,sans-Serif" font-size="10.00">/SProfWrapper.cpp</text>
</g>
<!-- Node1 -->
<g id="node2" class="node"><title>Node1</title>
<g id="a_node2"><a xlink:href="SProfWrapper_8h.html" target="_top" xlink:title="pinhao/PerformanceAnalyser\l/SProfWrapper.h">
<polygon fill="white" stroke="black" points="170.5,-56.5 170.5,-86.5 312.5,-86.5 312.5,-56.5 170.5,-56.5"/>
<text text-anchor="start" x="178.5" y="-74.5" font-family="Helvetica,sans-Serif" font-size="10.00">pinhao/PerformanceAnalyser</text>
<text text-anchor="middle" x="241.5" y="-63.5" font-family="Helvetica,sans-Serif" font-size="10.00">/SProfWrapper.h</text>
</a>
</g>
</g>
<!-- Node0&#45;&gt;Node1 -->
<g id="edge1" class="edge"><title>Node0&#45;&gt;Node1</title>
<path fill="none" stroke="midnightblue" d="M298.863,-123.193C287.961,-113.558 275.667,-102.694 265.264,-93.5011"/>
<polygon fill="midnightblue" stroke="midnightblue" points="267.544,-90.8446 257.733,-86.8453 262.908,-96.0899 267.544,-90.8446"/>
</g>
<!-- Node5 -->
<g id="node6" class="node"><title>Node5</title>
<g id="a_node6"><a xlink:href="YamlOptions_8h.html" target="_top" xlink:title="pinhao/Support/YamlOptions.h">
<polygon fill="white" stroke="black" points="340,-62 340,-81 489,-81 489,-62 340,-62"/>
<text text-anchor="middle" x="414.5" y="-69" font-family="Helvetica,sans-Serif" font-size="10.00">pinhao/Support/YamlOptions.h</text>
</a>
</g>
</g>
<!-- Node0&#45;&gt;Node5 -->
<g id="edge5" class="edge"><title>Node0&#45;&gt;Node5</title>
<path fill="none" stroke="midnightblue" d="M356.47,-123.193C369.834,-111.518 385.267,-98.0372 396.856,-87.9134"/>
<polygon fill="midnightblue" stroke="midnightblue" points="399.302,-90.4238 404.531,-81.2089 394.697,-85.1519 399.302,-90.4238"/>
</g>
<!-- Node2 -->
<g id="node3" class="node"><title>Node2</title>
<polygon fill="white" stroke="#bfbfbf" points="0,-0.5 0,-19.5 151,-19.5 151,-0.5 0,-0.5"/>
<text text-anchor="middle" x="75.5" y="-7.5" font-family="Helvetica,sans-Serif" font-size="10.00">llvm/IR/LegacyPassManager.h</text>
</g>
<!-- Node1&#45;&gt;Node2 -->
<g id="edge2" class="edge"><title>Node1&#45;&gt;Node2</title>
<path fill="none" stroke="midnightblue" d="M202.16,-56.3993C173.935,-46.2826 136.294,-32.7905 109.395,-23.1493"/>
<polygon fill="midnightblue" stroke="midnightblue" points="110.249,-19.7372 99.6545,-19.6578 107.887,-26.3267 110.249,-19.7372"/>
</g>
<!-- Node3 -->
<g id="node4" class="node"><title>Node3</title>
<polygon fill="white" stroke="#bfbfbf" points="169.5,-0.5 169.5,-19.5 303.5,-19.5 303.5,-0.5 169.5,-0.5"/>
<text text-anchor="middle" x="236.5" y="-7.5" font-family="Helvetica,sans-Serif" font-size="10.00">sprof/StaticFunctionCost.h</text>
</g>
<!-- Node1&#45;&gt;Node3 -->
<g id="edge3" class="edge"><title>Node1&#45;&gt;Node3</title>
<path fill="none" stroke="midnightblue" d="M240.315,-56.3993C239.648,-48.4664 238.807,-38.458 238.085,-29.8583"/>
<polygon fill="midnightblue" stroke="midnightblue" points="241.553,-29.3295 237.228,-19.6578 234.577,-29.9158 241.553,-29.3295"/>
</g>
<!-- Node4 -->
<g id="node5" class="node"><title>Node4</title>
<polygon fill="white" stroke="#bfbfbf" points="322,-0.5 322,-19.5 357,-19.5 357,-0.5 322,-0.5"/>
<text text-anchor="middle" x="339.5" y="-7.5" font-family="Helvetica,sans-Serif" font-size="10.00">map</text>
</g>
<!-- Node1&#45;&gt;Node4 -->
<g id="edge4" class="edge"><title>Node1&#45;&gt;Node4</title>
<path fill="none" stroke="midnightblue" d="M264.725,-56.3993C280.286,-46.9511 300.697,-34.5589 316.262,-25.1089"/>
<polygon fill="midnightblue" stroke="midnightblue" points="318.509,-27.8394 325.24,-19.6578 314.876,-21.8558 318.509,-27.8394"/>
</g>
<!-- Node6 -->
<g id="node7" class="node"><title>Node6</title>
<polygon fill="white" stroke="#bfbfbf" points="375,-0.5 375,-19.5 464,-19.5 464,-0.5 375,-0.5"/>
<text text-anchor="middle" x="419.5" y="-7.5" font-family="Helvetica,sans-Serif" font-size="10.00">yaml&#45;cpp/yaml.h</text>
</g>
<!-- Node5&#45;&gt;Node6 -->
<g id="edge6" class="edge"><title>Node5&#45;&gt;Node6</title>
<path fill="none" stroke="midnightblue" d="M415.216,-61.9751C415.922,-53.5803 417.023,-40.4806 417.932,-29.6631"/>
<polygon fill="midnightblue" stroke="midnightblue" points="421.435,-29.7671 418.785,-19.5091 414.46,-29.1808 421.435,-29.7671"/>
</g>
</g>
</svg>
