<?xml version="1.0" encoding="UTF-8" standalone="no"?>
<!DOCTYPE svg PUBLIC "-//W3C//DTD SVG 1.1//EN"
 "http://www.w3.org/Graphics/SVG/1.1/DTD/svg11.dtd">
<!-- Generated by graphviz version 2.38.0 (20140413.2041)
 -->
<!-- Title: /home/yukiosir/workspace/CompilerProject/Software/pinhao/include/pinhao/Features/VectorFeature.h Pages: 1 -->
<!--zoomable 328 -->
<svg id="main" version="1.1" xmlns="http://www.w3.org/2000/svg" xmlns:xlink="http://www.w3.org/1999/xlink" xml:space="preserve" onload="init(evt)">
<style type="text/css"><![CDATA[
.edge:hover path { stroke: red; }
.edge:hover polygon { stroke: red; fill: red; }
]]></style>
<script type="text/javascript"><![CDATA[
var edges = document.getElementsByTagName('g');
if (edges && edges.length) {
  for (var i=0;i<edges.length;i++) {
    if (edges[i].id.substr(0,4)=='edge') {
      edges[i].setAttribute('class','edge');
    }
  }
}
]]></script>
        <defs>
                <circle id="rim" cx="0" cy="0" r="7"/>
                <circle id="rim2" cx="0" cy="0" r="3.5"/>
                <g id="zoomPlus">
                        <use xlink:href="#rim" fill="#404040">
                                <set attributeName="fill" to="#808080" begin="zoomplus.mouseover" end="zoomplus.mouseout"/>
                        </use>
                        <path d="M-4,0h8M0,-4v8" fill="none" stroke="white" stroke-width="1.5" pointer-events="none"/>
                </g>
                <g id="zoomMin">
                        <use xlink:href="#rim" fill="#404040">
                                <set attributeName="fill" to="#808080" begin="zoomminus.mouseover" end="zoomminus.mouseout"/>
                        </use>
                        <path d="M-4,0h8" fill="none" stroke="white" stroke-width="1.5" pointer-events="none"/>
                </g>
                <g id="dirArrow">
                        <path fill="none" stroke="white" stroke-width="1.5" d="M0,-3.0v7 M-2.5,-0.5L0,-3.0L2.5,-0.5"/>
                </g>
               <g id="resetDef">
                       <use xlink:href="#rim2" fill="#404040">
                               <set attributeName="fill" to="#808080" begin="reset.mouseover" end="reset.mouseout"/>
                       </use>
               </g>
        </defs>

<script type="text/javascript">
var viewWidth = 1356;
var viewHeight = 328;
var sectionId = 'dynsection-1';
</script>
<script xlink:href="svgpan.js"/>
<svg id="graph" class="graph">
<g id="viewport">
<title>/home/yukiosir/workspace/CompilerProject/Software/pinhao/include/pinhao/Features/VectorFeature.h</title>
<polygon fill="white" stroke="none" points="-4,4 -4,-324 1352,-324 1352,4 -4,4"/>
<!-- Node22 -->
<g id="node1" class="node"><title>Node22</title>
<polygon fill="#bfbfbf" stroke="black" points="918,-267.5 918,-319.5 1073,-319.5 1073,-267.5 918,-267.5"/>
<text text-anchor="start" x="926" y="-307.5" font-family="Helvetica,sans-Serif" font-size="10.00">/home/yukiosir/workspace</text>
<text text-anchor="start" x="926" y="-296.5" font-family="Helvetica,sans-Serif" font-size="10.00">/CompilerProject/Software</text>
<text text-anchor="start" x="926" y="-285.5" font-family="Helvetica,sans-Serif" font-size="10.00">/pinhao/include/pinhao/Features</text>
<text text-anchor="middle" x="995.5" y="-274.5" font-family="Helvetica,sans-Serif" font-size="10.00">/VectorFeature.h</text>
</g>
<!-- Node23 -->
<g id="node2" class="node"><title>Node23</title>
<g id="a_node2"><a xlink:href="FeatureYAMLWrapper_8h.html" target="_top" xlink:title="/home/yukiosir/workspace\l/CompilerProject/Software\l/pinhao/include/pinhao/Support\l/FeatureYAMLWrapper.h">
<polygon fill="white" stroke="black" points="632.5,-178.5 632.5,-230.5 782.5,-230.5 782.5,-178.5 632.5,-178.5"/>
<text text-anchor="start" x="640.5" y="-218.5" font-family="Helvetica,sans-Serif" font-size="10.00">/home/yukiosir/workspace</text>
<text text-anchor="start" x="640.5" y="-207.5" font-family="Helvetica,sans-Serif" font-size="10.00">/CompilerProject/Software</text>
<text text-anchor="start" x="640.5" y="-196.5" font-family="Helvetica,sans-Serif" font-size="10.00">/pinhao/include/pinhao/Support</text>
<text text-anchor="middle" x="707.5" y="-185.5" font-family="Helvetica,sans-Serif" font-size="10.00">/FeatureYAMLWrapper.h</text>
</a>
</g>
</g>
<!-- Node22&#45;&gt;Node23 -->
<g id="edge1" class="edge"><title>Node22&#45;&gt;Node23</title>
<path fill="none" stroke="midnightblue" d="M907.879,-267.889C867.84,-256.036 820.92,-241.862 782.53,-230.021"/>
<polygon fill="midnightblue" stroke="midnightblue" points="907.052,-271.294 917.634,-270.771 909.036,-264.581 907.052,-271.294"/>
</g>
<!-- Node31 -->
<g id="node10" class="node"><title>Node31</title>
<g id="a_node10"><a xlink:href="CFGModuleStaticFeatures_8cpp.html" target="_top" xlink:title="/home/yukiosir/workspace\l/CompilerProject/Software\l/pinhao/lib/FeaturesImpl\l/CFGModuleStaticFeatures.cpp">
<polygon fill="white" stroke="black" points="955,-0.5 955,-52.5 1110,-52.5 1110,-0.5 955,-0.5"/>
<text text-anchor="start" x="963" y="-40.5" font-family="Helvetica,sans-Serif" font-size="10.00">/home/yukiosir/workspace</text>
<text text-anchor="start" x="963" y="-29.5" font-family="Helvetica,sans-Serif" font-size="10.00">/CompilerProject/Software</text>
<text text-anchor="start" x="963" y="-18.5" font-family="Helvetica,sans-Serif" font-size="10.00">/pinhao/lib/FeaturesImpl</text>
<text text-anchor="middle" x="1032.5" y="-7.5" font-family="Helvetica,sans-Serif" font-size="10.00">/CFGModuleStaticFeatures.cpp</text>
</a>
</g>
</g>
<!-- Node22&#45;&gt;Node31 -->
<g id="edge14" class="edge"><title>Node22&#45;&gt;Node31</title>
<path fill="none" stroke="midnightblue" d="M1000.47,-256.893C1008.06,-202.555 1022.34,-100.26 1028.96,-52.8324"/>
<polygon fill="midnightblue" stroke="midnightblue" points="996.964,-256.703 999.048,-267.091 1003.9,-257.671 996.964,-256.703"/>
</g>
<!-- Node33 -->
<g id="node12" class="node"><title>Node33</title>
<g id="a_node12"><a xlink:href="GEOSFeatures_8cpp.html" target="_top" xlink:title="/home/yukiosir/workspace\l/CompilerProject/Software\l/pinhao/lib/FeaturesImpl\l/GEOSFeatures/GEOSFeatures.cpp">
<polygon fill="white" stroke="black" points="1024,-178.5 1024,-230.5 1199,-230.5 1199,-178.5 1024,-178.5"/>
<text text-anchor="start" x="1032" y="-218.5" font-family="Helvetica,sans-Serif" font-size="10.00">/home/yukiosir/workspace</text>
<text text-anchor="start" x="1032" y="-207.5" font-family="Helvetica,sans-Serif" font-size="10.00">/CompilerProject/Software</text>
<text text-anchor="start" x="1032" y="-196.5" font-family="Helvetica,sans-Serif" font-size="10.00">/pinhao/lib/FeaturesImpl</text>
<text text-anchor="middle" x="1111.5" y="-185.5" font-family="Helvetica,sans-Serif" font-size="10.00">/GEOSFeatures/GEOSFeatures.cpp</text>
</a>
</g>
</g>
<!-- Node22&#45;&gt;Node33 -->
<g id="edge15" class="edge"><title>Node22&#45;&gt;Node33</title>
<path fill="none" stroke="midnightblue" d="M1037.21,-261.219C1050.62,-251.164 1065.29,-240.16 1078.02,-230.607"/>
<polygon fill="midnightblue" stroke="midnightblue" points="1034.95,-258.536 1029.05,-267.336 1039.15,-264.136 1034.95,-258.536"/>
</g>
<!-- Node34 -->
<g id="node13" class="node"><title>Node34</title>
<g id="a_node13"><a xlink:href="PAPIMultFeatures_8cpp.html" target="_top" xlink:title="This file implements the features extracted by the PAPI tool by multiplexing. ">
<polygon fill="white" stroke="black" points="1217,-178.5 1217,-230.5 1348,-230.5 1348,-178.5 1217,-178.5"/>
<text text-anchor="start" x="1225" y="-218.5" font-family="Helvetica,sans-Serif" font-size="10.00">/home/yukiosir/workspace</text>
<text text-anchor="start" x="1225" y="-207.5" font-family="Helvetica,sans-Serif" font-size="10.00">/CompilerProject/Software</text>
<text text-anchor="start" x="1225" y="-196.5" font-family="Helvetica,sans-Serif" font-size="10.00">/pinhao/lib/FeaturesImpl</text>
<text text-anchor="middle" x="1282.5" y="-185.5" font-family="Helvetica,sans-Serif" font-size="10.00">/PAPIMultFeatures.cpp</text>
</a>
</g>
</g>
<!-- Node22&#45;&gt;Node34 -->
<g id="edge16" class="edge"><title>Node22&#45;&gt;Node34</title>
<path fill="none" stroke="midnightblue" d="M1083.37,-267.978C1121.62,-257.052 1166.9,-243.784 1207.5,-231 1210.52,-230.05 1213.6,-229.065 1216.71,-228.059"/>
<polygon fill="midnightblue" stroke="midnightblue" points="1081.95,-264.743 1073.29,-270.849 1083.86,-271.475 1081.95,-264.743"/>
</g>
<!-- Node23&#45;&gt;Node22 -->
<g id="edge12" class="edge"><title>Node23&#45;&gt;Node22</title>
<path fill="none" stroke="midnightblue" d="M792.326,-229.284C832.376,-241.127 879.793,-255.442 918.763,-267.453"/>
<polygon fill="midnightblue" stroke="midnightblue" points="793.16,-225.881 782.578,-226.408 791.179,-232.595 793.16,-225.881"/>
</g>
<!-- Node24 -->
<g id="node3" class="node"><title>Node24</title>
<g id="a_node3"><a xlink:href="MapFeature_8h.html" target="_top" xlink:title="/home/yukiosir/workspace\l/CompilerProject/Software\l/pinhao/include/pinhao/Features\l/MapFeature.h">
<polygon fill="white" stroke="black" points="370,-89.5 370,-141.5 525,-141.5 525,-89.5 370,-89.5"/>
<text text-anchor="start" x="378" y="-129.5" font-family="Helvetica,sans-Serif" font-size="10.00">/home/yukiosir/workspace</text>
<text text-anchor="start" x="378" y="-118.5" font-family="Helvetica,sans-Serif" font-size="10.00">/CompilerProject/Software</text>
<text text-anchor="start" x="378" y="-107.5" font-family="Helvetica,sans-Serif" font-size="10.00">/pinhao/include/pinhao/Features</text>
<text text-anchor="middle" x="447.5" y="-96.5" font-family="Helvetica,sans-Serif" font-size="10.00">/MapFeature.h</text>
</a>
</g>
</g>
<!-- Node23&#45;&gt;Node24 -->
<g id="edge2" class="edge"><title>Node23&#45;&gt;Node24</title>
<path fill="none" stroke="midnightblue" d="M622.856,-177.269C588.289,-165.932 548.85,-152.727 516.12,-141.528"/>
<polygon fill="midnightblue" stroke="midnightblue" points="621.874,-180.631 632.467,-180.414 624.051,-173.978 621.874,-180.631"/>
</g>
<!-- Node28 -->
<g id="node7" class="node"><title>Node28</title>
<g id="a_node7"><a xlink:href="MapVectorFeature_8h.html" target="_top" xlink:title="/home/yukiosir/workspace\l/CompilerProject/Software\l/pinhao/include/pinhao/Features\l/MapVectorFeature.h">
<polygon fill="white" stroke="black" points="630,-89.5 630,-141.5 785,-141.5 785,-89.5 630,-89.5"/>
<text text-anchor="start" x="638" y="-129.5" font-family="Helvetica,sans-Serif" font-size="10.00">/home/yukiosir/workspace</text>
<text text-anchor="start" x="638" y="-118.5" font-family="Helvetica,sans-Serif" font-size="10.00">/CompilerProject/Software</text>
<text text-anchor="start" x="638" y="-107.5" font-family="Helvetica,sans-Serif" font-size="10.00">/pinhao/include/pinhao/Features</text>
<text text-anchor="middle" x="707.5" y="-96.5" font-family="Helvetica,sans-Serif" font-size="10.00">/MapVectorFeature.h</text>
</a>
</g>
</g>
<!-- Node23&#45;&gt;Node28 -->
<g id="edge7" class="edge"><title>Node23&#45;&gt;Node28</title>
<path fill="none" stroke="midnightblue" d="M700.858,-168.191C700.621,-159.282 700.775,-149.899 701.318,-141.607"/>
<polygon fill="midnightblue" stroke="midnightblue" points="697.368,-168.503 701.314,-178.336 704.361,-168.189 697.368,-168.503"/>
</g>
<!-- Node32 -->
<g id="node11" class="node"><title>Node32</title>
<g id="a_node11"><a xlink:href="FeatureYAMLWrapper_8cpp.html" target="_top" xlink:title="/home/yukiosir/workspace\l/CompilerProject/Software\l/pinhao/lib/Support/YAMLWrapper\l/FeatureYAMLWrapper.cpp">
<polygon fill="white" stroke="black" points="803.5,-89.5 803.5,-141.5 967.5,-141.5 967.5,-89.5 803.5,-89.5"/>
<text text-anchor="start" x="811.5" y="-129.5" font-family="Helvetica,sans-Serif" font-size="10.00">/home/yukiosir/workspace</text>
<text text-anchor="start" x="811.5" y="-118.5" font-family="Helvetica,sans-Serif" font-size="10.00">/CompilerProject/Software</text>
<text text-anchor="start" x="811.5" y="-107.5" font-family="Helvetica,sans-Serif" font-size="10.00">/pinhao/lib/Support/YAMLWrapper</text>
<text text-anchor="middle" x="885.5" y="-96.5" font-family="Helvetica,sans-Serif" font-size="10.00">/FeatureYAMLWrapper.cpp</text>
</a>
</g>
</g>
<!-- Node23&#45;&gt;Node32 -->
<g id="edge13" class="edge"><title>Node23&#45;&gt;Node32</title>
<path fill="none" stroke="midnightblue" d="M768.026,-173.917C789.515,-163.414 813.48,-151.701 834.131,-141.607"/>
<polygon fill="midnightblue" stroke="midnightblue" points="766.432,-170.8 758.985,-178.336 769.506,-177.089 766.432,-170.8"/>
</g>
<!-- Node24&#45;&gt;Node23 -->
<g id="edge3" class="edge"><title>Node24&#45;&gt;Node23</title>
<path fill="none" stroke="midnightblue" d="M535.129,-143.71C568.947,-154.817 607.043,-167.579 638.824,-178.453"/>
<polygon fill="midnightblue" stroke="midnightblue" points="535.842,-140.261 525.249,-140.473 533.662,-146.913 535.842,-140.261"/>
</g>
<!-- Node25 -->
<g id="node4" class="node"><title>Node25</title>
<g id="a_node4"><a xlink:href="FunctionsGeneFeature_8cpp.html" target="_top" xlink:title="/home/yukiosir/workspace\l/CompilerProject/Software\l/pinhao/lib/FeaturesImpl\l/FunctionsGeneFeature.cpp">
<polygon fill="white" stroke="black" points="0,-0.5 0,-52.5 137,-52.5 137,-0.5 0,-0.5"/>
<text text-anchor="start" x="8" y="-40.5" font-family="Helvetica,sans-Serif" font-size="10.00">/home/yukiosir/workspace</text>
<text text-anchor="start" x="8" y="-29.5" font-family="Helvetica,sans-Serif" font-size="10.00">/CompilerProject/Software</text>
<text text-anchor="start" x="8" y="-18.5" font-family="Helvetica,sans-Serif" font-size="10.00">/pinhao/lib/FeaturesImpl</text>
<text text-anchor="middle" x="68.5" y="-7.5" font-family="Helvetica,sans-Serif" font-size="10.00">/FunctionsGeneFeature.cpp</text>
</a>
</g>
</g>
<!-- Node24&#45;&gt;Node25 -->
<g id="edge4" class="edge"><title>Node24&#45;&gt;Node25</title>
<path fill="none" stroke="midnightblue" d="M360.034,-99.5337C299.393,-88.4651 217.006,-72.0489 145.5,-53 142.779,-52.275 140.012,-51.5077 137.225,-50.709"/>
<polygon fill="midnightblue" stroke="midnightblue" points="359.489,-102.992 369.953,-101.332 360.738,-96.1043 359.489,-102.992"/>
</g>
<!-- Node26 -->
<g id="node5" class="node"><title>Node26</title>
<g id="a_node5"><a xlink:href="FunctionStaticCostFeature_8cpp.html" target="_top" xlink:title="/home/yukiosir/workspace\l/CompilerProject/Software\l/pinhao/lib/FeaturesImpl\l/FunctionStaticCostFeature.cpp">
<polygon fill="white" stroke="black" points="155,-0.5 155,-52.5 310,-52.5 310,-0.5 155,-0.5"/>
<text text-anchor="start" x="163" y="-40.5" font-family="Helvetica,sans-Serif" font-size="10.00">/home/yukiosir/workspace</text>
<text text-anchor="start" x="163" y="-29.5" font-family="Helvetica,sans-Serif" font-size="10.00">/CompilerProject/Software</text>
<text text-anchor="start" x="163" y="-18.5" font-family="Helvetica,sans-Serif" font-size="10.00">/pinhao/lib/FeaturesImpl</text>
<text text-anchor="middle" x="232.5" y="-7.5" font-family="Helvetica,sans-Serif" font-size="10.00">/FunctionStaticCostFeature.cpp</text>
</a>
</g>
</g>
<!-- Node24&#45;&gt;Node26 -->
<g id="edge5" class="edge"><title>Node24&#45;&gt;Node26</title>
<path fill="none" stroke="midnightblue" d="M376.022,-85.5764C349.579,-74.8763 319.849,-62.8457 294.334,-52.5211"/>
<polygon fill="midnightblue" stroke="midnightblue" points="375.019,-88.9461 385.602,-89.4527 377.645,-82.4572 375.019,-88.9461"/>
</g>
<!-- Node27 -->
<g id="node6" class="node"><title>Node27</title>
<g id="a_node6"><a xlink:href="GEOSBasicBlockFreqFeature_8cpp.html" target="_top" xlink:title="/home/yukiosir/workspace\l/CompilerProject/Software\l/pinhao/lib/FeaturesImpl\l/GEOSFeatures/GEOSBasicBlockFreqFeature.cpp">
<polygon fill="white" stroke="black" points="328,-0.5 328,-52.5 567,-52.5 567,-0.5 328,-0.5"/>
<text text-anchor="start" x="336" y="-40.5" font-family="Helvetica,sans-Serif" font-size="10.00">/home/yukiosir/workspace</text>
<text text-anchor="start" x="336" y="-29.5" font-family="Helvetica,sans-Serif" font-size="10.00">/CompilerProject/Software</text>
<text text-anchor="start" x="336" y="-18.5" font-family="Helvetica,sans-Serif" font-size="10.00">/pinhao/lib/FeaturesImpl</text>
<text text-anchor="middle" x="447.5" y="-7.5" font-family="Helvetica,sans-Serif" font-size="10.00">/GEOSFeatures/GEOSBasicBlockFreqFeature.cpp</text>
</a>
</g>
</g>
<!-- Node24&#45;&gt;Node27 -->
<g id="edge6" class="edge"><title>Node24&#45;&gt;Node27</title>
<path fill="none" stroke="midnightblue" d="M447.5,-79.1908C447.5,-70.2824 447.5,-60.8986 447.5,-52.6075"/>
<polygon fill="midnightblue" stroke="midnightblue" points="444,-79.336 447.5,-89.336 451,-79.336 444,-79.336"/>
</g>
<!-- Node28&#45;&gt;Node23 -->
<g id="edge8" class="edge"><title>Node28&#45;&gt;Node23</title>
<path fill="none" stroke="midnightblue" d="M714.141,-151.749C714.379,-160.655 714.227,-170.04 713.686,-178.336"/>
<polygon fill="midnightblue" stroke="midnightblue" points="717.631,-151.439 713.682,-141.607 710.638,-151.755 717.631,-151.439"/>
</g>
<!-- Node29 -->
<g id="node8" class="node"><title>Node29</title>
<g id="a_node8"><a xlink:href="CFGBasicBlockStaticFeatures_8cpp.html" target="_top" xlink:title="This file implements the CFGBasicBlockStaticFeatures class. ">
<polygon fill="white" stroke="black" points="585,-0.5 585,-52.5 758,-52.5 758,-0.5 585,-0.5"/>
<text text-anchor="start" x="593" y="-40.5" font-family="Helvetica,sans-Serif" font-size="10.00">/home/yukiosir/workspace</text>
<text text-anchor="start" x="593" y="-29.5" font-family="Helvetica,sans-Serif" font-size="10.00">/CompilerProject/Software</text>
<text text-anchor="start" x="593" y="-18.5" font-family="Helvetica,sans-Serif" font-size="10.00">/pinhao/lib/FeaturesImpl</text>
<text text-anchor="middle" x="671.5" y="-7.5" font-family="Helvetica,sans-Serif" font-size="10.00">/CFGBasicBlockStaticFeatures.cpp</text>
</a>
</g>
</g>
<!-- Node28&#45;&gt;Node29 -->
<g id="edge9" class="edge"><title>Node28&#45;&gt;Node29</title>
<path fill="none" stroke="midnightblue" d="M693.249,-80.0607C689.457,-70.8956 685.432,-61.169 681.889,-52.6075"/>
<polygon fill="midnightblue" stroke="midnightblue" points="690.03,-81.4341 697.087,-89.336 696.498,-78.7576 690.03,-81.4341"/>
</g>
<!-- Node30 -->
<g id="node9" class="node"><title>Node30</title>
<g id="a_node9"><a xlink:href="CFGFunctionStaticFeatures_8cpp.html" target="_top" xlink:title="This file implements the CFGFunctionStaticFeatures class. ">
<polygon fill="white" stroke="black" points="776,-0.5 776,-52.5 937,-52.5 937,-0.5 776,-0.5"/>
<text text-anchor="start" x="784" y="-40.5" font-family="Helvetica,sans-Serif" font-size="10.00">/home/yukiosir/workspace</text>
<text text-anchor="start" x="784" y="-29.5" font-family="Helvetica,sans-Serif" font-size="10.00">/CompilerProject/Software</text>
<text text-anchor="start" x="784" y="-18.5" font-family="Helvetica,sans-Serif" font-size="10.00">/pinhao/lib/FeaturesImpl</text>
<text text-anchor="middle" x="856.5" y="-7.5" font-family="Helvetica,sans-Serif" font-size="10.00">/CFGFunctionStaticFeatures.cpp</text>
</a>
</g>
</g>
<!-- Node28&#45;&gt;Node30 -->
<g id="edge10" class="edge"><title>Node28&#45;&gt;Node30</title>
<path fill="none" stroke="midnightblue" d="M759.615,-84.0705C777.226,-73.7877 796.676,-62.4307 813.5,-52.6075"/>
<polygon fill="midnightblue" stroke="midnightblue" points="757.468,-81.2711 750.597,-89.336 760.997,-87.3161 757.468,-81.2711"/>
</g>
<!-- Node28&#45;&gt;Node31 -->
<g id="edge11" class="edge"><title>Node28&#45;&gt;Node31</title>
<path fill="none" stroke="midnightblue" d="M795.125,-88.8944C862.864,-71.2046 881.815,-69.913 945.5,-53 948.542,-52.192 951.641,-51.3546 954.767,-50.4974"/>
<polygon fill="midnightblue" stroke="midnightblue" points="794.01,-85.5686 785.233,-91.5026 795.795,-92.3372 794.01,-85.5686"/>
</g>
</g>
</svg>
        <g id="navigator" transform="translate(0 0)" fill="#404254">
                <rect fill="#f2f5e9" fill-opacity="0.5" stroke="#606060" stroke-width=".5" x="0" y="0" width="60" height="60"/>
                <use id="zoomplus" xlink:href="#zoomPlus" x="17" y="9" onmousedown="handleZoom(evt,'in')"/>
                <use id="zoomminus" xlink:href="#zoomMin" x="42" y="9" onmousedown="handleZoom(evt,'out')"/>
                <use id="reset" xlink:href="#resetDef" x="30" y="36" onmousedown="handleReset()"/>
                <g id="arrowUp" xlink:href="#dirArrow" transform="translate(30 24)" onmousedown="handlePan(0,-1)">
                  <use xlink:href="#rim" fill="#404040">
                        <set attributeName="fill" to="#808080" begin="arrowUp.mouseover" end="arrowUp.mouseout"/>
                  </use>
                  <path fill="none" stroke="white" stroke-width="1.5" d="M0,-3.0v7 M-2.5,-0.5L0,-3.0L2.5,-0.5"/>
                </g>
                <g id="arrowRight" xlink:href="#dirArrow" transform="rotate(90) translate(36 -43)" onmousedown="handlePan(1,0)">
                  <use xlink:href="#rim" fill="#404040">
                        <set attributeName="fill" to="#808080" begin="arrowRight.mouseover" end="arrowRight.mouseout"/>
                  </use>
                  <path fill="none" stroke="white" stroke-width="1.5" d="M0,-3.0v7 M-2.5,-0.5L0,-3.0L2.5,-0.5"/>
                </g>
                <g id="arrowDown" xlink:href="#dirArrow" transform="rotate(180) translate(-30 -48)" onmousedown="handlePan(0,1)">
                  <use xlink:href="#rim" fill="#404040">
                        <set attributeName="fill" to="#808080" begin="arrowDown.mouseover" end="arrowDown.mouseout"/>
                  </use>
                  <path fill="none" stroke="white" stroke-width="1.5" d="M0,-3.0v7 M-2.5,-0.5L0,-3.0L2.5,-0.5"/>
                </g>
                <g id="arrowLeft" xlink:href="#dirArrow" transform="rotate(270) translate(-36 17)" onmousedown="handlePan(-1,0)">
                  <use xlink:href="#rim" fill="#404040">
                        <set attributeName="fill" to="#808080" begin="arrowLeft.mouseover" end="arrowLeft.mouseout"/>
                  </use>
                  <path fill="none" stroke="white" stroke-width="1.5" d="M0,-3.0v7 M-2.5,-0.5L0,-3.0L2.5,-0.5"/>
                </g>
        </g>
        <svg viewBox="0 0 15 15" width="100%" height="30px" preserveAspectRatio="xMaxYMin meet">
         <g id="arrow_out" transform="scale(0.3 0.3)">
          <a xlink:href="VectorFeature_8h__dep__incl_org.svg" target="_base">
           <rect id="button" ry="5" rx="5" y="6" x="6" height="38" width="38"
                fill="#f2f5e9" fill-opacity="0.5" stroke="#606060" stroke-width="1.0"/>
           <path id="arrow"
             d="M 11.500037,31.436501 C 11.940474,20.09759 22.043105,11.32322 32.158766,21.979434 L 37.068811,17.246167 C 37.068811,17.246167 37.088388,32 37.088388,32 L 22.160133,31.978069 C 22.160133,31.978069 26.997745,27.140456 26.997745,27.140456 C 18.528582,18.264221 13.291696,25.230495 11.500037,31.436501 z"
             style="fill:#404040;"/>
          </a>
         </g>
        </svg>
</svg>
