<?xml version="1.0" encoding="UTF-8" standalone="no"?>
<!DOCTYPE svg PUBLIC "-//W3C//DTD SVG 1.1//EN"
 "http://www.w3.org/Graphics/SVG/1.1/DTD/svg11.dtd">
<!-- Generated by graphviz version 2.38.0 (20140413.2041)
 -->
<!-- Title: /home/yukiosir/workspace/CompilerProject/Software/pinhao/include/pinhao/Features/VectorFeature.h Pages: 1 -->
<!--zoomable 520 -->
<svg id="main" version="1.1" xmlns="http://www.w3.org/2000/svg" xmlns:xlink="http://www.w3.org/1999/xlink" xml:space="preserve" onload="init(evt)">
<style type="text/css"><![CDATA[
.edge:hover path { stroke: red; }
.edge:hover polygon { stroke: red; fill: red; }
]]></style>
<script type="text/javascript"><![CDATA[
var edges = document.getElementsByTagName('g');
if (edges && edges.length) {
  for (var i=0;i<edges.length;i++) {
    if (edges[i].id.substr(0,4)=='edge') {
      edges[i].setAttribute('class','edge');
    }
  }
}
]]></script>
        <defs>
                <circle id="rim" cx="0" cy="0" r="7"/>
                <circle id="rim2" cx="0" cy="0" r="3.5"/>
                <g id="zoomPlus">
                        <use xlink:href="#rim" fill="#404040">
                                <set attributeName="fill" to="#808080" begin="zoomplus.mouseover" end="zoomplus.mouseout"/>
                        </use>
                        <path d="M-4,0h8M0,-4v8" fill="none" stroke="white" stroke-width="1.5" pointer-events="none"/>
                </g>
                <g id="zoomMin">
                        <use xlink:href="#rim" fill="#404040">
                                <set attributeName="fill" to="#808080" begin="zoomminus.mouseover" end="zoomminus.mouseout"/>
                        </use>
                        <path d="M-4,0h8" fill="none" stroke="white" stroke-width="1.5" pointer-events="none"/>
                </g>
                <g id="dirArrow">
                        <path fill="none" stroke="white" stroke-width="1.5" d="M0,-3.0v7 M-2.5,-0.5L0,-3.0L2.5,-0.5"/>
                </g>
               <g id="resetDef">
                       <use xlink:href="#rim2" fill="#404040">
                               <set attributeName="fill" to="#808080" begin="reset.mouseover" end="reset.mouseout"/>
                       </use>
               </g>
        </defs>

<script type="text/javascript">
var viewWidth = 789;
var viewHeight = 520;
var sectionId = 'dynsection-0';
</script>
<script xlink:href="svgpan.js"/>
<svg id="graph" class="graph">
<g id="viewport">
<title>/home/yukiosir/workspace/CompilerProject/Software/pinhao/include/pinhao/Features/VectorFeature.h</title>
<polygon fill="white" stroke="none" points="-4,4 -4,-516 784.894,-516 784.894,4 -4,4"/>
<!-- Node0 -->
<g id="node1" class="node"><title>Node0</title>
<polygon fill="#bfbfbf" stroke="black" points="285.5,-459.5 285.5,-511.5 440.5,-511.5 440.5,-459.5 285.5,-459.5"/>
<text text-anchor="start" x="293.5" y="-499.5" font-family="Helvetica,sans-Serif" font-size="10.00">/home/yukiosir/workspace</text>
<text text-anchor="start" x="293.5" y="-488.5" font-family="Helvetica,sans-Serif" font-size="10.00">/CompilerProject/Software</text>
<text text-anchor="start" x="293.5" y="-477.5" font-family="Helvetica,sans-Serif" font-size="10.00">/pinhao/include/pinhao/Features</text>
<text text-anchor="middle" x="363" y="-466.5" font-family="Helvetica,sans-Serif" font-size="10.00">/VectorFeature.h</text>
</g>
<!-- Node1 -->
<g id="node2" class="node"><title>Node1</title>
<g id="a_node2"><a xlink:href="Features_8h.html" target="_top" xlink:title="This file implements some basic feature classes that extends the base class Feature. ">
<polygon fill="white" stroke="black" points="356,-224.5 356,-243.5 492,-243.5 492,-224.5 356,-224.5"/>
<text text-anchor="middle" x="424" y="-231.5" font-family="Helvetica,sans-Serif" font-size="10.00">pinhao/Features/Features.h</text>
</a>
</g>
</g>
<!-- Node0&#45;&gt;Node1 -->
<g id="edge1" class="edge"><title>Node0&#45;&gt;Node1</title>
<path fill="none" stroke="midnightblue" d="M311.96,-459.437C240.966,-421.311 126.994,-346.178 182,-280 202.603,-255.212 282.956,-244.012 345.487,-238.993"/>
<polygon fill="midnightblue" stroke="midnightblue" points="346.046,-242.461 355.751,-238.211 345.514,-235.481 346.046,-242.461"/>
</g>
<!-- Node14 -->
<g id="node15" class="node"><title>Node14</title>
<g id="a_node15"><a xlink:href="FeatureYAMLWrapper_8h.html" target="_top" xlink:title="pinhao/Support/FeatureYAMLWrapper.h">
<polygon fill="white" stroke="black" points="268,-403.5 268,-422.5 458,-422.5 458,-403.5 268,-403.5"/>
<text text-anchor="middle" x="363" y="-410.5" font-family="Helvetica,sans-Serif" font-size="10.00">pinhao/Support/FeatureYAMLWrapper.h</text>
</a>
</g>
</g>
<!-- Node0&#45;&gt;Node14 -->
<g id="edge19" class="edge"><title>Node0&#45;&gt;Node14</title>
<path fill="none" stroke="midnightblue" d="M356.507,-459.446C356.05,-450.63 356.202,-440.883 356.962,-432.684"/>
<polygon fill="midnightblue" stroke="midnightblue" points="360.439,-433.087 358.375,-422.695 353.508,-432.106 360.439,-433.087"/>
</g>
<!-- Node2 -->
<g id="node3" class="node"><title>Node2</title>
<g id="a_node3"><a xlink:href="Feature_8h.html" target="_top" xlink:title="This file defines the base feature class. ">
<polygon fill="white" stroke="black" points="359.5,-168.5 359.5,-187.5 490.5,-187.5 490.5,-168.5 359.5,-168.5"/>
<text text-anchor="middle" x="425" y="-175.5" font-family="Helvetica,sans-Serif" font-size="10.00">pinhao/Features/Feature.h</text>
</a>
</g>
</g>
<!-- Node1&#45;&gt;Node2 -->
<g id="edge2" class="edge"><title>Node1&#45;&gt;Node2</title>
<path fill="none" stroke="midnightblue" d="M424.165,-224.083C424.296,-217.006 424.484,-206.861 424.648,-197.986"/>
<polygon fill="midnightblue" stroke="midnightblue" points="428.152,-197.814 424.838,-187.751 421.153,-197.685 428.152,-197.814"/>
</g>
<!-- Node3 -->
<g id="node4" class="node"><title>Node3</title>
<g id="a_node4"><a xlink:href="FeatureInfo_8h.html" target="_top" xlink:title="This file defines a class that holds some informations about a feature. ">
<polygon fill="white" stroke="black" points="250.5,-112.5 250.5,-131.5 397.5,-131.5 397.5,-112.5 250.5,-112.5"/>
<text text-anchor="middle" x="324" y="-119.5" font-family="Helvetica,sans-Serif" font-size="10.00">pinhao/Features/FeatureInfo.h</text>
</a>
</g>
</g>
<!-- Node2&#45;&gt;Node3 -->
<g id="edge3" class="edge"><title>Node2&#45;&gt;Node3</title>
<path fill="none" stroke="midnightblue" d="M408.773,-168.324C392.649,-159.703 367.7,-146.364 349.036,-136.386"/>
<polygon fill="midnightblue" stroke="midnightblue" points="350.656,-133.283 340.187,-131.655 347.356,-139.456 350.656,-133.283"/>
</g>
<!-- Node6 -->
<g id="node7" class="node"><title>Node6</title>
<polygon fill="white" stroke="#bfbfbf" points="537.5,-56.5 537.5,-75.5 572.5,-75.5 572.5,-56.5 537.5,-56.5"/>
<text text-anchor="middle" x="555" y="-63.5" font-family="Helvetica,sans-Serif" font-size="10.00">map</text>
</g>
<!-- Node2&#45;&gt;Node6 -->
<g id="edge16" class="edge"><title>Node2&#45;&gt;Node6</title>
<path fill="none" stroke="midnightblue" d="M431.462,-168.294C441.518,-155.11 461.955,-129.742 483,-112 497.33,-99.9197 515.187,-88.7385 529.532,-80.5434"/>
<polygon fill="midnightblue" stroke="midnightblue" points="531.35,-83.537 538.379,-75.6097 527.941,-77.4233 531.35,-83.537"/>
</g>
<!-- Node8 -->
<g id="node9" class="node"><title>Node8</title>
<polygon fill="white" stroke="#bfbfbf" points="402.5,-56.5 402.5,-75.5 451.5,-75.5 451.5,-56.5 402.5,-56.5"/>
<text text-anchor="middle" x="427" y="-63.5" font-family="Helvetica,sans-Serif" font-size="10.00">cassert</text>
</g>
<!-- Node2&#45;&gt;Node8 -->
<g id="edge17" class="edge"><title>Node2&#45;&gt;Node8</title>
<path fill="none" stroke="midnightblue" d="M425.157,-168.368C425.48,-150.617 426.224,-109.666 426.662,-85.5974"/>
<polygon fill="midnightblue" stroke="midnightblue" points="430.161,-85.6534 426.844,-75.5914 423.162,-85.5261 430.161,-85.6534"/>
</g>
<!-- Node9 -->
<g id="node10" class="node"><title>Node9</title>
<g id="a_node10"><a xlink:href="FeatureRegistry_8h.html" target="_top" xlink:title="This file defines a class that has all the registered features. ">
<polygon fill="white" stroke="black" points="601.5,-112.5 601.5,-131.5 768.5,-131.5 768.5,-112.5 601.5,-112.5"/>
<text text-anchor="middle" x="685" y="-119.5" font-family="Helvetica,sans-Serif" font-size="10.00">pinhao/Features/FeatureRegistry.h</text>
</a>
</g>
</g>
<!-- Node2&#45;&gt;Node9 -->
<g id="edge10" class="edge"><title>Node2&#45;&gt;Node9</title>
<path fill="none" stroke="midnightblue" d="M466.198,-168.444C511.649,-159.004 584.842,-143.802 633.909,-133.611"/>
<polygon fill="midnightblue" stroke="midnightblue" points="634.916,-136.977 643.995,-131.516 633.492,-130.123 634.916,-136.977"/>
</g>
<!-- Node11 -->
<g id="node12" class="node"><title>Node11</title>
<polygon fill="white" stroke="#bfbfbf" points="492.5,-112.5 492.5,-131.5 583.5,-131.5 583.5,-112.5 492.5,-112.5"/>
<text text-anchor="middle" x="538" y="-119.5" font-family="Helvetica,sans-Serif" font-size="10.00">llvm/IR/Module.h</text>
</g>
<!-- Node2&#45;&gt;Node11 -->
<g id="edge14" class="edge"><title>Node2&#45;&gt;Node11</title>
<path fill="none" stroke="midnightblue" d="M442.905,-168.444C461.254,-159.675 490.005,-145.935 511.094,-135.858"/>
<polygon fill="midnightblue" stroke="midnightblue" points="512.665,-138.986 520.179,-131.516 509.647,-132.67 512.665,-138.986"/>
</g>
<!-- Node12 -->
<g id="node13" class="node"><title>Node12</title>
<polygon fill="white" stroke="#bfbfbf" points="70.5,-112.5 70.5,-131.5 159.5,-131.5 159.5,-112.5 70.5,-112.5"/>
<text text-anchor="middle" x="115" y="-119.5" font-family="Helvetica,sans-Serif" font-size="10.00">yaml&#45;cpp/yaml.h</text>
</g>
<!-- Node2&#45;&gt;Node12 -->
<g id="edge15" class="edge"><title>Node2&#45;&gt;Node12</title>
<path fill="none" stroke="midnightblue" d="M375.88,-168.444C319.832,-158.68 228.405,-142.754 170.011,-132.582"/>
<polygon fill="midnightblue" stroke="midnightblue" points="170.317,-129.083 159.864,-130.815 169.115,-135.979 170.317,-129.083"/>
</g>
<!-- Node13 -->
<g id="node14" class="node"><title>Node13</title>
<polygon fill="white" stroke="#bfbfbf" points="178,-112.5 178,-131.5 232,-131.5 232,-112.5 178,-112.5"/>
<text text-anchor="middle" x="205" y="-119.5" font-family="Helvetica,sans-Serif" font-size="10.00">iostream</text>
</g>
<!-- Node2&#45;&gt;Node13 -->
<g id="edge18" class="edge"><title>Node2&#45;&gt;Node13</title>
<path fill="none" stroke="midnightblue" d="M389.713,-168.427C354.689,-159.905 299.206,-146.371 242.055,-132.252"/>
<polygon fill="midnightblue" stroke="midnightblue" points="242.671,-128.799 232.123,-129.797 240.991,-135.594 242.671,-128.799"/>
</g>
<!-- Node4 -->
<g id="node5" class="node"><title>Node4</title>
<g id="a_node5"><a xlink:href="Types_8h.html" target="_top" xlink:title="pinhao/Support/Types.h">
<polygon fill="white" stroke="black" points="164,-56.5 164,-75.5 284,-75.5 284,-56.5 164,-56.5"/>
<text text-anchor="middle" x="224" y="-63.5" font-family="Helvetica,sans-Serif" font-size="10.00">pinhao/Support/Types.h</text>
</a>
</g>
</g>
<!-- Node3&#45;&gt;Node4 -->
<g id="edge4" class="edge"><title>Node3&#45;&gt;Node4</title>
<path fill="none" stroke="midnightblue" d="M307.933,-112.324C292.042,-103.743 267.493,-90.486 249.042,-80.5224"/>
<polygon fill="midnightblue" stroke="midnightblue" points="250.489,-77.3264 240.027,-75.6545 247.163,-83.4857 250.489,-77.3264"/>
</g>
<!-- Node5 -->
<g id="node6" class="node"><title>Node5</title>
<polygon fill="white" stroke="#bfbfbf" points="278.5,-0.5 278.5,-19.5 319.5,-19.5 319.5,-0.5 278.5,-0.5"/>
<text text-anchor="middle" x="299" y="-7.5" font-family="Helvetica,sans-Serif" font-size="10.00">string</text>
</g>
<!-- Node3&#45;&gt;Node5 -->
<g id="edge8" class="edge"><title>Node3&#45;&gt;Node5</title>
<path fill="none" stroke="midnightblue" d="M333.559,-112.163C345.874,-99.654 364.619,-76.0683 355,-56 348.747,-42.9542 336.664,-32.4921 325.318,-24.9506"/>
<polygon fill="midnightblue" stroke="midnightblue" points="326.854,-21.7869 316.502,-19.5351 323.191,-27.7515 326.854,-21.7869"/>
</g>
<!-- Node3&#45;&gt;Node6 -->
<g id="edge6" class="edge"><title>Node3&#45;&gt;Node6</title>
<path fill="none" stroke="midnightblue" d="M360.603,-112.444C406.947,-101.61 485.754,-83.1874 527.368,-73.4595"/>
<polygon fill="midnightblue" stroke="midnightblue" points="528.403,-76.8119 537.344,-71.1274 526.81,-69.9957 528.403,-76.8119"/>
</g>
<!-- Node7 -->
<g id="node8" class="node"><title>Node7</title>
<polygon fill="white" stroke="#bfbfbf" points="302,-56.5 302,-75.5 346,-75.5 346,-56.5 302,-56.5"/>
<text text-anchor="middle" x="324" y="-63.5" font-family="Helvetica,sans-Serif" font-size="10.00">vector</text>
</g>
<!-- Node3&#45;&gt;Node7 -->
<g id="edge7" class="edge"><title>Node3&#45;&gt;Node7</title>
<path fill="none" stroke="midnightblue" d="M324,-112.083C324,-105.006 324,-94.8611 324,-85.9865"/>
<polygon fill="midnightblue" stroke="midnightblue" points="327.5,-85.751 324,-75.7511 320.5,-85.7511 327.5,-85.751"/>
</g>
<!-- Node3&#45;&gt;Node8 -->
<g id="edge9" class="edge"><title>Node3&#45;&gt;Node8</title>
<path fill="none" stroke="midnightblue" d="M340.549,-112.324C356.992,-103.703 382.435,-90.3643 401.468,-80.3855"/>
<polygon fill="midnightblue" stroke="midnightblue" points="403.261,-83.3977 410.492,-75.6545 400.011,-77.198 403.261,-83.3977"/>
</g>
<!-- Node4&#45;&gt;Node5 -->
<g id="edge5" class="edge"><title>Node4&#45;&gt;Node5</title>
<path fill="none" stroke="midnightblue" d="M236.05,-56.324C247.463,-48.1066 264.831,-35.6017 278.435,-25.8069"/>
<polygon fill="midnightblue" stroke="midnightblue" points="280.66,-28.5174 286.731,-19.8339 276.57,-22.8366 280.66,-28.5174"/>
</g>
<!-- Node9&#45;&gt;Node6 -->
<g id="edge13" class="edge"><title>Node9&#45;&gt;Node6</title>
<path fill="none" stroke="midnightblue" d="M664.401,-112.444C642.126,-103.191 606.524,-88.4021 582.018,-78.2227"/>
<polygon fill="midnightblue" stroke="midnightblue" points="583.162,-74.9081 572.584,-74.3042 580.476,-81.3725 583.162,-74.9081"/>
</g>
<!-- Node9&#45;&gt;Node8 -->
<g id="edge12" class="edge"><title>Node9&#45;&gt;Node8</title>
<path fill="none" stroke="midnightblue" d="M644.119,-112.444C593.79,-101.91 509.182,-84.2009 461.813,-74.2865"/>
<polygon fill="midnightblue" stroke="midnightblue" points="462.24,-70.8001 451.735,-72.1772 460.806,-77.6516 462.24,-70.8001"/>
</g>
<!-- Node10 -->
<g id="node11" class="node"><title>Node10</title>
<polygon fill="white" stroke="#bfbfbf" points="659,-56.5 659,-75.5 711,-75.5 711,-56.5 659,-56.5"/>
<text text-anchor="middle" x="685" y="-63.5" font-family="Helvetica,sans-Serif" font-size="10.00">memory</text>
</g>
<!-- Node9&#45;&gt;Node10 -->
<g id="edge11" class="edge"><title>Node9&#45;&gt;Node10</title>
<path fill="none" stroke="midnightblue" d="M685,-112.083C685,-105.006 685,-94.8611 685,-85.9865"/>
<polygon fill="midnightblue" stroke="midnightblue" points="688.5,-85.751 685,-75.7511 681.5,-85.7511 688.5,-85.751"/>
</g>
<!-- Node14&#45;&gt;Node0 -->
<g id="edge26" class="edge"><title>Node14&#45;&gt;Node0</title>
<path fill="none" stroke="midnightblue" d="M367.625,-422.695C369.042,-429.475 369.751,-439.371 369.75,-449.266"/>
<polygon fill="midnightblue" stroke="midnightblue" points="366.247,-449.36 369.493,-459.446 373.244,-449.538 366.247,-449.36"/>
</g>
<!-- Node15 -->
<g id="node16" class="node"><title>Node15</title>
<g id="a_node16"><a xlink:href="YAMLWrapper_8h.html" target="_top" xlink:title="pinhao/Support/YAMLWrapper.h">
<polygon fill="white" stroke="black" points="38.5,-168.5 38.5,-187.5 195.5,-187.5 195.5,-168.5 38.5,-168.5"/>
<text text-anchor="middle" x="117" y="-175.5" font-family="Helvetica,sans-Serif" font-size="10.00">pinhao/Support/YAMLWrapper.h</text>
</a>
</g>
</g>
<!-- Node14&#45;&gt;Node15 -->
<g id="edge20" class="edge"><title>Node14&#45;&gt;Node15</title>
<path fill="none" stroke="midnightblue" d="M339.47,-403.486C318.616,-395.464 287.726,-382.398 263,-367 223.342,-342.303 211.606,-336.141 182,-300 155.278,-267.38 134.459,-222.091 124.137,-197.2"/>
<polygon fill="midnightblue" stroke="midnightblue" points="127.249,-195.559 120.26,-187.596 120.759,-198.179 127.249,-195.559"/>
</g>
<!-- Node17 -->
<g id="node18" class="node"><title>Node17</title>
<g id="a_node18"><a xlink:href="YamlOptions_8h.html" target="_top" xlink:title="pinhao/Support/YamlOptions.h">
<polygon fill="white" stroke="black" points="191.5,-280.5 191.5,-299.5 340.5,-299.5 340.5,-280.5 191.5,-280.5"/>
<text text-anchor="middle" x="266" y="-287.5" font-family="Helvetica,sans-Serif" font-size="10.00">pinhao/Support/YamlOptions.h</text>
</a>
</g>
</g>
<!-- Node14&#45;&gt;Node17 -->
<g id="edge24" class="edge"><title>Node14&#45;&gt;Node17</title>
<path fill="none" stroke="midnightblue" d="M333.19,-403.49C314.699,-396.646 292.053,-385.123 279,-367 267.05,-350.408 264.732,-326.559 264.806,-310.019"/>
<polygon fill="midnightblue" stroke="midnightblue" points="268.308,-310.029 265.151,-299.916 261.312,-309.791 268.308,-310.029"/>
</g>
<!-- Node18 -->
<g id="node19" class="node"><title>Node18</title>
<g id="a_node19"><a xlink:href="MapFeature_8h.html" target="_top" xlink:title="pinhao/Features/MapFeature.h">
<polygon fill="white" stroke="black" points="288.5,-342 288.5,-361 437.5,-361 437.5,-342 288.5,-342"/>
<text text-anchor="middle" x="363" y="-349" font-family="Helvetica,sans-Serif" font-size="10.00">pinhao/Features/MapFeature.h</text>
</a>
</g>
</g>
<!-- Node14&#45;&gt;Node18 -->
<g id="edge27" class="edge"><title>Node14&#45;&gt;Node18</title>
<path fill="none" stroke="midnightblue" d="M358.099,-403.475C356.268,-395.08 355.797,-381.981 356.685,-371.163"/>
<polygon fill="midnightblue" stroke="midnightblue" points="360.186,-371.397 358.103,-361.009 353.254,-370.429 360.186,-371.397"/>
</g>
<!-- Node21 -->
<g id="node22" class="node"><title>Node21</title>
<g id="a_node22"><a xlink:href="MapVectorFeature_8h.html" target="_top" xlink:title="pinhao/Features/MapVector\lFeature.h">
<polygon fill="white" stroke="black" points="455.5,-336.5 455.5,-366.5 592.5,-366.5 592.5,-336.5 455.5,-336.5"/>
<text text-anchor="start" x="463.5" y="-354.5" font-family="Helvetica,sans-Serif" font-size="10.00">pinhao/Features/MapVector</text>
<text text-anchor="middle" x="524" y="-343.5" font-family="Helvetica,sans-Serif" font-size="10.00">Feature.h</text>
</a>
</g>
</g>
<!-- Node14&#45;&gt;Node21 -->
<g id="edge34" class="edge"><title>Node14&#45;&gt;Node21</title>
<path fill="none" stroke="midnightblue" d="M381.167,-403.475C402.807,-394.776 439.575,-381.026 470.439,-369.998"/>
<polygon fill="midnightblue" stroke="midnightblue" points="471.973,-373.168 480.226,-366.523 469.631,-366.571 471.973,-373.168"/>
</g>
<!-- Node15&#45;&gt;Node12 -->
<g id="edge21" class="edge"><title>Node15&#45;&gt;Node12</title>
<path fill="none" stroke="midnightblue" d="M116.67,-168.083C116.408,-161.006 116.032,-150.861 115.703,-141.986"/>
<polygon fill="midnightblue" stroke="midnightblue" points="119.192,-141.615 115.324,-131.751 112.197,-141.874 119.192,-141.615"/>
</g>
<!-- Node15&#45;&gt;Node13 -->
<g id="edge22" class="edge"><title>Node15&#45;&gt;Node13</title>
<path fill="none" stroke="midnightblue" d="M131.139,-168.324C144.866,-159.9 165.936,-146.971 182.064,-137.074"/>
<polygon fill="midnightblue" stroke="midnightblue" points="184.204,-139.868 190.896,-131.655 180.543,-133.902 184.204,-139.868"/>
</g>
<!-- Node16 -->
<g id="node17" class="node"><title>Node16</title>
<polygon fill="white" stroke="#bfbfbf" points="0,-112.5 0,-131.5 52,-131.5 52,-112.5 0,-112.5"/>
<text text-anchor="middle" x="26" y="-119.5" font-family="Helvetica,sans-Serif" font-size="10.00">ostream</text>
</g>
<!-- Node15&#45;&gt;Node16 -->
<g id="edge23" class="edge"><title>Node15&#45;&gt;Node16</title>
<path fill="none" stroke="midnightblue" d="M102.379,-168.324C88.0511,-159.822 65.9875,-146.729 49.2513,-136.797"/>
<polygon fill="midnightblue" stroke="midnightblue" points="50.9704,-133.748 40.5844,-131.655 47.3982,-139.768 50.9704,-133.748"/>
</g>
<!-- Node17&#45;&gt;Node12 -->
<g id="edge25" class="edge"><title>Node17&#45;&gt;Node12</title>
<path fill="none" stroke="midnightblue" d="M263.591,-280.254C257.24,-258.631 238.14,-201.957 204,-168 189.292,-153.371 168.857,-142.578 151.276,-135.236"/>
<polygon fill="midnightblue" stroke="midnightblue" points="152.444,-131.934 141.858,-131.509 149.869,-138.443 152.444,-131.934"/>
</g>
<!-- Node18&#45;&gt;Node1 -->
<g id="edge28" class="edge"><title>Node18&#45;&gt;Node1</title>
<path fill="none" stroke="midnightblue" d="M367.585,-341.819C377.521,-323.006 401.212,-278.148 414.517,-252.955"/>
<polygon fill="midnightblue" stroke="midnightblue" points="417.787,-254.259 419.362,-243.782 411.597,-250.99 417.787,-254.259"/>
</g>
<!-- Node18&#45;&gt;Node14 -->
<g id="edge29" class="edge"><title>Node18&#45;&gt;Node14</title>
<path fill="none" stroke="midnightblue" d="M367.897,-361.009C369.73,-369.398 370.203,-382.496 369.317,-393.317"/>
<polygon fill="midnightblue" stroke="midnightblue" points="365.815,-393.088 367.901,-403.475 372.748,-394.054 365.815,-393.088"/>
</g>
<!-- Node19 -->
<g id="node20" class="node"><title>Node19</title>
<g id="a_node20"><a xlink:href="Iterator_8h.html" target="_top" xlink:title="pinhao/Support/Iterator.h">
<polygon fill="white" stroke="black" points="462,-280.5 462,-299.5 586,-299.5 586,-280.5 462,-280.5"/>
<text text-anchor="middle" x="524" y="-287.5" font-family="Helvetica,sans-Serif" font-size="10.00">pinhao/Support/Iterator.h</text>
</a>
</g>
</g>
<!-- Node18&#45;&gt;Node19 -->
<g id="edge30" class="edge"><title>Node18&#45;&gt;Node19</title>
<path fill="none" stroke="midnightblue" d="M386.067,-341.975C413.685,-331.769 460.12,-314.608 491.396,-303.049"/>
<polygon fill="midnightblue" stroke="midnightblue" points="492.809,-306.259 500.975,-299.509 490.382,-299.693 492.809,-306.259"/>
</g>
<!-- Node19&#45;&gt;Node1 -->
<g id="edge31" class="edge"><title>Node19&#45;&gt;Node1</title>
<path fill="none" stroke="midnightblue" d="M507.933,-280.324C492.042,-271.743 467.493,-258.486 449.042,-248.522"/>
<polygon fill="midnightblue" stroke="midnightblue" points="450.489,-245.326 440.027,-243.655 447.163,-251.486 450.489,-245.326"/>
</g>
<!-- Node19&#45;&gt;Node6 -->
<g id="edge33" class="edge"><title>Node19&#45;&gt;Node6</title>
<path fill="none" stroke="midnightblue" d="M555.365,-280.462C611.79,-263.209 728.998,-218.281 777,-132 781.322,-124.232 782.627,-118.881 777,-112 764.723,-96.9844 639.524,-78.387 582.74,-70.646"/>
<polygon fill="midnightblue" stroke="midnightblue" points="583.04,-67.1549 572.662,-69.2885 582.105,-74.0922 583.04,-67.1549"/>
</g>
<!-- Node20 -->
<g id="node21" class="node"><title>Node20</title>
<polygon fill="white" stroke="#bfbfbf" points="510.5,-224.5 510.5,-243.5 557.5,-243.5 557.5,-224.5 510.5,-224.5"/>
<text text-anchor="middle" x="534" y="-231.5" font-family="Helvetica,sans-Serif" font-size="10.00">iterator</text>
</g>
<!-- Node19&#45;&gt;Node20 -->
<g id="edge32" class="edge"><title>Node19&#45;&gt;Node20</title>
<path fill="none" stroke="midnightblue" d="M525.651,-280.083C526.976,-272.927 528.882,-262.635 530.539,-253.691"/>
<polygon fill="midnightblue" stroke="midnightblue" points="534,-254.221 532.379,-243.751 527.117,-252.947 534,-254.221"/>
</g>
<!-- Node21&#45;&gt;Node1 -->
<g id="edge35" class="edge"><title>Node21&#45;&gt;Node1</title>
<path fill="none" stroke="midnightblue" d="M497.7,-336.485C483.016,-327.606 465.266,-314.981 453,-300 441.758,-286.27 434.003,-267.489 429.36,-253.645"/>
<polygon fill="midnightblue" stroke="midnightblue" points="432.608,-252.302 426.297,-243.792 425.923,-254.38 432.608,-252.302"/>
</g>
<!-- Node21&#45;&gt;Node14 -->
<g id="edge36" class="edge"><title>Node21&#45;&gt;Node14</title>
<path fill="none" stroke="midnightblue" d="M491.885,-366.523C465.569,-376.737 428.438,-390.422 400.718,-400.103"/>
<polygon fill="midnightblue" stroke="midnightblue" points="399.275,-396.899 390.968,-403.475 401.563,-403.514 399.275,-396.899"/>
</g>
<!-- Node21&#45;&gt;Node19 -->
<g id="edge37" class="edge"><title>Node21&#45;&gt;Node19</title>
<path fill="none" stroke="midnightblue" d="M524,-336.399C524,-328.466 524,-318.458 524,-309.858"/>
<polygon fill="midnightblue" stroke="midnightblue" points="527.5,-309.658 524,-299.658 520.5,-309.658 527.5,-309.658"/>
</g>
</g>
</svg>
        <g id="navigator" transform="translate(0 0)" fill="#404254">
                <rect fill="#f2f5e9" fill-opacity="0.5" stroke="#606060" stroke-width=".5" x="0" y="0" width="60" height="60"/>
                <use id="zoomplus" xlink:href="#zoomPlus" x="17" y="9" onmousedown="handleZoom(evt,'in')"/>
                <use id="zoomminus" xlink:href="#zoomMin" x="42" y="9" onmousedown="handleZoom(evt,'out')"/>
                <use id="reset" xlink:href="#resetDef" x="30" y="36" onmousedown="handleReset()"/>
                <g id="arrowUp" xlink:href="#dirArrow" transform="translate(30 24)" onmousedown="handlePan(0,-1)">
                  <use xlink:href="#rim" fill="#404040">
                        <set attributeName="fill" to="#808080" begin="arrowUp.mouseover" end="arrowUp.mouseout"/>
                  </use>
                  <path fill="none" stroke="white" stroke-width="1.5" d="M0,-3.0v7 M-2.5,-0.5L0,-3.0L2.5,-0.5"/>
                </g>
                <g id="arrowRight" xlink:href="#dirArrow" transform="rotate(90) translate(36 -43)" onmousedown="handlePan(1,0)">
                  <use xlink:href="#rim" fill="#404040">
                        <set attributeName="fill" to="#808080" begin="arrowRight.mouseover" end="arrowRight.mouseout"/>
                  </use>
                  <path fill="none" stroke="white" stroke-width="1.5" d="M0,-3.0v7 M-2.5,-0.5L0,-3.0L2.5,-0.5"/>
                </g>
                <g id="arrowDown" xlink:href="#dirArrow" transform="rotate(180) translate(-30 -48)" onmousedown="handlePan(0,1)">
                  <use xlink:href="#rim" fill="#404040">
                        <set attributeName="fill" to="#808080" begin="arrowDown.mouseover" end="arrowDown.mouseout"/>
                  </use>
                  <path fill="none" stroke="white" stroke-width="1.5" d="M0,-3.0v7 M-2.5,-0.5L0,-3.0L2.5,-0.5"/>
                </g>
                <g id="arrowLeft" xlink:href="#dirArrow" transform="rotate(270) translate(-36 17)" onmousedown="handlePan(-1,0)">
                  <use xlink:href="#rim" fill="#404040">
                        <set attributeName="fill" to="#808080" begin="arrowLeft.mouseover" end="arrowLeft.mouseout"/>
                  </use>
                  <path fill="none" stroke="white" stroke-width="1.5" d="M0,-3.0v7 M-2.5,-0.5L0,-3.0L2.5,-0.5"/>
                </g>
        </g>
        <svg viewBox="0 0 15 15" width="100%" height="30px" preserveAspectRatio="xMaxYMin meet">
         <g id="arrow_out" transform="scale(0.3 0.3)">
          <a xlink:href="VectorFeature_8h__incl_org.svg" target="_base">
           <rect id="button" ry="5" rx="5" y="6" x="6" height="38" width="38"
                fill="#f2f5e9" fill-opacity="0.5" stroke="#606060" stroke-width="1.0"/>
           <path id="arrow"
             d="M 11.500037,31.436501 C 11.940474,20.09759 22.043105,11.32322 32.158766,21.979434 L 37.068811,17.246167 C 37.068811,17.246167 37.088388,32 37.088388,32 L 22.160133,31.978069 C 22.160133,31.978069 26.997745,27.140456 26.997745,27.140456 C 18.528582,18.264221 13.291696,25.230495 11.500037,31.436501 z"
             style="fill:#404040;"/>
          </a>
         </g>
        </svg>
</svg>
