<?xml version="1.0" encoding="UTF-8" standalone="no"?>
<!DOCTYPE svg PUBLIC "-//W3C//DTD SVG 1.1//EN"
 "http://www.w3.org/Graphics/SVG/1.1/DTD/svg11.dtd">
<!-- Generated by graphviz version 2.38.0 (20140413.2041)
 -->
<!-- Title: /home/yukiosir/workspace/CompilerProject/Software/pinhao/include/pinhao/Support/YamlOptions.h Pages: 1 -->
<!--zoomable 328 -->
<svg id="main" version="1.1" xmlns="http://www.w3.org/2000/svg" xmlns:xlink="http://www.w3.org/1999/xlink" xml:space="preserve" onload="init(evt)">
<style type="text/css"><![CDATA[
.edge:hover path { stroke: red; }
.edge:hover polygon { stroke: red; fill: red; }
]]></style>
<script type="text/javascript"><![CDATA[
var edges = document.getElementsByTagName('g');
if (edges && edges.length) {
  for (var i=0;i<edges.length;i++) {
    if (edges[i].id.substr(0,4)=='edge') {
      edges[i].setAttribute('class','edge');
    }
  }
}
]]></script>
        <defs>
                <circle id="rim" cx="0" cy="0" r="7"/>
                <circle id="rim2" cx="0" cy="0" r="3.5"/>
                <g id="zoomPlus">
                        <use xlink:href="#rim" fill="#404040">
                                <set attributeName="fill" to="#808080" begin="zoomplus.mouseover" end="zoomplus.mouseout"/>
                        </use>
                        <path d="M-4,0h8M0,-4v8" fill="none" stroke="white" stroke-width="1.5" pointer-events="none"/>
                </g>
                <g id="zoomMin">
                        <use xlink:href="#rim" fill="#404040">
                                <set attributeName="fill" to="#808080" begin="zoomminus.mouseover" end="zoomminus.mouseout"/>
                        </use>
                        <path d="M-4,0h8" fill="none" stroke="white" stroke-width="1.5" pointer-events="none"/>
                </g>
                <g id="dirArrow">
                        <path fill="none" stroke="white" stroke-width="1.5" d="M0,-3.0v7 M-2.5,-0.5L0,-3.0L2.5,-0.5"/>
                </g>
               <g id="resetDef">
                       <use xlink:href="#rim2" fill="#404040">
                               <set attributeName="fill" to="#808080" begin="reset.mouseover" end="reset.mouseout"/>
                       </use>
               </g>
        </defs>

<script type="text/javascript">
var viewWidth = 2124;
var viewHeight = 328;
var sectionId = 'dynsection-1';
</script>
<script xlink:href="svgpan.js"/>
<svg id="graph" class="graph">
<g id="viewport">
<title>/home/yukiosir/workspace/CompilerProject/Software/pinhao/include/pinhao/Support/YamlOptions.h</title>
<polygon fill="white" stroke="none" points="-4,4 -4,-324 2119.5,-324 2119.5,4 -4,4"/>
<!-- Node2 -->
<g id="node1" class="node"><title>Node2</title>
<polygon fill="#bfbfbf" stroke="black" points="1315.5,-267.5 1315.5,-319.5 1465.5,-319.5 1465.5,-267.5 1315.5,-267.5"/>
<text text-anchor="start" x="1323.5" y="-307.5" font-family="Helvetica,sans-Serif" font-size="10.00">/home/yukiosir/workspace</text>
<text text-anchor="start" x="1323.5" y="-296.5" font-family="Helvetica,sans-Serif" font-size="10.00">/CompilerProject/Software</text>
<text text-anchor="start" x="1323.5" y="-285.5" font-family="Helvetica,sans-Serif" font-size="10.00">/pinhao/include/pinhao/Support</text>
<text text-anchor="middle" x="1390.5" y="-274.5" font-family="Helvetica,sans-Serif" font-size="10.00">/YamlOptions.h</text>
</g>
<!-- Node3 -->
<g id="node2" class="node"><title>Node3</title>
<g id="a_node2"><a xlink:href="FeatureYAMLWrapper_8h.html" target="_top" xlink:title="/home/yukiosir/workspace\l/CompilerProject/Software\l/pinhao/include/pinhao/Support\l/FeatureYAMLWrapper.h">
<polygon fill="white" stroke="black" points="796.5,-178.5 796.5,-230.5 946.5,-230.5 946.5,-178.5 796.5,-178.5"/>
<text text-anchor="start" x="804.5" y="-218.5" font-family="Helvetica,sans-Serif" font-size="10.00">/home/yukiosir/workspace</text>
<text text-anchor="start" x="804.5" y="-207.5" font-family="Helvetica,sans-Serif" font-size="10.00">/CompilerProject/Software</text>
<text text-anchor="start" x="804.5" y="-196.5" font-family="Helvetica,sans-Serif" font-size="10.00">/pinhao/include/pinhao/Support</text>
<text text-anchor="middle" x="871.5" y="-185.5" font-family="Helvetica,sans-Serif" font-size="10.00">/FeatureYAMLWrapper.h</text>
</a>
</g>
</g>
<!-- Node2&#45;&gt;Node3 -->
<g id="edge1" class="edge"><title>Node2&#45;&gt;Node3</title>
<path fill="none" stroke="midnightblue" d="M1305.27,-278.212C1205.53,-261.493 1041.94,-234.07 946.724,-218.11"/>
<polygon fill="midnightblue" stroke="midnightblue" points="1304.87,-281.694 1315.31,-279.896 1306.03,-274.791 1304.87,-281.694"/>
</g>
<!-- Node9 -->
<g id="node8" class="node"><title>Node9</title>
<g id="a_node8"><a xlink:href="CFGBasicBlockStaticFeatures_8cpp.html" target="_top" xlink:title="This file implements the CFGBasicBlockStaticFeatures class. ">
<polygon fill="white" stroke="black" points="585,-0.5 585,-52.5 758,-52.5 758,-0.5 585,-0.5"/>
<text text-anchor="start" x="593" y="-40.5" font-family="Helvetica,sans-Serif" font-size="10.00">/home/yukiosir/workspace</text>
<text text-anchor="start" x="593" y="-29.5" font-family="Helvetica,sans-Serif" font-size="10.00">/CompilerProject/Software</text>
<text text-anchor="start" x="593" y="-18.5" font-family="Helvetica,sans-Serif" font-size="10.00">/pinhao/lib/FeaturesImpl</text>
<text text-anchor="middle" x="671.5" y="-7.5" font-family="Helvetica,sans-Serif" font-size="10.00">/CFGBasicBlockStaticFeatures.cpp</text>
</a>
</g>
</g>
<!-- Node2&#45;&gt;Node9 -->
<g id="edge21" class="edge"><title>Node2&#45;&gt;Node9</title>
<path fill="none" stroke="midnightblue" d="M1305.06,-292.997C1186.62,-291.628 966.848,-281.606 787.5,-231 699.687,-206.222 651.059,-219.247 602.5,-142 589.964,-122.057 592.865,-110.495 602.5,-89 608.867,-74.7963 620.315,-62.5268 632.08,-52.7649"/>
<polygon fill="midnightblue" stroke="midnightblue" points="1305.12,-296.498 1315.16,-293.096 1305.19,-289.498 1305.12,-296.498"/>
</g>
<!-- Node16 -->
<g id="node15" class="node"><title>Node16</title>
<g id="a_node15"><a xlink:href="FormulaYAMLWrapper_8h.html" target="_top" xlink:title="/home/yukiosir/workspace\l/CompilerProject/Software\l/pinhao/include/pinhao/Support\l/FormulaYAMLWrapper.h">
<polygon fill="white" stroke="black" points="1055.5,-178.5 1055.5,-230.5 1205.5,-230.5 1205.5,-178.5 1055.5,-178.5"/>
<text text-anchor="start" x="1063.5" y="-218.5" font-family="Helvetica,sans-Serif" font-size="10.00">/home/yukiosir/workspace</text>
<text text-anchor="start" x="1063.5" y="-207.5" font-family="Helvetica,sans-Serif" font-size="10.00">/CompilerProject/Software</text>
<text text-anchor="start" x="1063.5" y="-196.5" font-family="Helvetica,sans-Serif" font-size="10.00">/pinhao/include/pinhao/Support</text>
<text text-anchor="middle" x="1130.5" y="-185.5" font-family="Helvetica,sans-Serif" font-size="10.00">/FormulaYAMLWrapper.h</text>
</a>
</g>
</g>
<!-- Node2&#45;&gt;Node16 -->
<g id="edge18" class="edge"><title>Node2&#45;&gt;Node16</title>
<path fill="none" stroke="midnightblue" d="M1306.16,-264.278C1273.66,-253.405 1236.81,-241.072 1205.28,-230.521"/>
<polygon fill="midnightblue" stroke="midnightblue" points="1305.05,-267.599 1315.65,-267.453 1307.27,-260.96 1305.05,-267.599"/>
</g>
<!-- Node19 -->
<g id="node18" class="node"><title>Node19</title>
<g id="a_node18"><a xlink:href="GEOSWrapper_8cpp.html" target="_top" xlink:title="/home/yukiosir/workspace\l/CompilerProject/Software\l/pinhao/lib/PerformanceAnalyser\l/GEOSWrapper.cpp">
<polygon fill="white" stroke="black" points="1223.5,-178.5 1223.5,-230.5 1381.5,-230.5 1381.5,-178.5 1223.5,-178.5"/>
<text text-anchor="start" x="1231.5" y="-218.5" font-family="Helvetica,sans-Serif" font-size="10.00">/home/yukiosir/workspace</text>
<text text-anchor="start" x="1231.5" y="-207.5" font-family="Helvetica,sans-Serif" font-size="10.00">/CompilerProject/Software</text>
<text text-anchor="start" x="1231.5" y="-196.5" font-family="Helvetica,sans-Serif" font-size="10.00">/pinhao/lib/PerformanceAnalyser</text>
<text text-anchor="middle" x="1302.5" y="-185.5" font-family="Helvetica,sans-Serif" font-size="10.00">/GEOSWrapper.cpp</text>
</a>
</g>
</g>
<!-- Node2&#45;&gt;Node19 -->
<g id="edge22" class="edge"><title>Node2&#45;&gt;Node19</title>
<path fill="none" stroke="midnightblue" d="M1357.7,-260.077C1347.85,-250.335 1337.19,-239.8 1327.9,-230.607"/>
<polygon fill="midnightblue" stroke="midnightblue" points="1355.47,-262.794 1365.05,-267.336 1360.4,-257.816 1355.47,-262.794"/>
</g>
<!-- Node20 -->
<g id="node19" class="node"><title>Node20</title>
<g id="a_node19"><a xlink:href="SProfWrapper_8cpp.html" target="_top" xlink:title="/home/yukiosir/workspace\l/CompilerProject/Software\l/pinhao/lib/PerformanceAnalyser\l/SProfWrapper.cpp">
<polygon fill="white" stroke="black" points="1399.5,-178.5 1399.5,-230.5 1557.5,-230.5 1557.5,-178.5 1399.5,-178.5"/>
<text text-anchor="start" x="1407.5" y="-218.5" font-family="Helvetica,sans-Serif" font-size="10.00">/home/yukiosir/workspace</text>
<text text-anchor="start" x="1407.5" y="-207.5" font-family="Helvetica,sans-Serif" font-size="10.00">/CompilerProject/Software</text>
<text text-anchor="start" x="1407.5" y="-196.5" font-family="Helvetica,sans-Serif" font-size="10.00">/pinhao/lib/PerformanceAnalyser</text>
<text text-anchor="middle" x="1478.5" y="-185.5" font-family="Helvetica,sans-Serif" font-size="10.00">/SProfWrapper.cpp</text>
</a>
</g>
</g>
<!-- Node2&#45;&gt;Node20 -->
<g id="edge23" class="edge"><title>Node2&#45;&gt;Node20</title>
<path fill="none" stroke="midnightblue" d="M1423.3,-260.077C1433.15,-250.335 1443.81,-239.8 1453.1,-230.607"/>
<polygon fill="midnightblue" stroke="midnightblue" points="1420.6,-257.816 1415.95,-267.336 1425.53,-262.794 1420.6,-257.816"/>
</g>
<!-- Node21 -->
<g id="node20" class="node"><title>Node21</title>
<g id="a_node20"><a xlink:href="YamlOptions_8cpp.html" target="_top" xlink:title="/home/yukiosir/workspace\l/CompilerProject/Software\l/pinhao/lib/Support/YamlOptions.cpp">
<polygon fill="white" stroke="black" points="1575.5,-184 1575.5,-225 1751.5,-225 1751.5,-184 1575.5,-184"/>
<text text-anchor="start" x="1583.5" y="-213" font-family="Helvetica,sans-Serif" font-size="10.00">/home/yukiosir/workspace</text>
<text text-anchor="start" x="1583.5" y="-202" font-family="Helvetica,sans-Serif" font-size="10.00">/CompilerProject/Software</text>
<text text-anchor="middle" x="1663.5" y="-191" font-family="Helvetica,sans-Serif" font-size="10.00">/pinhao/lib/Support/YamlOptions.cpp</text>
</a>
</g>
</g>
<!-- Node2&#45;&gt;Node21 -->
<g id="edge24" class="edge"><title>Node2&#45;&gt;Node21</title>
<path fill="none" stroke="midnightblue" d="M1475.54,-265.4C1516.56,-252.326 1564.85,-236.937 1602.21,-225.031"/>
<polygon fill="midnightblue" stroke="midnightblue" points="1474.29,-262.125 1465.82,-268.497 1476.41,-268.795 1474.29,-262.125"/>
</g>
<!-- Node22 -->
<g id="node21" class="node"><title>Node22</title>
<g id="a_node21"><a xlink:href="OptimizerYAMLWrapper_8cpp.html" target="_top" xlink:title="/home/yukiosir/workspace\l/CompilerProject/Software\l/pinhao/lib/Support/YAMLWrapper\l/OptimizerYAMLWrapper.cpp">
<polygon fill="white" stroke="black" points="1769.5,-178.5 1769.5,-230.5 1933.5,-230.5 1933.5,-178.5 1769.5,-178.5"/>
<text text-anchor="start" x="1777.5" y="-218.5" font-family="Helvetica,sans-Serif" font-size="10.00">/home/yukiosir/workspace</text>
<text text-anchor="start" x="1777.5" y="-207.5" font-family="Helvetica,sans-Serif" font-size="10.00">/CompilerProject/Software</text>
<text text-anchor="start" x="1777.5" y="-196.5" font-family="Helvetica,sans-Serif" font-size="10.00">/pinhao/lib/Support/YAMLWrapper</text>
<text text-anchor="middle" x="1851.5" y="-185.5" font-family="Helvetica,sans-Serif" font-size="10.00">/OptimizerYAMLWrapper.cpp</text>
</a>
</g>
</g>
<!-- Node2&#45;&gt;Node22 -->
<g id="edge25" class="edge"><title>Node2&#45;&gt;Node22</title>
<path fill="none" stroke="midnightblue" d="M1475.64,-281.029C1550.96,-270.244 1663.63,-252.557 1760.5,-231 1763.38,-230.358 1766.31,-229.681 1769.26,-228.976"/>
<polygon fill="midnightblue" stroke="midnightblue" points="1475.13,-277.565 1465.72,-282.439 1476.12,-284.496 1475.13,-277.565"/>
</g>
<!-- Node23 -->
<g id="node22" class="node"><title>Node23</title>
<g id="a_node22"><a xlink:href="YAMLWrapper_8cpp.html" target="_top" xlink:title="/home/yukiosir/workspace\l/CompilerProject/Software\l/pinhao/lib/Support/YAMLWrapper\l/YAMLWrapper.cpp">
<polygon fill="white" stroke="black" points="1951.5,-178.5 1951.5,-230.5 2115.5,-230.5 2115.5,-178.5 1951.5,-178.5"/>
<text text-anchor="start" x="1959.5" y="-218.5" font-family="Helvetica,sans-Serif" font-size="10.00">/home/yukiosir/workspace</text>
<text text-anchor="start" x="1959.5" y="-207.5" font-family="Helvetica,sans-Serif" font-size="10.00">/CompilerProject/Software</text>
<text text-anchor="start" x="1959.5" y="-196.5" font-family="Helvetica,sans-Serif" font-size="10.00">/pinhao/lib/Support/YAMLWrapper</text>
<text text-anchor="middle" x="2033.5" y="-185.5" font-family="Helvetica,sans-Serif" font-size="10.00">/YAMLWrapper.cpp</text>
</a>
</g>
</g>
<!-- Node2&#45;&gt;Node23 -->
<g id="edge26" class="edge"><title>Node2&#45;&gt;Node23</title>
<path fill="none" stroke="midnightblue" d="M1475.92,-287.298C1584.95,-279.674 1779.05,-262.787 1942.5,-231 1945.4,-230.436 1948.34,-229.826 1951.3,-229.178"/>
<polygon fill="midnightblue" stroke="midnightblue" points="1475.37,-283.828 1465.63,-288.007 1475.85,-290.811 1475.37,-283.828"/>
</g>
<!-- Node4 -->
<g id="node3" class="node"><title>Node4</title>
<g id="a_node3"><a xlink:href="MapFeature_8h.html" target="_top" xlink:title="/home/yukiosir/workspace\l/CompilerProject/Software\l/pinhao/include/pinhao/Features\l/MapFeature.h">
<polygon fill="white" stroke="black" points="400,-89.5 400,-141.5 555,-141.5 555,-89.5 400,-89.5"/>
<text text-anchor="start" x="408" y="-129.5" font-family="Helvetica,sans-Serif" font-size="10.00">/home/yukiosir/workspace</text>
<text text-anchor="start" x="408" y="-118.5" font-family="Helvetica,sans-Serif" font-size="10.00">/CompilerProject/Software</text>
<text text-anchor="start" x="408" y="-107.5" font-family="Helvetica,sans-Serif" font-size="10.00">/pinhao/include/pinhao/Features</text>
<text text-anchor="middle" x="477.5" y="-96.5" font-family="Helvetica,sans-Serif" font-size="10.00">/MapFeature.h</text>
</a>
</g>
</g>
<!-- Node3&#45;&gt;Node4 -->
<g id="edge2" class="edge"><title>Node3&#45;&gt;Node4</title>
<path fill="none" stroke="midnightblue" d="M786.278,-185.907C717.576,-171.084 621.831,-149.949 555.209,-134.903"/>
<polygon fill="midnightblue" stroke="midnightblue" points="785.698,-189.362 796.211,-188.046 787.172,-182.519 785.698,-189.362"/>
</g>
<!-- Node8 -->
<g id="node7" class="node"><title>Node8</title>
<g id="a_node7"><a xlink:href="MapVectorFeature_8h.html" target="_top" xlink:title="/home/yukiosir/workspace\l/CompilerProject/Software\l/pinhao/include/pinhao/Features\l/MapVectorFeature.h">
<polygon fill="white" stroke="black" points="794,-89.5 794,-141.5 949,-141.5 949,-89.5 794,-89.5"/>
<text text-anchor="start" x="802" y="-129.5" font-family="Helvetica,sans-Serif" font-size="10.00">/home/yukiosir/workspace</text>
<text text-anchor="start" x="802" y="-118.5" font-family="Helvetica,sans-Serif" font-size="10.00">/CompilerProject/Software</text>
<text text-anchor="start" x="802" y="-107.5" font-family="Helvetica,sans-Serif" font-size="10.00">/pinhao/include/pinhao/Features</text>
<text text-anchor="middle" x="871.5" y="-96.5" font-family="Helvetica,sans-Serif" font-size="10.00">/MapVectorFeature.h</text>
</a>
</g>
</g>
<!-- Node3&#45;&gt;Node8 -->
<g id="edge7" class="edge"><title>Node3&#45;&gt;Node8</title>
<path fill="none" stroke="midnightblue" d="M864.858,-168.191C864.621,-159.282 864.775,-149.899 865.318,-141.607"/>
<polygon fill="midnightblue" stroke="midnightblue" points="861.368,-168.503 865.314,-178.336 868.361,-168.189 861.368,-168.503"/>
</g>
<!-- Node12 -->
<g id="node11" class="node"><title>Node12</title>
<g id="a_node11"><a xlink:href="VectorFeature_8h.html" target="_top" xlink:title="/home/yukiosir/workspace\l/CompilerProject/Software\l/pinhao/include/pinhao/Features\l/VectorFeature.h">
<polygon fill="white" stroke="black" points="967,-89.5 967,-141.5 1122,-141.5 1122,-89.5 967,-89.5"/>
<text text-anchor="start" x="975" y="-129.5" font-family="Helvetica,sans-Serif" font-size="10.00">/home/yukiosir/workspace</text>
<text text-anchor="start" x="975" y="-118.5" font-family="Helvetica,sans-Serif" font-size="10.00">/CompilerProject/Software</text>
<text text-anchor="start" x="975" y="-107.5" font-family="Helvetica,sans-Serif" font-size="10.00">/pinhao/include/pinhao/Features</text>
<text text-anchor="middle" x="1044.5" y="-96.5" font-family="Helvetica,sans-Serif" font-size="10.00">/VectorFeature.h</text>
</a>
</g>
</g>
<!-- Node3&#45;&gt;Node12 -->
<g id="edge12" class="edge"><title>Node3&#45;&gt;Node12</title>
<path fill="none" stroke="midnightblue" d="M924.44,-173.635C944.701,-163.205 967.844,-151.611 988.391,-141.607"/>
<polygon fill="midnightblue" stroke="midnightblue" points="922.627,-170.633 915.353,-178.336 925.843,-176.85 922.627,-170.633"/>
</g>
<!-- Node15 -->
<g id="node14" class="node"><title>Node15</title>
<g id="a_node14"><a xlink:href="FeatureYAMLWrapper_8cpp.html" target="_top" xlink:title="/home/yukiosir/workspace\l/CompilerProject/Software\l/pinhao/lib/Support/YAMLWrapper\l/FeatureYAMLWrapper.cpp">
<polygon fill="white" stroke="black" points="611.5,-89.5 611.5,-141.5 775.5,-141.5 775.5,-89.5 611.5,-89.5"/>
<text text-anchor="start" x="619.5" y="-129.5" font-family="Helvetica,sans-Serif" font-size="10.00">/home/yukiosir/workspace</text>
<text text-anchor="start" x="619.5" y="-118.5" font-family="Helvetica,sans-Serif" font-size="10.00">/CompilerProject/Software</text>
<text text-anchor="start" x="619.5" y="-107.5" font-family="Helvetica,sans-Serif" font-size="10.00">/pinhao/lib/Support/YAMLWrapper</text>
<text text-anchor="middle" x="693.5" y="-96.5" font-family="Helvetica,sans-Serif" font-size="10.00">/FeatureYAMLWrapper.cpp</text>
</a>
</g>
</g>
<!-- Node3&#45;&gt;Node15 -->
<g id="edge17" class="edge"><title>Node3&#45;&gt;Node15</title>
<path fill="none" stroke="midnightblue" d="M810.974,-173.917C789.485,-163.414 765.52,-151.701 744.869,-141.607"/>
<polygon fill="midnightblue" stroke="midnightblue" points="809.494,-177.089 820.015,-178.336 812.568,-170.8 809.494,-177.089"/>
</g>
<!-- Node4&#45;&gt;Node3 -->
<g id="edge3" class="edge"><title>Node4&#45;&gt;Node3</title>
<path fill="none" stroke="midnightblue" d="M565.196,-134.627C634.614,-149.615 730.463,-170.782 796.388,-185.684"/>
<polygon fill="midnightblue" stroke="midnightblue" points="565.666,-131.148 555.153,-132.462 564.191,-137.991 565.666,-131.148"/>
</g>
<!-- Node5 -->
<g id="node4" class="node"><title>Node5</title>
<g id="a_node4"><a xlink:href="FunctionsGeneFeature_8cpp.html" target="_top" xlink:title="/home/yukiosir/workspace\l/CompilerProject/Software\l/pinhao/lib/FeaturesImpl\l/FunctionsGeneFeature.cpp">
<polygon fill="white" stroke="black" points="257,-0.5 257,-52.5 394,-52.5 394,-0.5 257,-0.5"/>
<text text-anchor="start" x="265" y="-40.5" font-family="Helvetica,sans-Serif" font-size="10.00">/home/yukiosir/workspace</text>
<text text-anchor="start" x="265" y="-29.5" font-family="Helvetica,sans-Serif" font-size="10.00">/CompilerProject/Software</text>
<text text-anchor="start" x="265" y="-18.5" font-family="Helvetica,sans-Serif" font-size="10.00">/pinhao/lib/FeaturesImpl</text>
<text text-anchor="middle" x="325.5" y="-7.5" font-family="Helvetica,sans-Serif" font-size="10.00">/FunctionsGeneFeature.cpp</text>
</a>
</g>
</g>
<!-- Node4&#45;&gt;Node5 -->
<g id="edge4" class="edge"><title>Node4&#45;&gt;Node5</title>
<path fill="none" stroke="midnightblue" d="M424.83,-84.3532C406.735,-73.9962 386.686,-62.5208 369.366,-52.6075"/>
<polygon fill="midnightblue" stroke="midnightblue" points="423.118,-87.406 433.535,-89.336 426.595,-81.3308 423.118,-87.406"/>
</g>
<!-- Node6 -->
<g id="node5" class="node"><title>Node6</title>
<g id="a_node5"><a xlink:href="FunctionStaticCostFeature_8cpp.html" target="_top" xlink:title="/home/yukiosir/workspace\l/CompilerProject/Software\l/pinhao/lib/FeaturesImpl\l/FunctionStaticCostFeature.cpp">
<polygon fill="white" stroke="black" points="412,-0.5 412,-52.5 567,-52.5 567,-0.5 412,-0.5"/>
<text text-anchor="start" x="420" y="-40.5" font-family="Helvetica,sans-Serif" font-size="10.00">/home/yukiosir/workspace</text>
<text text-anchor="start" x="420" y="-29.5" font-family="Helvetica,sans-Serif" font-size="10.00">/CompilerProject/Software</text>
<text text-anchor="start" x="420" y="-18.5" font-family="Helvetica,sans-Serif" font-size="10.00">/pinhao/lib/FeaturesImpl</text>
<text text-anchor="middle" x="489.5" y="-7.5" font-family="Helvetica,sans-Serif" font-size="10.00">/FunctionStaticCostFeature.cpp</text>
</a>
</g>
</g>
<!-- Node4&#45;&gt;Node6 -->
<g id="edge5" class="edge"><title>Node4&#45;&gt;Node6</title>
<path fill="none" stroke="midnightblue" d="M482.37,-79.1908C483.599,-70.2824 484.893,-60.8986 486.037,-52.6075"/>
<polygon fill="midnightblue" stroke="midnightblue" points="478.87,-78.9515 480.971,-89.336 485.805,-79.908 478.87,-78.9515"/>
</g>
<!-- Node7 -->
<g id="node6" class="node"><title>Node7</title>
<g id="a_node6"><a xlink:href="GEOSBasicBlockFreqFeature_8cpp.html" target="_top" xlink:title="/home/yukiosir/workspace\l/CompilerProject/Software\l/pinhao/lib/FeaturesImpl\l/GEOSFeatures/GEOSBasicBlockFreqFeature.cpp">
<polygon fill="white" stroke="black" points="0,-0.5 0,-52.5 239,-52.5 239,-0.5 0,-0.5"/>
<text text-anchor="start" x="8" y="-40.5" font-family="Helvetica,sans-Serif" font-size="10.00">/home/yukiosir/workspace</text>
<text text-anchor="start" x="8" y="-29.5" font-family="Helvetica,sans-Serif" font-size="10.00">/CompilerProject/Software</text>
<text text-anchor="start" x="8" y="-18.5" font-family="Helvetica,sans-Serif" font-size="10.00">/pinhao/lib/FeaturesImpl</text>
<text text-anchor="middle" x="119.5" y="-7.5" font-family="Helvetica,sans-Serif" font-size="10.00">/GEOSFeatures/GEOSBasicBlockFreqFeature.cpp</text>
</a>
</g>
</g>
<!-- Node4&#45;&gt;Node7 -->
<g id="edge6" class="edge"><title>Node4&#45;&gt;Node7</title>
<path fill="none" stroke="midnightblue" d="M389.892,-93.2097C339.331,-80.9227 275.477,-65.4049 222.518,-52.535"/>
<polygon fill="midnightblue" stroke="midnightblue" points="389.276,-96.6618 399.819,-95.6223 390.929,-89.8598 389.276,-96.6618"/>
</g>
<!-- Node8&#45;&gt;Node3 -->
<g id="edge8" class="edge"><title>Node8&#45;&gt;Node3</title>
<path fill="none" stroke="midnightblue" d="M878.141,-151.749C878.379,-160.655 878.227,-170.04 877.686,-178.336"/>
<polygon fill="midnightblue" stroke="midnightblue" points="881.631,-151.439 877.682,-141.607 874.638,-151.755 881.631,-151.439"/>
</g>
<!-- Node8&#45;&gt;Node9 -->
<g id="edge9" class="edge"><title>Node8&#45;&gt;Node9</title>
<path fill="none" stroke="midnightblue" d="M804.685,-85.4355C780.169,-74.7708 752.65,-62.8004 729.02,-52.5211"/>
<polygon fill="midnightblue" stroke="midnightblue" points="803.354,-88.6732 813.92,-89.4527 806.146,-82.2542 803.354,-88.6732"/>
</g>
<!-- Node10 -->
<g id="node9" class="node"><title>Node10</title>
<g id="a_node9"><a xlink:href="CFGFunctionStaticFeatures_8cpp.html" target="_top" xlink:title="This file implements the CFGFunctionStaticFeatures class. ">
<polygon fill="white" stroke="black" points="776,-0.5 776,-52.5 937,-52.5 937,-0.5 776,-0.5"/>
<text text-anchor="start" x="784" y="-40.5" font-family="Helvetica,sans-Serif" font-size="10.00">/home/yukiosir/workspace</text>
<text text-anchor="start" x="784" y="-29.5" font-family="Helvetica,sans-Serif" font-size="10.00">/CompilerProject/Software</text>
<text text-anchor="start" x="784" y="-18.5" font-family="Helvetica,sans-Serif" font-size="10.00">/pinhao/lib/FeaturesImpl</text>
<text text-anchor="middle" x="856.5" y="-7.5" font-family="Helvetica,sans-Serif" font-size="10.00">/CFGFunctionStaticFeatures.cpp</text>
</a>
</g>
</g>
<!-- Node8&#45;&gt;Node10 -->
<g id="edge10" class="edge"><title>Node8&#45;&gt;Node10</title>
<path fill="none" stroke="midnightblue" d="M865.462,-79.4811C863.911,-70.4865 862.274,-60.9887 860.829,-52.6075"/>
<polygon fill="midnightblue" stroke="midnightblue" points="862.013,-80.0761 867.161,-89.336 868.911,-78.8867 862.013,-80.0761"/>
</g>
<!-- Node11 -->
<g id="node10" class="node"><title>Node11</title>
<g id="a_node10"><a xlink:href="CFGModuleStaticFeatures_8cpp.html" target="_top" xlink:title="/home/yukiosir/workspace\l/CompilerProject/Software\l/pinhao/lib/FeaturesImpl\l/CFGModuleStaticFeatures.cpp">
<polygon fill="white" stroke="black" points="955,-0.5 955,-52.5 1110,-52.5 1110,-0.5 955,-0.5"/>
<text text-anchor="start" x="963" y="-40.5" font-family="Helvetica,sans-Serif" font-size="10.00">/home/yukiosir/workspace</text>
<text text-anchor="start" x="963" y="-29.5" font-family="Helvetica,sans-Serif" font-size="10.00">/CompilerProject/Software</text>
<text text-anchor="start" x="963" y="-18.5" font-family="Helvetica,sans-Serif" font-size="10.00">/pinhao/lib/FeaturesImpl</text>
<text text-anchor="middle" x="1032.5" y="-7.5" font-family="Helvetica,sans-Serif" font-size="10.00">/CFGModuleStaticFeatures.cpp</text>
</a>
</g>
</g>
<!-- Node8&#45;&gt;Node11 -->
<g id="edge11" class="edge"><title>Node8&#45;&gt;Node11</title>
<path fill="none" stroke="midnightblue" d="M927.028,-84.4944C946.262,-74.1005 967.608,-62.5658 986.037,-52.6075"/>
<polygon fill="midnightblue" stroke="midnightblue" points="925.202,-81.5027 918.068,-89.336 928.529,-87.6611 925.202,-81.5027"/>
</g>
<!-- Node12&#45;&gt;Node3 -->
<g id="edge13" class="edge"><title>Node12&#45;&gt;Node3</title>
<path fill="none" stroke="midnightblue" d="M991.675,-146.306C971.424,-156.732 948.282,-168.327 927.725,-178.336"/>
<polygon fill="midnightblue" stroke="midnightblue" points="993.482,-149.311 1000.76,-141.607 990.266,-143.094 993.482,-149.311"/>
</g>
<!-- Node12&#45;&gt;Node11 -->
<g id="edge14" class="edge"><title>Node12&#45;&gt;Node11</title>
<path fill="none" stroke="midnightblue" d="M1039.63,-79.1908C1038.4,-70.2824 1037.11,-60.8986 1035.96,-52.6075"/>
<polygon fill="midnightblue" stroke="midnightblue" points="1036.2,-79.908 1041.03,-89.336 1043.13,-78.9515 1036.2,-79.908"/>
</g>
<!-- Node13 -->
<g id="node12" class="node"><title>Node13</title>
<g id="a_node12"><a xlink:href="GEOSFeatures_8cpp.html" target="_top" xlink:title="/home/yukiosir/workspace\l/CompilerProject/Software\l/pinhao/lib/FeaturesImpl\l/GEOSFeatures/GEOSFeatures.cpp">
<polygon fill="white" stroke="black" points="1128,-0.5 1128,-52.5 1303,-52.5 1303,-0.5 1128,-0.5"/>
<text text-anchor="start" x="1136" y="-40.5" font-family="Helvetica,sans-Serif" font-size="10.00">/home/yukiosir/workspace</text>
<text text-anchor="start" x="1136" y="-29.5" font-family="Helvetica,sans-Serif" font-size="10.00">/CompilerProject/Software</text>
<text text-anchor="start" x="1136" y="-18.5" font-family="Helvetica,sans-Serif" font-size="10.00">/pinhao/lib/FeaturesImpl</text>
<text text-anchor="middle" x="1215.5" y="-7.5" font-family="Helvetica,sans-Serif" font-size="10.00">/GEOSFeatures/GEOSFeatures.cpp</text>
</a>
</g>
</g>
<!-- Node12&#45;&gt;Node13 -->
<g id="edge15" class="edge"><title>Node12&#45;&gt;Node13</title>
<path fill="none" stroke="midnightblue" d="M1102.92,-84.7763C1123.5,-74.3094 1146.4,-62.656 1166.15,-52.6075"/>
<polygon fill="midnightblue" stroke="midnightblue" points="1101.29,-81.6819 1093.96,-89.336 1104.46,-87.9208 1101.29,-81.6819"/>
</g>
<!-- Node14 -->
<g id="node13" class="node"><title>Node14</title>
<g id="a_node13"><a xlink:href="PAPIMultFeatures_8cpp.html" target="_top" xlink:title="This file implements the features extracted by the PAPI tool by multiplexing. ">
<polygon fill="white" stroke="black" points="1321,-0.5 1321,-52.5 1452,-52.5 1452,-0.5 1321,-0.5"/>
<text text-anchor="start" x="1329" y="-40.5" font-family="Helvetica,sans-Serif" font-size="10.00">/home/yukiosir/workspace</text>
<text text-anchor="start" x="1329" y="-29.5" font-family="Helvetica,sans-Serif" font-size="10.00">/CompilerProject/Software</text>
<text text-anchor="start" x="1329" y="-18.5" font-family="Helvetica,sans-Serif" font-size="10.00">/pinhao/lib/FeaturesImpl</text>
<text text-anchor="middle" x="1386.5" y="-7.5" font-family="Helvetica,sans-Serif" font-size="10.00">/PAPIMultFeatures.cpp</text>
</a>
</g>
</g>
<!-- Node12&#45;&gt;Node14 -->
<g id="edge16" class="edge"><title>Node12&#45;&gt;Node14</title>
<path fill="none" stroke="midnightblue" d="M1132.27,-88.9176C1212.53,-69.8329 1235.79,-73.3489 1311.5,-53 1314.55,-52.179 1317.67,-51.2996 1320.8,-50.3791"/>
<polygon fill="midnightblue" stroke="midnightblue" points="1131.09,-85.6029 1122.2,-91.3602 1132.74,-92.4058 1131.09,-85.6029"/>
</g>
<!-- Node17 -->
<g id="node16" class="node"><title>Node17</title>
<g id="a_node16"><a xlink:href="Formula_8cpp.html" target="_top" xlink:title="/home/yukiosir/workspace\l/CompilerProject/Software\l/pinhao/lib/MachineLearning\l/GrammarEvolution/Formula.cpp">
<polygon fill="white" stroke="black" points="1322.5,-89.5 1322.5,-141.5 1480.5,-141.5 1480.5,-89.5 1322.5,-89.5"/>
<text text-anchor="start" x="1330.5" y="-129.5" font-family="Helvetica,sans-Serif" font-size="10.00">/home/yukiosir/workspace</text>
<text text-anchor="start" x="1330.5" y="-118.5" font-family="Helvetica,sans-Serif" font-size="10.00">/CompilerProject/Software</text>
<text text-anchor="start" x="1330.5" y="-107.5" font-family="Helvetica,sans-Serif" font-size="10.00">/pinhao/lib/MachineLearning</text>
<text text-anchor="middle" x="1401.5" y="-96.5" font-family="Helvetica,sans-Serif" font-size="10.00">/GrammarEvolution/Formula.cpp</text>
</a>
</g>
</g>
<!-- Node16&#45;&gt;Node17 -->
<g id="edge19" class="edge"><title>Node16&#45;&gt;Node17</title>
<path fill="none" stroke="midnightblue" d="M1215.23,-176.298C1249.8,-165.199 1289.53,-152.446 1323.39,-141.576"/>
<polygon fill="midnightblue" stroke="midnightblue" points="1214.08,-172.992 1205.63,-179.381 1216.22,-179.657 1214.08,-172.992"/>
</g>
<!-- Node18 -->
<g id="node17" class="node"><title>Node18</title>
<g id="a_node17"><a xlink:href="FormulaYAMLWrapper_8cpp.html" target="_top" xlink:title="/home/yukiosir/workspace\l/CompilerProject/Software\l/pinhao/lib/Support/YAMLWrapper\l/FormulaYAMLWrapper.cpp">
<polygon fill="white" stroke="black" points="1140.5,-89.5 1140.5,-141.5 1304.5,-141.5 1304.5,-89.5 1140.5,-89.5"/>
<text text-anchor="start" x="1148.5" y="-129.5" font-family="Helvetica,sans-Serif" font-size="10.00">/home/yukiosir/workspace</text>
<text text-anchor="start" x="1148.5" y="-118.5" font-family="Helvetica,sans-Serif" font-size="10.00">/CompilerProject/Software</text>
<text text-anchor="start" x="1148.5" y="-107.5" font-family="Helvetica,sans-Serif" font-size="10.00">/pinhao/lib/Support/YAMLWrapper</text>
<text text-anchor="middle" x="1222.5" y="-96.5" font-family="Helvetica,sans-Serif" font-size="10.00">/FormulaYAMLWrapper.cpp</text>
</a>
</g>
</g>
<!-- Node16&#45;&gt;Node18 -->
<g id="edge20" class="edge"><title>Node16&#45;&gt;Node18</title>
<path fill="none" stroke="midnightblue" d="M1164.48,-171.363C1174.87,-161.542 1186.13,-150.89 1195.95,-141.607"/>
<polygon fill="midnightblue" stroke="midnightblue" points="1161.97,-168.922 1157.11,-178.336 1166.78,-174.008 1161.97,-168.922"/>
</g>
</g>
</svg>
        <g id="navigator" transform="translate(0 0)" fill="#404254">
                <rect fill="#f2f5e9" fill-opacity="0.5" stroke="#606060" stroke-width=".5" x="0" y="0" width="60" height="60"/>
                <use id="zoomplus" xlink:href="#zoomPlus" x="17" y="9" onmousedown="handleZoom(evt,'in')"/>
                <use id="zoomminus" xlink:href="#zoomMin" x="42" y="9" onmousedown="handleZoom(evt,'out')"/>
                <use id="reset" xlink:href="#resetDef" x="30" y="36" onmousedown="handleReset()"/>
                <g id="arrowUp" xlink:href="#dirArrow" transform="translate(30 24)" onmousedown="handlePan(0,-1)">
                  <use xlink:href="#rim" fill="#404040">
                        <set attributeName="fill" to="#808080" begin="arrowUp.mouseover" end="arrowUp.mouseout"/>
                  </use>
                  <path fill="none" stroke="white" stroke-width="1.5" d="M0,-3.0v7 M-2.5,-0.5L0,-3.0L2.5,-0.5"/>
                </g>
                <g id="arrowRight" xlink:href="#dirArrow" transform="rotate(90) translate(36 -43)" onmousedown="handlePan(1,0)">
                  <use xlink:href="#rim" fill="#404040">
                        <set attributeName="fill" to="#808080" begin="arrowRight.mouseover" end="arrowRight.mouseout"/>
                  </use>
                  <path fill="none" stroke="white" stroke-width="1.5" d="M0,-3.0v7 M-2.5,-0.5L0,-3.0L2.5,-0.5"/>
                </g>
                <g id="arrowDown" xlink:href="#dirArrow" transform="rotate(180) translate(-30 -48)" onmousedown="handlePan(0,1)">
                  <use xlink:href="#rim" fill="#404040">
                        <set attributeName="fill" to="#808080" begin="arrowDown.mouseover" end="arrowDown.mouseout"/>
                  </use>
                  <path fill="none" stroke="white" stroke-width="1.5" d="M0,-3.0v7 M-2.5,-0.5L0,-3.0L2.5,-0.5"/>
                </g>
                <g id="arrowLeft" xlink:href="#dirArrow" transform="rotate(270) translate(-36 17)" onmousedown="handlePan(-1,0)">
                  <use xlink:href="#rim" fill="#404040">
                        <set attributeName="fill" to="#808080" begin="arrowLeft.mouseover" end="arrowLeft.mouseout"/>
                  </use>
                  <path fill="none" stroke="white" stroke-width="1.5" d="M0,-3.0v7 M-2.5,-0.5L0,-3.0L2.5,-0.5"/>
                </g>
        </g>
        <svg viewBox="0 0 15 15" width="100%" height="30px" preserveAspectRatio="xMaxYMin meet">
         <g id="arrow_out" transform="scale(0.3 0.3)">
          <a xlink:href="YamlOptions_8h__dep__incl_org.svg" target="_base">
           <rect id="button" ry="5" rx="5" y="6" x="6" height="38" width="38"
                fill="#f2f5e9" fill-opacity="0.5" stroke="#606060" stroke-width="1.0"/>
           <path id="arrow"
             d="M 11.500037,31.436501 C 11.940474,20.09759 22.043105,11.32322 32.158766,21.979434 L 37.068811,17.246167 C 37.068811,17.246167 37.088388,32 37.088388,32 L 22.160133,31.978069 C 22.160133,31.978069 26.997745,27.140456 26.997745,27.140456 C 18.528582,18.264221 13.291696,25.230495 11.500037,31.436501 z"
             style="fill:#404040;"/>
          </a>
         </g>
        </svg>
</svg>
