<?xml version="1.0" encoding="UTF-8" standalone="no"?>
<!DOCTYPE svg PUBLIC "-//W3C//DTD SVG 1.1//EN"
 "http://www.w3.org/Graphics/SVG/1.1/DTD/svg11.dtd">
<!-- Generated by graphviz version 2.38.0 (20140413.2041)
 -->
<!-- Title: /home/yukiosir/workspace/CompilerProject/Software/pinhao/lib/Support/YAMLWrapper/YAMLWrapper.cpp Pages: 1 -->
<svg width="332pt" height="173pt"
 viewBox="0.00 0.00 332.00 173.00" xmlns="http://www.w3.org/2000/svg" xmlns:xlink="http://www.w3.org/1999/xlink">
<g id="graph0" class="graph" transform="scale(1 1) rotate(0) translate(4 169)">
<title>/home/yukiosir/workspace/CompilerProject/Software/pinhao/lib/Support/YAMLWrapper/YAMLWrapper.cpp</title>
<polygon fill="white" stroke="none" points="-4,4 -4,-169 328,-169 328,4 -4,4"/>
<!-- Node0 -->
<g id="node1" class="node"><title>Node0</title>
<polygon fill="#bfbfbf" stroke="black" points="77.5,-112.5 77.5,-164.5 241.5,-164.5 241.5,-112.5 77.5,-112.5"/>
<text text-anchor="start" x="85.5" y="-152.5" font-family="Helvetica,sans-Serif" font-size="10.00">/home/yukiosir/workspace</text>
<text text-anchor="start" x="85.5" y="-141.5" font-family="Helvetica,sans-Serif" font-size="10.00">/CompilerProject/Software</text>
<text text-anchor="start" x="85.5" y="-130.5" font-family="Helvetica,sans-Serif" font-size="10.00">/pinhao/lib/Support/YAMLWrapper</text>
<text text-anchor="middle" x="159.5" y="-119.5" font-family="Helvetica,sans-Serif" font-size="10.00">/YAMLWrapper.cpp</text>
</g>
<!-- Node1 -->
<g id="node2" class="node"><title>Node1</title>
<g id="a_node2"><a xlink:href="YAMLWrapper_8h.html" target="_top" xlink:title="pinhao/Support/YAMLWrapper.h">
<polygon fill="white" stroke="black" points="167,-56.5 167,-75.5 324,-75.5 324,-56.5 167,-56.5"/>
<text text-anchor="middle" x="245.5" y="-63.5" font-family="Helvetica,sans-Serif" font-size="10.00">pinhao/Support/YAMLWrapper.h</text>
</a>
</g>
</g>
<!-- Node0&#45;&gt;Node1 -->
<g id="edge1" class="edge"><title>Node0&#45;&gt;Node1</title>
<path fill="none" stroke="midnightblue" d="M190.063,-112.446C202.405,-102.328 216.244,-90.983 227.007,-82.1596"/>
<polygon fill="midnightblue" stroke="midnightblue" points="229.378,-84.742 234.893,-75.6955 224.94,-79.3285 229.378,-84.742"/>
</g>
<!-- Node5 -->
<g id="node6" class="node"><title>Node5</title>
<g id="a_node6"><a xlink:href="YamlOptions_8h.html" target="_top" xlink:title="pinhao/Support/YamlOptions.h">
<polygon fill="white" stroke="black" points="0,-56.5 0,-75.5 149,-75.5 149,-56.5 0,-56.5"/>
<text text-anchor="middle" x="74.5" y="-63.5" font-family="Helvetica,sans-Serif" font-size="10.00">pinhao/Support/YamlOptions.h</text>
</a>
</g>
</g>
<!-- Node0&#45;&gt;Node5 -->
<g id="edge5" class="edge"><title>Node0&#45;&gt;Node5</title>
<path fill="none" stroke="midnightblue" d="M129.293,-112.446C117.094,-102.328 103.416,-90.983 92.7775,-82.1596"/>
<polygon fill="midnightblue" stroke="midnightblue" points="94.9154,-79.3856 84.9839,-75.6955 90.4466,-84.7735 94.9154,-79.3856"/>
</g>
<!-- Node2 -->
<g id="node3" class="node"><title>Node2</title>
<polygon fill="white" stroke="#bfbfbf" points="70,-0.5 70,-19.5 159,-19.5 159,-0.5 70,-0.5"/>
<text text-anchor="middle" x="114.5" y="-7.5" font-family="Helvetica,sans-Serif" font-size="10.00">yaml&#45;cpp/yaml.h</text>
</g>
<!-- Node1&#45;&gt;Node2 -->
<g id="edge2" class="edge"><title>Node1&#45;&gt;Node2</title>
<path fill="none" stroke="midnightblue" d="M224.743,-56.4435C203.184,-47.5566 169.237,-33.5632 144.706,-23.4514"/>
<polygon fill="midnightblue" stroke="midnightblue" points="145.739,-20.0917 135.16,-19.5164 143.072,-26.5634 145.739,-20.0917"/>
</g>
<!-- Node3 -->
<g id="node4" class="node"><title>Node3</title>
<polygon fill="white" stroke="#bfbfbf" points="182.5,-0.5 182.5,-19.5 236.5,-19.5 236.5,-0.5 182.5,-0.5"/>
<text text-anchor="middle" x="209.5" y="-7.5" font-family="Helvetica,sans-Serif" font-size="10.00">iostream</text>
</g>
<!-- Node1&#45;&gt;Node3 -->
<g id="edge3" class="edge"><title>Node1&#45;&gt;Node3</title>
<path fill="none" stroke="midnightblue" d="M239.555,-56.083C234.523,-48.5341 227.163,-37.4948 220.987,-28.2298"/>
<polygon fill="midnightblue" stroke="midnightblue" points="223.793,-26.1301 215.334,-19.7511 217.969,-30.0131 223.793,-26.1301"/>
</g>
<!-- Node4 -->
<g id="node5" class="node"><title>Node4</title>
<polygon fill="white" stroke="#bfbfbf" points="254.5,-0.5 254.5,-19.5 306.5,-19.5 306.5,-0.5 254.5,-0.5"/>
<text text-anchor="middle" x="280.5" y="-7.5" font-family="Helvetica,sans-Serif" font-size="10.00">ostream</text>
</g>
<!-- Node1&#45;&gt;Node4 -->
<g id="edge4" class="edge"><title>Node1&#45;&gt;Node4</title>
<path fill="none" stroke="midnightblue" d="M251.28,-56.083C256.172,-48.5341 263.327,-37.4948 269.333,-28.2298"/>
<polygon fill="midnightblue" stroke="midnightblue" points="272.326,-30.0463 274.828,-19.7511 266.452,-26.239 272.326,-30.0463"/>
</g>
<!-- Node5&#45;&gt;Node2 -->
<g id="edge6" class="edge"><title>Node5&#45;&gt;Node2</title>
<path fill="none" stroke="midnightblue" d="M81.1052,-56.083C86.7552,-48.4554 95.0448,-37.2645 101.951,-27.9408"/>
<polygon fill="midnightblue" stroke="midnightblue" points="104.878,-29.87 108.018,-19.7511 99.2529,-25.7034 104.878,-29.87"/>
</g>
</g>
</svg>
