<?xml version="1.0" encoding="UTF-8" standalone="no"?>
<!DOCTYPE svg PUBLIC "-//W3C//DTD SVG 1.1//EN"
 "http://www.w3.org/Graphics/SVG/1.1/DTD/svg11.dtd">
<!-- Generated by graphviz version 2.38.0 (20140413.2041)
 -->
<!-- Title: /home/yukiosir/workspace/CompilerProject/Software/pinhao/include/pinhao/Support/YAMLWrapper.h Pages: 1 -->
<svg width="240pt" height="117pt"
 viewBox="0.00 0.00 239.50 117.00" xmlns="http://www.w3.org/2000/svg" xmlns:xlink="http://www.w3.org/1999/xlink">
<g id="graph0" class="graph" transform="scale(1 1) rotate(0) translate(4 113)">
<title>/home/yukiosir/workspace/CompilerProject/Software/pinhao/include/pinhao/Support/YAMLWrapper.h</title>
<polygon fill="white" stroke="none" points="-4,4 -4,-113 235.5,-113 235.5,4 -4,4"/>
<!-- Node0 -->
<g id="node1" class="node"><title>Node0</title>
<polygon fill="#bfbfbf" stroke="black" points="59.5,-56.5 59.5,-108.5 209.5,-108.5 209.5,-56.5 59.5,-56.5"/>
<text text-anchor="start" x="67.5" y="-96.5" font-family="Helvetica,sans-Serif" font-size="10.00">/home/yukiosir/workspace</text>
<text text-anchor="start" x="67.5" y="-85.5" font-family="Helvetica,sans-Serif" font-size="10.00">/CompilerProject/Software</text>
<text text-anchor="start" x="67.5" y="-74.5" font-family="Helvetica,sans-Serif" font-size="10.00">/pinhao/include/pinhao/Support</text>
<text text-anchor="middle" x="134.5" y="-63.5" font-family="Helvetica,sans-Serif" font-size="10.00">/YAMLWrapper.h</text>
</g>
<!-- Node1 -->
<g id="node2" class="node"><title>Node1</title>
<polygon fill="white" stroke="#bfbfbf" points="0,-0.5 0,-19.5 89,-19.5 89,-0.5 0,-0.5"/>
<text text-anchor="middle" x="44.5" y="-7.5" font-family="Helvetica,sans-Serif" font-size="10.00">yaml&#45;cpp/yaml.h</text>
</g>
<!-- Node0&#45;&gt;Node1 -->
<g id="edge1" class="edge"><title>Node0&#45;&gt;Node1</title>
<path fill="none" stroke="midnightblue" d="M102.516,-56.4458C89.4711,-46.2274 74.8297,-34.7583 63.5191,-25.8983"/>
<polygon fill="midnightblue" stroke="midnightblue" points="65.6312,-23.1068 55.6006,-19.6955 61.3146,-28.6174 65.6312,-23.1068"/>
</g>
<!-- Node2 -->
<g id="node3" class="node"><title>Node2</title>
<polygon fill="white" stroke="#bfbfbf" points="107.5,-0.5 107.5,-19.5 161.5,-19.5 161.5,-0.5 107.5,-0.5"/>
<text text-anchor="middle" x="134.5" y="-7.5" font-family="Helvetica,sans-Serif" font-size="10.00">iostream</text>
</g>
<!-- Node0&#45;&gt;Node2 -->
<g id="edge2" class="edge"><title>Node0&#45;&gt;Node2</title>
<path fill="none" stroke="midnightblue" d="M134.5,-56.4458C134.5,-47.7301 134.5,-38.1045 134.5,-29.9641"/>
<polygon fill="midnightblue" stroke="midnightblue" points="138,-29.6954 134.5,-19.6955 131,-29.6955 138,-29.6954"/>
</g>
<!-- Node3 -->
<g id="node4" class="node"><title>Node3</title>
<polygon fill="white" stroke="#bfbfbf" points="179.5,-0.5 179.5,-19.5 231.5,-19.5 231.5,-0.5 179.5,-0.5"/>
<text text-anchor="middle" x="205.5" y="-7.5" font-family="Helvetica,sans-Serif" font-size="10.00">ostream</text>
</g>
<!-- Node0&#45;&gt;Node3 -->
<g id="edge3" class="edge"><title>Node0&#45;&gt;Node3</title>
<path fill="none" stroke="midnightblue" d="M159.732,-56.4458C169.619,-46.6281 180.669,-35.6559 189.434,-26.9524"/>
<polygon fill="midnightblue" stroke="midnightblue" points="192.113,-29.2252 196.743,-19.6955 187.181,-24.2579 192.113,-29.2252"/>
</g>
</g>
</svg>
