<?xml version="1.0" encoding="UTF-8" standalone="no"?>
<!DOCTYPE svg PUBLIC "-//W3C//DTD SVG 1.1//EN"
 "http://www.w3.org/Graphics/SVG/1.1/DTD/svg11.dtd">
<!-- Generated by graphviz version 2.38.0 (20140413.2041)
 -->
<!-- Title: /home/yukiosir/workspace/CompilerProject/Software/pinhao/lib/Support/YamlOptions.cpp Pages: 1 -->
<svg width="283pt" height="162pt"
 viewBox="0.00 0.00 282.50 162.00" xmlns="http://www.w3.org/2000/svg" xmlns:xlink="http://www.w3.org/1999/xlink">
<g id="graph0" class="graph" transform="scale(1 1) rotate(0) translate(4 158)">
<title>/home/yukiosir/workspace/CompilerProject/Software/pinhao/lib/Support/YamlOptions.cpp</title>
<polygon fill="white" stroke="none" points="-4,4 -4,-158 278.5,-158 278.5,4 -4,4"/>
<!-- Node0 -->
<g id="node1" class="node"><title>Node0</title>
<polygon fill="#bfbfbf" stroke="black" points="96.5,-112.5 96.5,-153.5 272.5,-153.5 272.5,-112.5 96.5,-112.5"/>
<text text-anchor="start" x="104.5" y="-141.5" font-family="Helvetica,sans-Serif" font-size="10.00">/home/yukiosir/workspace</text>
<text text-anchor="start" x="104.5" y="-130.5" font-family="Helvetica,sans-Serif" font-size="10.00">/CompilerProject/Software</text>
<text text-anchor="middle" x="184.5" y="-119.5" font-family="Helvetica,sans-Serif" font-size="10.00">/pinhao/lib/Support/YamlOptions.cpp</text>
</g>
<!-- Node1 -->
<g id="node2" class="node"><title>Node1</title>
<g id="a_node2"><a xlink:href="YamlOptions_8h.html" target="_top" xlink:title="pinhao/Support/YamlOptions.h">
<polygon fill="white" stroke="black" points="-1.42109e-14,-56.5 -1.42109e-14,-75.5 149,-75.5 149,-56.5 -1.42109e-14,-56.5"/>
<text text-anchor="middle" x="74.5" y="-63.5" font-family="Helvetica,sans-Serif" font-size="10.00">pinhao/Support/YamlOptions.h</text>
</a>
</g>
</g>
<!-- Node0&#45;&gt;Node1 -->
<g id="edge1" class="edge"><title>Node0&#45;&gt;Node1</title>
<path fill="none" stroke="midnightblue" d="M151.496,-112.498C134.307,-102.34 113.686,-90.1551 98.1116,-80.9523"/>
<polygon fill="midnightblue" stroke="midnightblue" points="99.5325,-77.7266 89.1427,-75.6525 95.9714,-83.7531 99.5325,-77.7266"/>
</g>
<!-- Node3 -->
<g id="node4" class="node"><title>Node3</title>
<polygon fill="white" stroke="#bfbfbf" points="167,-56.5 167,-75.5 202,-75.5 202,-56.5 167,-56.5"/>
<text text-anchor="middle" x="184.5" y="-63.5" font-family="Helvetica,sans-Serif" font-size="10.00">map</text>
</g>
<!-- Node0&#45;&gt;Node3 -->
<g id="edge3" class="edge"><title>Node0&#45;&gt;Node3</title>
<path fill="none" stroke="midnightblue" d="M184.5,-112.498C184.5,-104.065 184.5,-94.2351 184.5,-85.874"/>
<polygon fill="midnightblue" stroke="midnightblue" points="188,-85.6525 184.5,-75.6525 181,-85.6525 188,-85.6525"/>
</g>
<!-- Node4 -->
<g id="node5" class="node"><title>Node4</title>
<polygon fill="white" stroke="#bfbfbf" points="220.5,-56.5 220.5,-75.5 274.5,-75.5 274.5,-56.5 220.5,-56.5"/>
<text text-anchor="middle" x="247.5" y="-63.5" font-family="Helvetica,sans-Serif" font-size="10.00">iostream</text>
</g>
<!-- Node0&#45;&gt;Node4 -->
<g id="edge4" class="edge"><title>Node0&#45;&gt;Node4</title>
<path fill="none" stroke="midnightblue" d="M203.402,-112.498C212.504,-103.107 223.286,-91.9829 231.91,-83.0848"/>
<polygon fill="midnightblue" stroke="midnightblue" points="234.667,-85.2691 239.114,-75.6525 229.641,-80.3973 234.667,-85.2691"/>
</g>
<!-- Node2 -->
<g id="node3" class="node"><title>Node2</title>
<polygon fill="white" stroke="#bfbfbf" points="30,-0.5 30,-19.5 119,-19.5 119,-0.5 30,-0.5"/>
<text text-anchor="middle" x="74.5" y="-7.5" font-family="Helvetica,sans-Serif" font-size="10.00">yaml&#45;cpp/yaml.h</text>
</g>
<!-- Node1&#45;&gt;Node2 -->
<g id="edge2" class="edge"><title>Node1&#45;&gt;Node2</title>
<path fill="none" stroke="midnightblue" d="M74.5,-56.083C74.5,-49.0059 74.5,-38.8611 74.5,-29.9865"/>
<polygon fill="midnightblue" stroke="midnightblue" points="78.0001,-29.751 74.5,-19.7511 71.0001,-29.7511 78.0001,-29.751"/>
</g>
</g>
</svg>
