<?xml version="1.0" encoding="UTF-8" standalone="no"?>
<!DOCTYPE svg PUBLIC "-//W3C//DTD SVG 1.1//EN"
 "http://www.w3.org/Graphics/SVG/1.1/DTD/svg11.dtd">
<!-- Generated by graphviz version 2.38.0 (20140413.2041)
 -->
<!-- Title: /home/yukiosir/workspace/CompilerProject/Software/pinhao/include/pinhao/Support/YamlOptions.h Pages: 1 -->
<svg width="2011pt" height="328pt"
 viewBox="0.00 0.00 2011.00 328.00" xmlns="http://www.w3.org/2000/svg" xmlns:xlink="http://www.w3.org/1999/xlink">
<g id="graph0" class="graph" transform="scale(1 1) rotate(0) translate(4 324)">
<title>/home/yukiosir/workspace/CompilerProject/Software/pinhao/include/pinhao/Support/YamlOptions.h</title>
<polygon fill="white" stroke="none" points="-4,4 -4,-324 2007,-324 2007,4 -4,4"/>
<!-- Node2 -->
<g id="node1" class="node"><title>Node2</title>
<polygon fill="#bfbfbf" stroke="black" points="1115,-267.5 1115,-319.5 1265,-319.5 1265,-267.5 1115,-267.5"/>
<text text-anchor="start" x="1123" y="-307.5" font-family="Helvetica,sans-Serif" font-size="10.00">/home/yukiosir/workspace</text>
<text text-anchor="start" x="1123" y="-296.5" font-family="Helvetica,sans-Serif" font-size="10.00">/CompilerProject/Software</text>
<text text-anchor="start" x="1123" y="-285.5" font-family="Helvetica,sans-Serif" font-size="10.00">/pinhao/include/pinhao/Support</text>
<text text-anchor="middle" x="1190" y="-274.5" font-family="Helvetica,sans-Serif" font-size="10.00">/YamlOptions.h</text>
</g>
<!-- Node3 -->
<g id="node2" class="node"><title>Node3</title>
<g id="a_node2"><a xlink:href="PinhaoOptions_8h.html" target="_top" xlink:title="/home/yukiosir/workspace\l/CompilerProject/Software\l/pinhao/include/pinhao/PinhaoOptions.h">
<polygon fill="white" stroke="black" points="172,-184 172,-225 360,-225 360,-184 172,-184"/>
<text text-anchor="start" x="180" y="-213" font-family="Helvetica,sans-Serif" font-size="10.00">/home/yukiosir/workspace</text>
<text text-anchor="start" x="180" y="-202" font-family="Helvetica,sans-Serif" font-size="10.00">/CompilerProject/Software</text>
<text text-anchor="middle" x="266" y="-191" font-family="Helvetica,sans-Serif" font-size="10.00">/pinhao/include/pinhao/PinhaoOptions.h</text>
</a>
</g>
</g>
<!-- Node2&#45;&gt;Node3 -->
<g id="edge1" class="edge"><title>Node2&#45;&gt;Node3</title>
<path fill="none" stroke="midnightblue" d="M1104.73,-290.465C955.712,-285.931 638.537,-271.941 374,-231 363.624,-229.394 352.771,-227.316 342.114,-225.04"/>
<polygon fill="midnightblue" stroke="midnightblue" points="1104.64,-293.963 1114.74,-290.762 1104.85,-286.966 1104.64,-293.963"/>
</g>
<!-- Node6 -->
<g id="node5" class="node"><title>Node6</title>
<g id="a_node5"><a xlink:href="FeatureYAMLWrapper_8h.html" target="_top" xlink:title="/home/yukiosir/workspace\l/CompilerProject/Software\l/pinhao/include/pinhao/Support\l/FeatureYAMLWrapper.h">
<polygon fill="white" stroke="black" points="775,-178.5 775,-230.5 925,-230.5 925,-178.5 775,-178.5"/>
<text text-anchor="start" x="783" y="-218.5" font-family="Helvetica,sans-Serif" font-size="10.00">/home/yukiosir/workspace</text>
<text text-anchor="start" x="783" y="-207.5" font-family="Helvetica,sans-Serif" font-size="10.00">/CompilerProject/Software</text>
<text text-anchor="start" x="783" y="-196.5" font-family="Helvetica,sans-Serif" font-size="10.00">/pinhao/include/pinhao/Support</text>
<text text-anchor="middle" x="850" y="-185.5" font-family="Helvetica,sans-Serif" font-size="10.00">/FeatureYAMLWrapper.h</text>
</a>
</g>
</g>
<!-- Node2&#45;&gt;Node6 -->
<g id="edge4" class="edge"><title>Node2&#45;&gt;Node6</title>
<path fill="none" stroke="midnightblue" d="M1105.13,-273.435C1055.13,-261.874 990.758,-246.418 934,-231 931.059,-230.201 928.064,-229.371 925.042,-228.52"/>
<polygon fill="midnightblue" stroke="midnightblue" points="1104.4,-276.858 1114.93,-275.694 1105.97,-270.037 1104.4,-276.858"/>
</g>
<!-- Node12 -->
<g id="node11" class="node"><title>Node12</title>
<g id="a_node11"><a xlink:href="CFGBasicBlockStaticFeatures_8cpp.html" target="_top" xlink:title="This file implements the CFGBasicBlockStaticFeatures class. ">
<polygon fill="white" stroke="black" points="133.5,-0.5 133.5,-52.5 306.5,-52.5 306.5,-0.5 133.5,-0.5"/>
<text text-anchor="start" x="141.5" y="-40.5" font-family="Helvetica,sans-Serif" font-size="10.00">/home/yukiosir/workspace</text>
<text text-anchor="start" x="141.5" y="-29.5" font-family="Helvetica,sans-Serif" font-size="10.00">/CompilerProject/Software</text>
<text text-anchor="start" x="141.5" y="-18.5" font-family="Helvetica,sans-Serif" font-size="10.00">/pinhao/lib/FeaturesImpl</text>
<text text-anchor="middle" x="220" y="-7.5" font-family="Helvetica,sans-Serif" font-size="10.00">/CFGBasicBlockStaticFeatures.cpp</text>
</a>
</g>
</g>
<!-- Node2&#45;&gt;Node12 -->
<g id="edge24" class="edge"><title>Node2&#45;&gt;Node12</title>
<path fill="none" stroke="midnightblue" d="M1104.84,-283.554C927.315,-263.724 524.416,-212.213 407,-142 379.725,-125.69 384.759,-107.613 359,-89 338.787,-74.395 314.556,-62.1924 292.028,-52.6086"/>
<polygon fill="midnightblue" stroke="midnightblue" points="1104.6,-287.048 1114.92,-284.673 1105.37,-280.091 1104.6,-287.048"/>
</g>
<!-- Node19 -->
<g id="node18" class="node"><title>Node19</title>
<g id="a_node18"><a xlink:href="FormulaYAMLWrapper_8h.html" target="_top" xlink:title="/home/yukiosir/workspace\l/CompilerProject/Software\l/pinhao/include/pinhao/Support\l/FormulaYAMLWrapper.h">
<polygon fill="white" stroke="black" points="943,-178.5 943,-230.5 1093,-230.5 1093,-178.5 943,-178.5"/>
<text text-anchor="start" x="951" y="-218.5" font-family="Helvetica,sans-Serif" font-size="10.00">/home/yukiosir/workspace</text>
<text text-anchor="start" x="951" y="-207.5" font-family="Helvetica,sans-Serif" font-size="10.00">/CompilerProject/Software</text>
<text text-anchor="start" x="951" y="-196.5" font-family="Helvetica,sans-Serif" font-size="10.00">/pinhao/include/pinhao/Support</text>
<text text-anchor="middle" x="1018" y="-185.5" font-family="Helvetica,sans-Serif" font-size="10.00">/FormulaYAMLWrapper.h</text>
</a>
</g>
</g>
<!-- Node2&#45;&gt;Node19 -->
<g id="edge21" class="edge"><title>Node2&#45;&gt;Node19</title>
<path fill="none" stroke="midnightblue" d="M1131.24,-262.776C1110.54,-252.309 1087.5,-240.656 1067.64,-230.607"/>
<polygon fill="midnightblue" stroke="midnightblue" points="1129.75,-265.946 1140.25,-267.336 1132.91,-259.699 1129.75,-265.946"/>
</g>
<!-- Node22 -->
<g id="node21" class="node"><title>Node22</title>
<g id="a_node21"><a xlink:href="GEOSWrapper_8cpp.html" target="_top" xlink:title="/home/yukiosir/workspace\l/CompilerProject/Software\l/pinhao/lib/PerformanceAnalyser\l/GEOSWrapper.cpp">
<polygon fill="white" stroke="black" points="1111,-178.5 1111,-230.5 1269,-230.5 1269,-178.5 1111,-178.5"/>
<text text-anchor="start" x="1119" y="-218.5" font-family="Helvetica,sans-Serif" font-size="10.00">/home/yukiosir/workspace</text>
<text text-anchor="start" x="1119" y="-207.5" font-family="Helvetica,sans-Serif" font-size="10.00">/CompilerProject/Software</text>
<text text-anchor="start" x="1119" y="-196.5" font-family="Helvetica,sans-Serif" font-size="10.00">/pinhao/lib/PerformanceAnalyser</text>
<text text-anchor="middle" x="1190" y="-185.5" font-family="Helvetica,sans-Serif" font-size="10.00">/GEOSWrapper.cpp</text>
</a>
</g>
</g>
<!-- Node2&#45;&gt;Node22 -->
<g id="edge25" class="edge"><title>Node2&#45;&gt;Node22</title>
<path fill="none" stroke="midnightblue" d="M1190,-257.191C1190,-248.282 1190,-238.899 1190,-230.607"/>
<polygon fill="midnightblue" stroke="midnightblue" points="1186.5,-257.336 1190,-267.336 1193.5,-257.336 1186.5,-257.336"/>
</g>
<!-- Node23 -->
<g id="node22" class="node"><title>Node23</title>
<g id="a_node22"><a xlink:href="SProfWrapper_8cpp.html" target="_top" xlink:title="/home/yukiosir/workspace\l/CompilerProject/Software\l/pinhao/lib/PerformanceAnalyser\l/SProfWrapper.cpp">
<polygon fill="white" stroke="black" points="1287,-178.5 1287,-230.5 1445,-230.5 1445,-178.5 1287,-178.5"/>
<text text-anchor="start" x="1295" y="-218.5" font-family="Helvetica,sans-Serif" font-size="10.00">/home/yukiosir/workspace</text>
<text text-anchor="start" x="1295" y="-207.5" font-family="Helvetica,sans-Serif" font-size="10.00">/CompilerProject/Software</text>
<text text-anchor="start" x="1295" y="-196.5" font-family="Helvetica,sans-Serif" font-size="10.00">/pinhao/lib/PerformanceAnalyser</text>
<text text-anchor="middle" x="1366" y="-185.5" font-family="Helvetica,sans-Serif" font-size="10.00">/SProfWrapper.cpp</text>
</a>
</g>
</g>
<!-- Node2&#45;&gt;Node23 -->
<g id="edge26" class="edge"><title>Node2&#45;&gt;Node23</title>
<path fill="none" stroke="midnightblue" d="M1250.13,-262.776C1271.31,-252.309 1294.88,-240.656 1315.21,-230.607"/>
<polygon fill="midnightblue" stroke="midnightblue" points="1248.32,-259.767 1240.91,-267.336 1251.42,-266.042 1248.32,-259.767"/>
</g>
<!-- Node24 -->
<g id="node23" class="node"><title>Node24</title>
<g id="a_node23"><a xlink:href="YamlOptions_8cpp.html" target="_top" xlink:title="/home/yukiosir/workspace\l/CompilerProject/Software\l/pinhao/lib/Support/YamlOptions.cpp">
<polygon fill="white" stroke="black" points="1463,-184 1463,-225 1639,-225 1639,-184 1463,-184"/>
<text text-anchor="start" x="1471" y="-213" font-family="Helvetica,sans-Serif" font-size="10.00">/home/yukiosir/workspace</text>
<text text-anchor="start" x="1471" y="-202" font-family="Helvetica,sans-Serif" font-size="10.00">/CompilerProject/Software</text>
<text text-anchor="middle" x="1551" y="-191" font-family="Helvetica,sans-Serif" font-size="10.00">/pinhao/lib/Support/YamlOptions.cpp</text>
</a>
</g>
</g>
<!-- Node2&#45;&gt;Node24 -->
<g id="edge27" class="edge"><title>Node2&#45;&gt;Node24</title>
<path fill="none" stroke="midnightblue" d="M1275.06,-273.327C1326.86,-261.489 1394.35,-245.785 1454,-231 1461.69,-229.094 1469.71,-227.06 1477.7,-225.003"/>
<polygon fill="midnightblue" stroke="midnightblue" points="1274.21,-269.929 1265.24,-275.566 1275.77,-276.754 1274.21,-269.929"/>
</g>
<!-- Node25 -->
<g id="node24" class="node"><title>Node25</title>
<g id="a_node24"><a xlink:href="OptimizerYAMLWrapper_8cpp.html" target="_top" xlink:title="/home/yukiosir/workspace\l/CompilerProject/Software\l/pinhao/lib/Support/YAMLWrapper\l/OptimizerYAMLWrapper.cpp">
<polygon fill="white" stroke="black" points="1657,-178.5 1657,-230.5 1821,-230.5 1821,-178.5 1657,-178.5"/>
<text text-anchor="start" x="1665" y="-218.5" font-family="Helvetica,sans-Serif" font-size="10.00">/home/yukiosir/workspace</text>
<text text-anchor="start" x="1665" y="-207.5" font-family="Helvetica,sans-Serif" font-size="10.00">/CompilerProject/Software</text>
<text text-anchor="start" x="1665" y="-196.5" font-family="Helvetica,sans-Serif" font-size="10.00">/pinhao/lib/Support/YAMLWrapper</text>
<text text-anchor="middle" x="1739" y="-185.5" font-family="Helvetica,sans-Serif" font-size="10.00">/OptimizerYAMLWrapper.cpp</text>
</a>
</g>
</g>
<!-- Node2&#45;&gt;Node25 -->
<g id="edge28" class="edge"><title>Node2&#45;&gt;Node25</title>
<path fill="none" stroke="midnightblue" d="M1275.25,-284.651C1367.68,-275.307 1519.25,-257.548 1648,-231 1650.89,-230.404 1653.83,-229.765 1656.79,-229.093"/>
<polygon fill="midnightblue" stroke="midnightblue" points="1274.71,-281.188 1265.11,-285.667 1275.41,-288.153 1274.71,-281.188"/>
</g>
<!-- Node26 -->
<g id="node25" class="node"><title>Node26</title>
<g id="a_node25"><a xlink:href="YAMLWrapper_8cpp.html" target="_top" xlink:title="/home/yukiosir/workspace\l/CompilerProject/Software\l/pinhao/lib/Support/YAMLWrapper\l/YAMLWrapper.cpp">
<polygon fill="white" stroke="black" points="1839,-178.5 1839,-230.5 2003,-230.5 2003,-178.5 1839,-178.5"/>
<text text-anchor="start" x="1847" y="-218.5" font-family="Helvetica,sans-Serif" font-size="10.00">/home/yukiosir/workspace</text>
<text text-anchor="start" x="1847" y="-207.5" font-family="Helvetica,sans-Serif" font-size="10.00">/CompilerProject/Software</text>
<text text-anchor="start" x="1847" y="-196.5" font-family="Helvetica,sans-Serif" font-size="10.00">/pinhao/lib/Support/YAMLWrapper</text>
<text text-anchor="middle" x="1921" y="-185.5" font-family="Helvetica,sans-Serif" font-size="10.00">/YAMLWrapper.cpp</text>
</a>
</g>
</g>
<!-- Node2&#45;&gt;Node26 -->
<g id="edge29" class="edge"><title>Node2&#45;&gt;Node26</title>
<path fill="none" stroke="midnightblue" d="M1275.63,-289.101C1399.03,-283.114 1633.62,-267.65 1830,-231 1832.9,-230.458 1835.85,-229.866 1838.81,-229.235"/>
<polygon fill="midnightblue" stroke="midnightblue" points="1275.31,-285.612 1265.49,-289.584 1275.64,-292.604 1275.31,-285.612"/>
</g>
<!-- Node4 -->
<g id="node3" class="node"><title>Node4</title>
<g id="a_node3"><a xlink:href="PinhaoOptions_8cpp.html" target="_top" xlink:title="/home/yukiosir/workspace\l/CompilerProject/Software\l/pinhao/lib/PinhaoOptions.cpp">
<polygon fill="white" stroke="black" points="204,-95 204,-136 350,-136 350,-95 204,-95"/>
<text text-anchor="start" x="212" y="-124" font-family="Helvetica,sans-Serif" font-size="10.00">/home/yukiosir/workspace</text>
<text text-anchor="start" x="212" y="-113" font-family="Helvetica,sans-Serif" font-size="10.00">/CompilerProject/Software</text>
<text text-anchor="middle" x="277" y="-102" font-family="Helvetica,sans-Serif" font-size="10.00">/pinhao/lib/PinhaoOptions.cpp</text>
</a>
</g>
</g>
<!-- Node3&#45;&gt;Node4 -->
<g id="edge2" class="edge"><title>Node3&#45;&gt;Node4</title>
<path fill="none" stroke="midnightblue" d="M269.753,-173.814C271.325,-161.383 273.109,-147.273 274.514,-136.164"/>
<polygon fill="midnightblue" stroke="midnightblue" points="266.278,-173.398 268.496,-183.758 273.223,-174.276 266.278,-173.398"/>
</g>
<!-- Node5 -->
<g id="node4" class="node"><title>Node5</title>
<g id="a_node4"><a xlink:href="Main_8cpp.html" target="_top" xlink:title="/home/yukiosir/workspace\l/CompilerProject/Software\l/pinhao/tools/SimpleGrammarEvolution\l/Main.cpp">
<polygon fill="white" stroke="black" points="0,-89.5 0,-141.5 186,-141.5 186,-89.5 0,-89.5"/>
<text text-anchor="start" x="8" y="-129.5" font-family="Helvetica,sans-Serif" font-size="10.00">/home/yukiosir/workspace</text>
<text text-anchor="start" x="8" y="-118.5" font-family="Helvetica,sans-Serif" font-size="10.00">/CompilerProject/Software</text>
<text text-anchor="start" x="8" y="-107.5" font-family="Helvetica,sans-Serif" font-size="10.00">/pinhao/tools/SimpleGrammarEvolution</text>
<text text-anchor="middle" x="93" y="-96.5" font-family="Helvetica,sans-Serif" font-size="10.00">/Main.cpp</text>
</a>
</g>
</g>
<!-- Node3&#45;&gt;Node5 -->
<g id="edge3" class="edge"><title>Node3&#45;&gt;Node5</title>
<path fill="none" stroke="midnightblue" d="M218.125,-179.424C194.715,-167.651 166.554,-153.49 142.881,-141.585"/>
<polygon fill="midnightblue" stroke="midnightblue" points="216.669,-182.61 227.175,-183.976 219.814,-176.356 216.669,-182.61"/>
</g>
<!-- Node7 -->
<g id="node6" class="node"><title>Node7</title>
<g id="a_node6"><a xlink:href="MapFeature_8h.html" target="_top" xlink:title="/home/yukiosir/workspace\l/CompilerProject/Software\l/pinhao/include/pinhao/Features\l/MapFeature.h">
<polygon fill="white" stroke="black" points="945.5,-89.5 945.5,-141.5 1100.5,-141.5 1100.5,-89.5 945.5,-89.5"/>
<text text-anchor="start" x="953.5" y="-129.5" font-family="Helvetica,sans-Serif" font-size="10.00">/home/yukiosir/workspace</text>
<text text-anchor="start" x="953.5" y="-118.5" font-family="Helvetica,sans-Serif" font-size="10.00">/CompilerProject/Software</text>
<text text-anchor="start" x="953.5" y="-107.5" font-family="Helvetica,sans-Serif" font-size="10.00">/pinhao/include/pinhao/Features</text>
<text text-anchor="middle" x="1023" y="-96.5" font-family="Helvetica,sans-Serif" font-size="10.00">/MapFeature.h</text>
</a>
</g>
</g>
<!-- Node6&#45;&gt;Node7 -->
<g id="edge5" class="edge"><title>Node6&#45;&gt;Node7</title>
<path fill="none" stroke="midnightblue" d="M902.94,-173.635C923.201,-163.205 946.344,-151.611 966.891,-141.607"/>
<polygon fill="midnightblue" stroke="midnightblue" points="901.127,-170.633 893.853,-178.336 904.343,-176.85 901.127,-170.633"/>
</g>
<!-- Node11 -->
<g id="node10" class="node"><title>Node11</title>
<g id="a_node10"><a xlink:href="MapVectorFeature_8h.html" target="_top" xlink:title="/home/yukiosir/workspace\l/CompilerProject/Software\l/pinhao/include/pinhao/Features\l/MapVectorFeature.h">
<polygon fill="white" stroke="black" points="416.5,-89.5 416.5,-141.5 571.5,-141.5 571.5,-89.5 416.5,-89.5"/>
<text text-anchor="start" x="424.5" y="-129.5" font-family="Helvetica,sans-Serif" font-size="10.00">/home/yukiosir/workspace</text>
<text text-anchor="start" x="424.5" y="-118.5" font-family="Helvetica,sans-Serif" font-size="10.00">/CompilerProject/Software</text>
<text text-anchor="start" x="424.5" y="-107.5" font-family="Helvetica,sans-Serif" font-size="10.00">/pinhao/include/pinhao/Features</text>
<text text-anchor="middle" x="494" y="-96.5" font-family="Helvetica,sans-Serif" font-size="10.00">/MapVectorFeature.h</text>
</a>
</g>
</g>
<!-- Node6&#45;&gt;Node11 -->
<g id="edge10" class="edge"><title>Node6&#45;&gt;Node11</title>
<path fill="none" stroke="midnightblue" d="M764.88,-187.071C709.554,-175.334 636.153,-158.719 572,-142 571.391,-141.841 570.779,-141.681 570.166,-141.52"/>
<polygon fill="midnightblue" stroke="midnightblue" points="764.487,-190.565 774.994,-189.205 765.932,-183.716 764.487,-190.565"/>
</g>
<!-- Node15 -->
<g id="node14" class="node"><title>Node15</title>
<g id="a_node14"><a xlink:href="VectorFeature_8h.html" target="_top" xlink:title="/home/yukiosir/workspace\l/CompilerProject/Software\l/pinhao/include/pinhao/Features\l/VectorFeature.h">
<polygon fill="white" stroke="black" points="772.5,-89.5 772.5,-141.5 927.5,-141.5 927.5,-89.5 772.5,-89.5"/>
<text text-anchor="start" x="780.5" y="-129.5" font-family="Helvetica,sans-Serif" font-size="10.00">/home/yukiosir/workspace</text>
<text text-anchor="start" x="780.5" y="-118.5" font-family="Helvetica,sans-Serif" font-size="10.00">/CompilerProject/Software</text>
<text text-anchor="start" x="780.5" y="-107.5" font-family="Helvetica,sans-Serif" font-size="10.00">/pinhao/include/pinhao/Features</text>
<text text-anchor="middle" x="850" y="-96.5" font-family="Helvetica,sans-Serif" font-size="10.00">/VectorFeature.h</text>
</a>
</g>
</g>
<!-- Node6&#45;&gt;Node15 -->
<g id="edge15" class="edge"><title>Node6&#45;&gt;Node15</title>
<path fill="none" stroke="midnightblue" d="M843.358,-168.191C843.121,-159.282 843.275,-149.899 843.818,-141.607"/>
<polygon fill="midnightblue" stroke="midnightblue" points="839.868,-168.503 843.814,-178.336 846.861,-168.189 839.868,-168.503"/>
</g>
<!-- Node18 -->
<g id="node17" class="node"><title>Node18</title>
<g id="a_node17"><a xlink:href="FeatureYAMLWrapper_8cpp.html" target="_top" xlink:title="/home/yukiosir/workspace\l/CompilerProject/Software\l/pinhao/lib/Support/YAMLWrapper\l/FeatureYAMLWrapper.cpp">
<polygon fill="white" stroke="black" points="590,-89.5 590,-141.5 754,-141.5 754,-89.5 590,-89.5"/>
<text text-anchor="start" x="598" y="-129.5" font-family="Helvetica,sans-Serif" font-size="10.00">/home/yukiosir/workspace</text>
<text text-anchor="start" x="598" y="-118.5" font-family="Helvetica,sans-Serif" font-size="10.00">/CompilerProject/Software</text>
<text text-anchor="start" x="598" y="-107.5" font-family="Helvetica,sans-Serif" font-size="10.00">/pinhao/lib/Support/YAMLWrapper</text>
<text text-anchor="middle" x="672" y="-96.5" font-family="Helvetica,sans-Serif" font-size="10.00">/FeatureYAMLWrapper.cpp</text>
</a>
</g>
</g>
<!-- Node6&#45;&gt;Node18 -->
<g id="edge20" class="edge"><title>Node6&#45;&gt;Node18</title>
<path fill="none" stroke="midnightblue" d="M789.474,-173.917C767.985,-163.414 744.02,-151.701 723.369,-141.607"/>
<polygon fill="midnightblue" stroke="midnightblue" points="787.994,-177.089 798.515,-178.336 791.068,-170.8 787.994,-177.089"/>
</g>
<!-- Node7&#45;&gt;Node6 -->
<g id="edge6" class="edge"><title>Node7&#45;&gt;Node6</title>
<path fill="none" stroke="midnightblue" d="M970.175,-146.306C949.924,-156.732 926.782,-168.327 906.225,-178.336"/>
<polygon fill="midnightblue" stroke="midnightblue" points="971.982,-149.311 979.256,-141.607 968.766,-143.094 971.982,-149.311"/>
</g>
<!-- Node8 -->
<g id="node7" class="node"><title>Node8</title>
<g id="a_node7"><a xlink:href="FunctionsGeneFeature_8cpp.html" target="_top" xlink:title="/home/yukiosir/workspace\l/CompilerProject/Software\l/pinhao/lib/FeaturesImpl\l/FunctionsGeneFeature.cpp">
<polygon fill="white" stroke="black" points="1275.5,-0.5 1275.5,-52.5 1412.5,-52.5 1412.5,-0.5 1275.5,-0.5"/>
<text text-anchor="start" x="1283.5" y="-40.5" font-family="Helvetica,sans-Serif" font-size="10.00">/home/yukiosir/workspace</text>
<text text-anchor="start" x="1283.5" y="-29.5" font-family="Helvetica,sans-Serif" font-size="10.00">/CompilerProject/Software</text>
<text text-anchor="start" x="1283.5" y="-18.5" font-family="Helvetica,sans-Serif" font-size="10.00">/pinhao/lib/FeaturesImpl</text>
<text text-anchor="middle" x="1344" y="-7.5" font-family="Helvetica,sans-Serif" font-size="10.00">/FunctionsGeneFeature.cpp</text>
</a>
</g>
</g>
<!-- Node7&#45;&gt;Node8 -->
<g id="edge7" class="edge"><title>Node7&#45;&gt;Node8</title>
<path fill="none" stroke="midnightblue" d="M1110.53,-88.9386C1180.98,-71.002 1201.02,-71.4462 1267,-53 1269.71,-52.2417 1272.47,-51.4463 1275.25,-50.6241"/>
<polygon fill="midnightblue" stroke="midnightblue" points="1109.53,-85.5806 1100.72,-91.4691 1111.28,-92.3584 1109.53,-85.5806"/>
</g>
<!-- Node9 -->
<g id="node8" class="node"><title>Node9</title>
<g id="a_node8"><a xlink:href="FunctionStaticCostFeature_8cpp.html" target="_top" xlink:title="/home/yukiosir/workspace\l/CompilerProject/Software\l/pinhao/lib/FeaturesImpl\l/FunctionStaticCostFeature.cpp">
<polygon fill="white" stroke="black" points="1430.5,-0.5 1430.5,-52.5 1585.5,-52.5 1585.5,-0.5 1430.5,-0.5"/>
<text text-anchor="start" x="1438.5" y="-40.5" font-family="Helvetica,sans-Serif" font-size="10.00">/home/yukiosir/workspace</text>
<text text-anchor="start" x="1438.5" y="-29.5" font-family="Helvetica,sans-Serif" font-size="10.00">/CompilerProject/Software</text>
<text text-anchor="start" x="1438.5" y="-18.5" font-family="Helvetica,sans-Serif" font-size="10.00">/pinhao/lib/FeaturesImpl</text>
<text text-anchor="middle" x="1508" y="-7.5" font-family="Helvetica,sans-Serif" font-size="10.00">/FunctionStaticCostFeature.cpp</text>
</a>
</g>
</g>
<!-- Node7&#45;&gt;Node9 -->
<g id="edge8" class="edge"><title>Node7&#45;&gt;Node9</title>
<path fill="none" stroke="midnightblue" d="M1110.73,-89.0242C1248.66,-62.165 1288.44,-80.2907 1422,-53 1424.75,-52.4388 1427.53,-51.8305 1430.34,-51.1844"/>
<polygon fill="midnightblue" stroke="midnightblue" points="1109.75,-85.6506 1100.62,-91.0371 1111.12,-92.5157 1109.75,-85.6506"/>
</g>
<!-- Node10 -->
<g id="node9" class="node"><title>Node10</title>
<g id="a_node9"><a xlink:href="GEOSBasicBlockFreqFeature_8cpp.html" target="_top" xlink:title="/home/yukiosir/workspace\l/CompilerProject/Software\l/pinhao/lib/FeaturesImpl\l/GEOSFeatures/GEOSBasicBlockFreqFeature.cpp">
<polygon fill="white" stroke="black" points="1018.5,-0.5 1018.5,-52.5 1257.5,-52.5 1257.5,-0.5 1018.5,-0.5"/>
<text text-anchor="start" x="1026.5" y="-40.5" font-family="Helvetica,sans-Serif" font-size="10.00">/home/yukiosir/workspace</text>
<text text-anchor="start" x="1026.5" y="-29.5" font-family="Helvetica,sans-Serif" font-size="10.00">/CompilerProject/Software</text>
<text text-anchor="start" x="1026.5" y="-18.5" font-family="Helvetica,sans-Serif" font-size="10.00">/pinhao/lib/FeaturesImpl</text>
<text text-anchor="middle" x="1138" y="-7.5" font-family="Helvetica,sans-Serif" font-size="10.00">/GEOSFeatures/GEOSBasicBlockFreqFeature.cpp</text>
</a>
</g>
</g>
<!-- Node7&#45;&gt;Node10 -->
<g id="edge9" class="edge"><title>Node7&#45;&gt;Node10</title>
<path fill="none" stroke="midnightblue" d="M1064.35,-83.219C1077.64,-73.1637 1092.18,-62.1603 1104.81,-52.6075"/>
<polygon fill="midnightblue" stroke="midnightblue" points="1062.13,-80.5115 1056.26,-89.336 1066.35,-86.094 1062.13,-80.5115"/>
</g>
<!-- Node11&#45;&gt;Node6 -->
<g id="edge11" class="edge"><title>Node11&#45;&gt;Node6</title>
<path fill="none" stroke="midnightblue" d="M581.526,-139.751C584.385,-140.522 587.216,-141.274 590,-142 652.12,-158.189 722.91,-174.28 774.984,-185.941"/>
<polygon fill="midnightblue" stroke="midnightblue" points="582.291,-136.332 571.722,-137.068 580.443,-143.084 582.291,-136.332"/>
</g>
<!-- Node11&#45;&gt;Node12 -->
<g id="edge12" class="edge"><title>Node11&#45;&gt;Node12</title>
<path fill="none" stroke="midnightblue" d="M406.605,-86.7506C372.044,-75.7769 332.614,-63.257 298.93,-52.5619"/>
<polygon fill="midnightblue" stroke="midnightblue" points="405.625,-90.1115 416.216,-89.802 407.744,-83.4398 405.625,-90.1115"/>
</g>
<!-- Node13 -->
<g id="node12" class="node"><title>Node13</title>
<g id="a_node12"><a xlink:href="CFGFunctionStaticFeatures_8cpp.html" target="_top" xlink:title="This file implements the CFGFunctionStaticFeatures class. ">
<polygon fill="white" stroke="black" points="324.5,-0.5 324.5,-52.5 485.5,-52.5 485.5,-0.5 324.5,-0.5"/>
<text text-anchor="start" x="332.5" y="-40.5" font-family="Helvetica,sans-Serif" font-size="10.00">/home/yukiosir/workspace</text>
<text text-anchor="start" x="332.5" y="-29.5" font-family="Helvetica,sans-Serif" font-size="10.00">/CompilerProject/Software</text>
<text text-anchor="start" x="332.5" y="-18.5" font-family="Helvetica,sans-Serif" font-size="10.00">/pinhao/lib/FeaturesImpl</text>
<text text-anchor="middle" x="405" y="-7.5" font-family="Helvetica,sans-Serif" font-size="10.00">/CFGFunctionStaticFeatures.cpp</text>
</a>
</g>
</g>
<!-- Node11&#45;&gt;Node13 -->
<g id="edge13" class="edge"><title>Node11&#45;&gt;Node13</title>
<path fill="none" stroke="midnightblue" d="M460.831,-82.0768C450.866,-72.3353 440.088,-61.7998 430.685,-52.6075"/>
<polygon fill="midnightblue" stroke="midnightblue" points="458.66,-84.8485 468.258,-89.336 463.553,-79.8429 458.66,-84.8485"/>
</g>
<!-- Node14 -->
<g id="node13" class="node"><title>Node14</title>
<g id="a_node13"><a xlink:href="CFGModuleStaticFeatures_8cpp.html" target="_top" xlink:title="/home/yukiosir/workspace\l/CompilerProject/Software\l/pinhao/lib/FeaturesImpl\l/CFGModuleStaticFeatures.cpp">
<polygon fill="white" stroke="black" points="503.5,-0.5 503.5,-52.5 658.5,-52.5 658.5,-0.5 503.5,-0.5"/>
<text text-anchor="start" x="511.5" y="-40.5" font-family="Helvetica,sans-Serif" font-size="10.00">/home/yukiosir/workspace</text>
<text text-anchor="start" x="511.5" y="-29.5" font-family="Helvetica,sans-Serif" font-size="10.00">/CompilerProject/Software</text>
<text text-anchor="start" x="511.5" y="-18.5" font-family="Helvetica,sans-Serif" font-size="10.00">/pinhao/lib/FeaturesImpl</text>
<text text-anchor="middle" x="581" y="-7.5" font-family="Helvetica,sans-Serif" font-size="10.00">/CFGModuleStaticFeatures.cpp</text>
</a>
</g>
</g>
<!-- Node11&#45;&gt;Node14 -->
<g id="edge14" class="edge"><title>Node11&#45;&gt;Node14</title>
<path fill="none" stroke="midnightblue" d="M526.423,-82.0768C536.165,-72.3353 546.7,-61.7998 555.893,-52.6075"/>
<polygon fill="midnightblue" stroke="midnightblue" points="523.76,-79.79 519.164,-89.336 528.71,-84.7398 523.76,-79.79"/>
</g>
<!-- Node15&#45;&gt;Node6 -->
<g id="edge16" class="edge"><title>Node15&#45;&gt;Node6</title>
<path fill="none" stroke="midnightblue" d="M856.641,-151.749C856.879,-160.655 856.727,-170.04 856.186,-178.336"/>
<polygon fill="midnightblue" stroke="midnightblue" points="860.131,-151.439 856.182,-141.607 853.138,-151.755 860.131,-151.439"/>
</g>
<!-- Node15&#45;&gt;Node14 -->
<g id="edge17" class="edge"><title>Node15&#45;&gt;Node14</title>
<path fill="none" stroke="midnightblue" d="M762.74,-86.2784C729.119,-75.4048 690.987,-63.0721 658.364,-52.5211"/>
<polygon fill="midnightblue" stroke="midnightblue" points="761.963,-89.7056 772.555,-89.4527 764.117,-83.0452 761.963,-89.7056"/>
</g>
<!-- Node16 -->
<g id="node15" class="node"><title>Node16</title>
<g id="a_node15"><a xlink:href="GEOSFeatures_8cpp.html" target="_top" xlink:title="/home/yukiosir/workspace\l/CompilerProject/Software\l/pinhao/lib/FeaturesImpl\l/GEOSFeatures/GEOSFeatures.cpp">
<polygon fill="white" stroke="black" points="676.5,-0.5 676.5,-52.5 851.5,-52.5 851.5,-0.5 676.5,-0.5"/>
<text text-anchor="start" x="684.5" y="-40.5" font-family="Helvetica,sans-Serif" font-size="10.00">/home/yukiosir/workspace</text>
<text text-anchor="start" x="684.5" y="-29.5" font-family="Helvetica,sans-Serif" font-size="10.00">/CompilerProject/Software</text>
<text text-anchor="start" x="684.5" y="-18.5" font-family="Helvetica,sans-Serif" font-size="10.00">/pinhao/lib/FeaturesImpl</text>
<text text-anchor="middle" x="764" y="-7.5" font-family="Helvetica,sans-Serif" font-size="10.00">/GEOSFeatures/GEOSFeatures.cpp</text>
</a>
</g>
</g>
<!-- Node15&#45;&gt;Node16 -->
<g id="edge18" class="edge"><title>Node15&#45;&gt;Node16</title>
<path fill="none" stroke="midnightblue" d="M817.949,-82.0768C808.32,-72.3353 797.906,-61.7998 788.819,-52.6075"/>
<polygon fill="midnightblue" stroke="midnightblue" points="815.606,-84.6847 825.125,-89.336 820.584,-79.7636 815.606,-84.6847"/>
</g>
<!-- Node17 -->
<g id="node16" class="node"><title>Node17</title>
<g id="a_node16"><a xlink:href="PAPIMultFeatures_8cpp.html" target="_top" xlink:title="This file implements the features extracted by the PAPI tool by multiplexing. ">
<polygon fill="white" stroke="black" points="869.5,-0.5 869.5,-52.5 1000.5,-52.5 1000.5,-0.5 869.5,-0.5"/>
<text text-anchor="start" x="877.5" y="-40.5" font-family="Helvetica,sans-Serif" font-size="10.00">/home/yukiosir/workspace</text>
<text text-anchor="start" x="877.5" y="-29.5" font-family="Helvetica,sans-Serif" font-size="10.00">/CompilerProject/Software</text>
<text text-anchor="start" x="877.5" y="-18.5" font-family="Helvetica,sans-Serif" font-size="10.00">/pinhao/lib/FeaturesImpl</text>
<text text-anchor="middle" x="935" y="-7.5" font-family="Helvetica,sans-Serif" font-size="10.00">/PAPIMultFeatures.cpp</text>
</a>
</g>
</g>
<!-- Node15&#45;&gt;Node17 -->
<g id="edge19" class="edge"><title>Node15&#45;&gt;Node17</title>
<path fill="none" stroke="midnightblue" d="M881.678,-82.0768C891.195,-72.3353 901.489,-61.7998 910.47,-52.6075"/>
<polygon fill="midnightblue" stroke="midnightblue" points="879.07,-79.7372 874.586,-89.336 884.077,-84.6291 879.07,-79.7372"/>
</g>
<!-- Node20 -->
<g id="node19" class="node"><title>Node20</title>
<g id="a_node19"><a xlink:href="Formula_8cpp.html" target="_top" xlink:title="/home/yukiosir/workspace\l/CompilerProject/Software\l/pinhao/lib/MachineLearning\l/GrammarEvolution/Formula.cpp">
<polygon fill="white" stroke="black" points="1301,-89.5 1301,-141.5 1459,-141.5 1459,-89.5 1301,-89.5"/>
<text text-anchor="start" x="1309" y="-129.5" font-family="Helvetica,sans-Serif" font-size="10.00">/home/yukiosir/workspace</text>
<text text-anchor="start" x="1309" y="-118.5" font-family="Helvetica,sans-Serif" font-size="10.00">/CompilerProject/Software</text>
<text text-anchor="start" x="1309" y="-107.5" font-family="Helvetica,sans-Serif" font-size="10.00">/pinhao/lib/MachineLearning</text>
<text text-anchor="middle" x="1380" y="-96.5" font-family="Helvetica,sans-Serif" font-size="10.00">/GrammarEvolution/Formula.cpp</text>
</a>
</g>
</g>
<!-- Node19&#45;&gt;Node20 -->
<g id="edge22" class="edge"><title>Node19&#45;&gt;Node20</title>
<path fill="none" stroke="midnightblue" d="M1103.42,-177.761C1187.25,-157.787 1211.51,-161.241 1292,-142 1294.94,-141.297 1297.93,-140.558 1300.94,-139.793"/>
<polygon fill="midnightblue" stroke="midnightblue" points="1102.34,-174.419 1093.45,-180.178 1103.99,-181.222 1102.34,-174.419"/>
</g>
<!-- Node21 -->
<g id="node20" class="node"><title>Node21</title>
<g id="a_node20"><a xlink:href="FormulaYAMLWrapper_8cpp.html" target="_top" xlink:title="/home/yukiosir/workspace\l/CompilerProject/Software\l/pinhao/lib/Support/YAMLWrapper\l/FormulaYAMLWrapper.cpp">
<polygon fill="white" stroke="black" points="1119,-89.5 1119,-141.5 1283,-141.5 1283,-89.5 1119,-89.5"/>
<text text-anchor="start" x="1127" y="-129.5" font-family="Helvetica,sans-Serif" font-size="10.00">/home/yukiosir/workspace</text>
<text text-anchor="start" x="1127" y="-118.5" font-family="Helvetica,sans-Serif" font-size="10.00">/CompilerProject/Software</text>
<text text-anchor="start" x="1127" y="-107.5" font-family="Helvetica,sans-Serif" font-size="10.00">/pinhao/lib/Support/YAMLWrapper</text>
<text text-anchor="middle" x="1201" y="-96.5" font-family="Helvetica,sans-Serif" font-size="10.00">/FormulaYAMLWrapper.cpp</text>
</a>
</g>
</g>
<!-- Node19&#45;&gt;Node21 -->
<g id="edge23" class="edge"><title>Node19&#45;&gt;Node21</title>
<path fill="none" stroke="midnightblue" d="M1080.23,-173.917C1102.32,-163.414 1126.96,-151.701 1148.19,-141.607"/>
<polygon fill="midnightblue" stroke="midnightblue" points="1078.46,-170.881 1070.93,-178.336 1081.47,-177.203 1078.46,-170.881"/>
</g>
</g>
</svg>
